<svg width="64" height="64" viewBox="0 0 64 64" fill="none" xmlns="http://www.w3.org/2000/svg">
<path d="M38.949 34.9854C37.7818 34.9854 36.6627 35.4491 35.8376 36.2742C35.0125 37.0992 34.5488 38.2184 34.5488 39.3855C34.5488 40.5524 35.0126 41.6715 35.8376 42.4969C36.6627 43.322 37.7818 43.7854 38.949 43.7854C40.1158 43.7854 41.235 43.3219 42.0603 42.4969C42.8854 41.6715 43.3488 40.5524 43.3488 39.3855C43.3488 38.2184 42.8854 37.0992 42.0603 36.2742C41.235 35.4491 40.1158 34.9854 38.949 34.9854Z" fill="#5072EB"/>
<path d="M24.5493 29.3854C25.7164 29.3854 26.8356 28.9217 27.6606 28.0966C28.4857 27.2715 28.9494 26.1524 28.9494 24.9852C28.9494 23.8184 28.4857 22.6992 27.6606 21.8739C26.8356 21.0488 25.7164 20.5854 24.5493 20.5854C23.3824 20.5854 22.2633 21.0488 21.4379 21.8739C20.6128 22.6992 20.1494 23.8184 20.1494 24.9852C20.1494 26.1524 20.6129 27.2715 21.4379 28.0966C22.2633 28.9217 23.3824 29.3854 24.5493 29.3854Z" fill="#5072EB"/>
<path d="M40.1489 28.4897V24.5857C40.1489 23.4185 39.6852 22.2994 38.8601 21.4743C38.0348 20.649 36.9156 20.1855 35.7488 20.1855H31.3486V22.5857H35.7488C36.2792 22.5857 36.7878 22.7963 37.1631 23.1713C37.5381 23.5463 37.7488 24.0553 37.7488 24.5857V28.4897L35.3966 26.1376L33.7008 27.8334L38.1009 32.2336C38.3258 32.4582 38.6308 32.5846 38.9489 32.5846C39.2669 32.5846 39.5719 32.4582 39.7968 32.2336L44.1969 27.8334L42.5011 26.1376L40.1489 28.4897Z" fill="#5072EB"/>
<path d="M25.7489 39.7854V35.8814L28.1011 38.2335L29.7969 36.5377L25.3968 32.1375C25.1719 31.9129 24.8669 31.7865 24.5489 31.7865C24.2308 31.7865 23.9258 31.9129 23.7009 32.1375L19.3008 36.5377L20.9966 38.2335L23.3488 35.8814V39.7854C23.3488 40.9525 23.8125 42.0717 24.6376 42.8968C25.4629 43.7221 26.5821 44.1855 27.7489 44.1855H32.1491V41.7854H27.7489C27.2185 41.7854 26.7099 41.5747 26.3346 41.1997C25.9596 40.8247 25.7489 40.3158 25.7489 39.7854Z" fill="#5072EB"/>
<rect x="0.5" y="0.5" width="63" height="63" stroke="#D7DCE5"/>
</svg>
