<svg width="64" height="64" viewBox="0 0 64 64" fill="none" xmlns="http://www.w3.org/2000/svg">
<path d="M33.6843 23.034H37.2467C37.3217 23.034 37.4342 22.9965 37.5092 22.9216L38.9342 21.6466H41.7467C41.8968 22.2091 42.3844 22.584 42.9844 22.584C43.6968 22.584 44.2969 22.0216 44.2969 21.2715C44.2969 20.5591 43.6967 19.959 42.9844 19.959C42.3844 19.959 41.8968 20.3715 41.7469 20.8966H38.7844C38.7093 20.8966 38.5969 20.9341 38.5219 21.009L37.0969 22.284H33.6844L33.6843 20.3341C33.6843 20.1091 33.5343 19.9592 33.3093 19.9592H30.6094C30.4219 19.9592 30.2719 20.1091 30.2344 20.2966L29.9343 22.8466C29.0719 23.0716 28.2468 23.4091 27.4968 23.859L25.5092 22.284C25.3593 22.1715 25.1343 22.1715 25.0217 22.3215L22.6592 24.684C22.5092 24.834 22.5092 25.0214 22.6217 25.1716L24.1967 27.1591C23.7467 27.909 23.4093 28.7342 23.1843 29.5967L20.6343 29.8967C20.447 29.9341 20.2969 30.084 20.2969 30.2715V33.6089C20.2969 33.7964 20.4468 33.9464 20.6343 33.9839L23.1843 34.284C23.4093 35.1464 23.7467 35.9715 24.1967 36.7215L22.6217 38.7091C22.5092 38.859 22.5092 39.084 22.6592 39.1966L25.0217 41.5591C25.1716 41.7091 25.3591 41.7091 25.5092 41.5966L27.4968 40.0216C28.2467 40.4716 29.0719 40.809 29.9343 41.034L30.2344 43.584C30.2719 43.7715 30.4219 43.9214 30.6094 43.9214H33.3093C33.5343 43.9214 33.6843 43.734 33.6843 43.5465V41.634H37.0967L38.5217 42.909C38.5967 42.984 38.6716 43.0214 38.7842 43.0214H41.7467C41.8967 43.5465 42.4217 43.959 42.9842 43.959C43.6967 43.959 44.2967 43.359 44.2967 42.6465C44.2967 41.9339 43.6967 41.3339 42.9842 41.3339C42.3842 41.3339 41.8967 41.7464 41.7467 42.2715H38.9342L37.5092 40.9965C37.4342 40.9215 37.3593 40.8841 37.2467 40.8841H33.6843V39.2342H37.2467C37.3591 39.2342 37.4717 39.1966 37.5468 39.1218L38.9717 37.5093H40.6216C40.7716 38.0344 41.2966 38.4469 41.8591 38.4469C42.5716 38.4469 43.1716 37.8469 43.1716 37.1344C43.1716 36.4219 42.5716 35.8219 41.8591 35.8219C41.2591 35.8219 40.7716 36.2344 40.6216 36.7595H38.7842C38.6718 36.7595 38.5592 36.797 38.4841 36.8719L37.0592 38.4843H33.6467V37.6218C33.6467 37.3968 33.4967 37.2468 33.2717 37.2468C30.4217 37.2468 28.1344 35.0343 27.909 32.2593H31.959C32.1089 32.7844 32.634 33.1969 33.1965 33.1969C33.909 33.1969 34.509 32.5969 34.509 31.8844C34.509 31.1719 33.909 30.5719 33.1965 30.5719C32.5965 30.5719 32.1089 30.9844 31.959 31.5095L27.9465 31.5091C28.134 28.7341 30.459 26.5216 33.3093 26.5216C33.5343 26.5216 33.6842 26.3717 33.6842 26.1467V25.3592H37.0967L38.5216 26.9716C38.5967 27.0467 38.7091 27.084 38.8217 27.084H40.6592C40.8091 27.6091 41.3342 28.0216 41.8966 28.0216C42.6092 28.0216 43.2091 27.4216 43.2091 26.7091C43.2091 25.9966 42.6092 25.3966 41.8966 25.3966C41.2966 25.3966 40.8091 25.8091 40.6592 26.3342H39.0092L37.5468 24.7968C37.4717 24.7217 37.3593 24.6844 37.2467 24.6844H33.6843L33.6843 23.034Z" fill="#5072EB"/>
<path d="M42.9844 20.709C43.2843 20.709 43.5469 20.9716 43.5469 21.2715C43.5469 21.6091 43.2843 21.8341 42.9844 21.8341M42.9844 42.0838C43.2845 42.0838 43.5469 42.3464 43.5469 42.6463C43.5469 42.9464 43.2843 43.2088 42.9844 43.2088M41.8594 36.6091C42.1594 36.6091 42.4218 36.8717 42.4218 37.1716C42.4218 37.4716 42.1593 37.734 41.8594 37.734M41.8594 26.2216C42.1594 26.2216 42.4218 26.4841 42.4218 26.784C42.4218 27.0841 42.1593 27.3465 41.8594 27.3465M33.2718 31.3967C32.9344 31.3967 32.7094 31.6217 32.7094 31.9591C32.7094 32.259 32.9718 32.5216 33.2718 32.5216M23.4094 24.8713L24.947 26.8213C25.0596 26.9712 25.0596 27.1214 24.9845 27.2713C24.4594 28.0963 24.0845 28.9963 23.8595 29.9712C23.8221 30.1214 23.672 30.2338 23.522 30.2713L21.0471 30.5714V33.2713L23.4469 33.5714C23.6344 33.6089 23.7468 33.7215 23.7844 33.8714C24.0094 34.8464 24.3843 35.7464 24.9094 36.5714C24.9843 36.7213 24.9843 36.909 24.8719 37.0214L23.3343 38.9714L25.2468 40.8839L27.1968 39.3464C27.3468 39.2338 27.4969 39.2338 27.6469 39.3088C28.4718 39.8339 29.3719 40.2089 30.3468 40.4339C30.4969 40.4712 30.6093 40.6213 30.6469 40.7713L30.9469 43.2462H32.9345V40.1712C28.5845 39.9836 25.0969 36.3836 25.0969 31.9962C25.0969 30.7587 25.3593 29.5588 25.8843 28.4713C25.9594 28.2838 26.1844 28.2088 26.3719 28.2838C26.5594 28.3589 26.6344 28.5839 26.5594 28.7714C26.0718 29.7463 25.8468 30.8338 25.8468 31.9588C25.8468 35.9338 28.997 39.1964 32.9344 39.3839V38.0714C29.7469 37.8842 27.197 35.2216 27.197 31.9591C27.197 28.6966 29.7473 26.0338 32.9349 25.8839V24.5338C30.7222 24.6464 28.6973 25.7338 27.3473 27.5338C27.2347 27.684 26.9721 27.7213 26.8222 27.6089C26.6721 27.4963 26.6347 27.2338 26.7471 27.0838C28.2093 25.0589 30.4595 23.8963 32.9345 23.7839V20.7089H30.947L30.7219 23.0714C30.6844 23.2589 30.5718 23.3713 30.4219 23.4088C29.447 23.6338 28.5469 24.0088 27.7219 24.5339C27.572 24.6087 27.3843 24.6087 27.2719 24.4963M33.6843 23.034H37.2467C37.3217 23.034 37.4342 22.9965 37.5092 22.9216L38.9342 21.6466H41.7467C41.8968 22.2091 42.3844 22.584 42.9844 22.584C43.6968 22.584 44.2969 22.0216 44.2969 21.2715C44.2969 20.5591 43.6967 19.959 42.9844 19.959C42.3844 19.959 41.8968 20.3715 41.7469 20.8966H38.7844C38.7093 20.8966 38.5969 20.9341 38.5219 21.009L37.0969 22.284H33.6844L33.6843 20.3341C33.6843 20.1091 33.5343 19.9592 33.3093 19.9592H30.6094C30.4219 19.9592 30.2719 20.1091 30.2344 20.2966L29.9343 22.8466C29.0719 23.0716 28.2468 23.4091 27.4968 23.859L25.5092 22.284C25.3593 22.1715 25.1343 22.1715 25.0217 22.3215L22.6592 24.684C22.5092 24.834 22.5092 25.0214 22.6217 25.1716L24.1967 27.1591C23.7467 27.909 23.4093 28.7342 23.1843 29.5967L20.6343 29.8967C20.447 29.9341 20.2969 30.084 20.2969 30.2715V33.6089C20.2969 33.7964 20.4468 33.9464 20.6343 33.9839L23.1843 34.284C23.4093 35.1464 23.7467 35.9715 24.1967 36.7215L22.6217 38.7091C22.5092 38.859 22.5092 39.084 22.6592 39.1966L25.0217 41.5591C25.1716 41.7091 25.3591 41.7091 25.5092 41.5966L27.4968 40.0216C28.2467 40.4716 29.0719 40.809 29.9343 41.034L30.2344 43.584C30.2719 43.7715 30.4219 43.9214 30.6094 43.9214H33.3093C33.5343 43.9214 33.6843 43.734 33.6843 43.5465V41.634H37.0967L38.5217 42.909C38.5967 42.984 38.6716 43.0214 38.7842 43.0214H41.7467C41.8967 43.5465 42.4217 43.959 42.9842 43.959C43.6967 43.959 44.2967 43.359 44.2967 42.6465C44.2967 41.9339 43.6967 41.3339 42.9842 41.3339C42.3842 41.3339 41.8967 41.7464 41.7467 42.2715H38.9342L37.5092 40.9965C37.4342 40.9215 37.3593 40.8841 37.2467 40.8841H33.6843V39.2342H37.2467C37.3591 39.2342 37.4717 39.1966 37.5468 39.1218L38.9717 37.5093H40.6216C40.7716 38.0344 41.2966 38.4469 41.8591 38.4469C42.5716 38.4469 43.1716 37.8469 43.1716 37.1344C43.1716 36.4219 42.5716 35.8219 41.8591 35.8219C41.2591 35.8219 40.7716 36.2344 40.6216 36.7595H38.7842C38.6718 36.7595 38.5592 36.797 38.4841 36.8719L37.0592 38.4843H33.6467V37.6218C33.6467 37.3968 33.4967 37.2468 33.2717 37.2468C30.4217 37.2468 28.1344 35.0343 27.909 32.2593H31.959C32.1089 32.7844 32.634 33.1969 33.1965 33.1969C33.909 33.1969 34.509 32.5969 34.509 31.8844C34.509 31.1719 33.909 30.5719 33.1965 30.5719C32.5965 30.5719 32.1089 30.9844 31.959 31.5095L27.9465 31.5091C28.134 28.7341 30.459 26.5216 33.3093 26.5216C33.5343 26.5216 33.6842 26.3717 33.6842 26.1467V25.3592H37.0967L38.5216 26.9716C38.5967 27.0467 38.7091 27.084 38.8217 27.084H40.6592C40.8091 27.6091 41.3342 28.0216 41.8966 28.0216C42.6092 28.0216 43.2091 27.4216 43.2091 26.7091C43.2091 25.9966 42.6092 25.3966 41.8966 25.3966C41.2966 25.3966 40.8091 25.8091 40.6592 26.3342H39.0092L37.5468 24.7968C37.4717 24.7217 37.3593 24.6844 37.2467 24.6844H33.6843L33.6843 23.034Z" stroke="#5072EB" stroke-width="0.5"/>
<path d="M40.3218 30.0838C39.4218 30.0838 38.6719 30.7213 38.4844 31.5838H35.6718C35.4468 31.5838 35.2969 31.7338 35.2969 31.9588C35.2969 32.1838 35.4468 32.3337 35.6718 32.3337H38.4844C38.6719 33.1962 39.422 33.8337 40.3218 33.8337C41.3718 33.8337 42.1968 33.0087 42.1968 31.9587C42.1968 30.9087 41.3343 30.0838 40.3218 30.0838Z" fill="#5072EB"/>
<path d="M40.3218 33.0838C40.9218 33.0838 41.4469 32.5588 41.4469 31.9588C41.4469 31.3213 40.9218 30.8337 40.3218 30.8337M40.3218 30.0838C39.4218 30.0838 38.6719 30.7213 38.4844 31.5838H35.6718C35.4468 31.5838 35.2969 31.7338 35.2969 31.9588C35.2969 32.1838 35.4468 32.3337 35.6718 32.3337H38.4844C38.6719 33.1962 39.422 33.8337 40.3218 33.8337C41.3718 33.8337 42.1968 33.0087 42.1968 31.9587C42.1968 30.9087 41.3343 30.0838 40.3218 30.0838Z" stroke="#5072EB" stroke-width="0.5"/>
<rect x="0.5" y="0.5" width="63" height="63" stroke="#D7DCE5"/>
</svg>
