<svg width="64" height="64" viewBox="0 0 64 64" fill="none" xmlns="http://www.w3.org/2000/svg">
<path d="M41.2429 35.4734L41.2231 28.5738C41.9348 28.3563 42.4291 27.6842 42.4291 26.9132C42.4291 25.9445 41.6383 25.1735 40.6894 25.1735C40.2347 25.1735 39.8393 25.3514 39.523 25.6282L33.4734 22.1686C33.4931 22.0499 33.5129 21.9511 33.5129 21.8325C33.5129 21.358 33.335 20.9231 32.9989 20.6068C32.6628 20.2707 32.2279 20.0928 31.7732 20.0928C30.8045 20.0928 30.0335 20.8835 30.0335 21.8325C30.0335 21.9511 30.0533 22.0697 30.0731 22.1686L24.004 25.7072C23.6877 25.4107 23.2528 25.2328 22.8178 25.2328C21.8491 25.2328 21.0781 26.0235 21.0781 26.9725C21.0781 27.4469 21.256 27.8819 21.5921 28.1982C21.8096 28.4156 22.0666 28.554 22.3631 28.6331L22.3829 35.5128C21.6514 35.7105 21.1176 36.4025 21.1176 37.1932C21.1176 38.162 21.9084 38.9329 22.8573 38.9329C23.312 38.9329 23.7074 38.755 24.0237 38.4783L30.1325 41.9775C30.1128 42.0961 30.093 42.2147 30.093 42.3531C30.093 42.8275 30.2709 43.2625 30.607 43.5788C30.9431 43.9148 31.378 44.0928 31.8327 44.0928C32.8014 44.0928 33.5724 43.302 33.5724 42.3531C33.5724 42.2345 33.5526 42.1158 33.5329 41.9775L39.5825 38.4585C39.8988 38.7353 40.2942 38.8934 40.7291 38.8934C41.6978 38.8934 42.4688 38.1027 42.4688 37.1537C42.4688 36.6793 42.2909 36.2444 41.9548 35.928C41.7571 35.7106 41.5199 35.5722 41.2431 35.4734L41.2429 35.4734ZM30.5083 23.0384L30.528 23.0582L28.5511 26.498H24.5577L30.5083 23.0384ZM27.2068 34.9199L27.9383 36.0862H25.1113L27.2068 34.9199ZM24.5577 35.2955L25.9416 32.8836L26.6928 34.0896L24.5577 35.2955ZM27.5429 33.6349L26.4951 31.9545L27.5626 30.0961L30.7653 31.8358L27.5429 33.6349ZM27.2068 28.7913L24.7356 27.447H27.9778L27.2068 28.7913ZM26.7323 29.6216L25.9218 31.0054L24.2216 28.2575L26.7323 29.6216ZM23.332 35.4932L23.3122 28.6528H23.332L25.3682 31.974L23.332 35.4932ZM30.5872 41.147L24.5376 37.6874C24.5771 37.5292 24.5969 37.3711 24.5969 37.2129V37.0548H28.531L30.9033 40.9098C30.7847 40.9691 30.6858 41.0481 30.587 41.147H30.5872ZM31.2989 39.7038L29.6383 37.035H31.2791V39.7038H31.2989ZM31.2989 36.086H29.065L28.0568 34.4452L31.2989 32.6462V36.086ZM31.2989 31.0251L28.0568 29.2459L29.1046 27.4469H31.2989V31.0251ZM31.2989 26.4978H29.6581L31.2989 23.651V26.4978ZM35.6482 30.2144L36.7751 32.2112L35.9447 33.5753L32.7619 31.8158L35.6482 30.2144ZM35.1935 27.4467H38.6334L36.0238 28.9097L35.1935 27.4467ZM36.3006 34.8601L38.5543 36.0858H35.5692L36.3006 34.8601ZM36.7948 34.0298L37.3089 33.16L38.238 34.8206L36.7948 34.0298ZM36.4983 29.7398L39.1474 28.2572L37.3484 31.2423L36.4983 29.7398ZM33.0387 23.0183L39.0088 26.4384C39.0088 26.4582 39.0088 26.4779 38.989 26.4977H34.6398L32.8012 23.216C32.9001 23.1567 32.9791 23.0974 33.0385 23.0183L33.0387 23.0183ZM32.2479 24.1649L33.5527 26.4977H32.2479V24.1649ZM32.2479 27.4466H34.1062L35.1935 29.3642L32.2677 31.0051V27.4466H32.2479ZM32.2479 32.6458L35.4703 34.4053L34.4621 36.0857H32.2479V32.6458ZM32.2479 37.0346H33.869L32.2479 39.743V37.0346ZM33.0782 41.1466C32.9596 41.028 32.841 40.9292 32.7026 40.8501L34.9959 37.0346H38.9893V37.1532C38.9893 37.3311 39.009 37.509 39.0683 37.6672L33.0782 41.1466ZM39.8197 35.651L37.8823 32.2111L40.0767 28.534C40.136 28.5538 40.1953 28.5736 40.2546 28.5933L40.2744 35.4532C40.1162 35.4927 39.9778 35.5718 39.8197 35.6509V35.651Z" fill="#5072EB"/>
<rect x="0.5" y="0.5" width="63" height="63" stroke="#D7DCE5"/>
</svg>
