<svg width="64" height="64" viewBox="0 0 64 64" fill="none" xmlns="http://www.w3.org/2000/svg">
<path d="M22.4589 29.5742V34.6338C22.6192 34.5673 22.7854 34.5068 22.9519 34.4553L23.2272 33.2334C23.2573 33.1035 23.3723 33.0096 23.5084 33.0096H24.3885H24.4096H24.5214H24.5425H25.4226C25.5557 33.0096 25.6736 33.1033 25.7038 33.2334L25.9791 34.4553C26.0245 34.4705 26.0698 34.4825 26.1152 34.4977V29.5742C26.1152 29.4138 26.2451 29.2869 26.4025 29.2869H27.9207L24.2856 24.7595L20.6504 29.2869H22.1686C22.329 29.2869 22.456 29.4168 22.456 29.5742L22.4589 29.5742Z" fill="#5072EB"/>
<path d="M29.7356 26.8341V32.402C29.9746 32.2902 30.2225 32.1963 30.4765 32.1208L30.779 30.7781C30.8091 30.6481 30.9241 30.5543 31.0602 30.5543H32.019H32.0432H32.9778C33.1109 30.5543 33.2288 30.6479 33.259 30.7781L33.5615 32.1208C33.8125 32.1934 34.0545 32.287 34.2933 32.3961L34.2931 26.8341C34.2931 26.6738 34.4231 26.5468 34.5804 26.5468H36.5493L32.0159 20.9033L27.4824 26.5468H29.4513C29.6116 26.5468 29.7386 26.6768 29.7386 26.8341L29.7356 26.8341Z" fill="#5072EB"/>
<path d="M37.6178 29.2836C37.7782 29.2836 37.9052 29.4136 37.9052 29.571V34.4945C37.9505 34.4793 37.9959 34.4643 38.0412 34.4521L38.3165 33.2302C38.3467 33.1003 38.4617 33.0064 38.5977 33.0064H39.4778H39.4989H39.6107H39.6318H40.512C40.6451 33.0064 40.763 33.1001 40.7932 33.2302L41.0685 34.4521C41.2347 34.5036 41.4011 34.5609 41.5615 34.6305V29.5709C41.5615 29.4106 41.6914 29.2836 41.8488 29.2836H43.367L39.7319 24.7563L36.0967 29.2836L37.6178 29.2836Z" fill="#5072EB"/>
<path d="M35.2878 41.8316C35.2878 41.8316 35.306 41.8436 35.315 41.8497L35.8775 42.2067L36.3916 41.6926C36.3916 41.6926 36.4036 41.6805 36.4097 41.6774L36.9086 41.1785L36.204 40.0625C36.1466 39.9718 36.1435 39.8568 36.1979 39.7632C36.4217 39.3822 36.5911 38.9708 36.7029 38.5413C36.7301 38.4386 36.8118 38.3569 36.9177 38.3327L38.203 38.0424V37.3135V37.2893V36.5847L36.9177 36.2944C36.8118 36.2701 36.7301 36.1917 36.7029 36.0858C36.597 35.6776 36.4367 35.2873 36.2281 34.9183C36.1373 34.8215 36.1222 34.6734 36.1979 34.5584C36.2099 34.5433 36.2221 34.5283 36.2342 34.5131L36.9057 33.4516L36.3916 32.9375C36.3916 32.9375 36.3795 32.9254 36.3764 32.9193L35.8775 32.4204L34.7615 33.125C34.6708 33.1824 34.5558 33.1856 34.4622 33.1311C34.0812 32.9073 33.6698 32.7379 33.2435 32.6261C33.1408 32.5989 33.0591 32.5172 33.0349 32.4113L32.7446 31.126H32.0157H31.9915H31.2869L30.9966 32.4113C30.9723 32.5172 30.8939 32.5989 30.788 32.6261C30.3616 32.7379 29.9502 32.9073 29.5693 33.1311C29.4756 33.1856 29.3606 33.1826 29.2699 33.125L28.154 32.4204L27.6399 32.9345C27.6399 32.9345 27.6279 32.9465 27.6217 32.9497L27.1228 33.4486L27.8274 34.5646C27.8274 34.5646 27.8335 34.5736 27.8365 34.5798C27.8365 34.5798 27.8426 34.5979 27.8456 34.604V34.6131C27.8456 34.6131 27.8546 34.6251 27.8546 34.6312V34.6374C27.8546 34.6374 27.8608 34.6525 27.8637 34.6584V34.6675C27.8637 34.6675 27.8667 34.6795 27.8667 34.6827V34.6918V34.716V34.7222V34.7403V34.7464C27.8667 34.7616 27.8605 34.7797 27.8576 34.7947V34.8008C27.8576 34.8008 27.8515 34.8129 27.8485 34.819V34.8251C27.8485 34.8251 27.8394 34.8403 27.8365 34.8462V34.8523L27.8274 34.8614C27.6036 35.2424 27.4342 35.6537 27.3224 36.0801C27.2952 36.1828 27.2135 36.2644 27.1076 36.2887L25.8223 36.579V37.3078V37.3321V38.0367L27.1076 38.327C27.2135 38.3512 27.2952 38.4297 27.3224 38.5356C27.4342 38.9619 27.6036 39.3733 27.8274 39.7575C27.8818 39.8511 27.8789 39.9661 27.8213 40.0568L27.1167 41.1698L27.6308 41.6839C27.6308 41.6839 27.6428 41.6959 27.646 41.702L28.1449 42.2009L28.6771 41.8653C28.6771 41.8653 28.7073 41.8381 28.7255 41.8261C28.7436 41.8141 28.7647 41.805 28.7828 41.7989L29.2577 41.4995C29.3484 41.4421 29.4634 41.439 29.5571 41.4934C29.938 41.7172 30.3494 41.8896 30.7789 41.9984C30.8816 42.0256 30.9633 42.1073 30.9875 42.2132L31.2778 43.4986H32.0067H32.0309H32.7355L33.0258 42.2132C33.0501 42.1073 33.1285 42.0256 33.2344 41.9984C33.6608 41.8866 34.0722 41.7172 34.4563 41.4934C34.55 41.439 34.6649 41.4419 34.7557 41.4995L35.2487 41.8111C35.2487 41.8111 35.2698 41.8202 35.2788 41.8263L35.2878 41.8316ZM32.0186 40.5371C30.2435 40.5371 28.7977 39.0914 28.7977 37.3162C28.7977 35.541 30.2435 34.0953 32.0186 34.0953C33.7938 34.0953 35.2396 35.541 35.2396 37.3162C35.2396 39.0914 33.7938 40.5371 32.0186 40.5371Z" fill="#5072EB"/>
<path d="M45.2995 39.2453V38.5952L44.1382 38.3321C44.0323 38.3078 43.9507 38.2294 43.9235 38.1235C43.8207 37.7334 43.6663 37.3583 43.4608 37.0075C43.4064 36.9138 43.4094 36.7989 43.4669 36.7082L44.1051 35.6981L43.6606 35.2536C43.6606 35.2536 43.6486 35.2445 43.6454 35.2384L43.1857 34.7788L42.1786 35.4169C42.0879 35.4743 41.973 35.4774 41.8793 35.423C41.5314 35.2173 41.1565 35.0631 40.7663 34.9604C40.6636 34.9332 40.5819 34.8515 40.5577 34.7456L40.2946 33.5843H38.8369L38.5738 34.7456C38.5496 34.8515 38.4711 34.9332 38.3652 34.9604C38.1686 35.0118 37.9751 35.0783 37.7876 35.154C37.7575 35.1751 37.7241 35.1903 37.6849 35.1994C37.5368 35.2658 37.3914 35.3416 37.2495 35.4232C37.2071 35.4475 37.1617 35.4595 37.1134 35.4624C37.1497 35.5652 37.186 35.6681 37.2161 35.774L38.5589 36.0765C38.6888 36.1067 38.7827 36.2217 38.7827 36.3577V36.3879C39.058 36.3063 39.3451 36.2639 39.6386 36.2639C41.2838 36.2639 42.6204 37.6007 42.6204 39.2457C42.6204 40.891 41.2836 42.2276 39.6386 42.2276C38.8161 42.2276 38.0691 41.892 37.5307 41.3536C37.5187 41.3779 37.5005 41.4019 37.4792 41.4232L36.8018 42.1006C36.8018 42.1006 36.7898 42.1126 36.7837 42.1158L36.1213 42.7782C36.0276 42.8719 35.8763 42.89 35.7643 42.8174L35.2201 42.4727L35.0205 42.7873L35.4802 43.247C35.4802 43.247 35.4893 43.259 35.4954 43.2621L35.9399 43.7066L36.9469 43.0685C37.0377 43.0111 37.1526 43.008 37.2463 43.0624C37.5971 43.2681 37.9722 43.4223 38.3622 43.525C38.465 43.5522 38.5466 43.6339 38.5709 43.7398L38.8339 44.9011H39.4841H39.5052H39.617H39.6381H40.2883L40.5513 43.7398C40.5756 43.6339 40.6541 43.5522 40.76 43.525C41.15 43.4223 41.5251 43.2679 41.8759 43.0624C41.9696 43.008 42.0846 43.0109 42.1753 43.0685L43.1824 43.7066L43.6268 43.2621C43.6268 43.2621 43.6359 43.2501 43.642 43.247L44.1017 42.7873L43.4636 41.7802C43.4062 41.6895 43.403 41.5745 43.4575 41.4808C43.6632 41.13 43.8174 40.755 43.9201 40.3649C43.9473 40.2622 44.0289 40.1805 44.1348 40.1563L45.2991 39.8932V39.2641V39.2431L45.2995 39.2453Z" fill="#5072EB"/>
<path d="M28.2689 42.8174C28.1539 42.89 28.0058 42.8719 27.912 42.7782L27.2346 42.1008C27.2346 42.1008 27.2226 42.0888 27.2194 42.0827L26.557 41.4203C26.5327 41.396 26.5146 41.3719 26.5025 41.3447C25.9613 41.889 25.2143 42.2278 24.3885 42.2278C22.7433 42.2278 21.4067 40.891 21.4067 39.2459C21.4067 37.6007 22.7435 36.2641 24.3885 36.2641C24.6849 36.2641 24.9752 36.3065 25.2564 36.3911V36.3577C25.2564 36.2246 25.3501 36.1067 25.4802 36.0765L26.8229 35.774C26.8531 35.6681 26.8894 35.5654 26.9257 35.4624C26.8774 35.4624 26.8259 35.4504 26.7805 35.4232C26.6383 35.3416 26.4932 35.266 26.3451 35.1994C26.3088 35.1903 26.2725 35.1751 26.2424 35.154C26.0548 35.0753 25.8614 35.0118 25.6648 34.9604C25.5621 34.9332 25.4804 34.8515 25.4562 34.7456L25.1931 33.5843H23.7354L23.4723 34.7456C23.4481 34.8515 23.3696 34.9332 23.2637 34.9604C22.8736 35.0631 22.4986 35.2175 22.1507 35.423C22.057 35.4774 21.9421 35.4745 21.8514 35.4169L20.8443 34.7788L20.3846 35.2384C20.3846 35.2384 20.3726 35.2475 20.3694 35.2536L19.9249 35.6981L20.5631 36.7082C20.6204 36.7989 20.6236 36.9138 20.5692 37.0075C20.3635 37.3583 20.2093 37.7334 20.1065 38.1235C20.0793 38.2262 19.9977 38.3078 19.8918 38.3321L18.7305 38.5952V39.2453V39.2664V39.8955L19.8948 40.1585C20.0007 40.1828 20.0823 40.2613 20.1095 40.3672C20.2122 40.7572 20.3667 41.1323 20.5721 41.4831C20.6266 41.5768 20.6236 41.6918 20.566 41.7825L19.9279 42.7896L20.3876 43.2492C20.3876 43.2492 20.3966 43.2613 20.4028 43.2644L20.8473 43.7089L21.8543 43.0708C21.945 43.0134 22.06 43.0102 22.1537 43.0647C22.5045 43.2703 22.8796 43.4246 23.2696 43.5273C23.3724 43.5545 23.454 43.6361 23.4783 43.742L23.7413 44.9034H24.3915H24.4126H24.5244H24.5455H25.1957L25.4587 43.742C25.483 43.6362 25.5615 43.5545 25.6674 43.5273C26.0574 43.4246 26.4325 43.2701 26.7833 43.0647C26.877 43.0102 26.992 43.0132 27.0827 43.0708L28.0898 43.7089L28.5342 43.2644C28.5342 43.2644 28.5433 43.2524 28.5494 43.2492L29.0091 42.7896L28.8095 42.478L28.2712 42.8168L28.2689 42.8174Z" fill="#5072EB"/>
<rect x="0.5" y="0.5" width="63" height="63" stroke="#D7DCE5"/>
</svg>
