<svg width="64" height="64" viewBox="0 0 64 64" fill="none" xmlns="http://www.w3.org/2000/svg">
<g clip-path="url(#clip0_118_657)">
<path d="M26.1036 39.0111C25.0753 39.011 24.0715 39.3246 23.2263 39.9101C22.381 40.4956 21.7345 41.325 21.373 42.2877L22.5562 42.7315C22.8687 41.9015 23.4624 41.2075 24.2339 40.7702C25.0054 40.333 25.9058 40.1801 26.7784 40.3383C27.651 40.4966 28.4405 40.9558 29.0093 41.6362C29.5782 42.3166 29.8903 43.1749 29.8915 44.0617C29.8915 45.0663 29.4924 46.0298 28.7821 46.7402C28.0717 47.4505 27.1082 47.8496 26.1036 47.8496H19.7903C18.8959 47.8502 18.0301 47.5342 17.3463 46.9577C16.6625 46.3811 16.2047 45.5812 16.0541 44.6995C15.9035 43.8179 16.0697 42.9113 16.5234 42.1405C16.977 41.3696 17.6888 40.7841 18.5327 40.4877C18.4787 39.3972 18.8302 38.3253 19.5196 37.4786C20.2091 36.6319 21.1875 36.0703 22.2664 35.9023C23.3452 35.7342 24.4481 35.9715 25.3624 36.5684C26.2767 37.1653 26.9377 38.0795 27.2178 39.1348C26.8522 39.0525 26.4784 39.011 26.1036 39.0111Z" fill="#5072EB"/>
<path d="M44.1036 19.0111C43.0753 19.011 42.0715 19.3246 41.2263 19.9101C40.381 20.4956 39.7345 21.325 39.373 22.2877L40.5562 22.7315C40.8687 21.9015 41.4624 21.2075 42.2339 20.7702C43.0054 20.333 43.9058 20.1801 44.7784 20.3383C45.651 20.4966 46.4405 20.9558 47.0093 21.6362C47.5782 22.3166 47.8903 23.1749 47.8915 24.0617C47.8915 25.0663 47.4924 26.0298 46.7821 26.7402C46.0717 27.4505 45.1082 27.8496 44.1036 27.8496H37.7903C36.8959 27.8502 36.0301 27.5342 35.3463 26.9577C34.6625 26.3811 34.2047 25.5812 34.0541 24.6995C33.9035 23.8179 34.0697 22.9113 34.5234 22.1405C34.977 21.3696 35.6888 20.7841 36.5327 20.4877C36.4787 19.3972 36.8302 18.3253 37.5196 17.4786C38.2091 16.6319 39.1875 16.0703 40.2664 15.9023C41.3452 15.7342 42.4481 15.9715 43.3624 16.5684C44.2767 17.1653 44.9377 18.0795 45.2178 19.1348C44.8522 19.0525 44.4784 19.011 44.1036 19.0111Z" fill="#5072EB"/>
<path d="M24.3041 19.898H20.4001C19.233 19.898 18.1139 20.3617 17.2888 21.1867C16.4634 22.0121 16 23.1312 16 24.2981V28.6982H18.4001V24.2981C18.4001 23.7677 18.6108 23.259 18.9858 22.8837C19.3608 22.5087 19.8697 22.2981 20.4002 22.2981H24.3042L21.952 24.6502L23.6479 26.3461L28.048 21.9459C28.2726 21.7211 28.399 21.4161 28.399 21.098C28.399 20.7799 28.2726 20.475 28.048 20.2501L23.6479 15.8499L21.952 17.5458L24.3041 19.898Z" fill="#5072EB"/>
<path d="M39.0943 43.6499H42.9983C44.1654 43.6499 45.2846 43.1862 46.1097 42.3611C46.935 41.5358 47.3984 40.4166 47.3984 39.2498V34.8496H44.9983V39.2498C44.9983 39.7802 44.7876 40.2888 44.4126 40.6641C44.0376 41.0391 43.5287 41.2498 42.9983 41.2498H39.0943L41.4464 38.8976L39.7506 37.2018L35.3504 41.6019C35.1258 41.8268 34.9994 42.1318 34.9994 42.4498C34.9994 42.7679 35.1258 43.0729 35.3504 43.2978L39.7506 47.6979L41.4464 46.0021L39.0943 43.6499Z" fill="#5072EB"/>
</g>
<rect x="0.5" y="0.5" width="63" height="63" stroke="#D7DCE5"/>
<defs>
<clipPath id="clip0_118_657">
<rect width="32" height="32" fill="white" transform="translate(16 16)"/>
</clipPath>
</defs>
</svg>
