<svg width="90" height="24" viewBox="0 0 90 24" fill="none" xmlns="http://www.w3.org/2000/svg">
<rect width="90" height="24" rx="2" fill="#5072EB" fill-opacity="0.1"/>
<path d="M14.8395 11.0923H13.7315C13.6889 10.8556 13.6096 10.6473 13.4936 10.4673C13.3776 10.2874 13.2356 10.1347 13.0675 10.0092C12.8994 9.88376 12.7112 9.78906 12.5028 9.72514C12.2969 9.66122 12.0779 9.62926 11.8459 9.62926C11.4268 9.62926 11.0516 9.73461 10.7202 9.94531C10.3911 10.156 10.1307 10.465 9.93892 10.8722C9.74953 11.2794 9.65483 11.7765 9.65483 12.3636C9.65483 12.9555 9.74953 13.455 9.93892 13.8622C10.1307 14.2694 10.3923 14.5772 10.7237 14.7855C11.0552 14.9938 11.428 15.098 11.8423 15.098C12.072 15.098 12.2898 15.0672 12.4957 15.0057C12.7041 14.9418 12.8923 14.8482 13.0604 14.7251C13.2285 14.602 13.3705 14.4517 13.4865 14.2741C13.6049 14.0942 13.6866 13.8883 13.7315 13.6562L14.8395 13.6598C14.7803 14.0173 14.6655 14.3464 14.495 14.647C14.3269 14.9453 14.1103 15.2034 13.8452 15.4212C13.5824 15.6366 13.2817 15.8035 12.9432 15.9219C12.6046 16.0402 12.2353 16.0994 11.8352 16.0994C11.2055 16.0994 10.6444 15.9503 10.152 15.652C9.65956 15.3513 9.27131 14.9216 8.98722 14.3629C8.70549 13.8042 8.56463 13.1378 8.56463 12.3636C8.56463 11.5871 8.70668 10.9207 8.99077 10.3643C9.27486 9.80563 9.66312 9.37713 10.1555 9.07884C10.648 8.77817 11.2079 8.62784 11.8352 8.62784C12.2211 8.62784 12.581 8.68348 12.9148 8.79474C13.2509 8.90365 13.5528 9.06463 13.8203 9.2777C14.0878 9.4884 14.3092 9.74645 14.4844 10.0518C14.6596 10.3549 14.7779 10.7017 14.8395 11.0923ZM22.47 12.3636C22.47 13.1402 22.3279 13.8078 22.0439 14.3665C21.7598 14.9228 21.3703 15.3513 20.8755 15.652C20.3831 15.9503 19.8232 16.0994 19.1958 16.0994C18.5661 16.0994 18.0038 15.9503 17.5091 15.652C17.0166 15.3513 16.6284 14.9216 16.3443 14.3629C16.0602 13.8042 15.9181 13.1378 15.9181 12.3636C15.9181 11.5871 16.0602 10.9207 16.3443 10.3643C16.6284 9.80563 17.0166 9.37713 17.5091 9.07884C18.0038 8.77817 18.5661 8.62784 19.1958 8.62784C19.8232 8.62784 20.3831 8.77817 20.8755 9.07884C21.3703 9.37713 21.7598 9.80563 22.0439 10.3643C22.3279 10.9207 22.47 11.5871 22.47 12.3636ZM21.3833 12.3636C21.3833 11.7718 21.2875 11.2734 21.0957 10.8686C20.9063 10.4614 20.6459 10.1536 20.3145 9.94531C19.9854 9.73461 19.6125 9.62926 19.1958 9.62926C18.7768 9.62926 18.4028 9.73461 18.0737 9.94531C17.7446 10.1536 17.4842 10.4614 17.2924 10.8686C17.103 11.2734 17.0083 11.7718 17.0083 12.3636C17.0083 12.9555 17.103 13.455 17.2924 13.8622C17.4842 14.267 17.7446 14.5748 18.0737 14.7855C18.4028 14.9938 18.7768 15.098 19.1958 15.098C19.6125 15.098 19.9854 14.9938 20.3145 14.7855C20.6459 14.5748 20.9063 14.267 21.0957 13.8622C21.2875 13.455 21.3833 12.9555 21.3833 12.3636ZM23.8381 8.72727H25.1697L27.4851 14.3807H27.5703L29.8857 8.72727H31.2173V16H30.1733V10.7372H30.1058L27.9609 15.9893H27.0945L24.9496 10.7337H24.8821V16H23.8381V8.72727ZM33.91 8.72727V16H32.8127V8.72727H33.91ZM41.378 8.72727V16H40.3695L36.6728 10.6662H36.6053V16H35.508V8.72727H36.5236L40.2239 14.0682H40.2914V8.72727H41.378ZM47.9006 11.0249C47.8319 10.8094 47.7396 10.6165 47.6236 10.446C47.5099 10.2732 47.3738 10.1264 47.2152 10.0057C47.0566 9.88258 46.8755 9.78906 46.6719 9.72514C46.4706 9.66122 46.2493 9.62926 46.0078 9.62926C45.5982 9.62926 45.2289 9.73461 44.8999 9.94531C44.5708 10.156 44.3104 10.465 44.1186 10.8722C43.9292 11.277 43.8345 11.773 43.8345 12.3601C43.8345 12.9496 43.9304 13.4479 44.1222 13.8551C44.3139 14.2623 44.5767 14.5713 44.9105 14.782C45.2443 14.9927 45.6243 15.098 46.0504 15.098C46.4458 15.098 46.7902 15.0175 47.0838 14.8565C47.3797 14.6955 47.6082 14.4683 47.7692 14.1747C47.9325 13.8788 48.0142 13.5308 48.0142 13.1307L48.2983 13.1839H46.2173V12.2784H49.076V13.1058C49.076 13.7166 48.9458 14.2469 48.6854 14.6967C48.4273 15.1442 48.0698 15.4898 47.6129 15.7337C47.1584 15.9775 46.6375 16.0994 46.0504 16.0994C45.3923 16.0994 44.8146 15.9479 44.3175 15.6449C43.8227 15.3419 43.4368 14.9122 43.1598 14.3558C42.8828 13.7971 42.7443 13.1342 42.7443 12.3672C42.7443 11.7872 42.8248 11.2663 42.9858 10.8047C43.1468 10.343 43.3729 9.95123 43.6641 9.62926C43.9576 9.30492 44.3021 9.05753 44.6974 8.88707C45.0952 8.71425 45.5296 8.62784 46.0007 8.62784C46.3937 8.62784 46.7595 8.68584 47.098 8.80185C47.4389 8.91785 47.742 9.08239 48.0071 9.29545C48.2746 9.50852 48.496 9.76184 48.6712 10.0554C48.8464 10.3466 48.9647 10.6697 49.0263 11.0249H47.9006ZM57.082 10.6378C57.0442 10.3016 56.8879 10.0412 56.6133 9.85653C56.3387 9.66951 55.993 9.57599 55.5763 9.57599C55.2781 9.57599 55.02 9.62334 54.8022 9.71804C54.5844 9.81037 54.4151 9.93821 54.2944 10.1016C54.176 10.2625 54.1168 10.446 54.1168 10.652C54.1168 10.8248 54.1571 10.974 54.2376 11.0994C54.3204 11.2249 54.4281 11.3303 54.5607 11.4155C54.6957 11.4983 54.8401 11.5682 54.994 11.625C55.1478 11.6795 55.2958 11.7244 55.4379 11.7599L56.1481 11.9446C56.3801 12.0014 56.618 12.0784 56.8619 12.1754C57.1057 12.2725 57.3318 12.4003 57.5401 12.5589C57.7485 12.7176 57.9165 12.9141 58.0444 13.1484C58.1746 13.3828 58.2397 13.6634 58.2397 13.9901C58.2397 14.402 58.1332 14.7678 57.9201 15.0874C57.7094 15.407 57.4028 15.6591 57.0004 15.8438C56.6003 16.0284 56.1161 16.1207 55.5479 16.1207C55.0034 16.1207 54.5323 16.0343 54.1346 15.8615C53.7369 15.6887 53.4255 15.4437 53.2006 15.1264C52.9757 14.8068 52.8514 14.428 52.8278 13.9901H53.9286C53.9499 14.2528 54.0352 14.4718 54.1843 14.647C54.3358 14.8198 54.5288 14.9489 54.7631 15.0341C54.9999 15.117 55.2591 15.1584 55.5408 15.1584C55.851 15.1584 56.1268 15.1098 56.3683 15.0128C56.6121 14.9134 56.8039 14.776 56.9435 14.6009C57.0832 14.4233 57.1531 14.2161 57.1531 13.9794C57.1531 13.764 57.0915 13.5876 56.9684 13.4503C56.8477 13.313 56.6831 13.1993 56.4748 13.1094C56.2688 13.0194 56.0356 12.9401 55.7752 12.8714L54.9158 12.6371C54.3335 12.4785 53.8718 12.2453 53.5309 11.9375C53.1924 11.6297 53.0231 11.2225 53.0231 10.7159C53.0231 10.2969 53.1367 9.93111 53.364 9.61861C53.5913 9.30611 53.899 9.06345 54.2873 8.89062C54.6755 8.71544 55.1135 8.62784 55.6012 8.62784C56.0936 8.62784 56.5281 8.71425 56.9045 8.88707C57.2833 9.0599 57.5816 9.29782 57.7994 9.60085C58.0172 9.90151 58.1308 10.2472 58.1403 10.6378H57.082ZM65.8684 12.3636C65.8684 13.1402 65.7264 13.8078 65.4423 14.3665C65.1582 14.9228 64.7688 15.3513 64.274 15.652C63.7815 15.9503 63.2217 16.0994 62.5943 16.0994C61.9645 16.0994 61.4023 15.9503 60.9075 15.652C60.4151 15.3513 60.0268 14.9216 59.7427 14.3629C59.4586 13.8042 59.3166 13.1378 59.3166 12.3636C59.3166 11.5871 59.4586 10.9207 59.7427 10.3643C60.0268 9.80563 60.4151 9.37713 60.9075 9.07884C61.4023 8.77817 61.9645 8.62784 62.5943 8.62784C63.2217 8.62784 63.7815 8.77817 64.274 9.07884C64.7688 9.37713 65.1582 9.80563 65.4423 10.3643C65.7264 10.9207 65.8684 11.5871 65.8684 12.3636ZM64.7818 12.3636C64.7818 11.7718 64.6859 11.2734 64.4941 10.8686C64.3047 10.4614 64.0443 10.1536 63.7129 9.94531C63.3838 9.73461 63.0109 9.62926 62.5943 9.62926C62.1752 9.62926 61.8012 9.73461 61.4721 9.94531C61.1431 10.1536 60.8826 10.4614 60.6909 10.8686C60.5015 11.2734 60.4068 11.7718 60.4068 12.3636C60.4068 12.9555 60.5015 13.455 60.6909 13.8622C60.8826 14.267 61.1431 14.5748 61.4721 14.7855C61.8012 14.9938 62.1752 15.098 62.5943 15.098C63.0109 15.098 63.3838 14.9938 63.7129 14.7855C64.0443 14.5748 64.3047 14.267 64.4941 13.8622C64.6859 13.455 64.7818 12.9555 64.7818 12.3636ZM73.554 12.3636C73.554 13.1402 73.4119 13.8078 73.1278 14.3665C72.8438 14.9228 72.4543 15.3513 71.9595 15.652C71.4671 15.9503 70.9072 16.0994 70.2798 16.0994C69.6501 16.0994 69.0878 15.9503 68.593 15.652C68.1006 15.3513 67.7124 14.9216 67.4283 14.3629C67.1442 13.8042 67.0021 13.1378 67.0021 12.3636C67.0021 11.5871 67.1442 10.9207 67.4283 10.3643C67.7124 9.80563 68.1006 9.37713 68.593 9.07884C69.0878 8.77817 69.6501 8.62784 70.2798 8.62784C70.9072 8.62784 71.4671 8.77817 71.9595 9.07884C72.4543 9.37713 72.8438 9.80563 73.1278 10.3643C73.4119 10.9207 73.554 11.5871 73.554 12.3636ZM72.4673 12.3636C72.4673 11.7718 72.3714 11.2734 72.1797 10.8686C71.9903 10.4614 71.7299 10.1536 71.3984 9.94531C71.0694 9.73461 70.6965 9.62926 70.2798 9.62926C69.8608 9.62926 69.4867 9.73461 69.1577 9.94531C68.8286 10.1536 68.5682 10.4614 68.3764 10.8686C68.187 11.2734 68.0923 11.7718 68.0923 12.3636C68.0923 12.9555 68.187 13.455 68.3764 13.8622C68.5682 14.267 68.8286 14.5748 69.1577 14.7855C69.4867 14.9938 69.8608 15.098 70.2798 15.098C70.6965 15.098 71.0694 14.9938 71.3984 14.7855C71.7299 14.5748 71.9903 14.267 72.1797 13.8622C72.3714 13.455 72.4673 12.9555 72.4673 12.3636ZM80.7921 8.72727V16H79.7836L76.0868 10.6662H76.0194V16H74.9221V8.72727H75.9377L79.638 14.0682H79.7054V8.72727H80.7921Z" fill="#47506D"/>
</svg>
