<svg width="100" height="69" viewBox="0 0 100 69" fill="none" xmlns="http://www.w3.org/2000/svg">
<path d="M1.81023 66.2449C2.73806 47.0793 6.85938 32.9195 15.4508 22.9521C24.3162 12.6669 38.0944 6.6711 58.5869 4.43015L58.5875 4.43008C67.2253 3.4801 75.8967 2.9119 85.2922 2.29625C89.4909 2.02113 93.8342 1.73653 98.3837 1.40415C98.7613 6.61765 99.0284 12.2404 98.998 17.2286C98.9653 22.5836 98.5879 27.0593 97.7122 29.5403C95.9753 34.4617 90.6447 38.7914 84.1999 40.4278L84.197 40.4285C78.9651 41.7735 72.2049 41.8773 64.9003 41.9894C63.4172 42.0121 61.9115 42.0352 60.3917 42.0691C51.4922 42.2677 42.1696 42.843 34.6162 46.1108C24.318 50.5661 18.3965 54.7312 11.0782 59.8789C8.29643 61.8356 5.31279 63.9343 1.81023 66.2449Z" stroke="#5072EB" stroke-width="2"/>
</svg>
