<svg width="100" height="69" viewBox="0 0 100 69" fill="none" xmlns="http://www.w3.org/2000/svg">
<path d="M1.08087 66.6059C1.99728 47.4444 6.11257 33.2873 14.6996 23.3214C23.5617 13.0363 37.3398 7.04049 57.8323 4.79953L57.8329 4.79947C66.4707 3.84948 75.1421 3.28128 84.5376 2.66564C88.7363 2.39052 93.0796 2.10592 97.6291 1.77354C98.0068 6.98704 98.2738 12.6098 98.2434 17.598C98.2107 22.953 97.8333 27.4287 96.9577 29.9097C95.2207 34.8311 89.8901 39.1608 83.4453 40.7972L83.4424 40.7979C78.2106 42.1429 71.4503 42.2467 64.1457 42.3587C62.6626 42.3815 61.157 42.4046 59.6371 42.4385C50.7376 42.6371 41.415 43.2124 33.8617 46.4802C23.573 50.9313 17.6777 55.0806 10.3842 60.214C7.59541 62.1768 4.60223 64.2835 1.08087 66.6059Z" stroke="#00A99D" stroke-width="2"/>
</svg>
