<svg xmlns="http://www.w3.org/2000/svg" viewBox="0 0 300 152.5">
  <defs>
    <style>
      .cls-1{fill:white}
    </style>
  </defs>
  <g id="Layer_2" data-name="Layer 2">
    <g id="Layer_1-2" data-name="Layer 1">
      <path class="cls-1" d="M0 1h40.3l-7 13.5H13.8v47.3H0zm17.1 30.4a7.7 7.7 0 117.7 7.7 7.7 7.7 0 01-7.7-7.7zM58 1h13.8v47.2h27L92 61.8H58.1zM130.3 51.6L125 61.8h-14.3L142.2 0l31.4 61.8h-14.3L154 51.6zm11.9-23.7l-6 11.9h11.9zM185 52l10.4-8.9A15.9 15.9 0 00208 50c4.5 0 7.3-2.1 7.3-5 0-3-2.3-5.2-8.4-7.3l-4.3-1.4c-9.8-3.4-15.3-9.3-15.3-17.6C187.3 7 196 0 208.3 0a25.3 25.3 0 0119.5 8.4l-8.9 9.4a13.5 13.5 0 00-10.5-5c-3.7 0-7.4 1.4-7.4 4.6s3 4.7 9.4 7l4.3 1.6c8.8 3.1 14.6 9 14.5 18-.1 11-9 18.8-21.8 18.8-9.5 0-17.8-4-22.4-10.9zM248.3 1H262v23.8h24.3V1H300v60.8h-13.7V38H262v23.8h-13.7zM29.4 91.1h20a20.6 20.6 0 110 41.3H43v19.5H29.4zm19.8 28.5a7.8 7.8 0 000-15.6h-6.1v15.6zM95.6 141.7l-5.2 10.2H76.1L107.5 90l31.4 61.8h-14.3l-5.2-10.2zm12-23.7l-6 11.9h11.8zM148.4 121.5a31 31 0 0154-20.9l-8 11.5a17.7 17.7 0 00-15-8.5c-9.8 0-17.2 8.1-17.2 17.9s7.4 17.9 17.3 17.9a17.7 17.7 0 0015-8.5l8 11.4a31 31 0 01-54.1-20.8zM240.6 122.4L262.5 91h15.7L257 121.5l24 30.2H264zm-17.1-31.3h13.7V152h-13.7z"/>
    </g>
  </g>
</svg>
