<svg width="742" height="549" viewBox="0 0 742 549" fill="none" xmlns="http://www.w3.org/2000/svg">
<path fill-rule="evenodd" clip-rule="evenodd" d="M-280.619 99.3955V149.443C-269.197 139.425 -253.478 131.936 -239.775 125.658C-229.972 121.165 -219.8 117.851 -209.266 115.592C-190.19 111.501 -170.983 107.91 -151.769 104.319C-120.264 98.4298 -88.7388 92.5371 -57.7392 84.4281C-49.0469 82.1535 -40.4716 79.6612 -31.9249 77.1772C-9.78979 70.7441 12.155 64.3661 35.4669 61.9669C60.3807 59.4066 85.0958 61.0348 109.352 67.3359C131.471 73.0826 152.865 81.4516 174.174 89.7876L174.182 89.7907C179.632 91.9224 185.076 94.052 190.524 96.135C221.549 107.992 252.755 119.529 284.677 128.723C314.119 137.202 342.108 150.643 365.804 170.263C385.068 186.212 401.105 205.481 417.065 224.657C418.943 226.913 420.819 229.167 422.699 231.415C446.559 259.933 471.736 287.051 500.277 310.953C516.353 324.414 532.746 337.583 549.171 350.612C558.978 358.391 568.72 366.219 576.6 376.041C588.203 390.504 595.905 407.639 603.471 424.475C604.03 425.72 604.59 426.964 605.15 428.205C608.139 434.837 611.085 441.493 614.031 448.151C619.208 459.847 624.388 471.55 629.807 483.137C639.947 504.82 648.602 526.211 655.89 548.383H742C734.964 524.086 726.963 500.192 717.391 476.567C713.23 466.295 709.233 455.872 705.224 445.42C693.916 415.941 682.517 386.221 667.117 358.945C652.344 332.785 629.906 319.239 605.148 304.291L605.123 304.276C604.07 303.641 603.013 303.002 601.952 302.361C595.419 298.407 588.795 294.675 582.181 290.947V290.946C569.241 283.653 556.337 276.38 544.217 267.52C527.836 255.545 512.746 241.876 499.157 226.787C485.916 212.084 474.459 195.228 462.963 178.314C441.444 146.654 419.79 114.795 386.048 96.5013C368.312 86.8869 349.233 83.0528 330.049 79.1975C318.531 76.8828 306.975 74.5605 295.648 70.975C261.853 60.2817 229.103 46.792 196.63 32.6143C193.781 31.3706 190.929 30.1155 188.075 28.8589C166.395 19.3154 144.504 9.6796 121.436 4.19794C96.6274 -1.69618 71.4053 -1.20771 46.6137 4.56023C26.257 9.2974 7.71692 18.1893 -10.8869 27.1116C-22.3036 32.5873 -33.7448 38.0745 -45.6442 42.6196C-66.8896 50.7363 -88.776 54.872 -111.162 58.3604C-139.768 62.8176 -167.997 66.8882 -196.895 68.8583C-223.119 70.6452 -245.14 77.8135 -267.996 90.9857C-272.544 93.6072 -276.663 96.4403 -280.619 99.3955ZM-280.619 186.2V237.346C-276.864 234.274 -273.18 231.12 -269.675 227.801C-261.537 220.097 -250.207 214.227 -239.782 208.825C-237.6 207.695 -235.458 206.585 -233.393 205.483C-223.904 200.421 -214.107 196.105 -203.965 192.531C-177.391 183.165 -149.755 174.966 -122.272 168.745C-100.282 163.772 -77.9545 162.855 -55.5239 161.934C-54.3726 161.886 -53.2203 161.839 -52.0681 161.791C-47.7618 161.612 -43.4491 161.418 -39.1332 161.223L-39.1205 161.222C-13.4275 160.062 12.3931 158.897 38.0287 160.996C63.8057 163.108 88.6984 169.641 113.256 177.515C173.65 196.871 233.753 221.772 286.477 257.548C310.6 273.913 331.682 293.861 350.846 315.757C361.587 328.032 371.469 341.102 381.349 354.173H381.35C395.207 372.504 409.064 390.834 425.291 406.963C426.541 408.207 427.793 409.44 429.041 410.671L429.079 410.706L429.093 410.721C437.539 419.043 445.837 427.22 452.511 437.205C461.044 449.969 467.829 463.931 474.568 477.798V477.799L474.569 477.8V477.801C476.782 482.355 478.99 486.898 481.253 491.386C484.917 498.648 489.11 505.589 493.303 512.528C496.891 518.468 500.48 524.407 503.736 530.547C506.794 536.319 509.392 542.288 511.673 548.383H597.519C595.126 541.113 592.444 533.943 589.331 526.94C585.614 518.579 581.239 510.546 576.866 502.511C574.243 497.693 571.62 492.874 569.138 487.986C564.718 479.273 560.633 470.203 556.523 461.08V461.079C545.207 435.958 533.709 410.431 514.53 390.818C509.662 385.842 504.53 381.136 499.397 376.43L499.396 376.429C494.485 371.925 489.571 367.42 484.888 362.676C469.001 346.587 453.717 329.783 438.504 313.056L438.33 312.864C431.635 305.503 425.021 298.056 418.405 290.607C403.047 273.318 387.682 256.017 371.274 239.745C327.93 196.765 275.561 172.008 218.98 150.828C188.204 139.307 157.139 128.023 125.817 118.066C102.369 110.613 78.5296 104.98 53.8911 103.691C23.2646 102.086 -7.50433 105.515 -37.6854 110.362C-44.5046 111.457 -51.3367 112.489 -58.1697 113.521C-75.3959 116.123 -92.6284 118.727 -109.671 122.333C-130.241 126.689 -150.617 132.054 -170.974 137.413C-178.993 139.525 -187.01 141.636 -195.036 143.684C-219.868 150.017 -241.755 160.336 -263.65 173.62C-269.781 177.337 -275.218 181.722 -280.619 186.2ZM-280.619 322.397V270.641C-267.181 259.511 -253.224 249.189 -237.984 240.556C-221.036 230.957 -203.384 224.41 -184.796 218.786C-181.643 217.832 -178.485 216.864 -175.322 215.894L-175.321 215.893H-175.32C-156.081 209.995 -136.659 204.04 -116.839 200.786C-94.3504 197.093 -71.0917 196.578 -48.1582 196.071H-48.1561L-48.153 196.07C-42.6423 195.948 -37.1508 195.826 -31.6932 195.661C-5.71106 194.874 20.2594 195.052 45.826 200.279C107.251 212.83 167.109 239.081 221.393 269.991C246.15 284.085 268.914 300.787 288.971 321.102C304.724 337.055 318.276 354.726 331.83 372.399L331.831 372.4C342.051 385.726 352.27 399.051 363.434 411.642C367.803 416.57 372.575 421.111 377.345 425.648C382.782 430.822 388.215 435.992 393.048 441.731C404.879 455.789 413.53 473.46 421.342 489.914C426.28 500.316 432.075 510.037 437.899 519.807C440.441 524.068 442.987 528.339 445.47 532.681C448.372 537.756 450.854 543.011 453.04 548.383H366.729C364.766 544.233 362.559 540.168 360.042 536.205C350.016 520.418 341.228 504.179 332.643 487.563C325.644 474.008 317.35 462.696 306.122 452.467C291.595 439.226 280.01 424.383 268.056 408.803C247.571 382.101 225.967 355.723 199.103 335.18C173.764 315.803 144.721 301.534 116.075 287.842C64.0566 262.978 8.07202 247.179 -49.6613 248.571C-54.5246 248.689 -59.4272 248.767 -64.3522 248.847C-87.6503 249.224 -111.466 249.608 -134.151 254.033C-161.104 259.288 -189.511 267.169 -214.855 277.884C-228.143 283.501 -244.719 290.972 -255.417 300.673C-259.342 304.231 -263.447 307.673 -267.567 311.128L-267.57 311.13C-271.97 314.82 -276.388 318.524 -280.619 322.397ZM-280.619 356.291V446.719C-279.818 442.545 -279.165 438.309 -278.643 434.005C-278.446 432.391 -278.272 430.767 -278.098 429.138C-277.288 421.586 -276.469 413.951 -273.414 406.963C-269.129 397.154 -261.553 390.625 -253.851 383.989L-253.85 383.987C-251.705 382.139 -249.55 380.283 -247.454 378.344C-237.913 369.52 -227.974 362.625 -216.076 356.937C-205.209 351.743 -193.522 348.411 -181.952 345.112L-181.934 345.107C-179.979 344.55 -178.028 343.993 -176.083 343.428C-163.897 339.89 -151.695 336.469 -139.039 335.218C-110.762 332.423 -80.1772 330.628 -51.9171 334.287C-22.9563 338.037 7.1748 348.829 33.5513 361.243C62.4153 374.826 91.4771 389.952 114.825 412.272C128.764 425.604 140.862 440.833 152.533 456.206C163.083 470.097 174.083 481.133 186.504 493.044C195.484 501.652 201.222 512.777 206.945 523.874C210.071 529.936 213.193 535.99 216.837 541.62C218.32 543.909 219.725 546.156 221.057 548.383H308.559C306.798 545.028 304.862 541.719 302.712 538.448C297.019 529.778 292.246 520.607 287.476 511.441C283.028 502.896 278.582 494.354 273.394 486.224C268.081 477.891 261.262 471.554 254.303 465.088C251.741 462.707 249.16 460.309 246.628 457.786C236.59 447.79 228.069 436.295 219.565 424.821C214.819 418.418 210.078 412.022 205.08 405.897C185.309 381.661 163.362 360.493 136.767 344.17C109.041 327.154 79.4406 312.571 48.8726 301.73C21.7051 292.09 -5.68024 282.562 -34.6038 280.685C-64.096 278.771 -94.7534 280.299 -124.175 282.87C-151.221 285.233 -178.485 294.198 -204.024 303.154C-214.991 306.998 -225.22 312.201 -235.236 318.132C-247.77 325.551 -258.489 335.134 -269.382 344.871L-269.383 344.872L-270.462 345.837C-274.212 349.187 -277.614 352.64 -280.619 356.291ZM-280.619 548.383V502.166C-272.615 487.056 -268.165 472.072 -266.424 454.985C-266.292 453.681 -266.173 452.375 -266.055 451.069C-265.343 443.212 -264.629 435.354 -260.8 428.286C-255.622 418.734 -246.197 410.597 -237.854 403.396C-236.712 402.411 -235.591 401.442 -234.503 400.491C-225.422 392.54 -211.729 387.02 -200.425 383.254C-185.862 378.41 -170.767 373.577 -155.65 370.925C-145.666 369.174 -135.47 368.902 -125.325 368.632C-122.39 368.555 -119.459 368.476 -116.539 368.362C-86.566 367.197 -60.3787 369.627 -31.8261 379.304C-0.695801 389.858 30.4718 403.613 57.1418 423.366C70.5995 433.337 82.1672 445.481 92.8314 458.429C96.4318 462.801 99.861 467.304 103.285 471.802C111.491 482.581 119.665 493.318 130.092 502.087C140.86 511.139 147.076 522.292 153.655 534.097C155.229 536.921 156.824 539.782 158.506 542.661C159.657 544.63 160.911 546.517 162.203 548.383H74.9483C74.7314 548.022 74.5157 547.664 74.302 547.306C68.5638 537.739 63.4561 529.224 54.3279 521.647C46.5839 515.223 40.5013 507.154 34.4262 499.093C31.5253 495.245 28.6264 491.399 25.549 487.734C17.2372 477.835 8.18787 468.682 -2.28174 461.147C-23.1743 446.107 -47.1792 435.577 -71.383 427.519C-93.3597 420.203 -113.615 418.922 -136.608 419.779C-158.941 420.606 -178.776 424.013 -200.11 431.264C-208.847 434.235 -218.644 438.527 -225.836 444.459C-232.568 450.008 -241.245 457.877 -245.156 466.004C-247.669 471.23 -247.995 476.941 -248.319 482.635C-248.39 483.849 -248.459 485.061 -248.549 486.268C-249.553 499.747 -252.853 511.204 -259.416 522.986C-260.489 524.915 -261.658 526.833 -262.835 528.763C-266.108 534.131 -269.44 539.594 -270.914 545.672C-271.133 546.571 -271.307 547.472 -271.444 548.383H-280.619Z" fill="#04192B" stroke="#00A99D"/>
</svg>
