<svg opacity="0.3" width="1164" height="779" viewBox="0 0 1164 779" fill="none" xmlns="http://www.w3.org/2000/svg">
<path fill-rule="evenodd" clip-rule="evenodd" d="M1533.93 149.003V224.028C1516.8 209.01 1493.22 197.783 1472.66 188.373C1457.96 181.637 1442.7 176.669 1426.9 173.283C1398.28 167.15 1369.47 161.767 1340.65 156.384C1293.4 147.555 1246.11 138.721 1199.61 126.565C1186.57 123.155 1173.71 119.419 1160.89 115.695C1127.68 106.052 1094.77 96.4905 1059.8 92.8939C1022.43 89.0558 985.356 91.4966 948.973 100.943C915.794 109.557 883.702 122.103 851.739 134.6L851.728 134.604C843.552 137.8 835.387 140.992 827.213 144.115C780.677 161.89 733.867 179.184 685.985 192.968C641.822 205.678 599.838 225.827 564.294 255.24C535.399 279.149 511.342 308.035 487.402 336.781C484.586 340.162 481.772 343.542 478.951 346.912C443.162 389.663 405.396 430.316 362.584 466.147C338.47 486.326 313.881 506.067 289.243 525.599C274.533 537.26 259.92 548.995 248.099 563.718C230.695 585.4 219.143 611.087 207.793 636.326C206.954 638.192 206.116 640.056 205.275 641.918C200.792 651.859 196.373 661.837 191.953 671.818C184.188 689.352 176.418 706.895 168.289 724.266C153.079 756.771 140.096 788.838 129.165 822.075H0C10.5538 785.652 22.5561 749.833 36.9139 714.417C43.1544 699.017 49.1509 683.393 55.1647 667.724C72.1256 623.533 89.2247 578.981 112.324 538.091C134.485 498.875 168.141 478.568 205.279 456.159L205.315 456.137C206.895 455.184 208.48 454.227 210.072 453.266C219.872 447.339 229.807 441.744 239.728 436.155V436.153C259.138 425.221 278.494 414.318 296.675 401.037C321.246 383.084 343.881 362.594 364.265 339.974C384.126 317.933 401.312 292.664 418.555 267.309C450.835 219.848 483.315 172.088 533.928 144.664C560.531 130.251 589.15 124.504 617.926 118.724C635.203 115.254 652.537 111.773 669.528 106.398C720.221 90.3676 769.345 70.1454 818.054 48.8918C822.328 47.0273 826.606 45.1459 830.887 43.2621C863.407 28.9556 896.243 14.5106 930.846 6.29308C968.059 -2.54272 1005.89 -1.81047 1043.08 6.8362C1073.61 13.9376 1101.42 27.2675 1129.33 40.6426C1146.46 48.8513 1163.62 57.0771 1181.47 63.8906C1213.33 76.0583 1246.16 82.2581 1279.74 87.4875C1322.65 94.1692 1365 100.271 1408.34 103.225C1447.68 105.904 1480.71 116.649 1514.99 136.396C1521.82 140.326 1527.99 144.573 1533.93 149.003ZM1533.93 279.131V355.802C1528.3 351.198 1522.77 346.47 1517.51 341.494C1505.31 329.945 1488.31 321.145 1472.67 313.048C1469.4 311.354 1466.19 309.689 1463.09 308.038C1448.86 300.449 1434.16 293.978 1418.95 288.621C1379.09 274.581 1337.63 262.29 1296.41 252.964C1263.42 245.509 1229.93 244.134 1196.29 242.753C1194.56 242.681 1192.83 242.611 1191.1 242.539C1184.64 242.271 1178.17 241.98 1171.7 241.688L1171.68 241.686C1133.14 239.948 1094.41 238.201 1055.96 241.348C1017.29 244.514 979.953 254.307 943.116 266.111C852.525 295.127 762.371 332.455 683.284 386.088C647.099 410.62 615.477 440.524 586.731 473.348C570.62 491.749 555.797 511.343 540.976 530.937H540.975C520.19 558.417 499.404 585.895 475.063 610.074C473.188 611.939 471.31 613.787 469.438 615.633L469.382 615.685L469.36 615.708C456.691 628.184 444.245 640.441 434.234 655.409C421.433 674.544 411.257 695.473 401.148 716.262V716.264L401.146 716.265V716.267C397.827 723.093 394.515 729.904 391.12 736.631C385.625 747.519 379.335 757.922 373.046 768.325C367.663 777.229 362.28 786.133 357.396 795.337C352.808 803.99 348.911 812.937 345.491 822.075H216.721C220.312 811.177 224.335 800.428 229.003 789.93C234.579 777.397 241.141 765.353 247.701 753.308C251.636 746.086 255.57 738.863 259.293 731.534C265.923 718.473 272.051 704.876 278.215 691.2V691.199C295.189 653.54 312.437 615.272 341.205 585.871C348.506 578.411 356.205 571.357 363.905 564.302L363.906 564.301C371.273 557.549 378.643 550.796 385.668 543.684C409.498 519.565 432.424 494.374 455.244 469.298L455.505 469.011C465.547 457.976 475.468 446.812 485.393 435.646C508.429 409.728 531.478 383.792 556.089 359.399C621.106 294.969 699.658 257.856 784.53 226.105C830.694 208.833 877.291 191.919 924.275 176.991C959.447 165.819 995.206 157.374 1032.16 155.442C1078.1 153.037 1124.26 158.176 1169.53 165.442C1179.76 167.083 1190.01 168.63 1200.25 170.178C1226.09 174.079 1251.94 177.982 1277.51 183.389C1308.36 189.918 1338.93 197.96 1369.46 205.994C1381.49 209.16 1393.52 212.324 1405.55 215.395C1442.8 224.89 1475.63 240.358 1508.48 260.272C1517.67 265.843 1525.83 272.418 1533.93 279.131ZM1533.93 483.302V405.715C1513.77 389.03 1492.84 373.556 1469.98 360.614C1444.55 346.225 1418.08 336.411 1390.19 327.98C1385.46 326.549 1380.73 325.098 1375.98 323.645L1375.98 323.643H1375.98C1347.12 314.801 1317.99 305.874 1288.26 300.996C1254.53 295.46 1219.64 294.688 1185.24 293.927H1185.23L1185.23 293.926C1176.96 293.744 1168.73 293.561 1160.54 293.313C1121.57 292.133 1082.61 292.401 1044.26 300.236C952.123 319.051 862.336 358.404 780.91 404.741C743.775 425.869 709.629 450.907 679.543 481.361C655.914 505.276 635.585 531.767 615.255 558.259L615.254 558.26C599.924 578.237 584.594 598.213 567.849 617.087C561.295 624.475 554.137 631.283 546.983 638.085C538.827 645.841 530.677 653.591 523.428 662.194C505.681 683.269 492.705 709.759 480.987 734.426C473.581 750.018 464.887 764.591 456.151 779.238C452.338 785.625 448.519 792.028 444.795 798.537C440.442 806.145 436.718 814.022 433.44 822.075H562.907C565.851 815.855 569.161 809.76 572.937 803.819C587.976 780.153 601.158 755.809 614.036 730.901C624.534 710.581 636.974 693.623 653.817 678.289C675.608 658.438 692.985 636.189 710.915 612.832C741.643 572.803 774.049 533.261 814.346 502.465C852.354 473.416 895.918 452.026 938.887 431.501C1016.92 394.228 1100.89 370.543 1187.49 372.631C1194.79 372.806 1202.14 372.924 1209.53 373.044C1244.48 373.609 1280.2 374.184 1314.23 380.818C1354.66 388.695 1397.27 400.511 1435.28 416.574C1455.22 424.993 1480.08 436.193 1496.13 450.736C1502.01 456.07 1508.17 461.229 1514.35 466.408L1514.35 466.411C1520.96 471.943 1527.58 477.496 1533.93 483.302ZM1533.93 534.113V669.672C1532.73 663.415 1531.75 657.065 1530.96 650.612C1530.67 648.192 1530.41 645.758 1530.15 643.316C1528.93 631.995 1527.7 620.55 1523.12 610.074C1516.69 595.369 1505.33 585.582 1493.78 575.634L1493.78 575.631C1490.56 572.861 1487.33 570.077 1484.18 567.171C1469.87 553.943 1454.96 543.607 1437.11 535.081C1420.81 527.294 1403.28 522.299 1385.93 517.354L1385.9 517.346C1382.97 516.511 1380.04 515.677 1377.13 514.83C1358.85 509.525 1340.54 504.397 1321.56 502.521C1279.14 498.331 1233.27 495.641 1190.88 501.126C1147.43 506.748 1102.24 522.926 1062.67 541.536C1019.38 561.897 975.784 584.572 940.762 618.033C919.853 638.018 901.708 660.848 884.2 683.894C868.376 704.718 851.876 721.261 833.244 739.116C819.773 752.021 811.168 768.698 802.583 785.333C797.893 794.422 793.21 803.497 787.744 811.937C785.52 815.368 783.412 818.737 781.414 822.075H650.161C652.803 817.046 655.707 812.086 658.932 807.181C667.471 794.184 674.63 780.437 681.787 766.696C688.458 753.886 695.126 741.081 702.909 728.893C710.879 716.401 721.108 706.901 731.545 697.209C735.388 693.639 739.26 690.044 743.058 686.262C758.115 671.278 770.896 654.046 783.653 636.844C790.772 627.246 797.884 617.658 805.38 608.476C835.036 572.145 867.957 540.411 907.85 515.941C949.438 490.433 993.839 468.573 1039.69 452.32C1080.44 437.87 1121.52 423.585 1164.91 420.772C1209.14 417.902 1255.13 420.193 1299.26 424.048C1339.83 427.59 1380.73 441.029 1419.04 454.456C1435.49 460.218 1450.83 468.018 1465.85 476.908C1484.65 488.029 1500.73 502.395 1517.07 516.992L1517.07 516.994L1518.69 518.441C1524.32 523.463 1529.42 528.639 1533.93 534.113ZM1533.93 822.075V752.791C1521.92 730.14 1515.25 707.678 1512.64 682.063C1512.44 680.109 1512.26 678.15 1512.08 676.193C1511.01 664.415 1509.94 652.634 1504.2 642.039C1496.43 627.719 1482.3 615.521 1469.78 604.726C1468.07 603.25 1466.39 601.798 1464.76 600.372C1451.13 588.453 1430.59 580.177 1413.64 574.532C1391.79 567.27 1369.15 560.026 1346.48 556.05C1331.5 553.424 1316.2 553.018 1300.99 552.613C1296.58 552.496 1292.19 552.378 1287.81 552.208C1242.85 550.461 1203.57 554.104 1160.74 568.61C1114.04 584.432 1067.29 605.052 1027.29 634.664C1007.1 649.61 989.749 667.815 973.753 687.226C968.352 693.779 963.208 700.531 958.073 707.273C945.763 723.431 933.503 739.528 917.862 752.673C901.709 766.243 892.386 782.962 882.518 800.659C880.156 804.893 877.764 809.181 875.24 813.497C873.515 816.45 871.633 819.277 869.696 822.075H1000.58C1000.9 821.534 1001.23 820.997 1001.55 820.461C1010.15 806.119 1017.82 793.355 1031.51 781.995C1043.12 772.365 1052.25 760.269 1061.36 748.185C1065.71 742.416 1070.06 736.65 1074.68 731.157C1087.14 716.318 1100.72 702.596 1116.42 691.301C1147.76 668.755 1183.77 652.969 1220.07 640.889C1253.04 629.922 1283.42 628.002 1317.91 629.286C1351.41 630.527 1381.16 635.634 1413.16 646.503C1426.27 650.956 1440.97 657.39 1451.75 666.284C1461.85 674.602 1474.87 686.398 1480.73 698.582C1484.5 706.416 1484.99 714.977 1485.48 723.513C1485.58 725.333 1485.69 727.149 1485.82 728.96C1487.33 749.166 1492.28 766.341 1502.12 784.003C1503.73 786.895 1505.49 789.769 1507.25 792.662C1512.16 800.711 1517.16 808.899 1519.37 818.011C1519.7 819.359 1519.96 820.71 1520.17 822.075H1533.93Z" fill="#04192B" stroke="#00A99D"/>
</svg>
