<svg width="336" height="210" viewBox="0 0 336 210" fill="none" xmlns="http://www.w3.org/2000/svg">
<g opacity="0.2" clip-path="url(#clip0_35_155)">
<mask id="mask0_35_155" style="mask-type:alpha" maskUnits="userSpaceOnUse" x="-139" y="0" width="475" height="256">
<path fill-rule="evenodd" clip-rule="evenodd" d="M-138.411 46.5423V69.7884C-133.112 65.1351 -125.82 61.6565 -119.463 58.7408C-114.915 56.6539 -110.196 55.1145 -105.309 54.0653C-96.4591 52.1652 -87.5489 50.4973 -78.6352 48.8293C-64.0192 46.0938 -49.3943 43.3567 -35.013 39.5902C-30.9805 38.5337 -27.0023 37.3761 -23.0374 36.2223C-12.7685 33.2343 -2.58789 30.2718 8.2269 29.1574C19.7849 27.9682 31.2506 28.7245 42.5034 31.6512C52.7648 34.3205 62.69 38.2077 72.5757 42.0796L72.5791 42.081C75.1075 43.0712 77.6329 44.0604 80.1608 45.0279C94.5534 50.5354 109.031 55.8938 123.84 60.1646C137.498 64.1028 150.483 70.3458 161.476 79.4591C170.413 86.867 177.853 95.8172 185.257 104.724C186.128 105.772 186.998 106.819 187.871 107.863C198.94 121.109 210.62 133.705 223.86 144.807C231.318 151.059 238.923 157.176 246.543 163.228C251.093 166.841 255.612 170.477 259.268 175.039C264.651 181.757 268.224 189.715 271.734 197.535C271.993 198.114 272.253 198.691 272.513 199.268C273.9 202.348 275.266 205.44 276.633 208.533C279.035 213.965 281.438 219.401 283.952 224.783C288.656 234.854 292.671 244.79 296.052 255.088H336C332.736 243.803 329.024 232.705 324.583 221.731C322.653 216.96 320.799 212.119 318.939 207.264C313.693 193.572 308.405 179.768 301.26 167.098C294.407 154.948 283.998 148.656 272.512 141.712L272.5 141.705C272.012 141.41 271.522 141.114 271.029 140.816C267.998 138.979 264.926 137.246 261.857 135.514V135.514C255.854 132.126 249.868 128.748 244.245 124.633C236.645 119.071 229.645 112.722 223.341 105.713C217.198 98.8841 211.883 91.0547 206.55 83.1986C196.567 68.4931 186.521 53.6952 170.868 45.198C162.64 40.7323 153.789 38.9515 144.889 37.1607C139.546 36.0856 134.184 35.0069 128.929 33.3415C113.251 28.3747 98.0582 22.109 82.9935 15.5237C81.6718 14.946 80.3487 14.3631 79.0246 13.7794C68.9668 9.34665 58.8113 4.87099 48.1095 2.32486C36.6003 -0.412841 24.8994 -0.18596 13.3981 2.49314C3.95425 4.69346 -4.64679 8.8236 -13.2774 12.9678C-18.5739 15.5112 -23.8816 18.0599 -29.4019 20.171C-39.2581 23.9411 -49.4116 25.862 -59.7968 27.4823C-73.0675 29.5526 -86.1636 31.4433 -99.5699 32.3584C-111.735 33.1884 -121.952 36.5179 -132.555 42.6361C-134.665 43.8537 -136.575 45.1697 -138.411 46.5423ZM-138.411 86.8615V110.618C-136.669 109.191 -134.96 107.726 -133.334 106.184C-129.558 102.606 -124.302 99.8794 -119.466 97.3704C-118.454 96.8456 -117.46 96.3296 -116.502 95.8181C-112.1 93.4668 -107.555 91.4619 -102.85 89.8019C-90.5216 85.4516 -77.7007 81.6434 -64.9507 78.7539C-54.7494 76.4441 -44.3913 76.0181 -33.9853 75.5901C-33.4512 75.5679 -32.9167 75.5461 -32.3821 75.5239C-30.3843 75.4409 -28.3836 75.3504 -26.3814 75.26L-26.3755 75.2595C-14.4561 74.7208 -2.47745 74.1797 9.41537 75.1547C21.3738 76.1357 32.9219 79.17 44.3147 82.8275C72.3326 91.8177 100.215 103.384 124.675 120.001C135.866 127.602 145.646 136.868 154.537 147.038C159.52 152.739 164.104 158.811 168.688 164.882H168.688C175.117 173.396 181.545 181.91 189.073 189.402C189.653 189.979 190.234 190.552 190.813 191.124L190.83 191.14L190.837 191.147C194.755 195.013 198.605 198.81 201.701 203.448C205.66 209.377 208.807 215.862 211.934 222.303V222.304L211.934 222.304V222.305C212.961 224.42 213.985 226.53 215.035 228.614C216.734 231.988 218.68 235.211 220.625 238.434C222.29 241.193 223.955 243.952 225.465 246.804C226.884 249.485 228.089 252.257 229.147 255.088H268.973C267.862 251.712 266.618 248.381 265.174 245.129C263.45 241.245 261.42 237.514 259.392 233.782C258.174 231.544 256.958 229.306 255.806 227.035C253.756 222.988 251.861 218.775 249.954 214.538V214.537C244.704 202.869 239.37 191.012 230.473 181.902C228.215 179.591 225.834 177.405 223.452 175.22L223.452 175.219C221.173 173.127 218.894 171.035 216.721 168.831C209.351 161.358 202.26 153.553 195.203 145.783L195.122 145.694C192.016 142.275 188.948 138.816 185.879 135.356C178.754 127.326 171.625 119.29 164.014 111.732C143.905 91.7688 119.611 80.2696 93.362 70.4318C79.0843 65.0803 64.6729 59.8394 50.1418 55.2143C39.2639 51.7526 28.2045 49.1362 16.7742 48.5376C2.56604 47.7922 -11.7082 49.3847 -25.7097 51.6359C-28.8733 52.1444 -32.0428 52.6238 -35.2128 53.1032C-43.2043 54.312 -51.1987 55.5212 -59.1049 57.1965C-68.6479 59.2197 -78.1006 61.7114 -87.5444 64.2006C-91.2648 65.1816 -94.9841 66.162 -98.7074 67.1133C-110.227 70.0552 -120.381 74.8479 -130.539 81.0183C-133.383 82.7445 -135.905 84.7815 -138.411 86.8615ZM-138.411 150.122V126.083C-132.177 120.913 -125.702 116.118 -118.632 112.108C-110.769 107.65 -102.58 104.609 -93.9569 101.997C-92.4942 101.554 -91.0291 101.104 -89.5619 100.654L-89.5614 100.653H-89.5609C-80.6354 97.9135 -71.6255 95.1475 -62.4302 93.6363C-51.9976 91.921 -41.2075 91.6818 -30.5683 91.4461H-30.5673L-30.5658 91.4456C-28.0093 91.3892 -25.4617 91.3324 -22.9299 91.2558C-10.8763 90.8901 1.17188 90.9731 13.0327 93.4006C41.5289 99.2305 69.2982 111.424 94.4814 125.781C105.966 132.327 116.527 140.085 125.832 149.521C133.14 156.931 139.427 165.139 145.715 173.347L145.715 173.348C150.456 179.537 155.198 185.726 160.377 191.575C162.404 193.864 164.617 195.973 166.83 198.081C169.353 200.484 171.873 202.885 174.115 205.551C179.604 212.08 183.617 220.288 187.241 227.931C189.532 232.762 192.22 237.277 194.922 241.816C196.102 243.795 197.283 245.778 198.435 247.795C199.781 250.152 200.932 252.593 201.946 255.088H161.905C160.995 253.161 159.971 251.273 158.803 249.432C154.152 242.099 150.075 234.556 146.092 226.839C142.845 220.543 138.998 215.289 133.788 210.538C127.049 204.387 121.675 197.493 116.129 190.256C106.626 177.854 96.6035 165.602 84.1405 156.06C72.3853 147.059 58.912 140.432 45.6225 134.072C21.4902 122.523 -4.48206 115.185 -31.2656 115.832C-33.5217 115.886 -35.7961 115.923 -38.0809 115.96C-48.8893 116.135 -59.9379 116.313 -70.4617 118.368C-82.966 120.809 -96.1445 124.47 -107.902 129.447C-114.067 132.056 -121.756 135.526 -126.719 140.032C-128.54 141.685 -130.445 143.283 -132.356 144.888L-132.357 144.889C-134.399 146.603 -136.448 148.323 -138.411 150.122ZM-138.411 165.866V207.867C-138.039 205.929 -137.736 203.961 -137.494 201.962C-137.403 201.212 -137.322 200.458 -137.241 199.701C-136.865 196.194 -136.486 192.647 -135.068 189.402C-133.08 184.845 -129.566 181.813 -125.993 178.731L-125.992 178.73C-124.997 177.871 -123.998 177.009 -123.025 176.109C-118.599 172.01 -113.988 168.807 -108.468 166.166C-103.427 163.753 -98.0052 162.205 -92.6377 160.673L-92.6293 160.671C-91.7224 160.412 -90.817 160.153 -89.915 159.891C-84.2615 158.247 -78.6006 156.658 -72.7292 156.077C-59.6114 154.779 -45.4225 153.945 -32.312 155.645C-18.8766 157.387 -4.89828 162.399 7.33826 168.165C20.7288 174.474 34.211 181.5 45.0426 191.868C51.5092 198.06 57.1213 205.134 62.5361 212.274C67.4301 218.726 72.5333 223.852 78.2957 229.384C82.4619 233.383 85.1234 238.55 87.7785 243.704C89.2289 246.52 90.6773 249.332 92.3678 251.947C93.0557 253.01 93.7077 254.054 94.3256 255.088H134.919C134.102 253.53 133.204 251.993 132.206 250.474C129.566 246.447 127.351 242.187 125.138 237.93C123.075 233.96 121.012 229.993 118.605 226.217C116.141 222.346 112.977 219.403 109.749 216.4C108.56 215.294 107.363 214.18 106.188 213.008C101.532 208.365 97.5784 203.026 93.6332 197.696C91.4313 194.722 89.2318 191.752 86.9135 188.906C77.7414 177.649 67.5598 167.817 55.2217 160.235C42.3593 152.332 28.6271 145.558 14.446 140.523C1.84259 136.045 -10.862 131.619 -24.2801 130.748C-37.9621 129.859 -52.1845 130.568 -65.834 131.763C-78.3807 132.86 -91.0291 137.024 -102.877 141.184C-107.965 142.97 -112.71 145.386 -117.357 148.141C-123.172 151.587 -128.145 156.038 -133.198 160.561L-133.198 160.561L-133.699 161.01C-135.439 162.566 -137.017 164.17 -138.411 165.866ZM-138.411 255.088V233.621C-134.698 226.603 -132.633 219.643 -131.825 211.707C-131.764 211.101 -131.709 210.495 -131.654 209.888C-131.324 206.239 -130.993 202.589 -129.217 199.306C-126.815 194.869 -122.442 191.089 -118.572 187.745C-118.042 187.287 -117.522 186.837 -117.017 186.396C-112.804 182.702 -106.452 180.138 -101.208 178.389C-94.4515 176.139 -87.4488 173.895 -80.4357 172.663C-75.804 171.849 -71.0737 171.723 -66.3671 171.598C-65.0055 171.562 -63.6458 171.525 -62.2912 171.472C-48.3863 170.931 -36.2375 172.06 -22.9915 176.554C-8.54959 181.457 5.90961 187.845 18.2823 197.021C24.5255 201.652 29.892 207.292 34.8393 213.306C36.5096 215.337 38.1005 217.429 39.6889 219.518C43.496 224.524 47.2879 229.512 52.1252 233.585C57.1208 237.789 60.0043 242.969 63.0564 248.453C63.7867 249.765 64.5265 251.093 65.3071 252.431C65.8407 253.345 66.4226 254.222 67.0218 255.088H26.543C26.4424 254.921 26.3423 254.754 26.2432 254.588C23.5812 250.145 21.2115 246.19 16.9769 242.67C13.3843 239.686 10.5625 235.938 7.74411 232.194C6.39832 230.407 5.05347 228.62 3.62579 226.918C-0.230133 222.32 -4.42831 218.069 -9.28537 214.569C-18.9778 207.583 -30.1141 202.692 -41.3426 198.949C-51.538 195.551 -60.935 194.956 -71.6019 195.354C-81.9625 195.739 -91.1642 197.321 -101.061 200.689C-105.114 202.069 -109.66 204.062 -112.996 206.818C-116.119 209.395 -120.145 213.05 -121.959 216.825C-123.125 219.252 -123.276 221.905 -123.427 224.55C-123.459 225.114 -123.491 225.676 -123.533 226.237C-123.999 232.498 -125.53 237.82 -128.575 243.292C-129.072 244.188 -129.615 245.079 -130.161 245.975C-131.679 248.469 -133.225 251.006 -133.908 253.829C-134.01 254.247 -134.091 254.665 -134.155 255.088H-138.411Z" fill="white"/>
</mask>
<g mask="url(#mask0_35_155)">
<path d="M-138.411 69.7885L-137.923 70.3459L-139.151 71.4237V69.7885H-138.411ZM-138.411 46.5424H-139.151V46.1706L-138.853 45.9483L-138.411 46.5424ZM-119.462 58.7409L-119.155 59.415L-119.462 58.7409ZM-105.309 54.0654L-105.464 53.3405L-105.309 54.0654ZM-78.635 48.8294L-78.7707 48.1007L-78.635 48.8294ZM-35.0129 39.5903L-34.826 40.3075L-35.0129 39.5903ZM-23.0372 36.2224L-23.2434 35.5106L-23.0372 36.2224ZM8.22702 29.1575L8.15158 28.4201L8.22702 29.1575ZM42.5034 31.6513L42.6894 30.9338V30.9339L42.5034 31.6513ZM72.5758 42.0797L72.3085 42.7709L72.3065 42.7701L72.5758 42.0797ZM72.5792 42.0811L72.8465 41.3898L72.8485 41.3907L72.5792 42.0811ZM80.1609 45.0279L79.8971 45.7204V45.7204L80.1609 45.0279ZM123.84 60.1647L123.635 60.8773L123.84 60.1647ZM161.476 79.4592L161.005 80.0305L161.476 79.4592ZM185.257 104.724L185.826 104.25L185.257 104.724ZM187.871 107.863L188.438 107.387L187.871 107.863ZM223.861 144.807L223.386 145.375L223.861 144.807ZM246.544 163.228L246.084 163.809L246.544 163.228ZM259.268 175.039L259.845 174.575L259.268 175.039ZM271.734 197.536L272.409 197.231L271.734 197.536ZM272.513 199.268L273.187 198.963V198.963L272.513 199.268ZM276.633 208.533L275.957 208.833L276.633 208.533ZM283.952 224.783L284.622 224.469L283.952 224.783ZM296.052 255.088V255.83H295.517L295.349 255.32L296.052 255.088ZM336 255.088L336.711 254.882L336.985 255.83H336V255.088ZM324.583 221.731L323.898 222.01L324.583 221.731ZM318.939 207.264L318.248 207.529L318.939 207.264ZM301.261 167.098L301.905 166.733H301.905L301.261 167.098ZM272.512 141.712L272.13 142.347H272.129L272.512 141.712ZM272.501 141.705L272.882 141.071L272.883 141.071L272.501 141.705ZM271.029 140.816L270.647 141.45L271.029 140.816ZM261.857 135.514L262.205 134.86L262.213 134.864L262.22 134.868L261.857 135.514ZM261.857 135.514L261.509 136.168L261.502 136.164L261.494 136.16L261.857 135.514ZM244.245 124.633L243.809 125.232L244.245 124.633ZM223.341 105.713L223.891 105.217L223.341 105.713ZM206.55 83.1987L205.938 83.6158L206.55 83.1987ZM170.868 45.1981L171.22 44.5463V44.5463L170.868 45.1981ZM144.889 37.1608L145.034 36.434L144.889 37.1608ZM128.93 33.3416L129.153 32.6348V32.6348L128.93 33.3416ZM82.9936 15.5238L83.2895 14.8443L82.9936 15.5238ZM79.0247 13.7795L79.3226 13.1009L79.0247 13.7795ZM48.1096 2.32493L48.2802 1.6037V1.6037L48.1096 2.32493ZM13.3982 2.49321L13.2305 1.77119V1.77118L13.3982 2.49321ZM-13.2773 12.9679L-13.5969 12.2994L-13.2773 12.9679ZM-29.4018 20.1711L-29.6657 19.4786L-29.6652 19.4785L-29.4018 20.1711ZM-59.7967 27.4824L-59.6828 28.2148L-59.7967 27.4824ZM-99.5698 32.3584L-99.5195 33.098L-99.5698 32.3584ZM-132.555 42.6362L-132.924 41.9938L-132.555 42.6362ZM-138.411 110.618L-137.943 111.191L-139.151 112.181V110.618H-138.411ZM-138.411 86.8616H-139.151V86.5132L-138.883 86.2908L-138.411 86.8616ZM-133.334 106.184L-133.842 105.646L-133.334 106.184ZM-119.466 97.3705L-119.806 96.7122L-119.466 97.3705ZM-116.502 95.8182L-116.85 95.1639L-116.502 95.8182ZM-102.85 89.802L-103.096 89.1027L-102.85 89.802ZM-64.9506 78.754L-65.1138 78.031L-64.9506 78.754ZM-33.9852 75.5902L-33.9551 76.3305L-33.9852 75.5902ZM-32.382 75.524L-32.413 74.7832L-32.382 75.524ZM-26.3813 75.2601L-26.3468 76.0004H-26.3477L-26.3813 75.2601ZM-26.3754 75.2596L-26.4104 74.5193H-26.4089L-26.3754 75.2596ZM9.4155 75.1548L9.47568 74.416L9.4155 75.1548ZM44.3148 82.8276L44.0889 83.5337L44.3148 82.8276ZM124.675 120.001L124.26 120.615L124.675 120.001ZM154.537 147.038L155.093 146.55L154.537 147.038ZM168.688 164.882L169.278 164.434L169.291 164.452L169.303 164.471L168.688 164.882ZM168.688 164.882L168.098 165.329L168.085 165.312L168.073 165.293L168.688 164.882ZM189.073 189.402L189.594 188.876H189.595L189.073 189.402ZM190.813 191.124L190.294 191.652L190.813 191.124ZM190.83 191.14L190.312 191.67L190.312 191.669L190.83 191.14ZM190.837 191.147L191.355 190.618L191.356 190.619L190.837 191.147ZM201.701 203.448L201.086 203.861L201.701 203.448ZM211.934 222.303L211.272 222.635L211.27 222.631L211.268 222.627L211.934 222.303ZM211.934 222.304L212.596 221.973L212.601 221.984L212.606 221.995L211.934 222.304ZM211.934 222.305L211.269 222.629L211.266 222.621L211.262 222.614L211.934 222.305ZM215.035 228.614L214.375 228.948L215.035 228.614ZM220.625 238.434L219.992 238.818L220.625 238.434ZM225.465 246.804L226.119 246.457L225.465 246.804ZM229.147 255.088V255.83H228.634L228.455 255.348L229.147 255.088ZM268.973 255.088L269.676 254.857L269.996 255.83H268.973V255.088ZM265.174 245.129L265.85 244.827V244.828L265.174 245.129ZM259.392 233.782L258.742 234.136L259.392 233.782ZM255.806 227.035L255.147 227.371L255.147 227.371L255.806 227.035ZM249.954 214.538L250.616 214.206L250.622 214.22L250.629 214.233L249.954 214.538ZM249.954 214.538L249.292 214.869L249.286 214.856L249.28 214.842L249.954 214.538ZM230.473 181.902L231.001 181.384L230.473 181.902ZM223.452 175.22L223.95 174.671L223.952 174.673L223.452 175.22ZM223.452 175.219L222.954 175.768L222.952 175.766L223.452 175.219ZM216.721 168.831L217.247 168.31H217.247L216.721 168.831ZM195.203 145.783L195.75 145.284V145.285L195.203 145.783ZM195.122 145.694L194.575 146.194L194.575 146.193L195.122 145.694ZM185.879 135.357L185.326 135.849L185.879 135.357ZM164.014 111.732L164.535 111.205L164.014 111.732ZM93.3621 70.4319L93.1032 71.1262H93.1027L93.3621 70.4319ZM50.1419 55.2144L50.3658 54.5082L50.1419 55.2144ZM16.7743 48.5377L16.7359 49.2779H16.7354L16.7743 48.5377ZM-25.7096 51.636L-25.5923 52.3679L-25.7096 51.636ZM-35.2126 53.1032L-35.1022 53.8366L-35.2126 53.1032ZM-59.1048 57.1966L-59.2581 56.4716L-59.1048 57.1966ZM-87.5443 64.2007L-87.7322 63.4841L-87.5443 64.2007ZM-98.7072 67.1134L-98.5243 67.8315L-98.7072 67.1134ZM-130.539 81.0183L-130.155 81.6524L-130.539 81.0183ZM-138.411 126.083H-139.151V125.734L-138.882 125.511L-138.411 126.083ZM-138.411 150.122L-137.912 150.669L-139.151 151.805V150.122H-138.411ZM-118.632 112.109L-118.996 111.463L-118.632 112.109ZM-93.9567 101.997L-93.7427 102.707L-93.9567 101.997ZM-89.5618 100.654L-89.3413 101.362L-89.3453 101.362L-89.5618 100.654ZM-89.5613 100.653L-89.327 101.357L-89.3339 101.359L-89.3403 101.361L-89.5613 100.653ZM-89.5608 100.653L-89.7945 99.9501L-89.7862 99.9471L-89.7773 99.9447L-89.5608 100.653ZM-62.4301 93.6364L-62.3103 94.3678L-62.4301 93.6364ZM-30.5681 91.4462L-30.5514 92.1869H-30.5519L-30.5681 91.4462ZM-30.5672 91.4462L-30.5479 92.1869H-30.5504L-30.5672 91.4462ZM-30.5657 91.4457L-30.5849 90.7049H-30.5819L-30.5657 91.4457ZM-22.9297 91.2559L-22.9075 91.9972L-22.9297 91.2559ZM13.0328 93.4007L12.8848 94.1266L13.0328 93.4007ZM94.4815 125.781L94.1161 126.425L94.4815 125.781ZM125.832 149.521L125.306 150.042L125.832 149.521ZM145.715 173.347L145.137 173.81L145.133 173.804L145.128 173.798L145.715 173.347ZM145.715 173.348L146.293 172.885L146.313 172.91L146.331 172.936L145.715 173.348ZM145.715 173.348L145.129 173.799L145.114 173.78L145.1 173.759L145.715 173.348ZM160.377 191.575L160.93 191.083L160.377 191.575ZM166.83 198.081L167.34 197.543L167.346 197.55L167.353 197.556L166.83 198.081ZM166.83 198.081L166.321 198.618L166.314 198.612L166.307 198.605L166.83 198.081ZM174.115 205.551L174.681 205.073L174.115 205.551ZM187.241 227.931L187.909 227.613L187.241 227.931ZM194.922 241.816L195.558 241.436L194.922 241.816ZM198.435 247.795L199.077 247.427V247.427L198.435 247.795ZM201.946 255.088L202.631 254.809L203.046 255.83H201.946V255.088ZM161.905 255.088V255.83H161.437L161.237 255.406L161.905 255.088ZM158.803 249.432L158.179 249.83L158.803 249.432ZM146.092 226.839L145.435 227.179L146.092 226.839ZM133.789 210.538L133.29 211.086L133.789 210.538ZM116.129 190.256L116.716 189.805L116.129 190.256ZM84.1406 156.06L83.6914 156.649L84.1406 156.06ZM45.6227 134.072L45.9412 133.403L45.6227 134.072ZM-31.2654 115.832L-31.2477 116.573L-31.2654 115.832ZM-38.0808 115.96L-38.069 116.701L-38.0808 115.96ZM-70.4615 118.368L-70.32 119.096L-70.4615 118.368ZM-107.902 129.447L-107.614 130.13L-107.902 129.447ZM-126.719 140.032L-126.223 140.581V140.582L-126.719 140.032ZM-132.356 144.888L-131.881 145.456L-131.885 145.46L-131.889 145.464L-132.356 144.888ZM-132.357 144.889L-132.832 144.321L-132.827 144.317L-132.823 144.314L-132.357 144.889ZM-138.411 207.868L-137.684 208.007L-139.151 207.868H-138.411ZM-138.411 165.866H-139.151V165.599L-138.982 165.394L-138.411 165.866ZM-137.494 201.962L-138.228 201.873L-137.494 201.962ZM-137.241 199.702L-136.506 199.781L-137.241 199.702ZM-135.068 189.402L-134.391 189.698V189.699L-135.068 189.402ZM-125.993 178.731L-125.506 179.289L-125.51 179.292L-125.993 178.731ZM-125.992 178.73L-126.479 178.172L-126.475 178.168L-125.992 178.73ZM-123.025 176.109L-122.523 176.653L-123.025 176.109ZM-108.468 166.166L-108.787 165.497L-108.468 166.166ZM-92.6375 160.673L-92.4344 161.386H-92.4349L-92.6375 160.673ZM-92.6292 160.671L-92.8324 159.958L-92.8318 159.958L-92.6292 160.671ZM-89.9149 159.891L-89.7087 160.603L-89.9149 159.891ZM-72.7291 156.077L-72.8021 155.339L-72.7291 156.077ZM-32.3119 155.645L-32.4071 156.38L-32.3119 155.645ZM7.33838 168.166L7.02374 168.836L7.33838 168.166ZM45.0427 191.868L45.5536 191.332L45.0427 191.868ZM62.5362 212.274L61.9474 212.723V212.722L62.5362 212.274ZM78.2958 229.384L77.784 229.92L78.2958 229.384ZM87.7786 243.704L87.1212 244.044L87.7786 243.704ZM92.3679 251.947L91.7475 252.351H91.747L92.3679 251.947ZM94.3257 255.088V255.83H93.9065L93.691 255.469L94.3257 255.088ZM134.919 255.088L135.574 254.744L136.144 255.83H134.919V255.088ZM132.207 250.474L131.589 250.881L131.588 250.88L132.207 250.474ZM125.138 237.93L125.794 237.587L125.138 237.93ZM118.605 226.217L117.982 226.616V226.615L118.605 226.217ZM109.749 216.4L110.252 215.856L109.749 216.4ZM106.188 213.008L106.71 212.483H106.711L106.188 213.008ZM93.6333 197.696L94.2276 197.255L93.6333 197.696ZM86.9136 188.907L87.4867 188.438L86.9136 188.907ZM55.2218 160.235L55.6084 159.603H55.6089L55.2218 160.235ZM14.4462 140.523L14.1991 141.222L14.4462 140.523ZM-24.28 130.748L-24.3278 131.488L-24.28 130.748ZM-65.8338 131.763L-65.7697 132.502L-65.8338 131.763ZM-102.877 141.185L-102.632 141.884L-102.877 141.185ZM-117.357 148.141L-116.98 148.779H-116.98L-117.357 148.141ZM-133.198 160.561L-132.705 161.114L-132.708 161.117L-132.71 161.119L-133.198 160.561ZM-133.198 160.562L-133.691 160.009L-133.688 160.006L-133.685 160.004L-133.198 160.562ZM-133.699 161.01L-133.206 161.562V161.563L-133.699 161.01ZM-138.411 233.622H-139.151V233.437L-139.064 233.274L-138.411 233.622ZM-138.411 255.088V255.83H-139.151V255.088H-138.411ZM-131.825 211.707L-132.562 211.631L-131.825 211.707ZM-131.654 209.888L-130.917 209.955L-131.654 209.888ZM-129.217 199.306L-129.867 198.952V198.952L-129.217 199.306ZM-118.571 187.745L-118.088 188.306L-118.571 187.745ZM-117.017 186.396L-116.53 186.954L-117.017 186.396ZM-101.208 178.389L-101.441 177.686L-101.208 178.389ZM-80.4355 172.663L-80.5633 171.932H-80.5628L-80.4355 172.663ZM-66.3669 171.598L-66.3472 172.338L-66.3669 171.598ZM-62.291 171.472L-62.3196 170.731L-62.291 171.472ZM-22.9914 176.554L-22.7542 175.852L-22.9914 176.554ZM18.2824 197.021L18.7223 196.425L18.2824 197.021ZM34.8394 213.307L35.4105 212.835L34.8394 213.307ZM39.689 219.518L40.2774 219.069L39.689 219.518ZM52.1253 233.585L51.6499 234.153H51.6494L52.1253 233.585ZM63.0565 248.453L62.4105 248.814L63.0565 248.453ZM65.3072 252.431L65.9459 252.057L65.3072 252.431ZM67.0219 255.088L67.6305 254.666L68.4343 255.83H67.0219V255.088ZM26.5431 255.088V255.83H26.1245L25.9089 255.47L26.5431 255.088ZM26.2433 254.588L25.6091 254.97L26.2433 254.588ZM16.977 242.67L17.4489 242.099V242.1L16.977 242.67ZM7.74423 232.194L8.33502 231.748L7.74423 232.194ZM3.62592 226.918L3.05978 227.396L3.62592 226.918ZM-9.28525 214.569L-9.71725 215.171L-9.28525 214.569ZM-41.3425 198.949L-41.1087 198.246L-41.3425 198.949ZM-71.6017 195.354L-71.5741 196.095L-71.6017 195.354ZM-101.061 200.689L-101.299 199.987L-101.061 200.689ZM-112.996 206.818L-112.525 207.39L-112.525 207.39L-112.996 206.818ZM-121.959 216.825L-122.626 216.504V216.503L-121.959 216.825ZM-123.426 224.55L-124.165 224.507L-123.426 224.55ZM-123.533 226.237L-124.271 226.183V226.182L-123.533 226.237ZM-128.574 243.292L-129.22 242.931V242.931L-128.574 243.292ZM-130.16 245.975L-130.792 245.589L-130.16 245.975ZM-133.908 253.829L-133.19 254.004V254.005L-133.908 253.829ZM-134.154 255.088L-133.423 255.2L-133.518 255.83H-134.154V255.088ZM-139.151 69.7885V46.5424H-137.671V69.7885H-139.151ZM-119.155 59.415C-125.525 62.3366 -132.718 65.7752 -137.923 70.3459L-138.899 69.231C-133.506 64.4957 -126.115 60.9766 -119.771 58.0668L-119.155 59.415ZM-105.154 54.7904C-109.991 55.8287 -114.658 57.3513 -119.155 59.415L-119.771 58.0673C-115.171 55.9562 -110.401 54.4005 -105.464 53.3405L-105.154 54.7904ZM-78.4994 49.5581C-87.4141 51.2268 -96.315 52.8922 -105.154 54.7904L-105.464 53.3405C-96.6025 51.4378 -87.6829 49.7686 -78.7707 48.1007L-78.4994 49.5581ZM-34.826 40.3075C-49.2368 44.0817 -63.8874 46.8234 -78.4994 49.5581L-78.7707 48.1007C-64.1502 45.3644 -49.5515 42.6318 -35.2003 38.8731L-34.826 40.3075ZM-22.8306 36.9343C-26.7941 38.0876 -30.7817 39.248 -34.826 40.3075L-35.2003 38.8732C-31.1786 37.8195 -27.2098 36.6648 -23.2434 35.5106L-22.8306 36.9343ZM8.30298 29.8949C-2.43539 31.0014 -12.5524 33.9434 -22.8306 36.9343L-23.2434 35.5106C-12.9844 32.5253 -2.74066 29.5425 8.15158 28.4201L8.30298 29.8949ZM42.3181 32.3688C31.1551 29.4655 19.7781 28.7142 8.30298 29.8949L8.15158 28.4201C19.7919 27.2224 31.3464 27.9836 42.6894 30.9338L42.3181 32.3688ZM72.3065 42.7701C62.4135 38.8954 52.5297 35.0252 42.3175 32.3688L42.6894 30.9339C53.0007 33.616 62.9662 37.5201 72.8451 41.3893L72.3065 42.7701ZM72.3124 42.7724L72.3085 42.7709L72.8426 41.3884L72.8465 41.3898L72.3124 42.7724ZM79.8971 45.7204C77.3658 44.7517 74.8379 43.7615 72.31 42.7715L72.8485 41.3907C75.3769 42.381 77.8998 43.3691 80.4248 44.3354L79.8971 45.7204ZM123.635 60.8773C108.794 56.5966 94.2922 51.2288 79.8971 45.7204L80.4248 44.3354C94.8149 49.8421 109.268 55.1907 124.044 59.4525L123.635 60.8773ZM161.005 80.0305C150.104 70.9943 137.215 64.7927 123.635 60.8773L124.044 59.4525C137.781 63.413 150.862 69.698 161.948 78.8879L161.005 80.0305ZM184.689 105.198C177.278 96.2828 169.88 87.3869 161.005 80.0305L161.948 78.8879C170.946 86.3471 178.429 95.3517 185.826 104.25L184.689 105.198ZM187.304 108.339C186.431 107.294 185.56 106.246 184.689 105.198L185.826 104.25C186.697 105.298 187.567 106.344 188.438 107.387L187.304 108.339ZM223.386 145.375C210.099 134.235 198.387 121.603 187.304 108.339L188.438 107.387C199.492 120.615 211.141 133.175 224.335 144.239L223.386 145.375ZM246.084 163.809C238.462 157.755 230.851 151.634 223.386 145.375L224.335 144.238C231.786 150.485 239.385 156.596 247.003 162.647L246.084 163.809ZM258.691 175.503C255.096 171.016 250.641 167.428 246.084 163.809L247.003 162.647C251.545 166.254 256.13 169.938 259.845 174.575L258.691 175.503ZM271.06 197.839C267.542 190.004 264.005 182.135 258.691 175.503L259.845 174.575C265.297 181.379 268.905 189.427 272.409 197.231L271.06 197.839ZM271.839 199.573C271.579 198.996 271.319 198.418 271.06 197.839L272.409 197.231C272.668 197.81 272.928 198.387 273.187 198.963L271.839 199.573ZM275.957 208.833C274.589 205.74 273.224 202.651 271.839 199.573L273.187 198.963C274.575 202.046 275.943 205.141 277.31 208.232L275.957 208.833ZM283.282 225.097C280.764 219.707 278.358 214.265 275.957 208.833L277.31 208.232C279.712 213.666 282.112 219.094 284.622 224.469L283.282 225.097ZM295.349 255.32C291.979 245.054 287.975 235.146 283.282 225.097L284.622 224.469C289.337 234.563 293.364 244.527 296.755 254.857L295.349 255.32ZM336 255.83H296.052V254.347H336V255.83ZM325.269 221.453C329.721 232.454 333.441 243.577 336.711 254.882L335.29 255.295C332.031 244.029 328.327 232.955 323.898 222.01L325.269 221.453ZM319.629 206.998C321.49 211.855 323.342 216.689 325.269 221.453L323.898 222.01C321.965 217.231 320.108 212.383 318.248 207.529L319.629 206.998ZM301.905 166.733C309.08 179.459 314.387 193.315 319.629 206.998L318.248 207.529C312.999 193.828 307.729 180.076 300.617 167.463L301.905 166.733ZM272.894 141.078C284.36 148.009 294.942 154.389 301.905 166.733L300.617 167.463C293.872 155.506 283.636 149.302 272.13 142.347L272.894 141.078ZM272.883 141.071L272.895 141.078L272.129 142.347L272.118 142.34L272.883 141.071ZM271.412 140.181C271.904 140.479 272.394 140.775 272.882 141.071L272.118 142.34C271.63 142.045 271.139 141.748 270.647 141.45L271.412 140.181ZM262.22 134.868C265.287 136.599 268.37 138.338 271.412 140.181L270.647 141.45C267.627 139.621 264.565 137.892 261.494 136.16L262.22 134.868ZM262.205 134.86L261.509 136.168L262.205 134.86ZM244.681 124.035C250.263 128.12 256.211 131.477 262.22 134.868L261.494 136.16C255.497 132.776 249.472 129.377 243.809 125.232L244.681 124.035ZM223.891 105.217C230.161 112.188 237.124 118.503 244.681 124.035L243.809 125.232C236.168 119.639 229.129 113.256 222.791 106.209L223.891 105.217ZM207.161 82.7821C212.5 90.6456 217.787 98.432 223.891 105.217L222.791 106.209C216.609 99.3363 211.266 91.4635 205.938 83.6158L207.161 82.7821ZM171.22 44.5463C187.058 53.1438 197.198 68.1053 207.161 82.7821L205.938 83.6158C195.935 68.8811 185.984 54.2468 170.515 45.8499L171.22 44.5463ZM145.034 36.434C153.918 38.2214 162.879 40.0191 171.22 44.5463L170.515 45.8499C162.401 41.4456 153.66 39.6816 144.743 37.8876L145.034 36.434ZM129.153 32.6348C134.363 34.2861 139.685 35.3576 145.034 36.434L144.743 37.8876C139.406 36.8137 134.006 35.7279 128.707 34.0484L129.153 32.6348ZM83.2895 14.8443C98.3469 21.4264 113.512 27.6798 129.153 32.6348L128.707 34.0484C112.991 29.0697 97.7699 22.7917 82.6982 16.2033L83.2895 14.8443ZM79.3226 13.1009C80.6472 13.6847 81.9688 14.2671 83.2895 14.8443L82.6982 16.2033C81.3751 15.6251 80.051 15.0416 78.7269 14.458L79.3226 13.1009ZM48.2802 1.6037C59.0585 4.16801 69.2751 8.6729 79.3226 13.1009L78.7269 14.458C68.6582 10.0205 58.5644 5.57411 47.9385 3.04617L48.2802 1.6037ZM13.2305 1.77118C24.8324 -0.931301 36.6497 -1.16295 48.2802 1.6037L47.9385 3.04617C36.5511 0.337398 24.9665 0.559524 13.5659 3.21524L13.2305 1.77118ZM-13.5969 12.2994C-4.97809 8.16082 3.69498 3.99292 13.2305 1.77119L13.5659 3.21523C4.21378 5.39412 -4.31525 9.48653 -12.9572 13.6364L-13.5969 12.2994ZM-29.6652 19.4785C-24.1784 17.3801 -18.8977 14.8449 -13.5969 12.2994L-12.9572 13.6364C-18.2497 16.1776 -23.5846 18.7398 -29.138 20.8637L-29.6652 19.4785ZM-59.9106 26.7499C-49.5352 25.1311 -39.4453 23.2194 -29.6657 19.4786L-29.138 20.8636C-39.0701 24.6628 -49.2876 26.593 -59.6828 28.2148L-59.9106 26.7499ZM-99.6201 31.6189C-86.2473 30.7061 -73.1783 28.8198 -59.9106 26.7499L-59.6828 28.2148C-72.9564 30.2856 -86.0792 32.1806 -99.5195 33.098L-99.6201 31.6189ZM-132.924 41.9938C-122.231 35.8241 -111.907 32.4572 -99.6201 31.6188L-99.5195 33.098C-111.564 33.9197 -121.671 37.2118 -132.186 43.2786L-132.924 41.9938ZM-138.853 45.9483C-137.002 44.564 -135.067 43.2302 -132.924 41.9938L-132.186 43.2786C-134.263 44.4774 -136.149 45.7755 -137.968 47.1364L-138.853 45.9483ZM-139.151 110.618V86.8616H-137.671V110.618H-139.151ZM-132.825 106.723C-134.469 108.281 -136.192 109.758 -137.943 111.191L-138.879 110.043C-137.144 108.623 -135.45 107.171 -133.842 105.646L-132.825 106.723ZM-119.126 98.0287C-123.986 100.55 -129.14 103.23 -132.825 106.723L-133.842 105.646C-129.976 101.982 -124.619 99.2088 -119.806 96.7122L-119.126 98.0287ZM-116.154 96.472C-117.117 96.9865 -118.114 97.5039 -119.126 98.0287L-119.806 96.7122C-118.793 96.1869 -117.803 95.6734 -116.85 95.1639L-116.154 96.472ZM-102.604 90.5013C-107.274 92.1489 -111.784 94.1385 -116.154 96.472L-116.85 95.1639C-112.415 92.7953 -107.836 90.7755 -103.096 89.1027L-102.604 90.5013ZM-64.7874 79.477C-77.5057 82.3596 -90.299 86.1589 -102.604 90.5013L-103.096 89.1027C-90.7438 84.744 -77.8948 80.9279 -65.1138 78.031L-64.7874 79.477ZM-33.9551 76.3305C-44.3719 76.7594 -54.6625 77.1844 -64.7878 79.477L-65.1138 78.031C-54.8361 75.7039 -44.4104 75.2769 -34.0157 74.8494L-33.9551 76.3305ZM-32.3514 76.2643C-32.886 76.2865 -33.4205 76.3087 -33.9551 76.3305L-34.0157 74.8494C-33.4812 74.8272 -32.9471 74.8054 -32.413 74.7832L-32.3514 76.2643ZM-26.3477 76.0004C-28.3499 76.0908 -30.3517 76.1812 -32.3514 76.2643L-32.413 74.7832C-30.4163 74.7002 -28.417 74.6097 -26.4148 74.5193L-26.3477 76.0004ZM-26.3409 75.9999L-26.3468 76.0004L-26.4158 74.5193H-26.4104L-26.3409 75.9999ZM9.35538 75.8936C-2.48322 74.923 -14.4145 75.4612 -26.3423 76.0004L-26.4089 74.5193C-14.4969 73.9811 -2.47189 73.4365 9.47568 74.416L9.35538 75.8936ZM44.0889 83.5337C32.7179 79.8827 21.2314 76.8677 9.35538 75.8936L9.47568 74.416C21.5164 75.4034 33.1267 78.4575 44.5406 82.1219L44.0889 83.5337ZM124.26 120.615C99.881 104.052 72.0718 92.5126 44.0889 83.5337L44.5402 82.1219C72.5935 91.1235 100.549 102.715 125.09 119.388L124.26 120.615ZM153.981 147.527C145.12 137.39 135.386 128.172 124.26 120.615L125.09 119.388C136.347 127.033 146.173 136.345 155.093 146.55L153.981 147.527ZM168.098 165.329C163.511 159.254 158.943 153.205 153.981 147.527L155.093 146.55C160.097 152.274 164.697 158.367 169.278 164.434L168.098 165.329ZM168.072 165.293L169.303 164.471L168.072 165.293ZM168.072 165.293L169.303 164.471L168.072 165.293ZM168.073 165.293H168.072L169.303 164.471H169.304L168.073 165.293ZM188.552 189.928C180.981 182.393 174.521 173.836 168.098 165.329L169.278 164.434C175.712 172.956 182.11 181.427 189.594 188.876L188.552 189.928ZM190.294 191.652C189.715 191.081 189.133 190.507 188.552 189.928L189.595 188.876C190.173 189.452 190.753 190.024 191.332 190.596L190.294 191.652ZM190.312 191.669L190.294 191.652L191.332 190.596L191.349 190.612L190.312 191.669ZM190.319 191.676L190.312 191.67L191.348 190.611L191.355 190.618L190.319 191.676ZM201.086 203.861C198.039 199.296 194.244 195.549 190.318 191.675L191.356 190.619C195.266 194.477 199.171 198.325 202.316 203.036L201.086 203.861ZM211.268 222.627C208.138 216.178 205.012 209.74 201.086 203.861L202.316 203.036C206.308 209.015 209.476 215.546 212.599 221.979L211.268 222.627ZM211.272 222.635L211.272 222.635L212.595 221.972L212.596 221.973L211.272 222.635ZM211.272 222.636V222.635L212.596 221.973L211.272 222.636ZM211.262 222.614L211.262 222.613L212.606 221.995L212.607 221.996L211.262 222.614ZM214.375 228.948C213.322 226.858 212.295 224.743 211.269 222.629L212.599 221.98C213.626 224.096 214.649 226.202 215.695 228.28L214.375 228.948ZM219.992 238.818C218.049 235.599 216.089 232.351 214.375 228.948L215.695 228.28C217.38 231.624 219.31 234.823 221.258 238.051L219.992 238.818ZM224.812 247.151C223.313 244.321 221.659 241.58 219.992 238.818L221.258 238.051C222.921 240.807 224.597 243.583 226.119 246.457L224.812 247.151ZM228.455 255.348C227.405 252.541 226.213 249.799 224.812 247.151L226.119 246.457C227.555 249.171 228.773 251.974 229.84 254.829L228.455 255.348ZM268.973 255.83H229.147V254.347H268.973V255.83ZM265.85 244.828C267.306 248.107 268.559 251.461 269.676 254.857L268.271 255.321C267.166 251.962 265.93 248.656 264.499 245.43L265.85 244.828ZM260.041 233.427C262.068 237.154 264.111 240.912 265.85 244.827L264.499 245.43C262.788 241.578 260.773 237.873 258.742 234.136L260.041 233.427ZM256.466 226.699C257.611 228.959 258.823 231.188 260.041 233.427L258.742 234.136C257.526 231.9 256.304 229.653 255.147 227.371L256.466 226.699ZM250.629 214.233C252.536 218.474 254.425 222.67 256.466 226.699L255.147 227.371C253.087 223.306 251.185 219.077 249.28 214.842L250.629 214.233ZM250.616 214.206L249.292 214.87V214.869L250.616 214.206ZM250.615 214.206L250.616 214.206L249.292 214.869L250.615 214.206ZM250.615 214.206L249.292 214.869L250.615 214.206ZM231.001 181.384C240.006 190.604 245.39 202.588 250.628 214.233L249.28 214.842C244.02 203.151 238.734 191.421 229.944 182.421L231.001 181.384ZM223.952 174.673C226.331 176.857 228.726 179.055 231.001 181.384L229.944 182.421C227.702 180.126 225.337 177.954 222.953 175.766L223.952 174.673ZM223.949 174.671L223.95 174.671L222.955 175.768L222.954 175.768L223.949 174.671ZM217.247 168.31C219.405 170.498 221.67 172.578 223.952 174.673L222.952 175.766C220.676 173.676 218.383 171.571 216.195 169.352L217.247 168.31ZM195.75 145.285C202.809 153.056 209.89 160.85 217.247 168.31L216.195 169.352C208.813 161.867 201.712 154.05 194.656 146.283L195.75 145.285ZM195.669 145.195L195.75 145.284L194.656 146.283L194.575 146.194L195.669 145.195ZM186.431 134.864C189.501 138.324 192.567 141.78 195.669 145.195L194.575 146.193C191.466 142.77 188.395 139.308 185.326 135.849L186.431 134.864ZM164.535 111.205C172.166 118.783 179.31 126.836 186.431 134.864L185.326 135.849C178.199 127.815 171.086 119.798 163.494 112.258L164.535 111.205ZM93.621 69.7375C119.9 79.5862 144.313 91.1304 164.535 111.205L163.494 112.258C143.498 92.4073 119.322 80.9526 93.1032 71.1262L93.621 69.7375ZM50.3658 54.5082C64.9152 59.1387 79.3398 64.3845 93.621 69.7375L93.1027 71.1262C78.8284 65.7757 64.4314 60.5402 49.9175 55.9211L50.3658 54.5082ZM16.8128 47.7974C28.3288 48.4005 39.4548 51.0356 50.3658 54.5082L49.918 55.9211C39.0731 52.4697 28.0798 49.8718 16.7359 49.2779L16.8128 47.7974ZM-25.8265 50.9041C-11.8057 48.6497 2.52768 47.0479 16.8128 47.7974L16.7354 49.2779C2.60413 48.5365 -11.61 50.1198 -25.5923 52.3679L-25.8265 50.9041ZM-35.3231 52.3704C-32.1526 51.891 -28.9861 51.4121 -25.8265 50.9041L-25.5923 52.3679C-28.7598 52.8769 -31.9327 53.3573 -35.1022 53.8366L-35.3231 52.3704ZM-59.2581 56.4716C-51.3268 54.7909 -43.3112 53.5786 -35.3231 52.3704L-35.1022 53.8366C-43.0976 55.0459 -51.0704 56.2517 -58.9519 57.9221L-59.2581 56.4716ZM-87.7322 63.4841C-78.2913 60.9954 -68.8213 58.4988 -59.2581 56.4716L-58.9519 57.9221C-68.4742 59.9403 -77.9091 62.4275 -87.3559 64.9178L-87.7322 63.4841ZM-98.8897 66.3949C-95.1704 65.4446 -91.4535 64.4646 -87.7322 63.4841L-87.3559 64.9178C-91.0762 65.8982 -94.7981 66.8797 -98.5243 67.8315L-98.8897 66.3949ZM-130.922 80.3848C-120.721 74.1877 -110.499 69.36 -98.8897 66.3949L-98.5243 67.8315C-109.955 70.7511 -120.041 75.5082 -130.155 81.6524L-130.922 80.3848ZM-138.883 86.2908C-136.376 84.2098 -133.817 82.1416 -130.922 80.3843L-130.155 81.6524C-132.949 83.3479 -135.435 85.3533 -137.939 87.4324L-138.883 86.2908ZM-137.671 126.083V150.122H-139.151V126.083H-137.671ZM-118.267 112.753C-125.287 116.735 -131.725 121.5 -137.939 126.653L-138.882 125.511C-132.628 120.325 -126.117 115.502 -118.996 111.463L-118.267 112.753ZM-93.7427 102.707C-102.339 105.311 -110.471 108.332 -118.267 112.753L-118.996 111.463C-111.067 106.967 -102.821 103.908 -94.1708 101.288L-93.7427 102.707ZM-89.3453 101.362C-90.8119 101.813 -92.278 102.263 -93.7427 102.707L-94.1708 101.288C-92.7096 100.845 -91.2459 100.395 -89.7783 99.9452L-89.3453 101.362ZM-89.3403 101.361L-89.3413 101.362L-89.7822 99.9462H-89.7817L-89.3403 101.361ZM-89.327 101.357L-89.795 99.9501H-89.7945L-89.327 101.357ZM-62.3103 94.3678C-71.4484 95.8696 -80.4104 98.6198 -89.3443 101.362L-89.7773 99.9447C-80.8601 97.2074 -71.8029 94.4256 -62.5494 92.9045L-62.3103 94.3678ZM-30.5519 92.1869C-41.2005 92.4232 -51.9378 92.6623 -62.3103 94.3678L-62.55 92.9045C-52.0572 91.1798 -41.2143 90.9406 -30.5844 90.7049L-30.5519 92.1869ZM-30.5504 92.1869H-30.5514L-30.5849 90.7049H-30.5839L-30.5504 92.1869ZM-30.5459 92.1869H-30.5479L-30.5869 90.7049H-30.5849L-30.5459 92.1869ZM-22.9075 91.9972C-25.4428 92.0738 -27.9934 92.1301 -30.5489 92.1869L-30.5819 90.7049C-28.025 90.648 -25.4803 90.5917 -22.9519 90.5151L-22.9075 91.9972ZM12.8848 94.1266C1.11185 91.7175 -10.8653 91.6315 -22.9075 91.9972L-22.9519 90.5151C-10.887 90.1489 1.23218 90.229 13.1807 92.6742L12.8848 94.1266ZM94.1161 126.425C68.9743 112.092 41.28 99.9358 12.8848 94.1266L13.1807 92.6742C41.7775 98.5249 69.6218 110.755 94.8474 125.136L94.1161 126.425ZM125.306 150.042C116.056 140.662 105.552 132.943 94.1161 126.425L94.8474 125.136C106.381 131.711 116.999 139.508 126.358 149L125.306 150.042ZM145.128 173.798C138.836 165.584 132.576 157.413 125.306 150.042L126.358 149C133.704 156.448 140.019 164.693 146.302 172.896L145.128 173.798ZM145.137 173.811V173.81L146.292 172.884L146.293 172.885L145.137 173.811ZM145.1 173.759V173.759L146.331 172.936L145.1 173.759ZM159.823 192.067C154.624 186.196 149.867 179.985 145.129 173.799L146.302 172.896C151.046 179.089 155.771 185.258 160.93 191.083L159.823 192.067ZM166.321 198.618C164.112 196.514 161.875 194.383 159.823 192.067L160.93 191.083C162.933 193.344 165.123 195.432 167.34 197.543L166.321 198.618ZM166.307 198.605H166.307L167.353 197.556V197.557L166.307 198.605ZM173.549 206.028C171.339 203.4 168.848 201.025 166.321 198.618L167.34 197.543C169.857 199.942 172.408 202.371 174.681 205.073L173.549 206.028ZM186.573 228.249C182.944 220.597 178.968 212.474 173.549 206.028L174.681 205.073C180.24 211.687 184.29 219.98 187.909 227.613L186.573 228.249ZM194.287 242.195C191.588 237.662 188.881 233.117 186.573 228.249L187.909 227.613C190.182 232.407 192.853 236.893 195.558 241.436L194.287 242.195ZM197.793 248.163C196.645 246.154 195.467 244.176 194.287 242.195L195.558 241.436C196.736 243.414 197.921 245.403 199.077 247.427L197.793 248.163ZM201.261 255.368C200.257 252.898 199.12 250.488 197.793 248.163L199.077 247.427C200.442 249.818 201.607 252.289 202.631 254.809L201.261 255.368ZM161.905 254.347H201.946V255.83H161.905V254.347ZM159.427 249.034C160.614 250.904 161.651 252.819 162.574 254.771L161.237 255.406C160.338 253.503 159.329 251.643 158.179 249.83L159.427 249.034ZM146.749 226.498C150.728 234.209 154.793 241.729 159.427 249.035L158.179 249.83C153.51 242.469 149.421 234.904 145.435 227.179L146.749 226.498ZM134.286 209.989C139.568 214.806 143.467 220.134 146.749 226.498L145.435 227.179C142.223 220.952 138.427 215.771 133.29 211.086L134.286 209.989ZM116.716 189.805C122.264 197.045 127.602 203.889 134.287 209.99L133.29 211.086C126.496 204.885 121.086 197.942 115.542 190.708L116.716 189.805ZM84.5894 155.471C97.1366 165.077 107.209 177.397 116.716 189.805L115.542 190.708C106.042 178.309 96.0704 166.127 83.6914 156.649L84.5894 155.471ZM45.9412 133.403C59.2257 139.76 72.7651 146.417 84.5894 155.471L83.6914 156.649C72.0052 147.701 58.5984 141.103 45.3036 134.741L45.9412 133.403ZM-31.2832 115.09C-4.35275 114.44 21.7359 121.819 45.9412 133.403L45.3036 134.741C21.2447 123.227 -4.61118 115.929 -31.2477 116.573L-31.2832 115.09ZM-38.0927 115.218C-35.8074 115.181 -33.5359 115.145 -31.2832 115.09L-31.2477 116.573C-33.5073 116.627 -35.7847 116.664 -38.069 116.701L-38.0927 115.218ZM-70.6031 117.641C-60.0038 115.571 -48.8892 115.393 -38.0927 115.218L-38.069 116.701C-48.8897 116.876 -59.8716 117.055 -70.32 119.096L-70.6031 117.641ZM-108.19 128.765C-96.3742 123.762 -83.1439 120.089 -70.6031 117.641L-70.32 119.096C-82.7879 121.53 -95.915 125.177 -107.614 130.13L-108.19 128.765ZM-127.216 139.483C-122.146 134.879 -114.339 131.366 -108.19 128.764L-107.614 130.13C-113.795 132.745 -121.367 136.173 -126.223 140.581L-127.216 139.483ZM-132.831 144.32C-130.917 142.714 -129.024 141.124 -127.216 139.483L-126.223 140.582C-128.056 142.245 -129.971 143.853 -131.881 145.456L-132.831 144.32ZM-132.823 144.314L-132.822 144.313L-131.889 145.464L-131.89 145.464L-132.823 144.314ZM-138.91 149.575C-136.933 147.764 -134.871 146.033 -132.832 144.321L-131.882 145.457C-133.926 147.173 -135.963 148.883 -137.912 150.669L-138.91 149.575ZM-139.151 207.868V165.866H-137.671V207.868H-139.151ZM-136.76 202.051C-137.004 204.067 -137.309 206.051 -137.684 208.007L-139.137 207.728C-138.769 205.807 -138.469 203.857 -138.228 201.873L-136.76 202.051ZM-136.506 199.781C-136.587 200.536 -136.668 201.296 -136.76 202.051L-138.228 201.873C-138.138 201.129 -138.058 200.38 -137.977 199.623L-136.506 199.781ZM-134.391 189.699C-135.755 192.822 -136.128 196.253 -136.506 199.781L-137.977 199.623C-137.603 196.135 -137.217 192.473 -135.746 189.104L-134.391 189.699ZM-125.51 179.292C-129.101 182.391 -132.48 185.321 -134.391 189.698L-135.746 189.105C-133.68 184.37 -130.03 181.236 -126.476 178.169L-125.51 179.292ZM-125.505 179.288L-125.506 179.288L-126.48 178.173L-126.479 178.172L-125.505 179.288ZM-122.523 176.653C-123.507 177.564 -124.516 178.435 -125.509 179.292L-126.475 178.168C-125.478 177.309 -124.489 176.455 -123.527 175.565L-122.523 176.653ZM-108.149 166.835C-113.598 169.443 -118.148 172.602 -122.523 176.653L-123.527 175.565C-119.05 171.418 -114.378 168.173 -108.787 165.497L-108.149 166.835ZM-92.4349 161.386C-97.8127 162.921 -103.174 164.453 -108.149 166.835L-108.787 165.497C-103.68 163.052 -98.1974 161.489 -92.8402 159.96L-92.4349 161.386ZM-92.426 161.383L-92.4344 161.386L-92.8407 159.96L-92.8324 159.958L-92.426 161.383ZM-89.7087 160.603C-90.6127 160.866 -91.5201 161.125 -92.4265 161.383L-92.8318 159.958C-91.9244 159.699 -91.021 159.441 -90.121 159.179L-89.7087 160.603ZM-72.6566 156.815C-78.4511 157.388 -84.0508 158.957 -89.7087 160.603L-90.121 159.179C-84.472 157.537 -78.7499 155.928 -72.8021 155.339L-72.6566 156.815ZM-32.4071 156.38C-45.4307 154.692 -59.5506 155.518 -72.6566 156.815L-72.8021 155.339C-59.6724 154.04 -45.4145 153.199 -32.2173 154.91L-32.4071 156.38ZM7.02374 168.836C-5.17484 163.088 -19.0757 158.108 -32.4071 156.38L-32.2173 154.91C-18.6778 156.665 -4.62201 161.711 7.65302 167.494L7.02374 168.836ZM44.5318 192.404C33.7939 182.126 20.4073 175.142 7.02374 168.836L7.65302 167.494C21.0499 173.806 34.6283 180.875 45.5536 191.332L44.5318 192.404ZM61.9474 212.722C56.5356 205.586 50.9531 198.553 44.5313 192.403L45.5536 191.332C52.0656 197.567 57.7073 204.681 63.125 211.825L61.9474 212.722ZM77.784 229.92C72.0156 224.381 66.8779 219.223 61.9474 212.723L63.125 211.825C67.9831 218.23 73.0512 223.323 78.8072 228.849L77.784 229.92ZM87.1212 244.044C84.4558 238.87 81.846 233.818 77.784 229.92L78.8072 228.849C83.0779 232.947 85.7912 238.23 88.4355 243.364L87.1212 244.044ZM91.747 252.351C90.0333 249.699 88.5686 246.854 87.1212 244.044L88.4355 243.364C89.8893 246.186 91.3214 248.965 92.9888 251.545L91.747 252.351ZM93.691 255.469C93.078 254.444 92.431 253.407 91.7475 252.351L92.9888 251.544C93.6806 252.614 94.337 253.665 94.9604 254.708L93.691 255.469ZM134.919 255.83H94.3257V254.347H134.919V255.83ZM132.824 250.066C133.836 251.607 134.746 253.165 135.574 254.744L134.264 255.433C133.458 253.895 132.572 252.38 131.589 250.881L132.824 250.066ZM125.794 237.587C128.01 241.85 130.208 246.076 132.824 250.067L131.588 250.88C128.924 246.817 126.693 242.524 124.482 238.272L125.794 237.587ZM119.229 225.818C121.656 229.626 123.734 233.623 125.794 237.587L124.482 238.272C122.417 234.299 120.368 230.36 117.982 226.616L119.229 225.818ZM110.252 215.856C113.471 218.851 116.705 221.855 119.229 225.818L117.982 226.615C115.576 222.837 112.483 219.955 109.246 216.943L110.252 215.856ZM106.711 212.483C107.874 213.644 109.062 214.749 110.252 215.856L109.246 216.943C108.058 215.838 106.852 214.715 105.667 213.534L106.711 212.483ZM94.2276 197.255C98.1787 202.592 102.099 207.885 106.71 212.483L105.667 213.534C100.964 208.845 96.9788 203.459 93.0391 198.138L94.2276 197.255ZM87.4867 188.438C89.8178 191.298 92.0276 194.283 94.2276 197.255L93.0391 198.138C90.8357 195.161 88.6466 192.205 86.3406 189.375L87.4867 188.438ZM55.6089 159.603C68.0368 167.241 78.2786 177.137 87.4867 188.438L86.3406 189.375C77.2045 178.163 67.0836 168.394 54.8352 160.867L55.6089 159.603ZM14.6932 139.824C28.9285 144.879 42.7076 151.676 55.6084 159.603L54.8352 160.867C42.0118 152.988 28.3259 146.238 14.1991 141.222L14.6932 139.824ZM-24.2321 130.008C-10.6956 130.888 2.1026 135.351 14.6932 139.824L14.1991 141.222C1.58328 136.74 -11.0275 132.352 -24.3278 131.488L-24.2321 130.008ZM-65.8984 131.025C-52.2332 129.828 -37.9684 129.115 -24.2321 130.008L-24.3278 131.488C-37.9555 130.602 -52.1356 131.308 -65.7697 132.502L-65.8984 131.025ZM-103.121 140.485C-91.2774 136.326 -78.5487 132.131 -65.8984 131.025L-65.7697 132.502C-78.2129 133.59 -90.7808 137.723 -102.632 141.884L-103.121 140.485ZM-117.733 147.503C-113.061 144.733 -108.27 142.291 -103.121 140.485L-102.632 141.884C-107.659 143.648 -112.36 146.04 -116.98 148.779L-117.733 147.503ZM-133.69 160.008C-128.646 155.493 -123.62 150.992 -117.733 147.503L-116.98 148.779C-122.722 152.182 -127.642 156.583 -132.705 161.114L-133.69 160.008ZM-133.685 160.004L-133.685 160.003L-132.71 161.119L-132.711 161.119L-133.685 160.004ZM-134.191 160.457L-133.691 160.009L-132.706 161.115L-133.206 161.562L-134.191 160.457ZM-138.982 165.394C-137.559 163.664 -135.953 162.033 -134.191 160.456L-133.206 161.563C-134.924 163.099 -136.474 164.676 -137.84 166.337L-138.982 165.394ZM-137.671 233.622V255.088H-139.151V233.622H-137.671ZM-131.089 211.782C-131.907 219.811 -133.998 226.863 -137.757 233.969L-139.064 233.274C-135.397 226.343 -133.359 219.476 -132.562 211.631L-131.089 211.782ZM-130.917 209.955C-130.972 210.561 -131.027 211.172 -131.089 211.782L-132.562 211.631C-132.5 211.031 -132.446 210.428 -132.391 209.821L-130.917 209.955ZM-128.566 199.659C-130.258 202.786 -130.585 206.28 -130.917 209.955L-132.391 209.821C-132.062 206.198 -131.728 202.391 -129.867 198.952L-128.566 199.659ZM-118.088 188.306C-121.984 191.674 -126.241 195.364 -128.567 199.659L-129.867 198.952C-127.387 194.373 -122.898 190.506 -119.055 187.183L-118.088 188.306ZM-116.53 186.954C-117.037 187.397 -117.559 187.849 -118.088 188.306L-119.055 187.183C-118.525 186.725 -118.006 186.277 -117.504 185.837L-116.53 186.954ZM-100.974 179.093C-106.211 180.839 -112.438 183.366 -116.53 186.954L-117.504 185.838C-113.17 182.039 -106.693 179.437 -101.441 177.686L-100.974 179.093ZM-80.3073 173.393C-87.2612 174.614 -94.2161 176.842 -100.974 179.093L-101.441 177.686C-94.6861 175.437 -87.6365 173.175 -80.5633 171.932L-80.3073 173.393ZM-66.3472 172.338C-71.0632 172.465 -75.7388 172.591 -80.3078 173.393L-80.5628 171.932C-75.869 171.108 -71.0839 170.982 -66.3867 170.857L-66.3472 172.338ZM-62.2625 172.213C-63.6221 172.266 -64.9866 172.302 -66.3472 172.338L-66.3867 170.857C-65.0241 170.82 -63.6689 170.784 -62.3196 170.731L-62.2625 172.213ZM-23.2286 177.257C-36.3676 172.798 -48.4222 171.674 -62.2625 172.213L-62.3196 170.731C-48.3502 170.188 -36.1067 171.321 -22.7542 175.852L-23.2286 177.257ZM17.8425 197.617C5.55563 188.505 -8.82413 182.146 -23.2286 177.257L-22.7542 175.852C-8.27429 180.767 6.26428 187.186 18.7223 196.425L17.8425 197.617ZM34.2688 213.778C29.3423 207.789 24.0192 202.198 17.842 197.617L18.7223 196.425C25.0321 201.105 30.442 206.796 35.4105 212.835L34.2688 213.778ZM39.1007 219.967C37.5108 217.877 35.9288 215.796 34.2688 213.778L35.4105 212.835C37.0911 214.878 38.6904 216.982 40.2774 219.069L39.1007 219.967ZM51.6494 234.153C46.7391 230.017 42.8994 224.963 39.1007 219.967L40.2774 219.069C44.0924 224.086 47.8369 229.006 52.6012 233.018L51.6494 234.153ZM62.4105 248.814C59.3505 243.316 56.5262 238.257 51.6499 234.153L52.6012 233.018C57.7162 237.322 60.6588 242.623 63.7025 248.092L62.4105 248.814ZM64.6686 252.805C63.8835 251.46 63.1404 250.125 62.4105 248.814L63.7025 248.092C64.4334 249.404 65.1696 250.727 65.9459 252.057L64.6686 252.805ZM66.4138 255.51C65.8102 254.637 65.216 253.743 64.6686 252.805L65.9459 252.057C66.4657 252.948 67.0357 253.806 67.6305 254.666L66.4138 255.51ZM26.5431 254.347H67.0219V255.83H26.5431V254.347ZM26.8775 254.207C26.9771 254.373 27.0767 254.539 27.1773 254.707L25.9089 255.47C25.8083 255.303 25.7082 255.136 25.6091 254.97L26.8775 254.207ZM17.4489 242.1C21.7936 245.71 24.2204 249.771 26.8775 254.207L25.6091 254.97C22.9422 250.518 20.6298 246.669 16.5045 243.241L17.4489 242.1ZM8.33502 231.748C11.1623 235.504 13.9338 239.18 17.4489 242.099L16.5051 243.241C12.8345 240.193 9.96292 236.373 7.15393 232.641L8.33502 231.748ZM4.19208 226.441C5.63452 228.161 6.99118 229.963 8.33502 231.748L7.15393 232.641C5.80615 230.851 4.47266 229.08 3.05978 227.396L4.19208 226.441ZM-8.85373 213.967C-3.9306 217.515 0.311462 221.814 4.19208 226.441L3.05978 227.396C-0.772003 222.827 -4.92581 218.623 -9.71725 215.171L-8.85373 213.967ZM-41.1087 198.246C-29.8407 202.002 -18.628 206.922 -8.85373 213.967L-9.71725 215.171C-19.3268 208.245 -30.3872 203.382 -41.5758 199.653L-41.1087 198.246ZM-71.6293 194.613C-60.9146 194.214 -51.42 194.81 -41.1087 198.246L-41.5758 199.653C-51.6558 196.293 -60.9551 195.699 -71.5741 196.095L-71.6293 194.613ZM-101.299 199.987C-91.3292 196.595 -82.056 195 -71.6293 194.613L-71.5741 196.095C-81.8691 196.477 -90.9993 198.048 -100.823 201.391L-101.299 199.987ZM-113.466 206.246C-110.027 203.405 -105.382 201.376 -101.299 199.987L-100.823 201.391C-104.847 202.761 -109.292 204.72 -112.525 207.39L-113.466 206.246ZM-122.626 216.503C-120.731 212.563 -116.581 208.816 -113.466 206.246L-112.525 207.39C-115.657 209.974 -119.557 213.536 -121.293 217.147L-122.626 216.503ZM-124.165 224.507C-124.016 221.888 -123.865 219.086 -122.626 216.504L-121.293 217.147C-122.384 219.42 -122.536 221.922 -122.688 224.592L-124.165 224.507ZM-124.271 226.182C-124.229 225.629 -124.197 225.072 -124.165 224.507L-122.688 224.592C-122.72 225.155 -122.753 225.724 -122.795 226.293L-124.271 226.182ZM-129.22 242.931C-126.23 237.557 -124.729 232.341 -124.271 226.183L-122.795 226.293C-123.269 232.655 -124.828 238.082 -127.928 243.653L-129.22 242.931ZM-130.792 245.589C-130.244 244.69 -129.71 243.813 -129.22 242.931L-127.928 243.653C-128.434 244.564 -128.984 245.468 -129.529 246.362L-130.792 245.589ZM-134.627 253.655C-133.912 250.7 -132.299 248.064 -130.792 245.589L-129.529 246.362C-131.059 248.874 -132.538 251.313 -133.19 254.004L-134.627 253.655ZM-134.886 254.978C-134.819 254.535 -134.734 254.094 -134.627 253.654L-133.19 254.005C-133.285 254.399 -133.362 254.796 -133.423 255.2L-134.886 254.978ZM-138.411 254.347H-134.154V255.83H-138.411V254.347Z" fill="#00A99D"/>
</g>
</g>
<defs>
<clipPath id="clip0_35_155">
<rect width="360" height="255" fill="white" transform="matrix(-1 0 0 1 336 0.375)"/>
</clipPath>
</defs>
</svg>
