<svg width="332" height="80" viewBox="0 0 332 80" fill="none" xmlns="http://www.w3.org/2000/svg">
<path d="M4.41477 15H1.11861V4.81818H4.51918C5.51681 4.81818 6.37358 5.02202 7.08949 5.42969C7.8054 5.83404 8.35393 6.41572 8.73509 7.17472C9.11956 7.9304 9.31179 8.83688 9.31179 9.89418C9.31179 10.9548 9.1179 11.8662 8.73011 12.6286C8.34564 13.3909 7.78883 13.9775 7.05966 14.3885C6.33049 14.7962 5.44886 15 4.41477 15ZM2.65483 13.6577H4.33026C5.10582 13.6577 5.75047 13.5118 6.2642 13.2202C6.77794 12.9252 7.16241 12.4993 7.41761 11.9425C7.67282 11.3823 7.80043 10.6996 7.80043 9.89418C7.80043 9.09541 7.67282 8.41761 7.41761 7.8608C7.16572 7.30398 6.78954 6.88139 6.28906 6.59304C5.78859 6.30469 5.16714 6.16051 4.42472 6.16051H2.65483V13.6577ZM13.3811 15.169C12.8972 15.169 12.4597 15.0795 12.0686 14.9006C11.6775 14.7183 11.3676 14.4548 11.1389 14.1101C10.9135 13.7654 10.8009 13.3428 10.8009 12.8423C10.8009 12.4115 10.8837 12.0568 11.0494 11.7784C11.2151 11.5 11.4389 11.2796 11.7206 11.1172C12.0023 10.9548 12.3172 10.8321 12.6652 10.7493C13.0132 10.6664 13.3678 10.6035 13.7291 10.5604C14.1865 10.5073 14.5577 10.4643 14.8428 10.4311C15.1278 10.3946 15.3349 10.3366 15.4642 10.2571C15.5935 10.1776 15.6581 10.0483 15.6581 9.86932V9.83452C15.6581 9.40033 15.5355 9.06392 15.2902 8.82528C15.0482 8.58665 14.687 8.46733 14.2064 8.46733C13.7059 8.46733 13.3115 8.57836 13.0232 8.80043C12.7381 9.01918 12.5409 9.26278 12.4315 9.53125L11.0345 9.21307C11.2002 8.74905 11.4422 8.37453 11.7604 8.08949C12.0819 7.80114 12.4514 7.59233 12.869 7.46307C13.2866 7.33049 13.7258 7.2642 14.1865 7.2642C14.4914 7.2642 14.8146 7.30066 15.156 7.37358C15.5007 7.44318 15.8222 7.57244 16.1205 7.76136C16.4221 7.95028 16.669 8.22041 16.8612 8.57173C17.0535 8.91974 17.1496 9.37216 17.1496 9.92898V15H15.6979V13.956H15.6382C15.5421 14.1482 15.3979 14.3371 15.2057 14.5227C15.0134 14.7083 14.7665 14.8625 14.4649 14.9851C14.1633 15.1077 13.802 15.169 13.3811 15.169ZM13.7043 13.9759C14.1152 13.9759 14.4666 13.8946 14.7582 13.7322C15.0532 13.5698 15.2769 13.3577 15.4294 13.0959C15.5852 12.8307 15.6631 12.5473 15.6631 12.2457V11.2614C15.61 11.3144 15.5073 11.3641 15.3548 11.4105C15.2057 11.4536 15.035 11.4917 14.8428 11.5249C14.6505 11.5547 14.4633 11.5829 14.281 11.6094C14.0987 11.6326 13.9462 11.6525 13.8236 11.669C13.5352 11.7055 13.2717 11.7668 13.0331 11.853C12.7978 11.9392 12.6089 12.0634 12.4663 12.2259C12.3271 12.3849 12.2575 12.5971 12.2575 12.8622C12.2575 13.2301 12.3934 13.5085 12.6652 13.6974C12.937 13.883 13.2833 13.9759 13.7043 13.9759ZM22.7501 7.36364V8.55682H18.579V7.36364H22.7501ZM19.6976 5.53409H21.1841V12.7578C21.1841 13.0462 21.2272 13.2633 21.3133 13.4091C21.3995 13.5516 21.5106 13.6494 21.6464 13.7024C21.7857 13.7521 21.9365 13.777 22.0989 13.777C22.2182 13.777 22.3226 13.7687 22.4121 13.7521C22.5016 13.7356 22.5712 13.7223 22.6209 13.7124L22.8893 14.9403C22.8032 14.9735 22.6805 15.0066 22.5214 15.0398C22.3624 15.0762 22.1635 15.0961 21.9249 15.0994C21.5338 15.1061 21.1692 15.0365 20.8311 14.8906C20.493 14.7448 20.2196 14.5194 20.0108 14.2145C19.802 13.9096 19.6976 13.5268 19.6976 13.0661V5.53409ZM26.6728 15.169C26.1889 15.169 25.7514 15.0795 25.3603 14.9006C24.9692 14.7183 24.6593 14.4548 24.4306 14.1101C24.2052 13.7654 24.0925 13.3428 24.0925 12.8423C24.0925 12.4115 24.1754 12.0568 24.3411 11.7784C24.5068 11.5 24.7306 11.2796 25.0123 11.1172C25.294 10.9548 25.6089 10.8321 25.9569 10.7493C26.3049 10.6664 26.6595 10.6035 27.0208 10.5604C27.4782 10.5073 27.8494 10.4643 28.1344 10.4311C28.4195 10.3946 28.6266 10.3366 28.7559 10.2571C28.8852 10.1776 28.9498 10.0483 28.9498 9.86932V9.83452C28.9498 9.40033 28.8271 9.06392 28.5819 8.82528C28.3399 8.58665 27.9787 8.46733 27.4981 8.46733C26.9976 8.46733 26.6032 8.57836 26.3148 8.80043C26.0298 9.01918 25.8326 9.26278 25.7232 9.53125L24.3262 9.21307C24.4919 8.74905 24.7339 8.37453 25.0521 8.08949C25.3736 7.80114 25.7431 7.59233 26.1607 7.46307C26.5783 7.33049 27.0175 7.2642 27.4782 7.2642C27.7831 7.2642 28.1063 7.30066 28.4477 7.37358C28.7923 7.44318 29.1138 7.57244 29.4121 7.76136C29.7137 7.95028 29.9607 8.22041 30.1529 8.57173C30.3451 8.91974 30.4413 9.37216 30.4413 9.92898V15H28.9896V13.956H28.9299C28.8338 14.1482 28.6896 14.3371 28.4974 14.5227C28.3051 14.7083 28.0582 14.8625 27.7566 14.9851C27.455 15.1077 27.0937 15.169 26.6728 15.169ZM26.9959 13.9759C27.4069 13.9759 27.7583 13.8946 28.0499 13.7322C28.3449 13.5698 28.5686 13.3577 28.7211 13.0959C28.8769 12.8307 28.9548 12.5473 28.9548 12.2457V11.2614C28.9017 11.3144 28.799 11.3641 28.6465 11.4105C28.4974 11.4536 28.3267 11.4917 28.1344 11.5249C27.9422 11.5547 27.7549 11.5829 27.5727 11.6094C27.3904 11.6326 27.2379 11.6525 27.1153 11.669C26.8269 11.7055 26.5634 11.7668 26.3248 11.853C26.0895 11.9392 25.9005 12.0634 25.758 12.2259C25.6188 12.3849 25.5492 12.5971 25.5492 12.8622C25.5492 13.2301 25.6851 13.5085 25.9569 13.6974C26.2287 13.883 26.575 13.9759 26.9959 13.9759ZM41.0756 11.8331V7.36364H42.5671V15H41.1055V13.6776H41.0259C40.8503 14.0852 40.5685 14.425 40.1807 14.6967C39.7963 14.9652 39.3173 15.0994 38.744 15.0994C38.2534 15.0994 37.8192 14.9917 37.4414 14.7763C37.0669 14.5575 36.7719 14.2344 36.5565 13.8068C36.3443 13.3793 36.2383 12.8506 36.2383 12.2209V7.36364H37.7248V12.0419C37.7248 12.5623 37.869 12.9766 38.1573 13.2848C38.4457 13.593 38.8202 13.7472 39.2809 13.7472C39.5593 13.7472 39.836 13.6776 40.1111 13.5384C40.3896 13.3991 40.6199 13.1887 40.8022 12.907C40.9878 12.6252 41.0789 12.2673 41.0756 11.8331ZM50.3427 9.22798L48.9954 9.46662C48.9391 9.29427 48.8496 9.13021 48.727 8.97443C48.6077 8.81865 48.4453 8.69105 48.2398 8.59162C48.0343 8.49219 47.7774 8.44247 47.4692 8.44247C47.0482 8.44247 46.6969 8.53693 46.4152 8.72585C46.1335 8.91146 45.9926 9.15175 45.9926 9.44673C45.9926 9.70194 46.0871 9.90743 46.276 10.0632C46.4649 10.219 46.7698 10.3466 47.1908 10.446L48.4038 10.7244C49.1065 10.8868 49.6302 11.1371 49.9748 11.4751C50.3195 11.8132 50.4919 12.2524 50.4919 12.7926C50.4919 13.25 50.3593 13.6577 50.0942 14.0156C49.8323 14.3703 49.4661 14.6487 48.9954 14.8509C48.5281 15.053 47.9862 15.1541 47.3697 15.1541C46.5146 15.1541 45.8169 14.9718 45.2767 14.6072C44.7364 14.2393 44.405 13.7173 44.2824 13.0412L45.7192 12.8224C45.8087 13.197 45.9926 13.4804 46.271 13.6726C46.5494 13.8615 46.9123 13.956 47.3598 13.956C47.847 13.956 48.2364 13.8549 48.5281 13.6527C48.8198 13.4472 48.9656 13.197 48.9656 12.902C48.9656 12.6634 48.8761 12.4628 48.6971 12.3004C48.5215 12.138 48.2514 12.0154 47.8868 11.9325L46.5942 11.6491C45.8816 11.4867 45.3546 11.2282 45.0132 10.8736C44.6751 10.5189 44.5061 10.0698 44.5061 9.52628C44.5061 9.07552 44.632 8.68111 44.8839 8.34304C45.1358 8.00497 45.4838 7.74148 45.928 7.55256C46.3721 7.36032 46.8809 7.2642 47.4543 7.2642C48.2795 7.2642 48.9292 7.44318 49.4031 7.80114C49.8771 8.15578 50.1903 8.63139 50.3427 9.22798ZM54.4046 15.169C53.9207 15.169 53.4832 15.0795 53.0921 14.9006C52.701 14.7183 52.3911 14.4548 52.1624 14.1101C51.937 13.7654 51.8243 13.3428 51.8243 12.8423C51.8243 12.4115 51.9072 12.0568 52.0729 11.7784C52.2386 11.5 52.4624 11.2796 52.7441 11.1172C53.0258 10.9548 53.3407 10.8321 53.6887 10.7493C54.0367 10.6664 54.3913 10.6035 54.7526 10.5604C55.21 10.5073 55.5812 10.4643 55.8663 10.4311C56.1513 10.3946 56.3584 10.3366 56.4877 10.2571C56.617 10.1776 56.6816 10.0483 56.6816 9.86932V9.83452C56.6816 9.40033 56.559 9.06392 56.3137 8.82528C56.0717 8.58665 55.7105 8.46733 55.2299 8.46733C54.7294 8.46733 54.335 8.57836 54.0467 8.80043C53.7616 9.01918 53.5644 9.26278 53.455 9.53125L52.058 9.21307C52.2237 8.74905 52.4657 8.37453 52.7839 8.08949C53.1054 7.80114 53.4749 7.59233 53.8925 7.46307C54.3101 7.33049 54.7493 7.2642 55.21 7.2642C55.5149 7.2642 55.8381 7.30066 56.1795 7.37358C56.5242 7.44318 56.8457 7.57244 57.144 7.76136C57.4456 7.95028 57.6925 8.22041 57.8847 8.57173C58.077 8.91974 58.1731 9.37216 58.1731 9.92898V15H56.7214V13.956H56.6617C56.5656 14.1482 56.4214 14.3371 56.2292 14.5227C56.0369 14.7083 55.79 14.8625 55.4884 14.9851C55.1868 15.1077 54.8255 15.169 54.4046 15.169ZM54.7278 13.9759C55.1387 13.9759 55.4901 13.8946 55.7817 13.7322C56.0767 13.5698 56.3004 13.3577 56.4529 13.0959C56.6087 12.8307 56.6866 12.5473 56.6866 12.2457V11.2614C56.6335 11.3144 56.5308 11.3641 56.3783 11.4105C56.2292 11.4536 56.0585 11.4917 55.8663 11.5249C55.674 11.5547 55.4868 11.5829 55.3045 11.6094C55.1222 11.6326 54.9697 11.6525 54.8471 11.669C54.5587 11.7055 54.2952 11.7668 54.0566 11.853C53.8213 11.9392 53.6324 12.0634 53.4898 12.2259C53.3506 12.3849 53.281 12.5971 53.281 12.8622C53.281 13.2301 53.4169 13.5085 53.6887 13.6974C53.9605 13.883 54.3068 13.9759 54.7278 13.9759ZM63.4107 18.0227C62.8042 18.0227 62.2822 17.9432 61.8447 17.7841C61.4105 17.625 61.0558 17.4145 60.7807 17.1527C60.5056 16.8909 60.3002 16.6042 60.1643 16.2926L61.442 15.7656C61.5315 15.9115 61.6508 16.0656 61.7999 16.228C61.9524 16.3937 62.1579 16.5346 62.4164 16.6506C62.6782 16.7666 63.0146 16.8246 63.4256 16.8246C63.9891 16.8246 64.4547 16.687 64.8226 16.4119C65.1905 16.1402 65.3745 15.706 65.3745 15.1094V13.608H65.28C65.1905 13.7704 65.0613 13.951 64.8922 14.1499C64.7265 14.3487 64.4978 14.5211 64.2062 14.6669C63.9145 14.8127 63.535 14.8857 63.0677 14.8857C62.4645 14.8857 61.9209 14.7448 61.437 14.4631C60.9564 14.178 60.5753 13.7588 60.2935 13.2053C60.0151 12.6484 59.8759 11.964 59.8759 11.152C59.8759 10.34 60.0135 9.64394 60.2886 9.06392C60.567 8.4839 60.9481 8.03977 61.432 7.73153C61.9159 7.41998 62.4645 7.2642 63.0776 7.2642C63.5516 7.2642 63.9344 7.34375 64.2261 7.50284C64.5177 7.65862 64.7448 7.84091 64.9072 8.04972C65.0729 8.25852 65.2005 8.44247 65.29 8.60156H65.3994V7.36364H66.856V15.169C66.856 15.8253 66.7036 16.3639 66.3986 16.7848C66.0937 17.2057 65.6811 17.5173 65.1607 17.7195C64.6437 17.9216 64.0603 18.0227 63.4107 18.0227ZM63.3958 13.6527C63.8234 13.6527 64.1846 13.5533 64.4796 13.3544C64.7779 13.1522 65.0033 12.8639 65.1557 12.4893C65.3115 12.1115 65.3894 11.6591 65.3894 11.1321C65.3894 10.6184 65.3132 10.166 65.1607 9.77486C65.0083 9.38376 64.7845 9.07884 64.4896 8.86009C64.1946 8.63802 63.83 8.52699 63.3958 8.52699C62.9484 8.52699 62.5755 8.64299 62.2772 8.875C61.9789 9.10369 61.7535 9.41525 61.6011 9.80966C61.4519 10.2041 61.3773 10.6449 61.3773 11.1321C61.3773 11.6326 61.4536 12.0717 61.606 12.4496C61.7585 12.8274 61.9839 13.1224 62.2822 13.3345C62.5838 13.5466 62.955 13.6527 63.3958 13.6527ZM72.1968 15.1541C71.4445 15.1541 70.7965 14.9934 70.2529 14.6719C69.7127 14.3471 69.2951 13.8913 69.0001 13.3047C68.7084 12.7147 68.5626 12.0237 68.5626 11.2315C68.5626 10.4493 68.7084 9.75994 69.0001 9.16335C69.2951 8.56676 69.7061 8.10109 70.233 7.76633C70.7633 7.43158 71.3831 7.2642 72.0924 7.2642C72.5233 7.2642 72.9409 7.33546 73.3453 7.47798C73.7496 7.6205 74.1125 7.84422 74.434 8.14915C74.7555 8.45407 75.0091 8.85014 75.1947 9.33736C75.3803 9.82126 75.4731 10.4096 75.4731 11.1023V11.6293H69.4028V10.5156H74.0164C74.0164 10.1245 73.9369 9.77817 73.7778 9.47656C73.6187 9.17164 73.395 8.93134 73.1066 8.75568C72.8216 8.58002 72.4868 8.49219 72.1024 8.49219C71.6848 8.49219 71.3202 8.59493 71.0086 8.80043C70.7004 9.0026 70.4617 9.26776 70.2927 9.59588C70.127 9.92069 70.0441 10.2737 70.0441 10.6548V11.5249C70.0441 12.0353 70.1336 12.4695 70.3126 12.8274C70.4949 13.1854 70.7484 13.4588 71.0732 13.6477C71.3981 13.8333 71.7776 13.9261 72.2117 13.9261C72.4935 13.9261 72.7503 13.8864 72.9823 13.8068C73.2143 13.724 73.4149 13.6013 73.5839 13.4389C73.7529 13.2765 73.8822 13.076 73.9717 12.8374L75.3786 13.0909C75.266 13.5052 75.0638 13.8681 74.7721 14.1797C74.4838 14.4879 74.1208 14.7282 73.6833 14.9006C73.2491 15.0696 72.7536 15.1541 72.1968 15.1541Z" fill="#9AA8BE"/>
<rect y="37" width="332" height="6" rx="3" fill="#D7DCE5"/>
<rect y="37" width="184" height="6" rx="3" fill="#5072EB"/>
<g filter="url(#filter0_d_219_12200)">
<circle cx="187.998" cy="40" r="4" fill="white"/>
<circle cx="187.998" cy="40" r="7" stroke="#5072EB" stroke-width="6"/>
</g>
<path d="M0.839489 74V73.0455L3.79261 69.9858C4.10795 69.6534 4.3679 69.3622 4.57244 69.1122C4.77983 68.8594 4.93466 68.6193 5.03693 68.392C5.1392 68.1648 5.19034 67.9233 5.19034 67.6676C5.19034 67.3778 5.12216 67.1278 4.9858 66.9176C4.84943 66.7045 4.66335 66.5412 4.42756 66.4276C4.19176 66.3111 3.92614 66.2528 3.63068 66.2528C3.31818 66.2528 3.04545 66.3168 2.8125 66.4446C2.57955 66.5724 2.40057 66.7528 2.27557 66.9858C2.15057 67.2187 2.08807 67.4915 2.08807 67.804H0.830966C0.830966 67.2727 0.953125 66.8082 1.19744 66.4105C1.44176 66.0128 1.77699 65.7045 2.20312 65.4858C2.62926 65.2642 3.11364 65.1534 3.65625 65.1534C4.20455 65.1534 4.6875 65.2628 5.10511 65.4815C5.52557 65.6974 5.85369 65.9929 6.08949 66.3679C6.32528 66.7401 6.44318 67.1605 6.44318 67.6293C6.44318 67.9531 6.3821 68.2699 6.25994 68.5795C6.14063 68.8892 5.93182 69.2344 5.63352 69.6151C5.33523 69.9929 4.92045 70.4517 4.3892 70.9915L2.65483 72.8068V72.8707H6.58381V74H0.839489ZM11.2852 74.1449C10.6119 74.142 10.0366 73.9645 9.55936 73.6122C9.08209 73.2599 8.71703 72.7472 8.46419 72.0739C8.21135 71.4006 8.08493 70.5895 8.08493 69.6406C8.08493 68.6946 8.21135 67.8864 8.46419 67.2159C8.71987 66.5455 9.08635 66.0341 9.56362 65.6818C10.0437 65.3295 10.6176 65.1534 11.2852 65.1534C11.9528 65.1534 12.5253 65.331 13.0025 65.6861C13.4798 66.0384 13.8449 66.5497 14.0977 67.2202C14.3534 67.8878 14.4812 68.6946 14.4812 69.6406C14.4812 70.5923 14.3548 71.4048 14.102 72.0781C13.8491 72.7486 13.4841 73.2614 13.0068 73.6165C12.5295 73.9688 11.9557 74.1449 11.2852 74.1449ZM11.2852 73.0071C11.8761 73.0071 12.3378 72.7188 12.6702 72.142C13.0054 71.5653 13.173 70.7315 13.173 69.6406C13.173 68.9162 13.0963 68.304 12.9429 67.804C12.7923 67.3011 12.575 66.9205 12.2909 66.6619C12.0096 66.4006 11.6744 66.2699 11.2852 66.2699C10.6971 66.2699 10.2355 66.5597 9.90027 67.1392C9.56505 67.7187 9.39601 68.5526 9.39317 69.6406C9.39317 70.3679 9.46845 70.983 9.61902 71.4858C9.77243 71.9858 9.98976 72.3651 10.271 72.6236C10.5523 72.8793 10.8903 73.0071 11.2852 73.0071ZM22.0665 68.0298C21.9841 67.7713 21.8733 67.5398 21.7341 67.3352C21.5978 67.1278 21.4344 66.9517 21.2441 66.8068C21.0537 66.6591 20.8364 66.5469 20.5921 66.4702C20.3506 66.3935 20.085 66.3551 19.7952 66.3551C19.3037 66.3551 18.8606 66.4815 18.4657 66.7344C18.0708 66.9872 17.7583 67.358 17.5282 67.8466C17.3009 68.3324 17.1873 68.9276 17.1873 69.6321C17.1873 70.3395 17.3023 70.9375 17.5324 71.4261C17.7625 71.9148 18.0779 72.2855 18.4785 72.5384C18.879 72.7912 19.335 72.9176 19.8464 72.9176C20.3208 72.9176 20.7341 72.821 21.0864 72.6278C21.4415 72.4347 21.7157 72.1619 21.9089 71.8097C22.1049 71.4545 22.2029 71.0369 22.2029 70.5568L22.5438 70.6207H20.0466V69.5341H23.477V70.527C23.477 71.2599 23.3208 71.8963 23.0083 72.4361C22.6986 72.973 22.2697 73.3878 21.7214 73.6804C21.1759 73.973 20.5509 74.1193 19.8464 74.1193C19.0566 74.1193 18.3634 73.9375 17.7668 73.5739C17.1731 73.2102 16.71 72.6946 16.3776 72.027C16.0452 71.3565 15.879 70.5611 15.879 69.6406C15.879 68.9446 15.9756 68.3196 16.1688 67.7656C16.362 67.2116 16.6333 66.7415 16.9827 66.3551C17.335 65.9659 17.7483 65.669 18.2228 65.4645C18.7 65.2571 19.2214 65.1534 19.7867 65.1534C20.2583 65.1534 20.6972 65.223 21.1035 65.3622C21.5125 65.5014 21.8762 65.6989 22.1944 65.9545C22.5154 66.2102 22.781 66.5142 22.9912 66.8665C23.2015 67.2159 23.3435 67.6037 23.4174 68.0298H22.0665ZM25.1966 74V65.2727H28.3926C29.0119 65.2727 29.5247 65.375 29.9309 65.5795C30.3372 65.7812 30.6412 66.0554 30.8429 66.402C31.0446 66.7457 31.1454 67.1335 31.1454 67.5653C31.1454 67.929 31.0787 68.2358 30.9451 68.4858C30.8116 68.733 30.6326 68.9318 30.4082 69.0824C30.1866 69.2301 29.9423 69.3381 29.6752 69.4062V69.4915C29.965 69.5057 30.2477 69.5994 30.5233 69.7727C30.8017 69.9432 31.0318 70.1861 31.2136 70.5014C31.3954 70.8168 31.4863 71.2003 31.4863 71.652C31.4863 72.098 31.3812 72.4986 31.171 72.8537C30.9636 73.206 30.6426 73.4858 30.2079 73.6932C29.7733 73.8977 29.2179 74 28.5417 74H25.1966ZM26.5133 72.8707H28.4139C29.0446 72.8707 29.4963 72.7486 29.769 72.5043C30.0417 72.2599 30.1781 71.9545 30.1781 71.5881C30.1781 71.3125 30.1085 71.0597 29.9693 70.8295C29.8301 70.5994 29.6312 70.4162 29.3727 70.2798C29.117 70.1435 28.813 70.0753 28.4608 70.0753H26.5133V72.8707ZM26.5133 69.0483H28.2775C28.573 69.0483 28.8386 68.9915 29.0744 68.8778C29.313 68.7642 29.502 68.6051 29.6412 68.4006C29.7832 68.1932 29.8542 67.9489 29.8542 67.6676C29.8542 67.3068 29.7278 67.0043 29.475 66.7599C29.2221 66.5156 28.8343 66.3935 28.3116 66.3935H26.5133V69.0483Z" fill="#9AA8BE"/>
<path d="M41.7202 74.1193C41.1861 74.1193 40.706 74.017 40.2798 73.8125C39.8565 73.6051 39.5185 73.321 39.2656 72.9602C39.0128 72.5994 38.8778 72.1875 38.8608 71.7244H40.1392C40.1705 72.0994 40.3366 72.4077 40.6378 72.6491C40.9389 72.8906 41.2997 73.0114 41.7202 73.0114C42.0554 73.0114 42.3523 72.9347 42.6108 72.7812C42.8722 72.625 43.0767 72.4105 43.2244 72.1378C43.375 71.8651 43.4503 71.554 43.4503 71.2045C43.4503 70.8494 43.3736 70.5327 43.2202 70.2543C43.0668 69.9759 42.8551 69.7571 42.5852 69.598C42.3182 69.4389 42.0114 69.358 41.6648 69.3551C41.4006 69.3551 41.1349 69.4006 40.8679 69.4915C40.6009 69.5824 40.3849 69.7017 40.2202 69.8494L39.0142 69.6705L39.5043 65.2727H44.3026V66.402H40.5994L40.3224 68.8438H40.3736C40.544 68.679 40.7699 68.5412 41.0511 68.4304C41.3352 68.3196 41.6392 68.2642 41.9631 68.2642C42.4943 68.2642 42.9673 68.3906 43.3821 68.6435C43.7997 68.8963 44.1278 69.2415 44.3665 69.679C44.608 70.1136 44.7273 70.6136 44.7244 71.179C44.7273 71.7443 44.5994 72.2486 44.3409 72.6918C44.0852 73.1349 43.7301 73.4844 43.2756 73.7401C42.8239 73.9929 42.3054 74.1193 41.7202 74.1193ZM49.3672 74.1449C48.694 74.142 48.1187 73.9645 47.6414 73.6122C47.1641 73.2599 46.7991 72.7472 46.5462 72.0739C46.2934 71.4006 46.167 70.5895 46.167 69.6406C46.167 68.6946 46.2934 67.8864 46.5462 67.2159C46.8019 66.5455 47.1684 66.0341 47.6457 65.6818C48.1258 65.3295 48.6996 65.1534 49.3672 65.1534C50.0349 65.1534 50.6073 65.331 51.0846 65.6861C51.5618 66.0384 51.9269 66.5497 52.1797 67.2202C52.4354 67.8878 52.5633 68.6946 52.5633 69.6406C52.5633 70.5923 52.4368 71.4048 52.184 72.0781C51.9312 72.7486 51.5661 73.2614 51.0888 73.6165C50.6116 73.9688 50.0377 74.1449 49.3672 74.1449ZM49.3672 73.0071C49.9582 73.0071 50.4198 72.7188 50.7522 72.142C51.0874 71.5653 51.255 70.7315 51.255 69.6406C51.255 68.9162 51.1783 68.304 51.0249 67.804C50.8743 67.3011 50.657 66.9205 50.3729 66.6619C50.0917 66.4006 49.7565 66.2699 49.3672 66.2699C48.7792 66.2699 48.3175 66.5597 47.9823 67.1392C47.6471 67.7187 47.478 68.5526 47.4752 69.6406C47.4752 70.3679 47.5505 70.983 47.7011 71.4858C47.8545 71.9858 48.0718 72.3651 48.353 72.6236C48.6343 72.8793 48.9724 73.0071 49.3672 73.0071ZM60.1486 68.0298C60.0662 67.7713 59.9554 67.5398 59.8162 67.3352C59.6798 67.1278 59.5165 66.9517 59.3261 66.8068C59.1358 66.6591 58.9184 66.5469 58.6741 66.4702C58.4326 66.3935 58.167 66.3551 57.8772 66.3551C57.3858 66.3551 56.9426 66.4815 56.5477 66.7344C56.1528 66.9872 55.8403 67.358 55.6102 67.8466C55.3829 68.3324 55.2693 68.9276 55.2693 69.6321C55.2693 70.3395 55.3844 70.9375 55.6145 71.4261C55.8446 71.9148 56.1599 72.2855 56.5605 72.5384C56.9611 72.7912 57.417 72.9176 57.9284 72.9176C58.4028 72.9176 58.8162 72.821 59.1684 72.6278C59.5236 72.4347 59.7977 72.1619 59.9909 71.8097C60.1869 71.4545 60.2849 71.0369 60.2849 70.5568L60.6258 70.6207H58.1287V69.5341H61.5591V70.527C61.5591 71.2599 61.4028 71.8963 61.0903 72.4361C60.7807 72.973 60.3517 73.3878 59.8034 73.6804C59.2579 73.973 58.6329 74.1193 57.9284 74.1193C57.1386 74.1193 56.4454 73.9375 55.8488 73.5739C55.2551 73.2102 54.792 72.6946 54.4596 72.027C54.1272 71.3565 53.9611 70.5611 53.9611 69.6406C53.9611 68.9446 54.0576 68.3196 54.2508 67.7656C54.444 67.2116 54.7153 66.7415 55.0647 66.3551C55.417 65.9659 55.8304 65.669 56.3048 65.4645C56.7821 65.2571 57.3034 65.1534 57.8687 65.1534C58.3403 65.1534 58.7792 65.223 59.1855 65.3622C59.5946 65.5014 59.9582 65.6989 60.2764 65.9545C60.5974 66.2102 60.863 66.5142 61.0733 66.8665C61.2835 67.2159 61.4255 67.6037 61.4994 68.0298H60.1486ZM63.2786 74V65.2727H66.4746C67.0939 65.2727 67.6067 65.375 68.013 65.5795C68.4192 65.7812 68.7232 66.0554 68.9249 66.402C69.1266 66.7457 69.2275 67.1335 69.2275 67.5653C69.2275 67.929 69.1607 68.2358 69.0272 68.4858C68.8936 68.733 68.7147 68.9318 68.4902 69.0824C68.2686 69.2301 68.0243 69.3381 67.7573 69.4062V69.4915C68.0471 69.5057 68.3297 69.5994 68.6053 69.7727C68.8837 69.9432 69.1138 70.1861 69.2956 70.5014C69.4775 70.8168 69.5684 71.2003 69.5684 71.652C69.5684 72.098 69.4632 72.4986 69.253 72.8537C69.0456 73.206 68.7246 73.4858 68.29 73.6932C67.8553 73.8977 67.2999 74 66.6238 74H63.2786ZM64.5953 72.8707H66.4959C67.1266 72.8707 67.5783 72.7486 67.851 72.5043C68.1238 72.2599 68.2601 71.9545 68.2601 71.5881C68.2601 71.3125 68.1905 71.0597 68.0513 70.8295C67.9121 70.5994 67.7132 70.4162 67.4547 70.2798C67.199 70.1435 66.8951 70.0753 66.5428 70.0753H64.5953V72.8707ZM64.5953 69.0483H66.3596C66.655 69.0483 66.9206 68.9915 67.1564 68.8778C67.3951 68.7642 67.584 68.6051 67.7232 68.4006C67.8652 68.1932 67.9363 67.9489 67.9363 67.6676C67.9363 67.3068 67.8098 67.0043 67.557 66.7599C67.3042 66.5156 66.9164 66.3935 66.3936 66.3935H64.5953V69.0483Z" fill="#9AA8BE"/>
<path d="M93.1506 65.2727V74H91.8295V66.5938H91.7784L89.6903 67.9574V66.696L91.8679 65.2727H93.1506ZM98.5977 74.1449C97.9244 74.142 97.3491 73.9645 96.8719 73.6122C96.3946 73.2599 96.0295 72.7472 95.7767 72.0739C95.5239 71.4006 95.3974 70.5895 95.3974 69.6406C95.3974 68.6946 95.5239 67.8864 95.7767 67.2159C96.0324 66.5455 96.3989 66.0341 96.8761 65.6818C97.3562 65.3295 97.9301 65.1534 98.5977 65.1534C99.2653 65.1534 99.8378 65.331 100.315 65.6861C100.792 66.0384 101.157 66.5497 101.41 67.2202C101.666 67.8878 101.794 68.6946 101.794 69.6406C101.794 70.5923 101.667 71.4048 101.414 72.0781C101.162 72.7486 100.797 73.2614 100.319 73.6165C99.842 73.9688 99.2682 74.1449 98.5977 74.1449ZM98.5977 73.0071C99.1886 73.0071 99.6503 72.7188 99.9827 72.142C100.318 71.5653 100.485 70.7315 100.485 69.6406C100.485 68.9162 100.409 68.304 100.255 67.804C100.105 67.3011 99.8875 66.9205 99.6034 66.6619C99.3221 66.4006 98.9869 66.2699 98.5977 66.2699C98.0096 66.2699 97.548 66.5597 97.2128 67.1392C96.8775 67.7187 96.7085 68.5526 96.7057 69.6406C96.7057 70.3679 96.781 70.983 96.9315 71.4858C97.0849 71.9858 97.3023 72.3651 97.5835 72.6236C97.8648 72.8793 98.2028 73.0071 98.5977 73.0071ZM106.392 74.1449C105.719 74.142 105.143 73.9645 104.666 73.6122C104.189 73.2599 103.824 72.7472 103.571 72.0739C103.318 71.4006 103.192 70.5895 103.192 69.6406C103.192 68.6946 103.318 67.8864 103.571 67.2159C103.826 66.5455 104.193 66.0341 104.67 65.6818C105.15 65.3295 105.724 65.1534 106.392 65.1534C107.059 65.1534 107.632 65.331 108.109 65.6861C108.586 66.0384 108.951 66.5497 109.204 67.2202C109.46 67.8878 109.588 68.6946 109.588 69.6406C109.588 70.5923 109.461 71.4048 109.209 72.0781C108.956 72.7486 108.591 73.2614 108.113 73.6165C107.636 73.9688 107.062 74.1449 106.392 74.1449ZM106.392 73.0071C106.983 73.0071 107.444 72.7188 107.777 72.142C108.112 71.5653 108.28 70.7315 108.28 69.6406C108.28 68.9162 108.203 68.304 108.049 67.804C107.899 67.3011 107.682 66.9205 107.397 66.6619C107.116 66.4006 106.781 66.2699 106.392 66.2699C105.804 66.2699 105.342 66.5597 105.007 67.1392C104.672 67.7187 104.503 68.5526 104.5 69.6406C104.5 70.3679 104.575 70.983 104.726 71.4858C104.879 71.9858 105.096 72.3651 105.378 72.6236C105.659 72.8793 105.997 73.0071 106.392 73.0071ZM117.173 68.0298C117.091 67.7713 116.98 67.5398 116.841 67.3352C116.704 67.1278 116.541 66.9517 116.351 66.8068C116.16 66.6591 115.943 66.5469 115.699 66.4702C115.457 66.3935 115.192 66.3551 114.902 66.3551C114.41 66.3551 113.967 66.4815 113.572 66.7344C113.177 66.9872 112.865 67.358 112.635 67.8466C112.407 68.3324 112.294 68.9276 112.294 69.6321C112.294 70.3395 112.409 70.9375 112.639 71.4261C112.869 71.9148 113.184 72.2855 113.585 72.5384C113.986 72.7912 114.442 72.9176 114.953 72.9176C115.427 72.9176 115.841 72.821 116.193 72.6278C116.548 72.4347 116.822 72.1619 117.015 71.8097C117.211 71.4545 117.309 71.0369 117.309 70.5568L117.65 70.6207H115.153V69.5341H118.584V70.527C118.584 71.2599 118.427 71.8963 118.115 72.4361C117.805 72.973 117.376 73.3878 116.828 73.6804C116.282 73.973 115.657 74.1193 114.953 74.1193C114.163 74.1193 113.47 73.9375 112.873 73.5739C112.28 73.2102 111.817 72.6946 111.484 72.027C111.152 71.3565 110.986 70.5611 110.986 69.6406C110.986 68.9446 111.082 68.3196 111.275 67.7656C111.469 67.2116 111.74 66.7415 112.089 66.3551C112.442 65.9659 112.855 65.669 113.329 65.4645C113.807 65.2571 114.328 65.1534 114.893 65.1534C115.365 65.1534 115.804 65.223 116.21 65.3622C116.619 65.5014 116.983 65.6989 117.301 65.9545C117.622 66.2102 117.888 66.5142 118.098 66.8665C118.308 67.2159 118.45 67.6037 118.524 68.0298H117.173ZM120.303 74V65.2727H123.499C124.118 65.2727 124.631 65.375 125.038 65.5795C125.444 65.7812 125.748 66.0554 125.949 66.402C126.151 66.7457 126.252 67.1335 126.252 67.5653C126.252 67.929 126.185 68.2358 126.052 68.4858C125.918 68.733 125.739 68.9318 125.515 69.0824C125.293 69.2301 125.049 69.3381 124.782 69.4062V69.4915C125.072 69.5057 125.354 69.5994 125.63 69.7727C125.908 69.9432 126.138 70.1861 126.32 70.5014C126.502 70.8168 126.593 71.2003 126.593 71.652C126.593 72.098 126.488 72.4986 126.278 72.8537C126.07 73.206 125.749 73.4858 125.315 73.6932C124.88 73.8977 124.324 74 123.648 74H120.303ZM121.62 72.8707H123.52C124.151 72.8707 124.603 72.7486 124.876 72.5043C125.148 72.2599 125.285 71.9545 125.285 71.5881C125.285 71.3125 125.215 71.0597 125.076 70.8295C124.937 70.5994 124.738 70.4162 124.479 70.2798C124.224 70.1435 123.92 70.0753 123.567 70.0753H121.62V72.8707ZM121.62 69.0483H123.384C123.68 69.0483 123.945 68.9915 124.181 68.8778C124.42 68.7642 124.609 68.6051 124.748 68.4006C124.89 68.1932 124.961 67.9489 124.961 67.6676C124.961 67.3068 124.834 67.0043 124.582 66.7599C124.329 66.5156 123.941 66.3935 123.418 66.3935H121.62V69.0483Z" fill="#9AA8BE"/>
<path d="M171.72 74.1193C171.186 74.1193 170.706 74.017 170.28 73.8125C169.857 73.6051 169.518 73.321 169.266 72.9602C169.013 72.5994 168.878 72.1875 168.861 71.7244H170.139C170.17 72.0994 170.337 72.4077 170.638 72.6491C170.939 72.8906 171.3 73.0114 171.72 73.0114C172.055 73.0114 172.352 72.9347 172.611 72.7812C172.872 72.625 173.077 72.4105 173.224 72.1378C173.375 71.8651 173.45 71.554 173.45 71.2045C173.45 70.8494 173.374 70.5327 173.22 70.2543C173.067 69.9759 172.855 69.7571 172.585 69.598C172.318 69.4389 172.011 69.358 171.665 69.3551C171.401 69.3551 171.135 69.4006 170.868 69.4915C170.601 69.5824 170.385 69.7017 170.22 69.8494L169.014 69.6705L169.504 65.2727H174.303V66.402H170.599L170.322 68.8438H170.374C170.544 68.679 170.77 68.5412 171.051 68.4304C171.335 68.3196 171.639 68.2642 171.963 68.2642C172.494 68.2642 172.967 68.3906 173.382 68.6435C173.8 68.8963 174.128 69.2415 174.366 69.679C174.608 70.1136 174.727 70.6136 174.724 71.179C174.727 71.7443 174.599 72.2486 174.341 72.6918C174.085 73.1349 173.73 73.4844 173.276 73.7401C172.824 73.9929 172.305 74.1193 171.72 74.1193ZM179.367 74.1449C178.694 74.142 178.119 73.9645 177.641 73.6122C177.164 73.2599 176.799 72.7472 176.546 72.0739C176.293 71.4006 176.167 70.5895 176.167 69.6406C176.167 68.6946 176.293 67.8864 176.546 67.2159C176.802 66.5455 177.168 66.0341 177.646 65.6818C178.126 65.3295 178.7 65.1534 179.367 65.1534C180.035 65.1534 180.607 65.331 181.085 65.6861C181.562 66.0384 181.927 66.5497 182.18 67.2202C182.435 67.8878 182.563 68.6946 182.563 69.6406C182.563 70.5923 182.437 71.4048 182.184 72.0781C181.931 72.7486 181.566 73.2614 181.089 73.6165C180.612 73.9688 180.038 74.1449 179.367 74.1449ZM179.367 73.0071C179.958 73.0071 180.42 72.7188 180.752 72.142C181.087 71.5653 181.255 70.7315 181.255 69.6406C181.255 68.9162 181.178 68.304 181.025 67.804C180.874 67.3011 180.657 66.9205 180.373 66.6619C180.092 66.4006 179.756 66.2699 179.367 66.2699C178.779 66.2699 178.318 66.5597 177.982 67.1392C177.647 67.7187 177.478 68.5526 177.475 69.6406C177.475 70.3679 177.55 70.983 177.701 71.4858C177.854 71.9858 178.072 72.3651 178.353 72.6236C178.634 72.8793 178.972 73.0071 179.367 73.0071ZM187.161 74.1449C186.488 74.142 185.913 73.9645 185.435 73.6122C184.958 73.2599 184.593 72.7472 184.34 72.0739C184.087 71.4006 183.961 70.5895 183.961 69.6406C183.961 68.6946 184.087 67.8864 184.34 67.2159C184.596 66.5455 184.962 66.0341 185.44 65.6818C185.92 65.3295 186.494 65.1534 187.161 65.1534C187.829 65.1534 188.401 65.331 188.879 65.6861C189.356 66.0384 189.721 66.5497 189.974 67.2202C190.23 67.8878 190.357 68.6946 190.357 69.6406C190.357 70.5923 190.231 71.4048 189.978 72.0781C189.725 72.7486 189.36 73.2614 188.883 73.6165C188.406 73.9688 187.832 74.1449 187.161 74.1449ZM187.161 73.0071C187.752 73.0071 188.214 72.7188 188.546 72.142C188.882 71.5653 189.049 70.7315 189.049 69.6406C189.049 68.9162 188.972 68.304 188.819 67.804C188.668 67.3011 188.451 66.9205 188.167 66.6619C187.886 66.4006 187.551 66.2699 187.161 66.2699C186.573 66.2699 186.112 66.5597 185.776 67.1392C185.441 67.7187 185.272 68.5526 185.269 69.6406C185.269 70.3679 185.345 70.983 185.495 71.4858C185.649 71.9858 185.866 72.3651 186.147 72.6236C186.428 72.8793 186.766 73.0071 187.161 73.0071ZM197.943 68.0298C197.86 67.7713 197.749 67.5398 197.61 67.3352C197.474 67.1278 197.311 66.9517 197.12 66.8068C196.93 66.6591 196.713 66.5469 196.468 66.4702C196.227 66.3935 195.961 66.3551 195.671 66.3551C195.18 66.3551 194.737 66.4815 194.342 66.7344C193.947 66.9872 193.634 67.358 193.404 67.8466C193.177 68.3324 193.063 68.9276 193.063 69.6321C193.063 70.3395 193.178 70.9375 193.409 71.4261C193.639 71.9148 193.954 72.2855 194.355 72.5384C194.755 72.7912 195.211 72.9176 195.722 72.9176C196.197 72.9176 196.61 72.821 196.963 72.6278C197.318 72.4347 197.592 72.1619 197.785 71.8097C197.981 71.4545 198.079 71.0369 198.079 70.5568L198.42 70.6207H195.923V69.5341H199.353V70.527C199.353 71.2599 199.197 71.8963 198.884 72.4361C198.575 72.973 198.146 73.3878 197.597 73.6804C197.052 73.973 196.427 74.1193 195.722 74.1193C194.933 74.1193 194.24 73.9375 193.643 73.5739C193.049 73.2102 192.586 72.6946 192.254 72.027C191.921 71.3565 191.755 70.5611 191.755 69.6406C191.755 68.9446 191.852 68.3196 192.045 67.7656C192.238 67.2116 192.509 66.7415 192.859 66.3551C193.211 65.9659 193.624 65.669 194.099 65.4645C194.576 65.2571 195.097 65.1534 195.663 65.1534C196.134 65.1534 196.573 65.223 196.98 65.3622C197.389 65.5014 197.752 65.6989 198.07 65.9545C198.392 66.2102 198.657 66.5142 198.867 66.8665C199.078 67.2159 199.22 67.6037 199.294 68.0298H197.943ZM201.073 74V65.2727H204.269C204.888 65.2727 205.401 65.375 205.807 65.5795C206.213 65.7812 206.517 66.0554 206.719 66.402C206.921 66.7457 207.022 67.1335 207.022 67.5653C207.022 67.929 206.955 68.2358 206.821 68.4858C206.688 68.733 206.509 68.9318 206.284 69.0824C206.063 69.2301 205.818 69.3381 205.551 69.4062V69.4915C205.841 69.5057 206.124 69.5994 206.399 69.7727C206.678 69.9432 206.908 70.1861 207.09 70.5014C207.272 70.8168 207.362 71.2003 207.362 71.652C207.362 72.098 207.257 72.4986 207.047 72.8537C206.84 73.206 206.519 73.4858 206.084 73.6932C205.649 73.8977 205.094 74 204.418 74H201.073ZM202.389 72.8707H204.29C204.921 72.8707 205.372 72.7486 205.645 72.5043C205.918 72.2599 206.054 71.9545 206.054 71.5881C206.054 71.3125 205.985 71.0597 205.845 70.8295C205.706 70.5994 205.507 70.4162 205.249 70.2798C204.993 70.1435 204.689 70.0753 204.337 70.0753H202.389V72.8707ZM202.389 69.0483H204.154C204.449 69.0483 204.715 68.9915 204.951 68.8778C205.189 68.7642 205.378 68.6051 205.517 68.4006C205.659 68.1932 205.73 67.9489 205.73 67.6676C205.73 67.3068 205.604 67.0043 205.351 66.7599C205.098 66.5156 204.71 66.3935 204.188 66.3935H202.389V69.0483Z" fill="#47506D"/>
<path d="M290.151 65.2727V74H288.83V66.5938H288.778L286.69 67.9574V66.696L288.868 65.2727H290.151ZM295.598 74.1449C294.924 74.142 294.349 73.9645 293.872 73.6122C293.395 73.2599 293.03 72.7472 292.777 72.0739C292.524 71.4006 292.397 70.5895 292.397 69.6406C292.397 68.6946 292.524 67.8864 292.777 67.2159C293.032 66.5455 293.399 66.0341 293.876 65.6818C294.356 65.3295 294.93 65.1534 295.598 65.1534C296.265 65.1534 296.838 65.331 297.315 65.6861C297.792 66.0384 298.157 66.5497 298.41 67.2202C298.666 67.8878 298.794 68.6946 298.794 69.6406C298.794 70.5923 298.667 71.4048 298.414 72.0781C298.162 72.7486 297.797 73.2614 297.319 73.6165C296.842 73.9688 296.268 74.1449 295.598 74.1449ZM295.598 73.0071C296.189 73.0071 296.65 72.7188 296.983 72.142C297.318 71.5653 297.485 70.7315 297.485 69.6406C297.485 68.9162 297.409 68.304 297.255 67.804C297.105 67.3011 296.887 66.9205 296.603 66.6619C296.322 66.4006 295.987 66.2699 295.598 66.2699C295.01 66.2699 294.548 66.5597 294.213 67.1392C293.878 67.7187 293.709 68.5526 293.706 69.6406C293.706 70.3679 293.781 70.983 293.932 71.4858C294.085 71.9858 294.302 72.3651 294.584 72.6236C294.865 72.8793 295.203 73.0071 295.598 73.0071ZM303.392 74.1449C302.719 74.142 302.143 73.9645 301.666 73.6122C301.189 73.2599 300.824 72.7472 300.571 72.0739C300.318 71.4006 300.192 70.5895 300.192 69.6406C300.192 68.6946 300.318 67.8864 300.571 67.2159C300.826 66.5455 301.193 66.0341 301.67 65.6818C302.15 65.3295 302.724 65.1534 303.392 65.1534C304.059 65.1534 304.632 65.331 305.109 65.6861C305.586 66.0384 305.951 66.5497 306.204 67.2202C306.46 67.8878 306.588 68.6946 306.588 69.6406C306.588 70.5923 306.461 71.4048 306.209 72.0781C305.956 72.7486 305.591 73.2614 305.113 73.6165C304.636 73.9688 304.062 74.1449 303.392 74.1449ZM303.392 73.0071C303.983 73.0071 304.444 72.7188 304.777 72.142C305.112 71.5653 305.28 70.7315 305.28 69.6406C305.28 68.9162 305.203 68.304 305.049 67.804C304.899 67.3011 304.682 66.9205 304.397 66.6619C304.116 66.4006 303.781 66.2699 303.392 66.2699C302.804 66.2699 302.342 66.5597 302.007 67.1392C301.672 67.7187 301.503 68.5526 301.5 69.6406C301.5 70.3679 301.575 70.983 301.726 71.4858C301.879 71.9858 302.096 72.3651 302.378 72.6236C302.659 72.8793 302.997 73.0071 303.392 73.0071ZM311.186 74.1449C310.513 74.142 309.937 73.9645 309.46 73.6122C308.983 73.2599 308.618 72.7472 308.365 72.0739C308.112 71.4006 307.986 70.5895 307.986 69.6406C307.986 68.6946 308.112 67.8864 308.365 67.2159C308.621 66.5455 308.987 66.0341 309.464 65.6818C309.944 65.3295 310.518 65.1534 311.186 65.1534C311.854 65.1534 312.426 65.331 312.903 65.6861C313.381 66.0384 313.746 66.5497 313.998 67.2202C314.254 67.8878 314.382 68.6946 314.382 69.6406C314.382 70.5923 314.256 71.4048 314.003 72.0781C313.75 72.7486 313.385 73.2614 312.907 73.6165C312.43 73.9688 311.856 74.1449 311.186 74.1449ZM311.186 73.0071C311.777 73.0071 312.238 72.7188 312.571 72.142C312.906 71.5653 313.074 70.7315 313.074 69.6406C313.074 68.9162 312.997 68.304 312.844 67.804C312.693 67.3011 312.476 66.9205 312.192 66.6619C311.91 66.4006 311.575 66.2699 311.186 66.2699C310.598 66.2699 310.136 66.5597 309.801 67.1392C309.466 67.7187 309.297 68.5526 309.294 69.6406C309.294 70.3679 309.369 70.983 309.52 71.4858C309.673 71.9858 309.89 72.3651 310.172 72.6236C310.453 72.8793 310.791 73.0071 311.186 73.0071ZM321.967 68.0298C321.885 67.7713 321.774 67.5398 321.635 67.3352C321.498 67.1278 321.335 66.9517 321.145 66.8068C320.954 66.6591 320.737 66.5469 320.493 66.4702C320.251 66.3935 319.986 66.3551 319.696 66.3551C319.204 66.3551 318.761 66.4815 318.366 66.7344C317.971 66.9872 317.659 67.358 317.429 67.8466C317.202 68.3324 317.088 68.9276 317.088 69.6321C317.088 70.3395 317.203 70.9375 317.433 71.4261C317.663 71.9148 317.979 72.2855 318.379 72.5384C318.78 72.7912 319.236 72.9176 319.747 72.9176C320.221 72.9176 320.635 72.821 320.987 72.6278C321.342 72.4347 321.616 72.1619 321.81 71.8097C322.006 71.4545 322.104 71.0369 322.104 70.5568L322.444 70.6207H319.947V69.5341H323.378V70.527C323.378 71.2599 323.221 71.8963 322.909 72.4361C322.599 72.973 322.17 73.3878 321.622 73.6804C321.077 73.973 320.452 74.1193 319.747 74.1193C318.957 74.1193 318.264 73.9375 317.667 73.5739C317.074 73.2102 316.611 72.6946 316.278 72.027C315.946 71.3565 315.78 70.5611 315.78 69.6406C315.78 68.9446 315.876 68.3196 316.069 67.7656C316.263 67.2116 316.534 66.7415 316.883 66.3551C317.236 65.9659 317.649 65.669 318.123 65.4645C318.601 65.2571 319.122 65.1534 319.687 65.1534C320.159 65.1534 320.598 65.223 321.004 65.3622C321.413 65.5014 321.777 65.6989 322.095 65.9545C322.416 66.2102 322.682 66.5142 322.892 66.8665C323.102 67.2159 323.244 67.6037 323.318 68.0298H321.967ZM325.097 74V65.2727H328.293C328.913 65.2727 329.425 65.375 329.832 65.5795C330.238 65.7812 330.542 66.0554 330.744 66.402C330.945 66.7457 331.046 67.1335 331.046 67.5653C331.046 67.929 330.979 68.2358 330.846 68.4858C330.712 68.733 330.533 68.9318 330.309 69.0824C330.087 69.2301 329.843 69.3381 329.576 69.4062V69.4915C329.866 69.5057 330.148 69.5994 330.424 69.7727C330.702 69.9432 330.932 70.1861 331.114 70.5014C331.296 70.8168 331.387 71.2003 331.387 71.652C331.387 72.098 331.282 72.4986 331.072 72.8537C330.864 73.206 330.543 73.4858 330.109 73.6932C329.674 73.8977 329.119 74 328.442 74H325.097ZM326.414 72.8707H328.315C328.945 72.8707 329.397 72.7486 329.67 72.5043C329.942 72.2599 330.079 71.9545 330.079 71.5881C330.079 71.3125 330.009 71.0597 329.87 70.8295C329.731 70.5994 329.532 70.4162 329.273 70.2798C329.018 70.1435 328.714 70.0753 328.361 70.0753H326.414V72.8707ZM326.414 69.0483H328.178C328.474 69.0483 328.739 68.9915 328.975 68.8778C329.214 68.7642 329.403 68.6051 329.542 68.4006C329.684 68.1932 329.755 67.9489 329.755 67.6676C329.755 67.3068 329.628 67.0043 329.376 66.7599C329.123 66.5156 328.735 66.3935 328.212 66.3935H326.414V69.0483Z" fill="#9AA8BE"/>
<defs>
<filter id="filter0_d_219_12200" x="167.998" y="21" width="40" height="40" filterUnits="userSpaceOnUse" color-interpolation-filters="sRGB">
<feFlood flood-opacity="0" result="BackgroundImageFix"/>
<feColorMatrix in="SourceAlpha" type="matrix" values="0 0 0 0 0 0 0 0 0 0 0 0 0 0 0 0 0 0 127 0" result="hardAlpha"/>
<feOffset dy="1"/>
<feGaussianBlur stdDeviation="5"/>
<feComposite in2="hardAlpha" operator="out"/>
<feColorMatrix type="matrix" values="0 0 0 0 0 0 0 0 0 0 0 0 0 0 0 0 0 0 0.1 0"/>
<feBlend mode="normal" in2="BackgroundImageFix" result="effect1_dropShadow_219_12200"/>
<feBlend mode="normal" in="SourceGraphic" in2="effect1_dropShadow_219_12200" result="shape"/>
</filter>
</defs>
</svg>
