<svg width="64" height="65" viewBox="0 0 64 65" fill="none" xmlns="http://www.w3.org/2000/svg">
<rect x="0.5" y="0.650879" width="63" height="63" fill="white"/>
<circle cx="23" cy="32" r="4" fill="#5072EB"/>
<rect x="37" y="28" width="8" height="8" fill="#5072EB"/>
<path d="M34.8379 31.7799L32.8007 29.8028C32.5919 29.6002 32.2463 29.6002 32.0378 29.8028C31.829 30.0055 31.829 30.3409 32.0378 30.5432L33.1536 31.6261H29.5399C29.2446 31.6261 29 31.8637 29 32.15C29 32.4366 29.2449 32.6739 29.5399 32.6739H33.1536L32.0378 33.7568C31.829 33.9594 31.829 34.2948 32.0378 34.4971C32.1458 34.602 32.2827 34.6509 32.4193 34.6509C32.5561 34.6509 32.6927 34.602 32.8007 34.4971L34.8379 32.5201C35.054 32.3175 35.054 31.9824 34.8379 31.7798V31.7799Z" fill="#5072EB"/>
<rect x="0.5" y="0.650879" width="63" height="63" stroke="#D7DCE5"/>
</svg>
