<svg width="64" height="65" viewBox="0 0 64 65" fill="none" xmlns="http://www.w3.org/2000/svg">
<rect x="0.5" y="0.650879" width="63" height="63" fill="white"/>
<path d="M20.8571 25.2937C21.3305 25.2937 21.7143 24.9103 21.7143 24.4366V21.8652H24.2857C24.7591 21.8652 25.1429 21.4817 25.1429 21.008C25.1429 20.5343 24.7591 20.1509 24.2857 20.1509H20.8571C20.3838 20.1509 20 20.5343 20 21.008V24.4366C20 24.9103 20.3838 25.2937 20.8571 25.2937Z" fill="#5072EB"/>
<path d="M43.1431 20.1509H39.7146C39.2412 20.1509 38.8574 20.5343 38.8574 21.008C38.8574 21.4817 39.2412 21.8652 39.7146 21.8652H42.286V24.4366C42.286 24.9103 42.6698 25.2937 43.1431 25.2937C43.6165 25.2937 44.0003 24.9103 44.0003 24.4366V21.008C44.0003 20.5343 43.6165 20.1509 43.1431 20.1509Z" fill="#5072EB"/>
<path d="M24.2857 42.4366H21.7143V39.8652C21.7143 39.3915 21.3305 39.0081 20.8571 39.0081C20.3838 39.0081 20 39.3915 20 39.8652V43.2938C20 43.7675 20.3838 44.1509 20.8571 44.1509H24.2857C24.7591 44.1509 25.1429 43.7675 25.1429 43.2938C25.1429 42.82 24.7591 42.4366 24.2857 42.4366Z" fill="#5072EB"/>
<path d="M43.1431 39.0081C42.6698 39.0081 42.286 39.3915 42.286 39.8652V42.4366H39.7146C39.2412 42.4366 38.8574 42.82 38.8574 43.2938C38.8574 43.7675 39.2412 44.1509 39.7146 44.1509H43.1431C43.6165 44.1509 44.0003 43.7675 44.0003 43.2938V39.8652C44.0003 39.3915 43.6165 39.0081 43.1431 39.0081Z" fill="#5072EB"/>
<path d="M42.0348 30.6877C41.7 30.3529 41.1576 30.3529 40.8228 30.6877C40.488 31.0226 40.488 31.565 40.8228 31.8998L41.0738 32.1508H33.8792L29.7471 30.4976C29.6457 30.4574 29.5378 30.4365 29.4286 30.4365H20.8571C20.3838 30.4365 20 30.8199 20 31.2937C20 31.7674 20.3838 32.1508 20.8571 32.1508H29.2635L33.3956 33.8041C33.497 33.8442 33.6049 33.8651 33.7141 33.8651H41.0733L40.8221 34.1163C40.4873 34.4511 40.4873 34.9935 40.8221 35.3284C40.9897 35.4958 41.209 35.5794 41.4282 35.5794C41.6475 35.5794 41.8669 35.4956 42.0344 35.3282L43.7486 33.6139C44.0835 33.2791 44.0835 32.7367 43.7486 32.4018L42.0348 30.6877Z" fill="#5072EB"/>
<path d="M40.5716 38.151V35.5796H23.4287V38.151C23.4287 39.5689 24.5822 40.7224 26.0001 40.7224H38.0001C39.418 40.7224 40.5716 39.5689 40.5716 38.151ZM32.8573 38.5796C32.8573 38.8164 32.6656 39.0082 32.4287 39.0082C32.1919 39.0082 32.0001 38.8164 32.0001 38.5796V37.7224C32.0001 37.4856 32.1919 37.2939 32.4287 37.2939C32.6656 37.2939 32.8573 37.4856 32.8573 37.7224V38.5796ZM34.5716 38.5796C34.5716 38.8164 34.3799 39.0082 34.143 39.0082C33.9061 39.0082 33.7144 38.8164 33.7144 38.5796V37.7224C33.7144 37.4856 33.9061 37.2939 34.143 37.2939C34.3799 37.2939 34.5716 37.4856 34.5716 37.7224V38.5796ZM36.2859 38.5796C36.2859 38.8164 36.0941 39.0082 35.8573 39.0082C35.6204 39.0082 35.4287 38.8164 35.4287 38.5796V37.7224C35.4287 37.4856 35.6204 37.2939 35.8573 37.2939C36.0941 37.2939 36.2859 37.4856 36.2859 37.7224V38.5796ZM38.0001 38.5796C38.0001 38.8164 37.8084 39.0082 37.5716 39.0082C37.3347 39.0082 37.143 38.8164 37.143 38.5796V37.7224C37.143 37.4856 37.3347 37.2939 37.5716 37.2939C37.8084 37.2939 38.0001 37.4856 38.0001 37.7224V38.5796Z" fill="#5072EB"/>
<path d="M23.4287 26.151V28.7224H40.5716V26.151C40.5716 24.7331 39.418 23.5796 38.0001 23.5796H26.0001C24.5822 23.5796 23.4287 24.7331 23.4287 26.151ZM37.143 25.7224C37.143 25.4856 37.3347 25.2939 37.5716 25.2939C37.8084 25.2939 38.0001 25.4856 38.0001 25.7224V26.5796C38.0001 26.8164 37.8084 27.0082 37.5716 27.0082C37.3347 27.0082 37.143 26.8164 37.143 26.5796V25.7224ZM35.4287 25.7224C35.4287 25.4856 35.6204 25.2939 35.8573 25.2939C36.0941 25.2939 36.2859 25.4856 36.2859 25.7224V26.5796C36.2859 26.8164 36.0941 27.0082 35.8573 27.0082C35.6204 27.0082 35.4287 26.8164 35.4287 26.5796V25.7224ZM33.7144 25.7224C33.7144 25.4856 33.9061 25.2939 34.143 25.2939C34.3799 25.2939 34.5716 25.4856 34.5716 25.7224V26.5796C34.5716 26.8164 34.3799 27.0082 34.143 27.0082C33.9061 27.0082 33.7144 26.8164 33.7144 26.5796V25.7224ZM32.0001 25.7224C32.0001 25.4856 32.1919 25.2939 32.4287 25.2939C32.6656 25.2939 32.8573 25.4856 32.8573 25.7224V26.5796C32.8573 26.8164 32.6656 27.0082 32.4287 27.0082C32.1919 27.0082 32.0001 26.8164 32.0001 26.5796V25.7224Z" fill="#5072EB"/>
<rect x="0.5" y="0.650879" width="63" height="63" stroke="#D7DCE5"/>
</svg>
