<svg width="64" height="64" viewBox="0 0 64 64" fill="none" xmlns="http://www.w3.org/2000/svg">
<rect x="0.5" y="0.5" width="63" height="63" fill="white"/>
<path d="M30.7712 22.0681H22.4426C22.1982 22.0681 22 22.2663 22 22.5107V33.1603C22 33.2777 22.0465 33.3903 22.1295 33.4733C22.2125 33.5565 22.3252 33.603 22.4426 33.603H30.7712C30.8888 33.603 31.0013 33.5565 31.0843 33.4733C31.1674 33.3903 31.214 33.2777 31.214 33.1603V22.5107C31.214 22.3933 31.1673 22.2806 31.0843 22.1976C31.0013 22.1147 30.8886 22.0681 30.7712 22.0681Z" fill="#5072EB"/>
<path d="M41.5574 31.8988H33.0921C32.8476 31.8988 32.6494 32.097 32.6494 32.3415V41.4894C32.6494 41.6068 32.6961 41.7194 32.7791 41.8024C32.8621 41.8854 32.9747 41.9321 33.0921 41.9319H41.5574C41.6748 41.9321 41.7874 41.8854 41.8704 41.8024C41.9534 41.7194 42 41.6068 42 41.4894V32.3415C42 32.2241 41.9534 32.1115 41.8703 32.0285C41.7873 31.9455 41.6748 31.8988 41.5574 31.8988Z" fill="#5072EB"/>
<path d="M30.7712 35.3119H22.4426C22.3252 35.3119 22.2125 35.3586 22.1295 35.4416C22.0465 35.5246 22 35.6372 22 35.7546V41.4888C22 41.6062 22.0465 41.7188 22.1295 41.8018C22.2125 41.8848 22.3252 41.9315 22.4426 41.9314H30.7712C30.8888 41.9315 31.0013 41.8848 31.0844 41.8018C31.1674 41.7188 31.214 41.6062 31.214 41.4888V35.7546C31.214 35.6372 31.1674 35.5246 31.0843 35.4416C31.0013 35.3586 30.8888 35.3119 30.7712 35.3119Z" fill="#5072EB"/>
<path d="M41.5574 22.0681H33.0921C32.8476 22.0681 32.6494 22.2663 32.6494 22.5107V29.8153C32.6494 29.9327 32.6961 30.0452 32.7791 30.1283C32.8621 30.2113 32.9747 30.2579 33.0921 30.2579H41.5574C41.6748 30.2579 41.7873 30.2113 41.8703 30.1283C41.9534 30.0452 42 29.9327 42 29.8153V22.5107C42 22.3933 41.9534 22.2806 41.8703 22.1976C41.7873 22.1147 41.6748 22.0681 41.5574 22.0681Z" fill="#5072EB"/>
<rect x="0.5" y="0.5" width="63" height="63" stroke="#D7DCE5"/>
</svg>
