<svg width="64" height="64" viewBox="0 0 64 64" fill="none" xmlns="http://www.w3.org/2000/svg">
<rect x="0.5" y="0.5" width="63" height="63" fill="white"/>
<path d="M22.7103 29.5059H28.5458C29.0756 29.5059 29.5065 29.076 29.5065 28.5448L29.5062 22.71C29.5062 21.6488 28.8976 21.3972 28.147 22.1473L26.5059 23.7892L22.9982 20.2819C22.6232 19.906 22.0148 19.906 21.6398 20.2819L20.2815 21.64C19.9062 22.0151 19.9062 22.6231 20.2815 22.9983L23.7886 26.5055L22.1474 28.1474C21.3973 28.898 21.6482 29.5059 22.7104 29.5059L22.7103 29.5059Z" fill="#5072EB"/>
<path d="M43.7177 41.0013L40.2109 37.4933L41.8528 35.852C42.6026 35.1021 42.3503 34.4937 41.2895 34.4937L35.4541 34.4939C34.9233 34.4939 34.4932 34.9238 34.4932 35.4545V41.2902C34.4932 42.351 35.1014 42.6035 35.8517 41.853L37.4931 40.2116L41.0003 43.7179C41.3755 44.0937 41.9837 44.0937 42.3589 43.7179L43.7174 42.3601C44.0931 41.9844 44.0931 41.3765 43.7177 41.0013Z" fill="#5072EB"/>
<path d="M43.7174 21.6402L42.3589 20.2819C41.984 19.906 41.3756 19.906 41.0003 20.2819L37.4931 23.7887L35.8517 22.1473C35.1014 21.3967 34.4932 21.6488 34.4932 22.71V28.5448C34.4932 29.076 34.9233 29.5059 35.4541 29.5059H41.2897C42.3505 29.5059 42.6028 28.8979 41.8522 28.1476L40.2109 26.5057L43.7176 22.9985C44.0928 22.6233 44.0928 22.0156 43.7174 21.6402Z" fill="#5072EB"/>
<path d="M29.5065 41.2898V35.4543C29.5065 34.9236 29.0757 34.4937 28.5458 34.4937H22.7097C21.6482 34.4937 21.3976 35.1021 22.1467 35.852L23.7886 37.4933L20.2815 41.0013C19.9062 41.3765 19.9062 41.9844 20.2815 42.3603L21.6401 43.7182C22.015 44.094 22.6234 44.094 22.9984 43.7182L26.5061 40.2114L28.1473 41.8527C28.8979 42.6031 29.5065 42.3513 29.5065 41.2898Z" fill="#5072EB"/>
<rect x="0.5" y="0.5" width="63" height="63" stroke="#D7DCE5"/>
</svg>
