<svg width="64" height="65" viewBox="0 0 64 65" fill="none" xmlns="http://www.w3.org/2000/svg">
<rect x="0.5" y="0.650879" width="63" height="63" fill="white"/>
<path d="M31.6074 25.418C27.7525 25.418 24.6084 28.5623 24.6084 32.417C24.6084 36.2717 27.7528 39.416 31.6074 39.416C35.4621 39.416 38.6064 36.2717 38.6064 32.417C38.6064 28.5623 35.4619 25.418 31.6074 25.418ZM31.6074 28.4185C31.8731 28.4174 32.1281 28.5221 32.3165 28.7094C32.5049 28.8965 32.6109 29.151 32.6114 29.4167V32.0069L34.4341 33.8316C34.6223 34.0191 34.7279 34.2741 34.7279 34.5398C34.7279 34.8054 34.6223 35.0602 34.4341 35.248C34.2468 35.4342 33.9931 35.5389 33.7288 35.5389C33.4647 35.5389 33.2111 35.4342 33.0238 35.248L30.8983 33.1225C30.8883 33.1116 30.8785 33.1007 30.8691 33.0893C30.8222 33.0377 30.7809 32.9814 30.7458 32.9212C30.7287 32.8908 30.713 32.8595 30.699 32.8274C30.6561 32.7321 30.6284 32.6307 30.617 32.5267C30.6101 32.4664 30.6088 32.4054 30.613 32.3449V29.4187C30.6137 29.1544 30.7186 28.901 30.9053 28.7141C31.0919 28.5271 31.3451 28.4215 31.6094 28.4203L31.6074 28.4185Z" fill="#5072EB"/>
<path d="M38.7548 25.6842C38.4916 25.6584 38.2288 25.7378 38.0239 25.9053C37.8191 26.0727 37.689 26.3145 37.662 26.5777C37.6363 26.841 37.7158 27.1037 37.8832 27.3084C38.0506 27.5134 38.2922 27.6433 38.5554 27.6703L41.0363 27.9139V27.9141C41.3006 27.9398 41.5645 27.8592 41.7694 27.6904C41.9744 27.5214 42.1039 27.2779 42.1289 27.0133C42.1548 26.7489 42.0742 26.4851 41.9052 26.2801C41.7362 26.0749 41.4926 25.9457 41.2282 25.9204L38.7548 25.6842Z" fill="#5072EB"/>
<path d="M30.1238 20.5088C28.5767 20.6997 27.0378 21.1954 25.6053 22.0225C24.0191 22.9382 22.7155 24.1655 21.7366 25.5812V25.581C21.5847 25.8 21.5269 26.0706 21.5754 26.3324C21.6238 26.5945 21.775 26.8263 21.9951 26.9765C22.2134 27.1257 22.4822 27.1824 22.7425 27.1339C23.0026 27.0855 23.233 26.9359 23.3831 26.718C24.1982 25.5395 25.2825 24.5234 26.6095 23.7574C31.4031 20.9899 37.5013 22.6259 40.2687 27.4195C40.402 27.6483 40.6207 27.8151 40.8768 27.8827C41.1329 27.9506 41.4055 27.914 41.6346 27.7811C41.8648 27.6492 42.0331 27.4309 42.1023 27.1748C42.1715 26.9187 42.1362 26.6455 42.0038 26.4153C39.5228 22.118 34.7654 19.9358 30.1239 20.5085L30.1238 20.5088ZM21.5074 27.9365C21.2558 27.8508 20.9805 27.8688 20.7423 27.9867C20.504 28.1044 20.3223 28.3122 20.2375 28.5641C20.1852 28.7179 20.1426 28.8746 20.0973 29.0291C20.0227 29.2828 20.0513 29.5556 20.1772 29.788C20.3031 30.0204 20.5159 30.1936 20.769 30.2695C21.0226 30.3443 21.2955 30.3155 21.5278 30.1896C21.7603 30.0637 21.9335 29.8509 22.0094 29.5978C22.048 29.4676 22.0918 29.3337 22.1349 29.2064C22.2206 28.9548 22.2025 28.6795 22.0846 28.4413C21.967 28.2029 21.7591 28.0213 21.5073 27.9365L21.5074 27.9365ZM20.5994 31.4952C20.3339 31.4961 20.0798 31.6024 19.893 31.7908C19.7059 31.979 19.6014 32.234 19.6025 32.4994C19.603 32.5653 19.6061 32.6474 19.6101 32.743C19.6206 33.0071 19.7354 33.2562 19.9289 33.4362C20.1227 33.6159 20.3797 33.7119 20.6438 33.7028C20.9106 33.6943 21.1629 33.5793 21.3444 33.3839C21.5261 33.1884 21.6221 32.9283 21.611 32.6617C21.6092 32.6182 21.6034 32.559 21.6034 32.4844V32.4847C21.6007 32.2205 21.4935 31.9683 21.3053 31.783C21.1171 31.5977 20.8635 31.4941 20.5994 31.4952Z" fill="#5072EB"/>
<path d="M42.0921 23.3513C41.8356 23.2825 41.5621 23.3185 41.3323 23.4515C41.1024 23.5844 40.9347 23.8034 40.8664 24.0601L40.165 26.659C40.0962 26.9156 40.1324 27.1888 40.2652 27.4188C40.3983 27.6487 40.6173 27.8162 40.8738 27.8845C41.1303 27.9535 41.4038 27.9173 41.6337 27.7842C41.8635 27.6514 42.0311 27.4324 42.0994 27.1758L42.7936 24.5769C42.8626 24.3213 42.8275 24.0489 42.696 23.8192C42.5645 23.5894 42.3473 23.4211 42.0921 23.3512L42.0921 23.3513Z" fill="#5072EB"/>
<path d="M22.1796 36.9219C21.9152 36.8963 21.6513 36.9766 21.4464 37.1456C21.2412 37.3146 21.112 37.5582 21.0867 37.8228C21.0611 38.0871 21.1414 38.351 21.3104 38.556C21.4794 38.7609 21.723 38.8904 21.9876 38.9154L24.461 39.1516C24.7254 39.1775 24.9892 39.0969 25.1942 38.9279C25.3991 38.7591 25.5284 38.5153 25.5536 38.251C25.5795 37.9864 25.4989 37.7227 25.3299 37.5178C25.1609 37.3126 24.9173 37.1834 24.653 37.1581L22.1796 36.9219Z" fill="#5072EB"/>
<path d="M42.5644 31.1334C42.3003 31.1439 42.0511 31.2584 41.8714 31.4522C41.6915 31.6458 41.5957 31.9027 41.6046 32.1669C41.6064 32.2104 41.6122 32.2696 41.6122 32.3441C41.6131 32.6096 41.7194 32.8636 41.9078 33.0505C42.0962 33.2376 42.351 33.3418 42.6164 33.3409C42.8816 33.34 43.1359 33.2336 43.3228 33.0453C43.5096 32.8569 43.6141 32.6022 43.613 32.3368C43.6125 32.2709 43.6094 32.1887 43.6054 32.0932H43.6056C43.5951 31.8277 43.4795 31.5772 43.2841 31.3973C43.0888 31.2171 42.8298 31.1222 42.5646 31.1332L42.5644 31.1334ZM42.4465 34.5666V34.5664C42.192 34.4896 41.9172 34.5173 41.6832 34.6434C41.449 34.7693 41.2747 34.9834 41.1988 35.2384C41.1602 35.3685 41.124 35.5025 41.0809 35.6298C40.9976 35.8802 41.0168 36.1537 41.1345 36.3904C41.2519 36.6268 41.4584 36.8072 41.7085 36.8923C41.9592 36.9756 42.2327 36.9564 42.4691 36.8387C42.7058 36.7213 42.8862 36.5148 42.971 36.2647C43.0232 36.1109 43.073 35.9615 43.1188 35.807V35.8068C43.1936 35.5534 43.1648 35.2806 43.0389 35.048C42.913 34.8156 42.7002 34.6426 42.447 34.5664L42.4465 34.5666ZM22.3416 36.9515V36.9512C22.0844 36.8834 21.8109 36.9204 21.5812 37.0546C21.351 37.1868 21.1829 37.4049 21.1137 37.6612C21.0445 37.9173 21.08 38.1905 21.2122 38.4205C24.5202 44.1501 31.8804 46.1219 37.6101 42.8134C39.1963 41.8977 40.4926 40.663 41.4715 39.2474H41.4717C41.6217 39.0299 41.6796 38.7618 41.6325 38.5017C41.5854 38.2416 41.4373 38.0105 41.2206 37.8594C41.0031 37.7094 40.735 37.6515 40.4749 37.6986C40.2148 37.7455 39.9837 37.8938 39.8326 38.1103C39.0175 39.2889 37.9331 40.3123 36.6061 41.0783C31.8126 43.8458 25.7143 42.2098 22.947 37.4162V37.4165C22.8146 37.1874 22.5969 37.0202 22.3415 36.9512L22.3416 36.9515Z" fill="#5072EB"/>
<path d="M22.3419 36.9511C22.0854 36.8823 21.8121 36.9185 21.5822 37.0513C21.3522 37.1844 21.1848 37.4034 21.1164 37.6599L20.415 40.2588C20.3462 40.5154 20.3822 40.7888 20.5152 41.0186C20.6481 41.2485 20.8671 41.4162 21.1238 41.4845C21.3803 41.5533 21.6536 41.5173 21.8836 41.3843C22.1135 41.2512 22.2812 41.0324 22.3493 40.7757L23.0434 38.1768C23.1124 37.9214 23.0773 37.6488 22.9461 37.419C22.8146 37.1893 22.5973 37.021 22.3419 36.9511Z" fill="#5072EB"/>
<rect x="0.5" y="0.650879" width="63" height="63" stroke="#D7DCE5"/>
</svg>
