<svg width="65" height="64" viewBox="0 0 65 64" fill="none" xmlns="http://www.w3.org/2000/svg">
<rect x="1.16699" y="0.5" width="63" height="63" fill="white"/>
<path fill-rule="evenodd" clip-rule="evenodd" d="M39.6052 24.0146L34.6814 28.8376C34.3613 28.6835 34.0022 28.597 33.6229 28.597C32.9967 28.597 32.4255 28.8332 31.9926 29.2204L27.8636 26.0202C27.9484 25.7723 27.9945 25.5062 27.9945 25.2291C27.9945 23.8799 26.8996 22.7848 25.5502 22.7848C24.201 22.7848 23.1062 23.8799 23.1062 25.2291C23.1062 25.5471 23.1669 25.8501 23.2774 26.1289L21.1664 28.2397C20.9445 28.4616 20.9445 28.8223 21.1664 29.0442C21.3883 29.2659 21.7488 29.2659 21.9707 29.0442L23.9439 27.0709C24.374 27.4463 24.9354 27.6733 25.5502 27.6733C26.2107 27.6733 26.8102 27.411 27.2503 26.9844L31.3437 30.1571C31.2372 30.4314 31.1786 30.7294 31.1786 31.0412C31.1786 32.3903 32.2742 33.4852 33.6228 33.4852C34.972 33.4852 36.0676 32.3903 36.0676 31.0412C36.0676 30.4855 35.8816 29.9724 35.5683 29.561L40.5321 24.6988C40.8227 24.8207 41.1419 24.8883 41.4769 24.8883C41.961 24.8883 42.412 24.7472 42.792 24.5044L43.9189 25.6312C44.1407 25.8529 44.5012 25.8529 44.7231 25.6312C44.945 25.4094 44.945 25.0487 44.7231 24.8268L43.5822 23.6858C43.7977 23.3219 43.9212 22.8975 43.9212 22.4441C43.9212 21.0949 42.8261 20 41.4769 20C40.1277 20 39.0327 21.0949 39.0327 22.4441C39.0327 23.0419 39.2477 23.5896 39.6049 24.0145L39.6052 24.0146Z" fill="#5072EB"/>
<path fill-rule="evenodd" clip-rule="evenodd" d="M39.2019 42.8625H35.789V36.6052C35.789 35.6627 35.0251 34.8988 34.0826 34.8988H32.945C32.0025 34.8988 31.2386 35.6627 31.2386 36.6052V42.8625H27.8257V30.6766C27.8257 29.734 27.0618 28.9701 26.1193 28.9701H24.9817C24.0392 28.9701 23.2753 29.734 23.2753 30.6766V42.8625H21.5689C21.2548 42.8625 21 43.1173 21 43.4312C21 43.7452 21.2548 44 21.5689 44H44.321C44.6351 44 44.8899 43.7452 44.8899 43.4312C44.8899 43.1173 44.6351 42.8625 44.321 42.8625H43.7523V29.2407C43.7523 28.2988 42.9884 27.5343 42.0459 27.5343H40.9082C39.9656 27.5343 39.2017 28.2988 39.2017 29.2407L39.2019 42.8625Z" fill="#5072EB"/>
<rect x="1.16699" y="0.5" width="63" height="63" stroke="#D7DCE5"/>
</svg>
