<svg width="64" height="64" viewBox="0 0 64 64" fill="none" xmlns="http://www.w3.org/2000/svg">
<rect x="0.5" y="0.5" width="63" height="63" fill="white"/>
<path d="M32 44H30.5V20H32V44ZM21.5 41V23C21.5 22.5858 21.8358 22.25 22.25 22.25H30.5C30.9142 22.25 31.25 22.5858 31.25 23V41C31.25 41.4142 30.9142 41.75 30.5 41.75H22.25C21.8358 41.75 21.5 41.4142 21.5 41ZM24.5 25.25C24.5 24.8358 24.1642 24.5 23.75 24.5C23.3358 24.5 23 24.8358 23 25.25C23 25.6642 23.3358 26 23.75 26C24.1642 26 24.5 25.6642 24.5 25.25ZM24.5 27.5C24.5 27.0858 24.1642 26.75 23.75 26.75C23.3358 26.75 23 27.0858 23 27.5C23 27.9142 23.3358 28.25 23.75 28.25C24.1642 28.25 24.5 27.9142 24.5 27.5ZM23 39.5H29.75V38H23V39.5ZM23 36.5H29.75V35H23V36.5ZM23 33.5H29.75V32H23V33.5Z" fill="#5072EB"/>
<path d="M35 23.75V29.75H41V23.75H35ZM42.5 22.25V31.25H33.5V22.25H42.5Z" fill="#5072EB"/>
<path d="M33.5 32.75H42.5V41.75H33.5V32.75Z" fill="#5072EB"/>
<rect x="0.5" y="0.5" width="63" height="63" stroke="#D7DCE5"/>
</svg>
