<svg width="552" height="508" viewBox="0 0 552 508" fill="#F9FAFC" stroke="#c7eae8" stroke-width="1" xmlns="http://www.w3.org/2000/svg">
<path fill-rule="evenodd" clip-rule="evenodd" d="M-396.822 91.9725V138.282C-386.224 129.012 -371.64 122.082 -358.925 116.274C-349.83 112.116 -340.392 109.05 -330.619 106.96C-312.918 103.174 -295.098 99.8515 -277.27 96.5286C-248.038 91.079 -218.789 85.6264 -190.026 78.1229C-181.961 76.0182 -174.005 73.712 -166.075 71.4135C-145.537 65.4608 -125.176 59.5592 -103.546 57.3391C-80.4303 54.97 -57.4988 56.4766 -34.9934 62.3072C-14.4704 67.6247 5.37987 75.3687 25.1513 83.0821L25.1582 83.085C30.215 85.0575 35.2658 87.0281 40.3216 88.9555C69.1068 99.9273 98.0617 110.602 127.679 119.11C154.997 126.956 180.966 139.393 202.952 157.548C220.826 172.306 235.706 190.136 250.514 207.879C252.256 209.966 253.997 212.053 255.742 214.133C277.879 240.521 301.24 265.614 327.721 287.731C342.637 300.187 357.847 312.372 373.087 324.428C382.186 331.626 391.225 338.87 398.536 347.957C409.302 361.341 416.448 377.196 423.468 392.775C423.987 393.926 424.506 395.077 425.026 396.226C427.799 402.363 430.532 408.522 433.266 414.683C438.069 425.505 442.876 436.334 447.904 447.056C457.312 467.12 465.342 486.913 472.104 507.429H552C545.472 484.947 538.048 462.837 529.167 440.977C525.307 431.471 521.597 421.827 517.878 412.155C507.386 384.878 496.809 357.378 482.521 332.138C468.814 307.933 447.995 295.398 425.024 281.566L425.001 281.552C424.023 280.964 423.043 280.374 422.059 279.78C415.997 276.122 409.851 272.668 403.715 269.218V269.217C391.708 262.47 379.736 255.74 368.49 247.542C353.291 236.46 339.29 223.812 326.681 209.85C314.396 196.246 303.766 180.648 293.1 164.998C273.133 135.702 253.042 106.222 221.735 89.2945C205.28 80.3981 187.577 76.8504 169.778 73.2829C159.091 71.1411 148.369 68.9922 137.859 65.6745C106.502 55.7798 76.1164 43.2976 45.9869 30.1786C43.3436 29.0278 40.6974 27.8665 38.0492 26.7037C17.9335 17.8729 -2.37739 8.95672 -23.7811 3.88443C-46.7994 -1.5695 -70.2014 -1.11752 -93.2039 4.21967C-112.092 8.60306 -129.294 16.8309 -146.555 25.0868C-157.148 30.1536 -167.763 35.2311 -178.804 39.4368C-198.516 46.9473 -218.823 50.7741 -239.594 54.002C-266.135 58.1263 -292.327 61.8929 -319.14 63.7159C-343.471 65.3694 -363.903 72.0023 -385.11 84.1908C-389.33 86.6165 -393.151 89.238 -396.822 91.9725ZM-396.822 172.295V219.62C-393.337 216.778 -389.92 213.86 -386.668 210.789C-379.117 203.66 -368.605 198.228 -358.932 193.23C-356.907 192.184 -354.92 191.157 -353.004 190.138C-344.2 185.453 -335.11 181.459 -325.7 178.152C-301.043 169.486 -275.401 161.899 -249.902 156.143C-229.499 151.542 -208.783 150.693 -187.971 149.84C-186.903 149.796 -185.833 149.753 -184.764 149.708C-180.769 149.543 -176.767 149.363 -172.763 149.183L-172.751 149.182C-148.912 148.109 -124.955 147.031 -101.169 148.973C-77.2525 150.927 -54.1563 156.972 -31.3707 164.258C24.665 182.168 80.4305 205.209 129.35 238.314C151.732 253.457 171.293 271.915 189.074 292.176C199.039 303.534 208.208 315.628 217.376 327.723H217.377C230.233 344.685 243.09 361.646 258.146 376.571C259.306 377.722 260.468 378.863 261.626 380.002L261.66 380.034L261.674 380.048C269.51 387.749 277.209 395.315 283.401 404.554C291.32 416.365 297.614 429.284 303.867 442.116V442.117L303.868 442.118V442.119C305.922 446.332 307.97 450.536 310.07 454.689C313.469 461.409 317.36 467.831 321.25 474.251C324.58 479.748 327.909 485.243 330.93 490.925C333.768 496.266 336.179 501.789 338.294 507.429H417.946C415.725 500.702 413.236 494.067 410.348 487.587C406.899 479.851 402.841 472.417 398.783 464.982C396.349 460.525 393.916 456.066 391.613 451.542C387.512 443.48 383.721 435.087 379.908 426.646V426.645C369.409 403.4 358.74 379.779 340.945 361.631C336.429 357.027 331.667 352.672 326.904 348.318L326.903 348.317C322.347 344.149 317.788 339.981 313.442 335.591C298.702 320.704 284.521 305.154 270.406 289.676L270.244 289.499C264.033 282.687 257.896 275.797 251.757 268.904C237.508 252.906 223.251 236.897 208.027 221.84C167.811 182.071 119.222 159.163 66.7239 139.564C38.1685 128.903 9.34582 118.462 -19.7165 109.249C-41.4724 102.352 -63.5912 97.1399 -86.4517 95.9474C-114.868 94.4624 -143.416 97.6349 -171.42 102.12C-177.747 103.133 -184.086 104.088 -190.426 105.043C-206.409 107.451 -222.398 109.86 -238.21 113.197C-257.296 117.228 -276.201 122.192 -295.089 127.151C-302.53 129.105 -309.968 131.058 -317.415 132.953C-340.455 138.814 -360.763 148.362 -381.078 160.654C-386.766 164.093 -391.811 168.151 -396.822 172.295ZM-396.822 298.32V250.429C-384.353 240.13 -371.404 230.579 -357.263 222.591C-341.539 213.709 -325.16 207.651 -307.914 202.447C-304.988 201.564 -302.058 200.668 -299.124 199.771L-299.123 199.77H-299.122C-281.271 194.312 -263.251 188.802 -244.861 185.791C-223.995 182.374 -202.415 181.897 -181.137 181.428H-181.135L-181.132 181.427C-176.019 181.315 -170.923 181.201 -165.86 181.049C-141.753 180.32 -117.656 180.486 -93.9348 185.322C-36.9423 196.936 18.5963 221.226 68.9628 249.828C91.9328 262.869 113.054 278.324 131.664 297.122C146.28 311.883 158.854 328.235 171.43 344.587L171.431 344.588C180.913 356.919 190.395 369.249 200.753 380.9C204.807 385.46 209.235 389.662 213.66 393.86C218.705 398.648 223.746 403.432 228.23 408.742C239.207 421.75 247.234 438.102 254.482 453.327C259.064 462.951 264.441 471.947 269.845 480.987C272.203 484.93 274.565 488.882 276.869 492.9C279.562 497.596 281.865 502.458 283.893 507.429H203.81C201.989 503.589 199.942 499.828 197.606 496.16C188.303 481.553 180.15 466.526 172.184 451.151C165.69 438.609 157.995 428.142 147.577 418.677C134.098 406.424 123.349 392.69 112.258 378.273C93.2515 353.565 73.2069 329.157 48.281 310.149C24.7706 292.218 -2.17616 279.015 -28.755 266.346C-77.0197 243.339 -128.964 228.719 -182.531 230.008C-187.044 230.116 -191.592 230.189 -196.162 230.263C-217.779 230.611 -239.876 230.967 -260.923 235.061C-285.932 239.924 -312.289 247.217 -335.803 257.132C-348.133 262.329 -363.513 269.242 -373.439 278.219C-377.08 281.511 -380.889 284.696 -384.712 287.892L-384.714 287.894C-388.797 291.308 -392.897 294.737 -396.822 298.32ZM-396.822 329.683V413.357C-396.078 409.495 -395.473 405.576 -394.988 401.593C-394.806 400.099 -394.644 398.597 -394.483 397.09C-393.731 390.102 -392.971 383.037 -390.137 376.571C-386.161 367.494 -379.132 361.453 -371.986 355.313L-371.985 355.311C-369.995 353.601 -367.995 351.883 -366.05 350.089C-357.197 341.923 -347.976 335.544 -336.937 330.281C-326.854 325.474 -316.01 322.391 -305.276 319.339L-305.259 319.334C-303.445 318.818 -301.634 318.303 -299.83 317.781C-288.523 314.506 -277.201 311.341 -265.459 310.183C-239.223 307.597 -210.845 305.936 -184.624 309.322C-157.753 312.792 -129.797 322.778 -105.324 334.265C-78.5425 346.833 -51.5781 360.83 -29.9149 381.483C-16.9816 393.819 -5.75742 407.911 5.07217 422.136C14.8602 434.99 25.0664 445.201 36.5914 456.222C44.9237 464.188 50.2467 474.482 55.557 484.75C58.4577 490.36 61.3545 495.962 64.7355 501.172C66.1114 503.289 67.4153 505.368 68.6511 507.429H149.839C148.204 504.325 146.408 501.263 144.413 498.236C139.131 490.213 134.703 481.728 130.276 473.246C126.15 465.339 122.025 457.435 117.211 449.912C112.281 442.201 105.954 436.338 99.4977 430.355C97.1207 428.151 94.726 425.932 92.3766 423.598C83.063 414.349 75.1568 403.712 67.2664 393.095C62.8625 387.17 58.4636 381.252 53.827 375.584C35.4828 353.158 15.1196 333.571 -9.55668 318.467C-35.2814 302.722 -62.7459 289.228 -91.108 279.196C-116.315 270.277 -141.724 261.46 -168.56 259.723C-195.924 257.952 -224.369 259.366 -251.668 261.745C-276.762 263.932 -302.058 272.227 -325.754 280.514C-335.93 284.071 -345.421 288.886 -354.714 294.373C-366.343 301.238 -376.289 310.105 -386.396 319.116L-386.397 319.117L-387.398 320.01C-390.878 323.11 -394.034 326.304 -396.822 329.683ZM-396.822 507.429V464.663C-389.395 450.682 -385.267 436.817 -383.651 421.006C-383.529 419.8 -383.418 418.591 -383.309 417.383C-382.648 410.113 -381.986 402.841 -378.433 396.301C-373.629 387.462 -364.884 379.933 -357.143 373.27C-356.084 372.358 -355.043 371.462 -354.034 370.582C-345.608 363.225 -332.904 358.116 -322.415 354.632C-308.903 350.15 -294.898 345.678 -280.871 343.224C-271.608 341.603 -262.147 341.352 -252.734 341.102C-250.011 341.03 -247.292 340.958 -244.582 340.852C-216.773 339.774 -192.475 342.023 -165.983 350.977C-137.099 360.743 -108.181 373.471 -83.4356 391.749C-70.949 400.974 -60.2161 412.211 -50.3215 424.193C-46.9809 428.238 -43.7991 432.405 -40.6222 436.567C-33.008 446.541 -25.4243 456.476 -15.7497 464.591C-5.75843 472.967 0.00849099 483.286 6.11271 494.21C7.57342 496.823 9.05284 499.47 10.6142 502.134C11.6813 503.957 12.8452 505.702 14.0436 507.429H-66.9141C-67.1153 507.095 -67.3154 506.764 -67.5137 506.433C-72.8378 497.58 -77.577 489.701 -86.0463 482.69C-93.2315 476.745 -98.8751 469.279 -104.512 461.82C-107.203 458.259 -109.893 454.7 -112.748 451.31C-120.46 442.15 -128.857 433.68 -138.571 426.708C-157.956 412.791 -180.228 403.048 -202.685 395.591C-223.076 388.822 -241.87 387.636 -263.204 388.429C-283.925 389.195 -302.328 392.347 -322.123 399.057C-330.229 401.805 -339.32 405.777 -345.992 411.266C-352.238 416.401 -360.289 423.682 -363.918 431.202C-366.25 436.038 -366.552 441.322 -366.853 446.591C-366.918 447.714 -366.982 448.836 -367.066 449.953C-367.997 462.426 -371.06 473.027 -377.149 483.929C-378.144 485.714 -379.229 487.488 -380.321 489.274C-383.358 494.242 -386.45 499.296 -387.817 504.921C-388.02 505.752 -388.182 506.586 -388.309 507.429H-396.822Z"/>
</svg>
