<svg width="64" height="64" viewBox="0 0 64 64" fill="none" xmlns="http://www.w3.org/2000/svg">
<rect x="0.5" y="0.5" width="63" height="63" fill="white"/>
<path d="M28.6229 43.9998H21.8744C21.8491 43.9848 21.8251 43.9627 21.7974 43.9557C20.6747 43.6815 20.0009 42.8269 20.0004 41.6741C20.0004 39.7057 19.9995 37.7373 20.0004 35.7694C20.0009 34.4983 20.9832 33.5057 22.2468 33.5015C23.4103 33.4977 24.5739 33.5005 25.7375 33.5005C25.8201 33.5005 25.9027 33.5005 25.999 33.5005C25.999 33.3761 25.999 33.2836 25.999 33.1906C25.999 29.5511 25.9962 25.9111 26.0004 22.2715C26.0028 20.9831 26.987 20.0017 28.2693 20.0012C32.7672 19.9994 37.2651 19.9998 41.763 20.0012C42.7444 20.0012 43.613 20.653 43.8995 21.594C43.9281 21.6884 43.9629 21.7809 43.9943 21.8748V36.1249C43.9793 36.1502 43.9567 36.1742 43.9502 36.2014C43.6792 37.3199 42.8195 37.9989 41.6705 37.9989C38.0342 37.9989 34.398 37.9989 30.7617 37.9989C30.6786 37.9989 30.596 37.9989 30.496 37.9989C30.496 38.1196 30.496 38.2121 30.496 38.3041C30.496 39.4512 30.4969 40.5988 30.496 41.746C30.4945 42.7649 29.84 43.6294 28.8577 43.9163C28.7778 43.9397 28.7008 43.9717 28.6229 43.9994V43.9998ZM38.2676 24.6038L38.3122 24.6761C38.2347 24.7405 38.1516 24.7987 38.0807 24.8696C33.2091 29.7394 28.3388 34.6106 23.4686 39.4818C23.3972 39.5531 23.3225 39.6245 23.2648 39.7067C22.976 40.1142 23.1549 40.6843 23.6273 40.8374C23.9682 40.9477 24.24 40.8247 24.4894 40.5749C29.3789 35.6788 34.2726 30.787 39.1635 25.8923C39.2264 25.8294 39.2645 25.7406 39.3142 25.6641L39.3908 25.7275C39.3936 25.7876 39.3988 25.8472 39.3988 25.9073C39.3988 27.1803 39.3988 28.4537 39.3997 29.7267C39.3997 29.8197 39.3988 29.9164 39.4218 30.0052C39.5176 30.3742 39.8486 30.5921 40.2383 30.5522C40.6149 30.5132 40.8882 30.1958 40.8891 29.7647C40.8934 27.8198 40.8934 25.8754 40.8891 23.9305C40.8882 23.4248 40.5905 23.128 40.0867 23.1271C38.1267 23.1233 36.1668 23.1238 34.2069 23.1271C33.7434 23.128 33.4147 23.4468 33.4199 23.8723C33.4251 24.293 33.7444 24.5987 34.1965 24.6029C34.7746 24.6081 35.3521 24.6048 35.9301 24.6048C36.7091 24.6048 37.4881 24.6048 38.2671 24.6048L38.2676 24.6038Z" fill="#5072EB"/>
<rect x="0.5" y="0.5" width="63" height="63" stroke="#D7DCE5"/>
</svg>
