<svg width="64" height="64" viewBox="0 0 64 64" fill="none" xmlns="http://www.w3.org/2000/svg">
<rect x="0.5" y="0.5" width="63" height="63" fill="white"/>
<path d="M44 34.6271V34.8189C44 35.1546 43.8801 35.4663 43.6643 35.706C43.3048 34.8428 42.7054 34.0996 41.9141 33.596C41.1229 33.0925 40.1879 32.8528 39.2528 32.9008C38.3177 32.9488 37.4066 33.3084 36.6873 33.8839C35.9441 34.4833 35.4165 35.2745 35.1767 36.1857L21.3665 36.1855C21.007 36.1855 20.6713 36.0417 20.4076 35.7779C20.1438 35.5142 20 35.1785 20 34.819C20.0239 33.2365 20.6472 31.7499 21.7502 30.6471C22.8532 29.5441 24.3396 28.9208 25.898 28.9208C25.898 27.5541 26.3775 26.2355 27.2167 25.1565C28.056 24.0776 29.2307 23.3103 30.5494 22.9746C31.8681 22.639 33.2827 22.7348 34.5295 23.2623C35.7763 23.7898 36.8313 24.7248 37.5026 25.9236C38.3418 25.9716 39.1328 26.3312 39.7084 26.9306C40.2838 27.53 40.6195 28.3452 40.6195 29.1844V29.4002C41.6265 29.8558 42.4896 30.575 43.089 31.5101C43.6883 32.4453 44 33.5242 44 34.6272L44 34.6271Z" fill="#5072EB"/>
<path d="M39.4923 33.5249C38.725 33.5249 37.9818 33.7407 37.3585 34.1723C36.7351 34.6038 36.2316 35.2032 35.9439 35.8986C35.6562 36.5938 35.5843 37.3851 35.7282 38.1283C35.872 38.8715 36.2556 39.5669 36.7832 40.0944C37.3346 40.6458 38.0059 41.0055 38.7493 41.1494C39.4925 41.2932 40.2837 41.2213 40.979 40.9336C41.6742 40.646 42.2977 40.1424 42.7052 39.5191C43.1367 38.8958 43.3526 38.1285 43.3526 37.3852C43.3526 36.3543 42.9451 35.3713 42.2258 34.6519C41.5064 33.9325 40.5234 33.5249 39.4923 33.5249ZM41.0029 38.392C41.0748 38.464 41.1228 38.5839 41.1228 38.7038C41.1228 38.8237 41.0748 38.9195 40.9789 38.9914C40.907 39.0634 40.7871 39.1114 40.6672 39.1114C40.5473 39.1114 40.4515 39.0634 40.3795 38.9675L39.4925 38.0086L38.6054 38.9675C38.5335 39.0394 38.4136 39.0874 38.3177 39.1114C38.1978 39.1114 38.102 39.0874 38.006 38.9914C37.9341 38.9195 37.8622 38.7996 37.8622 38.7038C37.8622 38.5839 37.8861 38.488 37.9821 38.392L38.9171 37.3612L37.9821 36.3303C37.9102 36.2584 37.8622 36.1384 37.8622 36.0185C37.8622 35.8986 37.9102 35.8028 38.006 35.7309C38.0779 35.659 38.1978 35.611 38.3177 35.611C38.4377 35.611 38.5335 35.659 38.6054 35.7548L39.4925 36.7137L40.3795 35.7548C40.4275 35.7068 40.4515 35.6829 40.5234 35.659C40.5714 35.635 40.6192 35.611 40.6913 35.611C40.7393 35.611 40.8112 35.611 40.8592 35.6349C40.9072 35.6588 40.955 35.6829 41.003 35.7307C41.051 35.7787 41.0749 35.8026 41.0989 35.8745C41.1228 35.9225 41.1469 35.9704 41.1469 36.0425C41.1469 36.0905 41.1469 36.1624 41.1229 36.2104C41.099 36.2584 41.0749 36.3062 41.0271 36.3542L40.092 37.3851L41.0029 38.392Z" fill="#5072EB"/>
<rect x="0.5" y="0.5" width="63" height="63" stroke="#D7DCE5"/>
</svg>
