<svg width="64" height="65" viewBox="0 0 64 65" fill="none" xmlns="http://www.w3.org/2000/svg">
<rect x="0.5" y="0.650879" width="63" height="63" fill="white"/>
<path d="M37.0851 27.6209C37.0364 27.4409 36.9651 27.2684 36.8714 27.107C36.8227 27.0207 36.8265 26.9157 36.8752 26.8296L37.2389 26.2033L36.8565 25.817L36.2339 26.1845C36.1477 26.2332 36.0426 26.2332 35.9565 26.1845C35.7915 26.0944 35.6228 26.0233 35.4464 25.9746C35.349 25.9482 35.2739 25.8695 35.2477 25.7757L35.064 25.0745H34.5239L34.3402 25.7757C34.314 25.8694 34.2389 25.9482 34.1453 25.9744C33.9689 26.0231 33.7965 26.0944 33.6352 26.1843C33.5489 26.2368 33.4403 26.233 33.354 26.1843L32.7315 25.8168L32.349 26.2031L32.7127 26.8294C32.7614 26.9157 32.7652 27.0207 32.7165 27.1068C32.6228 27.2682 32.5515 27.4406 32.5028 27.6207C32.4764 27.7183 32.4013 27.7932 32.3039 27.8196L31.6064 27.9995V28.547L32.3039 28.7309C32.4013 28.7535 32.4764 28.8322 32.5026 28.9258C32.5513 29.1058 32.6226 29.2783 32.7163 29.4395C32.765 29.5258 32.7612 29.6344 32.7125 29.7207L32.3488 30.3432L32.7313 30.7295L33.3538 30.3656C33.4401 30.3131 33.5487 30.3131 33.635 30.3618C33.7962 30.4555 33.9687 30.5268 34.1451 30.5755C34.2387 30.6019 34.3138 30.6768 34.34 30.7742L34.5238 31.4756H35.0638L35.2475 30.7742C35.2737 30.6768 35.3488 30.6017 35.4463 30.5755C35.6226 30.5268 35.7914 30.4555 35.9563 30.3618C36.0426 30.3131 36.1477 30.3131 36.2337 30.3656L36.8563 30.7295L37.2387 30.3432L36.8752 29.7209C36.8265 29.6346 36.8227 29.526 36.8714 29.4397C36.9651 29.2783 37.0364 29.106 37.0851 28.926C37.1113 28.8323 37.1864 28.7535 37.2839 28.7311L37.9813 28.5473V27.9999L37.2839 27.8199C37.1864 27.7932 37.1115 27.7183 37.0851 27.6209ZM34.794 29.6382C34.0477 29.6382 33.4365 29.027 33.4365 28.2731C33.4365 27.5232 34.0478 26.9119 34.794 26.9119C35.5439 26.9119 36.1515 27.5232 36.1515 28.2731C36.1515 29.027 35.5439 29.6382 34.794 29.6382Z" fill="#5072EB"/>
<path d="M39.9992 26.2448C40.003 26.1547 40.0068 26.0648 40.0068 25.971C40.0068 22.7609 37.4418 20.1509 34.2879 20.1509C31.8354 20.1509 29.6493 21.7672 28.8726 24.1109C28.5614 24.0397 28.2426 24.0022 27.9239 24.0022C25.7789 24.0022 24.0239 25.6297 23.8026 27.7634C23.7125 27.756 23.6264 27.7522 23.5326 27.7522C21.5863 27.7522 20 29.3609 20 31.3373C20 33.3174 21.5863 34.9298 23.5326 34.9298H26.5439C26.4051 34.6111 26.4688 34.2436 26.7164 33.9962L27.8714 32.8486C28.029 32.6874 28.2427 32.6011 28.4675 32.6011C28.6137 32.6011 28.7601 32.6385 28.8875 32.7098L29.8551 33.276C29.9338 33.2423 30.0089 33.2085 30.0876 33.1823L30.3688 32.1136C30.4701 31.7386 30.8076 31.4835 31.1862 31.4835H32.8175C33.1962 31.4835 33.5337 31.7386 33.635 32.1061L33.9162 33.1785C33.9911 33.2085 34.0699 33.2385 34.1486 33.276L35.1124 32.7134C35.2437 32.6383 35.3899 32.601 35.5362 32.601C35.7613 32.601 35.975 32.6872 36.1326 32.8484L37.2875 33.996C37.5312 34.2434 37.5987 34.6185 37.4675 34.9297H39.725C42.0839 34.9297 44 32.9796 44 30.5833C44.0002 28.2809 42.2301 26.391 39.9989 26.2448L39.9992 26.2448ZM38.5443 28.7646C38.5443 28.892 38.458 29.0046 38.3342 29.0346L37.5766 29.2335C37.5391 29.3497 37.4941 29.4622 37.4378 29.571L37.8353 30.2498C37.899 30.3585 37.8802 30.4973 37.7903 30.5874L37.1003 31.2812C37.0102 31.3712 36.8716 31.3898 36.759 31.3261L36.084 30.9287C35.9789 30.985 35.8665 31.0299 35.754 31.0675L35.5553 31.8288C35.5215 31.9526 35.4091 32.0389 35.2815 32.0389H34.3065C34.179 32.0389 34.0664 31.9526 34.0326 31.8288L33.8377 31.0675C33.7215 31.0299 33.6126 30.9812 33.504 30.9287L32.829 31.3261C32.7165 31.3898 32.5777 31.3712 32.4877 31.2812L31.7976 30.5874C31.7076 30.4973 31.689 30.3587 31.7527 30.2498L32.1501 29.571C32.0938 29.4622 32.0489 29.3497 32.0113 29.2335L31.2538 29.0348C31.13 29.0048 31.0437 28.8922 31.0437 28.7648V27.7859C31.0437 27.6585 31.13 27.5459 31.2538 27.5121L32.0113 27.3134C32.0489 27.1972 32.0938 27.0847 32.1501 26.9759L31.7527 26.3009C31.689 26.1884 31.7077 26.0496 31.7976 25.9596L32.4877 25.2657C32.5777 25.1757 32.7163 25.1569 32.829 25.2244L33.504 25.6181C33.6128 25.5655 33.7215 25.5206 33.8377 25.4794L34.0326 24.7219C34.0666 24.5983 34.179 24.5122 34.3066 24.5122H35.2817C35.4091 24.5122 35.5217 24.5984 35.5555 24.7223L35.7542 25.4798C35.8666 25.521 35.9793 25.5661 36.0879 25.6184L36.7592 25.2246C36.8716 25.1571 37.0104 25.1759 37.1005 25.2659L37.7903 25.9596C37.8804 26.0496 37.899 26.1883 37.8353 26.3009L37.4378 26.9759C37.4941 27.0846 37.5391 27.197 37.5766 27.3134L38.3342 27.5121C38.458 27.5459 38.5443 27.6583 38.5443 27.7859V28.7646Z" fill="#5072EB"/>
<path d="M37.8878 37.0143L36.5191 36.6618C36.4404 36.4144 36.3428 36.1743 36.2229 35.9419L36.9355 34.7344C36.9992 34.6219 36.9805 34.4831 36.8906 34.3931L35.7356 33.2455C35.6456 33.1554 35.5069 33.1367 35.3943 33.2004L34.1756 33.9092C33.9432 33.7891 33.6993 33.6879 33.4481 33.613L33.0918 32.2555C33.058 32.1317 32.9456 32.0454 32.818 32.0454H31.1867C31.0593 32.0454 30.9466 32.1317 30.9129 32.2555L30.5566 33.613C30.3054 33.6917 30.0653 33.7891 29.829 33.9092L28.6104 33.2004C28.4979 33.1367 28.3591 33.1554 28.2691 33.2455L27.1141 34.3931C27.024 34.4831 27.0053 34.6217 27.0692 34.7344L27.7814 35.9419C27.6613 36.1743 27.5639 36.4144 27.4852 36.6618L26.1163 37.0143C25.9925 37.0481 25.9062 37.1605 25.9062 37.2881V38.9119C25.9062 39.0393 25.9925 39.1519 26.1163 39.1819L27.4852 39.5382C27.5639 39.7858 27.6613 40.0257 27.7814 40.2545L27.0688 41.462C27.0051 41.5745 27.0238 41.7133 27.1139 41.807L28.2689 42.9545C28.3589 43.0446 28.4976 43.0596 28.6102 42.9959L29.8289 42.2871C30.0651 42.4109 30.3052 42.5083 30.5564 42.587L30.9127 43.9409C30.9465 44.0645 31.0589 44.1508 31.1863 44.1508H32.8176C32.945 44.1508 33.0577 44.0645 33.0914 43.9409L33.4477 42.587C33.699 42.5083 33.939 42.4109 34.1753 42.2908L35.3939 42.9959C35.5064 43.0596 35.6452 43.0446 35.7353 42.9545L36.8902 41.807C36.9803 41.7133 36.9989 41.5745 36.9352 41.4619L36.2226 40.2544C36.3426 40.0257 36.4401 39.7856 36.5188 39.5382L37.8878 39.1821C38.0116 39.1521 38.0979 39.0395 38.0979 38.912V37.2883C38.0977 37.1607 38.0114 37.0481 37.8878 37.0143ZM32.0039 40.8245C30.4851 40.8245 29.2553 39.6058 29.2553 38.0982C29.2553 36.5943 30.4853 35.3719 32.0039 35.3719C33.519 35.3719 34.749 36.5943 34.749 38.0982C34.7489 39.6057 33.519 40.8245 32.0039 40.8245Z" fill="#5072EB"/>
<rect x="0.5" y="0.650879" width="63" height="63" stroke="#D7DCE5"/>
</svg>
