<svg width="925" height="514" viewBox="0 0 925 514" fill="none" xmlns="http://www.w3.org/2000/svg">
<g opacity="0.2" clip-path="url(#clip0_401_126)">
<mask id="mask0_401_126" style="mask-type:alpha" maskUnits="userSpaceOnUse" x="0" y="0" width="1219" height="654">
<path fill-rule="evenodd" clip-rule="evenodd" d="M1218.97 118.406V178.025C1205.36 166.091 1186.62 157.169 1170.29 149.691C1158.6 144.339 1146.48 140.391 1133.92 137.7C1111.18 132.827 1088.29 128.549 1065.38 124.271C1027.83 117.255 990.249 110.236 953.297 100.576C942.936 97.8659 932.714 94.8969 922.527 91.9378C896.141 84.2744 869.983 76.6766 842.195 73.8185C812.497 70.7685 783.037 72.7081 754.123 80.2144C727.757 87.0602 702.255 97.0298 676.854 106.96L676.845 106.964C670.349 109.503 663.86 112.04 657.365 114.521C620.384 128.647 583.185 142.389 545.134 153.343C510.039 163.443 476.675 179.455 448.43 202.827C425.467 221.826 406.35 244.781 387.325 267.624C385.088 270.311 382.851 272.997 380.61 275.675C352.169 309.647 322.157 341.952 288.136 370.425C268.974 386.461 249.433 402.148 229.854 417.669C218.164 426.935 206.551 436.261 197.158 447.961C183.327 465.19 174.147 485.603 165.128 505.659C164.461 507.142 163.795 508.623 163.127 510.102C159.564 518.002 156.053 525.931 152.54 533.863C146.369 547.796 140.195 561.737 133.735 575.54C121.648 601.371 111.331 626.853 102.644 653.265H0C8.38682 624.322 17.9247 595.857 29.3345 567.714C34.2937 555.477 39.059 543.061 43.8379 530.609C57.3163 495.492 70.9045 460.089 89.2612 427.596C106.871 396.433 133.617 380.296 163.129 362.488L163.159 362.471C164.414 361.714 165.674 360.954 166.938 360.189C174.726 355.479 182.622 351.033 190.506 346.592V346.591C205.93 337.904 221.312 329.24 235.76 318.686C255.286 304.419 273.273 288.136 289.472 270.162C305.255 252.647 318.912 232.567 332.615 212.418C358.266 174.703 384.078 136.751 424.299 114.958C445.439 103.505 468.182 98.9373 491.05 94.3446C504.779 91.5871 518.554 88.8207 532.056 84.5494C572.341 71.811 611.378 55.7413 650.086 38.852C653.482 37.3704 656.882 35.8753 660.284 34.3783C686.127 23.0096 712.221 11.5309 739.719 5.00082C769.291 -2.02058 799.356 -1.4387 828.908 5.43241C853.173 11.0756 875.273 21.6682 897.449 32.2968C911.058 38.8198 924.696 45.3565 938.88 50.7709C964.205 60.44 990.294 65.3667 1016.98 69.5222C1051.08 74.8319 1084.73 79.681 1119.17 82.0279C1150.43 84.1566 1176.68 92.6959 1203.93 108.387C1209.35 111.51 1214.26 114.885 1218.97 118.406ZM1218.97 221.812V282.74C1214.5 279.081 1210.11 275.324 1205.93 271.369C1196.23 262.192 1182.72 255.199 1170.29 248.765C1167.69 247.419 1165.14 246.095 1162.68 244.784C1151.37 238.753 1139.69 233.611 1127.6 229.354C1095.92 218.196 1062.98 208.43 1030.22 201.019C1004.01 195.095 977.394 194.002 950.657 192.905C949.284 192.848 947.911 192.792 946.537 192.735C941.404 192.522 936.263 192.29 931.119 192.058L931.104 192.057C900.477 190.675 869.699 189.287 839.141 191.788C808.415 194.304 778.742 202.086 749.469 211.466C677.479 234.524 605.836 264.187 542.988 306.806C514.233 326.3 489.103 350.064 466.26 376.148C453.457 390.77 441.677 406.341 429.899 421.911H429.898C413.381 443.748 396.863 465.583 377.52 484.798C376.03 486.279 374.538 487.748 373.05 489.215L373.006 489.257L372.988 489.274C362.921 499.188 353.029 508.929 345.074 520.824C334.902 536.029 326.815 552.66 318.782 569.18V569.182L318.78 569.183V569.184C316.142 574.609 313.51 580.021 310.813 585.367C306.446 594.018 301.447 602.286 296.45 610.552C292.172 617.628 287.894 624.703 284.013 632.018C280.368 638.893 277.271 646.004 274.553 653.265H172.222C175.076 644.604 178.273 636.063 181.983 627.721C186.414 617.761 191.628 608.191 196.841 598.619C199.969 592.88 203.095 587.14 206.053 581.316C211.322 570.937 216.192 560.132 221.09 549.265V549.264C234.579 519.338 248.285 488.928 271.147 465.564C276.949 459.637 283.066 454.031 289.185 448.425L289.187 448.423C295.041 443.058 300.897 437.692 306.48 432.041C325.418 412.874 343.636 392.856 361.77 372.93L361.978 372.701C369.958 363.932 377.842 355.061 385.729 346.188C404.035 325.592 422.351 304.982 441.909 285.598C493.576 234.398 556 204.906 623.445 179.675C660.131 165.95 697.16 152.509 734.497 140.647C762.447 131.768 790.864 125.058 820.233 123.523C856.74 121.611 893.417 125.695 929.393 131.469C937.522 132.773 945.666 134.003 953.811 135.232C974.344 138.332 994.886 141.434 1015.2 145.73C1039.72 150.919 1064.01 157.31 1088.27 163.694C1097.83 166.21 1107.39 168.724 1116.96 171.164C1146.56 178.709 1172.65 191.001 1198.75 206.826C1206.05 211.253 1212.53 216.478 1218.97 221.812ZM1218.97 384.058V322.403C1202.95 309.144 1186.32 296.848 1168.15 286.564C1147.95 275.129 1126.91 267.33 1104.75 260.63C1100.99 259.493 1097.23 258.34 1093.46 257.186L1093.46 257.184H1093.46C1070.52 250.158 1047.37 243.064 1023.74 239.188C996.938 234.789 969.214 234.175 941.877 233.571H941.874L941.871 233.569C935.302 233.425 928.756 233.279 922.25 233.083C891.279 232.145 860.322 232.358 829.847 238.583C756.627 253.535 685.276 284.807 620.569 321.629C591.059 338.418 563.923 358.315 540.015 382.515C521.238 401.519 505.083 422.57 488.927 443.622L488.926 443.624C476.744 459.498 464.562 475.372 451.254 490.371C446.046 496.242 440.358 501.651 434.673 507.057C428.191 513.22 421.715 519.379 415.955 526.215C401.852 542.962 391.54 564.013 382.228 583.614C376.342 596.004 369.434 607.585 362.491 619.224C359.461 624.3 356.427 629.388 353.467 634.56C350.007 640.606 347.049 646.866 344.443 653.265H447.327C449.667 648.322 452.297 643.479 455.298 638.758C467.249 619.951 477.725 600.607 487.958 580.813C496.301 564.666 506.187 551.19 519.571 539.005C536.888 523.23 550.697 505.55 564.946 486.989C589.364 455.18 615.116 423.758 647.139 399.286C677.343 376.202 711.962 359.204 746.109 342.894C808.115 313.275 874.85 294.453 943.669 296.112C949.466 296.252 955.31 296.346 961.18 296.441C988.952 296.889 1017.34 297.347 1044.38 302.618C1076.51 308.878 1110.37 318.267 1140.58 331.032C1156.42 337.723 1176.18 346.623 1188.93 358.179C1193.61 362.417 1198.5 366.518 1203.41 370.633L1203.42 370.635C1208.66 375.031 1213.93 379.444 1218.97 384.058ZM1218.97 424.435V532.157C1218.02 527.185 1217.24 522.139 1216.62 517.011C1216.38 515.088 1216.17 513.154 1215.97 511.214C1215 502.217 1214.03 493.122 1210.38 484.798C1205.28 473.112 1196.25 465.335 1187.07 457.43L1187.06 457.427C1184.51 455.226 1181.94 453.014 1179.44 450.705C1168.07 440.193 1156.22 431.98 1142.04 425.204C1129.08 419.016 1115.15 415.047 1101.36 411.118L1101.34 411.111C1099.01 410.447 1096.68 409.784 1094.36 409.111C1079.84 404.896 1065.29 400.821 1050.21 399.33C1016.5 396.001 980.044 393.863 946.357 398.221C911.836 402.689 875.919 415.545 844.478 430.333C810.072 446.513 775.43 464.533 747.599 491.122C730.983 507.003 716.563 525.146 702.65 543.459C690.075 560.007 676.963 573.152 662.157 587.341C651.452 597.596 644.614 610.849 637.791 624.068C634.065 631.29 630.343 638.502 626 645.209C624.232 647.935 622.557 650.612 620.969 653.265H516.666C518.765 649.269 521.073 645.327 523.636 641.43C530.422 631.101 536.111 620.177 541.798 609.258C547.099 599.078 552.399 588.903 558.583 579.217C564.917 569.291 573.045 561.742 581.34 554.039C584.393 551.203 587.47 548.346 590.488 545.341C602.454 533.433 612.611 519.74 622.748 506.071C628.406 498.443 634.057 490.824 640.014 483.528C663.581 454.657 689.742 429.44 721.444 409.995C754.493 389.724 789.778 372.353 826.215 359.438C858.599 347.955 891.243 336.603 925.72 334.368C960.875 332.087 997.419 333.908 1032.49 336.971C1064.73 339.786 1097.23 350.465 1127.67 361.135C1140.74 365.714 1152.94 371.912 1164.88 378.977C1179.82 387.814 1192.59 399.23 1205.58 410.83L1205.58 410.831L1206.87 411.981C1211.34 415.972 1215.39 420.085 1218.97 424.435ZM1218.97 653.265V598.208C1209.43 580.208 1204.13 562.359 1202.05 542.004C1201.89 540.451 1201.75 538.895 1201.61 537.34C1200.76 527.979 1199.91 518.618 1195.35 510.199C1189.18 498.819 1177.94 489.126 1168 480.548C1166.64 479.374 1165.3 478.221 1164 477.088C1153.18 467.616 1136.86 461.04 1123.38 456.554C1106.02 450.783 1088.03 445.027 1070.01 441.867C1058.11 439.781 1045.95 439.458 1033.86 439.136C1030.36 439.043 1026.87 438.949 1023.39 438.814C987.659 437.426 956.444 440.321 922.409 451.848C885.301 464.421 848.149 480.807 816.358 504.338C800.316 516.215 786.528 530.682 773.816 546.106C769.524 551.314 765.436 556.679 761.355 562.037C751.573 574.877 741.83 587.668 729.401 598.115C716.565 608.898 709.156 622.183 701.313 636.247C699.437 639.611 697.536 643.019 695.53 646.449C694.159 648.795 692.664 651.042 691.125 653.265H795.133C795.391 652.835 795.648 652.408 795.903 651.982C802.743 640.585 808.831 630.442 819.712 621.415C828.943 613.763 836.194 604.15 843.435 594.548C846.893 589.964 850.349 585.382 854.017 581.017C863.925 569.225 874.712 558.321 887.192 549.345C912.096 531.428 940.71 518.884 969.561 509.285C995.757 500.57 1019.9 499.044 1047.31 500.064C1073.93 501.05 1097.57 505.109 1123 513.746C1133.42 517.285 1145.1 522.398 1153.67 529.465C1161.69 536.075 1172.04 545.449 1176.7 555.131C1179.7 561.356 1180.08 568.159 1180.47 574.942C1180.55 576.388 1180.64 577.832 1180.74 579.27C1181.94 595.328 1185.88 608.975 1193.7 623.011C1194.98 625.309 1196.37 627.593 1197.77 629.892C1201.68 636.288 1205.65 642.795 1207.4 650.035C1207.66 651.106 1207.87 652.18 1208.04 653.265H1218.97Z" fill="white"/>
</mask>
<g mask="url(#mask0_401_126)">
<path d="M1218.97 178.025L1217.72 179.455L1220.87 182.219V178.025H1218.97ZM1218.97 118.406H1220.87V117.452L1220.11 116.882L1218.97 118.406ZM1170.29 149.691L1169.5 151.42L1170.29 149.691ZM1133.92 137.7L1134.32 135.841L1133.92 137.7ZM1065.38 124.271L1065.73 122.402L1065.38 124.271ZM953.297 100.576L952.817 102.415L953.297 100.576ZM922.526 91.9379L923.056 90.1122L922.526 91.9379ZM842.195 73.8185L842.389 71.9274L842.195 73.8185ZM754.123 80.2144L753.646 78.3742V78.3743L754.123 80.2144ZM676.854 106.96L677.541 108.733L677.546 108.731L676.854 106.96ZM676.845 106.964L676.158 105.191L676.153 105.193L676.845 106.964ZM657.364 114.522L658.042 116.298V116.297L657.364 114.522ZM545.134 153.343L545.66 155.17L545.134 153.343ZM448.43 202.827L449.641 204.293L448.43 202.827ZM387.325 267.624L385.864 266.407L387.325 267.624ZM380.61 275.675L379.152 274.454L380.61 275.675ZM288.136 370.425L289.356 371.883L288.136 370.425ZM229.854 417.669L231.035 419.16L229.854 417.669ZM197.158 447.961L195.676 446.771L197.158 447.961ZM165.128 505.659L163.394 504.878L165.128 505.659ZM163.127 510.102L161.395 509.319V509.32L163.127 510.102ZM152.54 533.863L154.277 534.632L152.54 533.863ZM133.735 575.54L132.013 574.734L133.735 575.54ZM102.644 653.265V655.166H104.02L104.45 653.859L102.644 653.265ZM9.53674e-07 653.265L-1.82556 652.736L-2.52979 655.166H9.53674e-07V653.265ZM29.3345 567.714L31.096 568.427L29.3345 567.714ZM43.8379 530.609L45.6124 531.29L43.8379 530.609ZM89.2612 427.596L87.6065 426.66H87.6064L89.2612 427.596ZM163.129 362.488L164.111 364.116H164.113L163.129 362.488ZM163.159 362.471L162.178 360.843L162.175 360.845L163.159 362.471ZM166.938 360.189L167.922 361.815L166.938 360.189ZM190.506 346.592L189.611 344.914L189.592 344.924L189.573 344.936L190.506 346.592ZM190.506 346.591L191.4 348.269L191.419 348.259L191.438 348.247L190.506 346.591ZM235.76 318.686L236.881 320.22L235.76 318.686ZM289.472 270.162L288.059 268.888L289.472 270.162ZM332.615 212.418L334.186 213.488L332.615 212.418ZM424.299 114.958L423.394 113.286V113.286L424.299 114.958ZM491.05 94.3446L490.676 92.4806L491.05 94.3446ZM532.056 84.5494L531.482 82.7367V82.7369L532.056 84.5494ZM650.086 38.8521L649.326 37.1095L650.086 38.8521ZM660.284 34.3784L659.519 32.6381L660.284 34.3784ZM739.719 5.00086L739.28 3.15111V3.15112L739.719 5.00086ZM828.908 5.43245L829.338 3.58068V3.58066L828.908 5.43245ZM897.449 32.2969L898.27 30.5824L897.449 32.2969ZM938.88 50.771L939.558 48.9949L939.557 48.9948L938.88 50.771ZM1016.98 69.5223L1016.69 71.4009L1016.98 69.5223ZM1119.17 82.028L1119.04 83.9247L1119.17 82.028ZM1203.93 108.387L1204.87 106.74L1203.93 108.387ZM1218.97 282.74L1217.77 284.211L1220.87 286.749V282.74H1218.97ZM1218.97 221.812H1220.87V220.919L1220.19 220.349L1218.97 221.812ZM1205.93 271.369L1207.23 269.989L1205.93 271.369ZM1170.29 248.765L1171.17 247.076L1170.29 248.765ZM1162.68 244.784L1163.57 243.106L1162.68 244.784ZM1127.6 229.354L1128.23 227.56L1127.6 229.354ZM1030.22 201.019L1030.64 199.165L1030.22 201.019ZM950.657 192.905L950.579 194.803L950.657 192.905ZM946.537 192.735L946.617 190.835L946.537 192.735ZM931.119 192.058L931.03 193.957H931.033L931.119 192.058ZM931.104 192.057L931.194 190.158H931.19L931.104 192.057ZM839.141 191.788L838.986 189.893L839.141 191.788ZM749.469 211.466L750.05 213.278L749.469 211.466ZM542.988 306.806L544.055 308.38L542.988 306.806ZM466.26 376.148L464.83 374.895L466.26 376.148ZM429.899 421.911L428.384 420.764L428.35 420.809L428.318 420.857L429.899 421.911ZM429.898 421.911L431.415 423.059L431.449 423.014L431.48 422.966L429.898 421.911ZM377.52 484.798L376.181 483.449H376.18L377.52 484.798ZM373.05 489.215L374.383 490.57L373.05 489.215ZM373.006 489.257L374.337 490.614L374.339 490.613L373.006 489.257ZM372.988 489.274L371.657 487.917L371.655 487.92L372.988 489.274ZM345.074 520.824L346.655 521.881L345.074 520.824ZM318.782 569.18L320.482 570.031L320.487 570.022L320.491 570.012L318.782 569.18ZM318.78 569.183L317.081 568.332L317.066 568.362L317.053 568.391L318.78 569.183ZM318.78 569.184L320.49 570.016L320.499 569.997L320.507 569.976L318.78 569.184ZM310.813 585.367L312.509 586.224L310.813 585.367ZM296.45 610.552L298.077 611.536L296.45 610.552ZM284.013 632.018L282.334 631.127L284.013 632.018ZM274.553 653.265V655.166H275.87L276.332 653.932L274.553 653.265ZM172.222 653.265L170.417 652.67L169.594 655.166H172.222V653.265ZM181.983 627.721L180.246 626.948V626.949L181.983 627.721ZM196.841 598.619L198.511 599.529L196.841 598.619ZM206.053 581.316L207.747 582.178L207.749 582.177L206.053 581.316ZM221.09 549.265L219.39 548.415L219.373 548.449L219.357 548.483L221.09 549.265ZM221.09 549.264L222.791 550.114L222.807 550.08L222.824 550.044L221.09 549.264ZM271.147 465.564L269.79 464.235L271.147 465.564ZM289.185 448.425L287.907 447.018L287.901 447.023L289.185 448.425ZM289.187 448.424L290.465 449.83L290.47 449.825L289.187 448.424ZM306.48 432.041L305.13 430.703H305.128L306.48 432.041ZM361.77 372.93L360.365 371.649V371.651L361.77 372.93ZM361.978 372.701L363.383 373.982L363.384 373.98L361.978 372.701ZM385.729 346.188L387.149 347.451L385.729 346.188ZM441.909 285.598L440.571 284.247L441.909 285.598ZM623.445 179.675L624.11 181.456H624.111L623.445 179.675ZM734.497 140.647L733.922 138.836L734.497 140.647ZM820.233 123.523L820.332 125.421H820.333L820.233 123.523ZM929.393 131.469L929.091 133.346L929.393 131.469ZM953.81 135.232L953.527 137.113L953.81 135.232ZM1015.2 145.731L1015.59 143.871L1015.2 145.731ZM1088.27 163.694L1088.76 161.856L1088.27 163.694ZM1116.96 171.164L1116.49 173.006L1116.96 171.164ZM1198.75 206.826L1197.76 208.452L1198.75 206.826ZM1218.97 322.403H1220.87V321.508L1220.18 320.938L1218.97 322.403ZM1218.97 384.058L1217.69 385.461L1220.87 388.373V384.058H1218.97ZM1168.15 286.564L1169.09 284.908L1168.15 286.564ZM1104.75 260.63L1104.2 262.451L1104.75 260.63ZM1093.46 257.186L1092.89 259.001L1092.9 259.003L1093.46 257.186ZM1093.46 257.184L1092.85 258.988L1092.87 258.994L1092.89 258.999L1093.46 257.184ZM1093.46 257.184L1094.06 255.381L1094.03 255.373L1094.01 255.367L1093.46 257.184ZM1023.74 239.188L1023.44 241.064L1023.74 239.188ZM941.877 233.571L941.834 235.47H941.835L941.877 233.571ZM941.874 233.571L941.825 235.47H941.831L941.874 233.571ZM941.87 233.569L941.92 231.669H941.912L941.87 233.569ZM922.25 233.083L922.193 234.984L922.25 233.083ZM829.847 238.583L830.227 240.445L829.847 238.583ZM620.569 321.629L621.508 323.281L620.569 321.629ZM540.015 382.515L541.367 383.851L540.015 382.515ZM488.927 443.622L490.411 444.81L490.424 444.795L490.435 444.78L488.927 443.622ZM488.926 443.624L487.442 442.436L487.39 442.501L487.344 442.569L488.926 443.624ZM488.926 443.624L490.434 444.782L490.472 444.731L490.507 444.679L488.926 443.624ZM451.254 490.371L449.833 489.11L451.254 490.371ZM434.673 507.057L433.362 505.679L433.346 505.695L433.328 505.712L434.673 507.057ZM434.673 507.057L435.982 508.436L435.999 508.419L436.016 508.401L434.673 507.057ZM415.955 526.215L414.501 524.99L415.955 526.215ZM382.228 583.614L380.511 582.798L382.228 583.614ZM362.491 619.224L360.859 618.249L362.491 619.224ZM353.467 634.56L351.817 633.615V633.616L353.467 634.56ZM344.443 653.265L342.683 652.548L341.618 655.166H344.443V653.265ZM447.327 653.265V655.166H448.53L449.044 654.079L447.327 653.265ZM455.298 638.758L456.902 639.778L455.298 638.758ZM487.958 580.813L489.647 581.686L487.958 580.813ZM519.571 539.005L520.851 540.411L519.571 539.005ZM564.946 486.989L563.438 485.832L564.946 486.989ZM647.139 399.286L648.293 400.797L647.139 399.286ZM746.109 342.894L745.29 341.178L746.109 342.894ZM943.668 296.112L943.623 298.012L943.668 296.112ZM961.18 296.441L961.15 298.342L961.18 296.441ZM1044.38 302.618L1044.02 304.484L1044.38 302.618ZM1140.58 331.032L1139.84 332.783L1140.58 331.032ZM1188.93 358.179L1187.66 359.587V359.589L1188.93 358.179ZM1203.41 370.633L1202.19 372.091L1202.21 372.101L1202.22 372.11L1203.41 370.633ZM1203.42 370.636L1204.64 369.178L1204.63 369.169L1204.62 369.16L1203.42 370.636ZM1218.97 532.157L1217.11 532.516L1220.87 532.157H1218.97ZM1218.97 424.435H1220.87V423.751L1220.44 423.225L1218.97 424.435ZM1216.62 517.011L1218.5 516.782L1216.62 517.011ZM1215.97 511.214L1214.08 511.417L1215.97 511.214ZM1210.38 484.798L1208.64 485.558V485.56L1210.38 484.798ZM1187.07 457.43L1185.81 458.861L1185.82 458.87L1187.07 457.43ZM1187.06 457.427L1188.31 455.996L1188.3 455.988L1187.06 457.427ZM1179.44 450.705L1178.15 452.102L1179.44 450.705ZM1142.04 425.204L1142.86 423.489L1142.04 425.204ZM1101.36 411.118L1100.84 412.945H1100.84L1101.36 411.118ZM1101.34 411.111L1101.86 409.284L1101.86 409.282L1101.34 411.111ZM1094.36 409.111L1093.84 410.938L1094.36 409.111ZM1050.21 399.33L1050.39 397.438L1050.21 399.33ZM946.357 398.221L946.602 400.107L946.357 398.221ZM844.478 430.333L845.286 432.053L844.478 430.333ZM747.599 491.122L746.286 489.747L747.599 491.122ZM702.65 543.459L704.163 544.61V544.608L702.65 543.459ZM662.157 587.341L663.472 588.715L662.157 587.341ZM637.791 624.068L639.48 624.94L637.791 624.068ZM625.999 645.209L627.594 646.243H627.595L625.999 645.209ZM620.969 653.265V655.166H622.046L622.6 654.242L620.969 653.265ZM516.666 653.265L514.983 652.38L513.519 655.166H516.666V653.265ZM523.636 641.43L525.224 642.474L525.225 642.473L523.636 641.43ZM541.798 609.258L540.113 608.38L541.798 609.258ZM558.583 579.217L560.185 580.241V580.24L558.583 579.217ZM581.34 554.039L580.046 552.645L581.34 554.039ZM590.488 545.341L589.148 543.994H589.146L590.488 545.341ZM622.748 506.071L621.221 504.939L622.748 506.071ZM640.014 483.528L638.541 482.325L640.014 483.528ZM721.444 409.995L720.451 408.374H720.449L721.444 409.995ZM826.215 359.438L826.85 361.23L826.215 359.438ZM925.72 334.368L925.843 336.265L925.72 334.368ZM1032.49 336.971L1032.33 338.866L1032.49 336.971ZM1127.67 361.135L1127.04 362.928L1127.67 361.135ZM1164.88 378.977L1163.91 380.613H1163.91L1164.88 378.977ZM1205.58 410.83L1204.31 412.248L1204.32 412.255L1204.33 412.261L1205.58 410.83ZM1205.58 410.831L1206.84 409.413L1206.84 409.407L1206.83 409.4L1205.58 410.831ZM1206.87 411.981L1205.6 413.398V413.399L1206.87 411.981ZM1218.97 598.208H1220.87V597.736L1220.65 597.318L1218.97 598.208ZM1218.97 653.265V655.166H1220.87V653.265H1218.97ZM1202.05 542.004L1203.94 541.81L1202.05 542.004ZM1201.61 537.34L1199.72 537.511L1201.61 537.34ZM1195.35 510.199L1197.02 509.292V509.291L1195.35 510.199ZM1168 480.548L1166.75 481.988L1168 480.548ZM1164 477.088L1162.75 478.519L1164 477.088ZM1123.38 456.554L1123.98 454.751L1123.38 456.554ZM1070.01 441.867L1070.34 439.994H1070.34L1070.01 441.867ZM1033.86 439.136L1033.81 441.036L1033.86 439.136ZM1023.39 438.814L1023.46 436.914L1023.39 438.814ZM922.409 451.848L921.799 450.047L922.409 451.848ZM816.358 504.338L815.228 502.811L816.358 504.338ZM773.816 546.107L772.348 544.896L773.816 546.107ZM761.355 562.037L759.843 560.885L761.355 562.037ZM729.4 598.115L730.622 599.571H730.623L729.4 598.115ZM701.313 636.247L702.973 637.172L701.313 636.247ZM695.53 646.449L693.889 645.489L695.53 646.449ZM691.124 653.265L689.561 652.182L687.495 655.166H691.124V653.265ZM795.133 653.265V655.166H796.208L796.762 654.245L795.133 653.265ZM795.903 651.982L797.532 652.961L795.903 651.982ZM819.712 621.415L818.499 619.951V619.953L819.712 621.415ZM843.435 594.548L841.917 593.404L843.435 594.548ZM854.017 581.017L855.472 582.241L854.017 581.017ZM887.191 549.345L888.302 550.889L887.191 549.345ZM969.561 509.285L968.96 507.481L969.561 509.285ZM1047.31 500.064L1047.24 501.964L1047.31 500.064ZM1123 513.746L1123.62 511.946L1123 513.746ZM1153.67 529.465L1152.46 530.931L1152.46 530.933L1153.67 529.465ZM1176.7 555.131L1178.41 554.307V554.306L1176.7 555.131ZM1180.47 574.942L1182.37 574.833L1180.47 574.942ZM1180.74 579.27L1182.64 579.13V579.128L1180.74 579.27ZM1193.7 623.011L1195.36 622.086V622.085L1193.7 623.011ZM1197.77 629.892L1199.4 628.902L1197.77 629.892ZM1207.4 650.036L1205.56 650.484V650.485L1207.4 650.036ZM1208.04 653.265L1206.16 653.55L1206.4 655.166H1208.04V653.265ZM1220.87 178.025V118.406H1217.07V178.025H1220.87ZM1169.5 151.42C1185.86 158.913 1204.34 167.732 1217.72 179.455L1220.23 176.595C1206.37 164.451 1187.38 155.425 1171.08 147.962L1169.5 151.42ZM1133.52 139.559C1145.95 142.222 1157.94 146.127 1169.5 151.42L1171.08 147.964C1159.26 142.549 1147 138.559 1134.32 135.841L1133.52 139.559ZM1065.03 126.14C1087.94 130.42 1110.81 134.691 1133.52 139.559L1134.32 135.841C1111.55 130.961 1088.63 126.68 1065.73 122.402L1065.03 126.14ZM952.817 102.415C989.845 112.095 1027.49 119.126 1065.03 126.14L1065.73 122.402C1028.16 115.384 990.653 108.376 953.779 98.7362L952.817 102.415ZM921.996 93.7636C932.18 96.7216 942.425 99.6978 952.817 102.415L953.779 98.7363C943.445 96.0341 933.248 93.0725 923.056 90.1122L921.996 93.7636ZM842 75.7097C869.591 78.5475 895.586 86.0928 921.996 93.7636L923.056 90.1122C896.696 82.456 870.376 74.8059 842.389 71.9274L842 75.7097ZM754.6 82.0546C783.282 74.6084 812.515 72.6815 842 75.7098L842.389 71.9274C812.479 68.8555 782.791 70.8078 753.646 78.3742L754.6 82.0546ZM677.546 108.731C702.966 98.7935 728.361 88.8674 754.601 82.0546L753.646 78.3743C727.151 85.2533 701.545 95.2662 676.162 105.189L677.546 108.731ZM677.531 108.737L677.541 108.733L676.169 105.187L676.158 105.191L677.531 108.737ZM658.042 116.297C664.547 113.813 671.042 111.273 677.537 108.735L676.153 105.193C669.657 107.733 663.174 110.267 656.687 112.745L658.042 116.297ZM545.66 155.17C583.793 144.192 621.055 130.425 658.042 116.298L656.687 112.745C619.712 126.868 582.576 140.586 544.608 151.516L545.66 155.17ZM449.641 204.293C477.648 181.117 510.766 165.212 545.66 155.17L544.608 151.516C509.313 161.674 475.702 177.793 447.217 201.362L449.641 204.293ZM388.785 268.841C407.829 245.975 426.837 223.16 449.641 204.293L447.217 201.362C424.097 220.493 404.87 243.587 385.864 266.407L388.785 268.841ZM382.067 276.896C384.31 274.216 386.547 271.528 388.785 268.841L385.864 266.407C383.627 269.096 381.391 271.779 379.152 274.454L382.067 276.896ZM289.356 371.883C323.495 343.311 353.588 310.914 382.067 276.896L379.152 274.454C350.751 308.38 320.819 340.592 286.916 368.968L289.356 371.883ZM231.035 419.16C250.619 403.633 270.173 387.935 289.356 371.883L286.917 368.966C267.772 384.987 248.247 400.661 228.674 416.18L231.035 419.16ZM198.641 449.152C207.879 437.643 219.325 428.441 231.035 419.16L228.674 416.18C217.002 425.431 205.222 434.88 195.676 446.771L198.641 449.152ZM166.861 506.438C175.9 486.343 184.987 466.16 198.641 449.151L195.676 446.771C181.669 464.222 172.396 484.862 163.394 504.878L166.861 506.438ZM164.859 510.884C165.527 509.405 166.195 507.922 166.861 506.438L163.394 504.878C162.728 506.362 162.061 507.842 161.395 509.319L164.859 510.884ZM154.277 534.632C157.791 526.701 161.3 518.778 164.859 510.883L161.395 509.32C157.828 517.228 154.314 525.163 150.802 533.092L154.277 534.632ZM135.455 576.346C141.927 562.521 148.108 548.564 154.277 534.632L150.802 533.092C144.629 547.029 138.464 560.951 132.013 574.734L135.455 576.346ZM104.45 653.859C113.11 627.528 123.397 602.117 135.455 576.345L132.013 574.734C119.898 600.624 109.552 626.177 100.839 652.67L104.45 653.859ZM9.53674e-07 655.166H102.644V651.364H9.53674e-07V655.166ZM27.5732 566.999C16.1343 595.215 6.57575 623.742 -1.82556 652.736L1.82556 653.795C10.1979 624.901 19.7153 596.5 31.096 568.427L27.5732 566.999ZM42.0635 529.928C37.2835 542.383 32.5244 554.781 27.5731 566.999L31.096 568.427C36.0628 556.171 40.8344 543.739 45.6124 531.29L42.0635 529.928ZM87.6064 426.66C69.1687 459.297 55.5328 494.835 42.0635 529.928L45.6124 531.29C59.0998 496.15 72.6403 460.881 90.916 428.531L87.6064 426.66ZM162.147 360.861C132.686 378.637 105.497 395.001 87.6065 426.66L90.9158 428.531C108.246 397.864 134.547 381.954 164.111 364.116L162.147 360.861ZM162.175 360.845L162.146 360.862L164.113 364.116L164.142 364.098L162.175 360.845ZM165.955 358.562C164.692 359.326 163.432 360.085 162.178 360.843L164.141 364.099C165.395 363.341 166.656 362.581 167.922 361.815L165.955 358.562ZM189.573 344.936C181.693 349.374 173.772 353.836 165.955 358.562L167.922 361.815C175.68 357.125 183.549 352.691 191.438 348.249L189.573 344.936ZM189.611 344.914L191.4 348.269L189.611 344.914ZM234.638 317.151C220.297 327.627 205.013 336.238 189.573 344.934L191.438 348.247C206.848 339.569 222.328 330.852 236.881 320.22L234.638 317.151ZM288.059 268.888C271.947 286.768 254.057 302.963 234.638 317.151L236.881 320.22C256.514 305.877 274.598 289.505 290.883 271.434L288.059 268.888ZM331.044 211.35C317.327 231.517 303.741 251.487 288.059 268.888L290.883 271.434C306.768 253.807 320.497 233.615 334.186 213.488L331.044 211.35ZM423.394 113.286C382.698 135.336 356.645 173.708 331.044 211.35L334.186 213.488C359.888 175.698 385.459 138.165 425.205 116.63L423.394 113.286ZM490.676 92.4806C467.85 97.0648 444.825 101.675 423.394 113.286L425.203 116.63C446.054 105.334 468.512 100.81 491.423 96.2085L490.676 92.4806ZM531.482 82.7369C518.095 86.9719 504.421 89.72 490.676 92.4806L491.423 96.2085C505.137 93.4545 519.014 90.6695 532.629 86.3621L531.482 82.7369ZM649.326 37.1095C610.637 53.9905 571.672 70.0287 531.482 82.7367L532.629 86.3623C573.01 73.5934 612.119 57.4921 650.845 40.5947L649.326 37.1095ZM659.519 32.6381C656.115 34.1353 652.719 35.6291 649.326 37.1095L650.845 40.5948C654.245 39.1118 657.647 37.6154 661.049 36.1186L659.519 32.6381ZM739.28 3.15112C711.586 9.72781 685.335 21.2815 659.519 32.6381L661.049 36.1186C686.92 24.7378 712.856 13.334 740.158 6.85062L739.28 3.15112ZM829.338 3.58066C799.528 -3.35041 769.164 -3.94451 739.28 3.15111L740.158 6.85063C769.417 -0.0965738 799.183 0.473115 828.477 7.28424L829.338 3.58066ZM898.27 30.5824C876.125 19.9682 853.84 9.27877 829.338 3.58068L828.477 7.28422C852.507 12.8724 874.421 23.3683 896.626 34.0113L898.27 30.5824ZM939.557 48.9948C925.459 43.6128 911.89 37.111 898.27 30.5824L896.626 34.0113C910.225 40.5289 923.933 47.1002 938.202 52.5473L939.557 48.9948ZM1017.27 67.6438C990.612 63.492 964.686 58.5891 939.558 48.9949L938.202 52.5472C963.722 62.291 989.975 67.2413 1016.69 71.4009L1017.27 67.6438ZM1119.3 80.1313C1084.94 77.7902 1051.36 72.9524 1017.27 67.6438L1016.69 71.4009C1050.79 76.7117 1084.51 81.5718 1119.04 83.9247L1119.3 80.1313ZM1204.87 106.74C1177.4 90.9164 1150.87 82.2812 1119.3 80.1311L1119.04 83.9247C1149.99 86.0322 1175.96 94.4754 1202.98 110.035L1204.87 106.74ZM1220.11 116.882C1215.35 113.332 1210.38 109.911 1204.87 106.74L1202.98 110.035C1208.31 113.109 1213.16 116.439 1217.84 119.929L1220.11 116.882ZM1220.87 282.74V221.812H1217.07V282.74H1220.87ZM1204.62 272.751C1208.84 276.747 1213.27 280.536 1217.77 284.211L1220.17 281.267C1215.72 277.624 1211.37 273.901 1207.23 269.989L1204.62 272.751ZM1169.42 250.453C1181.91 256.918 1195.15 263.793 1204.62 272.751L1207.23 269.989C1197.3 260.591 1183.53 253.48 1171.17 247.076L1169.42 250.453ZM1161.78 246.46C1164.26 247.78 1166.82 249.107 1169.42 250.453L1171.17 247.076C1168.57 245.729 1166.02 244.412 1163.57 243.106L1161.78 246.46ZM1126.97 231.147C1138.97 235.373 1150.56 240.476 1161.78 246.46L1163.57 243.106C1152.18 237.031 1140.41 231.851 1128.23 227.56L1126.97 231.147ZM1029.8 202.873C1062.48 210.266 1095.35 220.01 1126.97 231.147L1128.23 227.56C1096.49 216.382 1063.48 206.594 1030.64 199.165L1029.8 202.873ZM950.579 194.803C977.345 195.903 1003.79 196.993 1029.8 202.873L1030.64 199.165C1004.23 193.196 977.444 192.101 950.735 191.005L950.579 194.803ZM946.459 194.633C947.832 194.691 949.206 194.748 950.579 194.803L950.735 191.005C949.362 190.948 947.989 190.892 946.617 190.835L946.459 194.633ZM931.033 193.957C936.177 194.189 941.32 194.421 946.459 194.633L946.617 190.835C941.486 190.622 936.349 190.39 931.205 190.158L931.033 193.957ZM931.015 193.955L931.03 193.957L931.208 190.158H931.194L931.015 193.955ZM839.295 193.683C869.714 191.194 900.371 192.574 931.019 193.957L931.19 190.158C900.582 188.778 869.685 187.381 838.986 189.893L839.295 193.683ZM750.05 213.278C779.267 203.914 808.781 196.181 839.295 193.683L838.986 189.893C808.048 192.426 778.216 200.258 748.889 209.656L750.05 213.278ZM544.055 308.38C606.695 265.9 678.149 236.306 750.05 213.278L748.89 209.656C676.808 232.743 604.978 262.472 541.921 305.233L544.055 308.38ZM467.689 377.401C490.457 351.403 515.466 327.761 544.055 308.38L541.922 305.233C512.999 324.84 487.751 348.723 464.83 374.895L467.689 377.401ZM431.415 423.058C443.2 407.479 454.938 391.963 467.689 377.401L464.83 374.895C451.974 389.576 440.154 405.202 428.384 420.764L431.415 423.058ZM431.481 422.966L428.318 420.857L431.481 422.966ZM431.481 422.966L428.318 420.857L431.481 422.966ZM431.48 422.966H431.481L428.318 420.857H428.317L431.48 422.966ZM378.86 486.148C398.314 466.822 414.911 444.877 431.415 423.059L428.383 420.764C411.851 442.62 395.412 464.345 376.181 483.449L378.86 486.148ZM374.383 490.57C375.871 489.105 377.366 487.632 378.86 486.148L376.18 483.449C374.693 484.927 373.205 486.394 371.716 487.86L374.383 490.57ZM374.339 490.613L374.383 490.57L371.717 487.86L371.673 487.902L374.339 490.613ZM374.318 490.632L374.337 490.614L371.675 487.899L371.657 487.917L374.318 490.632ZM346.655 521.881C354.484 510.173 364.233 500.564 374.321 490.629L371.655 487.92C361.609 497.813 351.575 507.684 343.494 519.767L346.655 521.881ZM320.491 570.012C328.535 553.472 336.567 536.959 346.655 521.881L343.494 519.767C333.237 535.099 325.096 551.849 317.072 568.349L320.491 570.012ZM320.481 570.032L320.482 570.031L317.082 568.33L317.081 568.332L320.481 570.032ZM320.481 570.033V570.032L317.081 568.332L320.481 570.033ZM320.507 569.976L320.509 569.975L317.053 568.391L317.052 568.392L320.507 569.976ZM312.509 586.224C315.215 580.862 317.853 575.438 320.49 570.016L317.071 568.353C314.433 573.779 311.806 579.179 309.116 584.51L312.509 586.224ZM298.077 611.536C303.068 603.28 308.105 594.951 312.509 586.224L309.116 584.51C304.787 593.086 299.828 601.291 294.824 609.569L298.077 611.536ZM285.692 632.909C289.544 625.65 293.793 618.619 298.077 611.536L294.824 609.569C290.55 616.637 286.244 623.758 282.334 631.127L285.692 632.909ZM276.332 653.932C279.028 646.732 282.091 639.698 285.692 632.909L282.334 631.127C278.643 638.087 275.514 645.276 272.772 652.598L276.332 653.932ZM172.222 655.166H274.553V651.364H172.222V655.166ZM180.246 626.949C176.506 635.36 173.287 643.962 170.417 652.67L174.027 653.861C176.865 645.247 180.04 636.767 183.719 628.494L180.246 626.949ZM195.172 597.71C189.965 607.269 184.715 616.907 180.246 626.948L183.719 628.494C188.115 618.616 193.291 609.111 198.511 599.529L195.172 597.71ZM204.359 580.455C201.416 586.25 198.301 591.966 195.172 597.71L198.511 599.529C201.635 593.794 204.775 588.03 207.747 582.178L204.359 580.455ZM219.357 548.483C214.456 559.359 209.604 570.122 204.359 580.455L207.749 582.177C213.04 571.752 217.927 560.906 222.822 550.046L219.357 548.483ZM219.39 548.415L222.791 550.115V550.114L219.39 548.415ZM219.391 548.413L219.39 548.415L222.791 550.114L219.391 548.413ZM219.391 548.413L222.791 550.114L219.391 548.413ZM269.79 464.235C246.651 487.88 232.819 518.616 219.358 548.482L222.824 550.044C236.337 520.061 249.92 489.975 272.505 466.894L269.79 464.235ZM287.901 447.023C281.789 452.624 275.634 458.263 269.79 464.235L272.505 466.894C278.265 461.009 284.344 455.439 290.469 449.827L287.901 447.023ZM287.908 447.017L287.907 447.018L290.464 449.832L290.465 449.83L287.908 447.017ZM305.128 430.703C299.585 436.316 293.764 441.65 287.902 447.022L290.47 449.825C296.319 444.465 302.211 439.067 307.832 433.376L305.128 430.703ZM360.365 371.651C342.226 391.581 324.034 411.57 305.13 430.703L307.832 433.376C326.801 414.178 345.045 394.131 363.175 374.21L360.365 371.651ZM360.573 371.421L360.365 371.649L363.175 374.21L363.383 373.982L360.573 371.421ZM384.308 344.925C376.421 353.799 368.544 362.662 360.573 371.421L363.384 373.98C371.372 365.202 379.264 356.322 387.149 347.451L384.308 344.925ZM440.571 284.247C420.964 303.682 402.607 324.336 384.308 344.925L387.149 347.451C405.462 326.847 423.739 306.284 443.246 286.948L440.571 284.247ZM622.78 177.894C555.256 203.153 492.528 232.761 440.571 284.247L443.246 286.948C494.624 236.036 556.742 206.658 624.11 181.456L622.78 177.894ZM733.922 138.836C696.538 150.712 659.474 164.165 622.78 177.894L624.111 181.456C660.788 167.733 697.781 154.306 735.073 142.459L733.922 138.836ZM820.134 121.624C790.544 123.171 761.957 129.929 733.922 138.836L735.072 142.459C762.937 133.607 791.184 126.944 820.332 125.421L820.134 121.624ZM929.693 129.592C893.668 123.81 856.839 119.702 820.134 121.624L820.333 125.421C856.642 123.52 893.165 127.581 929.091 133.346L929.693 129.592ZM954.094 133.353C945.948 132.123 937.812 130.895 929.693 129.592L929.091 133.346C937.23 134.652 945.383 135.884 953.527 137.113L954.094 133.353ZM1015.59 143.871C995.215 139.561 974.619 136.452 954.094 133.353L953.527 137.113C974.071 140.215 994.556 143.307 1014.81 147.591L1015.59 143.871ZM1088.76 161.856C1064.5 155.473 1040.17 149.07 1015.59 143.871L1014.81 147.591C1039.27 152.767 1063.52 159.146 1087.79 165.533L1088.76 161.856ZM1117.43 169.321C1107.87 166.884 1098.32 164.371 1088.76 161.856L1087.79 165.533C1097.35 168.048 1106.91 170.565 1116.49 173.006L1117.43 169.321ZM1199.73 205.201C1173.52 189.308 1147.26 176.926 1117.43 169.321L1116.49 173.006C1145.86 180.494 1171.77 192.694 1197.76 208.452L1199.73 205.201ZM1220.19 220.349C1213.74 215.011 1207.17 209.707 1199.73 205.2L1197.76 208.452C1204.94 212.801 1211.33 217.944 1217.76 223.276L1220.19 220.349ZM1217.07 322.403V384.058H1220.87V322.403H1217.07ZM1167.21 288.218C1185.25 298.428 1201.79 310.65 1217.76 323.867L1220.18 320.938C1204.11 307.637 1187.38 295.267 1169.09 284.908L1167.21 288.218ZM1104.2 262.451C1126.29 269.13 1147.18 276.879 1167.21 288.218L1169.09 284.908C1148.71 273.377 1127.53 265.532 1105.3 258.812L1104.2 262.451ZM1092.9 259.003C1096.67 260.158 1100.44 261.312 1104.2 262.451L1105.3 258.812C1101.55 257.675 1097.78 256.523 1094.01 255.368L1092.9 259.003ZM1092.89 258.999L1092.89 259.001L1094.02 255.371H1094.02L1092.89 258.999ZM1092.85 258.988L1094.06 255.381H1094.06L1092.85 258.988ZM1023.44 241.064C1046.92 244.915 1069.94 251.969 1092.9 259.002L1094.01 255.367C1071.1 248.346 1047.83 241.212 1024.05 237.311L1023.44 241.064ZM941.835 235.47C969.196 236.076 996.785 236.69 1023.44 241.064L1024.05 237.311C997.092 232.887 969.231 232.274 941.919 231.669L941.835 235.47ZM941.831 235.47H941.834L941.92 231.669H941.917L941.831 235.47ZM941.82 235.47H941.825L941.925 231.669H941.92L941.82 235.47ZM922.193 234.984C928.708 235.18 935.261 235.325 941.827 235.47L941.912 231.669C935.342 231.524 928.804 231.379 922.307 231.183L922.193 234.984ZM830.227 240.445C860.477 234.266 891.251 234.046 922.193 234.984L922.307 231.183C891.307 230.244 860.168 230.449 829.466 236.72L830.227 240.445ZM621.508 323.281C686.108 286.522 757.267 255.344 830.227 240.445L829.466 236.72C755.989 251.725 684.444 283.093 619.628 319.976L621.508 323.281ZM541.367 383.851C565.133 359.794 592.124 339.999 621.508 323.281L619.628 319.976C589.993 336.838 562.712 356.836 538.663 381.178L541.367 383.851ZM490.435 444.78C506.602 423.712 522.687 402.756 541.367 383.851L538.663 381.178C519.789 400.281 503.564 421.428 487.419 442.465L490.435 444.78ZM490.411 444.811V444.81L487.443 442.435L487.442 442.436L490.411 444.811ZM490.507 444.679V444.678L487.344 442.569L490.507 444.679ZM452.676 491.633C466.035 476.576 478.259 460.647 490.434 444.782L487.418 442.467C475.23 458.349 463.088 474.169 449.833 489.11L452.676 491.633ZM435.982 508.434C441.657 503.038 447.405 497.574 452.676 491.633L449.833 489.11C444.687 494.909 439.058 500.263 433.362 505.679L435.982 508.434ZM436.016 508.401H436.017L433.328 505.712V505.713L436.016 508.401ZM417.408 527.44C423.089 520.698 429.489 514.609 435.982 508.436L433.362 505.679C426.895 511.83 420.34 518.061 414.501 524.99L417.408 527.44ZM383.945 584.43C393.268 564.805 403.486 543.972 417.408 527.44L414.501 524.99C400.217 541.952 389.811 563.222 380.511 582.798L383.945 584.43ZM364.123 620.197C371.059 608.571 378.015 596.916 383.945 584.43L380.511 582.798C374.671 595.094 367.809 606.599 360.859 618.249L364.123 620.197ZM355.116 635.504C358.066 630.35 361.092 625.277 364.123 620.197L360.859 618.249C357.831 623.324 354.787 628.426 351.817 633.615L355.116 635.504ZM346.203 653.982C348.783 647.646 351.705 641.465 355.116 635.504L351.817 633.616C348.308 639.748 345.315 646.085 342.683 652.548L346.203 653.982ZM447.327 651.364H344.443V655.166H447.327V651.364ZM453.693 637.737C450.646 642.532 447.98 647.444 445.609 652.451L449.044 654.079C451.354 649.199 453.947 644.427 456.902 639.778L453.693 637.737ZM486.27 579.94C476.046 599.716 465.601 619.002 453.693 637.739L456.902 639.778C468.898 620.9 479.403 601.498 489.647 581.686L486.27 579.94ZM518.293 537.598C504.721 549.953 494.703 563.617 486.27 579.94L489.647 581.686C497.898 565.715 507.653 552.426 520.851 540.411L518.293 537.598ZM563.438 485.832C549.184 504.4 535.467 521.953 518.291 537.599L520.851 540.411C538.308 524.508 552.211 506.701 566.453 488.148L563.438 485.832ZM645.986 397.775C613.746 422.412 587.867 454.01 563.438 485.832L566.453 488.148C590.863 456.349 616.486 425.104 648.293 400.797L645.986 397.775ZM745.29 341.178C711.156 357.482 676.368 374.556 645.986 397.775L648.293 400.797C678.32 377.849 712.768 360.926 746.929 344.609L745.29 341.178ZM943.714 294.211C874.518 292.543 807.484 311.469 745.29 341.178L746.929 344.609C808.746 315.08 875.182 296.362 943.623 298.012L943.714 294.211ZM961.211 294.54C955.339 294.445 949.502 294.351 943.714 294.211L943.623 298.012C949.429 298.152 955.28 298.247 961.15 298.342L961.211 294.54ZM1044.74 300.753C1017.51 295.443 988.952 294.987 961.211 294.54L961.15 298.342C988.953 298.791 1017.17 299.251 1044.02 304.484L1044.74 300.753ZM1141.32 329.281C1110.96 316.452 1076.97 307.03 1044.74 300.753L1044.02 304.484C1076.05 310.726 1109.78 320.081 1139.84 332.783L1141.32 329.281ZM1190.21 356.77C1177.18 344.964 1157.12 335.953 1141.32 329.28L1139.84 332.783C1155.72 339.491 1175.18 348.282 1187.66 359.587L1190.21 356.77ZM1204.64 369.177C1199.72 365.056 1194.85 360.979 1190.21 356.77L1187.66 359.589C1192.37 363.855 1197.29 367.979 1202.19 372.091L1204.64 369.177ZM1204.62 369.16L1204.61 369.158L1202.22 372.11L1202.22 372.111L1204.62 369.16ZM1220.25 382.655C1215.18 378.008 1209.88 373.57 1204.64 369.178L1202.2 372.093C1207.45 376.494 1212.68 380.879 1217.69 385.461L1220.25 382.655ZM1220.87 532.157V424.435H1217.07V532.157H1220.87ZM1214.73 517.241C1215.36 522.409 1216.14 527.498 1217.11 532.516L1220.84 531.798C1219.89 526.873 1219.12 521.87 1218.5 516.782L1214.73 517.241ZM1214.08 511.417C1214.29 513.355 1214.49 515.303 1214.73 517.241L1218.5 516.782C1218.27 514.875 1218.07 512.953 1217.86 511.011L1214.08 511.417ZM1208.64 485.56C1212.15 493.571 1213.11 502.368 1214.08 511.417L1217.86 511.011C1216.9 502.067 1215.9 492.674 1212.13 484.035L1208.64 485.56ZM1185.82 458.87C1195.05 466.817 1203.73 474.331 1208.64 485.558L1212.13 484.036C1206.82 471.894 1197.44 463.855 1188.31 455.989L1185.82 458.87ZM1185.81 458.858L1185.81 458.86L1188.32 455.999L1188.31 455.996L1185.81 458.858ZM1178.15 452.102C1180.68 454.438 1183.27 456.671 1185.82 458.868L1188.3 455.988C1185.74 453.782 1183.2 451.592 1180.73 449.309L1178.15 452.102ZM1141.22 426.92C1155.22 433.608 1166.91 441.711 1178.15 452.102L1180.73 449.309C1169.23 438.676 1157.22 430.351 1142.86 423.489L1141.22 426.92ZM1100.84 412.945C1114.66 416.883 1128.43 420.812 1141.22 426.92L1142.86 423.489C1129.73 417.219 1115.65 413.21 1101.88 409.289L1100.84 412.945ZM1100.82 412.939L1100.84 412.945L1101.88 409.289L1101.86 409.284L1100.82 412.939ZM1093.84 410.938C1096.16 411.612 1098.49 412.276 1100.82 412.939L1101.86 409.282C1099.53 408.618 1097.21 407.957 1094.89 407.286L1093.84 410.938ZM1050.02 401.221C1064.91 402.693 1079.3 406.717 1093.84 410.938L1094.89 407.286C1080.38 403.073 1065.68 398.948 1050.39 397.438L1050.02 401.221ZM946.602 400.107C980.065 395.778 1016.35 397.896 1050.02 401.221L1050.39 397.438C1016.66 394.106 980.023 391.949 946.114 396.337L946.602 400.107ZM845.286 432.053C876.63 417.312 912.348 404.54 946.602 400.107L946.114 396.337C911.325 400.837 875.21 413.778 843.67 428.612L845.286 432.053ZM748.912 492.498C776.502 466.137 810.898 448.226 845.286 432.053L843.67 428.612C809.247 444.8 774.358 462.928 746.286 489.747L748.912 492.498ZM704.163 544.608C718.069 526.307 732.412 508.267 748.913 492.496L746.286 489.747C729.554 505.74 715.058 523.985 701.137 542.308L704.163 544.608ZM663.472 588.715C678.294 574.51 691.495 561.28 704.163 544.61L701.137 542.308C688.655 558.733 675.633 571.795 660.843 585.969L663.472 588.715ZM639.48 624.94C646.329 611.669 653.035 598.713 663.472 588.715L660.843 585.969C649.87 596.48 642.898 610.029 636.104 623.196L639.48 624.94ZM627.595 646.243C631.998 639.443 635.761 632.147 639.48 624.94L636.104 623.196C632.368 630.432 628.688 637.56 624.404 644.176L627.595 646.243ZM622.6 654.242C624.175 651.611 625.837 648.953 627.594 646.243L624.404 644.175C622.626 646.918 620.94 649.613 619.338 652.289L622.6 654.242ZM516.666 655.166H620.969V651.364H516.666V655.166ZM522.048 640.384C519.45 644.337 517.11 648.332 514.983 652.38L518.348 654.15C520.42 650.205 522.696 646.318 525.224 642.474L522.048 640.384ZM540.113 608.38C534.418 619.313 528.772 630.151 522.048 640.385L525.225 642.473C532.071 632.052 537.804 621.042 543.483 610.136L540.113 608.38ZM556.98 578.194C550.745 587.961 545.407 598.212 540.113 608.38L543.483 610.136C548.791 599.945 554.053 589.843 560.185 580.241L556.98 578.194ZM580.046 552.645C571.775 560.326 563.466 568.031 556.98 578.194L560.185 580.24C566.367 570.55 574.313 563.157 582.632 555.432L580.046 552.645ZM589.146 543.994C586.156 546.971 583.104 549.806 580.046 552.645L582.632 555.432C585.683 552.6 588.784 549.72 591.829 546.69L589.146 543.994ZM621.221 504.939C611.069 518.627 600.995 532.203 589.148 543.994L591.829 546.69C603.912 534.664 614.152 520.851 624.275 507.204L621.221 504.939ZM638.541 482.325C632.552 489.662 626.874 497.318 621.221 504.939L624.275 507.204C629.936 499.57 635.561 491.987 641.486 484.729L638.541 482.325ZM720.449 408.374C688.517 427.962 662.201 453.341 638.541 482.325L641.486 484.729C664.961 455.974 690.966 430.919 722.438 411.616L720.449 408.374ZM825.58 357.646C789.003 370.61 753.599 388.043 720.451 408.374L722.438 411.616C755.387 391.406 790.552 374.096 826.85 361.23L825.58 357.646ZM925.597 332.47C890.815 334.726 857.931 346.174 825.58 357.646L826.85 361.23C859.265 349.735 891.668 338.482 925.843 336.265L925.597 332.47ZM1032.66 335.077C997.544 332.009 960.891 330.181 925.597 332.47L925.843 336.265C960.858 333.994 997.293 335.805 1032.33 338.866L1032.66 335.077ZM1128.3 359.34C1097.87 348.675 1065.16 337.915 1032.66 335.077L1032.33 338.866C1064.3 341.657 1096.59 352.256 1127.04 362.928L1128.3 359.34ZM1165.84 377.34C1153.84 370.236 1141.53 363.974 1128.3 359.34L1127.04 362.928C1139.96 367.453 1152.04 373.587 1163.91 380.613L1165.84 377.34ZM1206.84 409.412C1193.88 397.832 1180.97 386.288 1165.84 377.34L1163.91 380.613C1178.66 389.34 1191.3 400.627 1204.31 412.248L1206.84 409.412ZM1206.83 409.4L1206.83 409.399L1204.33 412.261L1204.33 412.262L1206.83 409.4ZM1208.13 410.562L1206.84 409.413L1204.31 412.249L1205.6 413.398L1208.13 410.562ZM1220.44 423.225C1216.78 418.787 1212.66 414.604 1208.13 410.561L1205.6 413.399C1210.01 417.338 1214 421.383 1217.51 425.643L1220.44 423.225ZM1217.07 598.208V653.265H1220.87V598.208H1217.07ZM1200.16 542.196C1202.26 562.789 1207.63 580.875 1217.29 599.1L1220.65 597.318C1211.23 579.54 1205.99 561.931 1203.94 541.81L1200.16 542.196ZM1199.72 537.511C1199.86 539.066 1200 540.632 1200.16 542.196L1203.94 541.81C1203.79 540.271 1203.65 538.725 1203.5 537.167L1199.72 537.511ZM1193.68 511.105C1198.02 519.124 1198.86 528.085 1199.72 537.511L1203.5 537.167C1202.66 527.874 1201.8 518.113 1197.02 509.292L1193.68 511.105ZM1166.75 481.988C1176.77 490.624 1187.7 500.09 1193.68 511.105L1197.02 509.291C1190.65 497.548 1179.11 487.629 1169.24 479.108L1166.75 481.988ZM1162.75 478.519C1164.05 479.657 1165.39 480.814 1166.75 481.988L1169.24 479.108C1167.88 477.933 1166.54 476.785 1165.25 475.656L1162.75 478.519ZM1122.78 458.359C1136.24 462.838 1152.24 469.319 1162.75 478.519L1165.25 475.657C1154.12 465.914 1137.47 459.242 1123.98 454.751L1122.78 458.359ZM1069.68 443.739C1087.55 446.872 1105.42 452.586 1122.78 458.359L1123.98 454.751C1106.62 448.981 1088.51 443.181 1070.34 439.994L1069.68 443.739ZM1033.81 441.036C1045.93 441.359 1057.94 441.682 1069.68 443.739L1070.34 439.994C1058.27 437.88 1045.98 437.556 1033.91 437.236L1033.81 441.036ZM1023.31 440.714C1026.81 440.849 1030.31 440.943 1033.81 441.036L1033.91 437.236C1030.41 437.142 1026.93 437.049 1023.46 436.914L1023.31 440.714ZM923.018 453.649C956.778 442.214 987.752 439.332 1023.31 440.714L1023.46 436.914C987.567 435.52 956.108 438.427 921.799 450.047L923.018 453.649ZM817.488 505.866C849.059 482.499 886.007 466.189 923.018 453.649L921.799 450.047C884.594 462.653 847.238 479.116 815.228 502.811L817.488 505.866ZM775.282 547.316C787.94 531.956 801.618 517.616 817.49 505.866L815.228 502.811C799.015 514.813 785.115 529.408 772.348 544.896L775.282 547.316ZM762.866 563.189C766.952 557.828 771.017 552.491 775.282 547.316L772.348 544.896C768.03 550.137 763.921 555.532 759.843 560.885L762.866 563.189ZM730.623 599.571C743.24 588.965 753.106 576.002 762.866 563.189L759.843 560.885C750.041 573.753 740.419 586.371 728.178 596.66L730.623 599.571ZM702.973 637.172C710.836 623.072 718.093 610.097 730.622 599.571L728.178 596.66C715.035 607.7 707.474 621.295 699.653 635.32L702.973 637.172ZM697.171 647.409C699.188 643.959 701.098 640.535 702.973 637.172L699.653 635.32C697.776 638.687 695.884 642.078 693.889 645.489L697.171 647.409ZM692.687 654.347C694.238 652.108 695.765 649.815 697.171 647.408L693.889 645.489C692.554 647.774 691.089 649.976 689.561 652.182L692.687 654.347ZM795.133 651.364H691.124V655.166H795.133V651.364ZM794.273 651.004C794.017 651.43 793.761 651.857 793.503 652.286L796.762 654.245C797.021 653.815 797.278 653.387 797.532 652.961L794.273 651.004ZM818.499 619.953C807.336 629.211 801.101 639.627 794.273 651.004L797.532 652.961C804.385 641.542 810.327 631.672 820.926 622.879L818.499 619.953ZM841.917 593.404C834.653 603.036 827.532 612.465 818.499 619.951L820.925 622.879C830.356 615.062 837.734 605.264 844.952 595.694L841.917 593.404ZM852.562 579.794C848.856 584.203 845.37 588.826 841.917 593.404L844.952 595.694C848.415 591.102 851.841 586.561 855.472 582.241L852.562 579.794ZM886.083 547.801C873.433 556.899 862.533 567.927 852.562 579.794L855.472 582.241C865.317 570.523 875.99 559.743 888.302 550.889L886.083 547.801ZM968.96 507.481C940.008 517.114 911.197 529.732 886.083 547.801L888.302 550.889C912.993 533.124 941.412 520.654 970.16 511.09L968.96 507.481ZM1047.38 498.164C1019.85 497.139 995.455 498.667 968.96 507.481L970.16 511.09C996.06 502.472 1019.95 500.948 1047.24 501.964L1047.38 498.164ZM1123.62 511.946C1098 503.245 1074.17 499.157 1047.38 498.164L1047.24 501.964C1073.69 502.944 1097.15 506.973 1122.39 515.546L1123.62 511.946ZM1154.88 527.997C1146.04 520.712 1134.11 515.509 1123.62 511.946L1122.39 515.546C1132.73 519.059 1144.15 524.083 1152.46 530.931L1154.88 527.997ZM1178.41 554.306C1173.55 544.2 1162.88 534.591 1154.88 527.997L1152.46 530.933C1160.51 537.56 1170.53 546.696 1174.99 555.956L1178.41 554.306ZM1182.37 574.833C1181.99 568.116 1181.6 560.928 1178.41 554.307L1174.99 555.956C1177.79 561.786 1178.18 568.202 1178.57 575.05L1182.37 574.833ZM1182.64 579.128C1182.53 577.71 1182.45 576.282 1182.37 574.833L1178.57 575.05C1178.66 576.493 1178.74 577.955 1178.85 579.412L1182.64 579.128ZM1195.36 622.085C1187.68 608.302 1183.82 594.925 1182.64 579.13L1178.85 579.412C1180.07 595.731 1184.07 609.648 1192.04 623.936L1195.36 622.085ZM1199.4 628.902C1197.99 626.597 1196.62 624.346 1195.36 622.086L1192.04 623.935C1193.34 626.272 1194.75 628.59 1196.15 630.883L1199.4 628.902ZM1209.25 649.588C1207.41 642.009 1203.27 635.248 1199.4 628.902L1196.15 630.883C1200.08 637.326 1203.88 643.582 1205.56 650.484L1209.25 649.588ZM1209.92 652.981C1209.74 651.845 1209.53 650.715 1209.25 649.586L1205.56 650.485C1205.8 651.497 1206 652.516 1206.16 653.55L1209.92 652.981ZM1218.97 651.364H1208.04V655.166H1218.97V651.364Z" fill="#00A99D"/>
</g>
</g>
<path d="M410.239 349.024C411.651 316.684 418.459 292.736 432.967 275.905C447.748 258.756 470.675 248.822 504.58 245.115L504.581 245.115C518.851 243.545 533.186 242.606 548.701 241.589C555.827 241.122 563.201 240.639 570.933 240.071C571.582 248.865 572.048 258.425 571.996 266.888C571.942 275.719 571.323 283.209 569.837 287.419C566.879 295.8 557.869 303.063 547.083 305.802L547.08 305.803C538.363 308.044 527.108 308.216 515.054 308.4C512.612 308.437 510.137 308.475 507.644 308.531C492.95 308.859 477.684 309.811 465.348 315.148C448.415 322.473 438.716 329.297 426.665 337.774C421.787 341.205 416.523 344.908 410.239 349.024Z" fill="#5072EB" stroke="#5072EB" stroke-width="2"/>
<path d="M409.036 437.09C410.428 404.757 417.227 380.814 431.727 363.986C446.503 346.837 469.429 336.903 503.335 333.195L503.336 333.195C517.606 331.626 531.941 330.686 547.456 329.67C554.581 329.203 561.956 328.719 569.688 328.151C570.337 336.946 570.802 346.505 570.751 354.968C570.697 363.8 570.078 371.289 568.592 375.5C565.634 383.881 556.624 391.144 545.838 393.883L545.835 393.883C537.118 396.124 525.863 396.296 513.808 396.481C511.367 396.518 508.892 396.556 506.399 396.611C491.704 396.939 476.438 397.892 464.103 403.228C447.186 410.547 437.529 417.344 425.52 425.797C420.631 429.238 415.353 432.954 409.036 437.09Z" fill="#6DD4D5" stroke="#6DD4D5" stroke-width="2"/>
<defs>
<clipPath id="clip0_401_126">
<rect width="925" height="654" fill="white"/>
</clipPath>
</defs>
</svg>
