<svg width="24" height="24" viewBox="0 0 24 24" fill="none" xmlns="http://www.w3.org/2000/svg">
<path fill-rule="evenodd" clip-rule="evenodd" d="M7.54963 23.4998H16.4505C16.7055 23.4998 16.8943 23.2679 16.8422 23.0183C16.3741 20.7728 14.3842 19.086 12.0003 19.086C9.61634 19.086 7.62588 20.7732 7.15834 23.0184C7.10622 23.2681 7.29486 23.4998 7.54998 23.4998H7.54963ZM15.3381 14.1981C15.5287 14.0885 15.7723 14.1541 15.8818 14.3451C15.9914 14.5357 15.9258 14.7793 15.7348 14.8888L15.1425 15.2308C14.9519 15.3404 14.7083 15.2748 14.5988 15.0839C14.4892 14.8933 14.5548 14.6497 14.7457 14.5401L15.3381 14.1981ZM11.6 10.6905C11.6 10.4698 11.7789 10.2906 12 10.2906C12.2207 10.2906 12.4 10.4694 12.4 10.6905V12.6461C12.4 12.8668 12.2211 13.0461 12 13.0461C11.7793 13.0461 11.6 12.8672 11.6 12.6461V10.6905ZM8.26353 14.8885C8.07294 14.778 8.00769 14.5339 8.11815 14.3431C8.2286 14.1525 8.47274 14.0873 8.66352 14.1977L9.25587 14.5397C9.44646 14.6502 9.5117 14.8943 9.40125 15.0851C9.2908 15.2757 9.04666 15.341 8.85588 15.2305L8.26353 14.8885ZM4.37493 6.82181C1.95878 6.82181 0 8.78055 0 11.1967C0 13.6129 1.95873 15.5717 4.37493 15.5717C6.79112 15.5717 8.74985 13.6129 8.74985 11.1967C8.75003 8.78091 6.79148 6.82181 4.37493 6.82181ZM4.37493 7.58364C6.37038 7.58364 7.98816 9.2016 7.98816 11.1971C7.98816 13.1925 6.3702 14.8105 4.37493 14.8105C2.37947 14.8105 0.761689 13.1925 0.761689 11.1971C0.761689 9.20142 2.37952 7.58364 4.37493 7.58364ZM4.37493 8.38377C5.92871 8.38377 7.18821 9.64327 7.18821 11.1971C7.18821 12.7508 5.92871 14.0103 4.37493 14.0103C2.82114 14.0103 1.56164 12.7508 1.56164 11.1971C1.56164 9.64309 2.82132 8.38377 4.37493 8.38377ZM5.6307 10.1271C5.71616 10.3306 5.62042 10.565 5.41671 10.6505C5.21317 10.7359 4.97879 10.6402 4.89335 10.4363C4.78485 10.178 4.5127 10.075 4.24976 10.1278C4.07796 10.1625 3.89783 10.2716 3.9074 10.4693C3.91821 10.6962 4.26695 10.7634 4.44193 10.7919C5.05765 10.893 5.64896 11.16 5.73315 11.855C5.73652 11.8828 5.73864 11.9185 5.73971 11.9617C5.75371 12.5489 5.30499 12.912 4.77487 13.033V13.1032C4.77487 13.3239 4.59598 13.5031 4.37489 13.5031C4.15416 13.5031 3.97492 13.3243 3.97492 13.1032V13.0244C3.50865 12.9042 3.13988 12.58 3.02106 12.1024C2.9684 11.8884 3.09924 11.6721 3.31341 11.6194C3.52741 11.5667 3.74371 11.6976 3.79638 11.9118C3.8634 12.1802 4.15434 12.2846 4.40539 12.2787C4.4295 12.2782 4.46212 12.2756 4.5029 12.2706C4.65413 12.2523 4.94791 12.1782 4.94312 11.9807L4.93975 11.949C4.90801 11.6869 4.52453 11.6143 4.31408 11.5797C3.71552 11.4815 3.14377 11.188 3.11096 10.5069C3.08401 9.94873 3.46023 9.52572 3.97545 9.37554V9.29008C3.97545 9.06935 4.15434 8.89011 4.37543 8.89011C4.59616 8.89011 4.7754 9.069 4.7754 9.29008V9.37022C5.13424 9.47216 5.458 9.71576 5.6307 10.1271ZM11.9999 0.5C14.416 0.5 16.3748 2.45873 16.3748 4.87493C16.3748 7.29112 14.4161 9.24985 11.9999 9.24985C9.58371 9.24985 7.62497 7.29112 7.62497 4.87493C7.62497 2.45873 9.58371 0.5 11.9999 0.5ZM11.5829 5.83664H12.4167C12.5268 5.83664 12.6165 5.92635 12.6165 6.03645V7.34224H13.6405C13.7506 7.34224 13.8404 7.25252 13.8404 7.14243L13.8405 4.26528H14.6626C13.7991 3.66268 13.0807 3.16146 12.1713 2.52709C12.0661 2.45369 11.933 2.45369 11.8279 2.52709C10.9187 3.16146 10.2001 3.66268 9.33669 4.26528H10.1588V7.14275C10.1588 7.25285 10.2485 7.34255 10.3586 7.34255H11.3826V6.03676C11.383 5.92649 11.4727 5.8366 11.5828 5.8366L11.5829 5.83664ZM19.6251 6.82168C17.2089 6.82168 15.2501 8.78041 15.2501 11.1966C15.2501 13.6128 17.2089 15.5715 19.6251 15.5715C22.0413 15.5715 24 13.6128 24 11.1966C24 8.78077 22.0413 6.82168 19.6251 6.82168ZM18.9044 8.68151H20.3458C20.4234 8.68151 20.4869 8.74498 20.4869 8.82264V10.3349H21.9992C22.0769 10.3349 22.1403 10.3984 22.1403 10.4761V11.9175C22.1403 11.9951 22.0769 12.0586 21.9992 12.0586H20.4869V13.5709C20.4869 13.6486 20.4234 13.712 20.3458 13.712H18.9044C18.8267 13.712 18.7632 13.6486 18.7632 13.5709V12.0586H17.2509C17.1733 12.0586 17.1098 11.9951 17.1098 11.9175V10.4761C17.1098 10.3984 17.1733 10.3349 17.2509 10.3349H18.7632V8.82282C18.7631 8.74499 18.8265 8.68151 18.9044 8.68151ZM12.0001 13.7526C10.6187 13.7526 9.49913 14.8722 9.49913 16.2536C9.49913 17.6349 10.6187 18.7545 12.0001 18.7545C13.3814 18.7545 14.501 17.6349 14.501 16.2536C14.501 14.8722 13.3814 13.7526 12.0001 13.7526Z" fill="#5072EB"/>
</svg>
