<svg width="24" height="16" viewBox="0 0 24 16" fill="none" xmlns="http://www.w3.org/2000/svg">
<path d="M14.8355 5.84341C14.8355 4.28195 13.562 3.00842 12.0005 3.00842C10.4391 3.00842 9.16553 4.28195 9.16553 5.84341C9.16553 7.40487 10.4391 8.67839 12.0005 8.67839C13.562 8.67839 14.8355 7.40965 14.8355 5.84341Z" fill="#5072EB"/>
<path d="M6.96245 3.54775C6.96245 1.98629 5.68892 0.712769 4.12746 0.712769C2.56601 0.712769 1.29248 1.98629 1.29248 3.54775C1.29248 5.10921 2.56601 6.38274 4.12746 6.38274C5.68914 6.38274 6.96245 5.11399 6.96245 3.54775Z" fill="#5072EB"/>
<path d="M0 11.611V12.8148C0 12.9123 0.0790504 12.9914 0.176563 12.9914H7.37092C7.44997 12.9914 7.52424 12.9356 7.54292 12.8565C7.66844 12.3221 7.89604 11.8015 8.19814 11.3506C8.22137 11.318 8.23071 11.2763 8.22594 11.239C8.03547 9.13824 6.23686 7.4884 4.12678 7.4884C1.84971 7.48861 4.98434e-05 9.33827 4.98434e-05 11.611L0 11.611Z" fill="#5072EB"/>
<path d="M22.7129 3.54775C22.7129 1.98629 21.4394 0.712769 19.878 0.712769C18.3165 0.712769 17.043 1.98629 17.043 3.54775C17.043 5.10921 18.3165 6.38274 19.878 6.38274C21.4394 6.38274 22.7129 5.11399 22.7129 3.54775Z" fill="#5072EB"/>
<path d="M16.1222 15.1107V13.9069C16.1222 13.7071 16.1035 13.498 16.0664 13.2608C15.9641 12.6289 15.7178 12.0199 15.346 11.5041C14.5699 10.4258 13.3198 9.78455 11.9998 9.78455C10.6798 9.78455 9.42975 10.4258 8.65359 11.5041C8.28179 12.0199 8.03072 12.6289 7.93325 13.2608C7.89612 13.4978 7.87744 13.7117 7.87744 13.9069V15.1107C7.87744 15.2082 7.95649 15.2873 8.054 15.2873H15.95C16.0429 15.2873 16.122 15.2082 16.122 15.1107H16.1222Z" fill="#5072EB"/>
<path d="M16.2573 12.2246L16.276 12.2804C16.3179 12.392 16.355 12.4989 16.3922 12.6103C16.4061 12.6522 16.4154 12.6987 16.4293 12.7451L16.4571 12.8568C16.4758 12.9358 16.5455 12.9869 16.6243 12.9869H23.8235C23.921 12.9869 24 12.9078 24 12.8103V11.6065C24 9.33379 22.1504 7.48413 19.8776 7.48413C17.7676 7.48413 15.9644 9.12946 15.7785 11.2347C15.7739 11.2718 15.783 11.3138 15.8063 11.3463C15.8667 11.4347 15.9225 11.5322 15.9783 11.6297L16.0109 11.6856C16.0899 11.8295 16.1642 11.9831 16.2293 12.1364C16.2389 12.164 16.2482 12.192 16.2573 12.2246Z" fill="#5072EB"/>
</svg>
