<svg width="20" height="24" viewBox="0 0 20 24" fill="none" xmlns="http://www.w3.org/2000/svg">
<path fill-rule="evenodd" clip-rule="evenodd" d="M0.264648 7.65771H13.2448V24H0.264648V7.65771ZM6.75474 0V6.49009H14.172V23.9995H19.7349V0H6.75474ZM9.46691 1.87059H12.1695V4.57322H9.46691V1.87059ZM14.3202 1.87059H17.0229V4.57322H14.3202V1.87059ZM2.97686 10.1348V12.8375H5.67949V10.1348H2.97686ZM7.83018 10.1348V12.8375H10.5328V10.1348H7.83018ZM2.97686 14.4771V17.1797H5.67949V14.4771H2.97686ZM2.97686 18.8195V21.5221H5.67949V18.8195H2.97686ZM7.83018 14.4771V17.1797H10.5328V14.4771H7.83018ZM7.83018 18.8195V21.5221H10.5328V18.8195H7.83018Z" fill="#5072EB"/>
</svg>
