<svg width="24" height="24" viewBox="0 0 24 24" fill="none" xmlns="http://www.w3.org/2000/svg">
<path d="M21.5029 6.46104H17.7063V3.40992C17.7063 2.05093 16.5858 0.943848 15.2087 0.943848L2.49899 0.944026C1.12047 0.944026 0 2.05111 0 3.4101V12.7988C0 14.1578 1.12042 15.2649 2.49899 15.2649H3.53404V18.739C3.53404 19.036 3.708 19.3045 3.98086 19.4245C4.07834 19.4681 4.18044 19.4891 4.28237 19.4891C4.46683 19.4891 4.64844 19.4217 4.78932 19.2926L9.20385 15.2651H15.2083C16.5852 15.2651 17.7059 14.158 17.7059 12.799V7.96168H21.5027C22.0532 7.96168 22.5002 8.39516 22.5002 8.92773V16.3666C22.5002 16.8991 22.0532 17.331 21.5027 17.331H19.7177C19.3038 17.331 18.9677 17.667 18.9677 18.081V20.6056L15.5941 17.5276C15.4561 17.4016 15.2747 17.331 15.0886 17.331L10.5838 17.3307C10.1699 17.3307 9.8339 17.6667 9.8339 18.0806C9.8339 18.4961 10.1699 18.8305 10.5838 18.8305H14.7974L19.2119 22.8596C19.353 22.9886 19.5344 23.0562 19.7174 23.0562C19.8194 23.0562 19.9229 23.0352 20.0204 22.9916C20.2918 22.8715 20.4674 22.6031 20.4674 22.306V18.8305H21.5024C22.8793 18.8305 24 17.725 24 16.366V8.92719C24.0002 7.56679 22.8796 6.4613 21.5026 6.4613L21.5029 6.46104ZM11.4184 10.6402H4.36658C3.95266 10.6402 3.61664 10.3042 3.61664 9.8903C3.61664 9.47637 3.95265 9.14036 4.36658 9.14036H11.4184C11.8323 9.14036 12.1683 9.47637 12.1683 9.8903C12.1683 10.3042 11.8325 10.6402 11.4184 10.6402ZM13.3668 7.06563H4.36654C3.95262 7.06563 3.6166 6.72962 3.6166 6.31569C3.6166 5.90176 3.9526 5.56575 4.36654 5.56575H13.3668C13.7807 5.56575 14.1168 5.90176 14.1168 6.31569C14.1169 6.72961 13.7809 7.06563 13.3668 7.06563Z" fill="#5072EB"/>
</svg>
