<svg width="21" height="20" viewBox="0 0 21 20" fill="none" xmlns="http://www.w3.org/2000/svg">
<g clip-path="url(#clip0_423_421)">
<path d="M11.5258 1.18625C11.5258 0.979946 11.6024 0.818769 11.7556 0.702723C11.9089 0.586676 12.0749 0.541548 12.2536 0.567335C14.4243 1.03152 16.2247 2.14041 17.6548 3.89401C19.0849 5.6476 19.8 7.67197 19.8 9.96711C19.8 12.6233 18.8743 14.8862 17.0228 16.7558C15.1713 18.6255 12.9431 19.5603 10.3383 19.5603C7.70793 19.5603 5.46701 18.6319 3.61553 16.7752C1.76405 14.9184 0.825541 12.662 0.800003 10.0058C0.800003 7.71065 1.50867 5.67983 2.92601 3.91335C4.34335 2.14686 6.15014 1.03152 8.34637 0.567335C8.52514 0.541548 8.69113 0.586676 8.84436 0.702723C8.99758 0.818769 9.0742 0.979946 9.0742 1.18625V1.80517C9.0742 2.14041 8.92097 2.34672 8.61452 2.42408C6.87796 2.8109 5.44785 3.70704 4.3242 5.1125C3.20054 6.51795 2.63871 8.13616 2.63871 9.96711C2.63871 12.1075 3.38569 13.932 4.87964 15.4406C6.37359 16.9493 8.18038 17.7036 10.3 17.7036C12.4196 17.7036 14.2264 16.9493 15.7204 15.4406C17.2143 13.932 17.9613 12.1075 17.9613 9.96711C17.9613 8.13616 17.3995 6.51795 16.2758 5.1125C15.1522 3.70704 13.722 2.8109 11.9855 2.42408C11.679 2.34672 11.5258 2.14041 11.5258 1.80517V1.18625Z" fill="#3F3F46"/>
</g>
<defs>
<clipPath id="clip0_423_421">
<rect width="20" height="18.8" fill="white" transform="matrix(1 0 0 -1 0.5 19.4)"/>
</clipPath>
</defs>
</svg>
