<svg width="234" height="64" viewBox="0 0 234 64" fill="none" xmlns="http://www.w3.org/2000/svg">
<path fill-rule="evenodd" clip-rule="evenodd" d="M21.4559 7.76494C28.2547 0.0726484 39.5142 -2.18393 48.7705 2.2562C61.0681 8.15617 65.5552 23.1856 58.8595 34.7789L43.7964 60.8308C42.9548 62.2861 41.5699 63.3485 39.9455 63.7837C38.3212 64.2189 36.5907 63.9917 35.1334 63.1527L53.3695 31.6064C58.2272 23.1922 54.9779 12.2856 46.062 7.99137C39.3715 4.76948 31.1935 6.37902 26.2514 11.9199C23.525 14.9617 21.9946 18.889 21.9435 22.9733C21.8925 27.0577 23.3241 31.022 25.9737 34.1312C26.4498 34.6887 26.9619 35.2147 27.5071 35.7056L16.8614 54.1549C16.445 54.8762 15.8907 55.5079 15.2301 56.0154C14.5695 56.5223 13.8154 56.8941 13.0111 57.1098C12.2066 57.3255 11.3677 57.3805 10.5421 57.2717C9.7164 57.1629 8.92024 56.8928 8.19896 56.4768L19.7564 36.4474C18.0963 34.0538 16.9041 31.368 16.2427 28.5313L9.16049 40.8295C8.31864 42.2855 6.93348 43.3472 5.30923 43.7824C3.68491 44.2183 1.95422 43.9911 0.497192 43.1514L18.8119 11.4282C19.5742 10.1255 20.4596 8.89877 21.4559 7.76494ZM42.5945 17.8625C47.0054 20.4099 48.5286 26.0749 45.9763 30.4837L28.414 60.8269C27.5724 62.2823 26.1868 63.3447 24.5625 63.7799C22.9382 64.2151 21.2077 63.9879 19.7507 63.1488L36.0582 34.8992C34.7494 34.624 33.5167 34.0679 32.4441 33.2691C31.3715 32.4711 30.4851 31.4493 29.8457 30.2749C29.2063 29.1005 28.8294 27.8014 28.741 26.4672C28.6527 25.133 28.855 23.7955 29.3343 22.5472C29.813 21.2988 30.5574 20.1692 31.5155 19.2365C32.4735 18.3038 33.6223 17.59 34.8831 17.1446C36.1439 16.6992 37.4867 16.5328 38.8179 16.6567C40.1491 16.7806 41.438 17.192 42.5945 17.8625ZM36.2067 23.5649C35.9046 23.7966 35.6511 24.0856 35.4611 24.4152C35.1743 24.9116 35.0406 25.4818 35.0783 26.0537C35.1161 26.6255 35.3222 27.1735 35.671 27.6281C36.0204 28.0827 36.4959 28.4237 37.0387 28.6079C37.5814 28.7921 38.167 28.8112 38.7206 28.6628C39.2742 28.5145 39.7708 28.2053 40.1491 27.7744C40.5267 27.3434 40.7686 26.8102 40.8435 26.2419C40.9177 25.6737 40.8223 25.0961 40.5689 24.5821C40.3155 24.0681 39.9155 23.6407 39.4188 23.3541C39.0899 23.1639 38.7257 23.0403 38.3487 22.9907C37.9711 22.941 37.5878 22.9662 37.2204 23.0647C36.8531 23.1633 36.5081 23.3332 36.2067 23.5649Z" fill="#615EFF"/>
<path fill-rule="evenodd" clip-rule="evenodd" d="M21.4559 7.76494C28.2547 0.0726484 39.5142 -2.18393 48.7705 2.2562C61.0681 8.15617 65.5552 23.1856 58.8595 34.7789L43.7964 60.8308C42.9548 62.2861 41.5699 63.3485 39.9455 63.7837C38.3212 64.2189 36.5907 63.9917 35.1334 63.1527L53.3695 31.6064C58.2272 23.1922 54.9779 12.2856 46.062 7.99137C39.3715 4.76948 31.1935 6.37902 26.2514 11.9199C23.525 14.9617 21.9946 18.889 21.9435 22.9733C21.8925 27.0577 23.3241 31.022 25.9737 34.1312C26.4498 34.6887 26.9619 35.2147 27.5071 35.7056L16.8614 54.1549C16.445 54.8762 15.8907 55.5079 15.2301 56.0154C14.5695 56.5223 13.8154 56.8941 13.0111 57.1098C12.2066 57.3255 11.3677 57.3805 10.5421 57.2717C9.7164 57.1629 8.92024 56.8928 8.19896 56.4768L19.7564 36.4474C18.0963 34.0538 16.9041 31.368 16.2427 28.5313L9.16049 40.8295C8.31864 42.2855 6.93348 43.3472 5.30923 43.7824C3.68491 44.2183 1.95422 43.9911 0.497192 43.1514L18.8119 11.4282C19.5742 10.1255 20.4596 8.89877 21.4559 7.76494ZM42.5945 17.8625C47.0054 20.4099 48.5286 26.0749 45.9763 30.4837L28.414 60.8269C27.5724 62.2823 26.1868 63.3447 24.5625 63.7799C22.9382 64.2151 21.2077 63.9879 19.7507 63.1488L36.0582 34.8992C34.7494 34.624 33.5167 34.0679 32.4441 33.2691C31.3715 32.4711 30.4851 31.4493 29.8457 30.2749C29.2063 29.1005 28.8294 27.8014 28.741 26.4672C28.6527 25.133 28.855 23.7955 29.3343 22.5472C29.813 21.2988 30.5574 20.1692 31.5155 19.2365C32.4735 18.3038 33.6223 17.59 34.8831 17.1446C36.1439 16.6992 37.4867 16.5328 38.8179 16.6567C40.1491 16.7806 41.438 17.192 42.5945 17.8625ZM36.2067 23.5649C35.9046 23.7966 35.6511 24.0856 35.4611 24.4152C35.1743 24.9116 35.0406 25.4818 35.0783 26.0537C35.1161 26.6255 35.3222 27.1735 35.671 27.6281C36.0204 28.0827 36.4959 28.4237 37.0387 28.6079C37.5814 28.7921 38.167 28.8112 38.7206 28.6628C39.2742 28.5145 39.7708 28.2053 40.1491 27.7744C40.5267 27.3434 40.7686 26.8102 40.8435 26.2419C40.9177 25.6737 40.8223 25.0961 40.5689 24.5821C40.3155 24.0681 39.9155 23.6407 39.4188 23.3541C39.0899 23.1639 38.7257 23.0403 38.3487 22.9907C37.9711 22.941 37.5878 22.9662 37.2204 23.0647C36.8531 23.1633 36.5081 23.3332 36.2067 23.5649Z" fill="#615EFF"/>
<path fill-rule="evenodd" clip-rule="evenodd" d="M73.4572 48.64L86.6195 14.89H94.3373L107.5 48.64H100.142L97.3075 41.0804H83.6499L80.8147 48.64H73.4572ZM95.0573 35.0048C94.1574 32.3648 93.3549 30.0025 92.6496 27.9175C91.9449 25.8325 91.2249 23.68 90.4896 21.46C89.7549 23.68 89.0272 25.8325 88.3072 27.9175C87.6025 30.0025 86.8 32.3648 85.8995 35.0048H95.0573ZM109.727 18.49C109.727 17.41 110.058 16.5401 110.717 15.88C111.377 15.22 112.247 14.89 113.327 14.89C114.407 14.89 115.277 15.22 115.937 15.88C116.597 16.5401 116.927 17.41 116.927 18.49C116.927 19.57 116.597 20.44 115.937 21.1001C115.277 21.76 114.407 22.09 113.327 22.09C112.247 22.09 111.377 21.76 110.717 21.1001C110.058 20.44 109.727 19.57 109.727 18.49ZM110.087 48.64V26.1401H116.567V48.64H110.087ZM122.058 26.1401V48.64H128.537V38.7175C128.537 36.3476 129.07 34.5248 130.135 33.25C131.2 31.96 132.602 31.3151 134.342 31.3151C135.182 31.3151 136.037 31.4575 136.908 31.7426L137.807 26.1401C136.772 25.84 135.767 25.69 134.792 25.69C131.927 25.69 129.677 26.9125 128.042 29.3575V26.1401H122.058ZM140.282 48.64V14.89H146.762V28.3675C147.708 27.5275 148.787 26.875 150.003 26.41C151.217 25.93 152.53 25.69 153.94 25.69C156.055 25.69 157.937 26.2 159.587 27.22C161.237 28.2251 162.535 29.6125 163.48 31.3826C164.425 33.1373 164.897 35.1399 164.897 37.3901C164.897 39.6404 164.425 41.65 163.48 43.4202C162.535 45.1751 161.237 46.5626 159.587 47.5828C157.937 48.5876 156.055 49.09 153.94 49.09C152.484 49.09 151.127 48.8423 149.868 48.3476C148.607 47.8375 147.505 47.1252 146.56 46.21L146.403 48.64H140.282ZM153.117 43.465C154.767 43.465 156.132 42.8877 157.212 41.7325C158.293 40.5773 158.832 39.1303 158.832 37.3901C158.832 35.65 158.293 34.2023 157.212 33.0477C156.132 31.8925 154.767 31.3151 153.117 31.3151C151.468 31.3151 150.102 31.8925 149.022 33.0477C147.942 34.2023 147.402 35.65 147.402 37.3901C147.402 39.1303 147.942 40.5773 149.022 41.7325C150.102 42.8877 151.468 43.465 153.117 43.465ZM175.725 37.1424L170.46 26.1401H163.687L174.172 47.5149L169.043 59.89H175.86L189.855 26.1401H183.015L176.94 40.8103C176.79 40.0749 176.61 39.3997 176.4 38.7853C176.19 38.1703 175.965 37.6224 175.725 37.1424ZM190.732 26.1401H194.445V20.515H200.925V26.1401H206.392V31.765H200.925V40.0448C200.925 41.1098 201.262 41.9501 201.937 42.5652C202.627 43.1648 203.498 43.465 204.547 43.465C205.327 43.465 206.13 43.2928 206.955 42.9472V48.2573C205.53 48.8129 204.127 49.09 202.748 49.09C200.077 49.09 198.022 48.3777 196.582 46.9524C195.157 45.5124 194.445 43.4573 194.445 40.7872V31.765H190.732V26.1401ZM218.677 42.3623C217.598 41.5828 216.855 40.5703 216.45 39.3248H234V37.3677C234 35.1028 233.49 33.0925 232.47 31.3375C231.45 29.5826 230.055 28.2025 228.285 27.1975C226.53 26.1925 224.52 25.69 222.255 25.69C219.975 25.69 217.935 26.2 216.135 27.22C214.35 28.2251 212.94 29.605 211.905 31.36C210.87 33.1002 210.352 35.0874 210.352 37.3223C210.352 39.5872 210.892 41.6128 211.973 43.3978C213.052 45.1674 214.545 46.5626 216.45 47.5828C218.355 48.5876 220.552 49.09 223.043 49.09C224.602 49.09 226.23 48.8353 227.925 48.3252C229.635 47.8151 231.36 46.8775 233.1 45.5124L229.185 40.8327C228.345 41.6276 227.407 42.2797 226.373 42.7898C225.352 43.2852 224.062 43.5328 222.502 43.5328C221.047 43.5328 219.772 43.1424 218.677 42.3623ZM226.947 34.56C226.588 33.7632 226.074 33.0861 225.405 32.53C224.43 31.72 223.26 31.3151 221.895 31.3151C220.515 31.3151 219.315 31.7275 218.295 32.5524C217.611 33.1143 217.087 33.7831 216.723 34.56H226.947Z" fill="#1A194D"/>
</svg>
