<svg width="250" height="62" viewBox="0 0 250 62" fill="none" xmlns="http://www.w3.org/2000/svg">
<path d="M235.549 0.0358276H14.4591C13.903 0.0358276 13.3536 0.0358276 12.7988 0.0388776C12.3347 0.0417751 11.8741 0.0507726 11.4054 0.0580926C10.3961 0.0834076 9.3742 0.146085 8.36651 0.327713C7.35138 0.506443 6.40799 0.811748 5.48385 1.28389C4.5761 1.75145 3.74674 2.35901 3.0293 3.08141C2.30352 3.80365 1.70239 4.64057 1.24244 5.55358C0.770821 6.48139 0.471622 7.43452 0.29465 8.45611C0.111764 9.46582 0.0488303 10.4874 0.0228987 11.5092C0.00894716 11.9767 0.0074307 12.4458 0 12.9134C0 13.4659 0 14.0199 0 14.5784V46.4946C0 47.0577 0 47.6087 0 48.1627C0.0074307 48.6362 0.00894716 49.0949 0.0228987 49.5686C0.0488303 50.5902 0.111764 51.6118 0.29465 52.6215C0.471622 53.6431 0.770821 54.6008 1.24244 55.5255C1.70224 56.434 2.30352 57.2711 3.02915 57.9874C3.74659 58.7155 4.57594 59.3217 5.48385 59.7849C6.40799 60.2614 7.35123 60.5623 8.36651 60.7468C9.3742 60.9286 10.3961 60.9882 11.4054 61.0165C11.8741 61.0268 12.3347 61.0328 12.7988 61.0328C13.3536 61.0358 13.903 61.0358 14.4591 61.0358H235.549C236.094 61.0358 236.648 61.0358 237.193 61.0328C237.655 61.0328 238.129 61.0268 238.591 61.0165C239.607 60.9882 240.626 60.9286 241.624 60.7468C242.64 60.5623 243.585 60.2614 244.518 59.7849C245.424 59.3217 246.253 58.7155 246.97 57.9874C247.693 57.2711 248.294 56.434 248.762 55.5255C249.227 54.6008 249.529 53.6431 249.701 52.6215C249.887 51.6118 249.947 50.5902 249.982 49.5686C249.988 49.0949 249.988 48.6362 249.988 48.1627C250 47.6087 250 47.0577 250 46.4946V14.5784C250 14.0199 250 13.4659 249.988 12.9134C249.988 12.4458 249.988 11.9766 249.982 11.509C249.947 10.4874 249.887 9.46582 249.701 8.45596C249.529 7.43436 249.227 6.48124 248.762 5.55343C248.294 4.64056 247.693 3.80349 246.97 3.08125C246.253 2.35901 245.424 1.7513 244.518 1.28374C243.585 0.811595 242.64 0.50629 241.624 0.32756C240.626 0.145933 239.607 0.0832551 238.591 0.0579401C238.129 0.0504676 237.655 0.0416226 237.193 0.0385726C236.648 0.0358276 236.094 0.0358276 235.549 0.0358276Z" fill="#A6A6A6"/>
<path d="M12.5123 60.0327C12.0491 60.0327 11.597 60.0267 11.1374 60.0162C10.2873 59.992 9.27911 59.9439 8.29554 59.7647C7.36746 59.5944 6.54277 59.3172 5.77662 58.9196C4.98371 58.5115 4.27108 57.9843 3.65256 57.3516C3.02295 56.7251 2.50554 56.0051 2.10095 55.1976C1.7067 54.419 1.43728 53.583 1.27535 52.6416C1.08971 51.6038 1.04227 50.5508 1.0222 49.7495C1.01262 49.4243 1 48.3412 1 48.3412V12.7107C1 12.7107 1.01338 11.6443 1.0222 11.3311C1.04227 10.523 1.08971 9.47092 1.27383 8.44353C1.43652 7.49695 1.70594 6.66174 2.10019 5.8799C2.50402 5.07106 3.02219 4.34737 3.64359 3.72377C4.27245 3.08506 4.98812 2.55648 5.77571 2.14667C6.55676 1.74456 7.38008 1.46955 8.28945 1.30775C9.31317 1.12174 10.3512 1.075 11.141 1.05464L12.5131 1.03583H237.479L238.868 1.05542C239.647 1.075 240.685 1.12174 241.693 1.30621C242.609 1.46893 243.438 1.74533 244.234 2.15129C245.013 2.55648 245.727 3.08522 246.35 3.71776C246.972 4.34428 247.493 5.07183 247.906 5.88375C248.298 6.67223 248.565 7.50744 248.719 8.42702C248.896 9.40013 248.951 10.3994 248.984 11.3378C248.988 11.7747 248.988 12.2439 248.988 12.7107C249 13.2891 249 13.8396 249 14.3947V46.6752C249 47.2356 249 47.7824 248.988 48.3336C248.988 48.8352 248.988 49.2947 248.982 49.7676C248.951 50.6759 248.896 51.6746 248.722 52.6264C248.565 53.5724 248.298 54.4084 247.901 55.2022C247.491 56.0035 246.97 56.728 246.357 57.3396C245.729 57.9843 245.016 58.5099 244.229 58.9167C243.441 59.3232 242.636 59.5928 241.693 59.7647C240.719 59.9439 239.711 59.992 238.851 60.0162C238.406 60.0267 237.94 60.0327 237.487 60.0327L235.839 60.0358L12.5123 60.0327Z" fill="black"/>
<path fill-rule="evenodd" clip-rule="evenodd" d="M48.2482 44.8387C47.8789 45.8017 47.0265 47.1575 45.8178 48.1126C45.12 48.6642 44.2868 49.1914 43.1425 49.5394C41.9226 49.9104 40.42 50.0358 38.5498 50.0358H21.45C19.58 50.0358 18.0774 49.9104 16.8574 49.5394C15.713 49.1914 14.88 48.6642 14.182 48.1126C12.9735 47.1574 12.121 45.8017 11.7516 44.8387C11.0076 42.8986 11 40.6973 11 39.3109V21.7608C11 20.3744 11.0076 18.1731 11.7516 16.2329C12.121 15.27 12.9733 13.9141 14.182 12.9591C14.8799 12.4075 15.713 11.8802 16.8574 11.5323C18.0773 11.1612 19.5799 11.0358 21.45 11.0358H38.55C40.42 11.0358 41.9226 11.1612 43.1426 11.5323C44.287 11.8802 45.12 12.4076 45.818 12.9591C47.0265 13.9143 47.879 15.27 48.2484 16.2329C48.9924 18.1731 49 20.3744 49 21.7608V39.3109C48.9998 40.6971 48.9923 42.8984 48.2482 44.8387Z" fill="url(#paint0_linear_1_171)"/>
<path d="M33.2792 33.033C32.7031 32.4188 31.6913 32.0251 30.4969 32.0251C29.3023 32.0251 28.2905 32.4188 27.7144 33.033C27.4139 33.3535 27.2549 33.682 27.2048 34.15C27.1078 35.0563 27.1623 35.8367 27.2674 37.0843C27.3675 38.2731 27.5576 39.8585 27.8056 41.4732C27.9822 42.6223 28.1256 43.2425 28.2562 43.6866C28.4679 44.4064 29.2593 45.0358 30.4969 45.0358C31.7343 45.0358 32.5257 44.4062 32.7374 43.6866C32.868 43.2425 33.0114 42.6223 33.1879 41.4732C33.436 39.8585 33.6261 38.2731 33.7262 37.0843C33.8313 35.8365 33.8858 35.0561 33.7887 34.15C33.7387 33.6821 33.5797 33.3535 33.2792 33.033ZM27.358 27.5644C27.358 29.3177 28.7647 30.7391 30.4998 30.7391C32.235 30.7391 33.6417 29.3177 33.6417 27.5644C33.6417 25.811 32.235 24.3897 30.4998 24.3897C28.7647 24.3897 27.358 25.811 27.358 27.5644ZM30.4609 15.0359C23.1129 15.057 17.092 21.0805 17.0011 28.5048C16.9272 34.5191 20.7267 39.6637 26.0321 41.5494C26.1608 41.5951 26.2916 41.4871 26.2713 41.3506C26.2017 40.8837 26.1361 40.4144 26.0759 39.953C26.0545 39.7899 25.9517 39.6493 25.8026 39.5835C21.6093 37.7324 18.6811 33.4828 18.7281 28.5603C18.7897 22.1004 24.0102 16.834 30.4032 16.7817C36.9389 16.7284 42.2727 22.0851 42.2727 28.677C42.2727 33.5502 39.3573 37.7476 35.1966 39.584C35.0475 39.6498 34.9453 39.7908 34.9241 39.9538C34.8639 40.415 34.7983 40.8842 34.7288 41.3506C34.7084 41.4871 34.8391 41.5951 34.9679 41.5495C40.2227 39.6819 44 34.6173 44 28.6772C43.9997 21.142 37.9226 15.0143 30.4609 15.0359ZM30.2169 21.294C34.3824 21.1311 37.8224 24.5078 37.8224 28.6812C37.8224 30.8036 36.9325 32.7199 35.5101 34.0694C35.3894 34.1838 35.3246 34.3462 35.3339 34.5132C35.3623 35.0208 35.3519 35.5142 35.3185 36.0713C35.3095 36.2197 35.4743 36.3146 35.5959 36.2308C37.981 34.5838 39.5499 31.8143 39.5499 28.6812C39.5499 23.5224 35.2973 19.3482 30.1484 19.5498C25.3634 19.7373 21.5244 23.7237 21.4631 28.5622C21.4228 31.7443 23.0012 34.5634 25.4171 36.2311C25.5384 36.3149 25.7027 36.2199 25.6937 36.0716C25.6601 35.5142 25.6499 35.0208 25.6781 34.5132C25.6874 34.3464 25.6228 34.1839 25.5024 34.0697C24.0356 32.6782 23.1349 30.6842 23.1923 28.4828C23.2933 24.6087 26.3844 21.444 30.2169 21.294Z" fill="white"/>
<path d="M70.1156 41.9008H62.8333L61.0845 47.0358H58L64.8977 28.0358H68.1023L75 47.0358H71.8629L70.1156 41.9008ZM63.5875 39.5311H69.3599L66.5143 31.1957H66.4346L63.5875 39.5311Z" fill="white"/>
<path d="M89 39.8869C89 44.0573 86.7045 46.7366 83.2406 46.7366C81.2742 46.7366 79.7125 45.8812 78.8984 44.3887H78.8328V51.0358H76V33.1762H78.742V35.4084H78.7941C79.5816 33.968 81.2608 33.0358 83.1885 33.0358C86.6911 33.0358 89 35.7282 89 39.8869ZM86.0882 39.8869C86.0882 37.1699 84.6442 35.3836 82.4411 35.3836C80.2767 35.3836 78.8208 37.2075 78.8208 39.8869C78.8208 42.5909 80.2767 44.4018 82.4411 44.4018C84.6444 44.4018 86.0882 42.6287 86.0882 39.8869Z" fill="white"/>
<path d="M104 39.8869C104 44.0573 101.705 46.7366 98.2406 46.7366C96.2742 46.7366 94.7127 45.8812 93.8984 44.3887H93.8328V51.0358H91V33.1762H93.742V35.4084H93.7941C94.5816 33.968 96.2608 33.0358 98.1885 33.0358C101.691 33.0358 104 35.7282 104 39.8869ZM101.088 39.8869C101.088 37.1699 99.6444 35.3836 97.4412 35.3836C95.2768 35.3836 93.8209 37.2075 93.8209 39.8869C93.8209 42.5909 95.2768 44.4018 97.4412 44.4018C99.6444 44.4018 101.088 42.6287 101.088 39.8869Z" fill="white"/>
<path d="M107 28.0358H110V47.0358H107V28.0358Z" fill="white"/>
<path d="M123.85 42.8535C123.487 45.3338 121.165 47.0358 118.193 47.0358C114.372 47.0358 112 44.3729 112 40.1006C112 35.8152 114.385 33.0358 118.08 33.0358C121.714 33.0358 124 35.6325 124 39.775V40.7358H114.722V40.9053C114.722 43.2425 116.133 44.7753 118.256 44.7753C119.753 44.7753 120.928 44.0355 121.289 42.8536L123.85 42.8535ZM114.735 38.7758H121.302C121.24 36.6847 119.953 35.3082 118.08 35.3082C116.22 35.3082 114.872 36.7111 114.735 38.7758Z" fill="white"/>
<path d="M139.922 28.0358C143.504 28.0358 146 30.5772 146 34.278C146 37.9908 143.453 40.5441 139.833 40.5441H135.866V47.0358H133V28.0358H139.922ZM135.866 38.0699H139.154C141.649 38.0699 143.069 36.6864 143.069 34.2915C143.069 31.895 141.649 30.5242 139.167 30.5242H135.866V38.0699Z" fill="white"/>
<path d="M147 40.0358C147 35.7372 149.539 33.0358 153.499 33.0358C157.472 33.0358 160 35.737 160 40.0358C160 44.3463 157.486 47.0358 153.499 47.0358C149.514 47.0358 147 44.3464 147 40.0358ZM157.134 40.0358C157.134 37.087 155.779 35.3466 153.499 35.3466C151.22 35.3466 149.864 37.1003 149.864 40.0358C149.864 42.9964 151.22 44.7235 153.499 44.7235C155.779 44.7235 157.134 42.9966 157.134 40.0358Z" fill="white"/>
<path d="M161 40.0194C161 35.7728 163.347 33.0015 166.771 33.0015C168.753 33.0015 170.314 33.9163 171.1 35.4318H171.154V28.0358H174V46.8919H171.245V44.5537H171.192C170.38 46.1209 168.805 47.0358 166.798 47.0358C163.347 47.0358 161 44.2661 161 40.0194ZM163.898 40.0194C163.898 42.8411 165.342 44.6441 167.545 44.6441C169.723 44.6441 171.179 42.8144 171.179 40.0194C171.179 37.2482 169.723 35.4066 167.545 35.4066C165.342 35.4067 163.898 37.223 163.898 40.0194Z" fill="white"/>
<path d="M186.378 37.9048C186.139 36.4635 185.042 35.3863 183.253 35.3863C181.16 35.3863 179.772 37.1916 179.772 40.0358C179.772 42.9448 181.173 44.6971 183.277 44.6971C184.966 44.6971 186.076 43.8276 186.378 42.2434H189C188.698 45.1127 186.467 47.0358 183.253 47.0358C179.47 47.0358 177 44.373 177 40.0358C177 35.7886 179.47 33.0358 183.227 33.0358C186.63 33.0358 188.748 35.2434 188.976 37.9049L186.378 37.9048Z" fill="white"/>
<path d="M191 42.9375C191 40.5597 192.892 39.1235 196.248 38.9299L200.113 38.7231V37.6889C200.113 36.1766 199.081 35.3228 197.323 35.3228C195.711 35.3228 194.584 36.0606 194.356 37.237H191.644C191.725 34.7801 194.1 33.0358 197.402 33.0358C200.772 33.0358 203 34.8064 203 37.482V46.8027H200.222V44.5656H200.155C199.335 46.0779 197.55 47.0358 195.698 47.0358C192.933 47.036 191 45.3813 191 42.9375ZM200.113 41.7097V40.6623L196.638 40.8691C194.906 40.9732 193.926 41.6965 193.926 42.8597C193.926 44.0494 194.947 44.8253 196.504 44.8253C198.531 44.8253 200.113 43.4802 200.113 41.7097Z" fill="white"/>
<path d="M210.563 33.0358C213.516 33.0358 215.632 34.7116 215.695 37.1293H213.122C213.009 35.9212 212.008 35.1807 210.486 35.1807C209.004 35.1807 208.016 35.8814 208.016 36.9479C208.016 37.7665 208.674 38.3123 210.056 38.6633L212.3 39.1973C214.986 39.8596 216 40.873 216 42.8761C216 45.3454 213.719 47.0358 210.462 47.0358C207.318 47.0358 205.203 45.3837 205 42.8879H207.711C207.902 44.2006 208.927 44.9029 210.588 44.9029C212.224 44.9029 213.25 44.2139 213.25 43.1224C213.25 42.2772 212.743 41.8228 211.349 41.4585L208.966 40.8611C206.557 40.2622 205.341 39.0011 205.341 37.104C205.341 34.6863 207.458 33.0358 210.563 33.0358Z" fill="white"/>
<path d="M222.543 30.0358V33.2747H225V35.4989H222.543V43.0422C222.543 44.2141 223.035 44.7601 224.115 44.7601C224.386 44.7601 224.816 44.7202 224.987 44.6951V46.906C224.693 46.9843 224.104 47.0358 223.514 47.0358C220.899 47.0358 219.879 45.9953 219.879 43.3417V35.4988H218V33.2747H219.879V30.0358H222.543Z" fill="white"/>
<path d="M232.563 33.0358C235.516 33.0358 237.632 34.7116 237.695 37.1293H235.122C235.009 35.9212 234.008 35.1807 232.486 35.1807C231.004 35.1807 230.016 35.8814 230.016 36.9479C230.016 37.7665 230.674 38.3123 232.056 38.6633L234.3 39.1973C236.986 39.8596 238 40.873 238 42.8761C238 45.3454 235.719 47.0358 232.462 47.0358C229.318 47.0358 227.203 45.3837 227 42.8879H229.711C229.902 44.2006 230.927 44.9029 232.588 44.9029C234.224 44.9029 235.25 44.2139 235.25 43.1224C235.25 42.2772 234.743 41.8228 233.349 41.4585L230.966 40.8611C228.557 40.2622 227.341 39.0011 227.341 37.104C227.341 34.6863 229.458 33.0358 232.563 33.0358Z" fill="white"/>
<path d="M66 22.0358H60V13.0358H61.4933V20.7506H66V22.0358Z" fill="white"/>
<path d="M67 12.8914C67 12.4048 67.4247 12.0358 68 12.0358C68.5761 12.0358 69 12.4048 69 12.8914C69 13.3706 68.576 13.7401 68 13.7401C67.4247 13.7401 67 13.3704 67 12.8914ZM67.2302 14.9783H68.7698V22.0358H67.2302V14.9783Z" fill="white"/>
<path d="M73.0141 15.0358C74.6513 15.0358 75.7203 15.7411 75.8599 16.9294H74.4839C74.3498 16.4346 73.829 16.1189 73.014 16.1189C72.2116 16.1189 71.604 16.4712 71.604 16.9974C71.604 17.4 71.9716 17.6537 72.7598 17.821L73.9692 18.0804C75.3524 18.3778 76 18.929 76 19.9192C76 21.1881 74.7242 22.0358 72.987 22.0358C71.256 22.0358 70.127 21.3115 70 20.1174H71.4368C71.6174 20.6371 72.1516 20.9586 73.0203 20.9586C73.9158 20.9586 74.5509 20.5874 74.5509 20.0487C74.5509 19.6467 74.2102 19.3865 73.4811 19.2258L72.2117 18.9532C70.8286 18.65 70.1873 18.0747 70.1873 17.072C70.1873 15.877 71.3699 15.0358 73.0141 15.0358Z" fill="white"/>
<path d="M79.4875 13.0358V14.8547H81V16.0472H79.4875V19.7363C79.4875 20.4878 79.7887 20.8168 80.4746 20.8168C80.6857 20.8168 80.8076 20.8036 81 20.7842V21.9635C80.776 22.0024 80.5192 22.0358 80.2498 22.0358C78.7176 22.0358 78.1089 21.4819 78.1089 20.0987V16.0471H77V14.8545H78.1089V13.0358H79.4875Z" fill="white"/>
<path d="M87.9211 20.086C87.6236 21.2933 86.5665 22.0358 85.0548 22.0358C83.1596 22.0358 82 20.7115 82 18.557C82 16.4031 83.184 15.0358 85.0484 15.0358C86.8884 15.0358 88 16.3171 88 18.4335V18.8977H83.3295V18.9722C83.3726 20.1541 84.0467 20.9031 85.0907 20.9031C85.8802 20.9031 86.421 20.6122 86.664 20.086H87.9211ZM83.3297 17.9138H86.6699C86.6398 16.8556 86.008 16.1678 85.0428 16.1678C84.0769 16.1678 83.4028 16.8615 83.3297 17.9138Z" fill="white"/>
<path d="M91 15.1684H92.3426V16.2593H92.4468C92.79 15.496 93.4906 15.0358 94.5545 15.0358C96.1307 15.0358 97 15.9562 97 17.5901V22.0358H95.6053V17.9304C95.6053 16.8268 95.112 16.2779 94.0812 16.2779C93.0496 16.2779 92.3947 16.9467 92.3947 18.0182V22.0358H91V15.1684Z" fill="white"/>
<path d="M102 18.5329C102 16.36 103.145 15.0358 105.003 15.0358C106.855 15.0358 108 16.3602 108 18.5329C108 20.7175 106.861 22.0358 105.003 22.0358C103.139 22.0358 102 20.7175 102 18.5329ZM106.709 18.5329C106.709 17.0719 106.09 16.2175 105.003 16.2175C103.91 16.2175 103.297 17.0719 103.297 18.5329C103.297 20.0056 103.91 20.8534 105.003 20.8534C106.09 20.8534 106.709 19.9998 106.709 18.5329Z" fill="white"/>
<path d="M110 15.1684H111.343V16.2593H111.447C111.791 15.496 112.491 15.0358 113.555 15.0358C115.131 15.0358 116 15.9562 116 17.5901V22.0358H114.605V17.9304C114.605 16.8268 114.112 16.2779 113.081 16.2779C112.05 16.2779 111.395 16.9467 111.395 18.0182V22.0358H110V15.1684Z" fill="white"/>
<defs>
<linearGradient id="paint0_linear_1_171" x1="30" y1="11.0358" x2="30" y2="50.0358" gradientUnits="userSpaceOnUse">
<stop stop-color="#F452FF"/>
<stop offset="1" stop-color="#832BC1"/>
</linearGradient>
</defs>
</svg>
