<svg viewBox="0 0 47 40" fill="none" xmlns="http://www.w3.org/2000/svg">
<g id="surface1">
<path id="Subtract" fill-rule="evenodd" clip-rule="evenodd" d="M1.30556 0H45.6944C46.4798 0 47 0.442708 47 1.11111V40H0V1.11111C0 0.442708 0.520182 0 1.30556 0ZM44 7.38892H3V36.3889H44V7.38892Z" fill="#CFD8DC"/>
<path id="Vector" d="M11.7502 2.95833C11.7502 4.0395 10.873 4.91667 9.79183 4.91667C8.71067 4.91667 7.8335 4.0395 7.8335 2.95833C7.8335 1.87717 8.71067 1 9.79183 1C10.873 1 11.7502 1.87717 11.7502 2.95833Z" fill="#071929"/>
<path id="Vector_2" d="M6.52799 2.95833C6.52799 4.0395 5.65082 4.91667 4.56966 4.91667C3.4885 4.91667 2.61133 4.0395 2.61133 2.95833C2.61133 1.87717 3.4885 1 4.56966 1C5.65082 1 6.52799 1.87717 6.52799 2.95833Z" fill="#071929"/>
<path id="Vector_3" d="M16.3194 22.1528L11.75 19.5417V16.2778L19.5833 20.7147V23.4584L11.75 28.0278V24.7639L16.3194 22.1528Z" fill="#5072EB"/>
<path id="Vector_4" d="M22.1943 25.4167H35.2499V28.0279H22.1943V25.4167Z" fill="#5072EB"/>
</g>
</svg>
