<svg width="25" height="25" viewBox="0 0 25 25" fill="none" xmlns="http://www.w3.org/2000/svg">
    <g clip-path="url(#clip0_219_12124)">
        <path
            d="M25 12.5C25 5.59644 19.4036 0 12.5 0C5.59644 0 0 5.59644 0 12.5C0 19.4036 5.59644 25 12.5 25C19.4036 25 25 19.4036 25 12.5Z"
            fill="#5072EB" fill-opacity="0.1" />
    </g>
    <g>
        <path
        transform="translate(12.5, 12.5) scale(0.25) translate(-12.5, -12.5)"
            d="M25 12.5C25 5.59644 19.4036 0 12.5 0C5.59644 0 0 5.59644 0 12.5C0 19.4036 5.59644 25 12.5 25C19.4036 25 25 19.4036 25 12.5Z"
            fill="#5072EB" />
    </g>
    <defs>
        <clipPath id="clip0_219_12124">
            <rect width="25" height="25" fill="white" />
        </clipPath>
    </defs>
</svg>