<svg width="21" height="19" viewBox="0 0 21 19" fill="none" xmlns="http://www.w3.org/2000/svg">
<path d="M5.88423 0.0999756C5.46091 0.0999756 5.11538 0.424769 5.11538 0.822694V2.99228C5.11538 3.39021 5.46091 3.715 5.88423 3.715C6.30832 3.715 6.65385 3.39021 6.65385 2.99228V0.822694C6.65385 0.424769 6.30832 0.0999756 5.88423 0.0999756ZM15.115 0.0999756C14.6917 0.0999756 14.3462 0.424769 14.3462 0.822694V2.99228C14.3462 3.39021 14.6917 3.715 15.115 3.715C15.5391 3.715 15.8846 3.39021 15.8846 2.99228V0.822694C15.8846 0.424769 15.5391 0.0999756 15.115 0.0999756ZM2.80731 1.54613C1.53352 1.54613 0.5 2.51764 0.5 3.715V16.7304C0.5 17.9277 1.53352 18.9 2.80731 18.9H18.1919C19.4657 18.9 20.5 17.9277 20.5 16.7304V3.715C20.5 2.51764 19.4657 1.54613 18.1919 1.54613H16.6535V2.99228C16.6535 3.79172 15.9655 4.43844 15.115 4.43844C14.2645 4.43844 13.5765 3.79172 13.5765 2.99228V1.54613H7.4227V2.99228C7.4227 3.79172 6.7347 4.43844 5.88423 4.43844C5.03453 4.43844 4.34577 3.79172 4.34577 2.99228V1.54613H2.80731ZM2.03846 6.60731H18.9615V16.7304C18.9615 17.129 18.616 17.4538 18.1919 17.4538H2.80731C2.38399 17.4538 2.03846 17.129 2.03846 16.7304V6.60731ZM7.4227 8.7769V10.4489H11.1251L8.21595 15.9847H10.8848L13.5529 9.88392V8.7769H7.4227Z" fill="#3F3F46"/>
</svg>
