<svg viewBox="0 0 28 28" fill="none" xmlns="http://www.w3.org/2000/svg">
<path d="M25.6888 4.90675C25.5267 4.73825 25.3339 4.60452 25.1215 4.51325C24.909 4.42199 24.6812 4.375 24.451 4.375C24.2209 4.375 23.993 4.42199 23.7806 4.51325C23.5682 4.60452 23.3754 4.73825 23.2133 4.90675L10.2258 18.3173L4.76925 12.6727C4.60098 12.505 4.40235 12.3733 4.18469 12.2848C3.96703 12.1963 3.73461 12.153 3.50069 12.1571C3.26678 12.1613 3.03595 12.213 2.82139 12.3091C2.60683 12.4053 2.41273 12.5441 2.25019 12.7176C2.08765 12.8911 1.95984 13.0959 1.87406 13.3204C1.78829 13.5448 1.74622 13.7845 1.75027 14.0257C1.75431 14.2669 1.80439 14.505 1.89765 14.7262C1.9909 14.9475 2.12551 15.1476 2.29377 15.3152L8.98802 22.2183C9.15008 22.3867 9.34289 22.5205 9.55533 22.6117C9.76777 22.703 9.99562 22.75 10.2258 22.75C10.4559 22.75 10.6838 22.703 10.8962 22.6117C11.1086 22.5205 11.3014 22.3867 11.4635 22.2183L25.6888 7.54931C25.8657 7.38098 26.0069 7.17667 26.1035 6.94926C26.2001 6.72186 26.25 6.47629 26.25 6.22803C26.25 5.97977 26.2001 5.7342 26.1035 5.5068C26.0069 5.27939 25.8657 5.07508 25.6888 4.90675Z" fill="#2DA771"/>
</svg>
