<svg xmlns="http://www.w3.org/2000/svg" viewBox="0 0 37 36" fill="none">
  <path d="M36.5001 18.0001C36.5001 27.9388 28.4388 36.0001 18.5001 36.0001C8.56136 36.0001 0.5 27.9388 0.5 18.0001C0.5 8.06136 8.56136 0 18.5001 0C28.4388 0 36.5001 8.06136 36.5001 18.0001Z" fill="#1565C0"/>
  <path d="M32.9002 18C32.9002 25.9559 26.456 32.4001 18.5002 32.4001C10.5443 32.4001 4.1001 25.9559 4.1001 18C4.1001 10.0441 10.5478 3.59998 18.5002 3.59998C26.4525 3.59998 32.9002 10.0477 32.9002 18Z" fill="#CFD8DC"/>
  <path d="M17.6001 6.29993H19.4001V18H17.6001V6.29993Z" fill="#1565C0"/>
  <path d="M17.7583 18.7419L19.2454 17.2548L25.0954 23.1048L23.6048 24.5919L17.7583 18.7419Z" fill="#1565C0"/>
  <path d="M21.1998 18.0001C21.1998 19.4907 19.9904 20.7001 18.4998 20.7001C17.0092 20.7001 15.7998 19.4907 15.7998 18.0001C15.7998 16.5094 17.0092 15.3 18.4998 15.3C19.9904 15.3 21.1998 16.5094 21.1998 18.0001Z" fill="#1565C0"/>
  <path d="M19.4001 18C19.4001 18.4957 18.9958 18.9 18.5001 18.9C18.0044 18.9 17.6001 18.4957 17.6001 18C17.6001 17.5008 18.0044 17.1 18.5001 17.1C18.9958 17.1 19.4001 17.5008 19.4001 18Z" fill="white"/>
</svg>