<svg viewBox="0 0 22 22" fill="none" xmlns="http://www.w3.org/2000/svg">
<path d="M0.95 21.05C1.25 21.35 1.55 21.5 2 21.5C2.45 21.5 2.75 21.35 3.05 21.05L11 13.1L18.95 21.05C19.25 21.35 19.7 21.5 20 21.5C20.3 21.5 20.75 21.35 21.05 21.05C21.65 20.45 21.65 19.55 21.05 18.95L13.1 11L21.05 3.05C21.65 2.45 21.65 1.55 21.05 0.95C20.45 0.35 19.55 0.35 18.95 0.95L11 8.9L3.05 0.95C2.45 0.35 1.55 0.35 0.95 0.95C0.35 1.55 0.35 2.45 0.95 3.05L8.9 11L0.95 18.95C0.35 19.55 0.35 20.45 0.95 21.05Z" fill="#FF3A44"/>
</svg>
