<svg width="58" height="32" viewBox="0 0 58 32" fill="none" xmlns="http://www.w3.org/2000/svg">
<path d="M58 22.3189C58 17.7394 54.8043 13.9709 50.4836 12.9276C50.3065 5.73908 44.3287 0 36.9897 0C32.6695 0 28.8817 1.97093 26.3959 5.04342C25.0348 3.30417 22.8447 2.14484 20.4185 2.14484C16.2162 2.14484 12.843 5.44943 12.843 9.5652C12.843 9.91296 12.843 10.2607 12.902 10.6085C12.251 10.4924 11.6 10.4346 10.949 10.4346C4.9117 10.4928 0 15.3045 0 21.2173C0 27.1305 4.91223 32 10.949 32H48.1162C53.5607 31.9422 57.9994 27.6521 57.9994 22.3188L58 22.3189Z" fill="white"/>
</svg>
