<svg width="295" height="48" viewBox="0 0 295 48" fill="none" xmlns="http://www.w3.org/2000/svg">
<path fill-rule="evenodd" clip-rule="evenodd" d="M85.7112 27.0917H88.443C87.3771 31.9934 83.2124 35.2941 77.6486 35.2941C71.1178 35.2941 65.8547 30.4235 65.8547 23.9844C65.8547 17.544 71.1178 12.7059 77.6486 12.7059C83.211 12.7059 87.3757 15.9741 88.443 20.8757H85.7112C84.778 17.3195 81.7794 15.0776 77.65 15.0776C72.5183 15.0776 68.5202 18.8894 68.5202 23.9844C68.5202 29.0781 72.5183 32.9237 77.6486 32.9237C81.7794 32.9237 84.7794 30.6155 85.7112 27.0917ZM116.678 24C116.678 30.2894 111.638 35.2941 105.384 35.2941C99.13 35.2941 94.09 30.2894 94.09 24C94.09 17.7106 99.13 12.7059 105.384 12.7059C111.638 12.7059 116.678 17.7106 116.678 24ZM114.126 24C114.126 19.0588 110.299 15.0804 105.384 15.0804C100.471 15.0804 96.6425 19.0588 96.6425 24C96.6425 28.9411 100.471 32.9195 105.384 32.9195C110.297 32.9195 114.126 28.9411 114.126 24ZM143.502 12.7059V35.2941H141.412L127.648 17.4889V35.2941H125.149V12.7059H127.175L141.002 30.744V12.7059H143.502ZM156.01 15.1313V23.4353H167.516V25.8593H156.01V35.2941H153.384V12.7059H168.914V15.1313H156.01ZM192.914 32.8687V35.2941H177.384V12.7059H180.086V32.8687H192.914ZM216.914 25.4033C216.914 31.3115 212.975 35.2941 207.031 35.2941C201.088 35.2941 197.149 31.3129 197.149 25.4033V12.7059H199.831V25.4033C199.831 29.7444 202.683 32.8786 207.031 32.8786C211.344 32.8786 214.231 29.7444 214.231 25.4033V12.7059H216.914V25.4033ZM229.374 15.1313V22.8706H241.021V25.296H229.374V32.8701H242.325V35.2941H226.796V12.7059H242.325V15.1313H229.374ZM267.737 12.7059V35.2941H265.648L251.883 17.4889V35.2941H249.384V12.7059H251.41L265.237 30.744V12.7059H267.737ZM294.561 15.1313H286.618V35.2941H284.119V15.1313H276.208V12.7059H294.561V15.1313ZM35.3253 25.3764C36.5606 25.3101 37.7959 25.2706 39.0312 25.1802V24.2315C37.7959 24.1411 36.5606 24.1016 35.3253 24.0339L31.6194 23.9195C29.4453 23.8531 27.2712 23.8348 25.0943 23.8207C25.0971 21.6449 25.0731 19.4692 25.0223 17.2941L24.9178 13.5882C24.8543 12.3529 24.819 11.1176 24.7315 9.88232H23.6839C23.5964 11.1176 23.5611 12.3529 23.4976 13.5882L23.3945 17.2941C23.3663 18.3148 23.3536 19.3369 23.3437 20.3576C22.9413 19.4188 22.539 18.48 22.1225 17.5468L20.6091 14.1628C20.0769 13.0475 19.5715 11.9181 19.018 10.8099L18.0524 11.2122C18.4434 12.3854 18.8839 13.5416 19.2976 14.7063L20.6204 18.1708C20.9846 19.1237 21.363 20.071 21.7442 21.0197C21.016 20.3035 20.2819 19.5933 19.5418 18.8894L16.8482 16.3426C15.9305 15.5139 15.0312 14.6654 14.0952 13.8536L13.3569 14.5934C14.1672 15.5294 15.0157 16.4287 15.8444 17.3463L18.3912 20.04C19.0943 20.7811 19.8072 21.5124 20.5216 22.2423C19.5729 21.8611 18.6256 21.4828 17.6712 21.1186L14.2082 19.7957C13.0434 19.3821 11.8872 18.9416 10.7126 18.5491L10.3117 19.5162C11.4199 20.0696 12.5479 20.575 13.6646 21.1073L17.0486 22.6207C17.9804 23.0371 18.9192 23.4395 19.858 23.8404C18.8373 23.8517 17.8166 23.8644 16.7945 23.8913L13.09 23.9957C11.8547 24.0593 10.6194 24.0946 9.38416 24.1821V25.2296C10.6194 25.3171 11.8547 25.3524 13.09 25.416L16.7959 25.519C18.9729 25.5783 21.1484 25.5882 23.3239 25.5924C23.338 27.7666 23.355 29.9421 23.4213 32.1176L23.5371 35.8235C23.6034 37.0588 23.643 38.2941 23.7333 39.5294H24.682C24.7724 38.2941 24.8119 37.0588 24.8797 35.8235L24.994 32.1176C25.0265 31.0715 25.0435 30.0254 25.059 28.9793C25.4712 29.9407 25.8877 30.9007 26.3183 31.855L27.843 35.2334C28.3766 36.3487 28.8849 37.4753 29.4425 38.5835L30.3178 38.2179C29.9296 37.0433 29.4947 35.887 29.0825 34.7195L27.7696 31.2536C27.3997 30.2739 27.0157 29.3011 26.6289 28.3284C27.3785 29.0583 28.1296 29.7854 28.8933 30.5026L31.594 33.0423C32.5145 33.8682 33.4152 34.7139 34.354 35.5242L35.026 34.8522C34.2157 33.9148 33.37 33.0127 32.5442 32.0922L30.0044 29.3901C29.2865 28.6297 28.5622 27.8753 27.8317 27.127C28.803 27.5153 29.7757 27.8979 30.754 28.2691L34.2227 29.5807C35.3889 29.9929 36.5451 30.4277 37.7211 30.8174L38.0853 29.9393C36.9771 29.3844 35.8519 28.8734 34.7352 28.3397L31.3569 26.815C30.4025 26.3859 29.4425 25.9708 28.4825 25.5557C29.5272 25.5416 30.5733 25.5247 31.6194 25.4922L35.3253 25.3764Z" fill="#0074A1"/>
<path fill-rule="evenodd" clip-rule="evenodd" d="M24.9136 48C11.6797 48 0.913574 37.2339 0.913574 24C0.913574 10.7661 11.6797 0 24.9136 0C38.1475 0 48.9136 10.7661 48.9136 24C48.9136 37.2339 38.1475 48 24.9136 48ZM24.9136 2.24471C12.9178 2.24471 3.15828 12.0028 3.15828 24C3.15828 35.9972 12.9178 45.7553 24.9136 45.7553C36.9093 45.7553 46.6689 35.9958 46.6689 24C46.6689 12.0042 36.9093 2.24471 24.9136 2.24471Z" fill="#0074A1"/>
</svg>
