<svg width="100" height="126" viewBox="0 0 100 126" fill="none" xmlns="http://www.w3.org/2000/svg">
<path fill-rule="evenodd" clip-rule="evenodd" d="M86.4544 6.29538C77.2702 2.86918 64.4861 0.75 50.3125 0.75C36.1389 0.75 23.3543 2.86918 14.1706 6.29538C5.80249 9.41251 0.626492 13.3971 0.626492 17.5055C0.626492 21.6148 5.80249 25.6004 14.1706 28.7175C23.3548 32.1333 36.1389 34.2572 50.3125 34.2572C64.4861 34.2572 77.2707 32.139 86.4544 28.7146C94.8225 25.5974 99.9985 21.6129 99.9985 17.5025C99.9985 13.3931 94.8225 9.41077 86.4544 6.29538ZM99.9985 108.997V88.6263C96.5109 91.3599 92.593 93.4975 88.4065 94.9499C78.5982 98.6048 65.1249 100.865 50.3118 100.865C35.4987 100.865 22.026 98.6049 12.217 94.9499C8.03056 93.4973 4.11264 91.3597 0.625 88.6263V108.995C0.625 113.106 5.801 117.09 14.1691 120.207C23.3533 123.631 36.1374 125.75 50.311 125.75C64.4846 125.75 77.2692 123.631 86.4529 120.205C94.821 117.087 99.997 113.103 99.997 108.993L99.9985 108.997ZM86.4544 59.2116C77.2702 62.636 64.4861 64.7542 50.3125 64.7542C36.1389 64.7542 23.3543 62.636 14.1706 59.2116C5.80249 56.0935 0.626492 52.1089 0.626492 47.9995V27.6296C4.11413 30.3639 8.03205 32.5007 12.2185 33.9531C22.0268 37.608 35.5001 39.8679 50.3132 39.8679C65.1263 39.8679 78.599 37.6082 88.408 33.9531C92.5944 32.5006 96.5124 30.3639 100 27.6296V47.9995C100 52.1089 94.824 56.0925 86.4559 59.2116H86.4544ZM99.9985 58.1283V78.4972C99.9985 82.6076 94.8225 86.5902 86.4544 89.7093C77.2702 93.1328 64.4861 95.251 50.3125 95.251C36.1389 95.251 23.3543 93.1327 14.1706 89.7083C5.80249 86.5902 0.626492 82.6066 0.626492 78.4962V58.1283C4.11413 60.8619 8.03205 62.9974 12.2185 64.4498C22.0268 68.1107 35.5001 70.3665 50.3132 70.3665C65.1263 70.3665 78.599 68.1107 88.408 64.4498C92.5944 62.9973 96.5124 60.8616 100 58.1283H99.9985ZM10.3323 48.1371L12.237 48.954C13.6609 49.5596 15.3058 48.8968 15.9118 47.4734C16.5166 46.0499 15.8536 44.4056 14.4306 43.8008L12.526 42.984H12.525C11.102 42.3784 9.4572 43.0411 8.85124 44.4636C8.24639 45.8861 8.9094 47.5304 10.3323 48.1361L10.3323 48.1371ZM10.3323 78.8867L12.237 79.7026C12.9223 80.001 13.6978 80.0146 14.3927 79.7384C15.0877 79.4632 15.6432 78.9206 15.9349 78.2336C16.2276 77.5456 16.2334 76.7704 15.9514 76.0786C15.6684 75.3867 15.1207 74.8373 14.4305 74.5515L12.5259 73.7346H12.5249C11.1019 73.129 9.4571 73.7918 8.85114 75.2142C8.24629 76.6377 8.90937 78.2809 10.3323 78.8867ZM10.3323 109.636C9.64897 109.346 9.10906 108.795 8.83087 108.106C8.55364 107.418 8.56044 106.647 8.85122 105.964C9.45704 104.541 11.1019 103.879 12.525 104.484L14.4297 105.301H14.4306C15.1208 105.586 15.6684 106.136 15.9515 106.828C16.2335 107.519 16.2277 108.295 15.935 108.983C15.6432 109.67 15.0878 110.212 14.3928 110.488C13.6978 110.764 12.9224 110.751 12.2371 110.451L10.3323 109.636Z" fill="#47506D"/>
</svg>
