<svg width="131" height="132" viewBox="0 0 131 132" fill="none" xmlns="http://www.w3.org/2000/svg">
<path d="M93.84 114.815C93.8453 119.224 95.5991 123.451 98.7166 126.568C101.834 129.686 106.061 131.44 110.47 131.445H131V110.915C130.995 106.506 129.241 102.279 126.123 99.1616C123.006 96.044 118.779 94.2902 114.37 94.2849H110.46C103.463 94.2902 96.7497 91.5163 91.7971 86.5731C86.8446 81.63 84.0579 74.9222 84.05 67.9249V64.0349C84.0421 59.6346 82.2926 55.4164 79.184 52.3021C76.0753 49.1878 71.8603 47.4308 67.46 47.4149H63.56C56.5713 47.4043 49.8722 44.622 44.9324 39.6784C39.9925 34.7348 37.2153 28.0336 37.21 21.0449V17.1449C37.202 12.7377 35.4471 8.51344 32.3298 5.39802C29.2125 2.2826 24.9872 0.530189 20.58 0.524902L0.0499878 0.524902V21.0449C0.0552806 25.4538 1.80906 29.6807 4.92665 32.7982C8.04423 35.9158 12.2711 37.6696 16.68 37.6749H20.59C27.5787 37.6828 34.2788 40.4626 39.2206 45.4043C44.1623 50.3461 46.9421 57.0462 46.95 64.0349V67.9249C46.9632 72.3286 48.7205 76.5478 51.8372 79.6589C54.9539 82.77 59.1762 84.5196 63.58 84.5249H67.48C74.4687 84.5328 81.1688 87.3126 86.1105 92.2543C91.0523 97.1961 93.832 103.896 93.84 110.885V114.815Z" fill="url(#paint0_linear_13_649)"/>
<path d="M130.99 64.0349C130.985 59.626 129.231 55.3991 126.113 52.2816C122.996 49.164 118.769 47.4102 114.36 47.4049H110.45C103.454 47.4076 96.7439 44.6325 91.7935 39.6896C86.8431 34.7467 84.0578 28.0405 84.0499 21.0449V17.1449C84.042 12.7446 82.2925 8.52639 79.1839 5.41211C76.0752 2.29782 71.8601 0.540752 67.4599 0.524902L46.9499 0.524902V21.2749C47.0129 25.6429 48.7911 29.811 51.9006 32.8793C55.01 35.9476 59.2014 37.6701 63.5699 37.6749H67.4799C74.4686 37.6828 81.1687 40.4626 86.1105 45.4043C91.0522 50.3461 93.832 57.0462 93.8399 64.0349V67.9249C93.853 72.3183 95.6021 76.5284 98.7058 79.6378C101.81 82.7472 106.017 84.5038 110.41 84.5249H130.99V64.0349Z" fill="url(#paint1_linear_13_649)"/>
<path d="M130.99 17.0149C130.958 12.7456 129.285 8.65222 126.317 5.58251C123.35 2.5128 119.316 0.701925 115.05 0.524902H93.52V21.2249C93.5725 25.5999 95.3461 29.7781 98.4567 32.8551C101.567 35.932 105.765 37.66 110.14 37.6649H130.99V17.0149Z" fill="url(#paint2_linear_13_649)"/>
<path d="M0.0499878 67.9648C0.057931 72.3737 1.81426 76.5995 4.93371 79.7152C8.05317 82.8309 12.2811 84.5822 16.69 84.5848H20.6C27.5887 84.5928 34.2888 87.3725 39.2306 92.3143C44.1723 97.256 46.952 103.956 46.96 110.945V114.835C46.9653 119.244 48.7191 123.471 51.8366 126.588C54.9542 129.706 59.1811 131.46 63.59 131.465H84.05V110.715C83.9846 106.357 82.2121 102.199 79.1137 99.1343C76.0152 96.0695 71.8381 94.3427 67.48 94.3248H63.58C56.5896 94.3195 49.8869 91.5409 44.943 86.5989C39.9991 81.6569 37.2179 74.9552 37.21 67.9648V64.0648C37.2048 59.6663 35.4592 55.4485 32.3546 52.3326C29.25 49.2167 25.0385 47.4559 20.64 47.4348H0.0499878V67.9648Z" fill="url(#paint3_linear_13_649)"/>
<path d="M0.0499878 114.975C0.0803852 119.256 1.7606 123.36 4.74089 126.434C7.72117 129.507 11.7719 131.313 16.05 131.475H37.53V110.765C37.4774 106.39 35.7038 102.212 32.5932 99.1348C29.4826 96.0579 25.2853 94.3299 20.91 94.325H0.0499878V114.975Z" fill="url(#paint4_linear_13_649)"/>
<defs>
<linearGradient id="paint0_linear_13_649" x1="19.79" y1="20.2549" x2="114.08" y2="114.545" gradientUnits="userSpaceOnUse">
<stop stop-color="#91D443"/>
<stop offset="1" stop-color="#48BFE0"/>
</linearGradient>
<linearGradient id="paint1_linear_13_649" x1="43.2399" y1="-3.1951" x2="137.53" y2="91.0949" gradientUnits="userSpaceOnUse">
<stop stop-color="#91D443"/>
<stop offset="1" stop-color="#48BFE0"/>
</linearGradient>
<linearGradient id="paint2_linear_13_649" x1="66.61" y1="-26.5651" x2="160.9" y2="67.7249" gradientUnits="userSpaceOnUse">
<stop stop-color="#91D443"/>
<stop offset="1" stop-color="#48BFE0"/>
</linearGradient>
<linearGradient id="paint3_linear_13_649" x1="-3.67001" y1="43.7048" x2="90.62" y2="137.995" gradientUnits="userSpaceOnUse">
<stop stop-color="#91D443"/>
<stop offset="1" stop-color="#48BFE0"/>
</linearGradient>
<linearGradient id="paint4_linear_13_649" x1="-27.04" y1="67.075" x2="67.25" y2="161.365" gradientUnits="userSpaceOnUse">
<stop stop-color="#91D443"/>
<stop offset="1" stop-color="#48BFE0"/>
</linearGradient>
</defs>
</svg>
