<svg width="226" height="41" viewBox="0 0 226 41" fill="none" xmlns="http://www.w3.org/2000/svg">
<path d="M65.9013 28.8387C64.2611 27.4572 63.4409 25.6489 63.4409 23.4135C63.4409 21.1781 64.2914 19.3949 65.9621 18.0386C67.572 16.7325 69.7286 16.0042 71.9764 16.0293C74.3153 16.0293 76.1682 16.833 77.5959 18.4656V10.5539H81.2713V30.647H77.5959V28.487C76.2593 30.0694 74.2849 30.8731 71.6727 30.8731C69.4856 30.8982 67.3897 30.1447 65.9013 28.8387ZM67.1163 23.5391C67.0556 24.7949 67.6327 26.0256 68.7262 26.9047C69.7286 27.7335 71.0652 28.2107 72.4928 28.2107C73.8901 28.2359 75.2266 27.7587 76.1682 26.9047C77.201 26.0005 77.7174 24.7698 77.6566 23.5391C77.7174 22.2833 77.1706 21.0526 76.1682 20.0981C75.257 19.2191 73.8901 18.6916 72.4624 18.7167C71.0348 18.7167 69.6375 19.2191 68.6959 20.0981C67.6024 21.0274 67.0556 22.2582 67.1163 23.5391Z" fill="#1E1E1C"/>
<path d="M102.777 24.7949H89.1082C89.1689 25.8247 89.8068 26.754 90.8396 27.3317C91.9027 27.9847 93.2088 28.3112 94.515 28.2861C96.702 28.2861 98.3423 27.7084 99.4966 26.5782L101.592 28.487C99.7092 30.0945 97.2791 30.8982 94.2416 30.8982C91.9331 30.9484 89.6853 30.2201 88.0146 28.8889C86.3136 27.5577 85.4631 25.7493 85.4631 23.4637C85.4631 21.1781 86.344 19.3949 88.0754 18.0637C89.746 16.7576 91.9634 16.0293 94.2416 16.0544C96.459 16.0042 98.6157 16.6321 100.286 17.8377C101.957 19.0181 102.777 20.6507 102.777 22.7354V24.7949ZM89.1082 22.4088H99.1017C99.1017 21.2033 98.646 20.2739 97.7348 19.6209C96.7931 18.9679 95.5781 18.6163 94.3327 18.6414C93.0266 18.6414 91.7508 18.993 90.7181 19.646C89.6853 20.2991 89.0778 21.3288 89.1082 22.4088Z" fill="#1E1E1C"/>
<path d="M116.142 16.0293C118.39 16.0042 120.547 16.7325 122.126 18.0386C123.767 19.3698 124.617 21.153 124.617 23.3884C124.617 25.5986 123.797 27.4321 122.157 28.8135C120.668 30.1447 118.572 30.8982 116.385 30.8982C114.198 30.8982 112.224 30.0945 110.462 28.5121V30.6722H106.817V10.579H110.492V18.7921C111.92 16.9586 113.803 16.0293 116.142 16.0293ZM110.401 23.4889C110.341 24.7447 110.887 25.9503 111.92 26.8545C112.862 27.7084 114.198 28.1856 115.596 28.1605C117.023 28.1605 118.36 27.7084 119.362 26.8545C120.425 25.9754 121.002 24.7447 120.972 23.4889C121.033 22.2079 120.456 20.9772 119.392 20.0479C118.42 19.1688 117.054 18.6665 115.626 18.6665C114.229 18.6414 112.862 19.1437 111.95 20.0228C110.918 21.0023 110.371 22.233 110.401 23.4889Z" fill="#1E1E1C"/>
<path d="M145.06 24.7949H131.391C131.452 25.8247 132.089 26.754 133.122 27.3317C134.185 27.9847 135.491 28.3112 136.798 28.2861C138.985 28.2861 140.655 27.7084 141.779 26.5782L143.875 28.4619C141.992 30.0694 139.562 30.8731 136.524 30.8731C134.216 30.9233 131.968 30.1949 130.297 28.8638C128.596 27.5326 127.715 25.7242 127.715 23.4386C127.715 21.1781 128.596 19.3698 130.328 18.0386C131.998 16.7325 134.216 16.0042 136.494 16.0293C138.711 15.979 140.868 16.6069 142.539 17.8125C144.209 18.993 145.029 20.6256 145.029 22.7102L145.06 24.7949ZM131.391 22.4089H141.384C141.384 21.2033 140.929 20.274 140.017 19.6209C139.076 18.9679 137.861 18.6163 136.615 18.6414C135.309 18.6414 134.033 18.993 133.001 19.646C131.938 20.2991 131.33 21.3288 131.391 22.4089Z" fill="#1E1E1C"/>
<path d="M148.522 18.9177V16.3307H162.161V19.0684L152.35 28.0601H162.677V30.6973H147.854V27.7586L157.392 18.9428H148.522V18.9177Z" fill="#1E1E1C"/>
<path d="M167.052 13.392C166.171 12.6386 166.171 11.433 167.082 10.7046C167.993 9.97621 169.451 9.97621 170.332 10.7297C171.213 11.4832 171.213 12.6888 170.302 13.4172C169.876 13.7688 169.299 13.9697 168.692 13.9697C168.054 13.9697 167.477 13.7688 167.052 13.392ZM170.484 30.6722H166.809V16.2553H170.484V30.6722Z" fill="#1E1E1C"/>
<path d="M187.98 24.0665V16.2553H191.656V30.6722H187.98V28.0349C186.826 29.7931 184.608 30.8731 182.178 30.8731C180.204 30.8731 178.625 30.3708 177.41 29.3912C176.194 28.4117 175.587 26.9549 175.587 25.0963V16.2804H179.262V24.1921C179.262 26.8545 180.599 28.1605 183.272 28.1856C184.487 28.2107 185.672 27.834 186.583 27.1559C187.494 26.4275 187.98 25.3977 187.98 24.0665Z" fill="#1E1E1C"/>
<path d="M200.616 22.8609V30.6722H196.941V16.2553H200.616V18.8925C201.133 18.0135 201.953 17.2851 202.986 16.8079C204.018 16.3055 205.203 16.0293 206.418 16.0293C209.152 16.0293 211.035 16.9586 212.037 18.8423C213.769 16.9586 215.926 16.0293 218.477 16.0293C220.451 16.0293 222.031 16.5316 223.246 17.5111C224.461 18.5158 225.069 19.9474 225.069 21.806V30.647H221.393V22.7354C221.393 20.073 220.057 18.7418 217.384 18.7418C216.199 18.7167 215.014 19.0684 214.133 19.7214C213.192 20.3744 212.706 21.354 212.675 22.6098V30.6219H209V22.7102C209 21.3288 208.696 20.3242 208.119 19.6963C207.542 19.0684 206.6 18.7418 205.325 18.7418C204.11 18.7167 202.925 19.0935 202.014 19.7716C201.102 20.5251 200.616 21.5298 200.616 22.8609Z" fill="#1E1E1C"/>
<path d="M35.6778 35.595C35.6778 38.4331 38.4723 40.7438 41.9047 40.7438H49.5897V34.3894C49.5897 31.5512 46.7952 29.2405 43.3627 29.2405H41.9047C36.4675 29.2405 32.0327 25.5986 32.0327 21.0777V19.8721C32.0327 17.0339 29.2686 14.7483 25.8361 14.7232H24.3781C18.9409 14.7232 14.5365 11.0813 14.5365 6.56038V5.35479C14.5365 2.51663 11.7419 0.205917 8.30951 0.205917H0.594147V6.56038C0.594147 9.39853 3.38869 11.7092 6.82111 11.7092H8.27913C13.7163 11.7092 18.1208 15.3511 18.1511 19.8721V21.0777C18.1511 23.9158 20.9457 26.2014 24.3781 26.2014H25.8361C31.2733 26.2014 35.6778 29.8433 35.6778 34.3643V35.595Z" fill="url(#paint0_linear_401_126)"/>
<path d="M49.5593 19.8972C49.5593 17.059 46.7648 14.7483 43.3324 14.7483H41.9047C36.4675 14.7483 32.0327 11.1064 32.0327 6.58549V5.3799C32.0327 2.54174 29.2686 0.25615 25.8361 0.231033H18.1512V6.63572C18.2119 9.44876 20.9761 11.7092 24.3781 11.7092H25.8361C31.2733 11.7092 35.7082 15.3511 35.7082 19.8721V21.0777C35.7082 23.9158 38.4723 26.2014 41.9047 26.2014H49.5897L49.5593 19.8972Z" fill="url(#paint1_linear_401_126)"/>
<path d="M49.5593 5.3548C49.529 2.61711 46.9167 0.35663 43.6058 0.256165H35.5563V6.66086C35.5866 9.4739 38.3812 11.7344 41.7832 11.7344H49.5897L49.5593 5.3548Z" fill="url(#paint2_linear_401_126)"/>
<path d="M0.594147 21.1279C0.594147 23.9661 3.38869 26.2768 6.82111 26.2768H8.27913C13.7163 26.2768 18.1208 29.9187 18.1511 34.4396V35.6452C18.1511 38.4834 20.9457 40.7941 24.3781 40.7941H32.0327V34.3643C31.972 31.5512 29.2382 29.3159 25.8361 29.2907H24.3781C18.9409 29.2907 14.5365 25.6489 14.5061 21.1279V19.9223C14.5061 17.0841 11.7419 14.7986 8.30951 14.7734H0.594147V21.1279Z" fill="url(#paint3_linear_401_126)"/>
<path d="M0.594147 35.6452C0.624522 38.3829 3.26718 40.6434 6.5781 40.7438H14.6276V34.3391C14.5972 31.5261 11.8027 29.2656 8.40063 29.2656H0.594147V35.6452Z" fill="url(#paint4_linear_401_126)"/>
<defs>
<linearGradient id="paint0_linear_401_126" x1="7.97844" y1="6.35691" x2="36.6249" y2="40.9985" gradientUnits="userSpaceOnUse">
<stop stop-color="#94C248"/>
<stop offset="1" stop-color="#4BC0E0"/>
</linearGradient>
<linearGradient id="paint1_linear_401_126" x1="16.748" y1="-0.891796" x2="45.3915" y2="33.7492" gradientUnits="userSpaceOnUse">
<stop stop-color="#94C248"/>
<stop offset="1" stop-color="#4BC0E0"/>
</linearGradient>
<linearGradient id="paint2_linear_401_126" x1="25.4901" y1="-8.12037" x2="54.1336" y2="26.5206" gradientUnits="userSpaceOnUse">
<stop stop-color="#94C248"/>
<stop offset="1" stop-color="#4BC0E0"/>
</linearGradient>
<linearGradient id="paint3_linear_401_126" x1="-0.796591" y1="13.6127" x2="27.8469" y2="48.2537" gradientUnits="userSpaceOnUse">
<stop stop-color="#94C248"/>
<stop offset="1" stop-color="#4BC0E0"/>
</linearGradient>
<linearGradient id="paint4_linear_401_126" x1="-9.53821" y1="20.8408" x2="19.1053" y2="55.4819" gradientUnits="userSpaceOnUse">
<stop stop-color="#94C248"/>
<stop offset="1" stop-color="#4BC0E0"/>
</linearGradient>
</defs>
</svg>
