<svg width="21" height="19" viewBox="0 0 21 19" fill="none" xmlns="http://www.w3.org/2000/svg">
<path d="M18.5 0.100006C19.6016 0.100006 20.5 0.944537 20.5 1.98001V17.02C20.5 18.0555 19.6016 18.9 18.5 18.9H2.5C1.39844 18.9 0.5 18.0555 0.5 17.02V1.98001C0.5 0.944537 1.39844 0.100006 2.5 0.100006H18.5ZM18.5 1.98001H2.5V13.26H7.5C7.5 14.8573 8.80078 16.08 10.5 16.08C12.1992 16.08 13.5 14.8573 13.5 13.26H18.5V1.98001ZM12.5 3.86001V7.62001H15.5L10.5 12.32L5.5 7.62001H8.5V3.86001H12.5Z" fill="#3F3F46"/>
</svg>
