<svg width="32" height="33" viewBox="0 0 32 33" fill="none" xmlns="http://www.w3.org/2000/svg">
<path d="M7.38498 15.5981C7.70034 12.7437 8.46878 10.6572 9.76487 9.15355C11.3358 7.33107 13.8339 6.19129 17.7876 5.75892L17.7882 5.75886C19.4814 5.57265 21.17 5.46204 23.0197 5.34087C23.6066 5.30243 24.2097 5.26292 24.8343 5.2196C24.8789 5.99419 24.9062 6.77906 24.9019 7.49155C24.8953 8.56028 24.8159 9.31949 24.6929 9.66785L25.6359 10.0007L24.6929 9.66785C24.4614 10.3239 23.668 11.0364 22.5757 11.3137L22.5728 11.3144C21.6377 11.5548 20.419 11.5743 18.9724 11.5974C18.6713 11.6022 18.3604 11.6072 18.04 11.6143C16.286 11.6534 14.2918 11.7636 12.6347 12.4805C10.5166 13.3968 9.25255 14.2855 7.77111 15.327C7.64422 15.4162 7.51573 15.5066 7.38498 15.5981Z" fill="#5072EB" stroke="#5072EB" stroke-width="2"/>
<path d="M7.23976 26.1667C7.55347 23.3125 8.32101 21.2264 9.61642 19.723C11.1866 17.9007 13.6846 16.7609 17.6384 16.3285L17.639 16.3284C19.3322 16.1422 21.0207 16.0316 22.8705 15.9105C23.4574 15.872 24.0605 15.8325 24.6851 15.7892C24.7297 16.5638 24.757 17.3486 24.7526 18.0611C24.7461 19.1299 24.6667 19.8891 24.5437 20.2374C24.3122 20.8935 23.5188 21.6059 22.4265 21.8833L22.4236 21.884C21.4885 22.1244 20.2698 22.1439 18.8232 22.167C18.5221 22.1718 18.2111 22.1767 17.8908 22.1839C16.1368 22.223 14.1426 22.3331 12.4855 23.0501C10.3692 23.9656 9.11023 24.8513 7.63348 25.8901C7.50415 25.9811 7.37315 26.0732 7.23976 26.1667Z" fill="#6DD4D5" stroke="#6DD4D5" stroke-width="2"/>
</svg>
