<svg width="492" height="439" viewBox="0 0 492 439" fill="none" xmlns="http://www.w3.org/2000/svg">
<path d="M414.84 381.815C414.845 386.224 416.599 390.451 419.717 393.568C422.834 396.686 427.061 398.44 431.47 398.445H452V377.915C451.995 373.506 450.241 369.279 447.123 366.162C444.006 363.044 439.779 361.29 435.37 361.285H431.46C424.463 361.29 417.75 358.516 412.797 353.573C407.845 348.63 405.058 341.922 405.05 334.925V331.035C405.042 326.635 403.293 322.416 400.184 319.302C397.075 316.188 392.86 314.431 388.46 314.415H384.56C377.571 314.404 370.872 311.622 365.932 306.678C360.992 301.735 358.215 295.034 358.21 288.045V284.145C358.202 279.738 356.447 275.513 353.33 272.398C350.213 269.283 345.987 267.53 341.58 267.525H321.05V288.045C321.055 292.454 322.809 296.681 325.927 299.798C329.044 302.916 333.271 304.67 337.68 304.675H341.59C348.579 304.683 355.279 307.463 360.221 312.404C365.162 317.346 367.942 324.046 367.95 331.035V334.925C367.963 339.329 369.72 343.548 372.837 346.659C375.954 349.77 380.176 351.52 384.58 351.525H388.48C395.469 351.533 402.169 354.313 407.111 359.254C412.052 364.196 414.832 370.896 414.84 377.885V381.815Z" fill="url(#paint0_linear_13_636)"/>
<path d="M451.99 331.035C451.985 326.626 450.231 322.399 447.113 319.282C443.996 316.164 439.769 314.41 435.36 314.405H431.45C424.454 314.408 417.744 311.632 412.793 306.69C407.843 301.747 405.058 295.041 405.05 288.045V284.145C405.042 279.745 403.293 275.526 400.184 272.412C397.075 269.298 392.86 267.541 388.46 267.525H367.95V288.275C368.013 292.643 369.791 296.811 372.901 299.879C376.01 302.948 380.201 304.67 384.57 304.675H388.48C395.469 304.683 402.169 307.463 407.11 312.404C412.052 317.346 414.832 324.046 414.84 331.035V334.925C414.853 339.318 416.602 343.528 419.706 346.638C422.81 349.747 427.017 351.504 431.41 351.525H451.99V331.035Z" fill="url(#paint1_linear_13_636)"/>
<path d="M451.99 284.015C451.958 279.746 450.285 275.652 447.317 272.583C444.35 269.513 440.316 267.702 436.05 267.525H414.52V288.225C414.573 292.6 416.346 296.778 419.457 299.855C422.567 302.932 426.765 304.66 431.14 304.665H451.99V284.015Z" fill="url(#paint2_linear_13_636)"/>
<path d="M321.05 334.965C321.058 339.374 322.814 343.6 325.934 346.715C329.053 349.831 333.281 351.582 337.69 351.585H341.6C348.589 351.593 355.289 354.373 360.231 359.314C365.172 364.256 367.952 370.956 367.96 377.945V381.835C367.965 386.244 369.719 390.471 372.837 393.588C375.954 396.706 380.181 398.46 384.59 398.465H405.05V377.715C404.985 373.357 403.212 369.199 400.114 366.134C397.015 363.07 392.838 361.343 388.48 361.325H384.58C377.59 361.32 370.887 358.541 365.943 353.599C360.999 348.657 358.218 341.955 358.21 334.965V331.065C358.205 326.666 356.459 322.448 353.355 319.333C350.25 316.217 346.039 314.456 341.64 314.435H321.05V334.965Z" fill="url(#paint3_linear_13_636)"/>
<path d="M321.05 381.975C321.08 386.256 322.761 390.36 325.741 393.434C328.721 396.507 332.772 398.313 337.05 398.475H358.53V377.765C358.477 373.39 356.704 369.212 353.593 366.135C350.483 363.058 346.285 361.33 341.91 361.325H321.05V381.975Z" fill="url(#paint4_linear_13_636)"/>
<path d="M42.5493 127.638C43.7157 101.983 49.1611 83.0023 60.6661 69.6547C72.4451 55.9893 90.729 48.0538 117.827 45.0905L117.828 45.0904C129.24 43.8354 140.7 43.0844 153.11 42.2712C158.75 41.9016 164.586 41.5192 170.703 41.0708C171.214 48.0483 171.579 55.6095 171.538 62.309C171.495 69.376 170.999 75.3362 169.822 78.6691C167.484 85.2942 160.341 91.0686 151.759 93.2479L151.756 93.2486C144.807 95.0349 135.834 95.1723 126.19 95.3199C124.234 95.3498 122.251 95.3802 120.252 95.4248C108.499 95.687 96.2489 96.4482 86.3405 100.735C72.7746 106.604 64.9923 112.078 55.3433 118.865C51.5281 121.549 47.4211 124.438 42.5493 127.638Z" fill="#5072EB" stroke="#5072EB" stroke-width="1.99999"/>
<path d="M41.5867 198.091C42.7379 172.442 48.1752 153.464 59.6743 140.119C71.4489 126.454 89.7327 118.518 116.831 115.555L116.832 115.555C128.244 114.3 139.704 113.549 152.114 112.736C157.754 112.366 163.59 111.984 169.707 111.535C170.218 118.513 170.583 126.074 170.542 132.773C170.499 139.84 170.003 145.801 168.826 149.133C166.488 155.759 159.345 161.533 150.762 163.712L150.759 163.713C143.811 165.499 134.837 165.637 125.193 165.784C123.238 165.814 121.255 165.845 119.256 165.889C107.503 166.151 95.2527 166.913 85.3442 171.199C71.7911 177.063 64.0435 182.516 54.4272 189.284C50.6034 191.976 46.484 194.875 41.5867 198.091Z" fill="#6DD4D5" stroke="#6DD4D5" stroke-width="1.99999"/>
<path d="M234.377 209.818L241.664 231.142H241.958L249.245 209.818H253.515L244.093 236H239.529L230.107 209.818H234.377ZM271.976 216.696C271.84 215.486 271.277 214.548 270.288 213.884C269.3 213.21 268.055 212.874 266.555 212.874C265.482 212.874 264.553 213.044 263.768 213.385C262.984 213.717 262.375 214.178 261.94 214.766C261.514 215.345 261.301 216.006 261.301 216.747C261.301 217.369 261.446 217.906 261.736 218.358C262.034 218.81 262.422 219.189 262.899 219.496C263.385 219.794 263.905 220.045 264.459 220.25C265.013 220.446 265.545 220.608 266.057 220.736L268.614 221.401C269.449 221.605 270.305 221.882 271.183 222.232C272.061 222.581 272.875 223.041 273.625 223.612C274.375 224.183 274.98 224.891 275.44 225.734C275.909 226.578 276.143 227.588 276.143 228.764C276.143 230.247 275.76 231.564 274.993 232.714C274.234 233.865 273.131 234.773 271.682 235.438C270.241 236.102 268.499 236.435 266.453 236.435C264.493 236.435 262.797 236.124 261.365 235.501C259.933 234.879 258.813 233.997 258.003 232.855C257.193 231.705 256.746 230.341 256.661 228.764H260.624C260.7 229.71 261.007 230.499 261.544 231.129C262.09 231.751 262.784 232.216 263.628 232.523C264.48 232.821 265.413 232.97 266.428 232.97C267.544 232.97 268.537 232.795 269.406 232.446C270.284 232.088 270.974 231.594 271.477 230.963C271.98 230.324 272.232 229.578 272.232 228.726C272.232 227.95 272.01 227.315 271.567 226.821C271.132 226.327 270.54 225.918 269.79 225.594C269.048 225.27 268.209 224.984 267.271 224.737L264.178 223.893C262.081 223.322 260.419 222.483 259.192 221.375C257.973 220.267 257.364 218.801 257.364 216.977C257.364 215.469 257.773 214.152 258.591 213.027C259.409 211.902 260.517 211.028 261.915 210.406C263.313 209.776 264.889 209.46 266.645 209.46C268.418 209.46 269.982 209.771 271.337 210.393C272.7 211.016 273.774 211.872 274.558 212.963C275.342 214.045 275.751 215.29 275.786 216.696H271.976Z" fill="black"/>
<defs>
<linearGradient id="paint0_linear_13_636" x1="340.79" y1="287.255" x2="435.08" y2="381.545" gradientUnits="userSpaceOnUse">
<stop stop-color="#91D443"/>
<stop offset="1" stop-color="#48BFE0"/>
</linearGradient>
<linearGradient id="paint1_linear_13_636" x1="364.24" y1="263.805" x2="458.53" y2="358.095" gradientUnits="userSpaceOnUse">
<stop stop-color="#91D443"/>
<stop offset="1" stop-color="#48BFE0"/>
</linearGradient>
<linearGradient id="paint2_linear_13_636" x1="387.61" y1="240.435" x2="481.9" y2="334.725" gradientUnits="userSpaceOnUse">
<stop stop-color="#91D443"/>
<stop offset="1" stop-color="#48BFE0"/>
</linearGradient>
<linearGradient id="paint3_linear_13_636" x1="317.33" y1="310.705" x2="411.62" y2="404.995" gradientUnits="userSpaceOnUse">
<stop stop-color="#91D443"/>
<stop offset="1" stop-color="#48BFE0"/>
</linearGradient>
<linearGradient id="paint4_linear_13_636" x1="293.96" y1="334.075" x2="388.25" y2="428.365" gradientUnits="userSpaceOnUse">
<stop stop-color="#91D443"/>
<stop offset="1" stop-color="#48BFE0"/>
</linearGradient>
</defs>
</svg>
