<svg width="250" height="122" viewBox="0 0 250 122" fill="none" xmlns="http://www.w3.org/2000/svg">
<path d="M210.752 86.4805C210.755 88.7231 211.647 90.8731 213.233 92.4589C214.818 94.0447 216.968 94.9367 219.211 94.9394H229.654V84.4967C229.651 82.2541 228.759 80.1041 227.173 78.5183C225.587 76.9325 223.437 76.0405 221.195 76.0378H219.206C215.647 76.0405 212.232 74.6295 209.713 72.1151C207.194 69.6008 205.776 66.1888 205.772 62.6296V60.6509C205.768 58.4127 204.879 56.2671 203.297 54.683C201.716 53.0989 199.572 52.2051 197.334 52.1971H195.35C191.795 52.1917 188.388 50.7765 185.875 48.2619C183.362 45.7473 181.95 42.3386 181.947 38.7838V36.8001C181.943 34.5583 181.05 32.4096 179.465 30.8249C177.879 29.2403 175.73 28.3489 173.488 28.3462H163.045V38.7838C163.048 41.0264 163.94 43.1764 165.526 44.7622C167.112 46.348 169.262 47.2401 171.504 47.2428H173.493C177.048 47.2468 180.456 48.6607 182.97 51.1744C185.483 53.688 186.897 57.0961 186.901 60.6509V62.6296C186.908 64.8696 187.802 67.0157 189.387 68.5982C190.973 70.1806 193.12 71.0706 195.36 71.0733H197.344C200.899 71.0773 204.307 72.4913 206.821 75.0049C209.334 77.5186 210.748 80.9266 210.752 84.4815V86.4805Z" fill="url(#paint0_linear_13_941)"/>
<path d="M229.649 60.6509C229.646 58.4083 228.754 56.2583 227.168 54.6725C225.582 53.0868 223.432 52.1947 221.19 52.192H219.201C215.643 52.1933 212.229 50.7818 209.711 48.2675C207.193 45.7533 205.776 42.3422 205.772 38.7838V36.8001C205.768 34.5618 204.879 32.4162 203.297 30.8321C201.716 29.248 199.572 28.3543 197.334 28.3462L186.901 28.3462V38.9008C186.933 41.1226 187.838 43.2427 189.419 44.8034C191.001 46.3642 193.133 47.2403 195.355 47.2428H197.344C200.899 47.2468 204.307 48.6607 206.821 51.1744C209.334 53.688 210.748 57.0961 210.752 60.6509V62.6296C210.759 64.8643 211.649 67.0058 213.227 68.5874C214.806 70.169 216.946 71.0626 219.181 71.0733H229.649V60.6509Z" fill="url(#paint1_linear_13_941)"/>
<path d="M229.649 36.7339C229.632 34.5623 228.781 32.4802 227.272 30.9188C225.763 29.3573 223.711 28.4362 221.541 28.3462H210.589V38.8754C210.616 41.1007 211.518 43.226 213.101 44.7911C214.683 46.3562 216.818 47.2352 219.043 47.2377H229.649V36.7339Z" fill="url(#paint2_linear_13_941)"/>
<path d="M163.045 62.6499C163.049 64.8925 163.943 67.042 165.529 68.6268C167.116 70.2116 169.267 71.1024 171.509 71.1037H173.498C177.053 71.1078 180.461 72.5217 182.975 75.0353C185.488 77.549 186.902 80.9571 186.906 84.5119V86.4906C186.909 88.7332 187.801 90.8832 189.387 92.469C190.973 94.0548 193.123 94.9468 195.365 94.9495H205.772V84.3949C205.739 82.1784 204.838 80.0633 203.262 78.5044C201.685 76.9455 199.561 76.0671 197.344 76.058H195.36C191.804 76.0553 188.395 74.642 185.88 72.1282C183.366 69.6144 181.951 66.2056 181.947 62.6499V60.6661C181.944 58.4287 181.056 56.2833 179.477 54.6984C177.898 53.1135 175.756 52.2179 173.519 52.2072H163.045V62.6499Z" fill="url(#paint3_linear_13_941)"/>
<path d="M163.045 86.5618C163.061 88.7394 163.915 90.8271 165.431 92.3905C166.947 93.9538 169.008 94.8722 171.184 94.9547H182.11V84.4204C182.083 82.195 181.181 80.0698 179.599 78.5047C178.016 76.9396 175.881 76.0606 173.656 76.0581H163.045V86.5618Z" fill="url(#paint4_linear_13_941)"/>
<path d="M21.3843 64.924C21.9777 51.8745 24.7475 42.2198 30.5996 35.4305C36.591 28.4795 45.8912 24.4431 59.675 22.9357L59.6753 22.9357C65.48 22.2973 71.3095 21.9153 77.6216 21.5017C80.4905 21.3137 83.4592 21.1192 86.5706 20.8911C86.8306 24.4403 87.0162 28.2863 86.9954 31.694C86.9735 35.2887 86.721 38.3204 86.1226 40.0157C84.9332 43.3856 81.3 46.3228 76.9343 47.4313L76.9328 47.4317C73.3986 48.3403 68.834 48.4101 63.9285 48.4852C62.9339 48.5005 61.9253 48.5159 60.9085 48.5386C54.9299 48.672 48.699 49.0591 43.659 51.2396C36.7587 54.2248 32.8001 57.0093 27.8921 60.4617C25.9515 61.8268 23.8624 63.2963 21.3843 64.924Z" fill="#5072EB" stroke="#5072EB" stroke-width="1.01731"/>
<path d="M20.8948 100.76C21.4803 87.7137 24.246 78.0609 30.0951 71.2726C36.0844 64.3216 45.3845 60.2852 59.1683 58.7779L59.1686 58.7779C64.9733 58.1395 70.8028 57.7575 77.1149 57.3439C79.9838 57.1559 82.9525 56.9613 86.0639 56.7332C86.3239 60.2824 86.5095 64.1285 86.4887 67.5362C86.4668 71.1309 86.2142 74.1626 85.6159 75.8579C84.4265 79.2277 80.7933 82.165 76.4276 83.2735L76.4261 83.2738C72.8919 84.1824 68.3273 84.2523 63.4218 84.3274C62.4272 84.3426 61.4186 84.3581 60.4018 84.3807C54.4232 84.5141 48.1923 84.9013 43.1523 87.0817C36.2584 90.0642 32.3175 92.838 27.4261 96.2808C25.4811 97.6498 23.3858 99.1246 20.8948 100.76Z" fill="#6DD4D5" stroke="#6DD4D5" stroke-width="1.01731"/>
<path d="M118.959 54.6826L122.665 65.5291H122.815L126.521 54.6826H128.693L123.901 68.0001H121.579L116.787 54.6826H118.959ZM138.083 58.181C138.014 57.5654 137.728 57.0886 137.225 56.7504C136.722 56.408 136.089 56.2367 135.326 56.2367C134.78 56.2367 134.307 56.3234 133.909 56.4968C133.51 56.6659 133.2 56.9 132.979 57.1991C132.762 57.4939 132.654 57.8299 132.654 58.207C132.654 58.5235 132.727 58.7966 132.875 59.0264C133.026 59.2562 133.224 59.4491 133.466 59.6051C133.714 59.7569 133.978 59.8847 134.26 59.9888C134.542 60.0885 134.812 60.1709 135.073 60.2359L136.373 60.574C136.798 60.6781 137.234 60.819 137.68 60.9967C138.127 61.1744 138.541 61.4085 138.922 61.699C139.304 61.9895 139.611 62.3493 139.846 62.7785C140.084 63.2076 140.203 63.7213 140.203 64.3196C140.203 65.0739 140.008 65.7437 139.618 66.3289C139.232 66.9142 138.671 67.3759 137.934 67.714C137.201 68.0521 136.315 68.2212 135.274 68.2212C134.277 68.2212 133.414 68.063 132.686 67.7465C131.958 67.4301 131.388 66.9814 130.976 66.4005C130.564 65.8152 130.336 65.1216 130.293 64.3196H132.309C132.348 64.8008 132.504 65.2018 132.777 65.5226C133.055 65.8391 133.408 66.0753 133.837 66.2314C134.271 66.3831 134.745 66.459 135.261 66.459C135.829 66.459 136.334 66.3701 136.776 66.1924C137.223 66.0103 137.574 65.7589 137.83 65.4381C138.086 65.1129 138.213 64.7336 138.213 64.3001C138.213 63.9056 138.101 63.5826 137.875 63.3312C137.654 63.0797 137.353 62.8717 136.971 62.7069C136.594 62.5422 136.167 62.397 135.69 62.2712L134.117 61.8421C133.05 61.5516 132.205 61.1246 131.581 60.561C130.961 59.9975 130.651 59.2518 130.651 58.3241C130.651 57.5568 130.859 56.887 131.275 56.3148C131.691 55.7425 132.255 55.2982 132.966 54.9817C133.677 54.6609 134.479 54.5005 135.372 54.5005C136.273 54.5005 137.069 54.6587 137.758 54.9752C138.452 55.2917 138.998 55.7274 139.397 56.2822C139.796 56.8328 140.004 57.4657 140.021 58.181H138.083Z" fill="black"/>
<defs>
<linearGradient id="paint0_linear_13_941" x1="173.086" y1="38.382" x2="221.047" y2="86.3432" gradientUnits="userSpaceOnUse">
<stop stop-color="#91D443"/>
<stop offset="1" stop-color="#48BFE0"/>
</linearGradient>
<linearGradient id="paint1_linear_13_941" x1="185.014" y1="26.454" x2="232.975" y2="74.4152" gradientUnits="userSpaceOnUse">
<stop stop-color="#91D443"/>
<stop offset="1" stop-color="#48BFE0"/>
</linearGradient>
<linearGradient id="paint2_linear_13_941" x1="196.902" y1="14.5667" x2="244.863" y2="62.5279" gradientUnits="userSpaceOnUse">
<stop stop-color="#91D443"/>
<stop offset="1" stop-color="#48BFE0"/>
</linearGradient>
<linearGradient id="paint3_linear_13_941" x1="161.153" y1="50.3099" x2="209.114" y2="98.271" gradientUnits="userSpaceOnUse">
<stop stop-color="#91D443"/>
<stop offset="1" stop-color="#48BFE0"/>
</linearGradient>
<linearGradient id="paint4_linear_13_941" x1="149.266" y1="62.1972" x2="197.227" y2="110.158" gradientUnits="userSpaceOnUse">
<stop stop-color="#91D443"/>
<stop offset="1" stop-color="#48BFE0"/>
</linearGradient>
</defs>
</svg>
