<svg width="11" height="18" viewBox="0 0 11 18" fill="none" xmlns="http://www.w3.org/2000/svg">
<path fill-rule="evenodd" clip-rule="evenodd" d="M4.11145 1.44544C5.01007 0.546827 6.22885 0.0419922 7.49967 0.0419922H9.99967C10.3449 0.0419922 10.6247 0.321814 10.6247 0.666992V4.00033C10.6247 4.3455 10.3449 4.62533 9.99967 4.62533H7.49967C7.44442 4.62533 7.39143 4.64727 7.35236 4.68635C7.31329 4.72542 7.29134 4.77841 7.29134 4.83366V6.70866H9.99967C10.1921 6.70866 10.3739 6.79733 10.4923 6.94903C10.6107 7.10072 10.6527 7.29853 10.606 7.48524L9.77268 10.8186C9.70312 11.0968 9.45313 11.292 9.16634 11.292H7.29134V17.3337C7.29134 17.6788 7.01152 17.9587 6.66634 17.9587H3.33301C2.98783 17.9587 2.70801 17.6788 2.70801 17.3337V11.292H0.833008C0.48783 11.292 0.208008 11.0122 0.208008 10.667V7.33366C0.208008 6.98848 0.48783 6.70866 0.833008 6.70866H2.70801V4.83366C2.70801 3.56283 3.21284 2.34405 4.11145 1.44544ZM7.49967 1.29199C6.56037 1.29199 5.65953 1.66513 4.99534 2.32932C4.33115 2.99351 3.95801 3.89435 3.95801 4.83366V7.33366C3.95801 7.67884 3.67819 7.95866 3.33301 7.95866H1.45801V10.042H3.33301C3.67819 10.042 3.95801 10.3218 3.95801 10.667V16.7087H6.04134V10.667C6.04134 10.3218 6.32116 10.042 6.66634 10.042H8.67836L9.19919 7.95866H6.66634C6.32116 7.95866 6.04134 7.67884 6.04134 7.33366V4.83366C6.04134 4.44688 6.19499 4.07595 6.46848 3.80246C6.74197 3.52897 7.1129 3.37533 7.49967 3.37533H9.37467V1.29199H7.49967Z" fill="#47506D"/>
</svg>
