<svg width="229" height="64" viewBox="0 0 229 64" fill="none" xmlns="http://www.w3.org/2000/svg">
<mask id="mask0_13_805" style="mask-type:luminance" maskUnits="userSpaceOnUse" x="0" y="0" width="229" height="64">
<path d="M228.572 0H0V64H228.572V0Z" fill="white"/>
</mask>
<g mask="url(#mask0_13_805)">
<path d="M84.0444 15.9199V21.8666H68.0304V28.3372H82.7688V34.3262H68.0304V46.8044H60.3398V15.9199H84.0444Z" fill="#306BEA"/>
<path d="M88.9219 15.8789H95.5673V21.119H88.9219V15.8789ZM88.9219 23.9296H95.5673V46.8058H88.9219V23.9296Z" fill="#306BEA"/>
<path d="M98.8428 23.9729H105.933C108.735 34.1195 109.217 36.1971 109.958 40.5637C110.874 35.4903 111.006 34.9239 112.369 29.5437L113.766 23.9463H120.678L113.285 46.7803H106.24L98.8428 23.9729Z" fill="#306BEA"/>
<path d="M145.197 40.9806C144.422 42.2272 143.495 43.3758 142.437 44.3946C140.079 46.5278 136.998 47.6868 133.82 47.6338C127.034 47.6338 122.268 43.2672 122.268 35.82C122.268 30.31 124.983 23.2202 133.994 23.2202C137.072 23.1248 140.052 24.313 142.22 26.5044C145.197 29.7014 145.372 34.1606 145.458 36.7384H129.149C129.106 39.586 130.72 42.423 134.389 42.423C138.056 42.423 139.329 40.012 140.16 38.3976L145.197 40.9806ZM138.498 32.5384C138.444 31.3502 137.998 30.2122 137.233 29.2992C136.342 28.4706 135.167 28.0182 133.95 28.0342C132.653 28.0288 131.416 28.5686 130.535 29.5188C129.807 30.3788 129.34 31.4242 129.183 32.541H138.498V32.5384Z" fill="#306BEA"/>
<path d="M150.992 17.3613H157.69V24.4936H162.107V28.6062H157.645V38.8826C157.645 40.2798 157.645 41.5026 159.392 41.5026L161.803 41.4152V46.6552C160.633 46.8696 159.448 46.986 158.259 47.0046C155.936 47.0046 153.405 46.875 151.963 44.7684C151.048 43.416 151.003 41.791 151.003 39.6078V28.5612H147.674V24.4432H151L150.992 17.3613Z" fill="#306BEA"/>
<path d="M173.253 26.33C174.738 25.065 176.363 24.0594 179.853 23.71V29.6832L177.627 30.0324C174.388 30.5988 173.427 31.0804 173.427 33.9704V46.8058H166.729V23.9296H173.287L173.253 26.33Z" fill="#306BEA"/>
<path d="M183.383 30.4431C183.355 28.4689 184.246 26.5953 185.795 25.3699C187.891 23.7105 190.606 23.3613 193.276 23.3613C196.078 23.3613 202.88 24.0149 202.88 29.9191V43.2177C202.88 45.6711 203.01 46.0205 203.534 46.8065H196.933V44.7025C195.187 45.9675 193.302 47.4177 189.949 47.4177C184.709 47.4177 182.468 43.6545 182.468 40.4337C182.468 36.7577 185.403 34.6617 187.279 33.8757C189.156 33.0897 193.443 32.3037 196.291 31.7797V30.5569C196.203 29.5089 196.116 27.7543 193.67 27.7543C190.693 27.7543 190.299 29.5885 190.126 30.4273L183.383 30.4431ZM191.913 37.3163C190.777 37.7527 189.023 38.4065 189.023 40.1637C189.094 41.5083 190.238 42.5429 191.582 42.4767C192.411 42.4531 193.215 42.1963 193.906 41.7357C196.132 40.3385 196.219 38.2423 196.271 35.8765L191.913 37.3163Z" fill="#306BEA"/>
<path d="M215.048 26.0256C215.664 25.266 216.442 24.6548 217.328 24.2366C218.642 23.6808 220.056 23.3844 221.482 23.3632C222.892 23.3342 224.29 23.649 225.548 24.2788C227.96 25.5438 228.572 27.6054 228.572 31.1518V46.8084H221.884V33.9464C221.884 31.8956 221.842 31.1438 221.58 30.5326C221.034 29.3786 219.83 28.6826 218.556 28.7858C215.014 28.7858 215.014 31.6334 215.014 34.4704V46.8084H208.3V24.0168H215.084L215.048 26.0256Z" fill="#306BEA"/>
<path d="M31.5698 31.7604H37.948C38.456 31.771 38.8794 31.3662 38.89 30.858C38.8928 30.7284 38.8688 30.5986 38.8186 30.4796L27.8436 0.608712C27.7114 0.243498 27.3646 -0.00262534 26.9756 2.11349e-05H20.5738C20.0656 -0.00262534 19.6501 0.40758 19.6475 0.91835C19.6475 1.0295 19.666 1.13801 19.7057 1.24122L30.678 31.1518C30.813 31.525 31.173 31.771 31.5698 31.7604Z" fill="#306BEA"/>
<path d="M30.4182 63.5156H36.7962C37.3044 63.5182 37.7198 63.108 37.7226 62.5972C37.7226 62.486 37.704 62.3776 37.6642 62.2744L15.0342 0.608704C14.9019 0.24349 14.5553 1.27337e-05 14.1635 1.27337e-05H7.79347C7.28535 -0.00263374 6.86985 0.407572 6.86719 0.918342C6.86719 1.02949 6.88573 1.138 6.92543 1.24121L29.5502 62.9122C29.6852 63.2748 30.0318 63.5156 30.4182 63.5156Z" fill="#306BEA"/>
<path d="M17.8615 63.5153H24.2396C24.7476 63.5391 25.179 63.1447 25.2028 62.6365C25.2082 62.5121 25.1896 62.3905 25.1472 62.2739L14.1352 32.3635C14.0029 31.9983 13.6563 31.7521 13.2672 31.7549H6.85744C6.34932 31.7681 5.94704 32.1915 5.96028 32.6997C5.96292 32.8029 5.9841 32.9061 6.02114 33.0039L16.9935 62.9145C17.1285 63.2743 17.4751 63.5153 17.8615 63.5153Z" fill="#306BEA"/>
<path d="M32.3401 1.24917L37.4849 15.2411C37.6173 15.6063 37.9639 15.8525 38.3531 15.8498H44.7311C45.2391 15.8525 45.6547 15.4423 45.6573 14.9314C45.6573 14.8203 45.6389 14.7118 45.5991 14.6086L40.4543 0.608712C40.3221 0.243498 39.9753 -0.00262534 39.5863 2.11349e-05H33.2083C32.7001 -0.00262534 32.2821 0.404932 32.2793 0.915704C32.2793 1.0295 32.2979 1.1433 32.3401 1.24917Z" fill="#306BEA"/>
<path d="M6.09484 63.5177H12.4729C12.981 63.5203 13.3965 63.1101 13.3992 62.5993C13.3992 62.4881 13.3806 62.3797 13.3409 62.2765L8.16706 48.2475C8.03472 47.8823 7.68804 47.6361 7.299 47.6387H0.928916C0.42079 47.6361 0.00264648 48.0437 0 48.5545C0 48.6683 0.0185254 48.7821 0.0608692 48.8879L5.20564 62.9169C5.3406 63.2849 5.70052 63.5283 6.09484 63.5177Z" fill="#306BEA"/>
</g>
</svg>
