<svg width="18" height="19" viewBox="0 0 18 19" fill="none" xmlns="http://www.w3.org/2000/svg">
<g clip-path="url(#clip0_567_647)">
<path d="M5.40001 18.3666V14.5666C5.40001 14.2307 5.52643 13.9085 5.75148 13.671C5.97652 13.4334 6.28175 13.3 6.60001 13.3H11.4C11.7183 13.3 12.0235 13.4334 12.2485 13.671C12.4736 13.9085 12.6 14.2307 12.6 14.5666V18.3666M16.2 18.3666H1.80001C1.48175 18.3666 1.17652 18.2332 0.951478 17.9956C0.726434 17.7581 0.600006 17.4359 0.600006 17.1V1.89997C0.600006 1.56403 0.726434 1.24184 0.951478 1.0043C1.17652 0.766753 1.48175 0.633301 1.80001 0.633301H12.1032C12.4214 0.633373 12.7266 0.766872 12.9516 1.00443L17.0484 5.32883C17.2735 5.56632 17.3999 5.88845 17.4 6.22437V17.1C17.4 17.4359 17.2736 17.7581 17.0485 17.9956C16.8235 18.2332 16.5183 18.3666 16.2 18.3666Z" stroke="black"/>
</g>
<defs>
<clipPath id="clip0_567_647">
<rect width="18" height="19" fill="white"/>
</clipPath>
</defs>
</svg>
