<svg width="100" height="122" viewBox="0 0 100 122" fill="none" xmlns="http://www.w3.org/2000/svg">
<path d="M1.81023 65.9114C2.73806 46.7458 6.85938 32.586 15.4508 22.6186C24.3162 12.3334 38.0944 6.33761 58.5869 4.09665L58.5875 4.09658C67.2253 3.1466 75.8967 2.5784 85.2922 1.96276C89.4909 1.68764 93.8342 1.40304 98.3837 1.07066C98.7613 6.28416 99.0284 11.9069 98.998 16.8951C98.9653 22.2501 98.5879 26.7258 97.7122 29.2068C95.9753 34.1282 90.6447 38.4579 84.1999 40.0943L84.197 40.095C78.9651 41.44 72.2049 41.5438 64.9003 41.6559C63.4172 41.6786 61.9115 41.7017 60.3917 41.7356C51.4922 41.9342 42.1696 42.5095 34.6162 45.7773C24.318 50.2326 18.3965 54.3977 11.0782 59.5454C8.29643 61.5021 5.31279 63.6008 1.81023 65.9114Z" stroke="#5072EB" stroke-width="2"/>
<path d="M1.08087 119.272C1.99728 100.111 6.11257 85.9538 14.6996 75.9879C23.5617 65.7028 37.3398 59.707 57.8323 57.466L57.8329 57.466C66.4707 56.516 75.1421 55.9478 84.5376 55.3321C88.7363 55.057 93.0796 54.7724 97.6291 54.44C98.0068 59.6535 98.2738 65.2763 98.2434 70.2645C98.2107 75.6195 97.8333 80.0952 96.9577 82.5762C95.2207 87.4976 89.8901 91.8273 83.4453 93.4637L83.4424 93.4644C78.2106 94.8094 71.4503 94.9132 64.1457 95.0253C62.6626 95.048 61.157 95.0711 59.6371 95.105C50.7376 95.3036 41.415 95.8789 33.8617 99.1467C23.573 103.598 17.6777 107.747 10.3842 112.88C7.59541 114.843 4.60223 116.95 1.08087 119.272Z" stroke="#00A99D" stroke-width="2"/>
</svg>
