<svg width="94" height="64" viewBox="0 0 94 64" fill="none" xmlns="http://www.w3.org/2000/svg">
<path d="M0.548576 43.5297C0.548576 30.7718 7.20764 8.77176 25.2106 0.181801C26.9013 -0.624657 27.959 1.44117 26.5513 2.67031C14.2585 13.4041 10.1104 24.5231 21.1935 23.0595C32.5954 23.0595 41.8389 32.2251 41.8389 43.5297C41.8389 54.8344 32.5954 64 21.1935 64C9.79152 64 0.548092 54.8344 0.548092 43.5297H0.548576Z" fill="#5072EB"/>
<path d="M52.1619 43.5297C52.1619 30.7718 58.8209 8.77176 76.8239 0.181801C78.5146 -0.624657 79.5723 1.44117 78.1646 2.67031C65.8718 13.4041 61.7237 24.5231 72.8068 23.0595C84.2087 23.0595 93.4521 32.2251 93.4521 43.5297C93.4521 54.8344 84.2087 64 72.8068 64C61.4048 64 52.1614 54.8344 52.1614 43.5297H52.1619Z" fill="#5072EB"/>
</svg>
