<svg width="318" height="400" viewBox="0 0 318 400" fill="none" xmlns="http://www.w3.org/2000/svg">
<path fill-rule="evenodd" clip-rule="evenodd" d="M164 300C246.843 300 314 232.843 314 150C314 67.1573 246.843 0 164 0C81.1573 0 14 67.1573 14 150C14 232.843 81.1573 300 164 300ZM140.562 205.02L224.938 157.86C231.188 154.367 231.188 145.633 224.938 142.14L140.562 94.9795C134.312 91.4862 126.5 95.8528 126.5 102.84V197.16C126.5 204.147 134.312 208.514 140.562 205.02Z" fill="#5072EB" fill-opacity="0.5"/>
<path fill-rule="evenodd" clip-rule="evenodd" d="M184.417 388.164C183.64 390.191 181.845 393.046 179.301 395.056C177.832 396.218 176.078 397.328 173.668 398.06C171.1 398.841 167.937 399.105 164 399.105H128C124.063 399.105 120.9 398.841 118.331 398.06C115.922 397.328 114.168 396.218 112.699 395.056C110.155 393.045 108.36 390.191 107.582 388.164C106.016 384.079 106 379.445 106 376.526V339.579C106 336.66 106.016 332.026 107.582 327.941C108.36 325.914 110.154 323.06 112.699 321.049C114.168 319.888 115.922 318.778 118.331 318.045C120.9 317.264 124.063 317 128 317H164C167.937 317 171.1 317.264 173.669 318.045C176.078 318.778 177.832 319.888 179.301 321.049C181.845 323.06 183.64 325.914 184.418 327.941C185.984 332.026 186 336.66 186 339.579V376.526C186 379.445 185.984 384.079 184.417 388.164Z" fill="url(#paint0_linear_104_17)"/>
<path d="M152.904 363.31C151.691 362.017 149.561 361.188 147.046 361.188C144.531 361.188 142.401 362.017 141.188 363.31C140.555 363.984 140.221 364.676 140.115 365.661C139.911 367.569 140.026 369.212 140.247 371.839C140.458 374.342 140.858 377.679 141.38 381.079C141.752 383.498 142.054 384.803 142.329 385.738C142.775 387.254 144.441 388.579 147.046 388.579C149.651 388.579 151.317 387.253 151.763 385.738C152.038 384.803 152.34 383.498 152.711 381.079C153.234 377.679 153.634 374.342 153.845 371.839C154.066 369.212 154.181 367.569 153.976 365.661C153.871 364.676 153.536 363.984 152.904 363.31ZM140.438 351.797C140.438 355.488 143.399 358.48 147.052 358.48C150.705 358.48 153.667 355.488 153.667 351.797C153.667 348.106 150.705 345.113 147.052 345.113C143.399 345.113 140.438 348.106 140.438 351.797ZM146.97 325.421C131.501 325.466 118.825 338.147 118.634 353.777C118.478 366.438 126.477 377.269 137.646 381.239C137.918 381.335 138.193 381.108 138.15 380.821C138.004 379.838 137.866 378.85 137.739 377.878C137.694 377.535 137.477 377.239 137.163 377.1C128.335 373.203 122.171 364.257 122.27 353.894C122.399 340.294 133.39 329.207 146.849 329.097C160.608 328.984 171.837 340.262 171.837 354.139C171.837 364.399 165.7 373.235 156.94 377.101C156.626 377.24 156.411 377.537 156.367 377.88C156.24 378.851 156.102 379.839 155.955 380.821C155.912 381.108 156.188 381.335 156.459 381.239C167.521 377.307 175.474 366.645 175.474 354.14C175.473 338.276 162.679 325.376 146.97 325.421ZM146.457 338.596C155.226 338.253 162.468 345.362 162.468 354.148C162.468 358.616 160.595 362.651 157.6 365.492C157.346 365.732 157.21 366.075 157.229 366.426C157.289 367.495 157.267 368.533 157.197 369.706C157.178 370.019 157.525 370.218 157.781 370.042C162.802 366.575 166.105 360.744 166.105 354.148C166.105 343.287 157.152 334.5 146.312 334.924C136.239 335.319 128.157 343.711 128.028 353.898C127.943 360.597 131.266 366.532 136.352 370.043C136.607 370.219 136.953 370.019 136.934 369.707C136.863 368.533 136.842 367.495 136.901 366.426C136.921 366.075 136.785 365.733 136.531 365.492C133.443 362.563 131.547 358.365 131.668 353.73C131.881 345.575 138.388 338.912 146.457 338.596Z" fill="white"/>
<g clip-path="url(#clip0_104_17)">
<path d="M77.4843 207.805C76.5686 204.419 73.927 201.767 70.5409 200.862C65.9925 199.106 21.9371 198.245 9.15724 200.912C5.77107 201.828 3.1195 204.469 2.21384 207.855C0.161011 216.862 0.00503612 236.333 2.26416 245.541C3.17988 248.927 5.82139 251.579 9.20755 252.484C18.2138 254.557 61.0315 254.849 70.5912 252.484C73.9774 251.569 76.6289 248.927 77.5346 245.541C79.7233 235.73 79.8793 217.465 77.4843 207.805Z" fill="#FF0000"/>
<path d="M52.8302 226.673L32.3019 214.899V238.447L52.8302 226.673Z" fill="white"/>
</g>
<path d="M278 237.29C255.919 237.29 238 255.21 238 277.29C238 299.371 255.919 317.29 278 317.29C300.081 317.29 318 299.371 318 277.29C318 255.21 300.081 237.29 278 237.29Z" fill="#1ED760"/>
<path d="M303.581 273.274C302.742 273.274 302.226 273.064 301.5 272.645C290.016 265.79 269.484 264.145 256.194 267.855C255.613 268.016 254.887 268.274 254.113 268.274C251.984 268.274 250.355 266.613 250.355 264.468C250.355 262.274 251.71 261.032 253.161 260.613C258.839 258.952 265.194 258.161 272.113 258.161C283.887 258.161 296.226 260.613 305.242 265.871C306.5 266.597 307.323 267.597 307.323 269.516C307.323 271.71 305.548 273.274 303.581 273.274ZM298.581 285.564C297.742 285.564 297.177 285.194 296.597 284.887C286.516 278.919 271.484 276.516 258.113 280.145C257.339 280.355 256.919 280.564 256.194 280.564C254.468 280.564 253.065 279.161 253.065 277.435C253.065 275.71 253.903 274.564 255.565 274.097C260.048 272.839 264.629 271.903 271.339 271.903C281.806 271.903 291.919 274.5 299.887 279.242C301.194 280.016 301.71 281.016 301.71 282.419C301.694 284.161 300.339 285.564 298.581 285.564ZM294.242 296.145C293.565 296.145 293.145 295.935 292.516 295.564C282.452 289.5 270.742 289.242 259.177 291.613C258.548 291.774 257.726 292.032 257.258 292.032C255.694 292.032 254.71 290.79 254.71 289.484C254.71 287.823 255.694 287.032 256.903 286.774C270.113 283.855 283.613 284.113 295.129 291C296.113 291.629 296.694 292.194 296.694 293.661C296.694 295.129 295.548 296.145 294.242 296.145Z" fill="black"/>
<defs>
<linearGradient id="paint0_linear_104_17" x1="146" y1="317" x2="146" y2="399.105" gradientUnits="userSpaceOnUse">
<stop stop-color="#F452FF"/>
<stop offset="1" stop-color="#832BC1"/>
</linearGradient>
<clipPath id="clip0_104_17">
<rect width="80" height="55.3459" fill="white" transform="translate(0 199)"/>
</clipPath>
</defs>
</svg>
