<svg width="32" height="32" viewBox="0 0 32 32" fill="none" xmlns="http://www.w3.org/2000/svg">
<g clip-path="url(#clip0_217_4181)">
<path d="M10.1036 23.0111C9.07534 23.011 8.07153 23.3246 7.2263 23.9101C6.38102 24.4956 5.73446 25.325 5.37305 26.2877L6.55616 26.7315C6.86867 25.9015 7.46238 25.2075 8.23389 24.7702C9.0054 24.333 9.90585 24.1801 10.7784 24.3383C11.651 24.4966 12.4405 24.9558 13.0093 25.6362C13.5782 26.3166 13.8903 27.1749 13.8915 28.0617C13.8915 29.0663 13.4924 30.0298 12.7821 30.7402C12.0717 31.4505 11.1082 31.8496 10.1036 31.8496H3.79033C2.89589 31.8502 2.0301 31.5342 1.34628 30.9577C0.662452 30.3811 0.204708 29.5812 0.054094 28.6995C-0.0965147 27.8179 0.069724 26.9113 0.523378 26.1405C0.977027 25.3696 1.68883 24.7841 2.53274 24.4877C2.47866 23.3972 2.83022 22.3253 3.51963 21.4786C4.20906 20.6319 5.18749 20.0703 6.26639 19.9023C7.34524 19.7342 8.44815 19.9715 9.36242 20.5684C10.2767 21.1653 10.9377 22.0795 11.2178 23.1348C10.8522 23.0525 10.4784 23.011 10.1036 23.0111Z" fill="#5072EB"/>
<path d="M28.1036 3.01108C27.0753 3.011 26.0715 3.32464 25.2263 3.91012C24.381 4.4956 23.7345 5.32501 23.373 6.28767L24.5562 6.73148C24.8687 5.90154 25.4624 5.20749 26.2339 4.77022C27.0054 4.33295 27.9058 4.18011 28.7784 4.33835C29.651 4.49659 30.4405 4.95583 31.0093 5.63619C31.5782 6.31656 31.8903 7.17486 31.8915 8.06166C31.8915 9.06632 31.4924 10.0298 30.7821 10.7402C30.0717 11.4505 29.1082 11.8496 28.1036 11.8496H21.7903C20.8959 11.8502 20.0301 11.5342 19.3463 10.9577C18.6625 10.3811 18.2047 9.5812 18.0541 8.69951C17.9035 7.81786 18.0697 6.91131 18.5234 6.14046C18.977 5.36962 19.6888 4.78414 20.5327 4.48774C20.4787 3.39723 20.8302 2.32526 21.5196 1.47856C22.2091 0.631852 23.1875 0.0703461 24.2664 -0.0977156C25.3452 -0.265777 26.4481 -0.0284908 27.3624 0.568395C28.2767 1.16528 28.9377 2.07951 29.2178 3.13482C28.8522 3.05249 28.4784 3.01099 28.1036 3.01108Z" fill="#5072EB"/>
<path d="M8.30414 3.89795H4.40014C3.233 3.89795 2.11386 4.36168 1.28879 5.18674C0.463429 6.0121 0 7.13124 0 8.2981L0 12.6982H2.40014L2.40014 8.2981C2.40014 7.76768 2.6108 7.25903 2.9858 6.88374C3.3608 6.50874 3.86973 6.29808 4.40016 6.29808L8.30416 6.29808L5.95202 8.65023L7.64787 10.3461L12.048 5.94594C12.2726 5.72106 12.399 5.41608 12.399 5.09801C12.399 4.77994 12.2726 4.47496 12.048 4.25008L7.64787 -0.150062L5.95202 1.5458L8.30414 3.89795Z" fill="#5072EB"/>
<path d="M23.0943 27.6499H26.9983C28.1654 27.6499 29.2846 27.1862 30.1097 26.3611C30.935 25.5358 31.3984 24.4166 31.3984 23.2498V18.8496H28.9983V23.2498C28.9983 23.7802 28.7876 24.2888 28.4126 24.6641C28.0376 25.0391 27.5287 25.2498 26.9983 25.2498H23.0943L25.4464 22.8976L23.7506 21.2018L19.3504 25.6019C19.1258 25.8268 18.9994 26.1318 18.9994 26.4498C18.9994 26.7679 19.1258 27.0729 19.3504 27.2978L23.7506 31.6979L25.4464 30.0021L23.0943 27.6499Z" fill="#5072EB"/>
</g>
<defs>
<clipPath id="clip0_217_4181">
<rect width="32" height="32" fill="white"/>
</clipPath>
</defs>
</svg>
