<svg width="32" height="32" viewBox="0 0 32 32" fill="none" xmlns="http://www.w3.org/2000/svg">
<path d="M6.45887 13.5742V18.6338C6.6192 18.5673 6.78543 18.5068 6.95187 18.4553L7.22717 17.2334C7.25734 17.1035 7.37231 17.0096 7.50838 17.0096H8.38849H8.40959H8.5214H8.54249H9.42261C9.55572 17.0096 9.67365 17.1033 9.70381 17.2334L9.97911 18.4553C10.0245 18.4705 10.0698 18.4825 10.1152 18.4977V13.5742C10.1152 13.4138 10.2451 13.2869 10.4025 13.2869H11.9207L8.28556 8.75952L4.65039 13.2869H6.16863C6.32896 13.2869 6.45595 13.4168 6.45595 13.5742L6.45887 13.5742Z" fill="#5072EB"/>
<path d="M13.7356 10.8341V16.402C13.9746 16.2902 14.2225 16.1963 14.4765 16.1208L14.779 14.7781C14.8091 14.6481 14.9241 14.5543 15.0602 14.5543H16.019H16.0432H16.9778C17.1109 14.5543 17.2288 14.6479 17.259 14.7781L17.5615 16.1208C17.8125 16.1934 18.0545 16.287 18.2933 16.3961L18.2931 10.8341C18.2931 10.6738 18.4231 10.5468 18.5804 10.5468H20.5493L16.0159 4.90332L11.4824 10.5468H13.4513C13.6116 10.5468 13.7386 10.6768 13.7386 10.8341L13.7356 10.8341Z" fill="#5072EB"/>
<path d="M21.6178 13.2836C21.7782 13.2836 21.9052 13.4136 21.9052 13.571V18.4945C21.9505 18.4793 21.9959 18.4643 22.0412 18.4521L22.3165 17.2302C22.3467 17.1003 22.4617 17.0064 22.5977 17.0064H23.4778H23.4989H23.6107H23.6318H24.512C24.6451 17.0064 24.763 17.1001 24.7932 17.2302L25.0685 18.4521C25.2347 18.5036 25.4011 18.5609 25.5615 18.6305V13.5709C25.5615 13.4106 25.6914 13.2836 25.8488 13.2836H27.367L23.7319 8.75629L20.0967 13.2836L21.6178 13.2836Z" fill="#5072EB"/>
<path d="M19.2878 25.8316C19.2878 25.8316 19.306 25.8436 19.315 25.8497L19.8775 26.2067L20.3916 25.6926C20.3916 25.6926 20.4036 25.6805 20.4097 25.6774L20.9086 25.1785L20.204 24.0625C20.1466 23.9718 20.1435 23.8568 20.1979 23.7632C20.4217 23.3822 20.5911 22.9708 20.7029 22.5413C20.7301 22.4386 20.8118 22.3569 20.9177 22.3327L22.203 22.0424V21.3135V21.2893V20.5847L20.9177 20.2944C20.8118 20.2701 20.7301 20.1917 20.7029 20.0858C20.597 19.6776 20.4367 19.2873 20.2281 18.9183C20.1373 18.8215 20.1222 18.6734 20.1979 18.5584C20.2099 18.5433 20.2221 18.5283 20.2342 18.5131L20.9057 17.4516L20.3916 16.9375C20.3916 16.9375 20.3795 16.9254 20.3764 16.9193L19.8775 16.4204L18.7615 17.125C18.6708 17.1824 18.5558 17.1856 18.4622 17.1311C18.0812 16.9073 17.6698 16.7379 17.2435 16.6261C17.1408 16.5989 17.0591 16.5172 17.0349 16.4113L16.7446 15.126H16.0157H15.9915H15.2869L14.9966 16.4113C14.9723 16.5172 14.8939 16.5989 14.788 16.6261C14.3616 16.7379 13.9502 16.9073 13.5693 17.1311C13.4756 17.1856 13.3606 17.1826 13.2699 17.125L12.154 16.4204L11.6399 16.9345C11.6399 16.9345 11.6279 16.9465 11.6217 16.9497L11.1228 17.4486L11.8274 18.5646C11.8274 18.5646 11.8335 18.5736 11.8365 18.5798C11.8365 18.5798 11.8426 18.5979 11.8456 18.604V18.6131C11.8456 18.6131 11.8546 18.6251 11.8546 18.6312V18.6374C11.8546 18.6374 11.8608 18.6525 11.8637 18.6584V18.6675C11.8637 18.6675 11.8667 18.6795 11.8667 18.6827V18.6918V18.716V18.7222V18.7403V18.7464C11.8667 18.7616 11.8605 18.7797 11.8576 18.7947V18.8008C11.8576 18.8008 11.8515 18.8129 11.8485 18.819V18.8251C11.8485 18.8251 11.8394 18.8403 11.8365 18.8462V18.8523L11.8274 18.8614C11.6036 19.2424 11.4342 19.6537 11.3224 20.0801C11.2952 20.1828 11.2135 20.2644 11.1076 20.2887L9.82227 20.579V21.3078V21.3321V22.0367L11.1076 22.327C11.2135 22.3512 11.2952 22.4297 11.3224 22.5356C11.4342 22.9619 11.6036 23.3733 11.8274 23.7575C11.8818 23.8511 11.8789 23.9661 11.8213 24.0568L11.1167 25.1698L11.6308 25.6839C11.6308 25.6839 11.6428 25.6959 11.646 25.702L12.1449 26.2009L12.6771 25.8653C12.6771 25.8653 12.7073 25.8381 12.7255 25.8261C12.7436 25.8141 12.7647 25.805 12.7828 25.7989L13.2577 25.4995C13.3484 25.4421 13.4634 25.439 13.5571 25.4934C13.938 25.7172 14.3494 25.8896 14.7789 25.9984C14.8816 26.0256 14.9633 26.1073 14.9875 26.2132L15.2778 27.4986H16.0067H16.0309H16.7355L17.0258 26.2132C17.0501 26.1073 17.1285 26.0256 17.2344 25.9984C17.6608 25.8866 18.0722 25.7172 18.4563 25.4934C18.55 25.439 18.6649 25.4419 18.7557 25.4995L19.2487 25.8111C19.2487 25.8111 19.2698 25.8202 19.2788 25.8263L19.2878 25.8316ZM16.0186 24.5371C14.2435 24.5371 12.7977 23.0914 12.7977 21.3162C12.7977 19.541 14.2435 18.0953 16.0186 18.0953C17.7938 18.0953 19.2396 19.541 19.2396 21.3162C19.2396 23.0914 17.7938 24.5371 16.0186 24.5371Z" fill="#5072EB"/>
<path d="M29.2995 23.2453V22.5952L28.1382 22.3321C28.0323 22.3078 27.9507 22.2294 27.9235 22.1235C27.8207 21.7334 27.6663 21.3583 27.4608 21.0075C27.4064 20.9138 27.4094 20.7989 27.4669 20.7082L28.1051 19.6981L27.6606 19.2536C27.6606 19.2536 27.6486 19.2445 27.6454 19.2384L27.1857 18.7788L26.1786 19.4169C26.0879 19.4743 25.973 19.4774 25.8793 19.423C25.5314 19.2173 25.1565 19.0631 24.7663 18.9604C24.6636 18.9332 24.5819 18.8515 24.5577 18.7456L24.2946 17.5843H22.8369L22.5738 18.7456C22.5496 18.8515 22.4711 18.9332 22.3652 18.9604C22.1686 19.0118 21.9751 19.0783 21.7876 19.154C21.7575 19.1751 21.7241 19.1903 21.6849 19.1994C21.5368 19.2658 21.3914 19.3416 21.2495 19.4232C21.2071 19.4475 21.1617 19.4595 21.1134 19.4624C21.1497 19.5652 21.186 19.6681 21.2161 19.774L22.5589 20.0765C22.6888 20.1067 22.7827 20.2217 22.7827 20.3577V20.3879C23.058 20.3063 23.3451 20.2639 23.6386 20.2639C25.2838 20.2639 26.6204 21.6007 26.6204 23.2457C26.6204 24.891 25.2836 26.2276 23.6386 26.2276C22.8161 26.2276 22.0691 25.892 21.5307 25.3536C21.5187 25.3779 21.5005 25.4019 21.4792 25.4232L20.8018 26.1006C20.8018 26.1006 20.7898 26.1126 20.7837 26.1158L20.1213 26.7782C20.0276 26.8719 19.8763 26.89 19.7643 26.8174L19.2201 26.4727L19.0205 26.7873L19.4802 27.247C19.4802 27.247 19.4893 27.259 19.4954 27.2621L19.9399 27.7066L20.9469 27.0685C21.0377 27.0111 21.1526 27.008 21.2463 27.0624C21.5971 27.2681 21.9722 27.4223 22.3622 27.525C22.465 27.5522 22.5466 27.6339 22.5709 27.7398L22.8339 28.9011H23.4841H23.5052H23.617H23.6381H24.2883L24.5513 27.7398C24.5756 27.6339 24.6541 27.5522 24.76 27.525C25.15 27.4223 25.5251 27.2679 25.8759 27.0624C25.9696 27.008 26.0846 27.0109 26.1753 27.0685L27.1824 27.7066L27.6268 27.2621C27.6268 27.2621 27.6359 27.2501 27.642 27.247L28.1017 26.7873L27.4636 25.7802C27.4062 25.6895 27.403 25.5745 27.4575 25.4808C27.6632 25.13 27.8174 24.755 27.9201 24.3649C27.9473 24.2622 28.0289 24.1805 28.1348 24.1563L29.2991 23.8932V23.2641V23.2431L29.2995 23.2453Z" fill="#5072EB"/>
<path d="M12.2689 26.8174C12.1539 26.89 12.0058 26.8719 11.912 26.7782L11.2346 26.1008C11.2346 26.1008 11.2226 26.0888 11.2194 26.0827L10.557 25.4203C10.5327 25.396 10.5146 25.3719 10.5025 25.3447C9.96126 25.889 9.21426 26.2278 8.38853 26.2278C6.74327 26.2278 5.40665 24.891 5.40665 23.2459C5.40665 21.6007 6.74349 20.2641 8.38853 20.2641C8.68492 20.2641 8.97518 20.3065 9.25639 20.3911V20.3577C9.25639 20.2246 9.35005 20.1067 9.48021 20.0765L10.8229 19.774C10.8531 19.6681 10.8894 19.5654 10.9257 19.4624C10.8774 19.4624 10.8259 19.4504 10.7805 19.4232C10.6383 19.3416 10.4932 19.266 10.3451 19.1994C10.3088 19.1903 10.2725 19.1751 10.2424 19.154C10.0548 19.0753 9.86139 19.0118 9.6648 18.9604C9.56206 18.9332 9.48042 18.8515 9.45616 18.7456L9.1931 17.5843H7.7354L7.47234 18.7456C7.44808 18.8515 7.3696 18.9332 7.2637 18.9604C6.87364 19.0631 6.49856 19.2175 6.15071 19.423C6.05705 19.4774 5.94208 19.4745 5.85136 19.4169L4.84428 18.7788L4.38461 19.2384C4.38461 19.2384 4.37258 19.2475 4.36942 19.2536L3.92493 19.6981L4.56305 20.7082C4.62043 20.7989 4.6236 20.9138 4.56917 21.0075C4.36349 21.3583 4.20928 21.7334 4.10654 22.1235C4.07933 22.2262 3.99769 22.3078 3.89179 22.3321L2.73047 22.5952V23.2453V23.2664V23.8955L3.89476 24.1585C4.00066 24.1828 4.0823 24.2613 4.10951 24.3672C4.21225 24.7572 4.36667 25.1323 4.57214 25.4831C4.62657 25.5768 4.62362 25.6918 4.56602 25.7825L3.9279 26.7896L4.38758 27.2492C4.38758 27.2492 4.39665 27.2613 4.40276 27.2644L4.84725 27.7089L5.85433 27.0708C5.94505 27.0134 6.06002 27.0102 6.15368 27.0647C6.5045 27.2703 6.87956 27.4246 7.26964 27.5273C7.37237 27.5545 7.45402 27.6361 7.47828 27.742L7.74134 28.9034H8.3915H8.4126H8.52441H8.5455H9.19566L9.45873 27.742C9.48299 27.6362 9.56146 27.5545 9.66737 27.5273C10.0574 27.4246 10.4325 27.2701 10.7833 27.0647C10.877 27.0102 10.992 27.0132 11.0827 27.0708L12.0898 27.7089L12.5342 27.2644C12.5342 27.2644 12.5433 27.2524 12.5494 27.2492L13.0091 26.7896L12.8095 26.478L12.2712 26.8168L12.2689 26.8174Z" fill="#5072EB"/>
</svg>
