<svg width="32" height="32" viewBox="0 0 32 32" fill="none" xmlns="http://www.w3.org/2000/svg">
<path d="M27.7031 3.84961H23.0011" stroke="#5072EB"/>
<path d="M27.7031 11.8496H23.0011" stroke="#5072EB"/>
<path d="M27.7031 28.8496H23.0011" stroke="#5072EB"/>
<path d="M20.499 3.84988L16.5031 15.1956M20.499 11.3499L16.5031 15.9009M20.4987 21.3499L16.3856 16.3711M15.9154 16.7629L20.4983 29.3499" stroke="#5072EB"/>
<path d="M27.7031 20.8496H23.0011" stroke="#5072EB"/>
<circle cx="2.5" cy="2.5" r="2.5" transform="matrix(-1 0 0 1 24.6914 26.5264)" fill="#5072EB"/>
<circle cx="2.5" cy="2.5" r="2.5" transform="matrix(-1 0 0 1 30.6523 0.849609)" fill="#5072EB"/>
<circle cx="2.5" cy="2.5" r="2.5" transform="matrix(-1 0 0 1 30.6523 8.84961)" fill="#5072EB"/>
<circle cx="2.5" cy="2.5" r="2.5" transform="matrix(-1 0 0 1 30.6914 26.5264)" fill="#5072EB"/>
<circle cx="2.5" cy="2.5" r="2.5" transform="matrix(-1 0 0 1 24.6914 18.5264)" fill="#5072EB"/>
<circle cx="2.5" cy="2.5" r="2.5" transform="matrix(-1 0 0 1 30.6914 18.5264)" fill="#5072EB"/>
<circle cx="2.5" cy="2.5" r="2.5" transform="matrix(-1 0 0 1 24.6523 0.849609)" fill="#5072EB"/>
<circle cx="2.5" cy="2.5" r="2.5" transform="matrix(-1 0 0 1 24.6523 8.84961)" fill="#5072EB"/>
<path d="M5 6.84979H9.702" stroke="#5072EB"/>
<path d="M3 16.8498H7.702" stroke="#5072EB"/>
<path d="M4 25.8498H8.702" stroke="#5072EB"/>
<path d="M11.498 7.84995L15.4971 15.1163M9.46289 16.8216H15.4971M10.998 24.3499L15.6147 16.6053" stroke="#5072EB"/>
<circle cx="9.5" cy="25.3498" r="2.5" fill="#5072EB"/>
<circle cx="3.5" cy="7.34979" r="2.5" fill="#5072EB"/>
<circle cx="3.5" cy="16.3498" r="2.5" fill="#5072EB"/>
<circle cx="3.5" cy="25.3498" r="2.5" fill="#5072EB"/>
<circle cx="9.5" cy="7.34979" r="2.5" fill="#5072EB"/>
<path d="M18 16.3498C18 17.7305 16.8807 18.8498 15.5 18.8498C14.1193 18.8498 13 17.7305 13 16.3498C13 14.9691 14.1193 13.8498 15.5 13.8498C16.8807 13.8498 18 14.9691 18 16.3498Z" fill="#5072EB"/>
<circle cx="9.5" cy="16.3498" r="2.5" fill="#5072EB"/>
</svg>
