<svg width="32" height="32" viewBox="0 0 32 32" fill="none" xmlns="http://www.w3.org/2000/svg">
<path d="M25.2429 19.4734L25.2231 12.5738C25.9348 12.3563 26.4291 11.6842 26.4291 10.9132C26.4291 9.94447 25.6383 9.17349 24.6894 9.17349C24.2347 9.17349 23.8393 9.35141 23.523 9.62816L17.4734 6.16855C17.4931 6.04994 17.5129 5.95109 17.5129 5.83247C17.5129 5.35801 17.335 4.92308 16.9989 4.60678C16.6628 4.2707 16.2279 4.09277 15.7732 4.09277C14.8045 4.09277 14.0335 4.88355 14.0335 5.83247C14.0335 5.95109 14.0533 6.06971 14.0731 6.16855L8.00398 9.70724C7.68768 9.4107 7.25275 9.23277 6.81783 9.23277C5.84911 9.23277 5.07812 10.0235 5.07812 10.9725C5.07812 11.4469 5.25605 11.8819 5.59213 12.1982C5.80959 12.4156 6.06659 12.554 6.36311 12.6331L6.38288 19.5128C5.65139 19.7105 5.11764 20.4025 5.11764 21.1932C5.11764 22.162 5.90841 22.9329 6.85734 22.9329C7.31201 22.9329 7.7074 22.755 8.02371 22.4783L14.1325 25.9775C14.1128 26.0961 14.093 26.2147 14.093 26.3531C14.093 26.8275 14.2709 27.2625 14.607 27.5788C14.9431 27.9148 15.378 28.0928 15.8327 28.0928C16.8014 28.0928 17.5724 27.302 17.5724 26.3531C17.5724 26.2345 17.5526 26.1158 17.5329 25.9775L23.5825 22.4585C23.8988 22.7353 24.2942 22.8934 24.7291 22.8934C25.6978 22.8934 26.4688 22.1027 26.4688 21.1537C26.4688 20.6793 26.2909 20.2444 25.9548 19.928C25.7571 19.7106 25.5199 19.5722 25.2431 19.4734L25.2429 19.4734ZM14.5083 7.0384L14.528 7.05817L12.5511 10.498H8.55771L14.5083 7.0384ZM11.2068 18.9199L11.9383 20.0862H9.11131L11.2068 18.9199ZM8.55773 19.2955L9.94158 16.8836L10.6928 18.0896L8.55773 19.2955ZM11.5429 17.6349L10.4951 15.9545L11.5626 14.0961L14.7653 15.8358L11.5429 17.6349ZM11.2068 12.7913L8.73561 11.447H11.9778L11.2068 12.7913ZM10.7323 13.6216L9.92177 15.0054L8.2216 12.2575L10.7323 13.6216ZM7.33201 19.4932L7.31224 12.6528H7.33201L9.36823 15.974L7.33201 19.4932ZM14.5872 25.147L8.5376 21.6874C8.57714 21.5292 8.59691 21.3711 8.59691 21.2129V21.0548H12.531L14.9033 24.9098C14.7847 24.9691 14.6858 25.0481 14.587 25.147H14.5872ZM15.2989 23.7038L13.6383 21.035H15.2791V23.7038H15.2989ZM15.2989 20.086H13.065L12.0568 18.4452L15.2989 16.6462V20.086ZM15.2989 15.0251L12.0568 13.2459L13.1046 11.4469H15.2989V15.0251ZM15.2989 10.4978H13.6581L15.2989 7.65103V10.4978ZM19.6482 14.2144L20.7751 16.2112L19.9447 17.5753L16.7619 15.8158L19.6482 14.2144ZM19.1935 11.4467H22.6334L20.0238 12.9097L19.1935 11.4467ZM20.3006 18.8601L22.5543 20.0858H19.5691L20.3006 18.8601ZM20.7948 18.0298L21.3089 17.16L22.238 18.8206L20.7948 18.0298ZM20.4983 13.7398L23.1474 12.2572L21.3484 15.2423L20.4983 13.7398ZM17.0387 7.01827L23.0088 10.4384C23.0088 10.4582 23.0088 10.4779 22.989 10.4977H18.6398L16.8012 7.21599C16.9001 7.15668 16.9791 7.09737 17.0385 7.01829L17.0387 7.01827ZM16.2479 8.16489L17.5527 10.4977H16.2479V8.16489ZM16.2479 11.4466H18.1062L19.1935 13.3642L16.2677 15.0051V11.4466H16.2479ZM16.2479 16.6458L19.4703 18.4053L18.4621 20.0857H16.2479V16.6458ZM16.2479 21.0346H17.869L16.2479 23.743V21.0346ZM17.0782 25.1466C16.9596 25.028 16.841 24.9292 16.7026 24.8501L18.9959 21.0346H22.9893V21.1532C22.9893 21.3311 23.009 21.509 23.0683 21.6672L17.0782 25.1466ZM23.8197 19.651L21.8823 16.2111L24.0767 12.534C24.136 12.5538 24.1953 12.5736 24.2546 12.5933L24.2744 19.4532C24.1162 19.4927 23.9778 19.5718 23.8197 19.6509V19.651Z" fill="#5072EB"/>
</svg>
