<svg width="32" height="32" viewBox="0 0 32 32" fill="none" xmlns="http://www.w3.org/2000/svg">
<path d="M17.6843 7.03403H21.2467C21.3217 7.03403 21.4342 6.9965 21.5092 6.92161L22.9342 5.64662H25.7467C25.8968 6.20907 26.3844 6.58401 26.9844 6.58401C27.6968 6.58401 28.2969 6.02156 28.2969 5.2715C28.2969 4.5591 27.6967 3.95898 26.9844 3.95898C26.3844 3.95898 25.8968 4.37147 25.7469 4.89656H22.7844C22.7093 4.89656 22.5969 4.93409 22.5219 5.00898L21.0969 6.28397H17.6844L17.6843 4.33414C17.6843 4.10913 17.5343 3.95918 17.3093 3.95918H14.6094C14.4219 3.95918 14.2719 4.10913 14.2344 4.29661L13.9343 6.8466C13.0719 7.07161 12.2468 7.40905 11.4968 7.85903L9.50925 6.28396C9.3593 6.17154 9.13429 6.17154 9.0217 6.32149L6.65918 8.68401C6.50924 8.83396 6.50924 9.02144 6.62165 9.17156L8.19673 11.1591C7.74671 11.909 7.40928 12.7342 7.18429 13.5967L4.6343 13.8967C4.447 13.9341 4.29688 14.084 4.29688 14.2715V17.6089C4.29688 17.7964 4.44682 17.9464 4.6343 17.9839L7.18429 18.284C7.4093 19.1464 7.74674 19.9715 8.19673 20.7215L6.62165 22.7091C6.50923 22.859 6.50923 23.084 6.65918 23.1966L9.0217 25.5591C9.17165 25.7091 9.35913 25.7091 9.50925 25.5966L11.4968 24.0216C12.2467 24.4716 13.0719 24.809 13.9343 25.034L14.2344 27.584C14.2719 27.7715 14.4219 27.9214 14.6094 27.9214H17.3093C17.5343 27.9214 17.6843 27.734 17.6843 27.5465V25.634H21.0967L22.5217 26.909C22.5967 26.984 22.6716 27.0214 22.7842 27.0214H25.7467C25.8967 27.5465 26.4217 27.959 26.9842 27.959C27.6967 27.959 28.2967 27.359 28.2967 26.6465C28.2967 25.9339 27.6967 25.3339 26.9842 25.3339C26.3842 25.3339 25.8967 25.7464 25.7467 26.2715H22.9342L21.5092 24.9965C21.4342 24.9215 21.3593 24.8841 21.2467 24.8841H17.6843V23.2342H21.2467C21.3591 23.2342 21.4717 23.1966 21.5468 23.1218L22.9717 21.5093H24.6216C24.7716 22.0344 25.2966 22.4469 25.8591 22.4469C26.5716 22.4469 27.1716 21.8469 27.1716 21.1344C27.1716 20.4219 26.5716 19.8219 25.8591 19.8219C25.2591 19.8219 24.7716 20.2344 24.6216 20.7595H22.7842C22.6718 20.7595 22.5592 20.797 22.4841 20.8719L21.0592 22.4843H17.6467V21.6218C17.6467 21.3968 17.4967 21.2468 17.2717 21.2468C14.4217 21.2468 12.1344 19.0343 11.909 16.2593H15.959C16.1089 16.7844 16.634 17.1969 17.1965 17.1969C17.909 17.1969 18.509 16.5969 18.509 15.8844C18.509 15.1719 17.909 14.5719 17.1965 14.5719C16.5965 14.5719 16.1089 14.9844 15.959 15.5095L11.9465 15.5091C12.134 12.7341 14.459 10.5216 17.3093 10.5216C17.5343 10.5216 17.6842 10.3717 17.6842 10.1467V9.35921H21.0967L22.5216 10.9716C22.5967 11.0467 22.7091 11.084 22.8217 11.084H24.6592C24.8091 11.6091 25.3342 12.0216 25.8966 12.0216C26.6092 12.0216 27.2091 11.4216 27.2091 10.7091C27.2091 9.99656 26.6092 9.39658 25.8966 9.39658C25.2966 9.39658 24.8091 9.80907 24.6592 10.3342H23.0092L21.5468 8.79679C21.4717 8.72173 21.3593 8.68437 21.2467 8.68437H17.6843L17.6843 7.03403Z" fill="#5072EB"/>
<path d="M26.9844 4.70904C27.2843 4.70904 27.5469 4.97157 27.5469 5.27149C27.5469 5.60909 27.2843 5.83408 26.9844 5.83408M26.9844 26.0838C27.2845 26.0838 27.5469 26.3464 27.5469 26.6463C27.5469 26.9464 27.2843 27.2088 26.9844 27.2088M25.8594 20.6091C26.1594 20.6091 26.4218 20.8717 26.4218 21.1716C26.4218 21.4716 26.1593 21.734 25.8594 21.734M25.8594 10.2216C26.1594 10.2216 26.4218 10.4841 26.4218 10.784C26.4218 11.0841 26.1593 11.3465 25.8594 11.3465M17.2718 15.3967C16.9344 15.3967 16.7094 15.6217 16.7094 15.9591C16.7094 16.259 16.9718 16.5216 17.2718 16.5216M7.40942 8.87127L8.94697 10.8213C9.05956 10.9712 9.05957 11.1214 8.9845 11.2713C8.45944 12.0963 8.08447 12.9963 7.85946 13.9712C7.8221 14.1214 7.67198 14.2338 7.52203 14.2713L5.04709 14.5714V17.2713L7.44694 17.5714C7.63442 17.6089 7.74684 17.7215 7.78437 17.8714C8.00936 18.8464 8.38435 19.7464 8.90942 20.5714C8.9843 20.7213 8.9843 20.909 8.87188 21.0214L7.33433 22.9714L9.24682 24.8839L11.1968 23.3464C11.3468 23.2338 11.4969 23.2338 11.6469 23.3088C12.4718 23.8339 13.3719 24.2089 14.3468 24.4339C14.4969 24.4712 14.6093 24.6213 14.6469 24.7713L14.9469 27.2462H16.9345V24.1712C12.5845 23.9836 9.09689 20.3836 9.09689 15.9962C9.09689 14.7587 9.35927 13.5588 9.88434 12.4713C9.9594 12.2838 10.1844 12.2088 10.3719 12.2838C10.5594 12.3589 10.6344 12.5839 10.5594 12.7714C10.0718 13.7463 9.84683 14.8338 9.84683 15.9588C9.84683 19.9338 12.997 23.1964 16.9344 23.3839V22.0714C13.7469 21.8842 11.197 19.2216 11.197 15.9591C11.197 12.6966 13.7473 10.0338 16.9349 9.88387V8.53384C14.7222 8.64645 12.6973 9.73379 11.3473 11.5338C11.2347 11.684 10.9721 11.7213 10.8222 11.6089C10.6721 11.4963 10.6347 11.2338 10.7471 11.0838C12.2093 9.05892 14.4595 7.89635 16.9345 7.78393V4.70887H14.947L14.7219 7.07139C14.6844 7.25887 14.5718 7.37129 14.4219 7.40882C13.447 7.63381 12.5469 8.00879 11.7219 8.53386C11.572 8.60875 11.3843 8.60875 11.2719 8.49633M17.6843 7.03403H21.2467C21.3217 7.03403 21.4342 6.9965 21.5092 6.92161L22.9342 5.64662H25.7467C25.8968 6.20907 26.3844 6.58401 26.9844 6.58401C27.6968 6.58401 28.2969 6.02156 28.2969 5.2715C28.2969 4.5591 27.6967 3.95898 26.9844 3.95898C26.3844 3.95898 25.8968 4.37147 25.7469 4.89656H22.7844C22.7093 4.89656 22.5969 4.93409 22.5219 5.00898L21.0969 6.28397H17.6844L17.6843 4.33414C17.6843 4.10913 17.5343 3.95918 17.3093 3.95918H14.6094C14.4219 3.95918 14.2719 4.10913 14.2344 4.29661L13.9343 6.8466C13.0719 7.07161 12.2468 7.40905 11.4968 7.85903L9.50925 6.28396C9.3593 6.17154 9.13429 6.17154 9.0217 6.32149L6.65918 8.68401C6.50924 8.83396 6.50924 9.02144 6.62165 9.17156L8.19673 11.1591C7.74671 11.909 7.40928 12.7342 7.18429 13.5967L4.6343 13.8967C4.447 13.9341 4.29688 14.084 4.29688 14.2715V17.6089C4.29688 17.7964 4.44682 17.9464 4.6343 17.9839L7.18429 18.284C7.4093 19.1464 7.74674 19.9715 8.19673 20.7215L6.62165 22.7091C6.50923 22.859 6.50923 23.084 6.65918 23.1966L9.0217 25.5591C9.17165 25.7091 9.35913 25.7091 9.50925 25.5966L11.4968 24.0216C12.2467 24.4716 13.0719 24.809 13.9343 25.034L14.2344 27.584C14.2719 27.7715 14.4219 27.9214 14.6094 27.9214H17.3093C17.5343 27.9214 17.6843 27.734 17.6843 27.5465V25.634H21.0967L22.5217 26.909C22.5967 26.984 22.6716 27.0214 22.7842 27.0214H25.7467C25.8967 27.5465 26.4217 27.959 26.9842 27.959C27.6967 27.959 28.2967 27.359 28.2967 26.6465C28.2967 25.9339 27.6967 25.3339 26.9842 25.3339C26.3842 25.3339 25.8967 25.7464 25.7467 26.2715H22.9342L21.5092 24.9965C21.4342 24.9215 21.3593 24.8841 21.2467 24.8841H17.6843V23.2342H21.2467C21.3591 23.2342 21.4717 23.1966 21.5468 23.1218L22.9717 21.5093H24.6216C24.7716 22.0344 25.2966 22.4469 25.8591 22.4469C26.5716 22.4469 27.1716 21.8469 27.1716 21.1344C27.1716 20.4219 26.5716 19.8219 25.8591 19.8219C25.2591 19.8219 24.7716 20.2344 24.6216 20.7595H22.7842C22.6718 20.7595 22.5592 20.797 22.4841 20.8719L21.0592 22.4843H17.6467V21.6218C17.6467 21.3968 17.4967 21.2468 17.2717 21.2468C14.4217 21.2468 12.1344 19.0343 11.909 16.2593H15.959C16.1089 16.7844 16.634 17.1969 17.1965 17.1969C17.909 17.1969 18.509 16.5969 18.509 15.8844C18.509 15.1719 17.909 14.5719 17.1965 14.5719C16.5965 14.5719 16.1089 14.9844 15.959 15.5095L11.9465 15.5091C12.134 12.7341 14.459 10.5216 17.3093 10.5216C17.5343 10.5216 17.6842 10.3717 17.6842 10.1467V9.35921H21.0967L22.5216 10.9716C22.5967 11.0467 22.7091 11.084 22.8217 11.084H24.6592C24.8091 11.6091 25.3342 12.0216 25.8966 12.0216C26.6092 12.0216 27.2091 11.4216 27.2091 10.7091C27.2091 9.99656 26.6092 9.39658 25.8966 9.39658C25.2966 9.39658 24.8091 9.80907 24.6592 10.3342H23.0092L21.5468 8.79679C21.4717 8.72173 21.3593 8.68437 21.2467 8.68437H17.6843L17.6843 7.03403Z" stroke="#5072EB" stroke-width="0.5"/>
<path d="M24.3218 14.0838C23.4218 14.0838 22.6719 14.7213 22.4844 15.5838H19.6718C19.4468 15.5838 19.2969 15.7338 19.2969 15.9588C19.2969 16.1838 19.4468 16.3337 19.6718 16.3337H22.4844C22.6719 17.1962 23.422 17.8337 24.3218 17.8337C25.3718 17.8337 26.1968 17.0087 26.1968 15.9587C26.1968 14.9087 25.3343 14.0838 24.3218 14.0838Z" fill="#5072EB"/>
<path d="M24.3218 17.0838C24.9218 17.0838 25.4469 16.5588 25.4469 15.9588C25.4469 15.3213 24.9218 14.8337 24.3218 14.8337M24.3218 14.0838C23.4218 14.0838 22.6719 14.7213 22.4844 15.5838H19.6718C19.4468 15.5838 19.2969 15.7338 19.2969 15.9588C19.2969 16.1838 19.4468 16.3337 19.6718 16.3337H22.4844C22.6719 17.1962 23.422 17.8337 24.3218 17.8337C25.3718 17.8337 26.1968 17.0087 26.1968 15.9587C26.1968 14.9087 25.3343 14.0838 24.3218 14.0838Z" stroke="#5072EB" stroke-width="0.5"/>
</svg>
