<svg width="32" height="32" viewBox="0 0 32 32" fill="none" xmlns="http://www.w3.org/2000/svg">
<path d="M22.949 18.9854C21.7818 18.9854 20.6627 19.4491 19.8376 20.2742C19.0125 21.0992 18.5488 22.2184 18.5488 23.3855C18.5488 24.5524 19.0126 25.6715 19.8376 26.4969C20.6627 27.322 21.7818 27.7854 22.949 27.7854C24.1158 27.7854 25.235 27.3219 26.0603 26.4969C26.8854 25.6715 27.3488 24.5524 27.3488 23.3855C27.3488 22.2184 26.8854 21.0992 26.0603 20.2742C25.235 19.4491 24.1158 18.9854 22.949 18.9854Z" fill="#5072EB"/>
<path d="M8.54927 13.3854C9.71641 13.3854 10.8356 12.9217 11.6606 12.0966C12.4857 11.2715 12.9494 10.1524 12.9494 8.98525C12.9494 7.81839 12.4857 6.69925 11.6606 5.87389C10.8356 5.04882 9.71641 4.58539 8.54927 4.58539C7.38241 4.58539 6.26327 5.04884 5.43791 5.87389C4.61284 6.69925 4.14941 7.81839 4.14941 8.98525C4.14941 10.1524 4.61286 11.2715 5.43791 12.0966C6.26327 12.9217 7.38241 13.3854 8.54927 13.3854Z" fill="#5072EB"/>
<path d="M24.1489 12.4897V8.58569C24.1489 7.41855 23.6852 6.2994 22.8601 5.47433C22.0348 4.64898 20.9156 4.18555 19.7488 4.18555H15.3486V6.58569H19.7488C20.2792 6.58569 20.7878 6.79635 21.1631 7.17135C21.5381 7.54635 21.7488 8.05528 21.7488 8.5857V12.4897L19.3966 10.1376L17.7008 11.8334L22.1009 16.2336C22.3258 16.4582 22.6308 16.5846 22.9489 16.5846C23.2669 16.5846 23.5719 16.4582 23.7968 16.2336L28.1969 11.8334L26.5011 10.1376L24.1489 12.4897Z" fill="#5072EB"/>
<path d="M9.74893 23.7854V19.8814L12.1011 22.2335L13.7969 20.5377L9.39678 16.1375C9.1719 15.9129 8.86693 15.7865 8.54885 15.7865C8.23078 15.7865 7.9258 15.9129 7.70093 16.1375L3.30078 20.5377L4.99664 22.2335L7.34878 19.8814V23.7854C7.34878 24.9525 7.81251 26.0717 8.63757 26.8968C9.46292 27.7221 10.5821 28.1855 11.7489 28.1855H16.1491V25.7854H11.7489C11.2185 25.7854 10.7099 25.5747 10.3346 25.1997C9.95957 24.8247 9.74893 24.3158 9.74893 23.7854Z" fill="#5072EB"/>
</svg>
