<svg width="21" height="20" viewBox="0 0 21 20" fill="none" xmlns="http://www.w3.org/2000/svg">
<path d="M13.7 18.46C13.7531 18.46 13.807 18.4494 13.8559 18.4254C14.0189 18.3514 14.0983 18.1756 14.0416 18.0143L11.3193 10.3381L14.06 10.3381C14.1812 10.3381 14.2918 10.2815 14.3598 10.1876C14.4272 10.0936 14.4385 9.97506 14.3917 9.87046L10.792 1.74857C10.7367 1.62198 10.6049 1.54004 10.4603 1.54004L7.03991 1.54004C6.91801 1.54004 6.8039 1.598 6.73799 1.6946C6.67137 1.7912 6.66144 1.91179 6.71106 2.01572L9.54462 7.96973L6.85989 7.96973C6.72807 7.96973 6.60687 8.03835 6.54379 8.14695C6.48071 8.25621 6.48567 8.38878 6.55938 8.49338L13.3988 18.3068C13.4682 18.4054 13.5816 18.46 13.7 18.46Z" fill="#3F3F46"/>
</svg>
