<svg width="252" height="62" viewBox="0 0 252 62" fill="none" xmlns="http://www.w3.org/2000/svg">
<path fill-rule="evenodd" clip-rule="evenodd" d="M236.885 1H12.0682C11.0528 1 10.0881 1.10161 9.07271 1.25402C8.10804 1.40644 7.14338 1.71126 6.28026 2.1685C5.41714 2.62574 4.60479 3.23539 3.89399 3.89585C3.18318 4.60711 2.62469 5.36918 2.16775 6.28366C1.7108 7.14733 1.40617 8.11261 1.25386 9.0779C1.10154 10.0432 1 11.0593 1 12.0754C1 12.2786 1 12.4818 1 12.7866V13.0406C1 13.2439 1 13.3455 1 13.4979V48.6037C1 48.7561 1 48.8069 1 49.061V49.2642C1 49.569 1 49.7722 1 49.9755C1 50.9915 1.10154 51.9568 1.25386 52.9729C1.40617 53.9382 1.7108 54.9035 2.16775 55.7672C2.62469 56.6308 3.18318 57.4437 3.89399 58.1042C4.60479 58.8154 5.36637 59.3743 6.28026 59.8315C7.14338 60.2887 8.10804 60.5936 9.07271 60.746C10.0374 60.8984 11.0528 61 12.0682 61H13.4391H238.459H239.881C240.896 61 241.861 60.8984 242.877 60.746C243.841 60.5936 244.806 60.2887 245.669 59.8315C246.532 59.3743 247.344 58.8154 248.055 58.1042C248.766 57.3929 249.325 56.6308 249.781 55.7672C250.238 54.9035 250.543 53.9382 250.695 52.9729C250.848 52.0076 250.949 50.9915 251 49.9755V48.6037C251 48.5021 251 48.4005 251 48.2481C251 47.8925 251 47.5876 251 46.9272V15.1236C251 14.3108 251 13.9551 251 13.4471V12.0754C251 11.0593 250.898 10.094 250.695 9.0779C250.543 8.11261 250.238 7.14733 249.781 6.28366C248.868 4.5055 247.446 3.08298 245.669 2.1685C244.806 1.71126 243.841 1.40644 242.877 1.25402C241.912 1.10161 240.896 1 239.881 1H236.885Z" fill="#010202" stroke="#222225" stroke-width="0.760288"/>
<path fill-rule="evenodd" clip-rule="evenodd" d="M136.184 28.9546C136.993 29.3637 138.005 29.0568 138.41 28.2387C138.815 27.4716 138.562 26.5512 137.854 26.0398C131.276 22.1024 120.903 21.6933 114.629 23.6365C113.768 23.9433 113.313 24.9149 113.617 25.7842C113.92 26.6023 114.73 27.0626 115.59 26.858C121.055 25.2217 130.466 25.5285 136.184 28.9546ZM135.981 34.0681C136.386 33.4034 136.184 32.5341 135.526 32.125C130.061 28.6989 122.067 27.7785 115.641 29.7216C114.932 29.9773 114.527 30.7955 114.831 31.5114C115.084 32.1761 115.792 32.5852 116.45 32.3807C122.067 30.6421 129.302 31.5114 134.109 34.4772C134.717 34.9374 135.577 34.7329 135.981 34.0681ZM133.806 38.9772C134.109 38.4658 133.958 37.7499 133.452 37.4431C128.796 34.5284 122.977 33.8636 116.248 35.4488C115.641 35.6534 115.337 36.267 115.489 36.8295C115.641 37.392 116.197 37.6988 116.703 37.5965C122.876 36.1647 128.037 36.7272 132.237 39.3351C132.844 39.6419 133.502 39.4885 133.806 38.9772ZM125.71 13.0002C135.526 12.9491 143.571 20.9774 143.622 30.8977C143.673 40.818 135.728 48.9486 125.912 48.9998C116.096 49.0509 108.051 41.0226 108 31.1023C108 31.0511 108 31.0511 108 31C108 21.1308 115.894 13.0514 125.71 13.0002ZM156.171 29.6193C159.915 30.5398 161.433 31.9716 161.433 34.5795C161.433 37.6476 159.156 39.5908 155.563 39.5908C153.084 39.5908 150.655 38.6704 148.834 36.9829C148.733 36.8806 148.733 36.7783 148.834 36.6761L150.504 34.6306C150.554 34.5795 150.605 34.5795 150.655 34.5795C150.706 34.5795 150.757 34.5795 150.807 34.6306C152.123 35.909 153.843 36.6761 155.665 36.6761C157.284 36.6761 158.245 35.9602 158.245 34.8352C158.245 33.7102 157.739 33.25 154.855 32.5341C151.414 31.6648 149.441 30.5909 149.441 27.5228C149.441 24.6592 151.718 22.6138 155.057 22.6138C157.183 22.5626 159.257 23.3296 160.927 24.6592C161.028 24.7103 161.028 24.8637 160.978 24.9149L159.46 27.0626C159.409 27.1137 159.358 27.1137 159.308 27.1648C159.257 27.1648 159.207 27.1648 159.156 27.1648C157.992 26.1932 156.525 25.6308 155.007 25.5796C153.59 25.5796 152.629 26.2444 152.629 27.3182C152.629 28.3921 153.084 28.9034 156.171 29.6193ZM172.008 33.0966C172.008 30.9489 170.642 29.4148 168.821 29.4148C166.948 29.4148 165.532 31 165.532 33.0966C165.532 35.1931 166.948 36.7783 168.821 36.7783C170.693 36.7783 172.008 35.2954 172.008 33.0966ZM169.428 26.5512C172.312 26.5512 175.196 28.8012 175.196 33.0966C175.196 37.392 172.312 39.6419 169.428 39.6419C167.96 39.6931 166.544 39.0283 165.582 37.8522V42.8635C165.582 42.9658 165.481 43.068 165.38 43.068H162.647C162.546 43.068 162.445 42.9658 162.445 42.8635V27.0626C162.445 26.9603 162.546 26.858 162.647 26.858H165.38C165.481 26.858 165.582 26.9603 165.582 27.0626V28.4944C166.493 27.216 167.91 26.5512 169.428 26.5512ZM182.584 36.8295C184.456 36.8295 186.024 35.2954 186.024 33.4034C186.024 33.3522 186.024 33.25 186.024 33.1988C186.126 31.2557 184.658 29.5682 182.735 29.4659C182.685 29.4659 182.634 29.4659 182.584 29.4659C180.711 29.4659 179.193 31 179.193 32.892C179.193 32.9943 179.193 33.0454 179.193 33.1477C179.092 35.0909 180.56 36.7783 182.482 36.8806C182.533 36.8295 182.584 36.8295 182.584 36.8295ZM182.584 26.5512C186.176 26.6023 189.01 29.5682 188.959 33.1988C188.908 36.8295 185.974 39.6931 182.381 39.6419C178.89 39.5908 176.056 36.6761 176.006 33.1477C175.955 29.5682 178.839 26.6023 182.381 26.5512C182.482 26.5512 182.533 26.5512 182.584 26.5512ZM197.055 26.8069C197.156 26.8069 197.257 26.9092 197.257 27.0114V29.4148C197.257 29.5171 197.156 29.6193 197.055 29.6193H194.019V35.3465C194.019 36.267 194.424 36.6761 195.284 36.6761C195.841 36.6761 196.397 36.5227 196.903 36.267C197.004 36.2158 197.106 36.267 197.156 36.3692C197.156 36.4204 197.156 36.4204 197.156 36.4715V38.7726C197.156 38.8238 197.106 38.926 197.055 38.926C196.296 39.3862 195.385 39.5908 194.474 39.5908C192.046 39.5908 190.831 38.3124 190.831 35.8068V29.6193H189.516C189.414 29.6193 189.313 29.5171 189.313 29.4148V27.0114C189.313 26.9092 189.414 26.8069 189.516 26.8069H190.882V23.6876C190.882 23.5853 190.983 23.4831 191.084 23.4831H193.817C193.918 23.4831 194.019 23.5853 194.019 23.6876V26.8069H197.055ZM207.529 26.8069H212.184C212.285 26.8069 212.336 26.858 212.387 26.9603L215.574 35.4488L218.509 26.9603C218.56 26.858 218.61 26.8069 218.712 26.8069H221.545C221.596 26.8069 221.646 26.858 221.697 26.9091C221.748 26.9603 221.748 27.0114 221.697 27.1137L216.941 39.5908C215.979 42.1476 214.866 43.1192 212.842 43.1192C211.83 43.1192 210.818 42.8635 209.907 42.3521C209.806 42.301 209.755 42.1987 209.806 42.0964L210.717 39.9999C210.717 39.9487 210.767 39.8976 210.818 39.8976C210.869 39.8976 210.919 39.8976 210.97 39.8976C211.425 40.1533 211.931 40.3067 212.488 40.3578C213.095 40.3578 213.55 40.1533 213.955 39.1817L210.059 29.6705H207.529V39.2328C207.529 39.3351 207.428 39.4374 207.327 39.4374H204.594C204.493 39.4374 204.392 39.3351 204.392 39.2328V29.7216H203.076C202.975 29.7216 202.874 29.6193 202.874 29.5171V27.1137C202.874 27.0114 202.975 26.9091 203.076 26.9091H204.392V26.1932C204.392 23.4831 205.708 22.0001 208.237 22.0001C208.996 22.0001 209.755 22.1024 210.514 22.3069C210.616 22.3581 210.666 22.4092 210.666 22.5115V24.8126C210.666 24.8637 210.616 24.9149 210.565 24.966C210.514 25.0171 210.464 25.0171 210.363 24.966C209.857 24.7615 209.351 24.6592 208.845 24.6592C207.883 24.6592 207.478 25.1705 207.478 26.2955L207.529 26.8069ZM201.457 26.8069C201.558 26.8069 201.66 26.9092 201.66 27.0114V39.1306C201.66 39.2328 201.558 39.3351 201.457 39.3351H198.725C198.624 39.3351 198.522 39.2328 198.522 39.1306V27.0114C198.522 26.9092 198.624 26.8069 198.725 26.8069H201.457ZM200.091 21.2842C201.204 21.2842 202.064 22.1535 202.064 23.2785C202.064 24.4035 201.204 25.2728 200.091 25.2728C198.978 25.2728 198.118 24.4035 198.118 23.2785C198.118 22.2047 199.028 21.2842 200.091 21.2842ZM224.176 28.0341H223.67V28.6989H224.176C224.429 28.6989 224.581 28.5966 224.581 28.3921C224.581 28.1875 224.429 28.0341 224.176 28.0341ZM224.53 28.9546L225.087 29.7216H224.632L224.126 29.0057H223.721V29.7216H223.316V27.6762H224.277C224.733 27.6762 225.036 27.9319 225.036 28.3409C224.986 28.6478 224.783 28.9034 224.53 28.9546ZM224.075 27.0114C223.114 27.0114 222.304 27.7785 222.304 28.75C222.304 29.7216 223.063 30.5398 224.024 30.5398C224.986 30.5398 225.795 29.7727 225.795 28.8012C225.795 28.8012 225.795 28.8012 225.795 28.75C225.846 27.7785 225.087 27.0114 224.075 27.0114C224.126 27.0114 224.126 27.0114 224.075 27.0114ZM224.075 30.6932C223.013 30.6932 222.102 29.8239 222.102 28.75C222.102 27.6762 222.962 26.7557 224.024 26.7557C225.087 26.7557 225.998 27.625 225.998 28.6989C226.048 29.8239 225.188 30.6932 224.075 30.6932Z" fill="#55B25B"/>
<path fill-rule="evenodd" clip-rule="evenodd" d="M30.8943 35.632H25V26.264H26.7785V33.9145H30.8435L30.8943 35.632ZM35.1118 35.632H33.2825V26.264H35.1118V35.632ZM44.6138 28.5019L42.9878 29.0223C42.8354 28.1896 42.124 27.6171 41.311 27.7212C40.5996 27.6692 39.939 28.1896 39.8882 28.9182C39.8882 29.4387 40.1931 29.855 40.9045 29.9591L42.1748 30.2193C43.8516 30.5316 44.7154 31.6766 44.7154 32.9777C44.7154 34.2788 43.5467 35.8922 41.4126 35.8922C38.9736 35.8922 37.9065 34.2788 37.7541 32.9777L39.4309 32.5093C39.4817 33.5502 40.3455 34.3308 41.3618 34.2788C41.4126 34.2788 41.4126 34.2788 41.4634 34.2788C42.4289 34.2788 42.9878 33.8104 42.9878 33.1338C42.9878 32.6134 42.5813 32.145 41.8699 32.0409L40.5996 31.7807C39.2276 31.6245 38.2114 30.4796 38.2114 29.0744C38.313 27.3569 39.7358 26.0558 41.4126 26.1078C43.5467 26.0558 44.4106 27.4089 44.6138 28.5019ZM54.2683 27.9814H51.372V35.632H49.5935V27.9814H46.6972V26.2119H54.3191V27.9814H54.2683ZM62.4492 35.632H56.7073V26.2119H62.4492V27.9814H58.4858V30.1152H62.0427V31.7286H58.4858V33.8624H62.4492V35.632ZM73.1707 35.632H71.2906L67.124 28.9703V35.632H65.3455V26.264H67.5813L71.3923 32.5093V26.264H73.1707V35.632ZM81.8089 31C81.7073 32.6134 82.9268 34.0186 84.502 34.0706C86.0772 34.1747 87.4492 32.9256 87.5 31.3123C87.5 31.2082 87.5 31.1041 87.5 31C87.6016 29.3866 86.3821 27.9814 84.8069 27.9294C83.2317 27.8253 81.8598 29.0744 81.8089 30.6877C81.8089 30.7918 81.8089 30.8959 81.8089 31ZM79.9797 31C79.8781 28.3457 81.9106 26.1078 84.502 26.0037C87.0935 25.8997 89.2785 27.9814 89.3801 30.6357C89.3801 30.7398 89.3801 30.8959 89.3801 31C89.4817 33.6543 87.4492 35.8922 84.8577 35.9963C82.2663 36.1003 80.0813 34.0186 79.9797 31.3643C79.9797 31.2602 79.9797 31.1041 79.9797 31ZM100 35.632H98.1199L93.9533 28.9703V35.632H92.1748V26.2119H94.4106L98.2215 32.4572V26.2119H100V35.632Z" fill="white"/>
</svg>
