<svg width="21" height="19" viewBox="0 0 21 19" fill="none" xmlns="http://www.w3.org/2000/svg">
<g clip-path="url(#clip0_583_584)">
<path d="M1.04688 14.649C1.04688 14.649 1.13802 14.5537 1.32031 14.363C1.5026 14.1723 1.85417 14.0769 2.375 14.0769C2.89583 14.0769 3.33854 14.2676 3.70312 14.649C4.06771 15.0304 4.25 15.4936 4.25 16.0385C4.25 16.5833 4.06771 17.0465 3.70312 17.4279C3.33854 17.8093 2.89583 18 2.375 18C1.85417 18 1.41146 17.8093 1.04688 17.4279C0.682292 17.0465 0.5 16.5833 0.5 16.0385C0.5 15.4936 0.682292 15.0304 1.04688 14.649ZM1.04688 8.11058C1.04688 8.11058 1.13802 8.01522 1.32031 7.82452C1.5026 7.63381 1.85417 7.53846 2.375 7.53846C2.89583 7.53846 3.33854 7.72917 3.70312 8.11058C4.06771 8.49199 4.25 8.95513 4.25 9.5C4.25 10.0449 4.06771 10.508 3.70312 10.8894C3.33854 11.2708 2.89583 11.4615 2.375 11.4615C1.85417 11.4615 1.41146 11.2708 1.04688 10.8894C0.682292 10.508 0.5 10.0449 0.5 9.5C0.5 8.95513 0.682292 8.49199 1.04688 8.11058ZM1.04688 1.57211C1.04688 1.57211 1.13802 1.47676 1.32031 1.28606C1.5026 1.09535 1.85417 1 2.375 1C2.89583 1 3.33854 1.19071 3.70312 1.57211C4.06771 1.95353 4.25 2.41667 4.25 2.96154C4.25 3.50641 4.06771 3.96955 3.70312 4.35096C3.33854 4.73237 2.89583 4.92308 2.375 4.92308C1.85417 4.92308 1.41146 4.73237 1.04688 4.35096C0.682292 3.96955 0.5 3.50641 0.5 2.96154C0.5 2.41667 0.682292 1.95353 1.04688 1.57211ZM19.875 1.98077C20.0573 1.98077 20.207 2.04207 20.3242 2.16466C20.4414 2.28726 20.5 2.44391 20.5 2.63462V3.28846C20.5 3.47917 20.4414 3.63582 20.3242 3.75841C20.207 3.88101 20.0573 3.94231 19.875 3.94231H7.375C7.19271 3.94231 7.04297 3.88101 6.92578 3.75841C6.80859 3.63582 6.75 3.47917 6.75 3.28846V2.63462C6.75 2.44391 6.80859 2.28726 6.92578 2.16466C7.04297 2.04207 7.19271 1.98077 7.375 1.98077H19.875ZM19.875 8.51923C20.0573 8.51923 20.207 8.58053 20.3242 8.70312C20.4414 8.82572 20.5 8.98237 20.5 9.17308V9.82692C20.5 10.0176 20.4414 10.1743 20.3242 10.2969C20.207 10.4195 20.0573 10.4808 19.875 10.4808H7.375C7.19271 10.4808 7.04297 10.4195 6.92578 10.2969C6.80859 10.1743 6.75 10.0176 6.75 9.82692V9.17308C6.75 8.98237 6.80859 8.82572 6.92578 8.70312C7.04297 8.58053 7.19271 8.51923 7.375 8.51923H19.875ZM19.875 15.0577C20.0573 15.0577 20.207 15.119 20.3242 15.2416C20.4414 15.3642 20.5 15.5208 20.5 15.7115V16.3654C20.5 16.5561 20.4414 16.7127 20.3242 16.8353C20.207 16.9579 20.0573 17.0192 19.875 17.0192H7.375C7.19271 17.0192 7.04297 16.9579 6.92578 16.8353C6.80859 16.7127 6.75 16.5561 6.75 16.3654V15.7115C6.75 15.5208 6.80859 15.3642 6.92578 15.2416C7.04297 15.119 7.19271 15.0577 7.375 15.0577H19.875Z" fill="#3F3F46"/>
</g>
<defs>
<clipPath id="clip0_583_584">
<rect width="20" height="18.8" fill="white" transform="matrix(1 0 0 -1 0.5 18.9)"/>
</clipPath>
</defs>
</svg>
