<svg width="20" height="16" viewBox="0 0 20 16" fill="none" xmlns="http://www.w3.org/2000/svg">
<path d="M19.3614 2.23652C19.3614 1.27746 18.542 0.5 17.5312 0.5H2.45517C1.44439 0.5 0.625 1.27746 0.625 2.23652V13.5554C0.625 14.5144 1.44439 15.2919 2.45517 15.2919H17.5312C18.542 15.2919 19.3614 14.5144 19.3614 13.5554V2.23652ZM2.46498 1.88772H17.5456C17.7474 1.88772 17.9099 2.04046 17.9099 2.23198V2.24705L10.2637 9.50272C10.1705 9.59121 10.062 9.60443 10.0054 9.60443C9.94873 9.60443 9.83988 9.59121 9.7466 9.50272L2.09865 2.24606V2.23198C2.09865 2.04046 2.26314 1.88772 2.46498 1.88772ZM17.5456 13.9041H2.46498C2.26314 13.9041 2.09865 13.7456 2.09865 13.5541V4.2107L8.71151 10.4851C9.05719 10.813 9.51685 10.9936 10.0057 10.9936C10.4946 10.9936 10.9533 10.813 11.299 10.485L17.9099 4.21168V13.5541C17.9099 13.7456 17.7474 13.9041 17.5456 13.9041Z" fill="#47506D"/>
</svg>
