<svg xmlns="http://www.w3.org/2000/svg" xmlns:xlink="http://www.w3.org/1999/xlink" width="281" zoomAndPan="magnify" viewBox="0 0 210.75 129.000003" height="172" preserveAspectRatio="xMidYMid meet" version="1.0"><defs><g/><clipPath id="a97fa080dd"><path d="M 0.6875 0 L 209.816406 0 L 209.816406 128.007812 L 0.6875 128.007812 Z M 0.6875 0 " clip-rule="nonzero"/></clipPath><clipPath id="eb550beaf0"><path d="M 72.515625 64.074219 L 162.566406 64.074219 L 162.566406 70.773438 L 72.515625 70.773438 Z M 72.515625 64.074219 " clip-rule="nonzero"/></clipPath><clipPath id="79567a6d7c"><path d="M 132 39 L 192.769531 39 L 192.769531 99 L 132 99 Z M 132 39 " clip-rule="nonzero"/></clipPath><clipPath id="789a8ecd39"><path d="M 131.742188 38.453125 L 192.769531 38.453125 L 192.769531 99.480469 L 131.742188 99.480469 Z M 131.742188 38.453125 " clip-rule="nonzero"/></clipPath><clipPath id="fb5d1f3943"><path d="M 101.886719 64.835938 L 104.863281 64.835938 L 104.863281 70.042969 L 101.886719 70.042969 Z M 101.886719 64.835938 " clip-rule="nonzero"/></clipPath><clipPath id="8458040e92"><path d="M 98.773438 64.835938 L 101.75 64.835938 L 101.75 70.042969 L 98.773438 70.042969 Z M 98.773438 64.835938 " clip-rule="nonzero"/></clipPath><clipPath id="32ae04c777"><path d="M 95.660156 64.835938 L 98.636719 64.835938 L 98.636719 70.042969 L 95.660156 70.042969 Z M 95.660156 64.835938 " clip-rule="nonzero"/></clipPath><clipPath id="6eda35d93c"><path d="M 14 37.507812 L 75 37.507812 L 75 99 L 14 99 Z M 14 37.507812 " clip-rule="nonzero"/></clipPath><clipPath id="471b56766f"><path d="M 13.488281 37.507812 L 75.257812 37.507812 L 75.257812 99.28125 L 13.488281 99.28125 Z M 13.488281 37.507812 " clip-rule="nonzero"/></clipPath></defs><g clip-path="url(#a97fa080dd)"><path fill="#ffffff" d="M 0.6875 0 L 209.816406 0 L 209.816406 128.007812 L 0.6875 128.007812 Z M 0.6875 0 " fill-opacity="1" fill-rule="nonzero"/><path fill="#1e304c" d="M 0.6875 0 L 209.816406 0 L 209.816406 128.007812 L 0.6875 128.007812 Z M 0.6875 0 " fill-opacity="1" fill-rule="nonzero"/></g><g clip-path="url(#eb550beaf0)"><path stroke-linecap="butt" transform="matrix(0.642955, 0, 0, 0.608916, 72.534378, 64.075512)" fill="none" stroke-linejoin="miter" d="M 0.870002 5.303153 L 139.742918 5.303153 " stroke="#f3f3f3" stroke-width="9.66" stroke-opacity="1" stroke-miterlimit="10"/></g><g clip-path="url(#79567a6d7c)"><path fill="#ffffff" d="M 162.410156 98.707031 C 178.824219 98.707031 192.128906 85.367188 192.128906 68.910156 C 192.128906 52.453125 178.824219 39.113281 162.410156 39.113281 C 146 39.113281 132.695312 52.453125 132.695312 68.910156 C 132.695312 85.367188 146 98.707031 162.410156 98.707031 Z M 162.410156 98.707031 " fill-opacity="1" fill-rule="nonzero"/></g><g clip-path="url(#789a8ecd39)"><path stroke-linecap="butt" transform="matrix(1.173595, 0, 0, 1.173595, 131.74169, 38.454774)" fill="none" stroke-linejoin="miter" d="M 26.132077 51.339922 C 40.11822 51.339922 51.454918 39.973268 51.454918 25.950513 C 51.454918 11.927757 40.11822 0.561103 26.132077 0.561103 C 12.149263 0.561103 0.812565 11.927757 0.812565 25.950513 C 0.812565 39.973268 12.149263 51.339922 26.132077 51.339922 Z M 26.132077 51.339922 " stroke="#231f20" stroke-width="0.15" stroke-opacity="1" stroke-miterlimit="10"/></g><path fill="#21b2e5" d="M 144.078125 68.011719 C 144.058594 67.820312 144.058594 67.628906 144.078125 67.4375 C 144.140625 67.015625 144.320312 66.625 144.597656 66.304688 C 144.875 65.984375 145.238281 65.753906 145.644531 65.636719 C 146.109375 65.484375 146.609375 65.484375 147.078125 65.636719 L 150.589844 66.824219 L 153.664062 67.839844 L 155.25 68.375 C 155.566406 68.476562 155.855469 68.648438 156.097656 68.882812 C 156.335938 69.113281 156.515625 69.398438 156.625 69.714844 C 156.777344 70.160156 156.785156 70.640625 156.652344 71.089844 C 156.519531 71.539062 156.25 71.933594 155.878906 72.222656 C 155.019531 72.953125 154.179688 73.71875 153.320312 74.464844 L 150.074219 77.316406 L 149.445312 77.871094 C 149.089844 78.175781 148.648438 78.359375 148.183594 78.402344 C 147.71875 78.445312 147.25 78.339844 146.847656 78.101562 C 146.375 77.835938 146.023438 77.398438 145.875 76.875 L 145.875 76.511719 C 145.828125 76.160156 145.871094 75.796875 145.996094 75.464844 C 146.121094 75.128906 146.328125 74.832031 146.597656 74.597656 L 147.191406 74.082031 L 150.171875 71.476562 L 149.0625 71.113281 L 145.796875 70.019531 C 145.507812 69.941406 145.234375 69.800781 145.003906 69.609375 C 144.769531 69.417969 144.578125 69.179688 144.441406 68.910156 L 144.269531 68.527344 Z M 144.078125 68.011719 " fill-opacity="1" fill-rule="nonzero"/><path fill="#21b2e5" d="M 158.4375 58.28125 C 158.726562 59.679688 158.992188 61.058594 159.28125 62.4375 C 159.351562 62.726562 159.359375 63.03125 159.304688 63.324219 C 159.253906 63.617188 159.140625 63.894531 158.972656 64.144531 C 158.664062 64.605469 158.195312 64.941406 157.65625 65.082031 C 157.132812 65.199219 156.585938 65.152344 156.089844 64.945312 L 152.691406 63.816406 L 149.597656 62.78125 L 148.125 62.285156 C 147.75 62.164062 147.417969 61.945312 147.15625 61.648438 C 146.898438 61.351562 146.726562 60.988281 146.65625 60.601562 C 146.558594 60.039062 146.675781 59.460938 146.988281 58.984375 C 147.300781 58.507812 147.785156 58.167969 148.335938 58.035156 C 148.808594 57.945312 149.296875 57.984375 149.75 58.148438 L 153.78125 59.507812 L 154.046875 59.507812 C 153.742188 57.996094 153.4375 56.503906 153.148438 54.988281 C 152.988281 54.421875 153.054688 53.816406 153.339844 53.300781 C 153.625 52.785156 154.101562 52.402344 154.667969 52.242188 C 155.230469 52.078125 155.839844 52.148438 156.351562 52.433594 C 156.867188 52.71875 157.246094 53.199219 157.40625 53.765625 C 157.464844 53.890625 157.503906 54.027344 157.523438 54.167969 C 157.886719 55.488281 158.171875 56.886719 158.4375 58.28125 Z M 158.4375 58.28125 " fill-opacity="1" fill-rule="nonzero"/><path fill="#21b2e5" d="M 162.925781 80.324219 C 163.214844 81.703125 163.480469 83.101562 163.769531 84.480469 C 163.886719 85.050781 163.785156 85.644531 163.480469 86.144531 C 163.195312 86.605469 162.746094 86.941406 162.222656 87.082031 C 161.828125 87.207031 161.40625 87.21875 161.007812 87.113281 C 160.609375 87.007812 160.25 86.792969 159.96875 86.488281 C 159.65625 86.164062 159.449219 85.75 159.375 85.300781 C 159.089844 83.847656 158.800781 82.390625 158.496094 80.917969 L 158.496094 80.820312 C 158.496094 80.6875 158.496094 80.6875 158.363281 80.820312 L 156.777344 82.21875 L 154.867188 83.960938 C 154.597656 84.210938 154.257812 84.378906 153.894531 84.441406 C 153.34375 84.566406 152.769531 84.46875 152.289062 84.171875 C 152.023438 84.023438 151.789062 83.816406 151.609375 83.570312 C 151.425781 83.324219 151.300781 83.039062 151.238281 82.738281 C 151.160156 82.367188 151.179688 81.984375 151.292969 81.625 C 151.40625 81.265625 151.613281 80.941406 151.890625 80.6875 C 152.519531 80.09375 153.167969 79.539062 153.796875 78.984375 L 156.777344 76.378906 L 158.515625 74.867188 C 158.789062 74.628906 159.113281 74.464844 159.460938 74.382812 C 159.8125 74.300781 160.175781 74.304688 160.523438 74.394531 C 160.871094 74.484375 161.191406 74.660156 161.457031 74.902344 C 161.722656 75.144531 161.925781 75.445312 162.050781 75.785156 C 162.050781 75.898438 162.085938 76.035156 162.164062 76.1875 C 162.316406 77.527344 162.582031 78.925781 162.925781 80.324219 Z M 162.925781 80.324219 " fill-opacity="1" fill-rule="nonzero"/><path fill="#21b2e5" d="M 178.855469 72.28125 C 178.425781 72.332031 177.992188 72.273438 177.59375 72.109375 L 173.773438 70.804688 L 171.195312 69.925781 C 170.660156 69.753906 170.125 69.601562 169.609375 69.390625 C 169.257812 69.269531 168.941406 69.058594 168.695312 68.773438 C 168.453125 68.492188 168.285156 68.148438 168.21875 67.78125 C 168.125 67.40625 168.136719 67.015625 168.253906 66.652344 C 168.375 66.285156 168.59375 65.960938 168.886719 65.714844 C 169.609375 65.042969 170.375 64.390625 171.121094 63.796875 L 173.375 61.882812 C 174.078125 61.25 174.785156 60.621094 175.511719 59.96875 C 175.789062 59.738281 176.121094 59.578125 176.472656 59.503906 C 176.824219 59.429688 177.191406 59.441406 177.539062 59.539062 C 177.886719 59.636719 178.203125 59.816406 178.464844 60.066406 C 178.730469 60.3125 178.925781 60.621094 179.046875 60.964844 C 179.191406 61.378906 179.203125 61.824219 179.082031 62.246094 C 178.964844 62.667969 178.71875 63.042969 178.378906 63.320312 C 177.574219 64.066406 176.734375 64.773438 175.914062 65.503906 L 174.824219 66.441406 C 174.824219 66.441406 174.824219 66.441406 174.824219 66.554688 L 178.53125 67.800781 L 179.351562 68.066406 C 179.875 68.253906 180.308594 68.625 180.570312 69.113281 C 180.832031 69.601562 180.902344 70.171875 180.765625 70.710938 C 180.628906 71.128906 180.375 71.496094 180.039062 71.777344 C 179.699219 72.054688 179.289062 72.230469 178.855469 72.28125 Z M 178.855469 72.28125 " fill-opacity="1" fill-rule="nonzero"/><path fill="#21b2e5" d="M 161.972656 57.515625 C 161.6875 56.101562 161.398438 54.683594 161.132812 53.265625 C 161.042969 52.882812 161.0625 52.480469 161.195312 52.109375 C 161.328125 51.742188 161.5625 51.417969 161.878906 51.179688 C 162.238281 50.863281 162.691406 50.675781 163.164062 50.644531 C 163.640625 50.613281 164.113281 50.742188 164.511719 51.007812 C 164.761719 51.160156 164.976562 51.363281 165.140625 51.605469 C 165.308594 51.84375 165.425781 52.117188 165.488281 52.402344 C 165.792969 53.898438 166.078125 55.410156 166.382812 56.902344 C 166.382812 57.152344 166.382812 57.152344 166.613281 56.902344 C 167.28125 56.3125 167.949219 55.71875 168.636719 55.144531 C 169.324219 54.566406 169.648438 54.203125 170.203125 53.78125 C 170.484375 53.558594 170.816406 53.40625 171.167969 53.339844 C 171.523438 53.273438 171.886719 53.292969 172.230469 53.402344 C 172.574219 53.507812 172.886719 53.699219 173.136719 53.957031 C 173.390625 54.214844 173.578125 54.527344 173.679688 54.875 C 173.820312 55.28125 173.832031 55.71875 173.710938 56.128906 C 173.589844 56.542969 173.347656 56.90625 173.011719 57.171875 C 171.941406 58.148438 170.832031 59.085938 169.726562 60.0625 L 166.519531 62.878906 C 166.289062 63.085938 166.019531 63.246094 165.726562 63.34375 C 165.429688 63.441406 165.121094 63.476562 164.8125 63.453125 C 164.503906 63.425781 164.207031 63.335938 163.933594 63.1875 C 163.660156 63.039062 163.421875 62.835938 163.234375 62.589844 C 163.039062 62.347656 162.90625 62.058594 162.851562 61.75 C 162.699219 61.039062 162.5625 60.3125 162.410156 59.585938 C 162.257812 58.859375 162.125 58.246094 161.972656 57.515625 Z M 161.972656 57.515625 " fill-opacity="1" fill-rule="nonzero"/><path fill="#21b2e5" d="M 166.402344 79.558594 C 166.117188 78.140625 165.832031 76.742188 165.5625 75.324219 C 165.460938 74.929688 165.484375 74.507812 165.621094 74.125 C 165.761719 73.738281 166.015625 73.402344 166.347656 73.160156 C 166.644531 72.917969 167.003906 72.753906 167.386719 72.691406 C 167.769531 72.628906 168.160156 72.664062 168.523438 72.796875 L 173.488281 74.464844 L 176.621094 75.515625 C 176.949219 75.613281 177.253906 75.78125 177.507812 76.015625 C 177.757812 76.25 177.953125 76.539062 178.074219 76.859375 C 178.195312 77.183594 178.238281 77.527344 178.199219 77.871094 C 178.164062 78.210938 178.046875 78.542969 177.863281 78.828125 C 177.5625 79.292969 177.097656 79.628906 176.5625 79.769531 C 176.113281 79.902344 175.636719 79.902344 175.1875 79.769531 L 172.09375 78.734375 L 170.796875 78.292969 C 170.679688 78.292969 170.660156 78.292969 170.679688 78.410156 C 171.003906 79.941406 171.3125 81.472656 171.617188 83.023438 C 171.761719 83.59375 171.671875 84.199219 171.371094 84.707031 C 171.070312 85.214844 170.582031 85.578125 170.011719 85.722656 C 169.441406 85.867188 168.839844 85.78125 168.335938 85.480469 C 167.828125 85.175781 167.464844 84.6875 167.320312 84.117188 C 167.3125 84.011719 167.3125 83.910156 167.320312 83.808594 C 166.957031 82.355469 166.746094 80.957031 166.402344 79.558594 Z M 166.402344 79.558594 " fill-opacity="1" fill-rule="nonzero"/><g clip-path="url(#fb5d1f3943)"><path fill="#000000" d="M 102.214844 70.042969 L 104.863281 67.4375 L 102.214844 64.835938 L 101.886719 65.164062 L 104.199219 67.4375 L 101.886719 69.714844 Z M 102.214844 70.042969 " fill-opacity="1" fill-rule="nonzero"/></g><g clip-path="url(#8458040e92)"><path fill="#000000" d="M 99.105469 70.042969 L 101.75 67.4375 L 99.105469 64.835938 L 98.773438 65.164062 L 101.085938 67.4375 L 98.773438 69.714844 Z M 99.105469 70.042969 " fill-opacity="1" fill-rule="nonzero"/></g><g clip-path="url(#32ae04c777)"><path fill="#000000" d="M 95.992188 70.042969 L 98.636719 67.4375 L 95.992188 64.835938 L 95.660156 65.164062 L 97.972656 67.4375 L 95.660156 69.714844 Z M 95.992188 70.042969 " fill-opacity="1" fill-rule="nonzero"/></g><g clip-path="url(#6eda35d93c)"><path fill="#ffffff" d="M 44.109375 98.164062 C 60.722656 98.164062 74.1875 84.660156 74.1875 68.003906 C 74.1875 51.347656 60.722656 37.84375 44.109375 37.84375 C 27.5 37.84375 14.03125 51.347656 14.03125 68.003906 C 14.03125 84.660156 27.5 98.164062 44.109375 98.164062 Z M 44.109375 98.164062 " fill-opacity="1" fill-rule="nonzero"/></g><g clip-path="url(#471b56766f)"><path stroke-linecap="butt" transform="matrix(1.187907, 0, 0, 1.187907, 13.487306, 37.508314)" fill="none" stroke-linejoin="miter" d="M 25.778175 51.061034 C 39.763516 51.061034 51.098449 39.693217 51.098449 25.671705 C 51.098449 11.650192 39.763516 0.282376 25.778175 0.282376 C 11.796123 0.282376 0.457901 11.650192 0.457901 25.671705 C 0.457901 39.693217 11.796123 51.061034 25.778175 51.061034 Z M 25.778175 51.061034 " stroke="#231f20" stroke-width="0.15" stroke-opacity="1" stroke-miterlimit="10"/></g><path fill="#03638a" d="M 25.957031 74.476562 L 26.074219 74.246094 L 28.277344 69.28125 C 28.375 69.027344 28.539062 68.808594 28.753906 68.644531 C 28.96875 68.476562 29.226562 68.378906 29.496094 68.351562 C 29.746094 68.3125 30 68.3125 30.25 68.351562 L 30.65625 68.46875 C 30.851562 68.515625 31.027344 68.628906 31.152344 68.785156 C 31.277344 68.941406 31.347656 69.136719 31.351562 69.339844 L 31.351562 75.347656 C 31.351562 75.601562 31.351562 75.5625 31.121094 75.5625 L 29.941406 75.5625 C 29.824219 75.5625 29.804688 75.5625 29.804688 75.40625 L 29.804688 69.59375 C 29.804688 69.59375 29.804688 69.707031 29.691406 69.785156 C 28.9375 71.433594 28.199219 73.082031 27.445312 74.75 L 27.332031 75 C 27.238281 75.199219 27.097656 75.371094 26.914062 75.492188 C 26.734375 75.613281 26.523438 75.6875 26.308594 75.699219 C 26.042969 75.738281 25.777344 75.738281 25.515625 75.699219 C 25.351562 75.667969 25.199219 75.601562 25.0625 75.507812 C 24.925781 75.414062 24.808594 75.292969 24.722656 75.15625 L 24.507812 74.75 L 22.304688 69.804688 C 22.304688 69.804688 22.304688 69.691406 22.1875 69.652344 C 22.167969 69.714844 22.167969 69.78125 22.1875 69.84375 L 22.1875 75.523438 C 22.1875 75.523438 22.1875 75.660156 22.054688 75.660156 L 20.738281 75.660156 C 20.738281 75.660156 20.625 75.660156 20.644531 75.5625 L 20.644531 69.746094 C 20.632812 69.605469 20.632812 69.464844 20.644531 69.320312 C 20.664062 69.183594 20.71875 69.050781 20.800781 68.9375 C 20.886719 68.828125 21 68.738281 21.125 68.679688 C 21.601562 68.453125 22.136719 68.386719 22.652344 68.488281 C 22.878906 68.527344 23.089844 68.628906 23.265625 68.773438 C 23.441406 68.917969 23.574219 69.109375 23.660156 69.320312 C 23.910156 69.863281 24.140625 70.425781 24.394531 70.988281 C 24.875 72.113281 25.359375 73.257812 25.863281 74.378906 C 25.890625 74.417969 25.921875 74.449219 25.957031 74.476562 Z M 25.957031 74.476562 " fill-opacity="1" fill-rule="nonzero"/><path fill="#e38f03" d="M 55.863281 75.347656 L 57.332031 76.6875 C 57.332031 76.6875 57.332031 76.6875 57.195312 76.6875 L 55.726562 76.6875 C 55.640625 76.722656 55.542969 76.722656 55.457031 76.6875 L 54.492188 75.8125 C 54.453125 75.765625 54.402344 75.726562 54.34375 75.703125 C 54.285156 75.679688 54.222656 75.671875 54.160156 75.679688 C 53.292969 75.679688 52.402344 75.679688 51.53125 75.679688 C 51.027344 75.667969 50.527344 75.554688 50.0625 75.347656 C 49.914062 75.292969 49.769531 75.210938 49.636719 75.117188 C 49.445312 74.996094 49.285156 74.824219 49.175781 74.625 C 49.0625 74.425781 49.003906 74.203125 49 73.972656 C 49 73.742188 49 73.507812 49 73.273438 L 49 70.195312 C 48.980469 69.886719 49.054688 69.578125 49.21875 69.316406 C 49.382812 69.054688 49.625 68.855469 49.910156 68.738281 C 50.308594 68.554688 50.746094 68.457031 51.183594 68.449219 L 54.527344 68.449219 C 54.933594 68.46875 55.332031 68.5625 55.707031 68.71875 C 56.007812 68.832031 56.269531 69.035156 56.445312 69.304688 C 56.621094 69.574219 56.710938 69.890625 56.695312 70.210938 L 56.695312 73.777344 C 56.710938 73.933594 56.710938 74.089844 56.695312 74.246094 C 56.667969 74.433594 56.601562 74.609375 56.492188 74.765625 C 56.386719 74.921875 56.242188 75.046875 56.074219 75.136719 Z M 51.996094 73.527344 L 53.523438 73.527344 C 53.570312 73.523438 53.621094 73.53125 53.664062 73.554688 C 53.707031 73.574219 53.746094 73.605469 53.773438 73.644531 L 54.683594 74.457031 C 54.800781 74.574219 54.820312 74.574219 54.933594 74.457031 C 55.019531 74.394531 55.085938 74.3125 55.132812 74.21875 C 55.179688 74.125 55.207031 74.019531 55.207031 73.914062 L 55.207031 70.40625 C 55.214844 70.273438 55.179688 70.140625 55.113281 70.027344 C 55.042969 69.914062 54.941406 69.820312 54.820312 69.765625 C 54.625 69.660156 54.402344 69.609375 54.179688 69.613281 L 51.804688 69.613281 C 51.574219 69.605469 51.347656 69.660156 51.144531 69.765625 C 51.023438 69.824219 50.921875 69.914062 50.847656 70.027344 C 50.777344 70.140625 50.738281 70.273438 50.742188 70.40625 L 50.742188 73.816406 C 50.730469 73.992188 50.78125 74.164062 50.878906 74.308594 C 50.976562 74.449219 51.117188 74.558594 51.28125 74.613281 C 51.453125 74.640625 51.628906 74.640625 51.804688 74.613281 L 53.117188 74.613281 C 53.117188 74.613281 53.117188 74.613281 53.234375 74.613281 Z M 51.996094 73.527344 " fill-opacity="1" fill-rule="nonzero"/><path fill="#03638a" d="M 67.308594 70.621094 C 67.308594 70.621094 67.308594 70.621094 67.152344 70.523438 C 66.640625 70.046875 66.054688 69.660156 65.414062 69.378906 C 64.890625 69.148438 64.402344 68.851562 63.960938 68.488281 C 63.628906 68.199219 63.371094 67.832031 63.207031 67.421875 C 63.207031 67.421875 63.207031 67.304688 63.207031 67.265625 C 63.230469 67.238281 63.253906 67.214844 63.285156 67.199219 C 63.316406 67.183594 63.347656 67.171875 63.382812 67.167969 C 64.132812 66.871094 64.933594 66.730469 65.742188 66.761719 C 65.742188 66.761719 65.855469 66.761719 65.894531 66.761719 C 65.933594 66.761719 65.894531 66.644531 65.78125 66.589844 L 65.527344 66.394531 C 65.164062 66.175781 64.816406 65.9375 64.484375 65.675781 C 63.996094 65.332031 63.453125 65.070312 62.878906 64.902344 L 62.28125 64.707031 C 62.070312 64.636719 61.894531 64.492188 61.777344 64.300781 C 61.613281 64.050781 61.472656 63.78125 61.351562 63.507812 C 61.023438 62.789062 60.675781 62.089844 60.347656 61.375 C 60.347656 61.257812 60.25 61.160156 60.210938 61.042969 C 59.847656 60.054688 59.300781 59.144531 58.609375 58.351562 C 57.699219 57.261719 56.574219 56.375 55.300781 55.753906 C 54.8125 55.496094 54.269531 55.355469 53.71875 55.347656 C 53.523438 55.347656 53.332031 55.347656 53.136719 55.347656 C 53.082031 55.339844 53.027344 55.324219 52.976562 55.296875 C 52.925781 55.269531 52.882812 55.234375 52.847656 55.191406 C 52.382812 54.816406 51.863281 54.519531 51.300781 54.320312 C 51.164062 54.261719 51.023438 54.222656 50.875 54.203125 C 50.527344 54.203125 50.335938 54.394531 50.449219 54.726562 C 50.519531 54.960938 50.636719 55.179688 50.796875 55.367188 C 50.933594 55.539062 51.089844 55.714844 51.222656 55.90625 C 51.605469 56.398438 51.890625 56.957031 52.054688 57.554688 C 52.152344 57.867188 52.269531 58.195312 52.363281 58.523438 C 52.488281 58.820312 52.628906 59.101562 52.789062 59.378906 C 52.882812 59.53125 53 59.667969 53.136719 59.785156 C 53.246094 59.875 53.324219 59.996094 53.359375 60.128906 C 53.390625 60.265625 53.382812 60.410156 53.332031 60.539062 C 53.332031 60.714844 53.234375 60.890625 53.15625 61.0625 C 52.707031 62.273438 52.75 63.609375 53.273438 64.785156 C 53.304688 64.875 53.351562 64.960938 53.410156 65.039062 C 53.457031 65.132812 53.53125 65.210938 53.621094 65.269531 C 53.8125 65.386719 53.851562 65.367188 53.871094 65.152344 C 53.890625 64.941406 53.871094 64.398438 54.027344 64.03125 C 54.097656 63.664062 54.265625 63.324219 54.511719 63.039062 L 54.742188 62.730469 C 54.773438 62.746094 54.800781 62.773438 54.824219 62.804688 C 54.84375 62.832031 54.855469 62.867188 54.859375 62.90625 C 55.0625 63.480469 55.3125 64.039062 55.613281 64.570312 C 55.992188 65.304688 56.429688 66.007812 56.925781 66.664062 C 57.09375 66.890625 57.289062 67.089844 57.507812 67.265625 C 57.570312 67.300781 57.625 67.355469 57.660156 67.421875 C 57.5625 67.386719 57.472656 67.332031 57.390625 67.265625 C 57.003906 66.859375 56.539062 66.53125 56.152344 66.140625 C 55.683594 65.730469 55.308594 65.21875 55.050781 64.648438 C 54.972656 64.476562 54.882812 64.308594 54.78125 64.144531 C 54.78125 64.390625 54.742188 64.625 54.664062 64.84375 C 54.664062 65.039062 54.664062 65.230469 54.664062 65.425781 C 54.640625 65.558594 54.578125 65.683594 54.484375 65.78125 C 54.394531 65.882812 54.273438 65.953125 54.144531 65.988281 C 53.972656 66.042969 53.789062 66.042969 53.621094 65.988281 C 53.4375 65.886719 53.285156 65.738281 53.175781 65.5625 C 52.828125 65.101562 52.601562 64.5625 52.519531 63.992188 C 52.351562 63.113281 52.398438 62.210938 52.65625 61.355469 C 52.695312 61.203125 52.726562 61.046875 52.75 60.890625 C 52.777344 60.769531 52.816406 60.652344 52.867188 60.539062 C 52.886719 60.523438 52.902344 60.5 52.914062 60.476562 C 52.925781 60.449219 52.933594 60.421875 52.933594 60.394531 C 52.933594 60.367188 52.925781 60.339844 52.914062 60.316406 C 52.902344 60.289062 52.886719 60.269531 52.867188 60.25 C 52.441406 59.757812 52.121094 59.183594 51.917969 58.5625 C 51.75 58.140625 51.605469 57.707031 51.496094 57.265625 C 51.429688 57.050781 51.324219 56.855469 51.183594 56.683594 C 50.992188 56.410156 50.796875 56.121094 50.566406 55.851562 C 50.371094 55.625 50.214844 55.371094 50.101562 55.09375 C 50.015625 54.851562 50.015625 54.582031 50.101562 54.339844 C 50.164062 54.132812 50.289062 53.953125 50.457031 53.828125 C 50.628906 53.703125 50.835938 53.636719 51.050781 53.640625 C 51.34375 53.640625 51.632812 53.699219 51.902344 53.816406 C 52.433594 53.996094 52.925781 54.277344 53.351562 54.648438 C 53.476562 54.761719 53.644531 54.824219 53.8125 54.824219 C 54.421875 54.824219 55.023438 54.9375 55.59375 55.152344 C 55.710938 55.183594 55.820312 55.238281 55.921875 55.308594 C 57.894531 56.335938 59.53125 57.910156 60.636719 59.84375 C 60.753906 60.0625 60.855469 60.289062 60.945312 60.519531 C 61.25 61.292969 61.589844 62.050781 61.972656 62.789062 C 62.105469 63.078125 62.242188 63.371094 62.398438 63.660156 C 62.449219 63.789062 62.515625 63.914062 62.589844 64.03125 C 62.652344 64.136719 62.746094 64.21875 62.859375 64.261719 C 63.796875 64.585938 64.664062 65.070312 65.433594 65.695312 L 66.050781 66.179688 C 66.359375 66.441406 66.632812 66.738281 66.863281 67.074219 C 66.863281 67.074219 66.863281 67.207031 66.863281 67.246094 C 66.519531 67.371094 66.164062 67.449219 65.800781 67.480469 C 65.335938 67.539062 64.875 67.636719 64.425781 67.769531 C 64.453125 67.878906 64.515625 67.972656 64.601562 68.042969 C 64.746094 68.195312 64.917969 68.328125 65.101562 68.429688 C 65.507812 68.652344 65.886719 68.910156 66.242188 69.203125 C 66.5 69.4375 66.742188 69.691406 66.957031 69.960938 C 67 70.027344 67.050781 70.085938 67.113281 70.136719 C 67.214844 70.28125 67.277344 70.445312 67.308594 70.621094 Z M 67.308594 70.621094 " fill-opacity="1" fill-rule="nonzero"/><path fill="#03638a" d="M 40.011719 73.546875 L 40.011719 76.027344 C 40.03125 76.183594 40.03125 76.339844 40.011719 76.492188 C 39.96875 76.664062 39.890625 76.828125 39.785156 76.972656 C 39.679688 77.113281 39.546875 77.234375 39.394531 77.324219 C 39.003906 77.558594 38.570312 77.710938 38.117188 77.773438 C 37.875 77.792969 37.628906 77.792969 37.382812 77.773438 L 32.917969 77.773438 C 32.6875 77.773438 32.707031 77.773438 32.707031 77.578125 L 32.707031 76.859375 C 32.707031 76.765625 32.707031 76.726562 32.839844 76.726562 C 32.976562 76.726562 32.839844 76.726562 32.976562 76.726562 L 37.441406 76.726562 C 37.660156 76.761719 37.882812 76.761719 38.097656 76.726562 C 38.226562 76.6875 38.332031 76.609375 38.40625 76.496094 C 38.476562 76.386719 38.503906 76.253906 38.484375 76.125 L 38.484375 75.660156 L 35.355469 75.660156 C 34.902344 75.660156 34.453125 75.597656 34.019531 75.464844 C 33.753906 75.378906 33.507812 75.25 33.285156 75.078125 C 33.117188 74.96875 32.980469 74.8125 32.894531 74.632812 C 32.804688 74.453125 32.765625 74.25 32.78125 74.050781 C 32.78125 72.976562 32.78125 71.910156 32.78125 70.851562 C 32.78125 70.734375 32.78125 70.714844 32.917969 70.714844 L 34.15625 70.714844 C 34.328125 70.714844 34.328125 70.714844 34.328125 70.910156 L 34.328125 73.992188 C 34.316406 74.078125 34.324219 74.164062 34.347656 74.246094 C 34.371094 74.328125 34.414062 74.402344 34.46875 74.46875 C 34.523438 74.535156 34.589844 74.585938 34.664062 74.625 C 34.742188 74.664062 34.824219 74.683594 34.910156 74.691406 L 38.464844 74.691406 L 38.464844 70.714844 C 38.464844 70.714844 38.464844 70.582031 38.582031 70.582031 L 39.914062 70.582031 C 39.914062 70.582031 39.914062 70.582031 39.914062 70.695312 L 39.914062 73.488281 Z M 40.011719 73.546875 " fill-opacity="1" fill-rule="nonzero"/><path fill="#e38f03" d="M 45.539062 68.46875 L 48.132812 68.46875 L 48.132812 69.535156 L 43.9375 69.535156 C 43.738281 69.515625 43.535156 69.515625 43.335938 69.535156 C 43.265625 69.535156 43.199219 69.554688 43.136719 69.582031 C 43.074219 69.613281 43.019531 69.65625 42.972656 69.707031 C 42.925781 69.761719 42.894531 69.824219 42.871094 69.890625 C 42.851562 69.957031 42.84375 70.027344 42.855469 70.097656 C 42.835938 70.316406 42.835938 70.535156 42.855469 70.753906 C 42.84375 70.933594 42.902344 71.109375 43.015625 71.246094 C 43.132812 71.386719 43.292969 71.472656 43.472656 71.492188 L 45.851562 71.492188 C 46.339844 71.492188 46.820312 71.605469 47.261719 71.820312 C 47.453125 71.902344 47.628906 72.015625 47.78125 72.152344 C 47.894531 72.25 47.988281 72.371094 48.046875 72.507812 C 48.105469 72.644531 48.136719 72.796875 48.132812 72.945312 L 48.132812 73.933594 C 48.136719 74.132812 48.09375 74.332031 48.003906 74.507812 C 47.917969 74.6875 47.789062 74.84375 47.628906 74.960938 C 47.207031 75.269531 46.714844 75.464844 46.199219 75.523438 C 45.972656 75.542969 45.746094 75.542969 45.519531 75.523438 L 41.363281 75.523438 C 41.210938 75.523438 41.210938 75.523438 41.210938 75.367188 L 41.210938 74.613281 C 41.210938 74.515625 41.210938 74.476562 41.347656 74.476562 L 45.328125 74.476562 C 45.535156 74.488281 45.742188 74.488281 45.945312 74.476562 C 46.097656 74.429688 46.234375 74.351562 46.351562 74.246094 C 46.410156 74.195312 46.453125 74.136719 46.484375 74.070312 C 46.515625 74.003906 46.527344 73.929688 46.527344 73.855469 C 46.527344 73.625 46.527344 73.371094 46.527344 73.121094 C 46.539062 72.996094 46.507812 72.871094 46.4375 72.765625 C 46.367188 72.664062 46.261719 72.589844 46.140625 72.558594 C 45.898438 72.472656 45.644531 72.429688 45.386719 72.421875 L 43.722656 72.421875 C 43.21875 72.429688 42.722656 72.339844 42.253906 72.152344 C 42.011719 72.058594 41.789062 71.917969 41.597656 71.742188 C 41.480469 71.632812 41.386719 71.503906 41.324219 71.355469 C 41.261719 71.210938 41.230469 71.050781 41.230469 70.890625 C 41.230469 70.621094 41.230469 70.328125 41.230469 70.039062 C 41.226562 69.765625 41.300781 69.5 41.445312 69.269531 C 41.589844 69.039062 41.796875 68.855469 42.042969 68.738281 C 42.53125 68.507812 43.066406 68.386719 43.609375 68.390625 Z M 45.539062 68.46875 " fill-opacity="1" fill-rule="nonzero"/><path fill="#e38f03" d="M 64.582031 75.640625 L 60.597656 75.640625 C 60.089844 75.644531 59.582031 75.578125 59.089844 75.445312 C 58.898438 75.386719 58.707031 75.308594 58.53125 75.214844 C 58.292969 75.085938 58.09375 74.894531 57.953125 74.664062 C 57.816406 74.429688 57.742188 74.167969 57.738281 73.894531 L 57.738281 68.71875 C 57.738281 68.71875 57.738281 68.71875 57.738281 68.605469 C 57.738281 68.488281 57.738281 68.46875 57.875 68.46875 C 58.007812 68.46875 57.875 68.46875 57.96875 68.46875 L 59.148438 68.46875 C 59.265625 68.46875 59.304688 68.46875 59.304688 68.605469 C 59.292969 68.660156 59.292969 68.71875 59.304688 68.777344 L 59.304688 73.546875 C 59.3125 73.625 59.3125 73.703125 59.304688 73.777344 C 59.292969 73.871094 59.300781 73.964844 59.328125 74.058594 C 59.355469 74.148438 59.398438 74.230469 59.457031 74.300781 C 59.519531 74.375 59.589844 74.433594 59.675781 74.476562 C 59.757812 74.519531 59.847656 74.546875 59.941406 74.554688 C 60.1875 74.574219 60.433594 74.574219 60.675781 74.554688 L 64.40625 74.554688 C 64.640625 74.554688 64.621094 74.554688 64.621094 74.765625 L 64.621094 75.523438 C 64.621094 75.523438 64.582031 75.621094 64.582031 75.640625 Z M 64.582031 75.640625 " fill-opacity="1" fill-rule="nonzero"/><path fill="#e38f03" d="M 66.6875 74.691406 L 67.015625 75.195312 C 66.804688 75.195312 66.804688 75.195312 66.707031 75.195312 L 66.496094 74.824219 C 66.472656 74.8125 66.445312 74.808594 66.417969 74.808594 C 66.390625 74.808594 66.363281 74.8125 66.339844 74.824219 L 66.222656 74.824219 C 66.234375 74.949219 66.234375 75.070312 66.222656 75.195312 C 66.222656 75.195312 66.222656 75.289062 66.128906 75.289062 C 66.03125 75.289062 66.011719 75.289062 66.011719 75.195312 L 66.011719 74.070312 C 66.011719 74.070312 66.417969 74.070312 66.609375 74.070312 C 66.667969 74.078125 66.71875 74.097656 66.765625 74.128906 C 66.8125 74.160156 66.851562 74.203125 66.878906 74.25 C 66.90625 74.300781 66.921875 74.355469 66.925781 74.410156 C 66.929688 74.464844 66.921875 74.523438 66.902344 74.574219 C 66.863281 74.644531 66.8125 74.703125 66.746094 74.75 C 66.746094 74.75 66.726562 74.632812 66.6875 74.691406 Z M 66.457031 74.476562 L 66.667969 74.476562 C 66.683594 74.453125 66.691406 74.425781 66.691406 74.398438 C 66.691406 74.371094 66.683594 74.34375 66.667969 74.320312 C 66.6875 74.300781 66.699219 74.273438 66.699219 74.246094 C 66.699219 74.214844 66.6875 74.1875 66.667969 74.167969 L 66.476562 74.167969 C 66.1875 74.167969 66.222656 74.167969 66.203125 74.4375 C 66.183594 74.710938 66.203125 74.554688 66.320312 74.535156 Z M 66.457031 74.476562 " fill-opacity="1" fill-rule="nonzero"/><g fill="#ffffff" fill-opacity="1"><g transform="translate(67.506493, 13.218451)"><g><path d="M 4.875 -5.46875 C 4.832031 -5.832031 4.65625 -6.113281 4.34375 -6.3125 C 4.039062 -6.507812 3.671875 -6.609375 3.234375 -6.609375 C 2.742188 -6.609375 2.351562 -6.492188 2.0625 -6.265625 C 1.769531 -6.035156 1.625 -5.75 1.625 -5.40625 C 1.625 -5.144531 1.703125 -4.929688 1.859375 -4.765625 C 2.023438 -4.609375 2.21875 -4.484375 2.4375 -4.390625 C 2.65625 -4.304688 2.851562 -4.238281 3.03125 -4.1875 L 3.78125 -3.984375 C 3.96875 -3.941406 4.175781 -3.875 4.40625 -3.78125 C 4.644531 -3.695312 4.867188 -3.578125 5.078125 -3.421875 C 5.296875 -3.273438 5.472656 -3.082031 5.609375 -2.84375 C 5.753906 -2.613281 5.828125 -2.328125 5.828125 -1.984375 C 5.828125 -1.585938 5.722656 -1.226562 5.515625 -0.90625 C 5.316406 -0.59375 5.019531 -0.34375 4.625 -0.15625 C 4.226562 0.03125 3.75 0.125 3.1875 0.125 C 2.40625 0.125 1.785156 -0.0546875 1.328125 -0.421875 C 0.867188 -0.796875 0.613281 -1.28125 0.5625 -1.875 L 1.484375 -1.875 C 1.503906 -1.601562 1.59375 -1.378906 1.75 -1.203125 C 1.914062 -1.023438 2.125 -0.890625 2.375 -0.796875 C 2.625 -0.710938 2.894531 -0.671875 3.1875 -0.671875 C 3.53125 -0.671875 3.832031 -0.722656 4.09375 -0.828125 C 4.363281 -0.941406 4.578125 -1.097656 4.734375 -1.296875 C 4.890625 -1.492188 4.96875 -1.726562 4.96875 -2 C 4.96875 -2.238281 4.898438 -2.429688 4.765625 -2.578125 C 4.628906 -2.734375 4.453125 -2.859375 4.234375 -2.953125 C 4.015625 -3.046875 3.773438 -3.128906 3.515625 -3.203125 L 2.625 -3.46875 C 2.050781 -3.625 1.597656 -3.851562 1.265625 -4.15625 C 0.929688 -4.46875 0.765625 -4.867188 0.765625 -5.359375 C 0.765625 -5.765625 0.875 -6.117188 1.09375 -6.421875 C 1.320312 -6.734375 1.625 -6.972656 2 -7.140625 C 2.375 -7.304688 2.796875 -7.390625 3.265625 -7.390625 C 3.734375 -7.390625 4.148438 -7.304688 4.515625 -7.140625 C 4.878906 -6.972656 5.164062 -6.742188 5.375 -6.453125 C 5.59375 -6.171875 5.710938 -5.84375 5.734375 -5.46875 Z M 4.875 -5.46875 "/></g></g></g><g fill="#ffffff" fill-opacity="1"><g transform="translate(73.899523, 13.218451)"><g><path d="M 4.21875 -2.234375 L 4.21875 -5.46875 L 5.0625 -5.46875 L 5.0625 0 L 4.21875 0 L 4.21875 -0.921875 L 4.15625 -0.921875 C 4.03125 -0.648438 3.832031 -0.414062 3.5625 -0.21875 C 3.289062 -0.0195312 2.945312 0.078125 2.53125 0.078125 C 2.019531 0.078125 1.597656 -0.09375 1.265625 -0.4375 C 0.929688 -0.78125 0.765625 -1.300781 0.765625 -2 L 0.765625 -5.46875 L 1.609375 -5.46875 L 1.609375 -2.046875 C 1.609375 -1.648438 1.71875 -1.332031 1.9375 -1.09375 C 2.164062 -0.851562 2.457031 -0.734375 2.8125 -0.734375 C 3.019531 -0.734375 3.226562 -0.785156 3.4375 -0.890625 C 3.65625 -1.003906 3.835938 -1.171875 3.984375 -1.390625 C 4.140625 -1.609375 4.21875 -1.890625 4.21875 -2.234375 Z M 4.21875 -2.234375 "/></g></g></g><g fill="#ffffff" fill-opacity="1"><g transform="translate(79.723013, 13.218451)"><g><path d="M 3 0.109375 C 2.476562 0.109375 2.03125 -0.0078125 1.65625 -0.25 C 1.289062 -0.488281 1.007812 -0.820312 0.8125 -1.25 C 0.613281 -1.675781 0.515625 -2.160156 0.515625 -2.703125 C 0.515625 -3.265625 0.613281 -3.753906 0.8125 -4.171875 C 1.019531 -4.597656 1.304688 -4.929688 1.671875 -5.171875 C 2.046875 -5.421875 2.484375 -5.546875 2.984375 -5.546875 C 3.367188 -5.546875 3.710938 -5.472656 4.015625 -5.328125 C 4.328125 -5.179688 4.582031 -4.976562 4.78125 -4.71875 C 4.976562 -4.46875 5.097656 -4.171875 5.140625 -3.828125 L 4.296875 -3.828125 C 4.234375 -4.078125 4.09375 -4.296875 3.875 -4.484375 C 3.65625 -4.679688 3.363281 -4.78125 3 -4.78125 C 2.5 -4.78125 2.097656 -4.59375 1.796875 -4.21875 C 1.503906 -3.851562 1.359375 -3.359375 1.359375 -2.734375 C 1.359375 -2.097656 1.503906 -1.585938 1.796875 -1.203125 C 2.097656 -0.828125 2.5 -0.640625 3 -0.640625 C 3.320312 -0.640625 3.597656 -0.722656 3.828125 -0.890625 C 4.066406 -1.054688 4.222656 -1.289062 4.296875 -1.59375 L 5.140625 -1.59375 C 5.097656 -1.269531 4.984375 -0.976562 4.796875 -0.71875 C 4.609375 -0.46875 4.359375 -0.265625 4.046875 -0.109375 C 3.742188 0.0351562 3.394531 0.109375 3 0.109375 Z M 3 0.109375 "/></g></g></g><g fill="#ffffff" fill-opacity="1"><g transform="translate(85.318689, 13.218451)"><g><path d="M 3 0.109375 C 2.476562 0.109375 2.03125 -0.0078125 1.65625 -0.25 C 1.289062 -0.488281 1.007812 -0.820312 0.8125 -1.25 C 0.613281 -1.675781 0.515625 -2.160156 0.515625 -2.703125 C 0.515625 -3.265625 0.613281 -3.753906 0.8125 -4.171875 C 1.019531 -4.597656 1.304688 -4.929688 1.671875 -5.171875 C 2.046875 -5.421875 2.484375 -5.546875 2.984375 -5.546875 C 3.367188 -5.546875 3.710938 -5.472656 4.015625 -5.328125 C 4.328125 -5.179688 4.582031 -4.976562 4.78125 -4.71875 C 4.976562 -4.46875 5.097656 -4.171875 5.140625 -3.828125 L 4.296875 -3.828125 C 4.234375 -4.078125 4.09375 -4.296875 3.875 -4.484375 C 3.65625 -4.679688 3.363281 -4.78125 3 -4.78125 C 2.5 -4.78125 2.097656 -4.59375 1.796875 -4.21875 C 1.503906 -3.851562 1.359375 -3.359375 1.359375 -2.734375 C 1.359375 -2.097656 1.503906 -1.585938 1.796875 -1.203125 C 2.097656 -0.828125 2.5 -0.640625 3 -0.640625 C 3.320312 -0.640625 3.597656 -0.722656 3.828125 -0.890625 C 4.066406 -1.054688 4.222656 -1.289062 4.296875 -1.59375 L 5.140625 -1.59375 C 5.097656 -1.269531 4.984375 -0.976562 4.796875 -0.71875 C 4.609375 -0.46875 4.359375 -0.265625 4.046875 -0.109375 C 3.742188 0.0351562 3.394531 0.109375 3 0.109375 Z M 3 0.109375 "/></g></g></g><g fill="#ffffff" fill-opacity="1"><g transform="translate(90.914365, 13.218451)"><g><path d="M 3.0625 0.109375 C 2.53125 0.109375 2.070312 -0.00390625 1.6875 -0.234375 C 1.3125 -0.472656 1.019531 -0.800781 0.8125 -1.21875 C 0.613281 -1.644531 0.515625 -2.132812 0.515625 -2.6875 C 0.515625 -3.25 0.613281 -3.742188 0.8125 -4.171875 C 1.019531 -4.597656 1.304688 -4.929688 1.671875 -5.171875 C 2.046875 -5.421875 2.484375 -5.546875 2.984375 -5.546875 C 3.265625 -5.546875 3.539062 -5.5 3.8125 -5.40625 C 4.09375 -5.3125 4.347656 -5.15625 4.578125 -4.9375 C 4.804688 -4.726562 4.988281 -4.445312 5.125 -4.09375 C 5.257812 -3.75 5.328125 -3.320312 5.328125 -2.8125 L 5.328125 -2.453125 L 1.359375 -2.453125 C 1.378906 -1.867188 1.546875 -1.421875 1.859375 -1.109375 C 2.171875 -0.796875 2.570312 -0.640625 3.0625 -0.640625 C 3.394531 -0.640625 3.675781 -0.707031 3.90625 -0.84375 C 4.144531 -0.988281 4.320312 -1.207031 4.4375 -1.5 L 5.25 -1.265625 C 5.113281 -0.847656 4.851562 -0.515625 4.46875 -0.265625 C 4.082031 -0.015625 3.613281 0.109375 3.0625 0.109375 Z M 1.359375 -3.171875 L 4.46875 -3.171875 C 4.46875 -3.640625 4.332031 -4.023438 4.0625 -4.328125 C 3.789062 -4.628906 3.429688 -4.78125 2.984375 -4.78125 C 2.660156 -4.78125 2.378906 -4.707031 2.140625 -4.5625 C 1.910156 -4.414062 1.726562 -4.21875 1.59375 -3.96875 C 1.457031 -3.71875 1.378906 -3.453125 1.359375 -3.171875 Z M 1.359375 -3.171875 "/></g></g></g><g fill="#ffffff" fill-opacity="1"><g transform="translate(96.752096, 13.218451)"><g><path d="M 4.640625 -4.25 L 3.890625 -4.03125 C 3.816406 -4.21875 3.691406 -4.394531 3.515625 -4.5625 C 3.347656 -4.726562 3.078125 -4.8125 2.703125 -4.8125 C 2.367188 -4.8125 2.085938 -4.734375 1.859375 -4.578125 C 1.640625 -4.429688 1.53125 -4.238281 1.53125 -4 C 1.53125 -3.789062 1.609375 -3.625 1.765625 -3.5 C 1.921875 -3.382812 2.160156 -3.285156 2.484375 -3.203125 L 3.296875 -3 C 4.265625 -2.769531 4.75 -2.28125 4.75 -1.53125 C 4.75 -1.207031 4.65625 -0.921875 4.46875 -0.671875 C 4.289062 -0.429688 4.039062 -0.238281 3.71875 -0.09375 C 3.40625 0.0390625 3.035156 0.109375 2.609375 0.109375 C 2.046875 0.109375 1.582031 -0.0078125 1.21875 -0.25 C 0.851562 -0.488281 0.625 -0.84375 0.53125 -1.3125 L 1.328125 -1.515625 C 1.472656 -0.921875 1.894531 -0.625 2.59375 -0.625 C 2.988281 -0.625 3.300781 -0.707031 3.53125 -0.875 C 3.757812 -1.039062 3.875 -1.242188 3.875 -1.484375 C 3.875 -1.867188 3.601562 -2.125 3.0625 -2.25 L 2.15625 -2.46875 C 1.65625 -2.582031 1.285156 -2.765625 1.046875 -3.015625 C 0.816406 -3.265625 0.703125 -3.582031 0.703125 -3.96875 C 0.703125 -4.269531 0.785156 -4.539062 0.953125 -4.78125 C 1.128906 -5.019531 1.367188 -5.207031 1.671875 -5.34375 C 1.972656 -5.476562 2.316406 -5.546875 2.703125 -5.546875 C 3.242188 -5.546875 3.671875 -5.425781 3.984375 -5.1875 C 4.296875 -4.945312 4.515625 -4.632812 4.640625 -4.25 Z M 4.640625 -4.25 "/></g></g></g><g fill="#ffffff" fill-opacity="1"><g transform="translate(101.991816, 13.218451)"><g><path d="M 4.640625 -4.25 L 3.890625 -4.03125 C 3.816406 -4.21875 3.691406 -4.394531 3.515625 -4.5625 C 3.347656 -4.726562 3.078125 -4.8125 2.703125 -4.8125 C 2.367188 -4.8125 2.085938 -4.734375 1.859375 -4.578125 C 1.640625 -4.429688 1.53125 -4.238281 1.53125 -4 C 1.53125 -3.789062 1.609375 -3.625 1.765625 -3.5 C 1.921875 -3.382812 2.160156 -3.285156 2.484375 -3.203125 L 3.296875 -3 C 4.265625 -2.769531 4.75 -2.28125 4.75 -1.53125 C 4.75 -1.207031 4.65625 -0.921875 4.46875 -0.671875 C 4.289062 -0.429688 4.039062 -0.238281 3.71875 -0.09375 C 3.40625 0.0390625 3.035156 0.109375 2.609375 0.109375 C 2.046875 0.109375 1.582031 -0.0078125 1.21875 -0.25 C 0.851562 -0.488281 0.625 -0.84375 0.53125 -1.3125 L 1.328125 -1.515625 C 1.472656 -0.921875 1.894531 -0.625 2.59375 -0.625 C 2.988281 -0.625 3.300781 -0.707031 3.53125 -0.875 C 3.757812 -1.039062 3.875 -1.242188 3.875 -1.484375 C 3.875 -1.867188 3.601562 -2.125 3.0625 -2.25 L 2.15625 -2.46875 C 1.65625 -2.582031 1.285156 -2.765625 1.046875 -3.015625 C 0.816406 -3.265625 0.703125 -3.582031 0.703125 -3.96875 C 0.703125 -4.269531 0.785156 -4.539062 0.953125 -4.78125 C 1.128906 -5.019531 1.367188 -5.207031 1.671875 -5.34375 C 1.972656 -5.476562 2.316406 -5.546875 2.703125 -5.546875 C 3.242188 -5.546875 3.671875 -5.425781 3.984375 -5.1875 C 4.296875 -4.945312 4.515625 -4.632812 4.640625 -4.25 Z M 4.640625 -4.25 "/></g></g></g><g fill="#ffffff" fill-opacity="1"><g transform="translate(107.231536, 13.218451)"><g/></g></g><g fill="#ffffff" fill-opacity="1"><g transform="translate(110.050735, 13.218451)"><g><path d="M 4.875 -5.46875 C 4.832031 -5.832031 4.65625 -6.113281 4.34375 -6.3125 C 4.039062 -6.507812 3.671875 -6.609375 3.234375 -6.609375 C 2.742188 -6.609375 2.351562 -6.492188 2.0625 -6.265625 C 1.769531 -6.035156 1.625 -5.75 1.625 -5.40625 C 1.625 -5.144531 1.703125 -4.929688 1.859375 -4.765625 C 2.023438 -4.609375 2.21875 -4.484375 2.4375 -4.390625 C 2.65625 -4.304688 2.851562 -4.238281 3.03125 -4.1875 L 3.78125 -3.984375 C 3.96875 -3.941406 4.175781 -3.875 4.40625 -3.78125 C 4.644531 -3.695312 4.867188 -3.578125 5.078125 -3.421875 C 5.296875 -3.273438 5.472656 -3.082031 5.609375 -2.84375 C 5.753906 -2.613281 5.828125 -2.328125 5.828125 -1.984375 C 5.828125 -1.585938 5.722656 -1.226562 5.515625 -0.90625 C 5.316406 -0.59375 5.019531 -0.34375 4.625 -0.15625 C 4.226562 0.03125 3.75 0.125 3.1875 0.125 C 2.40625 0.125 1.785156 -0.0546875 1.328125 -0.421875 C 0.867188 -0.796875 0.613281 -1.28125 0.5625 -1.875 L 1.484375 -1.875 C 1.503906 -1.601562 1.59375 -1.378906 1.75 -1.203125 C 1.914062 -1.023438 2.125 -0.890625 2.375 -0.796875 C 2.625 -0.710938 2.894531 -0.671875 3.1875 -0.671875 C 3.53125 -0.671875 3.832031 -0.722656 4.09375 -0.828125 C 4.363281 -0.941406 4.578125 -1.097656 4.734375 -1.296875 C 4.890625 -1.492188 4.96875 -1.726562 4.96875 -2 C 4.96875 -2.238281 4.898438 -2.429688 4.765625 -2.578125 C 4.628906 -2.734375 4.453125 -2.859375 4.234375 -2.953125 C 4.015625 -3.046875 3.773438 -3.128906 3.515625 -3.203125 L 2.625 -3.46875 C 2.050781 -3.625 1.597656 -3.851562 1.265625 -4.15625 C 0.929688 -4.46875 0.765625 -4.867188 0.765625 -5.359375 C 0.765625 -5.765625 0.875 -6.117188 1.09375 -6.421875 C 1.320312 -6.734375 1.625 -6.972656 2 -7.140625 C 2.375 -7.304688 2.796875 -7.390625 3.265625 -7.390625 C 3.734375 -7.390625 4.148438 -7.304688 4.515625 -7.140625 C 4.878906 -6.972656 5.164062 -6.742188 5.375 -6.453125 C 5.59375 -6.171875 5.710938 -5.84375 5.734375 -5.46875 Z M 4.875 -5.46875 "/></g></g></g><g fill="#ffffff" fill-opacity="1"><g transform="translate(116.443765, 13.218451)"><g><path d="M 3.15625 -5.46875 L 3.15625 -4.765625 L 1.984375 -4.765625 L 1.984375 -1.5625 C 1.984375 -1.332031 2.015625 -1.15625 2.078125 -1.03125 C 2.148438 -0.914062 2.238281 -0.835938 2.34375 -0.796875 C 2.457031 -0.753906 2.578125 -0.734375 2.703125 -0.734375 C 2.796875 -0.734375 2.875 -0.738281 2.9375 -0.75 C 3 -0.757812 3.046875 -0.769531 3.078125 -0.78125 L 3.25 -0.03125 C 3.1875 -0.0078125 3.101562 0.0078125 3 0.03125 C 2.90625 0.0625 2.78125 0.078125 2.625 0.078125 C 2.382812 0.078125 2.148438 0.0234375 1.921875 -0.078125 C 1.691406 -0.179688 1.503906 -0.335938 1.359375 -0.546875 C 1.210938 -0.753906 1.140625 -1.019531 1.140625 -1.34375 L 1.140625 -4.765625 L 0.3125 -4.765625 L 0.3125 -5.46875 L 1.140625 -5.46875 L 1.140625 -6.78125 L 1.984375 -6.78125 L 1.984375 -5.46875 Z M 3.15625 -5.46875 "/></g></g></g><g fill="#ffffff" fill-opacity="1"><g transform="translate(120.088788, 13.218451)"><g><path d="M 3 0.109375 C 2.5 0.109375 2.0625 -0.00390625 1.6875 -0.234375 C 1.320312 -0.472656 1.035156 -0.800781 0.828125 -1.21875 C 0.617188 -1.644531 0.515625 -2.140625 0.515625 -2.703125 C 0.515625 -3.273438 0.617188 -3.773438 0.828125 -4.203125 C 1.035156 -4.628906 1.320312 -4.957031 1.6875 -5.1875 C 2.0625 -5.425781 2.5 -5.546875 3 -5.546875 C 3.488281 -5.546875 3.914062 -5.425781 4.28125 -5.1875 C 4.65625 -4.957031 4.945312 -4.628906 5.15625 -4.203125 C 5.363281 -3.773438 5.46875 -3.273438 5.46875 -2.703125 C 5.46875 -2.140625 5.363281 -1.644531 5.15625 -1.21875 C 4.945312 -0.800781 4.65625 -0.472656 4.28125 -0.234375 C 3.914062 -0.00390625 3.488281 0.109375 3 0.109375 Z M 3 -0.640625 C 3.375 -0.640625 3.679688 -0.734375 3.921875 -0.921875 C 4.160156 -1.117188 4.335938 -1.375 4.453125 -1.6875 C 4.566406 -2 4.625 -2.335938 4.625 -2.703125 C 4.625 -3.066406 4.566406 -3.40625 4.453125 -3.71875 C 4.335938 -4.039062 4.160156 -4.296875 3.921875 -4.484375 C 3.679688 -4.679688 3.375 -4.78125 3 -4.78125 C 2.613281 -4.78125 2.300781 -4.679688 2.0625 -4.484375 C 1.820312 -4.296875 1.644531 -4.039062 1.53125 -3.71875 C 1.414062 -3.40625 1.359375 -3.066406 1.359375 -2.703125 C 1.359375 -2.335938 1.414062 -2 1.53125 -1.6875 C 1.644531 -1.375 1.820312 -1.117188 2.0625 -0.921875 C 2.300781 -0.734375 2.613281 -0.640625 3 -0.640625 Z M 3 -0.640625 "/></g></g></g><g fill="#ffffff" fill-opacity="1"><g transform="translate(126.0689, 13.218451)"><g><path d="M 0.765625 0 L 0.765625 -5.46875 L 1.578125 -5.46875 L 1.578125 -4.640625 L 1.640625 -4.640625 C 1.734375 -4.910156 1.910156 -5.128906 2.171875 -5.296875 C 2.429688 -5.472656 2.726562 -5.5625 3.0625 -5.5625 C 3.21875 -5.5625 3.351562 -5.539062 3.46875 -5.5 C 3.582031 -5.46875 3.679688 -5.421875 3.765625 -5.359375 L 3.484375 -4.640625 C 3.421875 -4.671875 3.347656 -4.695312 3.265625 -4.71875 C 3.191406 -4.738281 3.101562 -4.75 3 -4.75 C 2.59375 -4.75 2.257812 -4.625 2 -4.375 C 1.738281 -4.132812 1.609375 -3.832031 1.609375 -3.46875 L 1.609375 0 Z M 0.765625 0 "/></g></g></g><g fill="#ffffff" fill-opacity="1"><g transform="translate(129.913256, 13.218451)"><g><path d="M 1.28125 2.125 C 1.132812 2.125 1.003906 2.113281 0.890625 2.09375 C 0.785156 2.070312 0.710938 2.046875 0.671875 2.015625 L 0.890625 1.28125 C 1.191406 1.363281 1.441406 1.363281 1.640625 1.28125 C 1.847656 1.195312 2.03125 0.953125 2.1875 0.546875 L 2.359375 0.03125 L 0.34375 -5.46875 L 1.25 -5.46875 L 2.765625 -1.109375 L 2.828125 -1.109375 L 4.328125 -5.46875 L 5.25 -5.46875 L 2.890625 0.890625 C 2.578125 1.710938 2.039062 2.125 1.28125 2.125 Z M 1.28125 2.125 "/></g></g></g><g fill="#ffffff" fill-opacity="1"><g transform="translate(135.494703, 13.218451)"><g><path d="M 1.375 0.0625 C 1.207031 0.0625 1.054688 0 0.921875 -0.125 C 0.796875 -0.257812 0.734375 -0.410156 0.734375 -0.578125 C 0.734375 -0.753906 0.796875 -0.90625 0.921875 -1.03125 C 1.054688 -1.15625 1.207031 -1.21875 1.375 -1.21875 C 1.550781 -1.21875 1.703125 -1.15625 1.828125 -1.03125 C 1.953125 -0.90625 2.015625 -0.753906 2.015625 -0.578125 C 2.015625 -0.410156 1.953125 -0.257812 1.828125 -0.125 C 1.703125 0 1.550781 0.0625 1.375 0.0625 Z M 1.375 -4 C 1.207031 -4 1.054688 -4.0625 0.921875 -4.1875 C 0.796875 -4.320312 0.734375 -4.472656 0.734375 -4.640625 C 0.734375 -4.816406 0.796875 -4.96875 0.921875 -5.09375 C 1.054688 -5.21875 1.207031 -5.28125 1.375 -5.28125 C 1.550781 -5.28125 1.703125 -5.21875 1.828125 -5.09375 C 1.953125 -4.96875 2.015625 -4.816406 2.015625 -4.640625 C 2.015625 -4.472656 1.953125 -4.320312 1.828125 -4.1875 C 1.703125 -4.0625 1.550781 -4 1.375 -4 Z M 1.375 -4 "/></g></g></g><g fill="#ffffff" fill-opacity="1"><g transform="translate(138.266558, 13.218451)"><g/></g></g><g fill="#ffffff" fill-opacity="1"><g transform="translate(82.298002, 79.33875)"><g><path d="M 0.46875 -1.3125 L 0.46875 -1.59375 L 2.8125 -2.796875 L 2.8125 -2.328125 L 1.03125 -1.46875 L 1.03125 -1.4375 L 2.8125 -0.578125 L 2.8125 -0.109375 Z M 0.46875 -1.3125 "/></g></g></g><g fill="#ffffff" fill-opacity="1"><g transform="translate(85.586568, 79.33875)"><g><path d="M 1.578125 -3.734375 L 1.578125 0 L 1.125 0 L 1.125 -3.078125 L 1.09375 -3.078125 C 1.082031 -3.035156 1.039062 -2.992188 0.96875 -2.953125 C 0.894531 -2.910156 0.800781 -2.875 0.6875 -2.84375 C 0.582031 -2.8125 0.457031 -2.796875 0.3125 -2.796875 L 0.3125 -3.171875 C 0.457031 -3.171875 0.582031 -3.195312 0.6875 -3.25 C 0.789062 -3.300781 0.878906 -3.363281 0.953125 -3.4375 C 1.023438 -3.507812 1.078125 -3.570312 1.109375 -3.625 C 1.148438 -3.6875 1.171875 -3.722656 1.171875 -3.734375 Z M 1.578125 -3.734375 "/></g></g></g><g fill="#ffffff" fill-opacity="1"><g transform="translate(87.849274, 79.33875)"><g><path d="M 1.59375 0.046875 C 1.1875 0.046875 0.867188 -0.117188 0.640625 -0.453125 C 0.421875 -0.785156 0.3125 -1.253906 0.3125 -1.859375 C 0.3125 -2.460938 0.421875 -2.929688 0.640625 -3.265625 C 0.867188 -3.609375 1.1875 -3.78125 1.59375 -3.78125 C 2.007812 -3.78125 2.328125 -3.609375 2.546875 -3.265625 C 2.773438 -2.929688 2.890625 -2.460938 2.890625 -1.859375 C 2.890625 -1.253906 2.773438 -0.785156 2.546875 -0.453125 C 2.328125 -0.117188 2.007812 0.046875 1.59375 0.046875 Z M 1.59375 -0.34375 C 1.875 -0.34375 2.085938 -0.472656 2.234375 -0.734375 C 2.378906 -1.003906 2.453125 -1.378906 2.453125 -1.859375 C 2.453125 -2.347656 2.375 -2.722656 2.21875 -2.984375 C 2.070312 -3.253906 1.863281 -3.390625 1.59375 -3.390625 C 1.332031 -3.390625 1.125 -3.253906 0.96875 -2.984375 C 0.820312 -2.722656 0.75 -2.347656 0.75 -1.859375 C 0.75 -1.378906 0.820312 -1.003906 0.96875 -0.734375 C 1.125 -0.472656 1.332031 -0.34375 1.59375 -0.34375 Z M 1.59375 -0.34375 "/></g></g></g><g fill="#ffffff" fill-opacity="1"><g transform="translate(91.050537, 79.33875)"><g><path d="M 1.59375 0.046875 C 1.1875 0.046875 0.867188 -0.117188 0.640625 -0.453125 C 0.421875 -0.785156 0.3125 -1.253906 0.3125 -1.859375 C 0.3125 -2.460938 0.421875 -2.929688 0.640625 -3.265625 C 0.867188 -3.609375 1.1875 -3.78125 1.59375 -3.78125 C 2.007812 -3.78125 2.328125 -3.609375 2.546875 -3.265625 C 2.773438 -2.929688 2.890625 -2.460938 2.890625 -1.859375 C 2.890625 -1.253906 2.773438 -0.785156 2.546875 -0.453125 C 2.328125 -0.117188 2.007812 0.046875 1.59375 0.046875 Z M 1.59375 -0.34375 C 1.875 -0.34375 2.085938 -0.472656 2.234375 -0.734375 C 2.378906 -1.003906 2.453125 -1.378906 2.453125 -1.859375 C 2.453125 -2.347656 2.375 -2.722656 2.21875 -2.984375 C 2.070312 -3.253906 1.863281 -3.390625 1.59375 -3.390625 C 1.332031 -3.390625 1.125 -3.253906 0.96875 -2.984375 C 0.820312 -2.722656 0.75 -2.347656 0.75 -1.859375 C 0.75 -1.378906 0.820312 -1.003906 0.96875 -0.734375 C 1.125 -0.472656 1.332031 -0.34375 1.59375 -0.34375 Z M 1.59375 -0.34375 "/></g></g></g><g fill="#ffffff" fill-opacity="1"><g transform="translate(94.251801, 79.33875)"><g><path d="M 0.390625 0 L 0.390625 -2.796875 L 0.8125 -2.796875 L 0.8125 -2.359375 L 0.84375 -2.359375 C 0.90625 -2.503906 1 -2.617188 1.125 -2.703125 C 1.257812 -2.785156 1.414062 -2.828125 1.59375 -2.828125 C 1.78125 -2.828125 1.929688 -2.785156 2.046875 -2.703125 C 2.171875 -2.617188 2.269531 -2.503906 2.34375 -2.359375 L 2.375 -2.359375 C 2.445312 -2.503906 2.550781 -2.617188 2.6875 -2.703125 C 2.832031 -2.785156 3.003906 -2.828125 3.203125 -2.828125 C 3.453125 -2.828125 3.65625 -2.75 3.8125 -2.59375 C 3.976562 -2.4375 4.0625 -2.195312 4.0625 -1.875 L 4.0625 0 L 3.625 0 L 3.625 -1.875 C 3.625 -2.082031 3.566406 -2.226562 3.453125 -2.3125 C 3.347656 -2.40625 3.21875 -2.453125 3.0625 -2.453125 C 2.863281 -2.453125 2.710938 -2.390625 2.609375 -2.265625 C 2.503906 -2.148438 2.453125 -2 2.453125 -1.8125 L 2.453125 0 L 2.015625 0 L 2.015625 -1.921875 C 2.015625 -2.078125 1.960938 -2.203125 1.859375 -2.296875 C 1.753906 -2.398438 1.617188 -2.453125 1.453125 -2.453125 C 1.335938 -2.453125 1.234375 -2.421875 1.140625 -2.359375 C 1.046875 -2.296875 0.96875 -2.210938 0.90625 -2.109375 C 0.851562 -2.003906 0.828125 -1.882812 0.828125 -1.75 L 0.828125 0 Z M 0.390625 0 "/></g></g></g><g fill="#ffffff" fill-opacity="1"><g transform="translate(98.704461, 79.33875)"><g><path d="M 2.375 -2.171875 L 1.984375 -2.0625 C 1.953125 -2.15625 1.890625 -2.242188 1.796875 -2.328125 C 1.710938 -2.410156 1.578125 -2.453125 1.390625 -2.453125 C 1.210938 -2.453125 1.066406 -2.410156 0.953125 -2.328125 C 0.835938 -2.253906 0.78125 -2.160156 0.78125 -2.046875 C 0.78125 -1.941406 0.816406 -1.859375 0.890625 -1.796875 C 0.972656 -1.734375 1.097656 -1.679688 1.265625 -1.640625 L 1.6875 -1.53125 C 2.175781 -1.414062 2.421875 -1.164062 2.421875 -0.78125 C 2.421875 -0.613281 2.375 -0.46875 2.28125 -0.34375 C 2.195312 -0.21875 2.070312 -0.117188 1.90625 -0.046875 C 1.738281 0.0234375 1.546875 0.0625 1.328125 0.0625 C 1.046875 0.0625 0.8125 0 0.625 -0.125 C 0.4375 -0.25 0.316406 -0.429688 0.265625 -0.671875 L 0.671875 -0.765625 C 0.753906 -0.460938 0.972656 -0.3125 1.328125 -0.3125 C 1.523438 -0.3125 1.679688 -0.351562 1.796875 -0.4375 C 1.921875 -0.53125 1.984375 -0.632812 1.984375 -0.75 C 1.984375 -0.945312 1.84375 -1.082031 1.5625 -1.15625 L 1.09375 -1.265625 C 0.84375 -1.316406 0.65625 -1.40625 0.53125 -1.53125 C 0.414062 -1.664062 0.359375 -1.832031 0.359375 -2.03125 C 0.359375 -2.1875 0.398438 -2.320312 0.484375 -2.4375 C 0.578125 -2.5625 0.703125 -2.65625 0.859375 -2.71875 C 1.015625 -2.789062 1.191406 -2.828125 1.390625 -2.828125 C 1.660156 -2.828125 1.875 -2.765625 2.03125 -2.640625 C 2.1875 -2.523438 2.300781 -2.367188 2.375 -2.171875 Z M 2.375 -2.171875 "/></g></g></g><g fill="#ffffff" fill-opacity="1"><g transform="translate(101.381879, 79.33875)"><g/></g></g><g fill="#ffffff" fill-opacity="1"><g transform="translate(102.822444, 79.33875)"><g><path d="M 0.390625 0 L 0.390625 -2.796875 L 0.8125 -2.796875 L 0.8125 -2.375 L 0.84375 -2.375 C 0.882812 -2.507812 0.972656 -2.617188 1.109375 -2.703125 C 1.242188 -2.796875 1.394531 -2.84375 1.5625 -2.84375 C 1.644531 -2.84375 1.710938 -2.832031 1.765625 -2.8125 C 1.828125 -2.789062 1.878906 -2.765625 1.921875 -2.734375 L 1.78125 -2.375 C 1.75 -2.382812 1.710938 -2.394531 1.671875 -2.40625 C 1.628906 -2.414062 1.582031 -2.421875 1.53125 -2.421875 C 1.320312 -2.421875 1.148438 -2.359375 1.015625 -2.234375 C 0.890625 -2.109375 0.828125 -1.953125 0.828125 -1.765625 L 0.828125 0 Z M 0.390625 0 "/></g></g></g><g fill="#ffffff" fill-opacity="1"><g transform="translate(104.786854, 79.33875)"><g><path d="M 1.5625 0.0625 C 1.289062 0.0625 1.054688 0.00390625 0.859375 -0.109375 C 0.671875 -0.234375 0.523438 -0.40625 0.421875 -0.625 C 0.316406 -0.84375 0.265625 -1.09375 0.265625 -1.375 C 0.265625 -1.664062 0.316406 -1.921875 0.421875 -2.140625 C 0.523438 -2.359375 0.671875 -2.523438 0.859375 -2.640625 C 1.046875 -2.765625 1.265625 -2.828125 1.515625 -2.828125 C 1.660156 -2.828125 1.804688 -2.800781 1.953125 -2.75 C 2.097656 -2.707031 2.226562 -2.628906 2.34375 -2.515625 C 2.457031 -2.410156 2.546875 -2.269531 2.609375 -2.09375 C 2.679688 -1.914062 2.71875 -1.695312 2.71875 -1.4375 L 2.71875 -1.25 L 0.6875 -1.25 C 0.695312 -0.945312 0.78125 -0.71875 0.9375 -0.5625 C 1.101562 -0.40625 1.3125 -0.328125 1.5625 -0.328125 C 1.726562 -0.328125 1.875 -0.363281 2 -0.4375 C 2.125 -0.507812 2.210938 -0.617188 2.265625 -0.765625 L 2.671875 -0.640625 C 2.609375 -0.429688 2.476562 -0.257812 2.28125 -0.125 C 2.082031 0 1.84375 0.0625 1.5625 0.0625 Z M 0.6875 -1.625 L 2.28125 -1.625 C 2.28125 -1.863281 2.210938 -2.0625 2.078125 -2.21875 C 1.941406 -2.375 1.753906 -2.453125 1.515625 -2.453125 C 1.359375 -2.453125 1.21875 -2.410156 1.09375 -2.328125 C 0.976562 -2.253906 0.882812 -2.15625 0.8125 -2.03125 C 0.738281 -1.90625 0.695312 -1.769531 0.6875 -1.625 Z M 0.6875 -1.625 "/></g></g></g><g fill="#ffffff" fill-opacity="1"><g transform="translate(107.769849, 79.33875)"><g><path d="M 0.390625 1.046875 L 0.390625 -2.796875 L 0.8125 -2.796875 L 0.8125 -2.34375 L 0.859375 -2.34375 C 0.890625 -2.394531 0.929688 -2.457031 0.984375 -2.53125 C 1.046875 -2.613281 1.128906 -2.679688 1.234375 -2.734375 C 1.335938 -2.796875 1.484375 -2.828125 1.671875 -2.828125 C 1.898438 -2.828125 2.101562 -2.769531 2.28125 -2.65625 C 2.46875 -2.539062 2.609375 -2.375 2.703125 -2.15625 C 2.804688 -1.9375 2.859375 -1.679688 2.859375 -1.390625 C 2.859375 -1.097656 2.804688 -0.84375 2.703125 -0.625 C 2.609375 -0.40625 2.472656 -0.234375 2.296875 -0.109375 C 2.117188 0.00390625 1.910156 0.0625 1.671875 0.0625 C 1.492188 0.0625 1.347656 0.03125 1.234375 -0.03125 C 1.128906 -0.09375 1.046875 -0.160156 0.984375 -0.234375 C 0.929688 -0.316406 0.890625 -0.378906 0.859375 -0.421875 L 0.828125 -0.421875 L 0.828125 1.046875 Z M 0.8125 -1.390625 C 0.8125 -1.078125 0.878906 -0.820312 1.015625 -0.625 C 1.160156 -0.425781 1.359375 -0.328125 1.609375 -0.328125 C 1.796875 -0.328125 1.945312 -0.375 2.0625 -0.46875 C 2.1875 -0.5625 2.28125 -0.6875 2.34375 -0.84375 C 2.40625 -1.007812 2.4375 -1.191406 2.4375 -1.390625 C 2.4375 -1.585938 2.40625 -1.765625 2.34375 -1.921875 C 2.28125 -2.085938 2.1875 -2.21875 2.0625 -2.3125 C 1.945312 -2.40625 1.796875 -2.453125 1.609375 -2.453125 C 1.347656 -2.453125 1.148438 -2.351562 1.015625 -2.15625 C 0.878906 -1.957031 0.8125 -1.703125 0.8125 -1.390625 Z M 0.8125 -1.390625 "/></g></g></g><g fill="#ffffff" fill-opacity="1"><g transform="translate(110.891079, 79.33875)"><g><path d="M 0.828125 -3.734375 L 0.828125 0 L 0.390625 0 L 0.390625 -3.734375 Z M 0.828125 -3.734375 "/></g></g></g><g fill="#ffffff" fill-opacity="1"><g transform="translate(112.1061, 79.33875)"><g><path d="M 0.390625 0 L 0.390625 -2.796875 L 0.828125 -2.796875 L 0.828125 0 Z M 0.609375 -3.265625 C 0.523438 -3.265625 0.453125 -3.289062 0.390625 -3.34375 C 0.335938 -3.40625 0.3125 -3.472656 0.3125 -3.546875 C 0.3125 -3.628906 0.335938 -3.695312 0.390625 -3.75 C 0.453125 -3.8125 0.523438 -3.84375 0.609375 -3.84375 C 0.691406 -3.84375 0.765625 -3.8125 0.828125 -3.75 C 0.890625 -3.695312 0.921875 -3.628906 0.921875 -3.546875 C 0.921875 -3.472656 0.890625 -3.40625 0.828125 -3.34375 C 0.765625 -3.289062 0.691406 -3.265625 0.609375 -3.265625 Z M 0.609375 -3.265625 "/></g></g></g><g fill="#ffffff" fill-opacity="1"><g transform="translate(113.321121, 79.33875)"><g><path d="M 1.53125 0.0625 C 1.269531 0.0625 1.039062 0 0.84375 -0.125 C 0.65625 -0.25 0.507812 -0.421875 0.40625 -0.640625 C 0.3125 -0.859375 0.265625 -1.109375 0.265625 -1.390625 C 0.265625 -1.671875 0.316406 -1.921875 0.421875 -2.140625 C 0.523438 -2.359375 0.671875 -2.523438 0.859375 -2.640625 C 1.046875 -2.765625 1.265625 -2.828125 1.515625 -2.828125 C 1.710938 -2.828125 1.890625 -2.789062 2.046875 -2.71875 C 2.210938 -2.644531 2.34375 -2.539062 2.4375 -2.40625 C 2.539062 -2.28125 2.601562 -2.128906 2.625 -1.953125 L 2.203125 -1.953125 C 2.171875 -2.085938 2.097656 -2.203125 1.984375 -2.296875 C 1.867188 -2.398438 1.71875 -2.453125 1.53125 -2.453125 C 1.28125 -2.453125 1.078125 -2.351562 0.921875 -2.15625 C 0.765625 -1.96875 0.6875 -1.710938 0.6875 -1.390625 C 0.6875 -1.066406 0.757812 -0.804688 0.90625 -0.609375 C 1.0625 -0.421875 1.269531 -0.328125 1.53125 -0.328125 C 1.695312 -0.328125 1.835938 -0.367188 1.953125 -0.453125 C 2.078125 -0.546875 2.160156 -0.664062 2.203125 -0.8125 L 2.625 -0.8125 C 2.601562 -0.644531 2.546875 -0.492188 2.453125 -0.359375 C 2.359375 -0.234375 2.234375 -0.128906 2.078125 -0.046875 C 1.921875 0.0234375 1.738281 0.0625 1.53125 0.0625 Z M 1.53125 0.0625 "/></g></g></g><g fill="#ffffff" fill-opacity="1"><g transform="translate(116.180431, 79.33875)"><g><path d="M 1.21875 0.0625 C 1.039062 0.0625 0.878906 0.03125 0.734375 -0.03125 C 0.585938 -0.101562 0.472656 -0.203125 0.390625 -0.328125 C 0.304688 -0.453125 0.265625 -0.609375 0.265625 -0.796875 C 0.265625 -0.953125 0.296875 -1.078125 0.359375 -1.171875 C 0.421875 -1.273438 0.503906 -1.351562 0.609375 -1.40625 C 0.710938 -1.46875 0.828125 -1.515625 0.953125 -1.546875 C 1.085938 -1.578125 1.21875 -1.597656 1.34375 -1.609375 C 1.507812 -1.640625 1.644531 -1.660156 1.75 -1.671875 C 1.863281 -1.679688 1.941406 -1.695312 1.984375 -1.71875 C 2.035156 -1.75 2.0625 -1.800781 2.0625 -1.875 L 2.0625 -1.890625 C 2.0625 -2.066406 2.015625 -2.203125 1.921875 -2.296875 C 1.828125 -2.398438 1.679688 -2.453125 1.484375 -2.453125 C 1.273438 -2.453125 1.113281 -2.40625 1 -2.3125 C 0.882812 -2.226562 0.800781 -2.132812 0.75 -2.03125 L 0.34375 -2.171875 C 0.414062 -2.347656 0.507812 -2.484375 0.625 -2.578125 C 0.75 -2.671875 0.882812 -2.734375 1.03125 -2.765625 C 1.175781 -2.804688 1.320312 -2.828125 1.46875 -2.828125 C 1.550781 -2.828125 1.648438 -2.816406 1.765625 -2.796875 C 1.890625 -2.773438 2.003906 -2.734375 2.109375 -2.671875 C 2.222656 -2.609375 2.316406 -2.507812 2.390625 -2.375 C 2.460938 -2.238281 2.5 -2.0625 2.5 -1.84375 L 2.5 0 L 2.0625 0 L 2.0625 -0.375 L 2.046875 -0.375 C 2.015625 -0.3125 1.960938 -0.242188 1.890625 -0.171875 C 1.828125 -0.109375 1.738281 -0.0507812 1.625 0 C 1.507812 0.0390625 1.375 0.0625 1.21875 0.0625 Z M 1.28125 -0.3125 C 1.445312 -0.3125 1.585938 -0.34375 1.703125 -0.40625 C 1.828125 -0.476562 1.914062 -0.566406 1.96875 -0.671875 C 2.03125 -0.785156 2.0625 -0.898438 2.0625 -1.015625 L 2.0625 -1.40625 C 2.050781 -1.382812 2.015625 -1.363281 1.953125 -1.34375 C 1.890625 -1.320312 1.816406 -1.304688 1.734375 -1.296875 C 1.660156 -1.285156 1.582031 -1.273438 1.5 -1.265625 C 1.425781 -1.253906 1.367188 -1.25 1.328125 -1.25 C 1.210938 -1.226562 1.109375 -1.203125 1.015625 -1.171875 C 0.921875 -1.140625 0.84375 -1.09375 0.78125 -1.03125 C 0.71875 -0.96875 0.6875 -0.878906 0.6875 -0.765625 C 0.6875 -0.617188 0.742188 -0.503906 0.859375 -0.421875 C 0.972656 -0.347656 1.113281 -0.3125 1.28125 -0.3125 Z M 1.28125 -0.3125 "/></g></g></g><g fill="#ffffff" fill-opacity="1"><g transform="translate(119.068842, 79.33875)"><g><path d="M 1.609375 -2.796875 L 1.609375 -2.4375 L 1.015625 -2.4375 L 1.015625 -0.796875 C 1.015625 -0.679688 1.03125 -0.59375 1.0625 -0.53125 C 1.101562 -0.46875 1.148438 -0.425781 1.203125 -0.40625 C 1.253906 -0.382812 1.316406 -0.375 1.390625 -0.375 C 1.429688 -0.375 1.46875 -0.375 1.5 -0.375 C 1.53125 -0.382812 1.554688 -0.394531 1.578125 -0.40625 L 1.65625 -0.015625 C 1.625 -0.00390625 1.582031 0.00390625 1.53125 0.015625 C 1.476562 0.0234375 1.414062 0.03125 1.34375 0.03125 C 1.21875 0.03125 1.097656 0.00390625 0.984375 -0.046875 C 0.867188 -0.0976562 0.769531 -0.175781 0.6875 -0.28125 C 0.613281 -0.382812 0.578125 -0.519531 0.578125 -0.6875 L 0.578125 -2.4375 L 0.15625 -2.4375 L 0.15625 -2.796875 L 0.578125 -2.796875 L 0.578125 -3.46875 L 1.015625 -3.46875 L 1.015625 -2.796875 Z M 1.609375 -2.796875 "/></g></g></g><g fill="#ffffff" fill-opacity="1"><g transform="translate(120.931394, 79.33875)"><g><path d="M 0.390625 0 L 0.390625 -2.796875 L 0.828125 -2.796875 L 0.828125 0 Z M 0.609375 -3.265625 C 0.523438 -3.265625 0.453125 -3.289062 0.390625 -3.34375 C 0.335938 -3.40625 0.3125 -3.472656 0.3125 -3.546875 C 0.3125 -3.628906 0.335938 -3.695312 0.390625 -3.75 C 0.453125 -3.8125 0.523438 -3.84375 0.609375 -3.84375 C 0.691406 -3.84375 0.765625 -3.8125 0.828125 -3.75 C 0.890625 -3.695312 0.921875 -3.628906 0.921875 -3.546875 C 0.921875 -3.472656 0.890625 -3.40625 0.828125 -3.34375 C 0.765625 -3.289062 0.691406 -3.265625 0.609375 -3.265625 Z M 0.609375 -3.265625 "/></g></g></g><g fill="#ffffff" fill-opacity="1"><g transform="translate(122.146415, 79.33875)"><g><path d="M 1.53125 0.0625 C 1.28125 0.0625 1.054688 0.00390625 0.859375 -0.109375 C 0.671875 -0.234375 0.523438 -0.40625 0.421875 -0.625 C 0.316406 -0.84375 0.265625 -1.097656 0.265625 -1.390625 C 0.265625 -1.671875 0.316406 -1.921875 0.421875 -2.140625 C 0.523438 -2.359375 0.671875 -2.523438 0.859375 -2.640625 C 1.054688 -2.765625 1.28125 -2.828125 1.53125 -2.828125 C 1.78125 -2.828125 2 -2.765625 2.1875 -2.640625 C 2.382812 -2.523438 2.535156 -2.359375 2.640625 -2.140625 C 2.742188 -1.921875 2.796875 -1.671875 2.796875 -1.390625 C 2.796875 -1.097656 2.742188 -0.84375 2.640625 -0.625 C 2.535156 -0.40625 2.382812 -0.234375 2.1875 -0.109375 C 2 0.00390625 1.78125 0.0625 1.53125 0.0625 Z M 1.53125 -0.328125 C 1.71875 -0.328125 1.875 -0.375 2 -0.46875 C 2.125 -0.570312 2.210938 -0.703125 2.265625 -0.859375 C 2.328125 -1.023438 2.359375 -1.203125 2.359375 -1.390625 C 2.359375 -1.566406 2.328125 -1.734375 2.265625 -1.890625 C 2.210938 -2.054688 2.125 -2.191406 2 -2.296875 C 1.875 -2.398438 1.71875 -2.453125 1.53125 -2.453125 C 1.332031 -2.453125 1.171875 -2.398438 1.046875 -2.296875 C 0.929688 -2.191406 0.84375 -2.054688 0.78125 -1.890625 C 0.71875 -1.734375 0.6875 -1.566406 0.6875 -1.390625 C 0.6875 -1.203125 0.71875 -1.023438 0.78125 -0.859375 C 0.84375 -0.703125 0.929688 -0.570312 1.046875 -0.46875 C 1.171875 -0.375 1.332031 -0.328125 1.53125 -0.328125 Z M 1.53125 -0.328125 "/></g></g></g><g fill="#ffffff" fill-opacity="1"><g transform="translate(125.202162, 79.33875)"><g><path d="M 0.828125 -1.6875 L 0.828125 0 L 0.390625 0 L 0.390625 -2.796875 L 0.8125 -2.796875 L 0.8125 -2.359375 L 0.84375 -2.359375 C 0.90625 -2.503906 1.003906 -2.617188 1.140625 -2.703125 C 1.273438 -2.785156 1.445312 -2.828125 1.65625 -2.828125 C 1.9375 -2.828125 2.164062 -2.738281 2.34375 -2.5625 C 2.519531 -2.394531 2.609375 -2.132812 2.609375 -1.78125 L 2.609375 0 L 2.171875 0 L 2.171875 -1.75 C 2.171875 -1.96875 2.113281 -2.140625 2 -2.265625 C 1.882812 -2.390625 1.726562 -2.453125 1.53125 -2.453125 C 1.332031 -2.453125 1.164062 -2.382812 1.03125 -2.25 C 0.894531 -2.113281 0.828125 -1.925781 0.828125 -1.6875 Z M 0.828125 -1.6875 "/></g></g></g><g fill="#ffffff" fill-opacity="1"><g transform="translate(85.612724, 86.168279)"><g><path d="M 0.296875 -0.765625 L 0.296875 -1.140625 L 1.9375 -3.734375 L 2.484375 -3.734375 L 2.484375 -1.171875 L 2.984375 -1.171875 L 2.984375 -0.765625 L 2.484375 -0.765625 L 2.484375 0 L 2.046875 0 L 2.046875 -0.765625 Z M 2.046875 -1.171875 L 2.046875 -3.15625 L 2.03125 -3.15625 L 0.78125 -1.1875 L 0.78125 -1.171875 Z M 2.046875 -1.171875 "/></g></g></g><g fill="#ffffff" fill-opacity="1"><g transform="translate(88.90129, 86.168279)"><g><path d="M 0.71875 -2.796875 L 1.390625 -1.65625 L 2.046875 -2.796875 L 2.546875 -2.796875 L 1.640625 -1.390625 L 2.546875 0 L 2.046875 0 L 1.390625 -1.078125 L 0.71875 0 L 0.21875 0 L 1.109375 -1.390625 L 0.21875 -2.796875 Z M 0.71875 -2.796875 "/></g></g></g><g fill="#ffffff" fill-opacity="1"><g transform="translate(91.666017, 86.168279)"><g/></g></g><g fill="#ffffff" fill-opacity="1"><g transform="translate(93.106581, 86.168279)"><g><path d="M 3.453125 -2.5625 L 3 -2.5625 C 2.957031 -2.738281 2.882812 -2.882812 2.78125 -3 C 2.6875 -3.113281 2.566406 -3.203125 2.421875 -3.265625 C 2.273438 -3.328125 2.117188 -3.359375 1.953125 -3.359375 C 1.722656 -3.359375 1.515625 -3.300781 1.328125 -3.1875 C 1.148438 -3.070312 1.007812 -2.898438 0.90625 -2.671875 C 0.800781 -2.453125 0.75 -2.179688 0.75 -1.859375 C 0.75 -1.535156 0.800781 -1.265625 0.90625 -1.046875 C 1.007812 -0.828125 1.148438 -0.660156 1.328125 -0.546875 C 1.515625 -0.429688 1.722656 -0.375 1.953125 -0.375 C 2.117188 -0.375 2.273438 -0.398438 2.421875 -0.453125 C 2.566406 -0.515625 2.6875 -0.601562 2.78125 -0.71875 C 2.882812 -0.84375 2.957031 -0.992188 3 -1.171875 L 3.453125 -1.171875 C 3.398438 -0.910156 3.300781 -0.6875 3.15625 -0.5 C 3.019531 -0.320312 2.847656 -0.1875 2.640625 -0.09375 C 2.429688 0 2.203125 0.046875 1.953125 0.046875 C 1.628906 0.046875 1.34375 -0.03125 1.09375 -0.1875 C 0.851562 -0.34375 0.660156 -0.5625 0.515625 -0.84375 C 0.378906 -1.132812 0.3125 -1.472656 0.3125 -1.859375 C 0.3125 -2.253906 0.378906 -2.59375 0.515625 -2.875 C 0.660156 -3.164062 0.851562 -3.390625 1.09375 -3.546875 C 1.34375 -3.703125 1.628906 -3.78125 1.953125 -3.78125 C 2.203125 -3.78125 2.429688 -3.726562 2.640625 -3.625 C 2.847656 -3.53125 3.019531 -3.390625 3.15625 -3.203125 C 3.300781 -3.023438 3.398438 -2.8125 3.453125 -2.5625 Z M 3.453125 -2.5625 "/></g></g></g><g fill="#ffffff" fill-opacity="1"><g transform="translate(96.831684, 86.168279)"><g><path d="M 1.53125 0.0625 C 1.28125 0.0625 1.054688 0.00390625 0.859375 -0.109375 C 0.671875 -0.234375 0.523438 -0.40625 0.421875 -0.625 C 0.316406 -0.84375 0.265625 -1.097656 0.265625 -1.390625 C 0.265625 -1.671875 0.316406 -1.921875 0.421875 -2.140625 C 0.523438 -2.359375 0.671875 -2.523438 0.859375 -2.640625 C 1.054688 -2.765625 1.28125 -2.828125 1.53125 -2.828125 C 1.78125 -2.828125 2 -2.765625 2.1875 -2.640625 C 2.382812 -2.523438 2.535156 -2.359375 2.640625 -2.140625 C 2.742188 -1.921875 2.796875 -1.671875 2.796875 -1.390625 C 2.796875 -1.097656 2.742188 -0.84375 2.640625 -0.625 C 2.535156 -0.40625 2.382812 -0.234375 2.1875 -0.109375 C 2 0.00390625 1.78125 0.0625 1.53125 0.0625 Z M 1.53125 -0.328125 C 1.71875 -0.328125 1.875 -0.375 2 -0.46875 C 2.125 -0.570312 2.210938 -0.703125 2.265625 -0.859375 C 2.328125 -1.023438 2.359375 -1.203125 2.359375 -1.390625 C 2.359375 -1.566406 2.328125 -1.734375 2.265625 -1.890625 C 2.210938 -2.054688 2.125 -2.191406 2 -2.296875 C 1.875 -2.398438 1.71875 -2.453125 1.53125 -2.453125 C 1.332031 -2.453125 1.171875 -2.398438 1.046875 -2.296875 C 0.929688 -2.191406 0.84375 -2.054688 0.78125 -1.890625 C 0.71875 -1.734375 0.6875 -1.566406 0.6875 -1.390625 C 0.6875 -1.203125 0.71875 -1.023438 0.78125 -0.859375 C 0.84375 -0.703125 0.929688 -0.570312 1.046875 -0.46875 C 1.171875 -0.375 1.332031 -0.328125 1.53125 -0.328125 Z M 1.53125 -0.328125 "/></g></g></g><g fill="#ffffff" fill-opacity="1"><g transform="translate(99.887431, 86.168279)"><g><path d="M 2.375 -2.171875 L 1.984375 -2.0625 C 1.953125 -2.15625 1.890625 -2.242188 1.796875 -2.328125 C 1.710938 -2.410156 1.578125 -2.453125 1.390625 -2.453125 C 1.210938 -2.453125 1.066406 -2.410156 0.953125 -2.328125 C 0.835938 -2.253906 0.78125 -2.160156 0.78125 -2.046875 C 0.78125 -1.941406 0.816406 -1.859375 0.890625 -1.796875 C 0.972656 -1.734375 1.097656 -1.679688 1.265625 -1.640625 L 1.6875 -1.53125 C 2.175781 -1.414062 2.421875 -1.164062 2.421875 -0.78125 C 2.421875 -0.613281 2.375 -0.46875 2.28125 -0.34375 C 2.195312 -0.21875 2.070312 -0.117188 1.90625 -0.046875 C 1.738281 0.0234375 1.546875 0.0625 1.328125 0.0625 C 1.046875 0.0625 0.8125 0 0.625 -0.125 C 0.4375 -0.25 0.316406 -0.429688 0.265625 -0.671875 L 0.671875 -0.765625 C 0.753906 -0.460938 0.972656 -0.3125 1.328125 -0.3125 C 1.523438 -0.3125 1.679688 -0.351562 1.796875 -0.4375 C 1.921875 -0.53125 1.984375 -0.632812 1.984375 -0.75 C 1.984375 -0.945312 1.84375 -1.082031 1.5625 -1.15625 L 1.09375 -1.265625 C 0.84375 -1.316406 0.65625 -1.40625 0.53125 -1.53125 C 0.414062 -1.664062 0.359375 -1.832031 0.359375 -2.03125 C 0.359375 -2.1875 0.398438 -2.320312 0.484375 -2.4375 C 0.578125 -2.5625 0.703125 -2.65625 0.859375 -2.71875 C 1.015625 -2.789062 1.191406 -2.828125 1.390625 -2.828125 C 1.660156 -2.828125 1.875 -2.765625 2.03125 -2.640625 C 2.1875 -2.523438 2.300781 -2.367188 2.375 -2.171875 Z M 2.375 -2.171875 "/></g></g></g><g fill="#ffffff" fill-opacity="1"><g transform="translate(102.564849, 86.168279)"><g><path d="M 1.609375 -2.796875 L 1.609375 -2.4375 L 1.015625 -2.4375 L 1.015625 -0.796875 C 1.015625 -0.679688 1.03125 -0.59375 1.0625 -0.53125 C 1.101562 -0.46875 1.148438 -0.425781 1.203125 -0.40625 C 1.253906 -0.382812 1.316406 -0.375 1.390625 -0.375 C 1.429688 -0.375 1.46875 -0.375 1.5 -0.375 C 1.53125 -0.382812 1.554688 -0.394531 1.578125 -0.40625 L 1.65625 -0.015625 C 1.625 -0.00390625 1.582031 0.00390625 1.53125 0.015625 C 1.476562 0.0234375 1.414062 0.03125 1.34375 0.03125 C 1.21875 0.03125 1.097656 0.00390625 0.984375 -0.046875 C 0.867188 -0.0976562 0.769531 -0.175781 0.6875 -0.28125 C 0.613281 -0.382812 0.578125 -0.519531 0.578125 -0.6875 L 0.578125 -2.4375 L 0.15625 -2.4375 L 0.15625 -2.796875 L 0.578125 -2.796875 L 0.578125 -3.46875 L 1.015625 -3.46875 L 1.015625 -2.796875 Z M 1.609375 -2.796875 "/></g></g></g><g fill="#ffffff" fill-opacity="1"><g transform="translate(104.4274, 86.168279)"><g/></g></g><g fill="#ffffff" fill-opacity="1"><g transform="translate(105.867965, 86.168279)"><g><path d="M 2.484375 -2.796875 C 2.460938 -2.984375 2.375 -3.125 2.21875 -3.21875 C 2.0625 -3.320312 1.875 -3.375 1.65625 -3.375 C 1.40625 -3.375 1.203125 -3.316406 1.046875 -3.203125 C 0.898438 -3.085938 0.828125 -2.941406 0.828125 -2.765625 C 0.828125 -2.628906 0.867188 -2.519531 0.953125 -2.4375 C 1.035156 -2.351562 1.128906 -2.285156 1.234375 -2.234375 C 1.347656 -2.191406 1.453125 -2.160156 1.546875 -2.140625 L 1.921875 -2.03125 C 2.023438 -2.007812 2.132812 -1.972656 2.25 -1.921875 C 2.375 -1.878906 2.488281 -1.820312 2.59375 -1.75 C 2.707031 -1.675781 2.800781 -1.578125 2.875 -1.453125 C 2.945312 -1.335938 2.984375 -1.191406 2.984375 -1.015625 C 2.984375 -0.804688 2.925781 -0.617188 2.8125 -0.453125 C 2.707031 -0.296875 2.554688 -0.171875 2.359375 -0.078125 C 2.160156 0.015625 1.914062 0.0625 1.625 0.0625 C 1.226562 0.0625 0.910156 -0.03125 0.671875 -0.21875 C 0.441406 -0.40625 0.316406 -0.648438 0.296875 -0.953125 L 0.75 -0.953125 C 0.769531 -0.816406 0.820312 -0.703125 0.90625 -0.609375 C 0.988281 -0.515625 1.09375 -0.445312 1.21875 -0.40625 C 1.34375 -0.363281 1.476562 -0.34375 1.625 -0.34375 C 1.800781 -0.34375 1.957031 -0.367188 2.09375 -0.421875 C 2.226562 -0.484375 2.335938 -0.5625 2.421875 -0.65625 C 2.503906 -0.757812 2.546875 -0.878906 2.546875 -1.015625 C 2.546875 -1.140625 2.507812 -1.238281 2.4375 -1.3125 C 2.363281 -1.394531 2.269531 -1.457031 2.15625 -1.5 C 2.050781 -1.550781 1.929688 -1.597656 1.796875 -1.640625 L 1.34375 -1.765625 C 1.050781 -1.847656 0.816406 -1.96875 0.640625 -2.125 C 0.472656 -2.28125 0.390625 -2.484375 0.390625 -2.734375 C 0.390625 -2.941406 0.445312 -3.125 0.5625 -3.28125 C 0.675781 -3.4375 0.828125 -3.554688 1.015625 -3.640625 C 1.210938 -3.734375 1.429688 -3.78125 1.671875 -3.78125 C 1.910156 -3.78125 2.125 -3.734375 2.3125 -3.640625 C 2.5 -3.554688 2.644531 -3.441406 2.75 -3.296875 C 2.863281 -3.148438 2.921875 -2.984375 2.921875 -2.796875 Z M 2.484375 -2.796875 "/></g></g></g><g fill="#ffffff" fill-opacity="1"><g transform="translate(109.134705, 86.168279)"><g><path d="M 1.21875 0.0625 C 1.039062 0.0625 0.878906 0.03125 0.734375 -0.03125 C 0.585938 -0.101562 0.472656 -0.203125 0.390625 -0.328125 C 0.304688 -0.453125 0.265625 -0.609375 0.265625 -0.796875 C 0.265625 -0.953125 0.296875 -1.078125 0.359375 -1.171875 C 0.421875 -1.273438 0.503906 -1.351562 0.609375 -1.40625 C 0.710938 -1.46875 0.828125 -1.515625 0.953125 -1.546875 C 1.085938 -1.578125 1.21875 -1.597656 1.34375 -1.609375 C 1.507812 -1.640625 1.644531 -1.660156 1.75 -1.671875 C 1.863281 -1.679688 1.941406 -1.695312 1.984375 -1.71875 C 2.035156 -1.75 2.0625 -1.800781 2.0625 -1.875 L 2.0625 -1.890625 C 2.0625 -2.066406 2.015625 -2.203125 1.921875 -2.296875 C 1.828125 -2.398438 1.679688 -2.453125 1.484375 -2.453125 C 1.273438 -2.453125 1.113281 -2.40625 1 -2.3125 C 0.882812 -2.226562 0.800781 -2.132812 0.75 -2.03125 L 0.34375 -2.171875 C 0.414062 -2.347656 0.507812 -2.484375 0.625 -2.578125 C 0.75 -2.671875 0.882812 -2.734375 1.03125 -2.765625 C 1.175781 -2.804688 1.320312 -2.828125 1.46875 -2.828125 C 1.550781 -2.828125 1.648438 -2.816406 1.765625 -2.796875 C 1.890625 -2.773438 2.003906 -2.734375 2.109375 -2.671875 C 2.222656 -2.609375 2.316406 -2.507812 2.390625 -2.375 C 2.460938 -2.238281 2.5 -2.0625 2.5 -1.84375 L 2.5 0 L 2.0625 0 L 2.0625 -0.375 L 2.046875 -0.375 C 2.015625 -0.3125 1.960938 -0.242188 1.890625 -0.171875 C 1.828125 -0.109375 1.738281 -0.0507812 1.625 0 C 1.507812 0.0390625 1.375 0.0625 1.21875 0.0625 Z M 1.28125 -0.3125 C 1.445312 -0.3125 1.585938 -0.34375 1.703125 -0.40625 C 1.828125 -0.476562 1.914062 -0.566406 1.96875 -0.671875 C 2.03125 -0.785156 2.0625 -0.898438 2.0625 -1.015625 L 2.0625 -1.40625 C 2.050781 -1.382812 2.015625 -1.363281 1.953125 -1.34375 C 1.890625 -1.320312 1.816406 -1.304688 1.734375 -1.296875 C 1.660156 -1.285156 1.582031 -1.273438 1.5 -1.265625 C 1.425781 -1.253906 1.367188 -1.25 1.328125 -1.25 C 1.210938 -1.226562 1.109375 -1.203125 1.015625 -1.171875 C 0.921875 -1.140625 0.84375 -1.09375 0.78125 -1.03125 C 0.71875 -0.96875 0.6875 -0.878906 0.6875 -0.765625 C 0.6875 -0.617188 0.742188 -0.503906 0.859375 -0.421875 C 0.972656 -0.347656 1.113281 -0.3125 1.28125 -0.3125 Z M 1.28125 -0.3125 "/></g></g></g><g fill="#ffffff" fill-opacity="1"><g transform="translate(112.023116, 86.168279)"><g><path d="M 2.671875 -2.796875 L 1.640625 0 L 1.203125 0 L 0.171875 -2.796875 L 0.640625 -2.796875 L 1.40625 -0.5625 L 1.4375 -0.5625 L 2.21875 -2.796875 Z M 2.671875 -2.796875 "/></g></g></g><g fill="#ffffff" fill-opacity="1"><g transform="translate(114.875151, 86.168279)"><g><path d="M 0.390625 0 L 0.390625 -2.796875 L 0.828125 -2.796875 L 0.828125 0 Z M 0.609375 -3.265625 C 0.523438 -3.265625 0.453125 -3.289062 0.390625 -3.34375 C 0.335938 -3.40625 0.3125 -3.472656 0.3125 -3.546875 C 0.3125 -3.628906 0.335938 -3.695312 0.390625 -3.75 C 0.453125 -3.8125 0.523438 -3.84375 0.609375 -3.84375 C 0.691406 -3.84375 0.765625 -3.8125 0.828125 -3.75 C 0.890625 -3.695312 0.921875 -3.628906 0.921875 -3.546875 C 0.921875 -3.472656 0.890625 -3.40625 0.828125 -3.34375 C 0.765625 -3.289062 0.691406 -3.265625 0.609375 -3.265625 Z M 0.609375 -3.265625 "/></g></g></g><g fill="#ffffff" fill-opacity="1"><g transform="translate(116.090172, 86.168279)"><g><path d="M 0.828125 -1.6875 L 0.828125 0 L 0.390625 0 L 0.390625 -2.796875 L 0.8125 -2.796875 L 0.8125 -2.359375 L 0.84375 -2.359375 C 0.90625 -2.503906 1.003906 -2.617188 1.140625 -2.703125 C 1.273438 -2.785156 1.445312 -2.828125 1.65625 -2.828125 C 1.9375 -2.828125 2.164062 -2.738281 2.34375 -2.5625 C 2.519531 -2.394531 2.609375 -2.132812 2.609375 -1.78125 L 2.609375 0 L 2.171875 0 L 2.171875 -1.75 C 2.171875 -1.96875 2.113281 -2.140625 2 -2.265625 C 1.882812 -2.390625 1.726562 -2.453125 1.53125 -2.453125 C 1.332031 -2.453125 1.164062 -2.382812 1.03125 -2.25 C 0.894531 -2.113281 0.828125 -1.925781 0.828125 -1.6875 Z M 0.828125 -1.6875 "/></g></g></g><g fill="#ffffff" fill-opacity="1"><g transform="translate(119.087717, 86.168279)"><g><path d="M 1.515625 1.109375 C 1.203125 1.109375 0.957031 1.050781 0.78125 0.9375 C 0.601562 0.820312 0.46875 0.691406 0.375 0.546875 L 0.71875 0.3125 C 0.757812 0.351562 0.804688 0.40625 0.859375 0.46875 C 0.921875 0.539062 1.003906 0.601562 1.109375 0.65625 C 1.210938 0.707031 1.347656 0.734375 1.515625 0.734375 C 1.742188 0.734375 1.929688 0.675781 2.078125 0.5625 C 2.222656 0.457031 2.296875 0.285156 2.296875 0.046875 L 2.296875 -0.515625 L 2.265625 -0.515625 C 2.234375 -0.460938 2.1875 -0.398438 2.125 -0.328125 C 2.070312 -0.253906 1.988281 -0.1875 1.875 -0.125 C 1.769531 -0.0703125 1.628906 -0.046875 1.453125 -0.046875 C 1.222656 -0.046875 1.019531 -0.0976562 0.84375 -0.203125 C 0.664062 -0.304688 0.523438 -0.457031 0.421875 -0.65625 C 0.316406 -0.863281 0.265625 -1.113281 0.265625 -1.40625 C 0.265625 -1.695312 0.3125 -1.945312 0.40625 -2.15625 C 0.507812 -2.375 0.648438 -2.539062 0.828125 -2.65625 C 1.015625 -2.769531 1.222656 -2.828125 1.453125 -2.828125 C 1.640625 -2.828125 1.785156 -2.796875 1.890625 -2.734375 C 1.992188 -2.679688 2.070312 -2.613281 2.125 -2.53125 C 2.1875 -2.457031 2.234375 -2.394531 2.265625 -2.34375 L 2.3125 -2.34375 L 2.3125 -2.796875 L 2.734375 -2.796875 L 2.734375 0.078125 C 2.734375 0.316406 2.675781 0.507812 2.5625 0.65625 C 2.457031 0.8125 2.3125 0.925781 2.125 1 C 1.945312 1.070312 1.742188 1.109375 1.515625 1.109375 Z M 1.5 -0.421875 C 1.757812 -0.421875 1.957031 -0.507812 2.09375 -0.6875 C 2.238281 -0.863281 2.3125 -1.109375 2.3125 -1.421875 C 2.3125 -1.722656 2.242188 -1.96875 2.109375 -2.15625 C 1.972656 -2.351562 1.769531 -2.453125 1.5 -2.453125 C 1.320312 -2.453125 1.171875 -2.40625 1.046875 -2.3125 C 0.929688 -2.21875 0.84375 -2.09375 0.78125 -1.9375 C 0.71875 -1.78125 0.6875 -1.609375 0.6875 -1.421875 C 0.6875 -1.128906 0.753906 -0.890625 0.890625 -0.703125 C 1.035156 -0.515625 1.238281 -0.421875 1.5 -0.421875 Z M 1.5 -0.421875 "/></g></g></g><g fill="#ffffff" fill-opacity="1"><g transform="translate(122.208947, 86.168279)"><g><path d="M 2.375 -2.171875 L 1.984375 -2.0625 C 1.953125 -2.15625 1.890625 -2.242188 1.796875 -2.328125 C 1.710938 -2.410156 1.578125 -2.453125 1.390625 -2.453125 C 1.210938 -2.453125 1.066406 -2.410156 0.953125 -2.328125 C 0.835938 -2.253906 0.78125 -2.160156 0.78125 -2.046875 C 0.78125 -1.941406 0.816406 -1.859375 0.890625 -1.796875 C 0.972656 -1.734375 1.097656 -1.679688 1.265625 -1.640625 L 1.6875 -1.53125 C 2.175781 -1.414062 2.421875 -1.164062 2.421875 -0.78125 C 2.421875 -0.613281 2.375 -0.46875 2.28125 -0.34375 C 2.195312 -0.21875 2.070312 -0.117188 1.90625 -0.046875 C 1.738281 0.0234375 1.546875 0.0625 1.328125 0.0625 C 1.046875 0.0625 0.8125 0 0.625 -0.125 C 0.4375 -0.25 0.316406 -0.429688 0.265625 -0.671875 L 0.671875 -0.765625 C 0.753906 -0.460938 0.972656 -0.3125 1.328125 -0.3125 C 1.523438 -0.3125 1.679688 -0.351562 1.796875 -0.4375 C 1.921875 -0.53125 1.984375 -0.632812 1.984375 -0.75 C 1.984375 -0.945312 1.84375 -1.082031 1.5625 -1.15625 L 1.09375 -1.265625 C 0.84375 -1.316406 0.65625 -1.40625 0.53125 -1.53125 C 0.414062 -1.664062 0.359375 -1.832031 0.359375 -2.03125 C 0.359375 -2.1875 0.398438 -2.320312 0.484375 -2.4375 C 0.578125 -2.5625 0.703125 -2.65625 0.859375 -2.71875 C 1.015625 -2.789062 1.191406 -2.828125 1.390625 -2.828125 C 1.660156 -2.828125 1.875 -2.765625 2.03125 -2.640625 C 2.1875 -2.523438 2.300781 -2.367188 2.375 -2.171875 Z M 2.375 -2.171875 "/></g></g></g><g fill="#ffffff" fill-opacity="1"><g transform="translate(72.223688, 24.556082)"><g><path d="M 3.234375 0.078125 C 2.691406 0.078125 2.210938 -0.03125 1.796875 -0.25 C 1.378906 -0.476562 1.050781 -0.816406 0.8125 -1.265625 C 0.582031 -1.722656 0.46875 -2.289062 0.46875 -2.96875 C 0.46875 -3.632812 0.582031 -4.191406 0.8125 -4.640625 C 1.050781 -5.097656 1.378906 -5.441406 1.796875 -5.671875 C 2.210938 -5.898438 2.691406 -6.015625 3.234375 -6.015625 C 3.804688 -6.015625 4.289062 -5.898438 4.6875 -5.671875 C 5.082031 -5.453125 5.367188 -5.113281 5.546875 -4.65625 L 4.6875 -4.125 L 4.59375 -4.140625 C 4.457031 -4.441406 4.28125 -4.660156 4.0625 -4.796875 C 3.851562 -4.929688 3.578125 -5 3.234375 -5 C 2.742188 -5 2.359375 -4.832031 2.078125 -4.5 C 1.804688 -4.175781 1.671875 -3.664062 1.671875 -2.96875 C 1.671875 -2.257812 1.804688 -1.738281 2.078125 -1.40625 C 2.359375 -1.082031 2.742188 -0.921875 3.234375 -0.921875 C 4.003906 -0.921875 4.476562 -1.296875 4.65625 -2.046875 L 4.75 -2.046875 L 5.609375 -1.59375 C 5.453125 -1.03125 5.175781 -0.609375 4.78125 -0.328125 C 4.394531 -0.0546875 3.878906 0.078125 3.234375 0.078125 Z M 3.234375 0.078125 "/></g></g><g transform="translate(78.037494, 24.556082)"><g><path d="M 3.234375 0.078125 C 2.691406 0.078125 2.210938 -0.03125 1.796875 -0.25 C 1.378906 -0.46875 1.050781 -0.800781 0.8125 -1.25 C 0.582031 -1.707031 0.46875 -2.28125 0.46875 -2.96875 C 0.46875 -3.644531 0.582031 -4.207031 0.8125 -4.65625 C 1.050781 -5.113281 1.378906 -5.453125 1.796875 -5.671875 C 2.210938 -5.898438 2.691406 -6.015625 3.234375 -6.015625 C 3.773438 -6.015625 4.25 -5.898438 4.65625 -5.671875 C 5.070312 -5.453125 5.394531 -5.113281 5.625 -4.65625 C 5.863281 -4.207031 5.984375 -3.644531 5.984375 -2.96875 C 5.984375 -2.28125 5.863281 -1.707031 5.625 -1.25 C 5.394531 -0.800781 5.070312 -0.46875 4.65625 -0.25 C 4.25 -0.03125 3.773438 0.078125 3.234375 0.078125 Z M 3.234375 -0.9375 C 3.734375 -0.9375 4.113281 -1.097656 4.375 -1.421875 C 4.644531 -1.742188 4.78125 -2.257812 4.78125 -2.96875 C 4.78125 -3.664062 4.644531 -4.175781 4.375 -4.5 C 4.113281 -4.832031 3.734375 -5 3.234375 -5 C 2.722656 -5 2.332031 -4.832031 2.0625 -4.5 C 1.800781 -4.175781 1.671875 -3.664062 1.671875 -2.96875 C 1.671875 -2.257812 1.800781 -1.742188 2.0625 -1.421875 C 2.332031 -1.097656 2.722656 -0.9375 3.234375 -0.9375 Z M 3.234375 -0.9375 "/></g></g><g transform="translate(84.495926, 24.556082)"><g><path d="M 1.90625 0 L 0.765625 0 L 0.765625 -5.921875 L 2.109375 -5.921875 L 4.484375 -2.109375 L 4.59375 -2.125 L 4.59375 -5.921875 L 5.71875 -5.921875 L 5.71875 0 L 4.515625 0 L 2 -4.078125 L 1.90625 -4.0625 Z M 1.90625 0 "/></g></g><g transform="translate(90.994902, 24.556082)"><g><path d="M 1.90625 0 L 0.765625 0 L 0.765625 -5.921875 L 2.109375 -5.921875 L 4.484375 -2.109375 L 4.59375 -2.125 L 4.59375 -5.921875 L 5.71875 -5.921875 L 5.71875 0 L 4.515625 0 L 2 -4.078125 L 1.90625 -4.0625 Z M 1.90625 0 "/></g></g><g transform="translate(97.493877, 24.556082)"><g><path d="M 1.9375 -2.59375 L 1.9375 -0.984375 L 4.765625 -0.984375 L 4.765625 0 L 0.765625 0 L 0.765625 -5.921875 L 4.703125 -5.921875 L 4.703125 -4.9375 L 1.9375 -4.9375 L 1.9375 -3.5625 L 4.359375 -3.5625 L 4.359375 -2.59375 Z M 1.9375 -2.59375 "/></g></g><g transform="translate(102.590079, 24.556082)"><g><path d="M 3.234375 0.078125 C 2.691406 0.078125 2.210938 -0.03125 1.796875 -0.25 C 1.378906 -0.476562 1.050781 -0.816406 0.8125 -1.265625 C 0.582031 -1.722656 0.46875 -2.289062 0.46875 -2.96875 C 0.46875 -3.632812 0.582031 -4.191406 0.8125 -4.640625 C 1.050781 -5.097656 1.378906 -5.441406 1.796875 -5.671875 C 2.210938 -5.898438 2.691406 -6.015625 3.234375 -6.015625 C 3.804688 -6.015625 4.289062 -5.898438 4.6875 -5.671875 C 5.082031 -5.453125 5.367188 -5.113281 5.546875 -4.65625 L 4.6875 -4.125 L 4.59375 -4.140625 C 4.457031 -4.441406 4.28125 -4.660156 4.0625 -4.796875 C 3.851562 -4.929688 3.578125 -5 3.234375 -5 C 2.742188 -5 2.359375 -4.832031 2.078125 -4.5 C 1.804688 -4.175781 1.671875 -3.664062 1.671875 -2.96875 C 1.671875 -2.257812 1.804688 -1.738281 2.078125 -1.40625 C 2.359375 -1.082031 2.742188 -0.921875 3.234375 -0.921875 C 4.003906 -0.921875 4.476562 -1.296875 4.65625 -2.046875 L 4.75 -2.046875 L 5.609375 -1.59375 C 5.453125 -1.03125 5.175781 -0.609375 4.78125 -0.328125 C 4.394531 -0.0546875 3.878906 0.078125 3.234375 0.078125 Z M 3.234375 0.078125 "/></g></g><g transform="translate(108.403885, 24.556082)"><g><path d="M 4.75 -5.921875 L 4.75 -4.9375 L 3.03125 -4.9375 L 3.03125 0 L 1.875 0 L 1.875 -4.9375 L 0.15625 -4.9375 L 0.15625 -5.921875 Z M 4.75 -5.921875 "/></g></g><g transform="translate(113.317645, 24.556082)"><g><path d="M 2.421875 0.078125 C 1.992188 0.078125 1.617188 0.00390625 1.296875 -0.140625 C 0.972656 -0.285156 0.722656 -0.492188 0.546875 -0.765625 C 0.378906 -1.035156 0.296875 -1.347656 0.296875 -1.703125 C 0.296875 -2.097656 0.390625 -2.421875 0.578125 -2.671875 C 0.773438 -2.929688 1.070312 -3.144531 1.46875 -3.3125 L 1.46875 -3.40625 C 1.289062 -3.625 1.160156 -3.820312 1.078125 -4 C 1.003906 -4.1875 0.96875 -4.390625 0.96875 -4.609375 C 0.96875 -4.890625 1.03125 -5.132812 1.15625 -5.34375 C 1.289062 -5.550781 1.476562 -5.710938 1.71875 -5.828125 C 1.96875 -5.953125 2.265625 -6.015625 2.609375 -6.015625 C 2.929688 -6.015625 3.207031 -5.957031 3.4375 -5.84375 C 3.664062 -5.738281 3.84375 -5.585938 3.96875 -5.390625 C 4.09375 -5.203125 4.15625 -4.984375 4.15625 -4.734375 C 4.15625 -4.390625 4.050781 -4.09375 3.84375 -3.84375 C 3.644531 -3.601562 3.332031 -3.398438 2.90625 -3.234375 L 2.90625 -3.15625 L 4 -1.703125 C 4.0625 -1.847656 4.101562 -2.007812 4.125 -2.1875 C 4.15625 -2.375 4.171875 -2.582031 4.171875 -2.8125 L 4.171875 -3.015625 L 5.109375 -3.015625 C 5.109375 -2.179688 4.945312 -1.507812 4.625 -1 C 4.695312 -0.945312 4.753906 -0.90625 4.796875 -0.875 C 4.847656 -0.851562 4.90625 -0.84375 4.96875 -0.84375 C 5.019531 -0.84375 5.0625 -0.84375 5.09375 -0.84375 C 5.132812 -0.851562 5.175781 -0.867188 5.21875 -0.890625 L 5.28125 -0.875 L 5.421875 -0.0625 C 5.367188 -0.0195312 5.296875 0.00390625 5.203125 0.015625 C 5.109375 0.0351562 5.003906 0.046875 4.890625 0.046875 C 4.691406 0.046875 4.515625 0.015625 4.359375 -0.046875 C 4.210938 -0.109375 4.070312 -0.207031 3.9375 -0.34375 L 3.859375 -0.34375 C 3.523438 -0.0625 3.046875 0.078125 2.421875 0.078125 Z M 2.421875 -3.796875 C 2.671875 -3.921875 2.851562 -4.046875 2.96875 -4.171875 C 3.082031 -4.304688 3.140625 -4.46875 3.140625 -4.65625 C 3.140625 -4.820312 3.085938 -4.945312 2.984375 -5.03125 C 2.890625 -5.125 2.757812 -5.171875 2.59375 -5.171875 C 2.425781 -5.171875 2.289062 -5.125 2.1875 -5.03125 C 2.09375 -4.9375 2.046875 -4.800781 2.046875 -4.625 C 2.046875 -4.5 2.070312 -4.378906 2.125 -4.265625 C 2.175781 -4.148438 2.273438 -3.992188 2.421875 -3.796875 Z M 2.5625 -0.875 C 2.820312 -0.875 3.046875 -0.925781 3.234375 -1.03125 L 1.90625 -2.703125 C 1.75 -2.597656 1.632812 -2.476562 1.5625 -2.34375 C 1.488281 -2.207031 1.453125 -2.039062 1.453125 -1.84375 C 1.453125 -1.65625 1.492188 -1.488281 1.578125 -1.34375 C 1.671875 -1.195312 1.800781 -1.082031 1.96875 -1 C 2.144531 -0.914062 2.34375 -0.875 2.5625 -0.875 Z M 2.5625 -0.875 "/></g></g></g><g fill="#ffffff" fill-opacity="1"><g transform="translate(118.86387, 24.556082)"><g><path d="M 3.109375 0.078125 C 2.617188 0.078125 2.179688 -0.03125 1.796875 -0.25 C 1.421875 -0.476562 1.125 -0.820312 0.90625 -1.28125 C 0.695312 -1.738281 0.59375 -2.300781 0.59375 -2.96875 C 0.59375 -3.625 0.707031 -4.179688 0.9375 -4.640625 C 1.164062 -5.097656 1.476562 -5.441406 1.875 -5.671875 C 2.28125 -5.898438 2.75 -6.015625 3.28125 -6.015625 C 3.851562 -6.015625 4.320312 -5.910156 4.6875 -5.703125 C 5.050781 -5.492188 5.304688 -5.1875 5.453125 -4.78125 L 5 -4.515625 L 4.90625 -4.515625 C 4.75 -4.828125 4.539062 -5.050781 4.28125 -5.1875 C 4.019531 -5.320312 3.6875 -5.390625 3.28125 -5.390625 C 1.988281 -5.390625 1.34375 -4.582031 1.34375 -2.96875 C 1.34375 -2.125 1.503906 -1.507812 1.828125 -1.125 C 2.148438 -0.738281 2.609375 -0.546875 3.203125 -0.546875 C 3.742188 -0.546875 4.144531 -0.664062 4.40625 -0.90625 C 4.675781 -1.15625 4.8125 -1.546875 4.8125 -2.078125 L 4.8125 -2.59375 L 3.125 -2.59375 L 3.125 -3.15625 L 5.5 -3.15625 L 5.5 0 L 4.84375 0 L 4.84375 -0.796875 L 4.765625 -0.8125 C 4.609375 -0.507812 4.390625 -0.285156 4.109375 -0.140625 C 3.828125 0.00390625 3.492188 0.078125 3.109375 0.078125 Z M 3.109375 0.078125 "/></g></g><g transform="translate(125.026342, 24.556082)"><g><path d="M 3.25 0.078125 C 2.738281 0.078125 2.28125 -0.03125 1.875 -0.25 C 1.476562 -0.46875 1.164062 -0.800781 0.9375 -1.25 C 0.707031 -1.707031 0.59375 -2.28125 0.59375 -2.96875 C 0.59375 -3.644531 0.707031 -4.207031 0.9375 -4.65625 C 1.164062 -5.113281 1.476562 -5.453125 1.875 -5.671875 C 2.28125 -5.898438 2.738281 -6.015625 3.25 -6.015625 C 3.757812 -6.015625 4.210938 -5.898438 4.609375 -5.671875 C 5.015625 -5.453125 5.332031 -5.113281 5.5625 -4.65625 C 5.789062 -4.207031 5.90625 -3.644531 5.90625 -2.96875 C 5.90625 -2.28125 5.789062 -1.707031 5.5625 -1.25 C 5.332031 -0.800781 5.015625 -0.46875 4.609375 -0.25 C 4.210938 -0.03125 3.757812 0.078125 3.25 0.078125 Z M 3.25 -0.5625 C 3.863281 -0.5625 4.332031 -0.753906 4.65625 -1.140625 C 4.988281 -1.523438 5.15625 -2.132812 5.15625 -2.96875 C 5.15625 -3.789062 4.988281 -4.394531 4.65625 -4.78125 C 4.332031 -5.164062 3.863281 -5.359375 3.25 -5.359375 C 1.976562 -5.359375 1.34375 -4.5625 1.34375 -2.96875 C 1.34375 -1.363281 1.976562 -0.5625 3.25 -0.5625 Z M 3.25 -0.5625 "/></g></g></g></svg>