<svg width="21" height="19" viewBox="0 0 21 19" fill="none" xmlns="http://www.w3.org/2000/svg">
<path d="M12.7088 18.8879C12.9236 18.9084 13.13 18.8279 13.2663 18.6574L14.5771 16.974L16.7859 16.9045C17.0863 16.8928 17.3442 16.6798 17.3928 16.3973L17.7324 14.3209L19.6501 13.283C19.9111 13.1418 20.0351 12.8395 19.9412 12.568L19.2373 10.5845L20.4025 8.8082C20.5634 8.56887 20.5211 8.26953 20.3054 8.07045L18.7274 6.6169L18.8976 4.51781C18.9215 4.23237 18.7243 3.97328 18.4363 3.8957L16.3246 3.31896L15.4751 1.40431C15.3573 1.14156 15.0654 0.974689 14.7712 1.03544L12.6117 1.45042L10.8882 0.135933C10.7726 0.045908 10.6425 -0.00312805 10.5 -0.00312805C10.3575 -0.00312805 10.2266 0.045908 10.1111 0.135933L8.38827 1.45042L6.22802 1.03544C5.93383 0.974689 5.64272 1.11887 5.52412 1.38089L4.67465 3.31896L2.56292 3.8957C2.27489 3.97621 2.07773 4.23237 2.10161 4.51781L2.27181 6.6169L0.694557 8.07045C0.478918 8.26953 0.43656 8.56887 0.597519 8.8082L1.76197 10.5845L1.05806 12.568C0.964108 12.8395 1.08887 13.1418 1.34918 13.283L3.26683 14.3209L3.60646 16.3973C3.65498 16.6798 3.91298 16.8928 4.21334 16.9045L6.4221 16.974L7.73288 18.6574C7.91155 18.885 8.23963 18.9662 8.50918 18.8418L10.5 17.9423L12.49 18.8418C12.557 18.874 12.6356 18.8828 12.7088 18.8879ZM13.6068 13.8598C12.8998 13.8598 12.3383 13.6548 11.9317 13.2603C11.5251 12.8651 11.3248 12.3521 11.3248 11.6919C11.3248 11.0288 11.5251 10.4952 11.9317 10.1C12.3383 9.70478 12.8998 9.50058 13.6068 9.50058C14.0858 9.50058 14.5163 9.58987 14.8682 9.77724C15.2202 9.96461 15.472 10.2383 15.6453 10.5845C15.8178 10.9307 15.9126 11.3054 15.9126 11.6919C15.9126 12.0754 15.8178 12.4296 15.6453 12.7758C15.472 13.1249 15.2202 13.3957 14.8682 13.5831C14.5163 13.7705 14.0858 13.8598 13.6068 13.8598ZM8.63087 13.791H7.39325L12.3445 5.09455H13.5582L8.63087 13.791ZM13.5821 12.8446C13.7762 12.8446 13.9156 12.77 14.0188 12.6375C14.1736 12.4296 14.2621 12.1039 14.2621 11.6458C14.2621 11.1869 14.1736 10.8612 14.0188 10.6533C13.9156 10.515 13.7762 10.4462 13.5821 10.4462C13.385 10.4462 13.2425 10.5179 13.1454 10.6533C12.9906 10.8612 12.9028 11.1869 12.9028 11.6458C12.9028 12.101 12.9906 12.4267 13.1454 12.6375C13.2425 12.77 13.385 12.8446 13.5821 12.8446ZM7.39325 9.38494C6.6801 9.38494 6.12483 9.19758 5.71819 8.8082C5.31156 8.41883 5.08745 7.91163 5.08745 7.26317C5.08745 6.61397 5.31156 6.08408 5.71819 5.69471C6.12483 5.30534 6.6801 5.11797 7.39325 5.11797C7.8692 5.11797 8.27583 5.21019 8.63087 5.39463C8.98282 5.57907 9.26161 5.83889 9.43181 6.17922C9.60201 6.51882 9.67441 6.88258 9.67441 7.26317C9.67441 7.64375 9.60201 7.98701 9.43181 8.32369C9.26161 8.66402 8.98282 8.92385 8.63087 9.10828C8.27583 9.29272 7.8692 9.38494 7.39325 9.38494ZM7.41712 8.43933C7.6112 8.43933 7.75676 8.3698 7.85456 8.23147C8.00859 8.02434 8.09716 7.69865 8.09716 7.23975C8.09716 6.78158 8.00859 6.45588 7.85456 6.24802C7.75676 6.11555 7.61428 6.04016 7.41712 6.04016C7.22305 6.04016 7.08365 6.11555 6.98045 6.24802C6.82565 6.45588 6.73786 6.78158 6.73786 7.23975C6.73786 7.69865 6.82565 8.0441 6.98045 8.25489C7.08365 8.38736 7.22305 8.43933 7.41712 8.43933Z" fill="#3F3F46"/>
</svg>
