<svg width="21" height="19" viewBox="0 0 21 19" fill="none" xmlns="http://www.w3.org/2000/svg">
<g clip-path="url(#clip0_583_542)">
<path d="M13.36 12.3711C13.36 12.3711 13.4218 12.3092 13.5454 12.1855C13.669 12.0618 13.8999 12 14.2382 12C14.5764 12 14.8692 12.1237 15.1163 12.3711C15.3635 12.6185 15.4871 12.9115 15.4871 13.25C15.4871 13.5885 15.3635 13.8815 15.1163 14.1289C14.8692 14.3763 14.5764 14.5 14.2382 14.5C13.8999 14.5 13.6072 14.3763 13.36 14.1289C13.1129 13.8815 12.9893 13.5885 12.9893 13.25C12.9893 12.9115 13.1129 12.6185 13.36 12.3711ZM7.62278 6.12109C7.62278 6.12109 7.68458 6.18294 7.80817 6.30664C7.93176 6.43034 7.99356 6.66146 7.99356 7C7.99356 7.33854 7.86997 7.63151 7.62278 7.87891C7.3756 8.1263 7.08288 8.25 6.74463 8.25C6.40638 8.25 6.11367 8.1263 5.86648 7.87891C5.6193 7.63151 5.49571 7.33854 5.49571 7C5.49571 6.66146 5.6193 6.36849 5.86648 6.12109C6.11367 5.8737 6.40638 5.75 6.74463 5.75C7.08288 5.75 7.3756 5.8737 7.62278 6.12109ZM7.11541 12.3711C7.11541 12.3711 7.1772 12.3092 7.3008 12.1855C7.42439 12.0618 7.65531 12 7.99356 12C8.33181 12 8.62453 12.1237 8.87171 12.3711C9.11889 12.6185 9.24249 12.9115 9.24249 13.25C9.24249 13.5885 9.11889 13.8815 8.87171 14.1289C8.62453 14.3763 8.33181 14.5 7.99356 14.5C7.65531 14.5 7.36259 14.3763 7.11541 14.1289C6.86823 13.8815 6.74463 13.5885 6.74463 13.25C6.74463 12.9115 6.86823 12.6185 7.11541 12.3711ZM10.8622 8.62109C10.8622 8.62109 10.924 8.55925 11.0476 8.43555C11.1712 8.31185 11.4021 8.25 11.7403 8.25C12.0786 8.25 12.3713 8.3737 12.6185 8.62109C12.8657 8.86849 12.9893 9.16146 12.9893 9.5C12.9893 9.83854 12.8657 10.1315 12.6185 10.3789C12.3713 10.6263 12.0786 10.75 11.7403 10.75C11.4021 10.75 11.1094 10.6263 10.8622 10.3789C10.615 10.1315 10.4914 9.83854 10.4914 9.5C10.4914 9.16146 10.615 8.86849 10.8622 8.62109ZM20.4438 9.5C20.5999 10.5938 20.4308 11.6354 19.9364 12.625L18.5704 15.3203C18.05 16.3099 17.2955 17.0521 16.3067 17.5469L13.6137 18.9531C12.8592 19.3177 12.0786 19.5 11.272 19.5C10.9858 19.5 10.7126 19.474 10.4524 19.4219L7.44715 18.9531C6.35434 18.7969 5.41765 18.3151 4.63707 17.5078L2.49048 15.3594C1.68388 14.5781 1.20252 13.6276 1.04641 12.5078L0.578058 9.53906C0.526019 9.27865 0.5 9.00521 0.5 8.71875C0.5 7.88542 0.682135 7.10417 1.04641 6.375L2.45145 3.67969C2.94581 2.6901 3.68736 1.94792 4.6761 1.45312L7.3691 0.046875C8.12366 -0.317709 8.90424 -0.5 9.71083 -0.5C9.97103 -0.5 10.2312 -0.473959 10.4914 -0.421875C10.5174 0.932291 11.0118 2.09115 11.9745 3.05469C12.9372 4.01823 14.1081 4.5 15.4871 4.5C15.4871 5.88021 15.9685 7.05208 16.9312 8.01562C17.8939 8.97917 19.0648 9.47396 20.4438 9.5ZM18.2582 11.7656C18.3623 11.5573 18.4403 11.3229 18.4923 11.0625C17.3475 10.724 16.3588 10.1185 15.5261 9.24609C14.6935 8.3737 14.1211 7.35156 13.8089 6.17969C12.664 5.86719 11.6493 5.29427 10.7646 4.46094C9.87996 3.6276 9.26851 2.63802 8.93025 1.49219C8.69608 1.54427 8.46191 1.6224 8.22773 1.72656L5.53474 3.09375C4.91027 3.43229 4.42892 3.91406 4.09066 4.53906L2.72465 7.23438C2.41242 7.88542 2.30834 8.5625 2.41242 9.26562L2.88077 12.2344C2.98484 12.9375 3.29708 13.5365 3.81746 14.0312L5.96405 16.1797C6.45842 16.7005 7.05686 17.013 7.75939 17.1172L10.7646 17.5859C10.9207 17.612 11.0899 17.625 11.272 17.625C11.7924 17.625 12.2867 17.5078 12.7551 17.2734L15.4481 15.9062C16.0726 15.5677 16.5539 15.0859 16.8922 14.4609L18.2582 11.7656Z" fill="#3F3F46"/>
</g>
<defs>
<clipPath id="clip0_583_542">
<rect width="20" height="18.8" fill="white" transform="matrix(1 0 0 -1 0.5 18.9)"/>
</clipPath>
</defs>
</svg>
