<svg width="62" height="60" viewBox="0 0 62 60" fill="none" xmlns="http://www.w3.org/2000/svg">
<path d="M20.7188 59.4828C20.5573 59.4828 20.3958 59.4567 20.25 59.3995C8.48438 54.9515 0.578125 43.514 0.578125 30.9359C0.578125 14.1599 14.224 0.514038 31 0.514038C47.776 0.514038 61.4219 14.1599 61.4219 30.9359C61.4219 43.514 53.5208 54.9515 41.7552 59.3995C41.4271 59.5245 41.0625 59.514 40.7396 59.3682C40.4219 59.2276 40.1719 58.9567 40.0469 58.6338L33.5 41.2901C33.2448 40.6078 33.5833 39.8474 34.2708 39.587C37.8542 38.238 40.2604 34.7588 40.2604 30.9359C40.2604 25.8317 36.1042 21.6755 31 21.6755C25.8958 21.6755 21.7396 25.8317 21.7396 30.9359C21.7396 34.7588 24.151 38.238 27.7292 39.587C28.4167 39.8474 28.7604 40.6078 28.5 41.2901L21.9531 58.6286C21.8281 58.9567 21.5833 59.2224 21.2604 59.3682C21.0885 59.4463 20.9062 59.4828 20.7188 59.4828Z" fill="#5072EB"/>
</svg>
