<svg width="64" height="64" viewBox="0 0 64 64" fill="none" xmlns="http://www.w3.org/2000/svg">
<rect x="0.5" y="0.5" width="63" height="63" fill="white"/>
<path d="M43.6937 41.1287H43.0344V28.9657C43.0341 28.8168 42.9739 28.6742 42.8678 28.5697L39.0041 24.7061V24.7062C38.8818 24.5777 38.6939 24.5361 38.5286 24.6006C38.3634 24.6653 38.2536 24.8233 38.2509 25.0008V41.1287H37.1087V21.596C37.1087 21.4266 36.9713 21.2893 36.802 21.2893H27.2008C27.0324 21.2907 26.8966 21.4276 26.8966 21.596V41.1287H25.7544V25.0008C25.7566 24.8204 25.6478 24.6574 25.4805 24.59C25.3133 24.5228 25.1219 24.5651 24.9986 24.6965L21.135 28.5601C21.0297 28.6649 20.9706 28.8076 20.9707 28.9561V41.129H20.3091C20.1393 41.129 20.0013 41.266 20 41.4356V42.4016C20 42.4834 20.0325 42.5621 20.0906 42.62C20.1486 42.678 20.2271 42.7106 20.3091 42.7106H43.6933C43.8626 42.7106 44 42.5734 44 42.4039V41.4381C44 41.2683 43.8631 41.1304 43.6933 41.129L43.6937 41.1287ZM30.0698 39.7957C30.0698 39.9638 29.9335 40.1 29.7656 40.1H28.7996C28.6317 40.1 28.4954 39.9638 28.4954 39.7957V38.8299C28.4947 38.7478 28.5272 38.6692 28.5853 38.6114C28.6436 38.5536 28.7226 38.5218 28.8045 38.5231H29.7705C29.8511 38.5245 29.9279 38.5577 29.984 38.6156C30.0403 38.6737 30.0711 38.7515 30.0698 38.8322L30.0698 39.7957ZM30.0698 37.195C30.0698 37.3631 29.9335 37.4994 29.7656 37.4994H28.7996C28.6317 37.4994 28.4954 37.3631 28.4954 37.195V36.2292C28.4954 36.0611 28.6317 35.925 28.7996 35.925H29.7656C29.8463 35.925 29.9236 35.957 29.9807 36.0141C30.0378 36.071 30.0698 36.1485 30.0698 36.2292V37.195ZM30.0698 34.5943V34.5945C30.0711 34.7616 29.9375 34.8984 29.7705 34.901H28.8045C28.6365 34.901 28.5003 34.7648 28.5003 34.5968V33.6309C28.5003 33.4629 28.6365 33.3267 28.8045 33.3267H29.7705C29.9355 33.3294 30.0686 33.4633 30.0698 33.6285V34.5943ZM30.0698 31.9913C30.0698 32.1594 29.9335 32.2956 29.7656 32.2956H28.7996C28.6317 32.2956 28.4954 32.1594 28.4954 31.9913V31.0376C28.4954 30.8695 28.6317 30.7332 28.7996 30.7332H29.7656C29.9335 30.7332 30.0698 30.8695 30.0698 31.0376V31.9913ZM30.0698 29.3906C30.0698 29.5587 29.9335 29.695 29.7656 29.695H28.7996C28.6317 29.695 28.4954 29.5587 28.4954 29.3906V28.4248C28.4954 28.2567 28.6317 28.1206 28.7996 28.1206H29.7656C29.9335 28.1206 30.0698 28.2567 30.0698 28.4248V29.3906ZM30.0698 26.7899V26.7901C30.0698 26.958 29.9335 27.0943 29.7656 27.0943H28.7996C28.6317 27.0943 28.4954 26.958 28.4954 26.7901V25.8241C28.4954 25.6562 28.6317 25.5199 28.7996 25.5199H29.7656C29.9327 25.5199 30.0684 25.6547 30.0698 25.8217V26.7899ZM30.0698 24.1892V24.1894C30.0698 24.3573 29.9335 24.4936 29.7656 24.4936H28.7996C28.6317 24.4936 28.4954 24.3573 28.4954 24.1894V23.2234C28.4954 23.0555 28.6317 22.9192 28.7996 22.9192H29.7656C29.9327 22.9192 30.0684 23.054 30.0698 23.2211V24.1892ZM32.7889 39.7958C32.7889 39.8765 32.7567 39.954 32.6996 40.0111C32.6427 40.068 32.5652 40.1002 32.4845 40.1002H31.5187C31.3506 40.1002 31.2143 39.9639 31.2143 39.7958V38.83C31.2138 38.7488 31.2455 38.6708 31.3026 38.6132C31.3599 38.5556 31.4375 38.5233 31.5187 38.5233H32.4845C32.6526 38.5233 32.7889 38.6595 32.7889 38.8276V39.7958ZM32.7889 37.1951C32.7889 37.2758 32.7567 37.3533 32.6996 37.4104C32.6427 37.4673 32.5652 37.4995 32.4845 37.4995H31.5187C31.3506 37.4995 31.2143 37.3632 31.2143 37.1951V36.2293C31.2143 36.1486 31.2465 36.0711 31.3036 36.0142C31.3606 35.9571 31.438 35.9251 31.5187 35.9251H32.4845C32.6526 35.9251 32.7889 36.0612 32.7889 36.2293V37.1951ZM32.7889 34.5944V34.5946C32.7894 34.6756 32.7577 34.7536 32.7006 34.8112C32.6434 34.8688 32.5657 34.9012 32.4845 34.9012H31.5187C31.3506 34.9012 31.2143 34.7649 31.2143 34.597V33.631C31.2132 33.5495 31.2447 33.471 31.3018 33.4129C31.359 33.3547 31.4372 33.3219 31.5187 33.3219H32.4845C32.6526 33.3219 32.7889 33.4582 32.7889 33.6263L32.7889 34.5944ZM32.7889 31.9914C32.7889 32.1595 32.6526 32.2958 32.4845 32.2958H31.5187C31.3506 32.2958 31.2143 32.1595 31.2143 31.9914V31.0377C31.2111 30.9548 31.2418 30.8743 31.2992 30.8147C31.3565 30.7549 31.4358 30.7212 31.5187 30.7214H32.4845C32.5674 30.7212 32.6467 30.7549 32.704 30.8147C32.7614 30.8743 32.7921 30.9548 32.7889 31.0377V31.9914ZM32.7889 29.3907C32.7876 29.5578 32.6516 29.6926 32.4845 29.6926H31.5187C31.3506 29.6926 31.2143 29.5565 31.2143 29.3884V28.4226C31.2143 28.3419 31.2465 28.2644 31.3036 28.2073C31.3606 28.1504 31.438 28.1182 31.5187 28.1182H32.4845C32.6526 28.1182 32.7889 28.2545 32.7889 28.4226V29.3907ZM32.7889 26.79V26.7902C32.7876 26.9573 32.6516 27.0921 32.4845 27.0921H31.5187C31.3506 27.0921 31.2143 26.9558 31.2143 26.7877V25.8219C31.2143 25.6538 31.3506 25.5177 31.5187 25.5177H32.4845C32.6526 25.5177 32.7889 25.6538 32.7889 25.8219V26.79ZM32.7889 24.1894V24.1895C32.7862 24.3556 32.6508 24.4889 32.4845 24.4889H31.5187C31.3506 24.4889 31.2143 24.3528 31.2143 24.1847V23.2188C31.2143 23.0507 31.3506 22.9145 31.5187 22.9145H32.4845C32.6526 22.9145 32.7889 23.0507 32.7889 23.2188V24.1894ZM35.5029 39.7959C35.5029 39.964 35.3667 40.1003 35.1987 40.1003H34.2328C34.0667 40.0976 33.9334 39.9622 33.9334 39.7959V38.8301C33.9321 38.663 34.0657 38.5261 34.2328 38.5234H35.1987C35.3667 38.5234 35.5029 38.6597 35.5029 38.8278V39.7959ZM35.5029 37.1953C35.5029 37.3634 35.3667 37.4996 35.1987 37.4996H34.2328C34.0657 37.4969 33.9321 37.36 33.9334 37.1929V36.2271C33.9334 36.059 34.0697 35.9227 34.2376 35.9227H35.2036C35.3707 35.9254 35.5043 36.0624 35.5029 36.2294V37.1953ZM35.5029 34.5946V34.5947C35.5036 34.6758 35.4718 34.7537 35.4147 34.8114C35.3576 34.869 35.2798 34.9013 35.1987 34.9013H34.2328C34.1521 34.9001 34.0753 34.8668 34.0192 34.8088C33.9629 34.7509 33.9321 34.6729 33.9334 34.5922V33.6264C33.9334 33.4583 34.0697 33.322 34.2376 33.322H35.2036C35.3716 33.322 35.5078 33.4583 35.5078 33.6264L35.5029 34.5946ZM35.5029 31.9915C35.5029 32.1596 35.3667 32.2959 35.1987 32.2959H34.2328C34.0657 32.2932 33.9321 32.1563 33.9334 31.9892V31.0378C33.9334 30.8697 34.0697 30.7335 34.2376 30.7335H35.2036C35.3697 30.7362 35.5029 30.8716 35.5029 31.0378V31.9915ZM35.5029 29.3909C35.5029 29.559 35.3667 29.6952 35.1987 29.6952H34.2328C34.0657 29.6925 33.9321 29.5556 33.9334 29.3885V28.4227C33.9334 28.2546 34.0697 28.1183 34.2376 28.1183H35.2036C35.3716 28.1183 35.5078 28.2546 35.5078 28.4227L35.5029 29.3909ZM35.5029 26.7902V26.7903C35.5029 26.9583 35.3667 27.0945 35.1987 27.0945H34.2328C34.1521 27.0932 34.0753 27.06 34.0192 27.0021C33.9629 26.944 33.9321 26.8661 33.9334 26.7855V25.8197C33.9334 25.6516 34.0697 25.5153 34.2376 25.5153H35.2036C35.3707 25.518 35.5043 25.6549 35.5029 25.822V26.7902ZM35.5029 24.1895V24.1897C35.5029 24.3576 35.3667 24.4939 35.1987 24.4939H34.2328C34.1521 24.4925 34.0753 24.4593 34.0192 24.4014C33.9629 24.3435 33.9321 24.2655 33.9334 24.1848V23.219C33.9334 23.0509 34.0697 22.9146 34.2376 22.9146H35.2036C35.3716 22.9146 35.5078 23.0509 35.5078 23.219L35.5029 24.1895Z" fill="#5072EB"/>
<rect x="0.5" y="0.5" width="63" height="63" stroke="#D7DCE5"/>
</svg>
