<svg width="68" height="51" viewBox="0 0 68 51" fill="none" xmlns="http://www.w3.org/2000/svg">
<path d="M58.6172 35.7031C56.7005 34.9271 54.888 34.1875 54.362 33.0625C54.2787 32.0625 54.2891 31.2656 54.2943 30.3542L54.2995 30.0469C55.1484 29.0885 55.8984 27.3594 56.2109 25.8542C56.9037 25.4167 57.6797 24.474 57.9141 22.4427C58.013 21.5573 57.8672 20.7396 57.513 20.1302C58.2839 18.1198 58.2839 14.8177 57.0287 12.276C56.0026 10.2135 54.3099 8.96875 52.1901 8.69792L51.612 7.39583C51.4037 6.91667 50.9297 6.61458 50.4037 6.61458C48.3984 6.61458 46.5859 6.86458 44.9766 7.35937C44.9193 7.22396 44.8776 7.08333 44.8151 6.95312C43.4974 4.26562 41.2578 2.68229 38.4505 2.41667L37.612 0.729167C37.3828 0.281249 36.9297 0 36.4297 0C30.7839 0 26.3359 2.07292 23.888 5.83854C23.4453 6.52083 23.1016 7.24479 22.8151 7.99479L22.5026 7.35417C22.2787 6.90104 21.8203 6.61458 21.3151 6.61458C16.9349 6.61458 13.4609 8.24479 11.5234 11.2135C9.87761 13.7188 9.5599 16.9427 10.6172 19.9688C10.2578 20.5469 10.0182 21.3438 10.1328 22.3333C10.3776 24.3698 11.1537 25.3177 11.8516 25.7552C12.1745 27.25 12.9505 29.0052 13.8151 29.974L13.8203 30.2604C13.8255 31.1875 13.8307 31.9896 13.7474 33.0052C13.2214 34.1406 11.388 34.8802 9.45053 35.6667C5.98178 37.0677 1.23699 38.9896 0.888028 44.8958C0.867195 45.2604 0.997403 45.6198 1.25261 45.8802C1.4974 46.1458 1.84636 46.2969 2.21094 46.2969H10.5182C10.3047 47.0781 10.1589 47.9271 10.1068 48.8646C10.0807 49.224 10.2109 49.5833 10.4609 49.8438C10.7109 50.1146 11.0651 50.2656 11.4245 50.2656H56.6641C57.0287 50.2656 57.3776 50.1146 57.6276 49.849C57.8776 49.5833 58.0026 49.224 57.9818 48.8646C57.9349 47.9271 57.7891 47.0781 57.5703 46.2969H65.7891C66.1537 46.2969 66.5026 46.1458 66.7526 45.8802C67.0026 45.6198 67.1328 45.2604 67.112 44.8958C66.7682 39.0104 62.0599 37.1042 58.6172 35.7031ZM12.9297 47.6198C12.9297 39.9323 26.1484 39.6146 28.2318 33.9531C28.4089 32.0156 28.3412 30.6615 28.3412 28.8906C27.4714 28.4271 25.8568 25.4948 25.5912 23.0156C24.9089 22.9635 23.8307 22.2865 23.513 19.6302C23.3464 18.2031 24.0234 17.3958 24.4297 17.151C24.1224 14.5573 24.2422 11.9375 25.0495 9.63542C25.2891 8.80208 25.6328 8.01042 26.1016 7.28125C27.6016 4.97396 30.138 3.48437 33.3724 2.91667C33.5287 2.88542 33.6849 2.85417 33.8464 2.82812C34.0078 2.80729 34.1797 2.79167 34.3464 2.77083C34.6849 2.72917 35.013 2.67187 35.3672 2.64583L35.388 2.68229C35.4662 2.67708 35.5391 2.66667 35.6172 2.66146L36.4349 4.29167C36.6589 4.74479 37.112 5.02604 37.6172 5.02604C39.8099 5.02604 41.4349 6.06771 42.4349 8.11458C42.513 8.27604 42.5703 8.45833 42.638 8.625C43.8984 11.3594 44.0912 15.0417 43.6589 17.151C44.2162 17.3021 44.7474 18.2031 44.5755 19.6302C44.263 22.2865 43.1797 22.9635 42.4974 23.0156C42.237 25.4948 40.6797 28.4271 39.8099 28.8906C39.8099 30.6615 39.7422 32.0156 39.9141 33.9531C42.0026 39.6146 55.1641 39.0208 55.1641 47.6198H12.9297Z" fill="#5072EB"/>
</svg>
