<svg width="64" height="64" viewBox="0 0 64 64" fill="none" xmlns="http://www.w3.org/2000/svg">
<rect x="0.5" y="0.5" width="63" height="63" fill="white"/>
<path d="M44 34.6695C44 32.7349 42.6776 31.1429 40.8898 30.7022C40.8165 27.6654 38.3429 25.241 35.3061 25.241C33.5184 25.241 31.9511 26.0736 30.9224 27.3715C30.3592 26.6368 29.453 26.147 28.449 26.147C26.7102 26.147 25.3143 27.543 25.3143 29.2817C25.3143 29.4286 25.3143 29.5756 25.3388 29.7225C25.0694 29.6734 24.8 29.649 24.5306 29.649C22.0324 29.6736 20 31.7063 20 34.2041C20 36.7021 22.0326 38.7592 24.5306 38.7592H39.9102C42.163 38.7348 43.9998 36.9225 43.9998 34.6694L44 34.6695Z" fill="#5072EB"/>
<rect x="0.5" y="0.5" width="63" height="63" stroke="#D7DCE5"/>
</svg>
