<svg width="64" height="64" viewBox="0 0 64 64" fill="none" xmlns="http://www.w3.org/2000/svg">
<rect x="0.5" y="0.5" width="63" height="63" fill="white"/>
<path d="M27.5916 43.4936L27.9718 43.6443L30.489 37.3252L30.1072 37.1744C28.9825 36.7252 28.0494 35.8981 27.4683 34.8353C26.8872 33.7725 26.6945 32.5405 26.9231 31.3509C27.1519 30.1614 27.7877 29.0887 28.7214 28.3173C29.6551 27.5459 30.8285 27.1239 32.0393 27.1239C33.2504 27.1239 34.4236 27.5459 35.3574 28.3173C36.2911 29.0888 36.927 30.1615 37.1557 31.3509C37.3844 32.5405 37.1916 33.7724 36.6105 34.8353C36.0294 35.898 35.0964 36.7252 33.9716 37.1744L33.5914 37.3269L36.13 43.6313L36.5102 43.4805C39.2118 42.3846 41.4221 40.3424 42.7283 37.7354C44.0344 35.1284 44.3471 32.1352 43.6077 29.3145C42.8684 26.494 41.1279 24.039 38.711 22.4082C36.2941 20.7774 33.3666 20.0824 30.4747 20.4531C27.5831 20.8238 24.9252 22.2347 22.9975 24.4222C21.0698 26.6097 20.0044 29.4244 20.0001 32.3402C19.9928 34.7482 20.7139 37.1022 22.0688 39.0928C23.4236 41.0833 25.3488 42.6175 27.5914 43.4934L27.5916 43.4936Z" fill="#000000"/>
</svg>
