<svg width="569" height="465" viewBox="0 0 569 465" fill="none" xmlns="http://www.w3.org/2000/svg">
<path fill-rule="evenodd" clip-rule="evenodd" d="M-298.118 84.1874V126.577C-288.433 118.092 -275.104 111.749 -263.485 106.432C-255.172 102.626 -246.547 99.8191 -237.615 97.9059C-221.439 94.441 -205.153 91.3995 -188.861 88.3578C-162.146 83.3695 -135.415 78.3785 -109.129 71.5102C-101.759 69.5836 -94.4875 67.4726 -87.2405 65.3686C-68.4713 59.9198 -49.8635 54.5177 -30.0964 52.4856C-8.97101 50.3171 11.9858 51.6961 32.5533 57.0331C51.309 61.9006 69.45 68.9891 87.5188 76.0496L87.5251 76.0522C92.1465 77.8578 96.7624 79.6615 101.383 81.4258C127.689 91.4689 154.151 101.24 181.218 109.028C206.183 116.209 229.916 127.594 250.009 144.212C266.343 157.721 279.942 174.042 293.476 190.283C295.067 192.194 296.658 194.103 298.253 196.007C318.484 220.162 339.833 243.131 364.034 263.376C377.665 274.777 391.565 285.931 405.493 296.966C413.808 303.555 422.069 310.186 428.751 318.504C438.59 330.755 445.12 345.268 451.536 359.528C452.01 360.582 452.484 361.636 452.959 362.687C455.494 368.304 457.992 373.942 460.49 379.582C464.88 389.488 469.272 399.4 473.868 409.214C482.466 427.58 489.805 445.698 495.984 464.477H569C563.034 443.898 556.249 423.66 548.133 403.65C544.605 394.949 541.215 386.121 537.816 377.268C528.228 352.3 518.562 327.128 505.504 304.024C492.977 281.867 473.951 270.394 452.958 257.733L452.937 257.72C452.044 257.182 451.148 256.641 450.248 256.098C444.708 252.749 439.092 249.588 433.484 246.43V246.429C422.511 240.253 411.569 234.092 401.292 226.588C387.402 216.445 374.607 204.868 363.084 192.087C351.856 179.634 342.141 165.357 332.394 151.031C314.147 124.215 295.786 97.231 267.174 81.7361C252.136 73.5927 235.958 70.3453 219.691 67.0798C209.925 65.1193 200.126 63.1523 190.521 60.1154C161.865 51.0583 134.095 39.6326 106.56 27.6242C104.145 26.5707 101.726 25.5077 99.3061 24.4433C80.9226 16.3601 62.3607 8.19857 42.8 3.55563C21.7639 -1.43665 0.377136 -1.02293 -20.6447 3.86249C-37.9059 7.87485 -53.6267 15.4063 -69.4016 22.9633C-79.0823 27.6013 -88.7837 32.2489 -98.8737 36.0986C-116.888 42.9734 -135.447 46.4763 -154.429 49.4309C-178.685 53.2062 -202.621 56.6539 -227.125 58.3226C-249.361 59.8361 -268.034 65.9076 -287.414 77.0644C-291.271 79.2848 -294.763 81.6844 -298.118 84.1874ZM-298.118 157.711V201.03C-294.933 198.429 -291.81 195.758 -288.838 192.946C-281.937 186.421 -272.331 181.449 -263.491 176.874C-261.64 175.917 -259.824 174.976 -258.073 174.043C-250.027 169.756 -241.72 166.1 -233.12 163.073C-210.587 155.14 -187.153 148.195 -163.849 142.926C-145.203 138.714 -126.271 137.937 -107.251 137.157C-106.275 137.116 -105.298 137.077 -104.321 137.036C-100.669 136.885 -97.0123 136.72 -93.3527 136.555L-93.342 136.554C-71.5558 135.572 -49.6616 134.585 -27.9241 136.363C-6.06683 138.152 15.0405 143.685 35.864 150.355C87.0744 166.748 138.038 187.839 182.745 218.142C203.2 232.003 221.076 248.898 237.326 267.444C246.433 277.841 254.812 288.912 263.19 299.983H263.191C274.941 315.509 286.691 331.034 300.45 344.696C301.51 345.749 302.572 346.794 303.63 347.836L303.662 347.866L303.675 347.879C310.836 354.927 317.872 361.853 323.531 370.31C330.767 381.122 336.52 392.947 342.234 404.692V404.693L342.235 404.694V404.695C344.112 408.552 345.984 412.4 347.903 416.201C351.009 422.352 354.565 428.231 358.12 434.108C361.163 439.139 364.206 444.17 366.967 449.37C369.56 454.259 371.763 459.315 373.697 464.477H446.489C444.46 458.32 442.185 452.247 439.546 446.315C436.394 439.234 432.685 432.429 428.977 425.624C426.752 421.543 424.528 417.462 422.424 413.321C418.676 405.941 415.212 398.259 411.727 390.532V390.532C402.132 369.254 392.382 347.633 376.119 331.021C371.992 326.806 367.64 322.82 363.288 318.834L363.287 318.833C359.122 315.019 354.956 311.203 350.985 307.185C337.514 293.557 324.554 279.324 311.654 265.156L311.507 264.994C305.83 258.759 300.221 252.452 294.611 246.143C281.589 231.499 268.56 216.845 254.647 203.063C217.894 166.659 173.489 145.69 125.512 127.751C99.4151 117.992 73.0744 108.435 46.5146 100.001C26.6322 93.6885 6.41809 88.9175 -14.4739 87.8259C-40.4432 86.4666 -66.5334 89.3706 -92.1251 93.4758C-97.9073 94.4031 -103.701 95.2772 -109.495 96.1514C-124.101 98.3556 -138.713 100.561 -153.164 103.616C-170.606 107.305 -187.884 111.849 -205.145 116.388C-211.945 118.177 -218.743 119.965 -225.549 121.699C-246.605 127.064 -265.164 135.803 -283.729 147.055C-288.927 150.203 -293.538 153.918 -298.118 157.711ZM-298.118 273.069V229.231C-286.723 219.804 -274.889 211.061 -261.966 203.749C-247.595 195.619 -232.627 190.074 -216.866 185.311C-214.192 184.502 -211.514 183.682 -208.833 182.861L-208.832 182.86H-208.831C-192.517 177.864 -176.049 172.82 -159.242 170.065C-140.174 166.937 -120.452 166.501 -101.005 166.071H-101.004L-101.001 166.07C-96.3282 165.967 -91.6718 165.864 -87.0441 165.724C-65.0128 165.057 -42.9915 165.208 -21.3126 169.635C30.7722 180.266 81.5283 202.5 127.558 228.681C148.55 240.619 167.853 254.765 184.86 271.972C198.217 285.484 209.709 300.451 221.201 315.42L221.202 315.421C229.868 326.708 238.533 337.994 248 348.658C251.704 352.832 255.751 356.678 259.795 360.522C264.405 364.904 269.012 369.283 273.11 374.144C283.142 386.051 290.478 401.018 297.102 414.955C301.289 423.765 306.203 431.999 311.141 440.274C313.297 443.883 315.455 447.5 317.561 451.178C320.022 455.477 322.126 459.927 323.98 464.477H250.793C249.129 460.963 247.258 457.519 245.123 454.163C236.622 440.791 229.17 427.037 221.891 412.963C215.956 401.482 208.923 391.901 199.402 383.237C187.084 372.022 177.261 359.45 167.125 346.254C149.755 323.637 131.436 301.296 108.657 283.896C87.1709 267.483 62.5446 255.398 38.2545 243.801C-5.85406 222.741 -53.3256 209.359 -102.28 210.539C-106.404 210.638 -110.561 210.704 -114.737 210.772C-134.492 211.091 -154.686 211.416 -173.922 215.164C-196.777 219.615 -220.864 226.291 -242.354 235.367C-253.622 240.124 -267.677 246.452 -276.748 254.669C-280.076 257.682 -283.557 260.597 -287.051 263.523L-287.053 263.525C-290.784 266.65 -294.53 269.788 -298.118 273.069ZM-298.118 301.777V378.369C-297.438 374.833 -296.885 371.246 -296.442 367.6C-296.275 366.233 -296.128 364.857 -295.98 363.478C-295.293 357.081 -294.599 350.615 -292.008 344.696C-288.375 336.387 -281.951 330.857 -275.42 325.237L-275.42 325.235C-273.601 323.67 -271.774 322.097 -269.996 320.455C-261.905 312.981 -253.478 307.142 -243.389 302.324C-234.175 297.924 -224.265 295.102 -214.455 292.308L-214.439 292.304C-212.782 291.832 -211.127 291.36 -209.478 290.882C-199.145 287.885 -188.798 284.987 -178.066 283.928C-154.09 281.56 -128.156 280.04 -104.193 283.139C-79.6357 286.316 -54.0864 295.456 -31.7207 305.971C-7.24579 317.475 17.3967 330.287 37.1945 349.192C49.0141 360.484 59.2717 373.383 69.1688 386.404C78.114 398.17 87.4413 407.517 97.9738 417.605C105.589 424.896 110.453 434.319 115.306 443.718C117.957 448.853 120.604 453.981 123.694 458.75C124.952 460.688 126.143 462.591 127.273 464.477H201.469C199.976 461.636 198.334 458.833 196.511 456.062C191.684 448.719 187.637 440.952 183.591 433.188C179.82 425.95 176.05 418.715 171.651 411.829C167.146 404.771 161.364 399.403 155.463 393.927C153.291 391.91 151.102 389.879 148.955 387.742C140.444 379.276 133.218 369.54 126.007 359.821C121.983 354.398 117.963 348.981 113.725 343.793C96.9607 323.265 78.351 305.336 55.7996 291.51C32.2901 277.098 7.19055 264.746 -18.7292 255.563C-41.7656 247.399 -64.9866 239.328 -89.512 237.738C-114.52 236.117 -140.515 237.411 -165.463 239.589C-188.396 241.591 -211.514 249.184 -233.17 256.77C-242.469 260.026 -251.143 264.433 -259.636 269.456C-270.264 275.74 -279.353 283.856 -288.589 292.104L-288.59 292.105L-289.505 292.922C-292.685 295.76 -295.57 298.684 -298.118 301.777ZM-298.118 464.477V425.332C-291.331 412.533 -287.557 399.842 -286.081 385.37C-285.969 384.266 -285.868 383.159 -285.768 382.053C-285.164 375.398 -284.56 368.742 -281.313 362.756C-276.922 354.665 -268.93 347.773 -261.856 341.674C-260.888 340.84 -259.937 340.02 -259.015 339.214C-251.314 332.48 -239.704 327.803 -230.119 324.614C-217.77 320.511 -204.97 316.418 -192.152 314.171C-183.686 312.688 -175.04 312.458 -166.438 312.229C-163.949 312.164 -161.464 312.097 -158.988 312.001C-133.573 311.014 -111.368 313.072 -87.1567 321.268C-60.7601 330.208 -34.332 341.858 -11.7175 358.589C-0.306152 367.034 9.50256 377.32 18.5451 388.287C21.598 391.99 24.5059 395.804 27.4092 399.613C34.3677 408.743 41.2984 417.838 50.1399 425.265C59.2708 432.932 64.5411 442.378 70.1197 452.377C71.4546 454.769 72.8066 457.192 74.2335 459.631C75.2088 461.299 76.2725 462.897 77.3676 464.477H3.38135C3.19745 464.172 3.01453 463.868 2.83331 463.565C-2.03223 455.462 -6.36334 448.25 -14.1035 441.832C-20.6699 436.391 -25.8275 429.556 -30.9789 422.729C-33.4387 419.47 -35.8967 416.212 -38.5062 413.108C-45.554 404.724 -53.2274 396.971 -62.105 390.589C-79.8205 377.85 -100.175 368.932 -120.699 362.106C-139.333 355.91 -156.509 354.825 -176.006 355.55C-194.943 356.251 -211.761 359.137 -229.851 365.278C-237.259 367.794 -245.567 371.43 -251.665 376.454C-257.373 381.154 -264.731 387.819 -268.047 394.703C-270.178 399.13 -270.455 403.966 -270.73 408.789C-270.789 409.817 -270.848 410.844 -270.924 411.867C-271.775 423.283 -274.574 432.987 -280.139 442.967C-281.049 444.6 -282.04 446.224 -283.038 447.859C-285.813 452.406 -288.639 457.033 -289.888 462.181C-290.074 462.943 -290.222 463.706 -290.338 464.477H-298.118Z" fill="white"/>
</svg>
