<svg width="26" height="8" viewBox="0 0 26 8" fill="none" xmlns="http://www.w3.org/2000/svg">
<circle cx="4" cy="4" r="4" fill="#5072EB"/>
<rect x="18" width="8" height="8" fill="#5072EB"/>
<path d="M15.8379 3.77986L13.8007 1.80284C13.5919 1.60022 13.2463 1.60022 13.0378 1.80284C12.829 2.00546 12.829 2.34091 13.0378 2.54321L14.1536 3.62607H10.5399C10.2446 3.62607 10 3.86375 10 4.14999C10 4.43656 10.2449 4.67391 10.5399 4.67391H14.1536L13.0378 5.75678C12.829 5.95939 12.829 6.29485 13.0378 6.49714C13.1458 6.60199 13.2827 6.65088 13.4193 6.65088C13.5561 6.65088 13.6927 6.60199 13.8007 6.49714L15.8379 4.52013C16.054 4.31751 16.054 3.98238 15.8379 3.77976V3.77986Z" fill="#5072EB"/>
</svg>
