<svg width="24" height="20" viewBox="0 0 24 20" fill="none" xmlns="http://www.w3.org/2000/svg">
<path d="M24 12.6271V12.8189C24 13.1546 23.8801 13.4663 23.6643 13.706C23.3048 12.8428 22.7054 12.0996 21.9141 11.596C21.1229 11.0925 20.1879 10.8528 19.2528 10.9008C18.3177 10.9488 17.4066 11.3084 16.6873 11.8839C15.9441 12.4833 15.4165 13.2745 15.1767 14.1857L1.36653 14.1855C1.00696 14.1855 0.671308 14.0417 0.407572 13.7779C0.143826 13.5142 0 13.1785 0 12.819C0.0239157 11.2365 0.647225 9.74987 1.75021 8.6471C2.85319 7.54411 4.33962 6.92082 5.89802 6.92082C5.89802 5.5541 6.3775 4.23555 7.21675 3.15649C8.056 2.07762 9.23069 1.3103 10.5494 0.974631C11.8681 0.638975 13.2827 0.734802 14.5295 1.26229C15.7763 1.78977 16.8313 2.72483 17.5026 3.92363C18.3418 3.97163 19.1328 4.33121 19.7084 4.93063C20.2838 5.53003 20.6195 6.34517 20.6195 7.18442V7.40017C21.6265 7.85575 22.4896 8.57504 23.089 9.5101C23.6883 10.4453 24 11.5242 24 12.6272L24 12.6271Z" fill="#5072EB"/>
<path d="M19.4923 11.5249C18.725 11.5249 17.9818 11.7407 17.3585 12.1723C16.7351 12.6038 16.2316 13.2032 15.9439 13.8986C15.6562 14.5938 15.5843 15.3851 15.7282 16.1283C15.872 16.8715 16.2556 17.5669 16.7832 18.0944C17.3346 18.6458 18.0059 19.0055 18.7493 19.1494C19.4925 19.2932 20.2837 19.2213 20.979 18.9336C21.6742 18.646 22.2977 18.1424 22.7052 17.5191C23.1367 16.8958 23.3526 16.1285 23.3526 15.3852C23.3526 14.3543 22.9451 13.3713 22.2258 12.6519C21.5064 11.9325 20.5234 11.5249 19.4923 11.5249ZM21.0029 16.392C21.0748 16.464 21.1228 16.5839 21.1228 16.7038C21.1228 16.8237 21.0748 16.9195 20.9789 16.9914C20.907 17.0634 20.7871 17.1114 20.6672 17.1114C20.5473 17.1114 20.4515 17.0634 20.3795 16.9675L19.4925 16.0086L18.6054 16.9675C18.5335 17.0394 18.4136 17.0874 18.3177 17.1114C18.1978 17.1114 18.102 17.0874 18.006 16.9914C17.9341 16.9195 17.8622 16.7996 17.8622 16.7038C17.8622 16.5839 17.8861 16.488 17.9821 16.392L18.9171 15.3612L17.9821 14.3303C17.9102 14.2584 17.8622 14.1384 17.8622 14.0185C17.8622 13.8986 17.9102 13.8028 18.006 13.7309C18.0779 13.659 18.1978 13.611 18.3177 13.611C18.4377 13.611 18.5335 13.659 18.6054 13.7548L19.4925 14.7137L20.3795 13.7548C20.4275 13.7068 20.4515 13.6829 20.5234 13.659C20.5714 13.635 20.6192 13.611 20.6913 13.611C20.7393 13.611 20.8112 13.611 20.8592 13.6349C20.9072 13.6588 20.955 13.6829 21.003 13.7307C21.051 13.7787 21.0749 13.8026 21.0989 13.8745C21.1228 13.9225 21.1469 13.9704 21.1469 14.0425C21.1469 14.0905 21.1469 14.1624 21.1229 14.2104C21.099 14.2584 21.0749 14.3062 21.0271 14.3542L20.092 15.3851L21.0029 16.392Z" fill="#5072EB"/>
</svg>
