<svg width="24" height="24" viewBox="0 0 24 24" fill="none" xmlns="http://www.w3.org/2000/svg">
<path d="M2.71031 9.50589H8.5458C9.07562 9.50589 9.50645 9.076 9.50645 8.54481L9.50622 2.71004C9.50622 1.64877 8.89756 1.39721 8.14703 2.1473L6.50588 3.78915L2.99815 0.281894C2.62322 -0.0939646 2.01482 -0.0939646 1.63985 0.281894L0.281547 1.63996C-0.0938488 2.01512 -0.0938488 2.62305 0.281547 2.99826L3.78857 6.50552L2.14742 8.14738C1.39731 8.89797 1.64821 9.50592 2.7104 9.50592L2.71031 9.50589Z" fill="#5072EB"/>
<path d="M23.7177 21.0013L20.2109 17.4933L21.8528 15.852C22.6026 15.1021 22.3503 14.4937 21.2895 14.4937L15.4541 14.4939C14.9233 14.4939 14.4932 14.9238 14.4932 15.4545V21.2902C14.4932 22.351 15.1014 22.6035 15.8517 21.853L17.4931 20.2116L21.0003 23.7179C21.3755 24.0937 21.9837 24.0937 22.3589 23.7179L23.7174 22.3601C24.0931 21.9844 24.0931 21.3765 23.7177 21.0013Z" fill="#5072EB"/>
<path d="M23.7174 1.6402L22.3589 0.281894C21.984 -0.0939646 21.3756 -0.0939646 21.0003 0.281894L17.4931 3.78868L15.8517 2.1473C15.1014 1.39671 14.4932 1.64878 14.4932 2.71004V8.54481C14.4932 9.07602 14.9233 9.50589 15.4541 9.50589H21.2897C22.3505 9.50589 22.6028 8.89794 21.8522 8.14758L20.2109 6.50573L23.7176 2.99847C24.0928 2.6233 24.0928 2.01558 23.7174 1.6402Z" fill="#5072EB"/>
<path d="M9.50648 21.2898V15.4543C9.50648 14.9236 9.07567 14.4937 8.54583 14.4937H2.70969C1.64818 14.4937 1.39757 15.1021 2.14671 15.852L3.78857 17.4933L0.281547 21.0013C-0.0938488 21.3765 -0.0938488 21.9844 0.281547 22.3603L1.64009 23.7182C2.01502 24.094 2.62342 24.094 2.99839 23.7182L6.50612 20.2114L8.14727 21.8527C8.89786 22.6031 9.50648 22.3513 9.50648 21.2898Z" fill="#5072EB"/>
</svg>
