<svg width="287" height="1095" viewBox="0 0 287 1095" fill="none" xmlns="http://www.w3.org/2000/svg">
<path fill-rule="evenodd" clip-rule="evenodd" d="M179.071 5.54538C169.886 2.11918 157.102 0 142.929 0C128.755 0 115.971 2.11918 106.787 5.54538C98.4187 8.66251 93.2427 12.6471 93.2427 16.7555C93.2427 20.8648 98.4187 24.8504 106.787 27.9675C115.971 31.3833 128.755 33.5072 142.929 33.5072C157.102 33.5072 169.887 31.389 179.071 27.9646C187.439 24.8474 192.615 20.8629 192.615 16.7525C192.615 12.6431 187.439 8.66077 179.071 5.54538ZM192.615 108.247V87.8763C189.127 90.6099 185.209 92.7475 181.023 94.1999C171.214 97.8548 157.741 100.115 142.928 100.115C128.115 100.115 114.642 97.8549 104.833 94.1999C100.647 92.7473 96.7288 90.6097 93.2412 87.8763V108.245C93.2412 112.356 98.4172 116.34 106.785 119.457C115.97 122.881 128.754 125 142.927 125C157.101 125 169.885 122.881 179.069 119.455C187.437 116.337 192.613 112.353 192.613 108.243L192.615 108.247ZM179.071 58.4616C169.886 61.886 157.102 64.0042 142.929 64.0042C128.755 64.0042 115.971 61.886 106.787 58.4616C98.4187 55.3435 93.2427 51.3589 93.2427 47.2495V26.8796C96.7303 29.6139 100.648 31.7507 104.835 33.2031C114.643 36.858 128.116 39.1179 142.929 39.1179C157.743 39.1179 171.215 36.8582 181.024 33.2031C185.211 31.7506 189.129 29.6139 192.616 26.8796V47.2495C192.616 51.3589 187.44 55.3425 179.072 58.4616H179.071ZM192.615 57.3783V77.7472C192.615 81.8576 187.439 85.8402 179.071 88.9593C169.886 92.3828 157.102 94.501 142.929 94.501C128.755 94.501 115.971 92.3827 106.787 88.9583C98.4187 85.8402 93.2427 81.8566 93.2427 77.7462V57.3783C96.7303 60.1119 100.648 62.2474 104.835 63.6998C114.643 67.3607 128.116 69.6165 142.929 69.6165C157.743 69.6165 171.215 67.3607 181.024 63.6998C185.211 62.2473 189.129 60.1116 192.616 57.3783H192.615ZM102.949 47.3871L104.853 48.204C106.277 48.8096 107.922 48.1468 108.528 46.7234C109.133 45.2999 108.47 43.6556 107.047 43.0508L105.142 42.234H105.141C103.718 41.6284 102.073 42.2911 101.467 43.7136C100.863 45.1361 101.526 46.7804 102.949 47.3861L102.949 47.3871ZM102.949 78.1367L104.853 78.9526C105.539 79.251 106.314 79.2646 107.009 78.9884C107.704 78.7132 108.259 78.1706 108.551 77.4836C108.844 76.7956 108.85 76.0204 108.568 75.3286C108.285 74.6367 107.737 74.0873 107.047 73.8015L105.142 72.9846H105.141C103.718 72.379 102.073 73.0418 101.467 74.4642C100.863 75.8877 101.526 77.5309 102.949 78.1367ZM102.949 108.886C102.265 108.596 101.725 108.045 101.447 107.356C101.17 106.668 101.177 105.897 101.467 105.214C102.073 103.791 103.718 103.129 105.141 103.734L107.046 104.551H107.047C107.737 104.836 108.285 105.386 108.568 106.078C108.85 106.769 108.844 107.545 108.551 108.233C108.259 108.92 107.704 109.462 107.009 109.738C106.314 110.014 105.539 110.001 104.853 109.701L102.949 108.886Z" fill="#9AA8BE"/>
<path d="M208.729 104.73H225.268V99.6414H213.818V65.5446H225.268V60.456H213.818V26.3591H225.268V21.2705H208.729V104.73Z" fill="#9AA8BE"/>
<path d="M262.673 51.1677H231.248V74.8319H262.673V51.1677ZM257.584 69.8701L236.337 69.8692V56.2564H257.584L257.584 69.8701Z" fill="#9AA8BE"/>
<path d="M262.673 89.3359H231.248V113H262.673V89.3359ZM257.584 108.038L236.337 108.037V94.4246H257.584L257.584 108.038Z" fill="#9AA8BE"/>
<path d="M262.673 13H231.248V36.6642H262.673V13ZM257.584 31.7024L236.337 31.7015V18.0886H257.584L257.584 31.7024Z" fill="#9AA8BE"/>
<path d="M77.6729 104.73H61.1331V99.6414H72.5831V65.5446H61.1331V60.456H72.5831V26.3591H61.1331V21.2705H77.6729V104.73Z" fill="#9AA8BE"/>
<path d="M23.7283 51.1677H55.1533V74.8319H23.7283V51.1677ZM28.8169 69.8701L50.0645 69.8692V56.2564H28.8176L28.8169 69.8701Z" fill="#9AA8BE"/>
<path d="M23.7283 89.3359H55.1533V113H23.7283V89.3359ZM28.8169 108.038L50.0645 108.037V94.4246H28.8176L28.8169 108.038Z" fill="#9AA8BE"/>
<path d="M23.7283 13H55.1533V36.6642H23.7283V13ZM28.8169 31.7024L50.0645 31.7015V18.0886H28.8176L28.8169 31.7024Z" fill="#9AA8BE"/>
<circle cx="129.2" cy="228" r="3" fill="#04192B"/>
<circle cx="143.2" cy="228" r="3" fill="#04192B"/>
<circle cx="157.2" cy="228" r="3" fill="#04192B"/>
<path d="M145.2 261C145.2 259.895 144.305 259 143.2 259C142.096 259 141.2 259.895 141.2 261H145.2ZM141.786 337.414C142.567 338.195 143.833 338.195 144.614 337.414L157.342 324.686C158.123 323.905 158.123 322.639 157.342 321.858C156.561 321.077 155.295 321.077 154.514 321.858L143.2 333.172L131.886 321.858C131.105 321.077 129.839 321.077 129.058 321.858C128.277 322.639 128.277 323.905 129.058 324.686L141.786 337.414ZM141.2 261V336H145.2V261H141.2Z" fill="#04192B"/>
<path d="M83.7586 510.838C83.7586 475.264 112.798 446.322 148.49 446.322C170.745 446.322 190.924 457.448 202.791 475.752L177.706 472.181C174.866 471.775 172.253 473.737 171.846 476.56C171.443 479.38 173.41 481.994 176.238 482.4L212.488 487.561C215.496 488.064 218.474 485.501 218.399 482.452V446.323C218.399 443.473 216.079 441.161 213.22 441.161C210.362 441.161 208.042 443.473 208.042 446.323V465.254C194 446.942 172.263 436 148.489 436C107.084 436 73.4004 469.572 73.4004 510.839C73.4004 513.688 75.7203 516 78.5789 516C81.4375 516 83.7574 513.688 83.7574 510.839L83.7586 510.838Z" fill="#47506D"/>
<path d="M218.221 506C215.362 506 213.042 508.312 213.042 511.162C213.042 546.736 184.003 575.678 148.311 575.678C126.056 575.678 105.876 564.552 94.0103 546.248L119.097 549.819C121.909 550.219 124.55 548.261 124.957 545.44C125.36 542.62 123.393 540.006 120.563 539.6L84.3131 534.439C81.2939 533.933 78.3323 536.501 78.4016 539.548V575.677C78.4016 578.526 80.7215 580.839 83.5801 580.839C86.4387 580.839 88.7586 578.526 88.7586 575.677V556.746C102.801 575.058 124.541 586 148.312 586C189.713 586 223.4 552.428 223.4 511.161C223.4 508.312 221.08 506 218.222 506L218.221 506Z" fill="#9AA8BE"/>
<circle cx="128.814" cy="619" r="3" fill="#04192B"/>
<circle cx="142.814" cy="619" r="3" fill="#04192B"/>
<circle cx="156.814" cy="619" r="3" fill="#04192B"/>
<path d="M144.614 720.586C143.833 719.805 142.567 719.805 141.786 720.586L129.058 733.314C128.277 734.095 128.277 735.361 129.058 736.142C129.839 736.923 131.105 736.923 131.886 736.142L143.2 724.828L154.514 736.142C155.295 736.923 156.561 736.923 157.342 736.142C158.123 735.361 158.123 734.095 157.342 733.314L144.614 720.586ZM141.786 798.414C142.567 799.195 143.833 799.195 144.614 798.414L157.342 785.686C158.123 784.905 158.123 783.639 157.342 782.858C156.561 782.077 155.295 782.077 154.514 782.858L143.2 794.172L131.886 782.858C131.105 782.077 129.839 782.077 129.058 782.858C128.277 783.639 128.277 784.905 129.058 785.686L141.786 798.414ZM141.2 722V797H145.2V722H141.2Z" fill="#04192B"/>
<circle cx="129.2" cy="830" r="3" fill="#04192B"/>
<circle cx="143.2" cy="830" r="3" fill="#04192B"/>
<circle cx="157.2" cy="830" r="3" fill="#04192B"/>
<path fill-rule="evenodd" clip-rule="evenodd" d="M179.977 945.374C170.793 941.947 158.009 939.828 143.835 939.828C129.661 939.828 116.877 941.947 107.693 945.374C99.325 948.491 94.149 952.475 94.149 956.584C94.149 960.693 99.325 964.679 107.693 967.796C116.877 971.211 129.661 973.335 143.835 973.335C158.009 973.335 170.793 971.217 179.977 967.793C188.345 964.676 193.521 960.691 193.521 956.581C193.521 952.471 188.345 948.489 179.977 945.374ZM193.521 1048.08V1027.7C190.033 1030.44 186.115 1032.58 181.929 1034.03C172.121 1037.68 158.647 1039.94 143.834 1039.94C129.021 1039.94 115.548 1037.68 105.739 1034.03C101.553 1032.58 97.6351 1030.44 94.1475 1027.7V1048.07C94.1475 1052.18 99.3235 1056.17 107.692 1059.29C116.876 1062.71 129.66 1064.83 143.833 1064.83C158.007 1064.83 170.792 1062.71 179.975 1059.28C188.343 1056.17 193.519 1052.18 193.519 1048.07L193.521 1048.08ZM179.977 998.29C170.793 1001.71 158.009 1003.83 143.835 1003.83C129.661 1003.83 116.877 1001.71 107.693 998.29C99.325 995.172 94.149 991.187 94.149 987.078V966.708C97.6366 969.442 101.555 971.579 105.741 973.031C115.549 976.686 129.023 978.946 143.836 978.946C158.649 978.946 172.121 976.686 181.93 973.031C186.117 971.579 190.035 969.442 193.522 966.708V987.078C193.522 991.187 188.346 995.171 179.978 998.29H179.977ZM193.521 997.206V1017.58C193.521 1021.69 188.345 1025.67 179.977 1028.79C170.793 1032.21 158.009 1034.33 143.835 1034.33C129.661 1034.33 116.877 1032.21 107.693 1028.79C99.325 1025.67 94.149 1021.68 94.149 1017.57V997.206C97.6366 999.94 101.555 1002.08 105.741 1003.53C115.549 1007.19 129.023 1009.44 143.836 1009.44C158.649 1009.44 172.121 1007.19 181.93 1003.53C186.117 1002.08 190.035 999.94 193.522 997.206H193.521ZM103.855 987.215L105.759 988.032C107.183 988.638 108.828 987.975 109.434 986.551C110.039 985.128 109.376 983.484 107.953 982.879L106.048 982.062H106.047C104.624 981.456 102.98 982.119 102.374 983.542C101.769 984.964 102.432 986.609 103.855 987.214L103.855 987.215ZM103.855 1017.96L105.759 1018.78C106.445 1019.08 107.22 1019.09 107.915 1018.82C108.61 1018.54 109.166 1018 109.457 1017.31C109.75 1016.62 109.756 1015.85 109.474 1015.16C109.191 1014.46 108.643 1013.92 107.953 1013.63L106.048 1012.81H106.047C104.624 1012.21 102.98 1012.87 102.374 1014.29C101.769 1015.72 102.432 1017.36 103.855 1017.96ZM103.855 1048.71C103.171 1048.42 102.632 1047.87 102.353 1047.18C102.076 1046.5 102.083 1045.73 102.374 1045.04C102.979 1043.62 104.624 1042.96 106.047 1043.56L107.952 1044.38H107.953C108.643 1044.66 109.191 1045.21 109.474 1045.91C109.756 1046.6 109.75 1047.37 109.457 1048.06C109.166 1048.75 108.61 1049.29 107.915 1049.57C107.22 1049.84 106.445 1049.83 105.76 1049.53L103.855 1048.71Z" fill="#47506D"/>
<path d="M6.56598 1048.2C8.8304 1048.18 10.9286 1047.01 12.1202 1045.08C13.3127 1043.15 13.4322 1040.75 12.4362 1038.72L21.9804 1030.12C23.7963 1031.27 26.0575 1031.45 28.0362 1030.62L39.0749 1044.39C38.1148 1045.74 37.7021 1047.41 37.9204 1049.06C38.1398 1050.71 38.9728 1052.21 40.2543 1053.27C41.5348 1054.33 43.1692 1054.86 44.8276 1054.77C46.4871 1054.67 48.0489 1053.95 49.2002 1052.75C50.3515 1051.55 51.0063 1049.96 51.0346 1048.3C51.0628 1046.64 50.4611 1045.03 49.3512 1043.79L61.5889 1024.28C63.6535 1024.87 65.8712 1024.41 67.5394 1023.06C69.2075 1021.72 70.1198 1019.64 69.9873 1017.5C69.8537 1015.36 68.6916 1013.42 66.8692 1012.29C65.0468 1011.16 62.79 1010.98 60.8134 1011.82C58.8379 1012.65 57.3881 1014.39 56.9232 1016.48C56.4584 1018.57 57.0373 1020.76 58.4752 1022.35L46.3309 1041.88C44.8821 1041.45 43.3323 1041.54 41.9399 1042.13L30.9013 1028.43C31.8114 1027.15 32.2404 1025.6 32.1123 1024.04C31.983 1022.48 31.3042 1021.02 30.1975 1019.91C29.0908 1018.81 27.6269 1018.13 26.0682 1018.01C24.5087 1017.88 22.9557 1018.31 21.6837 1019.22C20.413 1020.13 19.5073 1021.47 19.1282 1022.98C18.7481 1024.5 18.9208 1026.11 19.6126 1027.51L10.0684 1036.1L10.0695 1036.1C8.31657 1035.01 6.15203 1034.8 4.22445 1035.54C2.2967 1036.28 0.828304 1037.89 0.256952 1039.87C-0.314317 1041.85 0.0788419 1043.99 1.31803 1045.64C2.55829 1047.3 4.50008 1048.27 6.56585 1048.28L6.56598 1048.2ZM63.4565 1014.97C65.0899 1014.89 66.4801 1016.15 66.5627 1017.79C66.6441 1019.42 65.3854 1020.81 63.752 1020.89H63.4566C61.8134 1020.89 60.482 1019.56 60.482 1017.92C60.482 1016.27 61.8135 1014.94 63.4566 1014.94L63.4565 1014.97ZM41.6595 1047.5H41.6584C41.9571 1046.28 42.9932 1045.38 44.2432 1045.26H44.4767C45.6985 1045.24 46.8031 1045.98 47.2634 1047.11C47.3927 1047.44 47.4611 1047.79 47.4665 1048.14C47.4665 1049.78 46.135 1051.11 44.4919 1051.11C42.8498 1051.11 41.5183 1049.78 41.5183 1048.14C41.5259 1047.92 41.5574 1047.71 41.6117 1047.5H41.6595ZM25.5282 1021.57C27.1703 1021.57 28.5017 1022.91 28.5017 1024.55C28.5017 1026.19 27.1702 1027.52 25.5282 1027.52C23.9762 1027.51 22.6915 1026.31 22.5697 1024.77V1024.55V1024.55C22.5697 1022.91 23.8925 1021.58 25.5282 1021.57ZM6.56459 1038.7C8.11655 1038.71 9.40134 1039.91 9.52312 1041.46V1041.68C9.52312 1042.88 8.79871 1043.96 7.68659 1044.42C6.57555 1044.88 5.29725 1044.63 4.44587 1043.78C3.59548 1042.93 3.34133 1041.65 3.80184 1040.54C4.26231 1039.43 5.34621 1038.7 6.54956 1038.7L6.56459 1038.7Z" fill="#47506D"/>
<path d="M214.835 966H238.18V975.378H214.835V966Z" fill="#47506D"/>
<path d="M214.835 979.543H248.98V988.922H214.835V979.543Z" fill="#47506D"/>
<path d="M214.835 993.089H242.146V1002.47H214.835V993.089Z" fill="#47506D"/>
<path d="M214.835 1006.62H264.835V1016H214.835V1006.62Z" fill="#47506D"/>
<path d="M200.662 1085.64H214.952V1094.21H200.662V1085.64Z" fill="#47506D"/>
<path d="M224.479 1081.83H238.768V1094.22H224.479V1081.83Z" fill="#47506D"/>
<path d="M248.295 1075.16H262.585V1094.22H248.295V1075.16Z" fill="#47506D"/>
<path d="M272.11 1059.92H286.4V1094.22H272.11V1059.92Z" fill="#47506D"/>
<path d="M57.335 960C64.7791 960 70.835 953.944 70.835 946.5C70.8356 939.056 64.7798 933 57.335 933C49.8908 933 43.835 939.056 43.835 946.5C43.835 953.944 49.8908 960 57.335 960ZM57.335 936.857V946.5H66.9781C66.9781 951.825 62.6611 956.143 57.335 956.143C52.0096 956.143 47.6919 951.825 47.6919 946.5C47.6919 941.175 52.0096 936.857 57.335 936.857Z" fill="#47506D"/>
</svg>
