<svg width="24" height="24" viewBox="0 0 24 25" fill="none" xmlns="http://www.w3.org/2000/svg">
<path d="M0.857143 5.29374C1.33049 5.29374 1.71429 4.91032 1.71429 4.43659V1.86516H4.28571C4.75906 1.86516 5.14286 1.48175 5.14286 1.00802C5.14286 0.534296 4.75906 0.150879 4.28571 0.150879H0.857143C0.383799 0.150879 0 0.534296 0 1.00802V4.43659C0 4.91032 0.383799 5.29374 0.857143 5.29374Z" fill="#5072EB"/>
<path d="M23.1431 0.150879H19.7146C19.2412 0.150879 18.8574 0.534296 18.8574 1.00802C18.8574 1.48175 19.2412 1.86516 19.7146 1.86516H22.286V4.43659C22.286 4.91032 22.6698 5.29374 23.1431 5.29374C23.6165 5.29374 24.0003 4.91032 24.0003 4.43659V1.00802C24.0003 0.534296 23.6165 0.150879 23.1431 0.150879Z" fill="#5072EB"/>
<path d="M4.28571 22.4366H1.71429V19.8652C1.71429 19.3915 1.33049 19.0081 0.857143 19.0081C0.383799 19.0081 0 19.3915 0 19.8652V23.2938C0 23.7675 0.383799 24.1509 0.857143 24.1509H4.28571C4.75906 24.1509 5.14286 23.7675 5.14286 23.2938C5.14286 22.82 4.75906 22.4366 4.28571 22.4366Z" fill="#5072EB"/>
<path d="M23.1431 19.0081C22.6698 19.0081 22.286 19.3915 22.286 19.8652V22.4366H19.7146C19.2412 22.4366 18.8574 22.82 18.8574 23.2938C18.8574 23.7675 19.2412 24.1509 19.7146 24.1509H23.1431C23.6165 24.1509 24.0003 23.7675 24.0003 23.2938V19.8652C24.0003 19.3915 23.6165 19.0081 23.1431 19.0081Z" fill="#5072EB"/>
<path d="M22.0348 10.6877C21.7 10.3529 21.1576 10.3529 20.8228 10.6877C20.488 11.0226 20.488 11.565 20.8228 11.8998L21.0738 12.1508H13.8792L9.74713 10.4976C9.64573 10.4574 9.53782 10.4365 9.42857 10.4365H0.857143C0.383799 10.4365 0 10.8199 0 11.2937C0 11.7674 0.383799 12.1508 0.857143 12.1508H9.26351L13.3956 13.8041C13.497 13.8442 13.6049 13.8651 13.7141 13.8651H21.0733L20.8221 14.1163C20.4873 14.4511 20.4873 14.9935 20.8221 15.3284C20.9897 15.4958 21.209 15.5794 21.4282 15.5794C21.6475 15.5794 21.8669 15.4956 22.0344 15.3282L23.7486 13.6139C24.0835 13.2791 24.0835 12.7367 23.7486 12.4018L22.0348 10.6877Z" fill="#5072EB"/>
<path d="M20.5716 18.151V15.5796H3.42871V18.151C3.42871 19.5689 4.58223 20.7224 6.00014 20.7224H18.0001C19.418 20.7224 20.5716 19.5689 20.5716 18.151ZM12.8573 18.5796C12.8573 18.8164 12.6656 19.0082 12.4287 19.0082C12.1919 19.0082 12.0001 18.8164 12.0001 18.5796V17.7224C12.0001 17.4856 12.1919 17.2939 12.4287 17.2939C12.6656 17.2939 12.8573 17.4856 12.8573 17.7224V18.5796ZM14.5716 18.5796C14.5716 18.8164 14.3799 19.0082 14.143 19.0082C13.9061 19.0082 13.7144 18.8164 13.7144 18.5796V17.7224C13.7144 17.4856 13.9061 17.2939 14.143 17.2939C14.3799 17.2939 14.5716 17.4856 14.5716 17.7224V18.5796ZM16.2859 18.5796C16.2859 18.8164 16.0941 19.0082 15.8573 19.0082C15.6204 19.0082 15.4287 18.8164 15.4287 18.5796V17.7224C15.4287 17.4856 15.6204 17.2939 15.8573 17.2939C16.0941 17.2939 16.2859 17.4856 16.2859 17.7224V18.5796ZM18.0001 18.5796C18.0001 18.8164 17.8084 19.0082 17.5716 19.0082C17.3347 19.0082 17.143 18.8164 17.143 18.5796V17.7224C17.143 17.4856 17.3347 17.2939 17.5716 17.2939C17.8084 17.2939 18.0001 17.4856 18.0001 17.7224V18.5796Z" fill="#5072EB"/>
<path d="M3.42871 6.15102V8.72245H20.5716V6.15102C20.5716 4.73311 19.418 3.57959 18.0001 3.57959H6.00014C4.58223 3.57959 3.42871 4.73311 3.42871 6.15102ZM17.143 5.72245C17.143 5.48559 17.3347 5.29388 17.5716 5.29388C17.8084 5.29388 18.0001 5.48559 18.0001 5.72245V6.57959C18.0001 6.81645 17.8084 7.00816 17.5716 7.00816C17.3347 7.00816 17.143 6.81645 17.143 6.57959V5.72245ZM15.4287 5.72245C15.4287 5.48559 15.6204 5.29388 15.8573 5.29388C16.0941 5.29388 16.2859 5.48559 16.2859 5.72245V6.57959C16.2859 6.81645 16.0941 7.00816 15.8573 7.00816C15.6204 7.00816 15.4287 6.81645 15.4287 6.57959V5.72245ZM13.7144 5.72245C13.7144 5.48559 13.9061 5.29388 14.143 5.29388C14.3799 5.29388 14.5716 5.48559 14.5716 5.72245V6.57959C14.5716 6.81645 14.3799 7.00816 14.143 7.00816C13.9061 7.00816 13.7144 6.81645 13.7144 6.57959V5.72245ZM12.0001 5.72245C12.0001 5.48559 12.1919 5.29388 12.4287 5.29388C12.6656 5.29388 12.8573 5.48559 12.8573 5.72245V6.57959C12.8573 6.81645 12.6656 7.00816 12.4287 7.00816C12.1919 7.00816 12.0001 6.81645 12.0001 6.57959V5.72245Z" fill="#5072EB"/>
</svg>
