<svg width="33" height="32" viewBox="0 0 33 32" fill="none" xmlns="http://www.w3.org/2000/svg">
<path fill-rule="evenodd" clip-rule="evenodd" d="M23.6052 8.0146L18.6814 12.8376C18.3613 12.6835 18.0022 12.597 17.6229 12.597C16.9967 12.597 16.4255 12.8332 15.9926 13.2204L11.8636 10.0202C11.9484 9.77226 11.9945 9.50619 11.9945 9.22907C11.9945 7.87991 10.8996 6.78482 9.55021 6.78482C8.20105 6.78482 7.10615 7.87991 7.10615 9.22907C7.10615 9.54712 7.1669 9.85011 7.27736 10.1289L5.16641 12.2397C4.94453 12.4616 4.94453 12.8223 5.16641 13.0442C5.38828 13.2659 5.74879 13.2659 5.97067 13.0442L7.94395 11.0709C8.37398 11.4463 8.93543 11.6733 9.55019 11.6733C10.2107 11.6733 10.8102 11.411 11.2503 10.9844L15.3437 14.1571C15.2372 14.4314 15.1786 14.7294 15.1786 15.0412C15.1786 16.3903 16.2742 17.4852 17.6228 17.4852C18.972 17.4852 20.0676 16.3903 20.0676 15.0412C20.0676 14.4855 19.8816 13.9724 19.5683 13.561L24.5321 8.69881C24.8227 8.82069 25.1419 8.8883 25.4769 8.8883C25.961 8.8883 26.412 8.74718 26.792 8.50436L27.9189 9.63124C28.1407 9.85292 28.5012 9.85292 28.7231 9.63124C28.945 9.40936 28.945 9.04866 28.7231 8.82677L27.5822 7.6858C27.7977 7.32185 27.9212 6.89753 27.9212 6.44405C27.9212 5.0949 26.8261 4 25.4769 4C24.1277 4 23.0327 5.0949 23.0327 6.44405C23.0327 7.04189 23.2477 7.58961 23.6049 8.01451L23.6052 8.0146Z" fill="#5072EB"/>
<path fill-rule="evenodd" clip-rule="evenodd" d="M23.2019 26.8625H19.789V20.6052C19.789 19.6627 19.0251 18.8988 18.0826 18.8988H16.945C16.0025 18.8988 15.2386 19.6627 15.2386 20.6052V26.8625H11.8257V14.6766C11.8257 13.734 11.0618 12.9701 10.1193 12.9701H8.98175C8.03921 12.9701 7.27531 13.734 7.27531 14.6766V26.8625H5.56888C5.25482 26.8625 5 27.1173 5 27.4312C5 27.7452 5.25482 28 5.56888 28H28.321C28.6351 28 28.8899 27.7452 28.8899 27.4312C28.8899 27.1173 28.6351 26.8625 28.321 26.8625H27.7523V13.2407C27.7523 12.2988 26.9884 11.5343 26.0459 11.5343H24.9082C23.9656 11.5343 23.2017 12.2988 23.2017 13.2407L23.2019 26.8625Z" fill="#5072EB"/>
</svg>
