<svg width="24" height="25" viewBox="0 0 24 25" fill="none" xmlns="http://www.w3.org/2000/svg">
<path d="M17.0851 7.62086C17.0364 7.44091 16.9651 7.26836 16.8714 7.107C16.8227 7.02073 16.8265 6.91568 16.8752 6.82959L17.2389 6.20327L16.8565 5.81702L16.2339 6.1845C16.1477 6.23323 16.0426 6.23323 15.9565 6.1845C15.7915 6.09443 15.6228 6.02332 15.4464 5.97458C15.349 5.94823 15.2739 5.86954 15.2477 5.77568L15.064 5.07446H14.5239L14.3402 5.77568C14.314 5.86935 14.2389 5.94823 14.1453 5.9744C13.9689 6.02314 13.7965 6.09443 13.6352 6.18432C13.5489 6.23684 13.4403 6.23305 13.354 6.18432L12.7315 5.81684L12.349 6.20309L12.7127 6.82941C12.7614 6.91568 12.7652 7.02073 12.7165 7.10682C12.6228 7.26818 12.5515 7.44055 12.5028 7.62068C12.4764 7.71832 12.4013 7.79323 12.3039 7.81958L11.6064 7.99953V8.54697L12.3039 8.73089C12.4013 8.75346 12.4764 8.83215 12.5026 8.92583C12.5513 9.10578 12.6226 9.27833 12.7163 9.4395C12.765 9.52577 12.7612 9.63443 12.7125 9.7207L12.3488 10.3432L12.7313 10.7295L13.3538 10.3656C13.4401 10.3131 13.5487 10.3131 13.635 10.3618C13.7962 10.4555 13.9687 10.5268 14.1451 10.5755C14.2387 10.6019 14.3138 10.6768 14.34 10.7742L14.5238 11.4756H15.0638L15.2475 10.7742C15.2737 10.6768 15.3488 10.6017 15.4463 10.5755C15.6226 10.5268 15.7914 10.4555 15.9563 10.3618C16.0426 10.3131 16.1477 10.3131 16.2337 10.3656L16.8563 10.7295L17.2387 10.3432L16.8752 9.72089C16.8265 9.63461 16.8227 9.52595 16.8714 9.43968C16.9651 9.27832 17.0364 9.10595 17.0851 8.92601C17.1113 8.83234 17.1864 8.75346 17.2839 8.73108L17.9813 8.54734V7.99989L17.2839 7.81994C17.1864 7.79323 17.1115 7.71832 17.0851 7.62086ZM14.794 9.6382C14.0477 9.6382 13.4365 9.02704 13.4365 8.27314C13.4365 7.52322 14.0478 6.91188 14.794 6.91188C15.5439 6.91188 16.1515 7.52318 16.1515 8.27314C16.1515 9.02704 15.5439 9.6382 14.794 9.6382Z" fill="#5072EB"/>
<path d="M19.9992 6.24476C20.003 6.1547 20.0068 6.06481 20.0068 5.97095C20.0068 2.7609 17.4418 0.150879 14.2879 0.150879C11.8354 0.150879 9.64928 1.76716 8.87256 4.11085C8.56139 4.03974 8.24264 4.00219 7.92391 4.00219C5.77895 4.00219 4.02387 5.6297 3.80259 7.76343C3.71252 7.75603 3.62643 7.75224 3.53257 7.75224C1.58634 7.75224 0 9.36094 0 11.3373C0 13.3174 1.58634 14.9298 3.53257 14.9298H6.54389C6.40509 14.6111 6.46881 14.2436 6.71644 13.9962L7.8714 12.8486C8.02897 12.6874 8.24267 12.6011 8.46755 12.6011C8.61375 12.6011 8.76012 12.6385 8.88755 12.7098L9.85514 13.276C9.93384 13.2423 10.0089 13.2085 10.0876 13.1823L10.3688 12.1136C10.4701 11.7386 10.8076 11.4835 11.1862 11.4835H12.8175C13.1962 11.4835 13.5337 11.7386 13.635 12.1061L13.9162 13.1785C13.9911 13.2085 14.0699 13.2385 14.1486 13.276L15.1124 12.7134C15.2437 12.6383 15.3899 12.601 15.5362 12.601C15.7613 12.601 15.975 12.6872 16.1326 12.8484L17.2875 13.996C17.5312 14.2434 17.5987 14.6185 17.4675 14.9297H19.725C22.0839 14.9297 24 12.9796 24 10.5833C24.0002 8.28093 22.2301 6.39103 19.9989 6.24478L19.9992 6.24476ZM18.5443 8.76459C18.5443 8.89202 18.458 9.00465 18.3342 9.03461L17.5766 9.23351C17.5391 9.34975 17.4941 9.46219 17.4378 9.57103L17.8353 10.2498C17.899 10.3585 17.8802 10.4973 17.7903 10.5874L17.1003 11.2812C17.0102 11.3712 16.8716 11.3898 16.759 11.3261L16.084 10.9287C15.9789 10.985 15.8665 11.0299 15.754 11.0675L15.5553 11.8288C15.5215 11.9526 15.4091 12.0389 15.2815 12.0389H14.3065C14.179 12.0389 14.0664 11.9526 14.0326 11.8288L13.8377 11.0675C13.7215 11.0299 13.6126 10.9812 13.504 10.9287L12.829 11.3261C12.7165 11.3898 12.5777 11.3712 12.4877 11.2812L11.7976 10.5874C11.7076 10.4973 11.689 10.3587 11.7527 10.2498L12.1501 9.57103C12.0938 9.46219 12.0489 9.34975 12.0113 9.23351L11.2538 9.03479C11.13 9.00483 11.0437 8.8922 11.0437 8.76477V7.78595C11.0437 7.65852 11.13 7.5459 11.2538 7.51214L12.0113 7.31342C12.0489 7.19719 12.0938 7.08474 12.1501 6.9759L11.7527 6.30088C11.689 6.18844 11.7077 6.04964 11.7976 5.95957L12.4877 5.26575C12.5777 5.17568 12.7163 5.15691 12.829 5.22442L13.504 5.61807C13.6128 5.56554 13.7215 5.5206 13.8377 5.47945L14.0326 4.72191C14.0666 4.59827 14.179 4.51217 14.3066 4.51217H15.2817C15.4091 4.51217 15.5217 4.59845 15.5555 4.72227L15.7542 5.47981C15.8666 5.52096 15.9793 5.56608 16.0879 5.61843L16.7592 5.2246C16.8716 5.15709 17.0104 5.17586 17.1005 5.26593L17.7903 5.95957C17.8804 6.04963 17.899 6.18825 17.8353 6.30088L17.4378 6.9759C17.4941 7.08456 17.5391 7.197 17.5766 7.31342L18.3342 7.51214C18.458 7.54589 18.5443 7.65834 18.5443 7.78594V8.76459Z" fill="#5072EB"/>
<path d="M17.8878 17.0143L16.5191 16.6618C16.4404 16.4144 16.3428 16.1743 16.2229 15.9419L16.9355 14.7344C16.9992 14.6219 16.9805 14.4831 16.8906 14.3931L15.7356 13.2455C15.6456 13.1554 15.5069 13.1367 15.3943 13.2004L14.1756 13.9092C13.9432 13.7891 13.6993 13.6879 13.4481 13.613L13.0918 12.2555C13.058 12.1317 12.9456 12.0454 12.818 12.0454H11.1867C11.0593 12.0454 10.9466 12.1317 10.9129 12.2555L10.5566 13.613C10.3054 13.6917 10.0653 13.7891 9.82905 13.9092L8.61037 13.2004C8.49792 13.1367 8.35913 13.1554 8.26906 13.2455L7.1141 14.3931C7.02404 14.4831 7.00527 14.6217 7.06916 14.7344L7.78138 15.9419C7.66135 16.1743 7.56389 16.4144 7.48519 16.6618L6.11634 17.0143C5.99252 17.0481 5.90625 17.1605 5.90625 17.2881V18.9119C5.90625 19.0393 5.99252 19.1519 6.11634 19.1819L7.48519 19.5382C7.56388 19.7858 7.66135 20.0257 7.78138 20.2545L7.06879 21.462C7.00508 21.5745 7.02385 21.7133 7.11391 21.807L8.26887 22.9545C8.35894 23.0446 8.49755 23.0596 8.61018 22.9959L9.82886 22.2871C10.0651 22.4109 10.3052 22.5083 10.5564 22.587L10.9127 23.9409C10.9465 24.0645 11.0589 24.1508 11.1863 24.1508H12.8176C12.945 24.1508 13.0577 24.0645 13.0914 23.9409L13.4477 22.587C13.699 22.5083 13.939 22.4109 14.1753 22.2908L15.3939 22.9959C15.5064 23.0596 15.6452 23.0446 15.7353 22.9545L16.8902 21.807C16.9803 21.7133 16.9989 21.5745 16.9352 21.4619L16.2226 20.2544C16.3426 20.0257 16.4401 19.7856 16.5188 19.5382L17.8878 19.1821C18.0116 19.1521 18.0979 19.0395 18.0979 18.912V17.2883C18.0977 17.1607 18.0114 17.0481 17.8878 17.0143ZM12.0039 20.8245C10.4851 20.8245 9.25526 19.6058 9.25526 18.0982C9.25526 16.5943 10.4853 15.3719 12.0039 15.3719C13.519 15.3719 14.749 16.5943 14.749 18.0982C14.7489 19.6057 13.519 20.8245 12.0039 20.8245Z" fill="#5072EB"/>
</svg>
