<svg width="32" height="32" viewBox="0 0 32 32" fill="none" xmlns="http://www.w3.org/2000/svg">
<path d="M12.6229 27.9998H5.87442C5.84906 27.9848 5.82512 27.9627 5.79741 27.9557C4.6747 27.6815 4.00089 26.8269 4.00042 25.6741C4.00042 23.7057 3.99948 21.7373 4.00042 19.7694C4.00089 18.4983 4.9832 17.5057 6.24678 17.5015C7.41034 17.4977 8.5739 17.5005 9.73747 17.5005C9.82011 17.5005 9.90275 17.5005 9.99901 17.5005C9.99901 17.3761 9.99901 17.2836 9.99901 17.1906C9.99901 13.5511 9.99619 9.91108 10.0004 6.27155C10.0028 4.98308 10.987 4.00171 12.2693 4.00124C16.7672 3.99936 21.2651 3.99983 25.763 4.00124C26.7444 4.00124 27.613 4.65298 27.8995 5.59398C27.9281 5.68836 27.9629 5.78086 27.9943 5.87477V20.1249C27.9793 20.1502 27.9567 20.1742 27.9502 20.2014C27.6792 21.3199 26.8195 21.9989 25.6705 21.9989C22.0342 21.9989 18.398 21.9989 14.7617 21.9989C14.6786 21.9989 14.596 21.9989 14.496 21.9989C14.496 22.1196 14.496 22.2121 14.496 22.3041C14.496 23.4512 14.4969 24.5988 14.496 25.746C14.4945 26.7649 13.84 27.6294 12.8577 27.9163C12.7778 27.9397 12.7008 27.9717 12.6229 27.9994V27.9998ZM22.2676 8.60384L22.3122 8.67615C22.2347 8.74048 22.1516 8.7987 22.0807 8.86961C17.2091 13.7394 12.3388 18.6106 7.46857 23.4818C7.39719 23.5531 7.32253 23.6245 7.26478 23.7067C6.976 24.1142 7.1549 24.6843 7.62728 24.8374C7.96817 24.9477 8.24005 24.8247 8.48938 24.5749C13.3789 19.6788 18.2726 14.787 23.1635 9.8923C23.2264 9.82938 23.2645 9.74063 23.3142 9.6641L23.3908 9.72749C23.3936 9.78759 23.3988 9.84722 23.3988 9.90733C23.3988 11.1803 23.3988 12.4537 23.3997 13.7267C23.3997 13.8197 23.3988 13.9164 23.4218 14.0052C23.5176 14.3742 23.8486 14.5921 24.2383 14.5522C24.6149 14.5132 24.8882 14.1958 24.8891 13.7647C24.8934 11.8198 24.8934 9.8754 24.8891 7.93049C24.8882 7.42478 24.5905 7.12802 24.0867 7.12708C22.1267 7.12332 20.1668 7.12379 18.2069 7.12708C17.7434 7.12802 17.4147 7.44685 17.4199 7.87227C17.4251 8.29299 17.7444 8.59867 18.1965 8.6029C18.7746 8.60806 19.3521 8.60478 19.9301 8.60478C20.7091 8.60478 21.4881 8.60478 22.2671 8.60478L22.2676 8.60384Z" fill="#5072EB"/>
</svg>
