<svg width="20" height="20" viewBox="0 0 20 20" fill="none" xmlns="http://www.w3.org/2000/svg">
<path d="M8.77125 0.0681152H0.442558C0.198157 0.0681152 0 0.266276 0 0.510673V11.1603C0 11.2777 0.0465399 11.3903 0.129538 11.4733C0.212537 11.5565 0.325176 11.603 0.442561 11.603H8.77125C8.88878 11.603 9.00127 11.5565 9.08427 11.4733C9.16742 11.3903 9.21396 11.2777 9.21396 11.1603V0.510673C9.21396 0.393287 9.16727 0.280648 9.08427 0.19765C9.00127 0.114651 8.88863 0.0681152 8.77125 0.0681152Z" fill="#5072EB"/>
<path d="M19.5574 9.8988H11.0921C10.8476 9.8988 10.6494 10.097 10.6494 10.3415V19.4894C10.6494 19.6068 10.6961 19.7194 10.7791 19.8024C10.8621 19.8854 10.9747 19.9321 11.0921 19.9319H19.5574C19.6748 19.9321 19.7874 19.8854 19.8704 19.8024C19.9534 19.7194 20 19.6068 20 19.4894V10.3415C20 10.2241 19.9534 10.1115 19.8703 10.0285C19.7873 9.94549 19.6748 9.8988 19.5574 9.8988Z" fill="#5072EB"/>
<path d="M8.77125 13.3119H0.442561C0.325176 13.3119 0.212537 13.3586 0.129538 13.4416C0.0465399 13.5246 0 13.6372 0 13.7546V19.4888C0 19.6062 0.0465399 19.7188 0.129538 19.8018C0.212537 19.8848 0.325176 19.9315 0.442561 19.9314H8.77125C8.88878 19.9315 9.00127 19.8848 9.08442 19.8018C9.16742 19.7188 9.21396 19.6062 9.21396 19.4888V13.7546C9.21396 13.6372 9.16742 13.5246 9.08427 13.4416C9.00127 13.3586 8.88878 13.3119 8.77125 13.3119Z" fill="#5072EB"/>
<path d="M19.5574 0.0681152H11.0921C10.8476 0.0681152 10.6494 0.266276 10.6494 0.510673V7.8153C10.6494 7.93269 10.6961 8.04518 10.7791 8.12833C10.8621 8.21133 10.9747 8.25787 11.0921 8.25787H19.5574C19.6748 8.25787 19.7873 8.21133 19.8703 8.12833C19.9534 8.04518 20 7.93269 20 7.8153V0.510673C20 0.393287 19.9534 0.280648 19.8703 0.19765C19.7873 0.114651 19.6748 0.0681152 19.5574 0.0681152Z" fill="#5072EB"/>
</svg>
