<svg width="25" height="25" viewBox="0 0 25 25" fill="none" xmlns="http://www.w3.org/2000/svg">
<path d="M12.6074 5.41797C8.75247 5.41797 5.6084 8.56233 5.6084 12.417C5.6084 16.2717 8.75276 19.416 12.6074 19.416C16.4621 19.416 19.6064 16.2717 19.6064 12.417C19.6064 8.56233 16.4619 5.41797 12.6074 5.41797ZM12.6074 8.41853C12.8731 8.41741 13.1281 8.52212 13.3165 8.70943C13.5049 8.89652 13.6109 9.15103 13.6114 9.4167V12.0069L15.4341 13.8316C15.6223 14.0191 15.7279 14.2741 15.7279 14.5398C15.7279 14.8054 15.6223 15.0602 15.4341 15.248C15.2468 15.4342 14.9931 15.5389 14.7288 15.5389C14.4647 15.5389 14.2111 15.4342 14.0238 15.248L11.8983 13.1225C11.8883 13.1116 11.8785 13.1007 11.8691 13.0893C11.8222 13.0377 11.7809 12.9814 11.7458 12.9212C11.7287 12.8908 11.713 12.8595 11.699 12.8274C11.6561 12.7321 11.6284 12.6307 11.617 12.5267C11.6101 12.4664 11.6088 12.4054 11.613 12.3449V9.41874C11.6137 9.1544 11.7186 8.90101 11.9053 8.71415C12.0919 8.52706 12.3451 8.42146 12.6094 8.42035L12.6074 8.41853Z" fill="#5072EB"/>
<path d="M19.7548 5.68425C19.4916 5.65835 19.2288 5.73783 19.0239 5.90527C18.8191 6.07272 18.689 6.3145 18.662 6.57774C18.6363 6.84096 18.7158 7.10373 18.8832 7.30845C19.0506 7.5134 19.2922 7.64334 19.5554 7.67035L22.0363 7.91392V7.91414C22.3006 7.93982 22.5645 7.85922 22.7694 7.69044C22.9744 7.52143 23.1039 7.27786 23.1289 7.01328C23.1548 6.74895 23.0742 6.48506 22.9052 6.28012C22.7362 6.07495 22.4926 5.94568 22.2282 5.92045L19.7548 5.68425Z" fill="#5072EB"/>
<path d="M11.1238 0.508822C9.57669 0.699703 8.03777 1.19535 6.60533 2.02248C5.01909 2.93825 3.71553 4.1655 2.73655 5.5812V5.58097C2.58474 5.79999 2.52691 6.07057 2.57536 6.33243C2.62381 6.59453 2.77495 6.82627 2.99509 6.97655C3.21343 7.12569 3.48223 7.18239 3.74254 7.13394C4.00263 7.0855 4.23303 6.93592 4.38306 6.71802C5.19818 5.53946 6.2825 4.52344 7.60955 3.75741C12.4031 0.989923 18.5013 2.62594 21.2687 7.41947C21.402 7.6483 21.6207 7.81508 21.8768 7.88272C22.1329 7.95059 22.4055 7.91398 22.6346 7.78114C22.8648 7.6492 23.0331 7.43086 23.1023 7.1748C23.1715 6.91873 23.1362 6.64546 23.0038 6.41529C20.5228 2.11803 15.7654 -0.0642052 11.1239 0.508473L11.1238 0.508822ZM2.50737 7.93649C2.25576 7.85076 1.98048 7.86885 1.74225 7.98673C1.50404 8.10438 1.32231 8.31223 1.23747 8.56409C1.18523 8.71791 1.14259 8.87464 1.09727 9.02913C1.0227 9.28275 1.05128 9.55557 1.17719 9.78796C1.30311 10.0204 1.51587 10.1936 1.76902 10.2695C2.02264 10.3443 2.29545 10.3155 2.52784 10.1896C2.76025 10.0637 2.9335 9.85092 3.00941 9.59778C3.04803 9.46762 3.09179 9.33366 3.13488 9.20641C3.22061 8.9548 3.20252 8.67952 3.08465 8.44129C2.96699 8.20285 2.75914 8.02135 2.50728 7.93651L2.50737 7.93649ZM1.59936 11.4952C1.33391 11.4961 1.07985 11.6024 0.893002 11.7908C0.705916 11.979 0.601428 12.234 0.602548 12.4994C0.602995 12.5653 0.60612 12.6474 0.610139 12.743C0.620631 13.0071 0.735385 13.2562 0.928946 13.4362C1.12273 13.6159 1.3797 13.7119 1.64382 13.7028C1.91062 13.6943 2.16289 13.5793 2.34441 13.3839C2.52614 13.1884 2.62214 12.9283 2.61098 12.6617C2.60919 12.6182 2.60339 12.559 2.60339 12.4844V12.4847C2.60071 12.2205 2.49355 11.9683 2.30535 11.783C2.11714 11.5977 1.8635 11.4941 1.59936 11.4952Z" fill="#5072EB"/>
<path d="M23.0921 3.35128C22.8356 3.28252 22.5621 3.31846 22.3323 3.45152C22.1024 3.58436 21.9347 3.80337 21.8664 4.06009L21.165 6.65903C21.0962 6.91556 21.1324 7.18882 21.2652 7.41878C21.3983 7.64873 21.6173 7.81617 21.8738 7.88449C22.1303 7.95347 22.4038 7.9173 22.6337 7.78424C22.8635 7.65141 23.0311 7.4324 23.0994 7.17584L23.7936 4.5769C23.8626 4.32127 23.8275 4.0489 23.696 3.81916C23.5645 3.58943 23.3473 3.4211 23.0921 3.35122L23.0921 3.35128Z" fill="#5072EB"/>
<path d="M3.17956 16.9219C2.91522 16.8963 2.65133 16.9766 2.44639 17.1456C2.24122 17.3146 2.11195 17.5582 2.08672 17.8228C2.06105 18.0871 2.14142 18.351 2.31043 18.556C2.47943 18.7609 2.72301 18.8904 2.98758 18.9154L5.46102 19.1516C5.72535 19.1775 5.98924 19.0969 6.19418 18.9279C6.39913 18.7591 6.5284 18.5153 6.55363 18.251C6.57952 17.9864 6.49893 17.7227 6.32992 17.5178C6.16092 17.3126 5.91734 17.1834 5.653 17.1581L3.17956 16.9219Z" fill="#5072EB"/>
<path d="M23.5644 11.1334C23.3003 11.1439 23.0511 11.2584 22.8714 11.4522C22.6915 11.6458 22.5957 11.9027 22.6046 12.1669C22.6064 12.2104 22.6122 12.2696 22.6122 12.3441C22.6131 12.6096 22.7194 12.8636 22.9078 13.0505C23.0962 13.2376 23.351 13.3418 23.6164 13.3409C23.8816 13.34 24.1359 13.2336 24.3228 13.0453C24.5096 12.8569 24.6141 12.6022 24.613 12.3368C24.6125 12.2709 24.6094 12.1887 24.6054 12.0932H24.6056C24.5951 11.8277 24.4795 11.5772 24.2841 11.3973C24.0888 11.2171 23.8298 11.1222 23.5646 11.1332L23.5644 11.1334ZM23.4465 14.5666V14.5664C23.192 14.4896 22.9172 14.5173 22.6832 14.6434C22.449 14.7693 22.2747 14.9834 22.1988 15.2384C22.1602 15.3685 22.124 15.5025 22.0809 15.6298C21.9976 15.8802 22.0168 16.1537 22.1345 16.3904C22.2519 16.6268 22.4584 16.8072 22.7085 16.8923C22.9592 16.9756 23.2327 16.9564 23.4691 16.8387C23.7058 16.7213 23.8862 16.5148 23.971 16.2647C24.0232 16.1109 24.073 15.9615 24.1188 15.807V15.8068C24.1936 15.5534 24.1648 15.2806 24.0389 15.048C23.913 14.8156 23.7002 14.6426 23.447 14.5664L23.4465 14.5666ZM3.34163 16.9515V16.9512C3.08444 16.8834 2.81095 16.9204 2.5812 17.0546C2.35103 17.1868 2.18291 17.4049 2.11371 17.6612C2.0445 17.9173 2.07999 18.1905 2.21216 18.4205C5.52015 24.1501 12.8804 26.1219 18.6101 22.8134C20.1963 21.8977 21.4926 20.663 22.4715 19.2474H22.4717C22.6217 19.0299 22.6796 18.7618 22.6325 18.5017C22.5854 18.2416 22.4373 18.0105 22.2206 17.8594C22.0031 17.7094 21.735 17.6515 21.4749 17.6986C21.2148 17.7455 20.9837 17.8938 20.8326 18.1103C20.0175 19.2889 18.9331 20.3123 17.6061 21.0783C12.8126 23.8458 6.71434 22.2098 3.94697 17.4162V17.4165C3.81458 17.1874 3.5969 17.0202 3.34148 16.9512L3.34163 16.9515Z" fill="#5072EB"/>
<path d="M3.3419 16.9511C3.08538 16.8823 2.81211 16.9185 2.58216 17.0513C2.3522 17.1844 2.18476 17.4034 2.11645 17.6599L1.415 20.2588C1.34624 20.5154 1.38218 20.7888 1.51524 21.0186C1.64808 21.2485 1.86709 21.4162 2.12381 21.4845C2.38034 21.5533 2.6536 21.5173 2.88355 21.3843C3.11351 21.2512 3.28117 21.0324 3.34926 20.7757L4.04339 18.1768C4.11238 17.9214 4.07733 17.6488 3.94606 17.419C3.81456 17.1893 3.59728 17.021 3.3419 16.9511Z" fill="#5072EB"/>
</svg>
