<svg width="21" height="14" viewBox="0 0 21 14" fill="none" xmlns="http://www.w3.org/2000/svg">
<path d="M20.1875 6.32292C20.3958 6.59375 20.5 6.89844 20.5 7.23698V11.875C20.5 12.3264 20.338 12.7101 20.0139 13.026C19.6898 13.342 19.2963 13.5 18.8333 13.5H2.16667C1.7037 13.5 1.31019 13.342 0.986111 13.026C0.662037 12.7101 0.5 12.3264 0.5 11.875V7.23698C0.5 6.89844 0.604167 6.59375 0.8125 6.32292L4.45833 1.21094C4.78241 0.736979 5.2338 0.5 5.8125 0.5H15.1875C15.7662 0.5 16.2176 0.736979 16.5417 1.21094L20.1875 6.32292ZM5.8125 2.125L3.10417 5.91667H7.375L8.48611 8.08333H12.5139L13.625 5.91667H17.8958L15.1875 2.125H5.8125ZM18.8333 11.875V7.54167H14.6667L13.5556 9.70833H7.44444L6.33333 7.54167H2.16667V11.875H18.8333Z" fill="#3F3F46"/>
</svg>
