<svg width="32" height="32" viewBox="0 0 32 32" fill="none" xmlns="http://www.w3.org/2000/svg">
<path d="M15.9993 0C7.17655 0 0 7.17655 0 15.9993C0 24.8235 7.17655 32 15.9993 32C24.8235 32 32 24.8235 32 15.9993C32 7.17655 24.8235 0 15.9993 0ZM17.2497 24.3016C17.2497 24.4537 17.1498 24.5509 17.0005 24.5509H15.1064C14.9543 24.5509 14.8557 24.4509 14.8557 24.3016V22.1569C14.8557 22.0076 14.9543 21.9076 15.1064 21.9076H17.0005C17.1498 21.9076 17.2497 22.0076 17.2497 22.1569V24.3016ZM19.4452 14.7955L17.7743 17.0895C17.2744 17.7633 17.1251 18.1139 17.1251 18.9617V19.7574C17.1251 19.9081 17.0238 20.008 16.8745 20.008H15.2282C15.079 20.0108 14.9776 19.9108 14.9776 19.7602V18.7385C14.9776 17.7387 15.2036 17.2169 15.7281 16.4924L17.399 14.1956C18.2714 13 18.57 12.4261 18.57 11.5756C18.57 10.1554 17.573 9.25829 16.1527 9.25829C14.7557 9.25829 13.8559 10.1061 13.5574 11.6276C13.5327 11.7769 13.4314 11.8509 13.2821 11.8262L11.7112 11.551C11.5592 11.5277 11.4866 11.4263 11.5112 11.277C11.8851 8.88303 13.6053 7.30939 16.2006 7.30939C18.8946 7.30939 20.7175 9.08162 20.7175 11.551C20.7175 12.7493 20.2929 13.6217 19.4452 14.7955Z" fill="#ffffff"/>
</svg>
