<svg width="21" height="19" viewBox="0 0 21 19" fill="none" xmlns="http://www.w3.org/2000/svg">
<path d="M6.53148 0.100006C6.17317 0.100006 5.90924 0.229549 5.71889 0.370196C5.71409 0.373157 5.71089 0.379079 5.70609 0.38204C5.64931 0.424234 5.59812 0.470129 5.55413 0.511583C5.54613 0.518245 5.53653 0.527128 5.52854 0.53453C5.52694 0.537491 5.53014 0.543413 5.52854 0.546374L4.80472 1.29846C4.96388 1.25479 5.13344 1.22814 5.31259 1.22814H16.6881C16.8672 1.22814 17.0368 1.25331 17.1951 1.29846L16.4465 0.511583C16.2434 0.259899 15.8707 0.100006 15.5068 0.100006H6.53148ZM5.31259 1.98023C4.84151 1.98023 4.5 2.29557 4.5 2.73232V18.1479C4.5 18.5839 4.84151 18.9 5.31259 18.9H16.6881C17.1592 18.9 17.4999 18.5839 17.4999 18.1479V2.73232C17.4999 2.29557 17.1592 1.98023 16.6881 1.98023H5.31259ZM7.34407 3.85971H14.6566C14.9005 3.85971 15.0629 4.00998 15.0629 4.23576V6.11598C15.0629 6.3425 14.9005 6.49203 14.6566 6.49203H7.34407C7.09933 6.49203 6.93778 6.3425 6.93778 6.11598V4.23576C6.93778 4.00998 7.09933 3.85971 7.34407 3.85971ZM7.34407 7.24412H14.6566C14.9005 7.24412 15.0629 7.39364 15.0629 7.62016V9.49964C15.0629 9.72616 14.9005 9.87569 14.6566 9.87569H7.34407C7.09933 9.87569 6.93778 9.72616 6.93778 9.49964V7.62016C6.93778 7.39364 7.09933 7.24412 7.34407 7.24412ZM10.9999 12.132C11.4478 12.132 11.8125 12.4695 11.8125 12.884C11.8125 13.2978 11.4478 13.6361 10.9999 13.6361C10.5528 13.6361 10.1881 13.2978 10.1881 12.884C10.1881 12.4695 10.5528 12.132 10.9999 12.132ZM10.9999 14.7643C11.4478 14.7643 11.8125 15.1018 11.8125 15.5156C11.8125 15.9302 11.4478 16.2677 10.9999 16.2677C10.5528 16.2677 10.1881 15.9302 10.1881 15.5156C10.1881 15.1018 10.5528 14.7643 10.9999 14.7643Z" fill="black"/>
</svg>
