<svg width="21" height="19" viewBox="0 0 21 19" fill="none" xmlns="http://www.w3.org/2000/svg">
<path d="M7.89119 18.9C6.68927 18.9 5.71762 17.9867 5.71762 16.8559C5.71762 15.7261 6.68927 14.8127 7.89119 14.8127H10.0648V16.8559C10.0648 17.9867 9.09414 18.9 7.89119 18.9ZM13.1088 18.9C11.9059 18.9 10.9352 17.9867 10.9352 16.8559V11.9523C10.9352 10.8215 11.9059 9.90914 13.1088 9.90914C14.3107 9.90914 15.2824 10.8215 15.2824 11.9523V16.8559C15.2824 17.9867 14.3107 18.9 13.1088 18.9ZM2.67461 13.9955C1.47166 13.9955 0.5 13.0821 0.5 11.9523C0.5 10.8215 1.47166 9.90914 2.67461 9.90914H7.89119C9.09414 9.90914 10.0648 10.8215 10.0648 11.9523C10.0648 13.0821 9.09414 13.9955 7.89119 13.9955H2.67461ZM18.3254 13.9955C17.1235 13.9955 16.1518 13.0821 16.1518 11.9523V9.90914H18.3254C19.5283 9.90914 20.5 10.8215 20.5 11.9523C20.5 13.0821 19.5283 13.9955 18.3254 13.9955ZM2.67461 9.09091C1.47166 9.09091 0.5 8.17852 0.5 7.04775C0.5 5.91794 1.47166 5.00458 2.67461 5.00458C3.87653 5.00458 4.84819 5.91794 4.84819 7.04775V9.09091H2.67461ZM7.89119 9.09091C6.68927 9.09091 5.71762 8.17852 5.71762 7.04775V2.14416C5.71762 1.01338 6.68927 0.100025 7.89119 0.100025C9.09414 0.100025 10.0648 1.01338 10.0648 2.14416V7.04775C10.0648 8.17852 9.09414 9.09091 7.89119 9.09091ZM13.1088 9.09091C11.9059 9.09091 10.9352 8.17852 10.9352 7.04775C10.9352 5.91794 11.9059 5.00458 13.1088 5.00458H18.3254C19.5283 5.00458 20.5 5.91794 20.5 7.04775C20.5 8.17852 19.5283 9.09091 18.3254 9.09091H13.1088ZM10.9352 4.18732V2.14416C10.9352 1.01338 11.9059 0.100025 13.1088 0.100025C14.3107 0.100025 15.2824 1.01338 15.2824 2.14416C15.2824 3.27396 14.3107 4.18732 13.1088 4.18732H10.9352Z" fill="#3F3F46"/>
</svg>
