<svg width="20" height="20" viewBox="0 0 20 20" fill="none" xmlns="http://www.w3.org/2000/svg">
<path fill-rule="evenodd" clip-rule="evenodd" d="M9.375 8.125C9.375 7.79348 9.2433 7.47554 9.00888 7.24112C8.77446 7.0067 8.45652 6.875 8.125 6.875H4.375C4.04348 6.875 3.72554 7.0067 3.49112 7.24112C3.2567 7.47554 3.125 7.79348 3.125 8.125C3.125 8.45652 3.2567 8.77446 3.49112 9.00888C3.72554 9.2433 4.04348 9.375 4.375 9.375H9.375V8.125ZM9.89277 6.35723C10.3616 6.82607 10.625 7.46196 10.625 8.125V10C10.625 10.3452 10.3452 10.625 10 10.625H4.375C3.71196 10.625 3.07607 10.3616 2.60723 9.89277C2.13839 9.42393 1.875 8.78804 1.875 8.125C1.875 7.46196 2.13839 6.82607 2.60723 6.35723C3.07607 5.88839 3.71196 5.625 4.375 5.625H8.125C8.78804 5.625 9.42393 5.88839 9.89277 6.35723Z" fill="#47506D"/>
<path fill-rule="evenodd" clip-rule="evenodd" d="M8.1224 3.12501C7.95839 3.12432 7.79588 3.15612 7.64423 3.21856C7.49258 3.281 7.3548 3.37286 7.23883 3.48883C7.12286 3.6048 7.03101 3.74258 6.96856 3.89423C6.90612 4.04588 6.87432 4.20839 6.87501 4.3724V4.37764C6.87432 4.54164 6.90612 4.70415 6.96856 4.8558C7.031 5.00745 7.12286 5.14524 7.23883 5.2612C7.3548 5.37717 7.49258 5.46903 7.64423 5.53147C7.79588 5.59391 7.95839 5.62571 8.1224 5.62502L8.12502 5.62502H9.37502V4.37502L9.37502 4.3724C9.37571 4.20839 9.34391 4.04588 9.28147 3.89423C9.21903 3.74258 9.12717 3.6048 9.0112 3.48883C8.89524 3.37286 8.75745 3.281 8.6058 3.21856C8.45415 3.15612 8.29164 3.12432 8.12764 3.12501H8.1224ZM8.12502 1.87501C7.79687 1.87398 7.47174 1.93776 7.1683 2.06271C6.86404 2.18799 6.58761 2.37228 6.35494 2.60494C6.12228 2.83761 5.93799 3.11404 5.81271 3.4183C5.68777 3.72174 5.62398 4.04687 5.62501 4.37502C5.62398 4.70316 5.68776 5.02829 5.81271 5.33174C5.93799 5.63599 6.12228 5.91242 6.35494 6.14509C6.58761 6.37775 6.86404 6.56204 7.1683 6.68732C7.47213 6.81243 7.7977 6.87621 8.12627 6.87502H10C10.3452 6.87502 10.625 6.59519 10.625 6.25002V4.37627C10.6262 4.0477 10.5624 3.72213 10.4373 3.4183C10.312 3.11404 10.1278 2.83761 9.89509 2.60494C9.66242 2.37228 9.38599 2.18799 9.08174 2.06271C8.77829 1.93776 8.45316 1.87398 8.12502 1.87501Z" fill="#47506D"/>
<path fill-rule="evenodd" clip-rule="evenodd" d="M11.875 9.375C12.2065 9.375 12.5245 9.2433 12.7589 9.00888C12.9933 8.77446 13.125 8.45652 13.125 8.125V4.375C13.125 4.04348 12.9933 3.72554 12.7589 3.49112C12.5245 3.2567 12.2065 3.125 11.875 3.125C11.5435 3.125 11.2255 3.2567 10.9911 3.49112C10.7567 3.72554 10.625 4.04348 10.625 4.375V9.375H11.875ZM13.6428 9.89277C13.1739 10.3616 12.538 10.625 11.875 10.625H10C9.65482 10.625 9.375 10.3452 9.375 10V4.375C9.375 3.71196 9.63839 3.07607 10.1072 2.60723C10.5761 2.13839 11.212 1.875 11.875 1.875C12.538 1.875 13.1739 2.13839 13.6428 2.60723C14.1116 3.07607 14.375 3.71196 14.375 4.375V8.125C14.375 8.78804 14.1116 9.42393 13.6428 9.89277Z" fill="#47506D"/>
<path fill-rule="evenodd" clip-rule="evenodd" d="M15.6224 6.87501C15.4584 6.87432 15.2959 6.90612 15.1442 6.96856C14.9926 7.03101 14.8548 7.12286 14.7388 7.23883C14.6229 7.3548 14.531 7.49258 14.4686 7.64423C14.4061 7.79588 14.3743 7.95839 14.375 8.1224L14.375 8.12502V9.37502H15.625L15.6276 9.37502C15.7916 9.37571 15.9542 9.34391 16.1058 9.28147C16.2575 9.21903 16.3952 9.12717 16.5112 9.0112C16.6272 8.89524 16.719 8.75745 16.7815 8.6058C16.8439 8.45415 16.8757 8.29164 16.875 8.12764V8.1224C16.8757 7.95839 16.8439 7.79588 16.7815 7.64423C16.719 7.49258 16.6272 7.3548 16.5112 7.23883C16.3952 7.12286 16.2575 7.03101 16.1058 6.96856C15.9542 6.90612 15.7916 6.87432 15.6276 6.87501H15.6224ZM15.625 5.62501C15.2969 5.62398 14.9717 5.68777 14.6683 5.81271C14.364 5.93799 14.0876 6.12228 13.8549 6.35494C13.6223 6.58761 13.438 6.86404 13.3127 7.1683C13.1876 7.47212 13.1238 7.79768 13.125 8.12624V10C13.125 10.3452 13.4048 10.625 13.75 10.625H15.6238C15.9523 10.6262 16.2779 10.5624 16.5817 10.4373C16.886 10.312 17.1624 10.1278 17.3951 9.89509C17.6278 9.66242 17.812 9.38599 17.9373 9.08174C18.0623 8.77829 18.1261 8.45316 18.125 8.12502C18.1261 7.79687 18.0623 7.47174 17.9373 7.1683C17.812 6.86404 17.6278 6.58761 17.3951 6.35494C17.1624 6.12228 16.886 5.93799 16.5817 5.81271C16.2783 5.68777 15.9532 5.62398 15.625 5.62501Z" fill="#47506D"/>
<path fill-rule="evenodd" clip-rule="evenodd" d="M10.625 11.875C10.625 12.2065 10.7567 12.5245 10.9911 12.7589C11.2255 12.9933 11.5435 13.125 11.875 13.125H15.625C15.9565 13.125 16.2745 12.9933 16.5089 12.7589C16.7433 12.5245 16.875 12.2065 16.875 11.875C16.875 11.5435 16.7433 11.2255 16.5089 10.9911C16.2745 10.7567 15.9565 10.625 15.625 10.625H10.625V11.875ZM10.1072 13.6428C9.63839 13.1739 9.375 12.538 9.375 11.875V10C9.375 9.65482 9.65482 9.375 10 9.375H15.625C16.288 9.375 16.9239 9.63839 17.3928 10.1072C17.8616 10.5761 18.125 11.212 18.125 11.875C18.125 12.538 17.8616 13.1739 17.3928 13.6428C16.9239 14.1116 16.288 14.375 15.625 14.375H11.875C11.212 14.375 10.5761 14.1116 10.1072 13.6428Z" fill="#47506D"/>
<path fill-rule="evenodd" clip-rule="evenodd" d="M12.3558 14.4686C12.2042 14.4061 12.0416 14.3743 11.8776 14.375L11.875 14.375H10.625V15.625L10.625 15.6276C10.6243 15.7916 10.6561 15.9542 10.7186 16.1058C10.781 16.2575 10.8729 16.3952 10.9888 16.5112C11.1048 16.6272 11.2426 16.719 11.3942 16.7815C11.5459 16.8439 11.7084 16.8757 11.8724 16.875H11.8776C12.0416 16.8757 12.2042 16.8439 12.3558 16.7815C12.5075 16.719 12.6452 16.6272 12.7612 16.5112C12.8772 16.3952 12.969 16.2575 13.0315 16.1058C13.0939 15.9542 13.1257 15.7916 13.125 15.6276V15.6224C13.1257 15.4584 13.0939 15.2959 13.0315 15.1442C12.969 14.9926 12.8772 14.8548 12.7612 14.7388C12.6452 14.6229 12.5075 14.531 12.3558 14.4686ZM11.8738 13.125C12.2024 13.1238 12.5279 13.1876 12.8317 13.3127C13.136 13.438 13.4124 13.6223 13.6451 13.8549C13.8778 14.0876 14.062 14.364 14.1873 14.6683C14.3123 14.9717 14.3761 15.2969 14.375 15.625C14.3761 15.9532 14.3123 16.2783 14.1873 16.5817C14.062 16.886 13.8778 17.1624 13.6451 17.3951C13.4124 17.6278 13.136 17.812 12.8317 17.9373C12.5283 18.0623 12.2032 18.1261 11.875 18.125C11.5469 18.1261 11.2217 18.0623 10.9183 17.9373C10.614 17.812 10.3376 17.6278 10.1049 17.3951C9.87228 17.1624 9.68799 16.886 9.56271 16.5817C9.43761 16.2779 9.37382 15.9524 9.37502 15.6238V13.75C9.37502 13.4048 9.65484 13.125 10 13.125H11.8738Z" fill="#47506D"/>
<path fill-rule="evenodd" clip-rule="evenodd" d="M8.125 10.625C7.79348 10.625 7.47554 10.7567 7.24112 10.9911C7.0067 11.2255 6.875 11.5435 6.875 11.875V15.625C6.875 15.9565 7.0067 16.2745 7.24112 16.5089C7.47554 16.7433 7.79348 16.875 8.125 16.875C8.45652 16.875 8.77446 16.7433 9.00888 16.5089C9.2433 16.2745 9.375 15.9565 9.375 15.625V10.625H8.125ZM6.35723 10.1072C6.82607 9.63839 7.46196 9.375 8.125 9.375H10C10.3452 9.375 10.625 9.65482 10.625 10V15.625C10.625 16.288 10.3616 16.9239 9.89277 17.3928C9.42393 17.8616 8.78804 18.125 8.125 18.125C7.46196 18.125 6.82607 17.8616 6.35723 17.3928C5.88839 16.9239 5.625 16.288 5.625 15.625V11.875C5.625 11.212 5.88839 10.5761 6.35723 10.1072Z" fill="#47506D"/>
<path fill-rule="evenodd" clip-rule="evenodd" d="M4.3724 10.625C4.20839 10.6243 4.04588 10.6561 3.89423 10.7186C3.74258 10.781 3.6048 10.8729 3.48883 10.9888C3.37286 11.1048 3.28101 11.2426 3.21856 11.3942C3.15612 11.5459 3.12432 11.7084 3.12501 11.8724V11.8776C3.12432 12.0416 3.15612 12.2042 3.21856 12.3558C3.28101 12.5075 3.37286 12.6452 3.48883 12.7612C3.6048 12.8772 3.74258 12.969 3.89423 13.0315C4.04588 13.0939 4.20839 13.1257 4.3724 13.125H4.37764C4.54164 13.1257 4.70415 13.0939 4.8558 13.0315C5.00745 12.969 5.14524 12.8772 5.2612 12.7612C5.37717 12.6452 5.46903 12.5075 5.53147 12.3558C5.59391 12.2042 5.62571 12.0416 5.62502 11.8776L5.62502 11.875V10.625H4.37502L4.3724 10.625ZM4.37624 9.37502C4.04768 9.37382 3.72212 9.43761 3.4183 9.56271C3.11404 9.68799 2.83761 9.87228 2.60494 10.1049C2.37228 10.3376 2.18799 10.614 2.06271 10.9183C1.93777 11.2217 1.87398 11.5469 1.87501 11.875C1.87398 12.2032 1.93777 12.5283 2.06271 12.8317C2.18799 13.136 2.37228 13.4124 2.60494 13.6451C2.83761 13.8778 3.11404 14.062 3.4183 14.1873C3.72174 14.3123 4.04687 14.3761 4.37502 14.375C4.70316 14.3761 5.02829 14.3123 5.33174 14.1873C5.63599 14.062 5.91242 13.8778 6.14509 13.6451C6.37775 13.4124 6.56204 13.136 6.68732 12.8317C6.81243 12.5279 6.87621 12.2023 6.87502 11.8738V10C6.87502 9.65484 6.59519 9.37502 6.25002 9.37502H4.37624Z" fill="#47506D"/>
</svg>
