<svg xmlns="http://www.w3.org/2000/svg" viewBox="0 0 36 44" fill="none">
  <path d="M4.71893 25.3751L17.6889 13.0127L34.7375 30.2389L22.9865 41.986C20.667 44.3054 16.8723 44.2659 14.5095 41.9031L5.2554 33.6431C2.88863 31.2763 2.84918 27.4776 4.71893 25.3751Z" fill="#CFD8DC"/>
  <path d="M16.888 18.0973C18.0714 19.2807 19.9885 19.2807 21.1719 18.0973L30.7494 8.51979C31.9328 7.3364 31.9328 5.41932 30.7494 4.23593C29.566 3.05254 27.649 3.05254 26.4656 4.23593L16.888 13.8135C15.7046 14.9969 15.7046 16.9139 16.888 18.0973Z" fill="#CFD8DC"/>
  <path d="M19.618 23.9157C20.8014 25.0991 22.7185 25.0991 23.9019 23.9157L28.1857 19.6319C29.3691 18.4485 29.3691 16.5314 28.1857 15.3441C27.0023 14.1646 25.0853 14.1607 23.9019 15.3441L19.618 19.6319C18.4346 20.8153 18.4346 22.7323 19.618 23.9157Z" fill="#CFD8DC"/>
  <path d="M23.1683 28.9253C24.3517 30.1087 26.2688 30.1087 27.4522 28.9253L31.736 24.6375C32.9194 23.4541 32.9194 21.537 31.736 20.3536C30.5526 19.1702 28.6356 19.1702 27.4522 20.3536L23.1683 24.6414C21.9849 25.8209 21.9849 27.7419 23.1683 28.9253Z" fill="#CFD8DC"/>
  <path d="M26.2015 34.4912C27.3849 35.6746 29.302 35.6746 30.4854 34.4912L34.7692 30.2034C35.9526 29.02 35.9526 27.1069 34.7692 25.9195C33.5858 24.7361 31.6688 24.7361 30.4854 25.9195L26.2015 30.2034C25.0181 31.3868 25.0181 33.3078 26.2015 34.4912Z" fill="#CFD8DC"/>
  <path d="M3.39367 20.8348C3.31872 19.4345 2.8572 18.0263 2.12744 16.8192L0.537759 14.1921C0.222189 13.6793 0.297137 13.0284 0.715268 12.6142L1.19651 12.133C2.46668 10.8628 4.74273 11.4427 5.66577 12.3657L6.65981 13.3598C8.67946 15.3794 10.3441 17.691 11.1291 20.4206L13.1053 25.4777L3.39761 29.2527L3.39367 20.8348Z" fill="#CFD8DC"/>
  <path d="M24.0277 15.2415L21.1718 18.0974C20.7774 18.4918 20.7774 19.1309 21.1718 19.5253C21.5663 19.9198 22.2053 19.9198 22.5998 19.5253L24.0277 15.2415Z" fill="#196CCB"/>
  <path d="M27.598 20.2393L24.7421 23.0952C24.3477 23.4896 24.3477 24.1287 24.7421 24.5231C25.1366 24.9215 25.7756 24.9176 26.1701 24.5231L27.598 20.2393Z" fill="#196CCB"/>
  <path d="M30.4852 25.9116L27.6293 28.7675C27.2349 29.162 27.2349 29.801 27.6293 30.1955C28.0238 30.5899 28.6628 30.5899 29.0573 30.1955L30.4852 25.9116Z" fill="#196CCB"/>
  <path d="M12.4625 8.37778C11.9063 8.37778 11.4526 7.92415 11.4526 7.36796V1.30902C11.4526 0.752826 11.9063 0.299194 12.4625 0.299194C13.0187 0.299194 13.4723 0.752826 13.4723 1.30902V7.36796C13.4723 7.92415 13.0187 8.37778 12.4625 8.37778Z" fill="#0288D1"/>
  <path d="M17.5113 9.38755C17.2509 9.38755 16.9945 9.28894 16.7973 9.09171C16.4028 8.69725 16.4028 8.05822 16.7973 7.66375L20.8366 3.62446C21.2311 3.23 21.8701 3.23 22.2646 3.62446C22.659 4.01892 22.659 4.65795 22.2646 5.05241L18.2253 9.09171C18.028 9.28894 17.7716 9.38755 17.5113 9.38755Z" fill="#0288D1"/>
  <path d="M7.41337 9.38755C7.15303 9.38755 6.89663 9.28894 6.6994 9.09171L2.6601 5.05241C2.26564 4.65795 2.26564 4.01892 2.6601 3.62446C3.05457 3.23 3.6936 3.23 4.08806 3.62446L8.12735 7.66375C8.52181 8.05822 8.52181 8.69725 8.12735 9.09171C7.93012 9.28894 7.67372 9.38755 7.41337 9.38755Z" fill="#0288D1"/>
</svg>