<svg width="381" height="218" viewBox="0 0 381 218" fill="none" xmlns="http://www.w3.org/2000/svg">
<g style="mix-blend-mode:multiply" opacity="0.48">
<g style="mix-blend-mode:multiply">
<path d="M263.289 6.47195L255.727 7.46847L250.585 2.99552L244.857 5.57431L244.766 12.4131L238.923 17.3348L232.153 16.3307L228.722 21.6176L232.336 27.4218L230.107 34.7017L223.869 37.4935V43.7998L230.038 46.7209L230.388 48.5922C230.465 49.0251 230.572 49.4521 230.708 49.8702L230.875 50.4407C230.875 50.4407 231.149 51.3536 231.415 52.274C231.56 52.7228 231.765 53.1564 231.895 53.4911L232.115 54.0465C232.115 54.0465 231.088 55.3625 230.115 56.823C229.141 58.2836 228.388 59.7822 228.388 59.7822C228.388 59.7822 228.578 60.1321 228.852 60.657L229.331 61.547L229.962 62.5207L231.157 64.3312C231.332 64.6117 231.526 64.881 231.735 65.1375C231.735 65.1375 233.515 65.0387 235.204 64.8104C236.048 64.7039 236.87 64.5746 237.486 64.4605C237.782 64.4149 238.049 64.354 238.246 64.3084L238.536 64.2475C238.536 64.2475 241.19 66.9937 241.266 66.9176L242.727 68.1423C243.057 68.4193 243.405 68.6735 243.769 68.903L244.264 69.2378C244.264 69.2378 244.112 70.8961 244.089 72.6457C244.089 73.5281 244.089 74.3421 244.157 74.9963C244.226 75.6505 244.226 76.0765 244.226 76.0765L245.093 76.5557C245.715 76.9242 246.36 77.252 247.025 77.537L249.01 78.4042L249.672 78.6933C249.753 78.731 249.837 78.7616 249.923 78.7846C249.923 78.7846 251.369 77.7348 252.669 76.6318C253.331 76.0841 253.955 75.5288 254.411 75.1104L254.952 74.5931L255.157 74.3877L257.021 74.7985L258.306 75.08L258.9 75.156L260.794 75.3766C261.227 75.4463 261.664 75.487 262.102 75.4984H262.696C262.696 75.4984 263.456 76.9665 264.4 78.4347C265.005 79.4148 265.663 80.3619 266.37 81.2721L269.511 81.0059L272.615 80.4277C273.059 79.3641 273.445 78.2772 273.771 77.1719C274.281 75.5136 274.631 73.8933 274.631 73.8933L275.209 73.7259C275.628 73.6026 276.037 73.4501 276.434 73.2695L278.206 72.5544L278.754 72.3262L279.918 71.7101L281.607 70.82L281.858 70.9722L282.52 71.3221C283.075 71.6112 283.82 71.9839 284.604 72.3414C286.125 73.0565 287.822 73.6879 287.822 73.6879C287.9 73.6413 287.974 73.5879 288.042 73.5281L288.598 73.0793L290.286 71.7176C290.852 71.2682 291.388 70.7829 291.891 70.2647L292.599 69.5725L292.386 68.5075C292.241 67.8685 292.082 67.0697 291.823 66.2253C291.344 64.5442 290.758 62.9847 290.758 62.9847L291.138 62.5283C291.431 62.2029 291.701 61.8572 291.945 61.4938L293.025 59.9191C293.124 59.98 294.957 56.6252 294.957 56.6252H295.246C295.436 56.6252 295.71 56.6253 296.007 56.572C296.623 56.5188 297.452 56.4275 298.289 56.3134C299.978 56.0775 301.72 55.7048 301.72 55.7048L303.53 49.6572L298.418 45.1082L298.502 37.4935L303.69 33.0434L301.994 26.9577L295.246 25.8852L291.199 19.4496L293.154 12.8923L288.445 8.70081L282.185 11.4546L275.27 8.24439L273.406 1.64146L267.168 0.660156L263.289 6.47195ZM263.129 19.4268C263.44 19.4 263.754 19.4 264.065 19.4268H265.107C265.29 19.4268 265.48 19.4268 265.662 19.4268L266.225 19.4952L267.366 19.6322C267.746 19.676 268.122 19.7472 268.492 19.8451L269.58 20.081C270.28 20.2711 270.911 20.5146 271.466 20.6743C271.727 20.7511 271.981 20.8478 272.227 20.9634L272.782 21.2144L273.269 21.4198L273.756 21.6404L274.981 22.325C275.55 22.6614 276.097 23.0349 276.616 23.4433C277.239 23.8736 277.834 24.3436 278.397 24.8506C278.549 24.9723 278.701 25.094 278.838 25.2233L279.241 25.6341L280.002 26.4328C280.245 26.6701 280.471 26.9243 280.679 27.1936L281.272 27.9162L281.531 28.2433C281.614 28.3498 281.675 28.4563 281.744 28.5552C281.812 28.6541 281.979 28.9204 282.071 29.0649L282.367 29.5061L282.664 29.9473C282.831 30.2364 283.044 30.67 283.318 31.1797C283.448 31.4383 283.615 31.7045 283.744 32.0088L284.132 32.9825C284.262 33.3172 284.429 33.6519 284.543 34.0171L284.863 35.1201L285.022 35.6754C285.09 35.8569 285.136 36.0459 285.159 36.2384C285.225 36.6086 285.294 36.9737 285.365 37.3338C285.441 37.675 285.497 38.0205 285.532 38.3683C285.532 38.6954 285.585 39.0149 285.608 39.304C285.671 39.7653 285.699 40.2306 285.692 40.6961V41.2286C285.692 41.2286 285.692 41.4264 285.692 41.7611C285.696 42.2267 285.665 42.692 285.6 43.1532C285.466 44.5616 285.191 45.953 284.779 47.3066C284.571 48.0322 284.317 48.7437 284.018 49.4366C283.778 50.05 283.493 50.6449 283.166 51.2166L282.489 52.449L282.185 52.8826L281.881 53.3162L281.531 53.8182L281.325 54.1301L281.059 54.4496L280.45 55.1647C280.238 55.4342 280.007 55.6884 279.758 55.9254L278.959 56.6861C278.695 56.961 278.41 57.2154 278.107 57.4468C277.537 57.9444 276.935 58.4044 276.305 58.8237C275.773 59.2351 275.217 59.6137 274.639 59.9571L273.399 60.6114C273.285 60.6756 273.165 60.7291 273.041 60.7711L272.912 60.8243L272.425 61.0221C272.105 61.1438 271.664 61.3492 271.124 61.5394L269.222 62.0947L266.994 62.5207L264.711 62.7033H262.734C262.155 62.6653 261.676 62.5816 261.341 62.5512L260.817 62.4903H260.68C260.548 62.4804 260.418 62.4575 260.292 62.4218L258.93 62.1252C258.288 61.9746 257.656 61.7867 257.036 61.5622C256.317 61.3197 255.614 61.0352 254.929 60.7102C254.574 60.564 254.231 60.391 253.902 60.193L252.928 59.6452C252.623 59.4764 252.331 59.2858 252.053 59.0747L251.293 58.5498C251.171 58.4662 251.057 58.3901 250.95 58.3064L250.661 58.063L250.197 57.675L249.786 57.3327L249.383 56.9904L248.402 55.9863C247.933 55.5122 247.501 55.0037 247.109 54.4648C246.629 53.8803 246.192 53.2626 245.8 52.6163C245.04 51.417 244.405 50.1424 243.906 48.8128C243.72 48.3842 243.567 47.9417 243.45 47.4892L243.305 46.9795L243.153 46.4698C243.026 46.0203 242.93 45.5629 242.864 45.1006L242.689 44.1801C242.633 43.8352 242.597 43.4871 242.582 43.1379C242.582 42.7804 242.522 42.3772 242.491 42.0273C242.472 41.8351 242.472 41.6414 242.491 41.4492V40.871C242.491 40.4907 242.491 40.1103 242.491 39.7224C242.491 39.3344 242.575 38.9617 242.613 38.6117C242.651 38.2618 242.697 37.9043 242.727 37.5772C242.757 37.2501 242.864 36.9458 242.925 36.6643C243.054 36.1014 243.138 35.6222 243.229 35.3027L243.396 34.8006L243.564 34.2909C243.609 34.1312 243.678 33.9334 243.746 33.7128C243.815 33.4922 243.815 33.477 243.868 33.3553L244.035 32.9749L244.408 32.1229C244.533 31.7972 244.683 31.4818 244.857 31.1797L245.405 30.206L245.679 29.6963C245.777 29.5365 245.899 29.3844 246.006 29.2246C246.411 28.5853 246.861 27.9753 247.352 27.3989C247.757 26.8782 248.197 26.3851 248.668 25.9232C249.087 25.5124 249.429 25.1625 249.665 24.9343C249.9 24.7061 250.083 24.5996 250.083 24.5996L250.494 24.2648L250.965 23.8845C251.161 23.7087 251.373 23.5509 251.597 23.4129C252.091 23.1086 252.639 22.7054 253.263 22.3403L254.244 21.823C254.579 21.6334 254.924 21.4632 255.279 21.3133L256.344 20.8873L256.869 20.6667C257.044 20.6059 257.226 20.5678 257.393 20.507L258.398 20.2179C258.692 20.1146 258.995 20.0357 259.303 19.9821L261.205 19.6245L263.129 19.4268Z" fill="#96AAF3"/>
</g>
</g>
<path d="M53.5783 69.9417C67.4362 69.9417 78.6702 58.7077 78.6702 44.8498C78.6702 30.9919 67.4362 19.7578 53.5783 19.7578C39.7204 19.7578 28.4863 30.9919 28.4863 44.8498C28.4863 58.7077 39.7204 69.9417 53.5783 69.9417Z" stroke="#5072EB" stroke-width="15.2734" stroke-miterlimit="10"/>
<path d="M78.6707 44.8506C78.6747 48.1454 78.0277 51.4086 76.7671 54.4527C75.5066 57.4969 73.6571 60.2621 71.3249 62.5895C68.997 64.9235 66.2309 66.7746 63.1854 68.0365C60.14 69.2983 56.8753 69.9461 53.5788 69.9425C50.2834 69.9455 47.02 69.2975 43.9758 68.0356C40.9316 66.7738 38.1667 64.923 35.8398 62.5895" stroke="#738EEF" stroke-width="15.2734" stroke-miterlimit="10"/>
<path d="M35.8394 62.5887C33.5059 60.2618 31.6551 57.4969 30.3932 54.4528C29.1314 51.4086 28.4834 48.1451 28.4863 44.8498C28.4828 41.5533 29.1305 38.2885 30.3924 35.2431C31.6543 32.1977 33.5054 29.4315 35.8394 27.1036C38.1668 24.7714 40.932 22.922 43.9762 21.6614C47.0203 20.4008 50.2835 19.7539 53.5783 19.7578" stroke="#B9C7F7" stroke-width="15.2734" stroke-miterlimit="10"/>
<path d="M59.3732 52.9678H294.554C296.977 52.9678 299.3 53.9302 301.013 55.6433C302.726 57.3565 303.689 59.68 303.689 62.1027V204.429H50.2383V62.1027C50.2383 59.68 51.2007 57.3565 52.9138 55.6433C54.627 53.9302 56.9505 52.9678 59.3732 52.9678Z" fill="url(#paint0_linear_475_6682)"/>
<g style="mix-blend-mode:multiply" opacity="0.4">
<path d="M303.689 199.638H50.2383V204.427H303.689V199.638Z" fill="#C5CAE9"/>
</g>
<path d="M23.5764 204.428H330.361C330.361 210.858 325.153 216.073 318.723 216.083L35.6584 216.492C28.9884 216.502 23.5763 211.098 23.5764 204.428Z" fill="url(#paint1_linear_475_6682)"/>
<path d="M23.5762 204.428C23.576 211.098 28.9882 216.502 35.6581 216.492L318.723 216.083C325.153 216.073 330.361 210.858 330.361 204.428" stroke="#092E4C" stroke-width="3"/>
<g opacity="0.4" filter="url(#filter0_i_475_6682)">
<path d="M153.517 204.428H200.406V205.123C200.406 205.697 200.262 206.265 199.981 206.796C199.701 207.326 199.29 207.808 198.772 208.214C198.254 208.619 197.639 208.941 196.962 209.161C196.286 209.381 195.56 209.494 194.828 209.494H159.059C158.326 209.494 157.601 209.381 156.924 209.161C156.247 208.941 155.632 208.619 155.114 208.214C154.596 207.808 154.185 207.326 153.905 206.796C153.625 206.265 153.48 205.697 153.48 205.123V204.428H153.517Z" fill="url(#paint2_linear_475_6682)"/>
</g>
<mask id="mask0_475_6682" style="mask-type:alpha" maskUnits="userSpaceOnUse" x="56" y="59" width="240" height="138">
<path d="M291.666 59.3066H60.1392C58.2911 59.3066 56.793 60.902 56.793 62.87V192.496C56.793 194.464 58.2911 196.059 60.1392 196.059H291.666C293.514 196.059 295.012 194.464 295.012 192.496V62.87C295.012 60.902 293.514 59.3066 291.666 59.3066Z" fill="url(#paint3_linear_475_6682)"/>
</mask>
<g mask="url(#mask0_475_6682)">
<path d="M291.666 59.3066H60.1392C58.2911 59.3066 56.793 60.902 56.793 62.87V192.496C56.793 194.464 58.2911 196.059 60.1392 196.059H291.666C293.514 196.059 295.012 194.464 295.012 192.496V62.87C295.012 60.902 293.514 59.3066 291.666 59.3066Z" fill="url(#paint4_linear_475_6682)"/>
<g filter="url(#filter1_f_475_6682)">
<path d="M308.199 209.494H45.6855L50.1255 222.259L250.757 266.936L308.199 209.494Z" fill="#CEA6F5"/>
</g>
</g>
<path d="M60.1392 60.3066H291.666C292.904 60.3066 294.012 61.3941 294.012 62.87V192.496C294.012 193.972 292.904 195.059 291.666 195.059H60.1392C58.9017 195.059 57.793 193.972 57.793 192.496V62.87C57.793 61.3941 58.9017 60.3066 60.1392 60.3066Z" stroke="url(#paint5_linear_475_6682)" stroke-width="2"/>
<g opacity="0.54" filter="url(#filter2_d_475_6682)">
<path d="M120.737 108.308H6.51213C3.58005 108.308 1.20312 110.955 1.20312 114.221V177.583C1.20312 180.849 3.58005 183.496 6.51213 183.496H120.737C123.669 183.496 126.046 180.849 126.046 177.583V114.221C126.046 110.955 123.669 108.308 120.737 108.308Z" fill="url(#paint6_linear_475_6682)" style="mix-blend-mode:screen" shape-rendering="crispEdges"/>
</g>
<path d="M43.9964 162.891C29.5408 168.591 15.801 156.835 12.7441 152.11V174.054H114.932V138.323C91.9323 140.091 90.3311 120.734 74.0858 124.89C59.9385 128.51 58.452 157.191 43.9964 162.891Z" fill="url(#paint7_linear_475_6682)"/>
<path d="M12.6875 151.979C15.879 156.913 28.3062 169.167 43.3984 163.215C58.4905 157.263 59.8414 128.696 74.6116 124.916C91.5722 120.576 91.1578 140.316 115.17 138.47" stroke="#5072EB" stroke-width="2"/>
<path d="M10.1565 121.354C11.3616 121.354 12.3384 120.377 12.3384 119.172C12.3384 117.967 11.3616 116.99 10.1565 116.99C8.95148 116.99 7.97461 117.967 7.97461 119.172C7.97461 120.377 8.95148 121.354 10.1565 121.354Z" fill="#5072EB"/>
<path d="M20.0921 121.354C21.2971 121.354 22.274 120.377 22.274 119.172C22.274 117.967 21.2971 116.99 20.0921 116.99C18.887 116.99 17.9102 117.967 17.9102 119.172C17.9102 120.377 18.887 121.354 20.0921 121.354Z" fill="#5072EB"/>
<path d="M30.0198 121.354C31.2248 121.354 32.2017 120.377 32.2017 119.172C32.2017 117.967 31.2248 116.99 30.0198 116.99C28.8148 116.99 27.8379 117.967 27.8379 119.172C27.8379 120.377 28.8148 121.354 30.0198 121.354Z" fill="#5072EB"/>
<g filter="url(#filter3_d_475_6682)">
<path d="M369.469 39.0752H158.267C154.861 39.0752 152.1 41.8365 152.1 45.2427V152.767C152.1 156.173 154.861 158.935 158.267 158.935H369.469C372.875 158.935 375.636 156.173 375.636 152.767V45.2427C375.636 41.8365 372.875 39.0752 369.469 39.0752Z" fill="url(#paint8_linear_475_6682)"/>
</g>
<path d="M265.411 40.6147H371.012C374.418 40.6147 377.18 43.3051 377.18 46.6237V99.0038" stroke="url(#paint9_linear_475_6682)" stroke-width="3"/>
<path d="M364.224 66.6729H297.479C295.435 66.6729 293.777 68.1583 293.777 69.9907V136.484C293.777 138.317 295.435 139.802 297.479 139.802H364.224C366.268 139.802 367.926 138.317 367.926 136.484V69.9907C367.926 68.1583 366.268 66.6729 364.224 66.6729Z" fill="#B9C7F7"/>
<path d="M286.526 101.535C286.526 103.867 284.636 105.757 282.304 105.757H164.023C161.691 105.757 159.801 103.867 159.801 101.535C159.801 99.2037 161.691 97.3135 164.023 97.3135H282.304C284.636 97.3135 286.526 99.2037 286.526 101.535Z" fill="#B9C7F7"/>
<path d="M286.525 137.801C286.525 138.906 285.63 139.801 284.525 139.801H163.201C162.097 139.801 161.201 138.906 161.201 137.801V117.598C161.201 116.493 162.097 115.598 163.201 115.598H284.525C285.63 115.598 286.525 116.493 286.525 117.598V137.801Z" fill="#B9C7F7"/>
<path d="M286.526 86.2152C286.526 88.5469 284.636 90.4371 282.304 90.4371H164.023C161.691 90.4371 159.801 88.5469 159.801 86.2152C159.801 83.8834 161.691 81.9932 164.023 81.9932H282.304C284.636 81.9932 286.526 83.8834 286.526 86.2152Z" fill="#B9C7F7"/>
<path d="M286.526 70.8948C286.526 73.2266 284.636 75.1168 282.304 75.1168H164.023C161.691 75.1168 159.801 73.2266 159.801 70.8948C159.801 68.5631 161.691 66.6729 164.023 66.6729H282.304C284.636 66.6729 286.526 68.5631 286.526 70.8948Z" fill="#B9C7F7"/>
<path d="M331.863 106.998C339.645 106.998 345.954 100.689 345.954 92.9065C345.954 85.1242 339.645 78.8154 331.863 78.8154C324.08 78.8154 317.771 85.1242 317.771 92.9065C317.771 100.689 324.08 106.998 331.863 106.998Z" stroke="#5072EB" stroke-width="1.45461" stroke-miterlimit="10"/>
<path d="M336.065 128.496C338.387 126.173 338.387 122.409 336.065 120.087C333.743 117.764 329.978 117.764 327.656 120.087C325.334 122.409 325.334 126.173 327.656 128.496C329.978 130.818 333.743 130.818 336.065 128.496Z" fill="#5072EB"/>
<path d="M332.025 118.361V107.355" stroke="#5072EB" stroke-width="1.5"/>
<path d="M356.658 112.297C357.184 109.046 354.974 105.985 351.723 105.459C348.472 104.934 345.41 107.144 344.885 110.395C344.36 113.646 346.569 116.707 349.82 117.233C353.071 117.758 356.133 115.548 356.658 112.297Z" fill="#5072EB"/>
<path d="M319.449 112.478C320.207 109.282 318.231 106.078 315.035 105.32C311.84 104.563 308.635 106.539 307.878 109.734C307.12 112.929 309.096 116.134 312.291 116.891C315.487 117.649 318.691 115.673 319.449 112.478Z" fill="#5072EB"/>
<path d="M341.898 102.949L347.03 108.08" stroke="#5072EB" stroke-width="1.45461" stroke-miterlimit="10"/>
<path d="M321.82 102.949L317.771 106.998" stroke="#5072EB" stroke-width="1.45461" stroke-miterlimit="10"/>
<path d="M331.863 93.3583C334.411 93.3583 336.477 91.2922 336.477 88.7436C336.477 86.195 334.411 84.1289 331.863 84.1289C329.314 84.1289 327.248 86.195 327.248 88.7436C327.248 91.2922 329.314 93.3583 331.863 93.3583Z" fill="#5072EB"/>
<path d="M337.085 92.3115C336.505 93.1617 335.726 93.8574 334.815 94.3382C333.905 94.8191 332.891 95.0705 331.862 95.0707C330.833 95.0705 329.819 94.8191 328.909 94.3382C327.998 93.8574 327.219 93.1617 326.639 92.3115C325.741 92.628 324.963 93.2151 324.413 93.9919C323.863 94.7688 323.567 95.6971 323.566 96.6491V99.8119H340.158V96.6491C340.157 95.6971 339.861 94.7688 339.311 93.9919C338.761 93.2151 337.983 92.628 337.085 92.3115Z" fill="#5072EB"/>
<defs>
<filter id="filter0_i_475_6682" x="153.48" y="204.428" width="46.9258" height="5.06592" filterUnits="userSpaceOnUse" color-interpolation-filters="sRGB">
<feFlood flood-opacity="0" result="BackgroundImageFix"/>
<feBlend mode="normal" in="SourceGraphic" in2="BackgroundImageFix" result="shape"/>
<feColorMatrix in="SourceAlpha" type="matrix" values="0 0 0 0 0 0 0 0 0 0 0 0 0 0 0 0 0 0 127 0" result="hardAlpha"/>
<feOffset dy="-1"/>
<feComposite in2="hardAlpha" operator="arithmetic" k2="-1" k3="1"/>
<feColorMatrix type="matrix" values="0 0 0 0 0.028 0 0 0 0 0 0 0 0 0 0.2 0 0 0 1 0"/>
<feBlend mode="normal" in2="shape" result="effect1_innerShadow_475_6682"/>
</filter>
<filter id="filter1_f_475_6682" x="13.6855" y="177.494" width="326.514" height="121.442" filterUnits="userSpaceOnUse" color-interpolation-filters="sRGB">
<feFlood flood-opacity="0" result="BackgroundImageFix"/>
<feBlend mode="normal" in="SourceGraphic" in2="BackgroundImageFix" result="shape"/>
<feGaussianBlur stdDeviation="16" result="effect1_foregroundBlur_475_6682"/>
</filter>
<filter id="filter2_d_475_6682" x="0.203125" y="107.308" width="130.844" height="81.1885" filterUnits="userSpaceOnUse" color-interpolation-filters="sRGB">
<feFlood flood-opacity="0" result="BackgroundImageFix"/>
<feColorMatrix in="SourceAlpha" type="matrix" values="0 0 0 0 0 0 0 0 0 0 0 0 0 0 0 0 0 0 127 0" result="hardAlpha"/>
<feOffset dx="2" dy="2"/>
<feGaussianBlur stdDeviation="1.5"/>
<feComposite in2="hardAlpha" operator="out"/>
<feColorMatrix type="matrix" values="0 0 0 0 0.0492708 0 0 0 0 0.0544667 0 0 0 0 0.179167 0 0 0 0.25 0"/>
<feBlend mode="normal" in2="BackgroundImageFix" result="effect1_dropShadow_475_6682"/>
<feBlend mode="normal" in="SourceGraphic" in2="effect1_dropShadow_475_6682" result="shape"/>
</filter>
<filter id="filter3_d_475_6682" x="147.1" y="38.0752" width="233.537" height="129.859" filterUnits="userSpaceOnUse" color-interpolation-filters="sRGB">
<feFlood flood-opacity="0" result="BackgroundImageFix"/>
<feColorMatrix in="SourceAlpha" type="matrix" values="0 0 0 0 0 0 0 0 0 0 0 0 0 0 0 0 0 0 127 0" result="hardAlpha"/>
<feOffset dy="4"/>
<feGaussianBlur stdDeviation="2.5"/>
<feComposite in2="hardAlpha" operator="out"/>
<feColorMatrix type="matrix" values="0 0 0 0 0.041 0 0 0 0 0 0 0 0 0 0.5125 0 0 0 0.15 0"/>
<feBlend mode="normal" in2="BackgroundImageFix" result="effect1_dropShadow_475_6682"/>
<feBlend mode="normal" in="SourceGraphic" in2="effect1_dropShadow_475_6682" result="shape"/>
</filter>
<linearGradient id="paint0_linear_475_6682" x1="-262.603" y1="407.994" x2="467.004" y2="4.75643" gradientUnits="userSpaceOnUse">
<stop stop-color="#04192A"/>
<stop offset="1" stop-color="#0D4069"/>
</linearGradient>
<linearGradient id="paint1_linear_475_6682" x1="773.331" y1="182.67" x2="-85.9538" y2="339.116" gradientUnits="userSpaceOnUse">
<stop stop-color="#F3F6FF"/>
<stop offset="1" stop-color="#D2DCFF"/>
</linearGradient>
<linearGradient id="paint2_linear_475_6682" x1="153.517" y1="206.958" x2="200.413" y2="206.958" gradientUnits="userSpaceOnUse">
<stop stop-color="#3949AB"/>
<stop offset="1" stop-color="#5C6BC0"/>
</linearGradient>
<linearGradient id="paint3_linear_475_6682" x1="322.731" y1="169.211" x2="-362.481" y2="-255.862" gradientUnits="userSpaceOnUse">
<stop stop-color="#E3E7FF"/>
<stop offset="1" stop-color="#AAB7FF"/>
</linearGradient>
<linearGradient id="paint4_linear_475_6682" x1="322.731" y1="169.211" x2="-362.481" y2="-255.862" gradientUnits="userSpaceOnUse">
<stop stop-color="#E3E7FF"/>
<stop offset="1" stop-color="#AAB7FF"/>
</linearGradient>
<linearGradient id="paint5_linear_475_6682" x1="195.456" y1="184.857" x2="195.457" y2="15.5689" gradientUnits="userSpaceOnUse">
<stop stop-color="#A5B1FF" stop-opacity="0"/>
<stop offset="1" stop-color="#485ED9"/>
</linearGradient>
<linearGradient id="paint6_linear_475_6682" x1="63.6247" y1="108.308" x2="63.6247" y2="194.718" gradientUnits="userSpaceOnUse">
<stop stop-color="white"/>
<stop offset="1" stop-color="white"/>
</linearGradient>
<linearGradient id="paint7_linear_475_6682" x1="63.838" y1="124.304" x2="63.838" y2="174.054" gradientUnits="userSpaceOnUse">
<stop stop-color="#96B1FB" stop-opacity="0.33"/>
<stop offset="1" stop-color="#5259FA" stop-opacity="0"/>
<stop offset="1" stop-color="#5259FA"/>
</linearGradient>
<linearGradient id="paint8_linear_475_6682" x1="263.872" y1="196.5" x2="313.605" y2="17.901" gradientUnits="userSpaceOnUse">
<stop stop-color="#EDF0FF"/>
<stop offset="1" stop-color="white"/>
</linearGradient>
<linearGradient id="paint9_linear_475_6682" x1="321.296" y1="31.9742" x2="321.296" y2="90.9269" gradientUnits="userSpaceOnUse">
<stop stop-color="#819CFF"/>
<stop offset="1" stop-color="#819CFF" stop-opacity="0"/>
</linearGradient>
</defs>
</svg>
