<svg xmlns="http://www.w3.org/2000/svg" viewBox="0 0 37 41" fill="none">
  <path d="M15.1787 8V31.3333C15.1787 31.3333 15.9376 33.8333 23.5269 33.8333C31.1162 33.8333 31.8751 31.3333 31.8751 31.3333V8H15.1787Z" fill="#1565C0"/>
  <path d="M31.8751 6.33325C31.8751 4.95304 28.1368 3.83325 23.5269 3.83325C18.917 3.83325 15.1787 4.95304 15.1787 6.33325C15.1787 7.71346 18.917 8.83325 23.5269 8.83325C28.1368 8.83325 31.8751 7.71346 31.8751 6.33325Z" fill="#1565C0"/>
  <path d="M15.1787 11.3333C15.1787 11.3333 15.9376 13.8333 23.5269 13.8333C31.1162 13.8333 31.8751 11.3333 31.8751 11.3333V13.8333C31.8751 13.8333 31.1162 16.3333 23.5269 16.3333C15.9376 16.3333 15.1787 13.8333 15.1787 13.8333V11.3333ZM15.1787 18.8333C15.1787 18.8333 15.9376 21.3333 23.5269 21.3333C31.1162 21.3333 31.8751 18.8333 31.8751 18.8333V16.3333C31.8751 16.3333 31.1162 18.8333 23.5269 18.8333C15.9376 18.8333 15.1787 16.3333 15.1787 16.3333V18.8333ZM15.1787 23.8333C15.1787 23.8333 15.9376 26.3333 23.5269 26.3333C31.1162 26.3333 31.8751 23.8333 31.8751 23.8333V21.3333C31.8751 21.3333 31.1162 23.8333 23.5269 23.8333C15.9376 23.8333 15.1787 21.3333 15.1787 21.3333V23.8333ZM15.1787 28.8333C15.1787 28.8333 15.9376 31.3333 23.5269 31.3333C31.1162 31.3333 31.8751 28.8333 31.8751 28.8333V26.3333C31.8751 26.3333 31.1162 28.8333 23.5269 28.8333C15.9376 28.8333 15.1787 26.3333 15.1787 26.3333V28.8333ZM15.1787 8.83325C15.1787 8.83325 15.9376 11.3333 23.5269 11.3333C31.1162 11.3333 31.8751 8.83325 31.8751 8.83325V6.33325C31.8751 6.33325 31.1162 8.83325 23.5269 8.83325C15.9376 8.83325 15.1787 6.33325 15.1787 6.33325V8.83325Z" fill="#639FE3"/>
  <path d="M21.2501 27.0819V33.7421C21.935 33.7974 22.682 33.8333 23.5269 33.8333C23.7937 33.8333 24.0368 33.8235 24.2859 33.817V27.0819C24.2859 22.7883 19.2728 21.9583 15.2232 21.4309L15.1787 24.6796C18.6799 24.9758 21.2501 25.9394 21.2501 27.0819Z" fill="#215EA4"/>
  <path d="M23.5271 26.3333C23.7732 26.3333 23.9985 26.3235 24.2297 26.317C24.0637 25.259 23.5479 24.4517 22.8127 23.817C16.7472 23.6803 15.4457 21.8704 15.2234 21.4309L15.2026 23.0129C18.6919 23.3124 21.2503 24.2727 21.2503 25.4153V26.2421C21.9352 26.2974 22.6822 26.3333 23.5271 26.3333Z" fill="#00397A" fill-opacity="0.48"/>
  <path d="M21.25 28.7422V31.2422C21.9348 31.2975 22.6819 31.3333 23.5268 31.3333C23.7936 31.3333 24.0367 31.3236 24.2857 31.3171V28.8171C24.0367 28.8236 23.7936 28.8333 23.5268 28.8333C22.6819 28.8333 21.9348 28.7975 21.25 28.7422Z" fill="#00397A" fill-opacity="0.54"/>
  <path d="M4.55371 24.6665H21.2501V32.1665H4.55371V24.6665Z" fill="#CFD8DC"/>
  <path d="M4.55371 30.5C4.55371 30.5 5.31264 33 12.9019 33C20.4912 33 21.2501 30.5 21.2501 30.5V33.8333C21.2501 33.8333 20.4912 36.3333 12.9019 36.3333C5.31264 36.3333 4.55371 33.8333 4.55371 33.8333V30.5Z" fill="#CFD8DC"/>
  <path d="M21.2501 23.8333C21.2501 22.453 17.5118 21.3333 12.9019 21.3333C8.29203 21.3333 4.55371 22.453 4.55371 23.8333C4.55371 25.2135 8.29203 26.3333 12.9019 26.3333C17.5118 26.3333 21.2501 25.2135 21.2501 23.8333Z" fill="#CFD8DC"/>
  <path d="M13.6034 23.7192C13.4462 23.6604 13.229 23.6071 12.9494 23.5582C12.6706 23.5094 12.47 23.4551 12.3485 23.3952C12.2262 23.3354 12.1655 23.2552 12.1655 23.1545C12.1655 23.0464 12.2237 22.9616 12.3386 22.9008C12.4542 22.84 12.6207 22.8101 12.8387 22.8101C13.0467 22.8101 13.2132 22.851 13.3355 22.9327C13.4578 23.015 13.5194 23.1256 13.5194 23.2647V23.2751H14.0245V23.2652C14.0245 23.0633 13.9396 22.9038 13.7682 22.7877C13.5968 22.6716 13.3571 22.6023 13.0501 22.5794H13.0484V22.2544H12.6223V22.5799C12.3261 22.6008 12.0914 22.6616 11.92 22.7628C11.7452 22.8659 11.6579 22.9985 11.6579 23.16C11.6579 23.3185 11.7469 23.4496 11.925 23.5522C12.1039 23.6554 12.3877 23.7386 12.7779 23.8029C13.0584 23.8533 13.2573 23.9091 13.3754 23.9714C13.4928 24.0332 13.5518 24.1095 13.5518 24.2002C13.5518 24.3078 13.4836 24.3926 13.3463 24.4544C13.209 24.5167 13.0201 24.5476 12.7804 24.5476C12.535 24.5476 12.3452 24.5107 12.2121 24.4369C12.0781 24.3626 12.0115 24.2575 12.0115 24.1204H11.5039C11.5039 24.3153 11.6004 24.4698 11.7935 24.5839C11.9816 24.6946 12.2412 24.7584 12.5691 24.7773V25.0614H12.9951V24.7793H13.0001C13.3355 24.7604 13.596 24.7006 13.7815 24.5989C13.9671 24.4977 14.0603 24.3636 14.0603 24.1972C14.0603 24.093 14.0229 24.0018 13.9488 23.9241C13.8747 23.8463 13.7599 23.778 13.6034 23.7192Z" fill="#5072EB"/>
  <path d="M24.4682 6.17526C24.3109 6.11645 24.0937 6.06312 23.8141 6.01428C23.5353 5.96543 23.3348 5.91111 23.2133 5.8513C23.091 5.79149 23.0302 5.71125 23.0302 5.61057C23.0302 5.50242 23.0885 5.41769 23.2033 5.35688C23.319 5.29608 23.4854 5.26617 23.7034 5.26617C23.9115 5.26617 24.0779 5.30704 24.2002 5.38878C24.3226 5.47102 24.3841 5.58166 24.3841 5.72072V5.73118H24.8893V5.72121C24.8893 5.51936 24.8044 5.35987 24.633 5.24374C24.4615 5.12761 24.2219 5.05834 23.9148 5.03541H23.9131V4.71045H23.4871V5.03591C23.1908 5.05684 22.9562 5.11765 22.7847 5.21882C22.61 5.32199 22.5226 5.45457 22.5226 5.61605C22.5226 5.77454 22.6116 5.90562 22.7897 6.0083C22.9686 6.11147 23.2524 6.1947 23.6427 6.25899C23.9231 6.30933 24.122 6.36515 24.2402 6.42745C24.3575 6.48926 24.4166 6.56551 24.4166 6.65622C24.4166 6.76388 24.3484 6.84861 24.2111 6.91041C24.0737 6.97271 23.8848 7.00361 23.6452 7.00361C23.3997 7.00361 23.21 6.96673 23.0768 6.89297C22.9428 6.8187 22.8763 6.71354 22.8763 6.57648H22.3687C22.3687 6.77135 22.4652 6.92586 22.6582 7.03999C22.8463 7.15064 23.1059 7.21444 23.4338 7.23338V7.51747H23.8599V7.23537H23.8649C24.2002 7.21643 24.4607 7.15662 24.6463 7.05495C24.8318 6.95377 24.925 6.8197 24.925 6.65323C24.925 6.54907 24.8876 6.45786 24.8135 6.38011C24.7395 6.30236 24.6246 6.23407 24.4682 6.17526Z" fill="#B7B7B7"/>
  <path d="M4.55371 23.8333C4.55371 23.8333 5.31264 26.3333 12.9019 26.3333C20.4912 26.3333 21.2501 23.8333 21.2501 23.8333V26.3333C21.2501 26.3333 20.4912 28.8333 12.9019 28.8333C5.31264 28.8333 4.55371 26.3333 4.55371 26.3333V23.8333Z" fill="#90A4AE"/>
  <path d="M4.55371 28.8333C4.55371 28.8333 5.31264 31.3333 12.9019 31.3333C20.4912 31.3333 21.2501 28.8333 21.2501 28.8333V31.3333C21.2501 31.3333 20.4912 33.8333 12.9019 33.8333C5.31264 33.8333 4.55371 31.3333 4.55371 31.3333V28.8333Z" fill="#90A4AE"/>
</svg>