<svg width="21" height="20" viewBox="0 0 21 20" fill="none" xmlns="http://www.w3.org/2000/svg">
<path d="M16.7891 15.0271C16.7891 15.0271 16.8346 15.0733 16.9258 15.1656C17.0169 15.258 17.0625 15.4361 17.0625 15.7C17.0625 15.9639 16.9714 16.1882 16.7891 16.3729C16.6068 16.5576 16.3854 16.65 16.125 16.65C15.8646 16.65 15.6432 16.5576 15.4609 16.3729C15.2786 16.1882 15.1875 15.9639 15.1875 15.7C15.1875 15.4361 15.2786 15.2118 15.4609 15.0271C15.6432 14.8424 15.8646 14.75 16.125 14.75C16.3854 14.75 16.6068 14.8424 16.7891 15.0271ZM12.9609 15.0271C12.9609 15.0271 13.0065 14.9809 13.0977 14.8885C13.1888 14.7962 13.3646 14.75 13.625 14.75C13.8854 14.75 14.1068 14.8424 14.2891 15.0271C14.4714 15.2118 14.5625 15.4361 14.5625 15.7C14.5625 15.9639 14.4714 16.1882 14.2891 16.3729C14.1068 16.5576 13.8854 16.65 13.625 16.65C13.3646 16.65 13.1432 16.5576 12.9609 16.3729C12.7786 16.1882 12.6875 15.9639 12.6875 15.7C12.6875 15.4361 12.7786 15.2118 12.9609 15.0271ZM15.4609 9.32708C15.4609 9.32708 15.5065 9.2809 15.5977 9.18854C15.6888 9.09618 15.8646 9.05 16.125 9.05C16.3854 9.05 16.6068 9.14236 16.7891 9.32708C16.9714 9.51181 17.0625 9.73611 17.0625 10C17.0625 10.2639 16.9714 10.4882 16.7891 10.6729C16.6068 10.8576 16.3854 10.95 16.125 10.95C15.8646 10.95 15.6432 10.8576 15.4609 10.6729C15.2786 10.4882 15.1875 10.2639 15.1875 10C15.1875 9.73611 15.2786 9.51181 15.4609 9.32708ZM12.9609 9.32708C12.9609 9.32708 13.0065 9.2809 13.0977 9.18854C13.1888 9.09618 13.3646 9.05 13.625 9.05C13.8854 9.05 14.1068 9.14236 14.2891 9.32708C14.4714 9.51181 14.5625 9.73611 14.5625 10C14.5625 10.2639 14.4714 10.4882 14.2891 10.6729C14.1068 10.8576 13.8854 10.95 13.625 10.95C13.3646 10.95 13.1432 10.8576 12.9609 10.6729C12.7786 10.4882 12.6875 10.2639 12.6875 10C12.6875 9.73611 12.7786 9.51181 12.9609 9.32708ZM20.5 6.2C20.5 6.54306 20.4219 6.85972 20.2656 7.15C20.4219 7.44028 20.5 7.75694 20.5 8.1V11.9C20.5 12.2431 20.4219 12.5597 20.2656 12.85C20.4219 13.1403 20.5 13.4569 20.5 13.8V17.6C20.5 18.1278 20.3177 18.5764 19.9531 18.9458C19.5885 19.3153 19.1458 19.5 18.625 19.5H2.375C1.85417 19.5 1.41146 19.3153 1.04688 18.9458C0.682292 18.5764 0.5 18.1278 0.5 17.6V13.8C0.5 13.4569 0.578125 13.1403 0.734375 12.85C0.578125 12.5597 0.5 12.2431 0.5 11.9V8.1C0.5 7.75694 0.578125 7.44028 0.734375 7.15C0.578125 6.85972 0.5 6.54306 0.5 6.2V2.4C0.5 1.87222 0.682292 1.42361 1.04688 1.05417C1.41146 0.684723 1.85417 0.5 2.375 0.5H18.625C19.1458 0.5 19.5885 0.684723 19.9531 1.05417C20.3177 1.42361 20.5 1.87222 20.5 2.4V6.2ZM2.375 6.2H18.625V2.4H2.375V6.2ZM18.625 8.1H2.375V11.9H18.625V8.1ZM18.625 13.8H2.375V17.6H18.625V13.8ZM16.7891 4.97292C16.7891 4.97292 16.7435 5.0191 16.6523 5.11146C16.5612 5.20382 16.3854 5.25 16.125 5.25C15.8646 5.25 15.6432 5.15764 15.4609 4.97292C15.2786 4.78819 15.1875 4.56389 15.1875 4.3C15.1875 4.03611 15.2786 3.81181 15.4609 3.62708C15.6432 3.44236 15.8646 3.35 16.125 3.35C16.3854 3.35 16.6068 3.44236 16.7891 3.62708C16.9714 3.81181 17.0625 4.03611 17.0625 4.3C17.0625 4.56389 16.9714 4.78819 16.7891 4.97292ZM14.2891 4.97292C14.2891 4.97292 14.2435 5.0191 14.1523 5.11146C14.0612 5.20382 13.8854 5.25 13.625 5.25C13.3646 5.25 13.1432 5.15764 12.9609 4.97292C12.7786 4.78819 12.6875 4.56389 12.6875 4.3C12.6875 4.03611 12.7786 3.81181 12.9609 3.62708C13.1432 3.44236 13.3646 3.35 13.625 3.35C13.8854 3.35 14.1068 3.44236 14.2891 3.62708C14.4714 3.81181 14.5625 4.03611 14.5625 4.3C14.5625 4.56389 14.4714 4.78819 14.2891 4.97292Z" fill="#3F3F46"/>
</svg>
