<svg width="240" height="219" viewBox="0 0 240 219" fill="none" xmlns="http://www.w3.org/2000/svg">
<path fill-rule="evenodd" clip-rule="evenodd" d="M0.00180382 0.186417H180.852L180.855 30.3332H0.00423423L0.00180382 0.186417ZM173.822 91.9152C176.471 91.925 179.008 92.9797 180.882 94.8512C182.754 96.725 183.811 99.2624 183.821 101.912V130.438C183.826 127.956 184.815 125.579 186.57 123.827C188.322 122.072 190.699 121.086 193.18 121.078C195.659 121.085 198.036 122.072 199.791 123.827C201.546 125.579 202.535 127.956 202.542 130.438V142.838C202.542 139.494 204.329 136.402 207.226 134.73C210.123 133.056 213.691 133.056 216.588 134.73C219.485 136.402 221.269 139.494 221.269 142.838V150.049C221.278 147.568 222.268 145.191 224.022 143.436C225.777 141.681 228.156 140.692 230.638 140.685C233.117 140.692 235.496 141.681 237.251 143.436C239.006 145.191 239.993 147.568 240 150.049V185.844C240 226.06 173.14 229.123 164.66 193.091L142.655 163.183C141.153 161.183 140.511 158.665 140.876 156.188C141.243 153.714 142.582 151.488 144.599 150.008C146.616 148.527 149.142 147.917 151.613 148.311C154.082 148.702 156.294 150.068 157.75 152.103L163.823 160.361V101.912C163.831 99.263 164.888 96.7233 166.762 94.8516C168.633 92.9778 171.172 91.9226 173.822 91.9152ZM86.1683 19.468H157.577C159.535 19.4048 161.093 17.7983 161.093 15.8394C161.093 13.878 159.535 12.2715 157.577 12.2108H86.1621C85.1802 12.1792 84.2274 12.5462 83.5202 13.2315C82.8154 13.9145 82.4168 14.8551 82.4168 15.8394C82.4168 16.8212 82.8154 17.7618 83.5202 18.4472C84.2274 19.1302 85.1802 19.4996 86.1621 19.468H86.1683ZM120.989 137.241H144.211C146.214 137.241 147.838 138.865 147.838 140.868V141.184C150.8 140.766 153.819 141.145 156.585 142.285V101.908C156.573 96.0554 159.528 90.5989 164.435 87.4102C169.342 84.224 175.53 83.7452 180.869 86.1367V37.5795H0V163.784H134.753C133.428 160.434 133.224 156.745 134.172 153.267C135.118 149.792 137.166 146.715 140.005 144.501H120.982V149.369V149.366C120.982 151.372 119.356 152.997 117.351 152.997C115.346 152.997 113.72 151.372 113.72 149.366V132.371C113.72 130.366 115.346 128.74 117.351 128.74C119.356 128.74 120.982 130.366 120.982 132.371V137.239L120.989 137.241ZM36.633 144.504H36.6306C34.6254 144.504 32.9995 142.878 32.9995 140.873C32.9995 138.867 34.6255 137.242 36.6306 137.242H96.1924C98.1975 137.242 99.8234 138.868 99.8234 140.873C99.8234 142.878 98.1974 144.504 96.1924 144.504H36.633ZM102.896 92.6824L92.2359 98.8289L81.5299 105.005L81.5323 105.007C79.8019 106.001 77.5927 105.41 76.5913 103.685C76.2656 103.136 76.0979 102.509 76.1028 101.869V77.1692C76.1028 75.8276 76.844 74.5954 78.0277 73.9635C79.2137 73.334 80.6501 73.4094 81.7632 74.1579L92.2527 80.2121C92.3134 80.2486 92.3742 80.2875 92.4301 80.3312L102.937 86.3902H102.939C104.07 87.0392 104.76 88.2471 104.752 89.5498C104.743 90.8525 104.033 92.048 102.896 92.6824ZM88.624 92.5803L83.3647 95.6135V83.4441L88.624 86.4773C88.6897 86.5186 88.7553 86.5502 88.8258 86.5867L93.9126 89.5201L88.6386 92.5679L88.624 92.5803ZM43.0807 54.0701C40.4121 54.075 37.8553 55.1396 35.9691 57.0255C34.0829 58.9115 33.021 61.4707 33.0162 64.1371V114.916C33.0234 117.582 34.0856 120.138 35.9715 122.025C37.8575 123.911 40.4119 124.973 43.0806 124.98H137.765C140.433 124.975 142.99 123.913 144.879 122.027C146.765 120.141 147.829 117.584 147.837 114.915V64.1346C147.832 61.4659 146.77 58.9068 144.881 57.018C142.993 55.132 140.436 54.0699 137.765 54.065L43.0807 54.0701ZM137.765 61.3248H43.0807C41.5325 61.3321 40.2809 62.5862 40.2784 64.1344V114.915C40.2857 116.461 41.5349 117.713 43.0807 117.725H137.765C138.511 117.72 139.226 117.421 139.751 116.894C140.278 116.369 140.574 115.659 140.574 114.915V64.1344C140.567 62.5862 139.313 61.3321 137.765 61.3248Z" fill="#B7C6DD"/>
</svg>
