<svg width="232" height="66" viewBox="0 0 232 66" fill="none" xmlns="http://www.w3.org/2000/svg">
<rect x="1" y="1.58496" width="230" height="63.2076" rx="7" fill="white"/>
<g clip-path="url(#clip0_1_218)">
<path d="M70.4906 21.868C69.9411 19.8363 68.3562 18.2453 66.3245 17.7019C63.5955 16.6483 37.1623 16.1321 29.4943 17.7321C27.4626 18.2816 25.8717 19.8665 25.3283 21.8982C24.0966 27.3019 24.003 38.9849 25.3585 44.5095C25.9079 46.5412 27.4928 48.1321 29.5245 48.6755C34.9283 49.9193 60.6189 50.0944 66.3547 48.6755C68.3864 48.1261 69.9774 46.5412 70.5207 44.5095C71.834 38.6227 71.9275 27.6642 70.4906 21.868Z" fill="#FF0000"/>
<path d="M55.6981 33.1888L43.3811 26.1246V40.2529L55.6981 33.1888Z" fill="white"/>
</g>
<path d="M98.9858 29.7541C98.9176 29.0666 98.625 28.5325 98.108 28.1518C97.5909 27.7711 96.8892 27.5808 96.0028 27.5808C95.4006 27.5808 94.892 27.666 94.4773 27.8365C94.0625 28.0012 93.7443 28.2313 93.5227 28.5268C93.3068 28.8223 93.1989 29.1575 93.1989 29.5325C93.1875 29.845 93.2528 30.1177 93.3949 30.3507C93.5426 30.5836 93.7443 30.7853 94 30.9558C94.2557 31.1206 94.5511 31.2654 94.8864 31.3904C95.2216 31.5098 95.5795 31.612 95.9602 31.6973L97.5284 32.0723C98.2898 32.2427 98.9886 32.47 99.625 32.7541C100.261 33.0382 100.813 33.3876 101.278 33.8024C101.744 34.2171 102.105 34.7058 102.361 35.2683C102.622 35.8308 102.756 36.4757 102.761 37.2029C102.756 38.2711 102.483 39.1973 101.943 39.9813C101.409 40.7598 100.636 41.3649 99.625 41.7967C98.6193 42.2228 97.4063 42.4359 95.9858 42.4359C94.5767 42.4359 93.3494 42.22 92.304 41.7882C91.2642 41.3563 90.4517 40.7171 89.8665 39.8706C89.2869 39.0183 88.983 37.9643 88.9545 36.7086H92.5256C92.5653 37.2938 92.733 37.7825 93.0284 38.1745C93.3295 38.5609 93.7301 38.8535 94.2301 39.0524C94.7358 39.2456 95.3068 39.3421 95.9432 39.3421C96.5682 39.3421 97.1108 39.2512 97.571 39.0694C98.0369 38.8876 98.3977 38.6348 98.6534 38.3109C98.9091 37.987 99.0369 37.6149 99.0369 37.1944C99.0369 36.8024 98.9205 36.4728 98.6875 36.2058C98.4602 35.9387 98.125 35.7115 97.6818 35.524C97.2443 35.3365 96.7074 35.166 96.071 35.0126L94.1705 34.5353C92.6989 34.1774 91.5369 33.6177 90.6847 32.8563C89.8324 32.095 89.4091 31.0694 89.4148 29.7796C89.4091 28.7228 89.6903 27.7995 90.2585 27.0098C90.8324 26.22 91.6193 25.6035 92.6193 25.1603C93.6193 24.7171 94.7557 24.4956 96.0284 24.4956C97.3239 24.4956 98.4545 24.7171 99.4205 25.1603C100.392 25.6035 101.148 26.22 101.688 27.0098C102.227 27.7995 102.506 28.7143 102.523 29.7541H98.9858ZM113.57 36.6149V29.0978H117.201V42.1887H113.715V39.8109H113.579C113.283 40.5779 112.792 41.1944 112.104 41.6603C111.423 42.1262 110.59 42.3592 109.607 42.3592C108.732 42.3592 107.962 42.1603 107.298 41.7626C106.633 41.3649 106.113 40.7995 105.738 40.0666C105.369 39.3336 105.181 38.4558 105.175 37.4331V29.0978H108.806V36.7853C108.812 37.5581 109.019 38.1688 109.428 38.6177C109.837 39.0666 110.386 39.291 111.073 39.291C111.511 39.291 111.92 39.1916 112.3 38.9927C112.681 38.7882 112.988 38.487 113.221 38.0893C113.46 37.6916 113.576 37.2001 113.57 36.6149ZM120.173 42.1887V24.7342H123.804V31.2967H123.915C124.074 30.9444 124.304 30.5865 124.605 30.2228C124.912 29.8535 125.31 29.5467 125.798 29.3024C126.293 29.0524 126.906 28.9274 127.639 28.9274C128.594 28.9274 129.474 29.1774 130.281 29.6774C131.088 30.1717 131.733 30.9188 132.216 31.9188C132.699 32.9132 132.94 34.1603 132.94 35.6603C132.94 37.1206 132.705 38.3535 132.233 39.3592C131.767 40.3592 131.131 41.1177 130.324 41.6348C129.523 42.1461 128.625 42.4018 127.631 42.4018C126.926 42.4018 126.327 42.2853 125.832 42.0524C125.344 41.8194 124.943 41.5268 124.631 41.1745C124.318 40.8166 124.08 40.4558 123.915 40.0921H123.753V42.1887H120.173ZM123.727 35.6433C123.727 36.4217 123.835 37.1007 124.051 37.6802C124.267 38.2598 124.58 38.7115 124.989 39.0353C125.398 39.3535 125.895 39.5126 126.48 39.5126C127.071 39.5126 127.571 39.3507 127.98 39.0268C128.389 38.6973 128.699 38.2427 128.909 37.6632C129.125 37.0779 129.233 36.4046 129.233 35.6433C129.233 34.8876 129.128 34.2228 128.918 33.649C128.707 33.0751 128.398 32.6262 127.989 32.3024C127.58 31.9785 127.077 31.8166 126.48 31.8166C125.889 31.8166 125.389 31.9728 124.98 32.2853C124.577 32.5978 124.267 33.041 124.051 33.6149C123.835 34.1887 123.727 34.8649 123.727 35.6433ZM146.255 32.8308L142.931 33.0353C142.874 32.7512 142.752 32.4956 142.565 32.2683C142.377 32.0353 142.13 31.8507 141.823 31.7143C141.522 31.5723 141.161 31.5012 140.741 31.5012C140.178 31.5012 139.704 31.6206 139.317 31.8592C138.931 32.0921 138.738 32.4046 138.738 32.7967C138.738 33.1092 138.863 33.3734 139.113 33.5893C139.363 33.8052 139.792 33.9785 140.4 34.1092L142.769 34.5865C144.042 34.8478 144.991 35.2683 145.616 35.8478C146.241 36.4274 146.553 37.1887 146.553 38.1319C146.553 38.9899 146.3 39.7427 145.795 40.3904C145.295 41.0382 144.607 41.5438 143.732 41.9075C142.863 42.2654 141.86 42.4444 140.724 42.4444C138.991 42.4444 137.61 42.0836 136.582 41.362C135.559 40.6348 134.96 39.6461 134.783 38.3961L138.354 38.2086C138.462 38.737 138.724 39.1404 139.138 39.4188C139.553 39.6916 140.085 39.8279 140.732 39.8279C141.369 39.8279 141.88 39.7058 142.266 39.4615C142.658 39.2115 142.857 38.8904 142.863 38.4984C142.857 38.1688 142.718 37.899 142.445 37.6887C142.173 37.4728 141.752 37.3081 141.184 37.1944L138.917 36.7427C137.638 36.487 136.687 36.0438 136.062 35.4132C135.442 34.7825 135.133 33.9785 135.133 33.0012C135.133 32.1603 135.36 31.4359 135.815 30.8279C136.275 30.22 136.92 29.7512 137.749 29.4217C138.585 29.0921 139.562 28.9274 140.681 28.9274C142.335 28.9274 143.636 29.2768 144.585 29.9757C145.539 30.6745 146.096 31.6262 146.255 32.8308ZM154.754 42.4444C153.413 42.4444 152.26 42.1603 151.294 41.5921C150.334 41.0183 149.595 40.2228 149.078 39.2058C148.567 38.1887 148.311 37.0183 148.311 35.6944C148.311 34.3535 148.57 33.1774 149.087 32.166C149.609 31.149 150.351 30.3563 151.311 29.7882C152.271 29.2143 153.413 28.9274 154.737 28.9274C155.879 28.9274 156.879 29.1348 157.737 29.5495C158.595 29.9643 159.274 30.5467 159.774 31.2967C160.274 32.0467 160.55 32.9274 160.601 33.9387H157.175C157.078 33.2853 156.822 32.7598 156.408 32.362C155.999 31.9586 155.462 31.7569 154.797 31.7569C154.234 31.7569 153.743 31.9103 153.322 32.2171C152.908 32.5183 152.584 32.9586 152.351 33.5382C152.118 34.1177 152.001 34.8194 152.001 35.6433C152.001 36.4785 152.115 37.1887 152.342 37.774C152.575 38.3592 152.902 38.8052 153.322 39.112C153.743 39.4188 154.234 39.5723 154.797 39.5723C155.212 39.5723 155.584 39.487 155.913 39.3166C156.249 39.1461 156.524 38.899 156.74 38.5751C156.962 38.2456 157.107 37.8507 157.175 37.3904H160.601C160.544 38.3904 160.271 39.2711 159.783 40.0325C159.3 40.7882 158.632 41.3791 157.78 41.8052C156.928 42.2313 155.919 42.4444 154.754 42.4444ZM162.925 42.1887V29.0978H166.445V31.3819H166.582C166.82 30.5694 167.221 29.9558 167.783 29.541C168.346 29.1206 168.994 28.9103 169.727 28.9103C169.908 28.9103 170.104 28.9217 170.315 28.9444C170.525 28.9671 170.71 28.9984 170.869 29.0382V32.2598C170.698 32.2086 170.462 32.1632 170.161 32.1234C169.86 32.0836 169.585 32.0637 169.335 32.0637C168.8 32.0637 168.323 32.1802 167.903 32.4132C167.488 32.6404 167.158 32.9586 166.914 33.3677C166.675 33.7768 166.556 34.2484 166.556 34.7825V42.1887H162.925ZM172.746 42.1887V29.0978H176.376V42.1887H172.746ZM174.57 27.4103C174.03 27.4103 173.567 27.2313 173.18 26.8734C172.8 26.5098 172.609 26.0751 172.609 25.5694C172.609 25.0694 172.8 24.6404 173.18 24.2825C173.567 23.9188 174.03 23.737 174.57 23.737C175.109 23.737 175.57 23.9188 175.95 24.2825C176.337 24.6404 176.53 25.0694 176.53 25.5694C176.53 26.0751 176.337 26.5098 175.95 26.8734C175.57 27.2313 175.109 27.4103 174.57 27.4103ZM179.353 42.1887V24.7342H182.984V31.2967H183.094C183.254 30.9444 183.484 30.5865 183.785 30.2228C184.092 29.8535 184.489 29.5467 184.978 29.3024C185.472 29.0524 186.086 28.9274 186.819 28.9274C187.773 28.9274 188.654 29.1774 189.461 29.6774C190.268 30.1717 190.913 30.9188 191.396 31.9188C191.879 32.9132 192.12 34.1603 192.12 35.6603C192.12 37.1206 191.884 38.3535 191.413 39.3592C190.947 40.3592 190.31 41.1177 189.504 41.6348C188.702 42.1461 187.805 42.4018 186.81 42.4018C186.106 42.4018 185.506 42.2853 185.012 42.0524C184.523 41.8194 184.123 41.5268 183.81 41.1745C183.498 40.8166 183.259 40.4558 183.094 40.0921H182.933V42.1887H179.353ZM182.907 35.6433C182.907 36.4217 183.015 37.1007 183.231 37.6802C183.447 38.2598 183.759 38.7115 184.168 39.0353C184.577 39.3535 185.075 39.5126 185.66 39.5126C186.251 39.5126 186.751 39.3507 187.16 39.0268C187.569 38.6973 187.879 38.2427 188.089 37.6632C188.305 37.0779 188.413 36.4046 188.413 35.6433C188.413 34.8876 188.308 34.2228 188.097 33.649C187.887 33.0751 187.577 32.6262 187.168 32.3024C186.759 31.9785 186.256 31.8166 185.66 31.8166C185.069 31.8166 184.569 31.9728 184.16 32.2853C183.756 32.5978 183.447 33.041 183.231 33.6149C183.015 34.1887 182.907 34.8649 182.907 35.6433ZM200.509 42.4444C199.162 42.4444 198.003 42.1717 197.031 41.6262C196.065 41.0751 195.321 40.2967 194.798 39.291C194.276 38.2796 194.014 37.0836 194.014 35.7029C194.014 34.3563 194.276 33.1745 194.798 32.1575C195.321 31.1404 196.057 30.3478 197.006 29.7796C197.96 29.2115 199.08 28.9274 200.364 28.9274C201.227 28.9274 202.031 29.0666 202.776 29.345C203.526 29.6177 204.179 30.0296 204.736 30.5808C205.298 31.1319 205.736 31.8251 206.048 32.6603C206.361 33.4899 206.517 34.4615 206.517 35.5751V36.5723H195.463V34.3223H203.099C203.099 33.7995 202.986 33.3365 202.759 32.9331C202.531 32.5296 202.216 32.2143 201.812 31.987C201.415 31.7541 200.952 31.6376 200.423 31.6376C199.872 31.6376 199.384 31.7654 198.957 32.0211C198.537 32.2711 198.207 32.6092 197.969 33.0353C197.73 33.4558 197.608 33.9245 197.602 34.4416V36.5808C197.602 37.2285 197.722 37.7882 197.96 38.2598C198.205 38.7313 198.548 39.095 198.991 39.3507C199.435 39.6063 199.96 39.7342 200.568 39.7342C200.972 39.7342 201.341 39.6774 201.676 39.5637C202.011 39.4501 202.298 39.2796 202.537 39.0524C202.776 38.8251 202.957 38.5467 203.082 38.2171L206.44 38.4387C206.27 39.2456 205.92 39.9501 205.392 40.5524C204.869 41.149 204.193 41.6149 203.364 41.9501C202.54 42.2796 201.588 42.4444 200.509 42.4444Z" fill="black"/>
<rect x="1" y="1.58496" width="230" height="63.2076" rx="7" stroke="#9AA8BE" stroke-width="2"/>
<defs>
<clipPath id="clip0_1_218">
<rect width="48" height="33.2075" fill="white" transform="translate(24 16.585)"/>
</clipPath>
</defs>
</svg>
