<svg xmlns="http://www.w3.org/2000/svg" xmlns:xlink="http://www.w3.org/1999/xlink" width="64" zoomAndPan="magnify" viewBox="0 0 48 30.000001" height="40" preserveAspectRatio="xMidYMid meet" version="1.0"><defs><clipPath id="285c5a5148"><path d="M 7.550781 1.070312 L 41.664062 1.070312 L 41.664062 28.648438 L 7.550781 28.648438 Z M 7.550781 1.070312 " clip-rule="nonzero"/></clipPath><clipPath id="eec3755c8c"><path d="M 18.300781 6.277344 L 29.691406 6.277344 L 29.691406 17.664062 L 18.300781 17.664062 Z M 18.300781 6.277344 " clip-rule="nonzero"/></clipPath></defs><g clip-path="url(#285c5a5148)"><path fill="#5374ea" d="M 8.648438 1.8125 L 40.257812 1.8125 C 40.421875 1.8125 40.558594 1.941406 40.5625 2.105469 C 40.5625 2.105469 40.5625 2.109375 40.5625 2.113281 L 40.5625 21.953125 C 40.5625 22.117188 40.429688 22.253906 40.265625 22.253906 C 40.261719 22.253906 40.261719 22.253906 40.257812 22.253906 L 8.648438 22.253906 C 8.488281 22.257812 8.347656 22.125 8.347656 21.960938 C 8.347656 21.960938 8.347656 21.957031 8.347656 21.953125 L 8.347656 2.113281 C 8.347656 1.949219 8.480469 1.8125 8.640625 1.8125 C 8.644531 1.8125 8.648438 1.8125 8.648438 1.8125 Z M 8.339844 1.070312 C 7.933594 1.078125 7.609375 1.410156 7.609375 1.8125 L 7.609375 23.796875 C 7.609375 24.203125 7.933594 24.53125 8.339844 24.542969 L 21.976562 24.542969 L 21.976562 26.890625 C 21.976562 27.054688 21.84375 27.191406 21.679688 27.191406 C 21.675781 27.191406 21.675781 27.191406 21.671875 27.191406 L 20.03125 27.191406 C 19.316406 27.195312 18.699219 27.6875 18.53125 28.378906 C 18.492188 28.539062 18.589844 28.699219 18.75 28.738281 C 18.773438 28.746094 18.796875 28.75 18.820312 28.75 L 30.109375 28.75 C 30.273438 28.75 30.40625 28.613281 30.40625 28.449219 C 30.40625 28.425781 30.402344 28.402344 30.398438 28.378906 C 30.226562 27.679688 29.597656 27.1875 28.875 27.191406 L 27.234375 27.191406 C 27.074219 27.183594 26.945312 27.050781 26.945312 26.890625 L 26.945312 24.542969 L 40.5625 24.542969 C 40.972656 24.546875 41.308594 24.214844 41.316406 23.804688 C 41.316406 23.804688 41.316406 23.800781 41.316406 23.796875 L 41.316406 1.8125 C 41.3125 1.402344 40.980469 1.070312 40.570312 1.070312 C 40.566406 1.070312 40.566406 1.070312 40.5625 1.070312 L 8.339844 1.070312 " fill-opacity="1" fill-rule="nonzero"/></g><g clip-path="url(#eec3755c8c)"><path fill="#5072eb" d="M 23.996094 6.605469 C 21.039062 6.605469 18.632812 9.015625 18.632812 11.972656 C 18.632812 14.929688 21.039062 17.335938 23.996094 17.335938 C 26.953125 17.335938 29.359375 14.929688 29.359375 11.972656 C 29.359375 9.015625 26.953125 6.605469 23.996094 6.605469 Z M 23.996094 17.664062 C 20.855469 17.664062 18.300781 15.113281 18.300781 11.972656 C 18.300781 8.832031 20.855469 6.277344 23.996094 6.277344 C 27.136719 6.277344 29.691406 8.832031 29.691406 11.972656 C 29.691406 15.113281 27.136719 17.664062 23.996094 17.664062 " fill-opacity="1" fill-rule="nonzero"/></g><path fill="#5072eb" d="M 26.800781 11.972656 L 22.4375 9.453125 L 22.4375 14.488281 L 26.800781 11.972656 L 22.4375 9.453125 L 22.4375 14.488281 L 26.800781 11.972656 " fill-opacity="1" fill-rule="nonzero"/></svg>