<svg width="252" height="82" viewBox="0 0 252 82" fill="none" xmlns="http://www.w3.org/2000/svg">
<path d="M211.145 1.32568H40.8551C18.8437 1.32568 1 19.1694 1 41.1808C1 63.1921 18.8437 81.0358 40.8551 81.0358H211.145C233.156 81.0358 251 63.1921 251 41.1808C251 19.1694 233.156 1.32568 211.145 1.32568Z" fill="#212121"/>
<path d="M118.792 28.9887L121.348 20.0016H122.586L121.87 23.4956L119.119 32.8809H117.889L118.792 28.9887ZM116.147 20.0016L118.181 28.8119L118.792 32.8809H117.571L114.449 20.0016H116.147ZM125.895 28.803L127.885 20.0016H129.592L126.479 32.8809H125.258L125.895 28.803ZM122.772 20.0016L125.258 28.9887L126.16 32.8809H124.931L122.277 23.4956L121.552 20.0016H122.772Z" fill="white"/>
<path d="M136.58 31.2443V26.3174C136.58 25.94 136.504 25.6126 136.35 25.3355C136.203 25.0525 135.979 24.8342 135.678 24.6809C135.377 24.5277 135.006 24.4509 134.564 24.4509C134.151 24.4509 133.788 24.5217 133.475 24.6632C133.169 24.8047 132.927 24.9905 132.75 25.2204C132.579 25.4505 132.494 25.6982 132.494 25.9636H130.857C130.857 25.6215 130.946 25.2824 131.123 24.9463C131.299 24.6101 131.553 24.3065 131.883 24.0351C132.219 23.7581 132.62 23.5398 133.086 23.3806C133.558 23.2155 134.083 23.1329 134.661 23.1329C135.357 23.1329 135.97 23.2509 136.501 23.4867C137.037 23.7226 137.456 24.0795 137.757 24.557C138.063 25.0288 138.217 25.6215 138.217 26.3351V30.7933C138.217 31.1117 138.243 31.4509 138.296 31.8105C138.355 32.1703 138.441 32.4799 138.553 32.7393V32.8809H136.846C136.763 32.6922 136.698 32.4414 136.651 32.1289C136.604 31.8105 136.58 31.5157 136.58 31.2443ZM136.863 27.078L136.881 28.228H135.227C134.761 28.228 134.345 28.2664 133.98 28.3431C133.614 28.4137 133.307 28.523 133.06 28.6703C132.812 28.8177 132.623 29.0036 132.494 29.2277C132.364 29.4458 132.299 29.7023 132.299 29.9972C132.299 30.298 132.367 30.5721 132.502 30.8199C132.638 31.0675 132.841 31.265 133.113 31.4125C133.39 31.5539 133.729 31.6248 134.13 31.6248C134.631 31.6248 135.073 31.5186 135.457 31.3063C135.84 31.094 136.144 30.8346 136.368 30.5279C136.598 30.2213 136.722 29.9235 136.739 29.6346L137.438 30.4217C137.397 30.6695 137.285 30.9436 137.102 31.2443C136.919 31.5453 136.675 31.8342 136.368 32.1114C136.067 32.3826 135.708 32.6096 135.289 32.7924C134.876 32.9693 134.41 33.0578 133.891 33.0578C133.242 33.0578 132.673 32.9309 132.184 32.6775C131.7 32.4239 131.323 32.0847 131.052 31.6601C130.786 31.2297 130.654 30.7491 130.654 30.2183C130.654 29.7052 130.754 29.2541 130.954 28.865C131.155 28.4699 131.444 28.1425 131.821 27.8831C132.199 27.6177 132.653 27.4172 133.184 27.2815C133.714 27.146 134.307 27.078 134.962 27.078H136.863Z" fill="white"/>
<path d="M144.798 23.3099V24.5659H139.623V23.3099H144.798ZM141.375 20.9834H143.011V30.5102C143.011 30.8345 143.061 31.0793 143.162 31.2443C143.262 31.4095 143.391 31.5186 143.551 31.5717C143.71 31.6247 143.881 31.6512 144.064 31.6512C144.199 31.6512 144.341 31.6394 144.488 31.6159C144.642 31.5863 144.757 31.5628 144.833 31.5452L144.842 32.8809C144.712 32.922 144.541 32.9604 144.329 32.9957C144.123 33.0371 143.872 33.0577 143.577 33.0577C143.176 33.0577 142.808 32.9782 142.471 32.8189C142.135 32.6597 141.867 32.3943 141.667 32.0227C141.472 31.6454 141.375 31.1381 141.375 30.5014V20.9834Z" fill="white"/>
<path d="M150.548 31.7132C150.937 31.7132 151.296 31.6337 151.627 31.4744C151.957 31.3152 152.228 31.0971 152.441 30.8199C152.653 30.5367 152.774 30.2154 152.803 29.8556H154.36C154.331 30.4217 154.139 30.9496 153.785 31.4391C153.437 31.9226 152.98 32.3148 152.414 32.6155C151.848 32.9103 151.226 33.0578 150.548 33.0578C149.828 33.0578 149.2 32.9309 148.664 32.6775C148.133 32.4239 147.691 32.0759 147.337 31.6337C146.989 31.1913 146.726 30.6842 146.549 30.1121C146.378 29.5342 146.293 28.9239 146.293 28.2811V27.9096C146.293 27.2668 146.378 26.6594 146.549 26.0875C146.726 25.5094 146.989 24.9994 147.337 24.557C147.691 24.1148 148.133 23.7668 148.664 23.5134C149.2 23.2597 149.828 23.1329 150.548 23.1329C151.296 23.1329 151.951 23.2862 152.511 23.5929C153.071 23.8936 153.511 24.3065 153.829 24.8313C154.154 25.3503 154.331 25.94 154.36 26.6005H152.803C152.774 26.2054 152.662 25.8485 152.467 25.53C152.278 25.2117 152.019 24.9581 151.689 24.7693C151.364 24.5748 150.984 24.4775 150.548 24.4775C150.046 24.4775 149.625 24.5777 149.283 24.7782C148.946 24.9728 148.678 25.2382 148.478 25.5744C148.283 25.9045 148.142 26.2732 148.053 26.68C147.971 27.0811 147.929 27.4909 147.929 27.9096V28.2811C147.929 28.6998 147.971 29.1126 148.053 29.5195C148.136 29.9264 148.274 30.2949 148.469 30.6251C148.669 30.9554 148.938 31.2208 149.274 31.4213C149.616 31.6159 150.041 31.7132 150.548 31.7132Z" fill="white"/>
<path d="M157.836 19.2939V32.8809H156.2V19.2939H157.836ZM157.447 27.7327L156.766 27.7061C156.772 27.0515 156.869 26.447 157.058 25.8926C157.247 25.3325 157.512 24.8459 157.854 24.4332C158.196 24.0204 158.603 23.7019 159.075 23.4778C159.552 23.2479 160.08 23.1329 160.658 23.1329C161.13 23.1329 161.555 23.1977 161.932 23.3274C162.309 23.4513 162.631 23.6519 162.896 23.9291C163.167 24.2061 163.374 24.5658 163.515 25.0082C163.657 25.4445 163.728 25.9782 163.728 26.6091V32.8809H162.082V26.5916C162.082 26.0903 162.009 25.6892 161.861 25.3885C161.714 25.0818 161.498 24.8608 161.215 24.7251C160.932 24.5836 160.585 24.5128 160.172 24.5128C159.765 24.5128 159.393 24.5983 159.057 24.7693C158.727 24.9403 158.441 25.1762 158.199 25.4769C157.963 25.7778 157.777 26.1227 157.642 26.5118C157.512 26.8952 157.447 27.3021 157.447 27.7327Z" fill="white"/>
<path d="M170.238 28.2014V27.998C170.238 27.3081 170.338 26.6683 170.539 26.0786C170.739 25.4829 171.028 24.967 171.406 24.5306C171.783 24.0882 172.24 23.7462 172.777 23.5045C173.313 23.2568 173.915 23.1329 174.581 23.1329C175.254 23.1329 175.858 23.2568 176.395 23.5045C176.937 23.7462 177.397 24.0882 177.775 24.5306C178.158 24.967 178.45 25.4829 178.65 26.0786C178.851 26.6683 178.951 27.3081 178.951 27.998V28.2014C178.951 28.8914 178.851 29.5313 178.65 30.121C178.45 30.7107 178.158 31.2268 177.775 31.669C177.397 32.1054 176.94 32.4474 176.404 32.6951C175.873 32.9369 175.271 33.0578 174.599 33.0578C173.927 33.0578 173.322 32.9369 172.786 32.6951C172.249 32.4474 171.789 32.1054 171.406 31.669C171.028 31.2268 170.739 30.7107 170.539 30.121C170.338 29.5313 170.238 28.8914 170.238 28.2014ZM171.875 27.998V28.2014C171.875 28.6791 171.931 29.1302 172.043 29.5549C172.155 29.9735 172.323 30.3451 172.547 30.6695C172.777 30.9938 173.063 31.2503 173.405 31.4391C173.747 31.6219 174.145 31.7132 174.599 31.7132C175.047 31.7132 175.439 31.6219 175.776 31.4391C176.118 31.2503 176.401 30.9938 176.625 30.6695C176.849 30.3451 177.017 29.9735 177.129 29.5549C177.247 29.1302 177.306 28.6791 177.306 28.2014V27.998C177.306 27.5262 177.247 27.0811 177.129 26.6623C177.017 26.2378 176.846 25.8634 176.616 25.5389C176.392 25.2087 176.109 24.9492 175.767 24.7605C175.431 24.5719 175.036 24.4775 174.581 24.4775C174.133 24.4775 173.738 24.5719 173.396 24.7605C173.06 24.9492 172.777 25.2087 172.547 25.5389C172.323 25.8634 172.155 26.2378 172.043 26.6623C171.931 27.0811 171.875 27.5262 171.875 27.998Z" fill="white"/>
<path d="M182.639 25.3532V32.8809H181.003V23.3099H182.552L182.639 25.3532ZM182.251 27.7328L181.57 27.7061C181.576 27.0516 181.673 26.4471 181.862 25.8927C182.05 25.3326 182.315 24.846 182.657 24.4333C183 24.0204 183.407 23.702 183.878 23.4779C184.356 23.248 184.884 23.1329 185.462 23.1329C185.933 23.1329 186.358 23.1978 186.735 23.3275C187.112 23.4514 187.434 23.652 187.699 23.9291C187.971 24.2061 188.177 24.5659 188.318 25.0083C188.46 25.4445 188.53 25.9782 188.53 26.6092V32.8809H186.885V26.5916C186.885 26.0904 186.811 25.6893 186.664 25.3886C186.518 25.0818 186.302 24.8608 186.019 24.7251C185.735 24.5837 185.387 24.5128 184.974 24.5128C184.568 24.5128 184.197 24.5983 183.86 24.7693C183.53 24.9404 183.244 25.1762 183.003 25.477C182.766 25.7779 182.581 26.1228 182.445 26.5119C182.315 26.8953 182.251 27.3021 182.251 27.7328Z" fill="white"/>
<path d="M120.807 60.3812V52.9319L114.14 40.6421H117.155L122.256 50.2073L127.474 40.6421H130.372L123.706 52.9319L123.677 60.3812H120.807Z" fill="white"/>
<path d="M136.173 60.8161C134.182 60.8161 132.646 60.1882 131.564 58.932C130.482 57.676 129.941 55.9079 129.941 53.6277C129.941 51.3668 130.482 49.6085 131.564 48.3523C132.646 47.0963 134.182 46.4683 136.173 46.4683C138.163 46.4683 139.699 47.0963 140.781 48.3523C141.864 49.6085 142.405 51.3668 142.405 53.6277C142.405 55.9079 141.864 57.676 140.781 58.932C139.699 60.1882 138.163 60.8161 136.173 60.8161ZM136.173 58.4683C137.313 58.4683 138.182 58.0529 138.781 57.2219C139.4 56.3717 139.709 55.1737 139.709 53.6277C139.709 52.1204 139.4 50.9418 138.781 50.0914C138.182 49.2413 137.313 48.8161 136.173 48.8161C135.052 48.8161 134.182 49.2413 133.564 50.0914C132.946 50.9418 132.637 52.1204 132.637 53.6277C132.637 55.1737 132.946 56.3717 133.564 57.2219C134.182 58.0529 135.052 58.4683 136.173 58.4683Z" fill="white"/>
<path d="M150.549 60.7871C148.964 60.7871 147.737 60.3137 146.868 59.3668C145.998 58.42 145.563 57.019 145.563 55.1639V46.903H148.259V54.5842C148.259 55.2412 148.317 55.8499 148.433 56.4103C148.568 56.9708 148.829 57.4248 149.215 57.7726C149.621 58.1204 150.22 58.2943 151.012 58.2943C152.017 58.2943 152.79 57.9659 153.331 57.3088C153.892 56.6519 154.172 55.6566 154.172 54.3233V46.903H156.868V60.3813H154.433V58.874C153.969 59.5117 153.399 59.9949 152.723 60.3233C152.066 60.6325 151.341 60.7871 150.549 60.7871Z" fill="white"/>
<path d="M163.668 60.3812V43.2218H157.465V40.6421H173.176L172.335 43.2218H166.567V60.3812H163.668Z" fill="white"/>
<path d="M178.028 60.7871C176.444 60.7871 175.217 60.3137 174.347 59.3668C173.478 58.42 173.043 57.019 173.043 55.1639V46.903H175.738V54.5842C175.738 55.2412 175.796 55.8499 175.912 56.4103C176.048 56.9708 176.309 57.4248 176.695 57.7726C177.101 58.1204 177.7 58.2943 178.492 58.2943C179.498 58.2943 180.27 57.9659 180.811 57.3088C181.371 56.6519 181.652 55.6566 181.652 54.3233V46.903H184.347V60.3813H181.913V58.874C181.449 59.5117 180.878 59.9949 180.203 60.3233C179.545 60.6325 178.821 60.7871 178.028 60.7871Z" fill="white"/>
<path d="M195.351 60.787C193.63 60.787 192.297 60.1687 191.351 58.9319V60.3812H188.8V40.6421H191.496V48.2363C192.442 47.0768 193.728 46.4971 195.351 46.4971C197.128 46.4971 198.529 47.1252 199.554 48.3812C200.597 49.618 201.119 51.3667 201.119 53.6276C201.119 55.9078 200.597 57.6759 199.554 58.9319C198.529 60.1687 197.128 60.787 195.351 60.787ZM194.945 58.4392C196.047 58.4392 196.896 58.0334 197.496 57.2218C198.114 56.391 198.423 55.1928 198.423 53.6276C198.423 52.1397 198.114 50.9707 197.496 50.1203C196.896 49.2701 196.047 48.845 194.945 48.845C193.844 48.845 192.992 49.2701 192.395 50.1203C191.795 50.9707 191.496 52.1397 191.496 53.6276C191.496 55.1736 191.795 56.362 192.395 57.1928C192.992 58.0238 193.844 58.4392 194.945 58.4392Z" fill="white"/>
<path d="M210.054 60.7869C208.063 60.7869 206.507 60.1686 205.387 58.9318C204.286 57.6758 203.735 55.9561 203.735 53.7724C203.735 52.3619 203.967 51.1155 204.431 50.0332C204.895 48.9318 205.57 48.072 206.46 47.4535C207.347 46.8158 208.449 46.497 209.764 46.497C211.677 46.497 213.116 47.1155 214.083 48.3521C215.049 49.5695 215.532 51.2216 215.532 53.3086C215.532 53.5405 215.512 53.7532 215.474 53.9463C215.454 54.1396 215.434 54.3619 215.416 54.613H206.373C206.469 55.9851 206.866 56.9802 207.561 57.5985C208.275 58.2169 209.222 58.526 210.402 58.526C211.02 58.526 211.57 58.439 212.054 58.2651C212.536 58.072 213.058 57.7434 213.619 57.2796L214.981 59.0188C214.246 59.6372 213.483 60.0912 212.692 60.3811C211.918 60.6517 211.039 60.7869 210.054 60.7869ZM209.793 48.7579C208.73 48.7579 207.918 49.1155 207.358 49.8303C206.797 50.5454 206.469 51.5019 206.373 52.6999H213.126C213.087 51.4633 212.797 50.497 212.257 49.8014C211.735 49.1057 210.913 48.7579 209.793 48.7579Z" fill="white"/>
<path d="M66.2505 63.3431C66.2505 63.3431 87.0933 63.3431 92.2632 61.9458C95.1743 61.1542 97.3632 58.8719 98.1319 56.054C99.5523 50.8841 99.5523 40.0085 99.5523 40.0085C99.5523 40.0085 99.5523 29.2029 98.1319 24.0795C97.3632 21.1919 95.1743 18.9562 92.2632 18.1877C87.0933 16.7672 66.2505 16.7672 66.2505 16.7672C66.2505 16.7672 45.4543 16.7672 40.3076 18.1877C37.4433 18.9562 35.2076 21.1919 34.3926 24.0795C33.0185 29.2029 33.0185 40.0085 33.0185 40.0085C33.0185 40.0085 33.0185 50.8841 34.3926 56.054C35.2076 58.8719 37.4433 61.1542 40.3076 61.9458C45.4543 63.3431 66.2505 63.3431 66.2505 63.3431Z" fill="#FF0000"/>
<path d="M76.8947 40.0084L59.6382 30.0644V50.0222L76.8947 40.0084Z" fill="white"/>
<path d="M211.145 1.32568H40.8551C18.8437 1.32568 1 19.1694 1 41.1808C1 63.1921 18.8437 81.0358 40.8551 81.0358H211.145C233.156 81.0358 251 63.1921 251 41.1808C251 19.1694 233.156 1.32568 211.145 1.32568Z" stroke="#212121" stroke-width="1.81159"/>
</svg>
